<svg xmlns="http://www.w3.org/2000/svg" width="218" height="203" fill="none">
  <defs/>
  <path fill="#fff" d="M0 0h218v203H0z"/>
  <path fill="#fff" stroke="#000" d="M7.5.5h210v194H7.5z"/>
  <path fill="#fff" stroke="#000" d="M.5 8.5h210v194H.5z"/>
  <path fill="#000" d="M26.524 70.7v6.012h7.068v1.896h-7.068V86h-2.328V68.804h10.596V70.7h-8.268zm11.735 5.58c.384-.832.856-1.48 1.416-1.944.56-.472 1.244-.708 2.052-.708.256 0 .5.028.732.084.24.056.452.144.636.264l-.156 1.596c-.048.2-.168.3-.36.3-.112 0-.276-.024-.492-.072a3.387 3.387 0 00-.732-.072 2.97 2.97 0 00-1.032.168c-.296.112-.564.28-.804.504a3.565 3.565 0 00-.636.816c-.184.32-.352.688-.504 1.104V86h-2.148V73.844h1.224c.232 0 .392.044.48.132.088.088.148.24.18.456l.144 1.848zm8.97-2.436V86h-2.136V73.844h2.136zm.456-3.816c0 .208-.044.404-.132.588a1.63 1.63 0 01-.336.48c-.136.136-.3.244-.492.324-.184.08-.38.12-.588.12a1.459 1.459 0 01-1.056-.444 1.75 1.75 0 01-.324-.48c-.08-.184-.12-.38-.12-.588 0-.208.04-.404.12-.588.08-.192.188-.356.324-.492.136-.144.292-.256.468-.336.184-.08.38-.12.588-.12.208 0 .404.04.588.12.192.08.356.192.492.336.144.136.256.3.336.492.088.184.132.38.132.588zm10.974 6.708c-.4-.536-.832-.908-1.296-1.116a3.653 3.653 0 00-1.56-.324c-1.128 0-1.996.404-2.604 1.212-.608.808-.912 1.96-.912 3.456 0 .792.068 1.472.204 2.04.136.56.336 1.024.6 1.392.264.36.588.624.972.792.384.168.82.252 1.308.252.704 0 1.316-.16 1.836-.48.528-.32 1.012-.772 1.452-1.356v-5.868zm2.136-8.412V86h-1.272c-.304 0-.496-.148-.576-.444l-.192-1.476a6.619 6.619 0 01-1.776 1.512c-.664.384-1.432.576-2.304.576a4.444 4.444 0 01-1.896-.396 3.988 3.988 0 01-1.452-1.188c-.4-.52-.708-1.168-.924-1.944-.216-.776-.324-1.668-.324-2.676 0-.896.12-1.728.36-2.496.24-.776.584-1.448 1.032-2.016a4.744 4.744 0 011.644-1.332c.656-.328 1.392-.492 2.208-.492.744 0 1.38.128 1.908.384a4.534 4.534 0 011.428 1.044v-6.732h2.136zm9.962 12.204c-.984.032-1.824.112-2.52.24-.688.12-1.252.28-1.692.48-.432.2-.748.436-.948.708a1.545 1.545 0 00-.288.912c0 .32.052.596.156.828.104.232.244.424.42.576.184.144.396.252.636.324.248.064.512.096.792.096.376 0 .72-.036 1.032-.108.312-.08.604-.192.876-.336.28-.144.544-.316.792-.516.256-.2.504-.428.744-.684v-2.52zm-6.9-4.968c.672-.648 1.396-1.132 2.172-1.452.776-.32 1.636-.48 2.58-.48.68 0 1.284.112 1.812.336.528.224.972.536 1.332.936.36.4.632.884.816 1.452.184.568.276 1.192.276 1.872V86h-.948c-.208 0-.368-.032-.48-.096-.112-.072-.2-.208-.264-.408l-.24-1.152c-.32.296-.632.56-.936.792a5.87 5.87 0 01-.96.576 5.17 5.17 0 01-1.08.348 5.54 5.54 0 01-1.26.132c-.472 0-.916-.064-1.332-.192a3.219 3.219 0 01-1.092-.6 2.905 2.905 0 01-.732-.996c-.176-.408-.264-.888-.264-1.44 0-.48.132-.94.396-1.38.264-.448.692-.844 1.284-1.188.592-.344 1.364-.624 2.316-.84.952-.224 2.12-.352 3.504-.384v-.948c0-.944-.204-1.656-.612-2.136-.408-.488-1.004-.732-1.788-.732-.528 0-.972.068-1.332.204-.352.128-.66.276-.924.444-.256.16-.48.308-.672.444a.962.962 0 01-.552.192.637.637 0 01-.372-.108 1.134 1.134 0 01-.264-.288l-.384-.684zm22.448-1.716l-6.78 15.744c-.072.16-.164.288-.276.384-.104.096-.268.144-.492.144h-1.584l2.22-4.824-5.016-11.448h1.848c.184 0 .328.048.432.144a.67.67 0 01.228.3l3.252 7.656c.128.336.236.688.324 1.056.112-.376.232-.732.36-1.068l3.156-7.644a.66.66 0 01.24-.312.655.655 0 01.396-.132h1.692zm-60.597 30.764c.264-.296.544-.564.84-.804.296-.24.608-.444.936-.612a4.546 4.546 0 011.056-.396c.376-.096.78-.144 1.212-.144.664 0 1.248.112 1.752.336.512.216.936.528 1.272.936.344.4.604.884.78 1.452.176.568.264 1.196.264 1.884V115h-2.148v-7.74c0-.92-.212-1.632-.636-2.136-.416-.512-1.052-.768-1.908-.768-.632 0-1.224.152-1.776.456a5.871 5.871 0 00-1.512 1.236V115h-2.148v-12.156h1.284c.304 0 .492.148.564.444l.168 1.32zm13.623-1.764V115h-2.136v-12.156h2.136zm.456-3.816c0 .208-.044.404-.132.588a1.63 1.63 0 01-.336.48c-.136.136-.3.244-.492.324-.184.08-.38.12-.588.12a1.459 1.459 0 01-1.056-.444 1.75 1.75 0 01-.324-.48c-.08-.184-.12-.38-.12-.588 0-.208.04-.404.12-.588.08-.192.188-.356.324-.492.136-.144.292-.256.468-.336.184-.08.38-.12.588-.12.208 0 .404.04.588.12.192.08.356.192.492.336.144.136.256.3.336.492.088.184.132.38.132.588zm7.29 10.032c.431 0 .811-.06 1.14-.18a2.33 2.33 0 00.827-.504c.224-.216.392-.472.504-.768a2.86 2.86 0 00.168-.996c0-.744-.228-1.336-.684-1.776-.448-.44-1.1-.66-1.956-.66-.864 0-1.524.22-1.98.66-.448.44-.672 1.032-.672 1.776 0 .36.056.692.168.996.12.296.292.552.516.768.224.216.5.384.828.504.328.12.708.18 1.14.18zm3.851 6.6c0-.296-.084-.536-.252-.72a1.676 1.676 0 00-.684-.432 4.073 4.073 0 00-.984-.216 17.147 17.147 0 00-1.2-.108l-1.272-.072a15.009 15.009 0 01-1.248-.12 3.37 3.37 0 00-1.104.792c-.28.312-.42.68-.42 1.104 0 .272.068.524.204.756.144.24.36.444.648.612.288.176.648.312 1.08.408.44.104.956.156 1.548.156.576 0 1.092-.052 1.548-.156.456-.104.84-.252 1.152-.444.32-.192.564-.42.732-.684.168-.264.252-.556.252-.876zm2.172-12.336v.792c0 .264-.168.432-.504.504l-1.38.18c.272.528.408 1.112.408 1.752 0 .592-.116 1.132-.348 1.62-.224.48-.536.892-.936 1.236s-.88.608-1.44.792a5.812 5.812 0 01-1.824.276 6.15 6.15 0 01-1.608-.204c-.256.16-.452.332-.588.516a.876.876 0 00-.204.54c0 .288.116.508.348.66.24.144.552.248.936.312s.82.104 1.308.12c.496.016 1 .044 1.512.084.52.032 1.024.092 1.512.18.496.088.936.232 1.32.432.384.2.692.476.924.828.24.352.36.808.36 1.368 0 .52-.132 1.024-.396 1.512-.256.488-.628.92-1.116 1.296-.488.384-1.088.688-1.8.912-.704.232-1.5.348-2.388.348-.888 0-1.664-.088-2.328-.264-.664-.176-1.216-.412-1.656-.708-.44-.296-.772-.64-.996-1.032a2.436 2.436 0 01-.324-1.212c0-.6.188-1.108.564-1.524.376-.416.892-.748 1.548-.996a2.297 2.297 0 01-.864-.636c-.208-.272-.312-.636-.312-1.092 0-.176.032-.356.096-.54.064-.192.16-.38.288-.564a3.1 3.1 0 011.164-.984 3.752 3.752 0 01-1.404-1.332c-.336-.56-.504-1.208-.504-1.944 0-.592.112-1.128.336-1.608.232-.488.552-.9.96-1.236a4.313 4.313 0 011.452-.792 6.006 6.006 0 011.86-.276c.528 0 1.02.06 1.476.18.456.112.872.28 1.248.504h3.3zm4.357 1.14a6.452 6.452 0 011.728-1.32c.632-.328 1.36-.492 2.184-.492.664 0 1.248.112 1.752.336.512.216.936.528 1.272.936.344.4.604.884.78 1.452.176.568.264 1.196.264 1.884V115H63.29v-7.74c0-.92-.212-1.632-.636-2.136-.416-.512-1.052-.768-1.908-.768-.632 0-1.224.152-1.776.456a5.871 5.871 0 00-1.512 1.236V115H55.31V97.324h2.148v7.14zm14.803 10.728c-.96 0-1.7-.268-2.22-.804-.512-.536-.768-1.308-.768-2.316v-7.44h-1.464a.495.495 0 01-.324-.108c-.088-.08-.132-.2-.132-.36v-.852l1.992-.252.492-3.756a.509.509 0 01.156-.288.48.48 0 01.336-.12h1.08v4.188h3.516v1.548h-3.516v7.296c0 .512.124.892.372 1.14.248.248.568.372.96.372.224 0 .416-.028.576-.084.168-.064.312-.132.432-.204.12-.072.22-.136.3-.192.088-.064.164-.096.228-.096.112 0 .212.068.3.204l.624 1.02a4.058 4.058 0 01-1.332.816 4.607 4.607 0 01-1.608.288zm11.95-10.344a.473.473 0 01-.444.264.835.835 0 01-.409-.132 7.18 7.18 0 00-.564-.288 4.303 4.303 0 00-.78-.3 3.603 3.603 0 00-1.08-.144c-.36 0-.684.048-.972.144a2.318 2.318 0 00-.743.372c-.2.16-.356.348-.469.564a1.508 1.508 0 00-.155.684c0 .312.088.572.264.78.183.208.423.388.72.54.296.152.632.288 1.007.408.377.112.76.236 1.153.372.4.128.787.272 1.163.432.377.16.713.36 1.008.6.296.24.532.536.709.888.184.344.276.76.276 1.248 0 .56-.1 1.08-.3 1.56a3.46 3.46 0 01-.888 1.236 4.34 4.34 0 01-1.44.816c-.569.2-1.225.3-1.969.3-.847 0-1.615-.136-2.303-.408-.689-.28-1.272-.636-1.752-1.068l.504-.816a.732.732 0 01.228-.24.615.615 0 01.335-.084c.145 0 .297.056.457.168.16.112.352.236.575.372.233.136.513.26.84.372.329.112.737.168 1.225.168.415 0 .78-.052 1.091-.156.313-.112.573-.26.78-.444.209-.184.36-.396.457-.636a1.91 1.91 0 00.156-.768c0-.336-.093-.612-.276-.828a2.105 2.105 0 00-.709-.564 5.212 5.212 0 00-1.02-.408l-1.163-.372a15.68 15.68 0 01-1.164-.432 4.273 4.273 0 01-1.009-.624 2.89 2.89 0 01-.72-.912c-.175-.368-.263-.812-.263-1.332 0-.464.096-.908.287-1.332.193-.432.473-.808.84-1.128.368-.328.82-.588 1.356-.78.536-.192 1.148-.288 1.836-.288.8 0 1.516.128 2.148.384.64.248 1.192.592 1.656 1.032l-.48.78z"/>
</svg>
