<svg xmlns="http://www.w3.org/2000/svg" width="218" height="203" fill="none">
  <defs/>
  <path fill="#fff" d="M0 0h218v203H0z"/>
  <path fill="#fff" stroke="#000" d="M7.5.5h210v194H7.5z"/>
  <path fill="#fff" stroke="#000" d="M.5 8.5h210v194H.5z"/>
  <path fill="#000" d="M32.992 71.492a.919.919 0 01-.24.276.51.51 0 01-.3.084c-.136 0-.296-.068-.48-.204a7.19 7.19 0 00-.696-.444 5.053 5.053 0 00-.996-.456c-.384-.136-.852-.204-1.404-.204-.52 0-.98.072-1.38.216a2.943 2.943 0 00-.996.564 2.36 2.36 0 00-.6.852c-.136.32-.204.668-.204 1.044 0 .48.116.88.348 1.2.24.312.552.58.936.804.392.224.832.42 1.32.588.496.16 1 .328 1.512.504.52.176 1.024.376 1.512.6a5.05 5.05 0 011.32.828c.392.336.704.748.936 1.236.24.488.36 1.088.36 1.8 0 .752-.128 1.46-.384 2.124a4.855 4.855 0 01-1.128 1.716c-.488.488-1.092.872-1.812 1.152-.712.28-1.524.42-2.436.42-1.12 0-2.136-.2-3.048-.6a7.227 7.227 0 01-2.34-1.644l.672-1.104a.835.835 0 01.228-.216.552.552 0 01.312-.096c.104 0 .22.044.348.132.136.08.288.184.456.312a19 19 0 00.576.42c.216.152.46.292.732.42.28.128.596.236.948.324.352.08.748.12 1.188.12.552 0 1.044-.076 1.476-.228a3.121 3.121 0 001.092-.636c.304-.28.536-.612.696-.996.16-.384.24-.812.24-1.284 0-.52-.12-.944-.36-1.272a2.841 2.841 0 00-.924-.84 6.243 6.243 0 00-1.32-.564c-.496-.16-1-.32-1.512-.48a17.272 17.272 0 01-1.512-.576 4.885 4.885 0 01-1.32-.84 3.947 3.947 0 01-.936-1.284c-.232-.52-.348-1.16-.348-1.92 0-.608.116-1.196.348-1.764a4.625 4.625 0 011.032-1.512 5.125 5.125 0 011.668-1.056c.664-.264 1.424-.396 2.28-.396.96 0 1.832.152 2.616.456a6.18 6.18 0 012.088 1.32l-.564 1.104zm6.924 14.7c-.96 0-1.7-.268-2.22-.804-.512-.536-.768-1.308-.768-2.316v-7.44h-1.464a.495.495 0 01-.324-.108c-.088-.08-.132-.2-.132-.36v-.852L37 74.06l.492-3.756a.509.509 0 01.156-.288.48.48 0 01.336-.12h1.08v4.188h3.516v1.548h-3.516v7.296c0 .512.124.892.372 1.14.248.248.568.372.96.372.224 0 .416-.028.576-.084.168-.064.312-.132.432-.204.12-.072.22-.136.3-.192.088-.064.164-.096.228-.096.112 0 .212.068.3.204l.624 1.02a4.058 4.058 0 01-1.332.816 4.607 4.607 0 01-1.608.288zm14.866-12.348V86H53.51c-.304 0-.496-.148-.576-.444l-.168-1.308a6.792 6.792 0 01-1.776 1.416c-.656.352-1.408.528-2.256.528-.664 0-1.252-.108-1.764-.324a3.558 3.558 0 01-1.272-.936 4.02 4.02 0 01-.78-1.452 6.626 6.626 0 01-.252-1.884v-7.752h2.136v7.752c0 .92.208 1.632.624 2.136.424.504 1.068.756 1.932.756.632 0 1.22-.148 1.764-.444a5.685 5.685 0 001.524-1.248v-8.952h2.136zm11.307 2.892c-.4-.536-.832-.908-1.296-1.116a3.653 3.653 0 00-1.56-.324c-1.128 0-1.996.404-2.604 1.212-.608.808-.912 1.96-.912 3.456 0 .792.068 1.472.204 2.04.136.56.336 1.024.6 1.392.264.36.588.624.972.792.384.168.82.252 1.308.252.704 0 1.316-.16 1.836-.48.528-.32 1.012-.772 1.452-1.356v-5.868zm2.136-8.412V86h-1.272c-.304 0-.496-.148-.576-.444l-.192-1.476a6.619 6.619 0 01-1.776 1.512c-.664.384-1.432.576-2.304.576a4.444 4.444 0 01-1.896-.396 3.988 3.988 0 01-1.452-1.188c-.4-.52-.708-1.168-.924-1.944-.216-.776-.324-1.668-.324-2.676 0-.896.12-1.728.36-2.496.24-.776.584-1.448 1.032-2.016a4.744 4.744 0 011.644-1.332c.656-.328 1.392-.492 2.208-.492.744 0 1.38.128 1.908.384a4.534 4.534 0 011.428 1.044v-6.732h2.136zm5.63 5.52V86h-2.137V73.844h2.136zm.455-3.816c0 .208-.044.404-.132.588a1.63 1.63 0 01-.336.48c-.136.136-.3.244-.492.324-.184.08-.38.12-.588.12a1.459 1.459 0 01-1.056-.444 1.75 1.75 0 01-.324-.48c-.08-.184-.12-.38-.12-.588 0-.208.04-.404.12-.588.08-.192.188-.356.324-.492.136-.144.292-.256.468-.336.184-.08.38-.12.588-.12.208 0 .404.04.588.12.192.08.356.192.492.336.144.136.256.3.336.492.088.184.132.38.132.588zm11.19 8.568c0-.496-.072-.948-.216-1.356a2.875 2.875 0 00-.612-1.068 2.583 2.583 0 00-.972-.696 3.233 3.233 0 00-1.308-.252c-1.024 0-1.836.3-2.436.9-.592.592-.96 1.416-1.104 2.472H85.5zm1.728 5.7c-.264.32-.58.6-.948.84a6.044 6.044 0 01-1.188.576 7.007 7.007 0 01-1.296.336c-.448.08-.892.12-1.332.12-.84 0-1.616-.14-2.328-.42A5.272 5.272 0 0178.3 84.5c-.512-.552-.912-1.232-1.2-2.04-.288-.808-.432-1.736-.432-2.784 0-.848.128-1.64.384-2.376a5.612 5.612 0 011.128-1.908 5.063 5.063 0 011.788-1.272c.704-.312 1.496-.468 2.376-.468.728 0 1.4.124 2.016.372.624.24 1.16.592 1.608 1.056.456.456.812 1.024 1.068 1.704.256.672.384 1.44.384 2.304 0 .336-.036.56-.108.672-.072.112-.208.168-.408.168H78.78c.024.768.128 1.436.312 2.004.192.568.456 1.044.792 1.428.336.376.736.66 1.2.852a4.2 4.2 0 001.56.276c.536 0 .996-.06 1.38-.18a6.912 6.912 0 001.008-.408c.28-.144.512-.276.696-.396.192-.128.356-.192.492-.192a.47.47 0 01.408.204l.6.78zm9.896-8.448a.473.473 0 01-.444.264.835.835 0 01-.408-.132 7.18 7.18 0 00-.564-.288 4.303 4.303 0 00-.78-.3 3.603 3.603 0 00-1.08-.144c-.36 0-.684.048-.972.144a2.318 2.318 0 00-.744.372c-.2.16-.356.348-.468.564a1.508 1.508 0 00-.156.684c0 .312.088.572.264.78.184.208.424.388.72.54.296.152.632.288 1.008.408.376.112.76.236 1.152.372.4.128.788.272 1.164.432.376.16.712.36 1.008.6.296.24.532.536.708.888.184.344.276.76.276 1.248 0 .56-.1 1.08-.3 1.56a3.46 3.46 0 01-.888 1.236 4.34 4.34 0 01-1.44.816c-.568.2-1.224.3-1.968.3-.848 0-1.616-.136-2.304-.408-.688-.28-1.272-.636-1.752-1.068l.504-.816a.732.732 0 01.228-.24.615.615 0 01.336-.084c.144 0 .296.056.456.168.16.112.352.236.576.372.232.136.512.26.84.372.328.112.736.168 1.224.168.416 0 .78-.052 1.092-.156.312-.112.572-.26.78-.444.208-.184.36-.396.456-.636a1.91 1.91 0 00.156-.768c0-.336-.092-.612-.276-.828a2.105 2.105 0 00-.708-.564 5.212 5.212 0 00-1.02-.408l-1.164-.372a15.68 15.68 0 01-1.164-.432 4.273 4.273 0 01-1.008-.624 2.89 2.89 0 01-.72-.912c-.176-.368-.264-.812-.264-1.332 0-.464.096-.908.288-1.332.192-.432.472-.808.84-1.128.368-.328.82-.588 1.356-.78.536-.192 1.148-.288 1.836-.288.8 0 1.516.128 2.148.384.64.248 1.192.592 1.656 1.032l-.48.78zm11.699-2.004V86h-2.136V73.844h2.136zm.456-3.816c0 .208-.044.404-.132.588a1.63 1.63 0 01-.336.48c-.136.136-.3.244-.492.324-.184.08-.38.12-.588.12a1.459 1.459 0 01-1.056-.444 1.75 1.75 0 01-.324-.48c-.08-.184-.12-.38-.12-.588 0-.208.04-.404.12-.588.08-.192.188-.356.324-.492.136-.144.292-.256.468-.336.184-.08.38-.12.588-.12.208 0 .404.04.588.12.192.08.356.192.492.336.144.136.256.3.336.492.088.184.132.38.132.588zm5.07 5.58c.264-.296.544-.564.84-.804.296-.24.608-.444.936-.612a4.546 4.546 0 011.056-.396c.376-.096.78-.144 1.212-.144.664 0 1.248.112 1.752.336.512.216.936.528 1.272.936.344.4.604.884.78 1.452.176.568.264 1.196.264 1.884V86h-2.148v-7.74c0-.92-.212-1.632-.636-2.136-.416-.512-1.052-.768-1.908-.768-.632 0-1.224.152-1.776.456a5.871 5.871 0 00-1.512 1.236V86h-2.148V73.844h1.284c.304 0 .492.148.564.444l.168 1.32zm-78.081 35.84c.128 0 .24.052.336.156l.924.996a7.343 7.343 0 01-2.568 1.908c-1 .456-2.212.684-3.636.684-1.232 0-2.352-.212-3.36-.636a7.497 7.497 0 01-2.58-1.8c-.712-.776-1.264-1.704-1.656-2.784-.392-1.08-.588-2.268-.588-3.564 0-1.296.204-2.484.612-3.564.408-1.08.98-2.008 1.716-2.784a7.692 7.692 0 012.664-1.8c1.032-.432 2.172-.648 3.42-.648 1.224 0 2.304.196 3.24.588.936.392 1.76.924 2.472 1.596l-.768 1.068a.665.665 0 01-.192.204.537.537 0 01-.3.072c-.144 0-.32-.076-.528-.228a7.32 7.32 0 00-.816-.528 6.12 6.12 0 00-1.26-.516c-.504-.16-1.124-.24-1.86-.24-.888 0-1.7.156-2.436.468a5.31 5.31 0 00-1.908 1.332c-.528.584-.94 1.296-1.236 2.136-.296.84-.444 1.788-.444 2.844 0 1.072.152 2.028.456 2.868.312.84.732 1.552 1.26 2.136a5.434 5.434 0 001.884 1.32 6.042 6.042 0 002.352.456c.512 0 .972-.028 1.38-.084.416-.064.796-.16 1.14-.288.352-.128.676-.288.972-.48.304-.2.604-.436.9-.708.136-.12.272-.18.408-.18zm5.603-6.984a6.452 6.452 0 011.728-1.32c.632-.328 1.36-.492 2.184-.492.664 0 1.248.112 1.752.336.512.216.936.528 1.272.936.344.4.604.884.78 1.452.176.568.264 1.196.264 1.884V115h-2.148v-7.74c0-.92-.212-1.632-.636-2.136-.416-.512-1.052-.768-1.908-.768-.632 0-1.224.152-1.776.456a5.871 5.871 0 00-1.512 1.236V115h-2.148V97.324h2.148v7.14zm13.491-1.62V115h-2.136v-12.156h2.136zm.456-3.816c0 .208-.044.404-.132.588a1.63 1.63 0 01-.336.48c-.136.136-.3.244-.492.324-.184.08-.38.12-.588.12a1.459 1.459 0 01-1.056-.444 1.75 1.75 0 01-.324-.48c-.08-.184-.12-.38-.12-.588 0-.208.04-.404.12-.588.08-.192.188-.356.324-.492.136-.144.292-.256.468-.336.184-.08.38-.12.588-.12.208 0 .404.04.588.12.192.08.356.192.492.336.144.136.256.3.336.492.088.184.132.38.132.588zm5.07 5.58c.264-.296.544-.564.84-.804.296-.24.608-.444.936-.612a4.546 4.546 0 011.056-.396c.376-.096.78-.144 1.212-.144.664 0 1.248.112 1.752.336.512.216.936.528 1.272.936.344.4.604.884.78 1.452.176.568.264 1.196.264 1.884V115h-2.148v-7.74c0-.92-.212-1.632-.636-2.136-.416-.512-1.052-.768-1.908-.768-.632 0-1.224.152-1.776.456a5.871 5.871 0 00-1.512 1.236V115h-2.148v-12.156h1.284c.304 0 .492.148.564.444l.168 1.32zm17.955 4.92c-.984.032-1.825.112-2.52.24-.688.12-1.252.28-1.692.48-.433.2-.749.436-.948.708a1.545 1.545 0 00-.289.912c0 .32.052.596.156.828.105.232.245.424.42.576.184.144.397.252.636.324.249.064.513.096.793.096.376 0 .72-.036 1.031-.108.313-.08.604-.192.876-.336.28-.144.544-.316.793-.516.255-.2.504-.428.743-.684v-2.52zm-6.9-4.968c.672-.648 1.395-1.132 2.172-1.452.776-.32 1.636-.48 2.58-.48.68 0 1.284.112 1.812.336.527.224.971.536 1.331.936s.633.884.817 1.452c.183.568.275 1.192.275 1.872V115h-.948c-.207 0-.367-.032-.48-.096-.111-.072-.2-.208-.263-.408l-.24-1.152c-.32.296-.632.56-.936.792a5.87 5.87 0 01-.96.576 5.17 5.17 0 01-1.08.348 5.54 5.54 0 01-1.26.132c-.473 0-.916-.064-1.333-.192a3.219 3.219 0 01-1.092-.6 2.905 2.905 0 01-.731-.996c-.177-.408-.264-.888-.264-1.44 0-.48.132-.94.395-1.38.264-.448.692-.844 1.284-1.188.593-.344 1.364-.624 2.316-.84.953-.224 2.12-.352 3.505-.384v-.948c0-.944-.205-1.656-.612-2.136-.408-.488-1.004-.732-1.788-.732-.528 0-.972.068-1.332.204-.353.128-.66.276-.925.444-.256.16-.48.308-.672.444a.962.962 0 01-.551.192.637.637 0 01-.372-.108 1.134 1.134 0 01-.264-.288l-.385-.684z"/>
</svg>
