<svg xmlns="http://www.w3.org/2000/svg" width="218" height="203" fill="none">
  <defs/>
  <path fill="#fff" d="M0 0h218v203H0z"/>
  <path fill="#fff" stroke="#000" d="M7.5.5h210v194H7.5z"/>
  <path fill="#fff" stroke="#000" d="M.5 8.5h210v194H.5z"/>
  <path fill="#000" d="M32.992 71.492a.919.919 0 01-.24.276.51.51 0 01-.3.084c-.136 0-.296-.068-.48-.204a7.19 7.19 0 00-.696-.444 5.053 5.053 0 00-.996-.456c-.384-.136-.852-.204-1.404-.204-.52 0-.98.072-1.38.216a2.943 2.943 0 00-.996.564 2.36 2.36 0 00-.6.852c-.136.32-.204.668-.204 1.044 0 .48.116.88.348 1.2.24.312.552.58.936.804.392.224.832.42 1.32.588.496.16 1 .328 1.512.504.52.176 1.024.376 1.512.6a5.05 5.05 0 011.32.828c.392.336.704.748.936 1.236.24.488.36 1.088.36 1.8 0 .752-.128 1.46-.384 2.124a4.855 4.855 0 01-1.128 1.716c-.488.488-1.092.872-1.812 1.152-.712.28-1.524.42-2.436.42-1.12 0-2.136-.2-3.048-.6a7.227 7.227 0 01-2.34-1.644l.672-1.104a.835.835 0 01.228-.216.552.552 0 01.312-.096c.104 0 .22.044.348.132.136.08.288.184.456.312a19 19 0 00.576.42c.216.152.46.292.732.42.28.128.596.236.948.324.352.08.748.12 1.188.12.552 0 1.044-.076 1.476-.228a3.121 3.121 0 001.092-.636c.304-.28.536-.612.696-.996.16-.384.24-.812.24-1.284 0-.52-.12-.944-.36-1.272a2.841 2.841 0 00-.924-.84 6.243 6.243 0 00-1.32-.564c-.496-.16-1-.32-1.512-.48a17.272 17.272 0 01-1.512-.576 4.885 4.885 0 01-1.32-.84 3.947 3.947 0 01-.936-1.284c-.232-.52-.348-1.16-.348-1.92 0-.608.116-1.196.348-1.764a4.625 4.625 0 011.032-1.512 5.125 5.125 0 011.668-1.056c.664-.264 1.424-.396 2.28-.396.96 0 1.832.152 2.616.456a6.18 6.18 0 012.088 1.32l-.564 1.104zm13.493 2.352V86h-1.272c-.304 0-.496-.148-.576-.444l-.168-1.308a6.792 6.792 0 01-1.776 1.416c-.656.352-1.408.528-2.256.528-.664 0-1.252-.108-1.764-.324a3.558 3.558 0 01-1.272-.936 4.02 4.02 0 01-.78-1.452 6.626 6.626 0 01-.252-1.884v-7.752h2.136v7.752c0 .92.208 1.632.624 2.136.424.504 1.068.756 1.932.756.632 0 1.22-.148 1.764-.444a5.685 5.685 0 001.524-1.248v-8.952h2.136zM49.872 86V73.844h1.284c.304 0 .492.148.564.444l.156 1.248a6.187 6.187 0 011.512-1.356c.56-.352 1.208-.528 1.944-.528.816 0 1.476.228 1.98.684.512.456.88 1.072 1.104 1.848.176-.44.4-.82.672-1.14a3.953 3.953 0 012.028-1.248 4.977 4.977 0 011.188-.144c.64 0 1.208.104 1.704.312.504.2.928.496 1.272.888.352.392.62.876.804 1.452.184.568.276 1.22.276 1.956V86h-2.148v-7.74c0-.952-.208-1.672-.624-2.16-.416-.496-1.016-.744-1.8-.744-.352 0-.688.064-1.008.192-.312.12-.588.3-.828.54-.24.24-.432.544-.576.912-.136.36-.204.78-.204 1.26V86h-2.148v-7.74c0-.976-.196-1.704-.588-2.184-.392-.48-.964-.72-1.716-.72-.528 0-1.016.144-1.464.432-.448.28-.86.664-1.236 1.152V86h-2.148zm19.734 0V73.844h1.284c.304 0 .492.148.564.444l.156 1.248a6.187 6.187 0 011.512-1.356c.56-.352 1.208-.528 1.944-.528.816 0 1.476.228 1.98.684.512.456.88 1.072 1.104 1.848.176-.44.4-.82.672-1.14a3.953 3.953 0 012.028-1.248 4.977 4.977 0 011.188-.144c.64 0 1.208.104 1.704.312.504.2.928.496 1.272.888.352.392.62.876.804 1.452.184.568.276 1.22.276 1.956V86h-2.148v-7.74c0-.952-.208-1.672-.624-2.16-.416-.496-1.016-.744-1.8-.744-.352 0-.688.064-1.008.192-.312.12-.588.3-.828.54-.24.24-.432.544-.576.912-.136.36-.204.78-.204 1.26V86h-2.148v-7.74c0-.976-.196-1.704-.588-2.184-.392-.48-.964-.72-1.716-.72-.528 0-1.016.144-1.464.432-.448.28-.86.664-1.236 1.152V86h-2.148zm27.87-7.404c0-.496-.072-.948-.216-1.356a2.875 2.875 0 00-.612-1.068 2.583 2.583 0 00-.972-.696 3.233 3.233 0 00-1.308-.252c-1.024 0-1.836.3-2.436.9-.592.592-.96 1.416-1.104 2.472h6.648zm1.728 5.7c-.264.32-.58.6-.948.84a6.044 6.044 0 01-1.188.576 7.007 7.007 0 01-1.296.336c-.448.08-.892.12-1.332.12-.84 0-1.616-.14-2.328-.42a5.272 5.272 0 01-1.836-1.248c-.512-.552-.912-1.232-1.2-2.04-.288-.808-.432-1.736-.432-2.784 0-.848.128-1.64.384-2.376a5.612 5.612 0 011.128-1.908 5.063 5.063 0 011.788-1.272c.704-.312 1.496-.468 2.376-.468.728 0 1.4.124 2.016.372.624.24 1.16.592 1.608 1.056.456.456.812 1.024 1.068 1.704.256.672.384 1.44.384 2.304 0 .336-.036.56-.108.672-.072.112-.208.168-.408.168h-8.124c.024.768.128 1.436.312 2.004.192.568.456 1.044.792 1.428.336.376.736.66 1.2.852a4.2 4.2 0 001.56.276c.536 0 .996-.06 1.38-.18a6.912 6.912 0 001.008-.408c.28-.144.512-.276.696-.396.192-.128.356-.192.492-.192a.47.47 0 01.408.204l.6.78zm4.844-8.016c.384-.832.856-1.48 1.416-1.944.56-.472 1.244-.708 2.052-.708.256 0 .5.028.732.084.24.056.452.144.636.264l-.156 1.596c-.048.2-.168.3-.36.3-.112 0-.276-.024-.492-.072a3.387 3.387 0 00-.732-.072 2.97 2.97 0 00-1.032.168c-.296.112-.564.28-.804.504a3.565 3.565 0 00-.636.816c-.184.32-.352.688-.504 1.104V86h-2.148V73.844h1.224c.232 0 .392.044.48.132.088.088.148.24.18.456l.144 1.848zm-63.592 26.564L36.52 115h-1.692c-.208 0-.352-.136-.432-.408l-2.688-8.244a4.753 4.753 0 01-.156-.552l-.12-.564-.12.564c-.04.184-.092.372-.156.564l-2.736 8.232c-.072.272-.232.408-.48.408h-1.608l-3.936-12.156h1.68c.168 0 .308.044.42.132.12.088.2.192.24.312l2.328 7.824c.136.576.244 1.12.324 1.632.072-.264.144-.532.216-.804.08-.272.164-.548.252-.828l2.568-7.872a.65.65 0 01.204-.3.592.592 0 01.372-.12h.936c.16 0 .292.04.396.12.104.08.176.18.216.3l2.508 7.872c.088.28.168.556.24.828.072.272.14.54.204.804.04-.264.088-.528.144-.792.064-.272.132-.552.204-.84l2.376-7.824a.592.592 0 01.228-.312.622.622 0 01.396-.132h1.608zm10.052 4.752c0-.496-.072-.948-.216-1.356a2.875 2.875 0 00-.612-1.068 2.583 2.583 0 00-.972-.696 3.233 3.233 0 00-1.308-.252c-1.024 0-1.836.3-2.436.9-.592.592-.96 1.416-1.104 2.472h6.648zm1.728 5.7c-.264.32-.58.6-.948.84a6.044 6.044 0 01-1.188.576 7.007 7.007 0 01-1.296.336c-.448.08-.892.12-1.332.12-.84 0-1.616-.14-2.328-.42a5.272 5.272 0 01-1.836-1.248c-.512-.552-.912-1.232-1.2-2.04-.288-.808-.432-1.736-.432-2.784 0-.848.128-1.64.384-2.376a5.612 5.612 0 011.128-1.908 5.063 5.063 0 011.788-1.272c.704-.312 1.496-.468 2.376-.468.728 0 1.4.124 2.016.372.624.24 1.16.592 1.608 1.056.456.456.812 1.024 1.068 1.704.256.672.384 1.44.384 2.304 0 .336-.036.56-.108.672-.072.112-.208.168-.408.168h-8.124c.024.768.128 1.436.312 2.004.192.568.456 1.044.792 1.428.336.376.736.66 1.2.852a4.2 4.2 0 001.56.276c.536 0 .996-.06 1.38-.18a6.912 6.912 0 001.008-.408c.28-.144.512-.276.696-.396.192-.128.356-.192.492-.192a.47.47 0 01.408.204l.6.78zm10.951-5.7c0-.496-.072-.948-.216-1.356a2.875 2.875 0 00-.612-1.068 2.583 2.583 0 00-.972-.696 3.233 3.233 0 00-1.308-.252c-1.024 0-1.836.3-2.436.9-.592.592-.96 1.416-1.104 2.472h6.648zm1.728 5.7c-.264.32-.58.6-.948.84a6.044 6.044 0 01-1.188.576 7.007 7.007 0 01-1.296.336c-.448.08-.892.12-1.332.12-.84 0-1.616-.14-2.328-.42a5.272 5.272 0 01-1.836-1.248c-.512-.552-.912-1.232-1.2-2.04-.288-.808-.432-1.736-.432-2.784 0-.848.128-1.64.384-2.376a5.612 5.612 0 011.128-1.908 5.063 5.063 0 011.788-1.272c.704-.312 1.496-.468 2.376-.468.728 0 1.4.124 2.016.372.624.24 1.16.592 1.608 1.056.456.456.812 1.024 1.068 1.704.256.672.384 1.44.384 2.304 0 .336-.036.56-.108.672-.072.112-.208.168-.408.168h-8.124c.024.768.128 1.436.312 2.004.192.568.456 1.044.792 1.428.336.376.736.66 1.2.852a4.2 4.2 0 001.56.276c.536 0 .996-.06 1.38-.18a6.912 6.912 0 001.008-.408c.28-.144.512-.276.696-.396.192-.128.356-.192.492-.192a.47.47 0 01.408.204l.6.78zm4.964-15.972v10.404h.552c.16 0 .292-.02.396-.06a1.03 1.03 0 00.348-.276l3.84-4.116a1.38 1.38 0 01.348-.312.94.94 0 01.504-.12H77.8l-4.476 4.764a2.705 2.705 0 01-.696.636c.144.096.272.208.384.336.12.12.232.26.336.42l4.752 6h-1.908c-.184 0-.344-.028-.48-.084a.844.844 0 01-.336-.336l-3.996-4.98c-.12-.168-.24-.276-.36-.324-.112-.056-.288-.084-.528-.084h-.612V115h-2.148V97.324h2.148zm17.496 10.272c0-.496-.072-.948-.216-1.356a2.875 2.875 0 00-.612-1.068 2.583 2.583 0 00-.972-.696 3.233 3.233 0 00-1.308-.252c-1.024 0-1.836.3-2.436.9-.592.592-.96 1.416-1.104 2.472h6.648zm1.728 5.7c-.264.32-.58.6-.948.84a6.044 6.044 0 01-1.188.576 7.007 7.007 0 01-1.296.336c-.448.08-.892.12-1.332.12-.84 0-1.616-.14-2.328-.42a5.272 5.272 0 01-1.836-1.248c-.512-.552-.912-1.232-1.2-2.04-.288-.808-.432-1.736-.432-2.784 0-.848.128-1.64.384-2.376a5.612 5.612 0 011.128-1.908 5.063 5.063 0 011.788-1.272c.704-.312 1.496-.468 2.376-.468.728 0 1.4.124 2.016.372.624.24 1.16.592 1.608 1.056.456.456.812 1.024 1.068 1.704.256.672.384 1.44.384 2.304 0 .336-.036.56-.108.672-.072.112-.208.168-.408.168h-8.124c.024.768.128 1.436.312 2.004.192.568.456 1.044.792 1.428.336.376.736.66 1.2.852a4.2 4.2 0 001.56.276c.536 0 .996-.06 1.38-.18a6.912 6.912 0 001.008-.408c.28-.144.512-.276.696-.396.192-.128.356-.192.492-.192a.47.47 0 01.408.204l.6.78zm4.832-8.688c.264-.296.544-.564.84-.804.296-.24.608-.444.936-.612a4.546 4.546 0 011.056-.396c.376-.096.78-.144 1.212-.144.664 0 1.248.112 1.752.336.512.216.936.528 1.272.936.344.4.604.884.78 1.452.176.568.264 1.196.264 1.884V115h-2.148v-7.74c0-.92-.212-1.632-.636-2.136-.416-.512-1.052-.768-1.908-.768-.632 0-1.224.152-1.776.456a5.871 5.871 0 00-1.512 1.236V115h-2.148v-12.156h1.284c.304 0 .492.148.564.444l.168 1.32zm19.286 1.128c-.4-.536-.832-.908-1.296-1.116a3.653 3.653 0 00-1.56-.324c-1.128 0-1.996.404-2.604 1.212-.608.808-.912 1.96-.912 3.456 0 .792.068 1.472.204 2.04.136.56.336 1.024.6 1.392.264.36.588.624.972.792.384.168.82.252 1.308.252.704 0 1.316-.16 1.836-.48.528-.32 1.012-.772 1.452-1.356v-5.868zm2.136-8.412V115h-1.272c-.304 0-.496-.148-.576-.444l-.192-1.476a6.619 6.619 0 01-1.776 1.512c-.664.384-1.432.576-2.304.576a4.444 4.444 0 01-1.896-.396 3.988 3.988 0 01-1.452-1.188c-.4-.52-.708-1.168-.924-1.944-.216-.776-.324-1.668-.324-2.676 0-.896.12-1.728.36-2.496.24-.776.584-1.448 1.032-2.016a4.744 4.744 0 011.644-1.332c.656-.328 1.392-.492 2.208-.492.744 0 1.38.128 1.908.384a4.534 4.534 0 011.428 1.044v-6.732h2.136zm10.454 7.524a.473.473 0 01-.444.264.835.835 0 01-.408-.132 7.18 7.18 0 00-.564-.288 4.303 4.303 0 00-.78-.3 3.603 3.603 0 00-1.08-.144c-.36 0-.684.048-.972.144a2.318 2.318 0 00-.744.372c-.2.16-.356.348-.468.564a1.508 1.508 0 00-.156.684c0 .312.088.572.264.78.184.208.424.388.72.54.296.152.632.288 1.008.408.376.112.76.236 1.152.372.4.128.788.272 1.164.432.376.16.712.36 1.008.6.296.24.532.536.708.888.184.344.276.76.276 1.248 0 .56-.1 1.08-.3 1.56a3.46 3.46 0 01-.888 1.236 4.34 4.34 0 01-1.44.816c-.568.2-1.224.3-1.968.3-.848 0-1.616-.136-2.304-.408-.688-.28-1.272-.636-1.752-1.068l.504-.816a.732.732 0 01.228-.24.615.615 0 01.336-.084c.144 0 .296.056.456.168.16.112.352.236.576.372.232.136.512.26.84.372.328.112.736.168 1.224.168.416 0 .78-.052 1.092-.156.312-.112.572-.26.78-.444.208-.184.36-.396.456-.636a1.91 1.91 0 00.156-.768c0-.336-.092-.612-.276-.828a2.105 2.105 0 00-.708-.564 5.212 5.212 0 00-1.02-.408l-1.164-.372a15.68 15.68 0 01-1.164-.432 4.273 4.273 0 01-1.008-.624 2.89 2.89 0 01-.72-.912c-.176-.368-.264-.812-.264-1.332 0-.464.096-.908.288-1.332.192-.432.472-.808.84-1.128.368-.328.82-.588 1.356-.78.536-.192 1.148-.288 1.836-.288.8 0 1.516.128 2.148.384.64.248 1.192.592 1.656 1.032l-.48.78z"/>
</svg>
