<svg xmlns="http://www.w3.org/2000/svg" width="218" height="203" fill="none">
  <defs/>
  <path fill="#fff" d="M0 0h218v203H0z"/>
  <path fill="#fff" stroke="#000" d="M7.5.5h210v194H7.5z"/>
  <path fill="#fff" stroke="#000" d="M.5 8.5h210v194H.5z"/>
  <path fill="#000" d="M46.48 68.804L41.116 86h-2.088l-4.356-13.116c-.04-.128-.08-.264-.12-.408a17.853 17.853 0 00-.108-.456 18.19 18.19 0 01-.24.864L29.824 86h-2.088l-5.364-17.196h1.932c.208 0 .38.052.516.156a.684.684 0 01.276.396l3.552 11.952c.056.216.108.448.156.696.056.248.108.512.156.792.056-.28.112-.544.168-.792.064-.256.132-.488.204-.696l4.044-11.952a.855.855 0 01.276-.372.78.78 0 01.516-.18h.672c.208 0 .376.052.504.156a.96.96 0 01.288.396l4.032 11.952c.072.208.136.432.192.672.064.24.124.492.18.756.04-.264.084-.516.132-.756s.1-.464.156-.672l3.564-11.952a.761.761 0 01.264-.384.815.815 0 01.516-.168h1.812zm4.218 5.04V86h-2.136V73.844h2.136zm.456-3.816c0 .208-.044.404-.132.588a1.63 1.63 0 01-.336.48c-.136.136-.3.244-.492.324-.184.08-.38.12-.588.12a1.459 1.459 0 01-1.056-.444 1.75 1.75 0 01-.324-.48c-.08-.184-.12-.38-.12-.588 0-.208.04-.404.12-.588.08-.192.188-.356.324-.492.136-.144.292-.256.468-.336.184-.08.38-.12.588-.12.208 0 .404.04.588.12.192.08.356.192.492.336.144.136.256.3.336.492.088.184.132.38.132.588zm5.07 5.58c.264-.296.544-.564.84-.804.296-.24.608-.444.936-.612a4.546 4.546 0 011.056-.396c.376-.096.78-.144 1.212-.144.664 0 1.248.112 1.752.336.512.216.936.528 1.272.936.344.4.604.884.78 1.452.176.568.264 1.196.264 1.884V86h-2.148v-7.74c0-.92-.212-1.632-.636-2.136-.416-.512-1.052-.768-1.908-.768-.632 0-1.224.152-1.776.456a5.871 5.871 0 00-1.512 1.236V86h-2.148V73.844h1.284c.304 0 .492.148.564.444l.168 1.32zm14.934 10.584c-.96 0-1.7-.268-2.22-.804-.512-.536-.768-1.308-.768-2.316v-7.44h-1.464a.495.495 0 01-.324-.108c-.088-.08-.132-.2-.132-.36v-.852l1.992-.252.492-3.756a.509.509 0 01.156-.288.48.48 0 01.336-.12h1.08v4.188h3.516v1.548h-3.516v7.296c0 .512.124.892.372 1.14.248.248.568.372.96.372.224 0 .416-.028.576-.084.168-.064.312-.132.432-.204.12-.072.22-.136.3-.192.088-.064.164-.096.228-.096.112 0 .212.068.3.204l.624 1.02a4.058 4.058 0 01-1.332.816 4.607 4.607 0 01-1.608.288zm12.936-7.596c0-.496-.072-.948-.216-1.356a2.875 2.875 0 00-.612-1.068 2.583 2.583 0 00-.972-.696 3.233 3.233 0 00-1.308-.252c-1.024 0-1.836.3-2.436.9-.592.592-.96 1.416-1.104 2.472h6.648zm1.728 5.7c-.264.32-.58.6-.948.84a6.044 6.044 0 01-1.188.576 7.007 7.007 0 01-1.296.336c-.448.08-.892.12-1.332.12-.84 0-1.616-.14-2.328-.42a5.272 5.272 0 01-1.836-1.248c-.512-.552-.912-1.232-1.2-2.04-.288-.808-.432-1.736-.432-2.784 0-.848.128-1.64.384-2.376a5.612 5.612 0 011.128-1.908 5.063 5.063 0 011.788-1.272c.704-.312 1.496-.468 2.376-.468.728 0 1.4.124 2.016.372.624.24 1.16.592 1.608 1.056.456.456.812 1.024 1.068 1.704.256.672.384 1.44.384 2.304 0 .336-.036.56-.108.672-.072.112-.208.168-.408.168h-8.124c.024.768.128 1.436.312 2.004.192.568.456 1.044.792 1.428.336.376.736.66 1.2.852a4.2 4.2 0 001.56.276c.536 0 .996-.06 1.38-.18a6.912 6.912 0 001.008-.408c.28-.144.512-.276.696-.396.192-.128.356-.192.492-.192a.47.47 0 01.408.204l.6.78zm4.843-8.016c.384-.832.856-1.48 1.416-1.944.56-.472 1.244-.708 2.052-.708.256 0 .5.028.732.084.24.056.452.144.636.264l-.156 1.596c-.048.2-.168.3-.36.3-.112 0-.276-.024-.492-.072a3.387 3.387 0 00-.732-.072 2.97 2.97 0 00-1.032.168c-.296.112-.564.28-.804.504a3.565 3.565 0 00-.636.816c-.184.32-.352.688-.504 1.104V86h-2.148V73.844h1.224c.232 0 .392.044.48.132.088.088.148.24.18.456l.144 1.848zM25.84 104.464a6.452 6.452 0 011.728-1.32c.632-.328 1.36-.492 2.184-.492.664 0 1.248.112 1.752.336.512.216.936.528 1.272.936.344.4.604.884.78 1.452.176.568.264 1.196.264 1.884V115h-2.148v-7.74c0-.92-.212-1.632-.636-2.136-.416-.512-1.052-.768-1.908-.768-.632 0-1.224.152-1.776.456a5.871 5.871 0 00-1.512 1.236V115h-2.148V97.324h2.148v7.14zm16.359-1.812c.888 0 1.688.148 2.4.444.712.296 1.32.716 1.824 1.26s.888 1.204 1.152 1.98c.272.768.408 1.628.408 2.58 0 .96-.136 1.824-.408 2.592a5.47 5.47 0 01-1.152 1.968 5.143 5.143 0 01-1.824 1.26c-.712.288-1.512.432-2.4.432-.896 0-1.704-.144-2.424-.432a5.143 5.143 0 01-1.824-1.26 5.61 5.61 0 01-1.164-1.968c-.264-.768-.396-1.632-.396-2.592 0-.952.132-1.812.396-2.58.272-.776.66-1.436 1.164-1.98a5.143 5.143 0 011.824-1.26c.72-.296 1.528-.444 2.424-.444zm0 10.848c1.2 0 2.096-.4 2.688-1.2.592-.808.888-1.932.888-3.372 0-1.448-.296-2.576-.888-3.384-.592-.808-1.488-1.212-2.688-1.212-.608 0-1.14.104-1.596.312a3.015 3.015 0 00-1.128.9c-.296.392-.52.876-.672 1.452a7.882 7.882 0 00-.216 1.932c0 1.44.296 2.564.888 3.372.6.8 1.508 1.2 2.724 1.2zm10.641-1.428c.392.528.82.9 1.284 1.116.472.216.988.324 1.548.324 1.144 0 2.02-.404 2.628-1.212.608-.808.912-2.012.912-3.612 0-1.488-.272-2.58-.816-3.276-.536-.704-1.304-1.056-2.304-1.056-.696 0-1.304.16-1.824.48-.512.32-.988.772-1.428 1.356v5.88zm0-7.476a6.285 6.285 0 011.728-1.416c.648-.352 1.392-.528 2.232-.528.712 0 1.352.136 1.92.408a3.961 3.961 0 011.464 1.188c.4.512.704 1.136.912 1.872.216.736.324 1.564.324 2.484 0 .984-.12 1.88-.36 2.688-.24.808-.588 1.5-1.044 2.076a4.744 4.744 0 01-1.644 1.332c-.648.312-1.376.468-2.184.468-.8 0-1.476-.148-2.028-.444a4.513 4.513 0 01-1.428-1.284l-.108 1.104c-.064.304-.248.456-.552.456h-1.38V97.324h2.148v7.272zm13.43 7.476c.392.528.82.9 1.284 1.116.472.216.988.324 1.548.324 1.144 0 2.02-.404 2.628-1.212.608-.808.912-2.012.912-3.612 0-1.488-.272-2.58-.816-3.276-.536-.704-1.304-1.056-2.304-1.056-.696 0-1.304.16-1.824.48-.512.32-.988.772-1.428 1.356v5.88zm0-7.476a6.285 6.285 0 011.728-1.416c.648-.352 1.392-.528 2.232-.528.712 0 1.352.136 1.92.408a3.961 3.961 0 011.464 1.188c.4.512.704 1.136.912 1.872.216.736.324 1.564.324 2.484 0 .984-.12 1.88-.36 2.688-.24.808-.588 1.5-1.044 2.076a4.744 4.744 0 01-1.644 1.332c-.648.312-1.376.468-2.184.468-.8 0-1.476-.148-2.028-.444a4.513 4.513 0 01-1.428-1.284l-.108 1.104c-.064.304-.248.456-.552.456h-1.38V97.324h2.148v7.272zm21.465-1.752l-6.78 15.744c-.072.16-.164.288-.276.384-.104.096-.268.144-.492.144h-1.584l2.22-4.824-5.016-11.448h1.848c.184 0 .328.048.432.144a.67.67 0 01.228.3l3.252 7.656c.128.336.236.688.324 1.056.112-.376.232-.732.36-1.068l3.156-7.644a.66.66 0 01.24-.312.655.655 0 01.396-.132h1.692z"/>
</svg>
