<svg xmlns="http://www.w3.org/2000/svg" width="218" height="203" fill="none">
  <defs/>
  <path fill="#fff" d="M0 0h218v203H0z"/>
  <path fill="#fff" stroke="#000" d="M7.5.5h210v194H7.5z"/>
  <path fill="#fff" stroke="#000" d="M.5 8.5h210v194H.5z"/>
  <path fill="#000" d="M36.268 82.448c.128 0 .24.052.336.156l.924.996a7.343 7.343 0 01-2.568 1.908c-1 .456-2.212.684-3.636.684-1.232 0-2.352-.212-3.36-.636a7.497 7.497 0 01-2.58-1.8c-.712-.776-1.264-1.704-1.656-2.784-.392-1.08-.588-2.268-.588-3.564 0-1.296.204-2.484.612-3.564.408-1.08.98-2.008 1.716-2.784a7.692 7.692 0 012.664-1.8c1.032-.432 2.172-.648 3.42-.648 1.224 0 2.304.196 3.24.588.936.392 1.76.924 2.472 1.596l-.768 1.068a.665.665 0 01-.192.204.537.537 0 01-.3.072c-.144 0-.32-.076-.528-.228a7.32 7.32 0 00-.816-.528 6.12 6.12 0 00-1.26-.516c-.504-.16-1.124-.24-1.86-.24-.888 0-1.7.156-2.436.468a5.31 5.31 0 00-1.908 1.332c-.528.584-.94 1.296-1.236 2.136-.296.84-.444 1.788-.444 2.844 0 1.072.152 2.028.456 2.868.312.84.732 1.552 1.26 2.136a5.434 5.434 0 001.884 1.32 6.042 6.042 0 002.352.456c.512 0 .972-.028 1.38-.084.416-.064.796-.16 1.14-.288.352-.128.676-.288.972-.48.304-.2.604-.436.9-.708.136-.12.272-.18.408-.18zm13.264-8.604V86H48.26c-.304 0-.496-.148-.576-.444l-.168-1.308a6.792 6.792 0 01-1.776 1.416c-.656.352-1.408.528-2.256.528-.664 0-1.252-.108-1.764-.324a3.558 3.558 0 01-1.272-.936 4.02 4.02 0 01-.78-1.452 6.626 6.626 0 01-.252-1.884v-7.752h2.136v7.752c0 .92.208 1.632.624 2.136.424.504 1.068.756 1.932.756.632 0 1.22-.148 1.764-.444a5.685 5.685 0 001.524-1.248v-8.952h2.136zm5.415 2.436c.384-.832.856-1.48 1.416-1.944.56-.472 1.244-.708 2.052-.708.256 0 .5.028.732.084.24.056.452.144.636.264l-.156 1.596c-.048.2-.168.3-.36.3-.112 0-.276-.024-.492-.072a3.387 3.387 0 00-.732-.072 2.97 2.97 0 00-1.032.168c-.296.112-.564.28-.804.504a3.565 3.565 0 00-.636.816c-.184.32-.352.688-.504 1.104V86h-2.148V73.844h1.224c.232 0 .392.044.48.132.088.088.148.24.18.456l.144 1.848zm8.742 0c.384-.832.856-1.48 1.416-1.944.56-.472 1.244-.708 2.052-.708.256 0 .5.028.732.084.24.056.452.144.636.264l-.156 1.596c-.048.2-.168.3-.36.3-.112 0-.276-.024-.492-.072a3.387 3.387 0 00-.732-.072 2.97 2.97 0 00-1.032.168c-.296.112-.564.28-.804.504a3.565 3.565 0 00-.636.816c-.184.32-.352.688-.504 1.104V86H61.66V73.844h1.224c.232 0 .392.044.48.132.088.088.148.24.18.456l.144 1.848zm14.358 2.316c0-.496-.072-.948-.216-1.356a2.875 2.875 0 00-.612-1.068 2.583 2.583 0 00-.972-.696 3.233 3.233 0 00-1.308-.252c-1.024 0-1.836.3-2.436.9-.592.592-.96 1.416-1.104 2.472h6.648zm1.728 5.7c-.264.32-.58.6-.948.84a6.044 6.044 0 01-1.188.576 7.007 7.007 0 01-1.296.336c-.448.08-.892.12-1.332.12-.84 0-1.616-.14-2.328-.42a5.272 5.272 0 01-1.836-1.248c-.512-.552-.912-1.232-1.2-2.04-.288-.808-.432-1.736-.432-2.784 0-.848.128-1.64.384-2.376a5.612 5.612 0 011.128-1.908 5.063 5.063 0 011.788-1.272c.704-.312 1.496-.468 2.376-.468.728 0 1.4.124 2.016.372.624.24 1.16.592 1.608 1.056.456.456.812 1.024 1.068 1.704.256.672.384 1.44.384 2.304 0 .336-.036.56-.108.672-.072.112-.208.168-.408.168h-8.124c.024.768.128 1.436.312 2.004.192.568.456 1.044.792 1.428.336.376.736.66 1.2.852a4.2 4.2 0 001.56.276c.536 0 .996-.06 1.38-.18a6.912 6.912 0 001.008-.408c.28-.144.512-.276.696-.396.192-.128.356-.192.492-.192a.47.47 0 01.408.204l.6.78zm4.831-8.688c.264-.296.544-.564.84-.804.296-.24.608-.444.936-.612a4.546 4.546 0 011.056-.396c.376-.096.78-.144 1.212-.144.664 0 1.248.112 1.752.336.512.216.936.528 1.272.936.344.4.604.884.78 1.452.176.568.264 1.196.264 1.884V86H90.57v-7.74c0-.92-.212-1.632-.636-2.136-.416-.512-1.052-.768-1.908-.768-.632 0-1.224.152-1.776.456a5.871 5.871 0 00-1.512 1.236V86H82.59V73.844h1.284c.304 0 .492.148.564.444l.168 1.32zm14.935 10.584c-.96 0-1.7-.268-2.22-.804-.512-.536-.768-1.308-.768-2.316v-7.44H95.09a.495.495 0 01-.324-.108c-.088-.08-.132-.2-.132-.36v-.852l1.992-.252.492-3.756a.509.509 0 01.156-.288.48.48 0 01.336-.12h1.08v4.188h3.516v1.548H98.69v7.296c0 .512.124.892.372 1.14.248.248.568.372.96.372.224 0 .416-.028.576-.084.168-.064.312-.132.432-.204.12-.072.22-.136.3-.192.088-.064.164-.096.228-.096.112 0 .212.068.3.204l.624 1.02a4.058 4.058 0 01-1.332.816 4.607 4.607 0 01-1.608.288zm7.078-17.868V86h-2.136V68.324h2.136zm13.952 5.52l-6.78 15.744c-.072.16-.164.288-.276.384-.104.096-.268.144-.492.144h-1.584l2.22-4.824-5.016-11.448h1.848c.184 0 .328.048.432.144a.67.67 0 01.228.3l3.252 7.656c.128.336.236.688.324 1.056.112-.376.232-.732.36-1.068l3.156-7.644a.66.66 0 01.24-.312.655.655 0 01.396-.132h1.692zM25.72 105.28c.384-.832.856-1.48 1.416-1.944.56-.472 1.244-.708 2.052-.708.256 0 .5.028.732.084.24.056.452.144.636.264l-.156 1.596c-.048.2-.168.3-.36.3-.112 0-.276-.024-.492-.072a3.387 3.387 0 00-.732-.072 2.97 2.97 0 00-1.032.168c-.296.112-.564.28-.804.504a3.565 3.565 0 00-.636.816c-.184.32-.352.688-.504 1.104V115h-2.148v-12.156h1.224c.232 0 .392.044.48.132.088.088.148.24.18.456l.144 1.848zm14.358 2.316c0-.496-.072-.948-.216-1.356a2.875 2.875 0 00-.612-1.068 2.583 2.583 0 00-.972-.696 3.233 3.233 0 00-1.308-.252c-1.024 0-1.836.3-2.436.9-.592.592-.96 1.416-1.104 2.472h6.648zm1.728 5.7c-.264.32-.58.6-.948.84a6.044 6.044 0 01-1.188.576 7.007 7.007 0 01-1.296.336c-.448.08-.892.12-1.332.12-.84 0-1.616-.14-2.328-.42a5.272 5.272 0 01-1.836-1.248c-.512-.552-.912-1.232-1.2-2.04-.288-.808-.432-1.736-.432-2.784 0-.848.128-1.64.384-2.376a5.612 5.612 0 011.128-1.908 5.063 5.063 0 011.788-1.272c.704-.312 1.496-.468 2.376-.468.728 0 1.4.124 2.016.372.624.24 1.16.592 1.608 1.056.456.456.812 1.024 1.068 1.704.256.672.384 1.44.384 2.304 0 .336-.036.56-.108.672-.072.112-.208.168-.408.168h-8.124c.024.768.128 1.436.312 2.004.192.568.456 1.044.792 1.428.336.376.736.66 1.2.852a4.2 4.2 0 001.56.276c.536 0 .996-.06 1.38-.18a6.912 6.912 0 001.008-.408c.28-.144.512-.276.696-.396.192-.128.356-.192.492-.192a.47.47 0 01.408.204l.6.78zm9.404-3.768c-.984.032-1.824.112-2.52.24-.688.12-1.252.28-1.692.48-.432.2-.748.436-.948.708a1.545 1.545 0 00-.288.912c0 .32.052.596.156.828.104.232.244.424.42.576.184.144.396.252.636.324.248.064.512.096.792.096.376 0 .72-.036 1.032-.108.312-.08.604-.192.876-.336.28-.144.544-.316.792-.516.256-.2.504-.428.744-.684v-2.52zm-6.9-4.968c.672-.648 1.396-1.132 2.172-1.452.776-.32 1.636-.48 2.58-.48.68 0 1.284.112 1.812.336.528.224.972.536 1.332.936.36.4.632.884.816 1.452.184.568.276 1.192.276 1.872V115h-.948c-.208 0-.368-.032-.48-.096-.112-.072-.2-.208-.264-.408l-.24-1.152c-.32.296-.632.56-.936.792a5.87 5.87 0 01-.96.576 5.17 5.17 0 01-1.08.348 5.54 5.54 0 01-1.26.132c-.472 0-.916-.064-1.332-.192a3.219 3.219 0 01-1.092-.6 2.905 2.905 0 01-.732-.996c-.176-.408-.264-.888-.264-1.44 0-.48.132-.94.396-1.38.264-.448.692-.844 1.284-1.188.592-.344 1.364-.624 2.316-.84.952-.224 2.12-.352 3.504-.384v-.948c0-.944-.204-1.656-.612-2.136-.408-.488-1.004-.732-1.788-.732-.528 0-.972.068-1.332.204-.352.128-.66.276-.924.444-.256.16-.48.308-.672.444a.962.962 0 01-.552.192.637.637 0 01-.372-.108 1.134 1.134 0 01-.264-.288l-.384-.684zm20.161 1.176c-.4-.536-.832-.908-1.296-1.116a3.653 3.653 0 00-1.56-.324c-1.128 0-1.996.404-2.604 1.212-.608.808-.912 1.96-.912 3.456 0 .792.068 1.472.204 2.04.136.56.336 1.024.6 1.392.264.36.588.624.972.792.384.168.82.252 1.308.252.704 0 1.316-.16 1.836-.48.528-.32 1.012-.772 1.452-1.356v-5.868zm2.136-8.412V115h-1.272c-.304 0-.496-.148-.576-.444l-.192-1.476a6.619 6.619 0 01-1.776 1.512c-.664.384-1.432.576-2.304.576a4.444 4.444 0 01-1.896-.396 3.988 3.988 0 01-1.452-1.188c-.4-.52-.708-1.168-.924-1.944-.216-.776-.324-1.668-.324-2.676 0-.896.12-1.728.36-2.496.24-.776.584-1.448 1.032-2.016a4.744 4.744 0 011.644-1.332c.656-.328 1.392-.492 2.208-.492.744 0 1.38.128 1.908.384a4.534 4.534 0 011.428 1.044v-6.732h2.136zm5.63 5.52V115h-2.136v-12.156h2.136zm.456-3.816c0 .208-.044.404-.132.588a1.63 1.63 0 01-.336.48c-.136.136-.3.244-.492.324-.184.08-.38.12-.588.12a1.459 1.459 0 01-1.056-.444 1.75 1.75 0 01-.324-.48c-.08-.184-.12-.38-.12-.588 0-.208.04-.404.12-.588.08-.192.188-.356.324-.492.136-.144.292-.256.468-.336.184-.08.38-.12.588-.12.208 0 .404.04.588.12.192.08.356.192.492.336.144.136.256.3.336.492.088.184.132.38.132.588zm5.07 5.58c.264-.296.544-.564.84-.804.296-.24.608-.444.936-.612a4.546 4.546 0 011.056-.396c.376-.096.78-.144 1.212-.144.664 0 1.248.112 1.752.336.512.216.936.528 1.272.936.344.4.604.884.78 1.452.176.568.264 1.196.264 1.884V115h-2.148v-7.74c0-.92-.212-1.632-.636-2.136-.416-.512-1.052-.768-1.908-.768-.632 0-1.224.152-1.776.456a5.871 5.871 0 00-1.512 1.236V115h-2.148v-12.156h1.284c.304 0 .492.148.564.444l.168 1.32zm15.602 4.452c.433 0 .813-.06 1.14-.18a2.32 2.32 0 00.829-.504c.224-.216.391-.472.504-.768a2.86 2.86 0 00.168-.996c0-.744-.228-1.336-.684-1.776-.448-.44-1.1-.66-1.957-.66-.864 0-1.523.22-1.98.66-.448.44-.672 1.032-.672 1.776 0 .36.056.692.169.996.12.296.291.552.515.768.224.216.5.384.828.504.329.12.709.18 1.14.18zm3.853 6.6c0-.296-.085-.536-.252-.72a1.676 1.676 0 00-.684-.432 4.073 4.073 0 00-.984-.216 17.147 17.147 0 00-1.2-.108l-1.272-.072a15.009 15.009 0 01-1.248-.12 3.37 3.37 0 00-1.105.792c-.28.312-.42.68-.42 1.104 0 .272.069.524.204.756.144.24.36.444.648.612.288.176.648.312 1.08.408.44.104.957.156 1.549.156.575 0 1.091-.052 1.547-.156.456-.104.84-.252 1.153-.444.32-.192.564-.42.732-.684.168-.264.252-.556.252-.876zm2.171-12.336v.792c0 .264-.167.432-.504.504l-1.38.18c.273.528.409 1.112.409 1.752 0 .592-.117 1.132-.349 1.62-.224.48-.535.892-.936 1.236-.4.344-.88.608-1.44.792a5.812 5.812 0 01-1.823.276 6.15 6.15 0 01-1.609-.204c-.256.16-.452.332-.588.516a.876.876 0 00-.203.54c0 .288.116.508.348.66.24.144.552.248.936.312.383.064.82.104 1.308.12.495.016 1 .044 1.511.084.52.032 1.025.092 1.513.18.496.088.936.232 1.32.432.383.2.692.476.924.828.24.352.36.808.36 1.368a3.14 3.14 0 01-.397 1.512c-.255.488-.627.92-1.115 1.296-.489.384-1.089.688-1.8.912-.704.232-1.5.348-2.388.348-.889 0-1.665-.088-2.329-.264-.663-.176-1.215-.412-1.656-.708-.44-.296-.772-.64-.996-1.032a2.436 2.436 0 01-.323-1.212c0-.6.188-1.108.564-1.524.376-.416.892-.748 1.547-.996a2.297 2.297 0 01-.864-.636c-.207-.272-.311-.636-.311-1.092 0-.176.032-.356.096-.54.064-.192.16-.38.287-.564a3.1 3.1 0 011.164-.984 3.752 3.752 0 01-1.404-1.332c-.335-.56-.504-1.208-.504-1.944 0-.592.112-1.128.337-1.608.232-.488.552-.9.96-1.236a4.313 4.313 0 011.451-.792 6.006 6.006 0 011.86-.276c.529 0 1.02.06 1.477.18.456.112.871.28 1.248.504h3.3z"/>
</svg>
