<svg xmlns="http://www.w3.org/2000/svg" width="218" height="203" fill="none">
  <defs/>
  <path fill="#fff" d="M0 0h218v203H0z"/>
  <path fill="#fff" stroke="#000" d="M7.5.5h210v194H7.5z"/>
  <path fill="#fff" stroke="#000" d="M.5 8.5h210v194H.5z"/>
  <path fill="#000" d="M33.328 79.616l-2.7-6.996a14.219 14.219 0 01-.504-1.608c-.168.648-.34 1.188-.516 1.62l-2.7 6.984h6.42zM38.176 86h-1.8a.774.774 0 01-.504-.156.96.96 0 01-.288-.396l-1.608-4.152H26.26l-1.608 4.152a.843.843 0 01-.276.384.767.767 0 01-.504.168h-1.8l6.876-17.196H31.3L38.176 86zm3.727-10.392c.264-.296.544-.564.84-.804.296-.24.608-.444.936-.612a4.546 4.546 0 011.056-.396c.376-.096.78-.144 1.212-.144.664 0 1.248.112 1.752.336.512.216.936.528 1.272.936.344.4.604.884.78 1.452.176.568.264 1.196.264 1.884V86h-2.148v-7.74c0-.92-.212-1.632-.636-2.136-.416-.512-1.052-.768-1.908-.768-.632 0-1.224.152-1.776.456a5.871 5.871 0 00-1.512 1.236V86h-2.148V73.844h1.284c.304 0 .492.148.564.444l.168 1.32zm19.287 1.128c-.4-.536-.832-.908-1.296-1.116a3.653 3.653 0 00-1.56-.324c-1.128 0-1.996.404-2.604 1.212-.608.808-.912 1.96-.912 3.456 0 .792.068 1.472.204 2.04.136.56.336 1.024.6 1.392.264.36.588.624.972.792.384.168.82.252 1.308.252.704 0 1.316-.16 1.836-.48.528-.32 1.012-.772 1.452-1.356v-5.868zm2.136-8.412V86h-1.272c-.304 0-.496-.148-.576-.444l-.192-1.476a6.619 6.619 0 01-1.776 1.512c-.664.384-1.432.576-2.304.576a4.444 4.444 0 01-1.896-.396 3.988 3.988 0 01-1.452-1.188c-.4-.52-.708-1.168-.924-1.944-.216-.776-.324-1.668-.324-2.676 0-.896.12-1.728.36-2.496.24-.776.584-1.448 1.032-2.016a4.744 4.744 0 011.644-1.332c.656-.328 1.392-.492 2.208-.492.744 0 1.38.128 1.908.384a4.534 4.534 0 011.428 1.044v-6.732h2.136zm-37.426 29V115h-2.136V97.324H25.9zm5.72 5.52V115h-2.136v-12.156h2.136zm.456-3.816c0 .208-.044.404-.132.588a1.63 1.63 0 01-.336.48c-.136.136-.3.244-.492.324-.184.08-.38.12-.588.12a1.459 1.459 0 01-1.056-.444 1.75 1.75 0 01-.324-.48c-.08-.184-.12-.38-.12-.588 0-.208.04-.404.12-.588.08-.192.188-.356.324-.492.136-.144.292-.256.468-.336.184-.08.38-.12.588-.12.208 0 .404.04.588.12.192.08.356.192.492.336.144.136.256.3.336.492.088.184.132.38.132.588zm10.133 5.82a.473.473 0 01-.444.264.835.835 0 01-.407-.132 7.18 7.18 0 00-.564-.288 4.303 4.303 0 00-.78-.3 3.603 3.603 0 00-1.08-.144c-.36 0-.684.048-.972.144a2.318 2.318 0 00-.745.372c-.2.16-.355.348-.468.564a1.508 1.508 0 00-.156.684c0 .312.088.572.264.78.184.208.425.388.72.54a6.66 6.66 0 001.009.408c.376.112.76.236 1.151.372.4.128.788.272 1.164.432.377.16.712.36 1.008.6.297.24.532.536.709.888.183.344.276.76.276 1.248 0 .56-.1 1.08-.3 1.56a3.46 3.46 0 01-.889 1.236 4.34 4.34 0 01-1.44.816c-.568.2-1.224.3-1.968.3-.847 0-1.615-.136-2.303-.408-.688-.28-1.273-.636-1.752-1.068l.504-.816a.732.732 0 01.227-.24.615.615 0 01.337-.084c.143 0 .295.056.456.168.16.112.352.236.576.372.232.136.511.26.84.372.328.112.735.168 1.224.168.416 0 .78-.052 1.092-.156.312-.112.572-.26.78-.444.208-.184.36-.396.456-.636a1.91 1.91 0 00.155-.768c0-.336-.092-.612-.276-.828a2.105 2.105 0 00-.707-.564 5.212 5.212 0 00-1.02-.408l-1.165-.372a15.68 15.68 0 01-1.163-.432 4.273 4.273 0 01-1.008-.624 2.89 2.89 0 01-.72-.912c-.176-.368-.264-.812-.264-1.332 0-.464.095-.908.287-1.332.192-.432.472-.808.84-1.128.369-.328.82-.588 1.357-.78.536-.192 1.148-.288 1.836-.288.8 0 1.515.128 2.147.384.64.248 1.192.592 1.657 1.032l-.48.78zm7.035 10.344c-.96 0-1.7-.268-2.22-.804-.512-.536-.768-1.308-.768-2.316v-7.44h-1.464a.495.495 0 01-.324-.108c-.088-.08-.132-.2-.132-.36v-.852l1.992-.252.492-3.756a.509.509 0 01.156-.288.48.48 0 01.336-.12h1.08v4.188h3.516v1.548h-3.516v7.296c0 .512.124.892.372 1.14.248.248.568.372.96.372.224 0 .416-.028.576-.084.168-.064.312-.132.432-.204.12-.072.22-.136.3-.192.088-.064.164-.096.228-.096.112 0 .212.068.3.204l.624 1.02a4.058 4.058 0 01-1.332.816 4.607 4.607 0 01-1.608.288zm12.936-7.596c0-.496-.072-.948-.216-1.356a2.875 2.875 0 00-.612-1.068 2.583 2.583 0 00-.972-.696 3.233 3.233 0 00-1.308-.252c-1.024 0-1.836.3-2.436.9-.592.592-.96 1.416-1.104 2.472h6.648zm1.728 5.7c-.264.32-.58.6-.948.84a6.044 6.044 0 01-1.188.576 7.007 7.007 0 01-1.296.336c-.448.08-.892.12-1.332.12-.84 0-1.616-.14-2.328-.42a5.272 5.272 0 01-1.836-1.248c-.512-.552-.912-1.232-1.2-2.04-.288-.808-.432-1.736-.432-2.784 0-.848.128-1.64.384-2.376a5.612 5.612 0 011.128-1.908 5.063 5.063 0 011.788-1.272c.704-.312 1.496-.468 2.376-.468.728 0 1.4.124 2.016.372.624.24 1.16.592 1.608 1.056.456.456.812 1.024 1.068 1.704.256.672.384 1.44.384 2.304 0 .336-.036.56-.108.672-.072.112-.208.168-.408.168H55.46c.024.768.128 1.436.312 2.004.192.568.456 1.044.792 1.428.336.376.736.66 1.2.852a4.2 4.2 0 001.56.276c.536 0 .996-.06 1.38-.18a6.912 6.912 0 001.008-.408c.28-.144.512-.276.696-.396.192-.128.356-.192.492-.192a.47.47 0 01.408.204l.6.78zm4.831-8.688c.264-.296.544-.564.84-.804.296-.24.608-.444.936-.612a4.546 4.546 0 011.056-.396c.376-.096.78-.144 1.212-.144.664 0 1.248.112 1.752.336.512.216.936.528 1.272.936.344.4.604.884.78 1.452.176.568.264 1.196.264 1.884V115h-2.148v-7.74c0-.92-.212-1.632-.636-2.136-.416-.512-1.052-.768-1.908-.768-.632 0-1.224.152-1.776.456a5.871 5.871 0 00-1.512 1.236V115h-2.148v-12.156h1.284c.304 0 .492.148.564.444l.168 1.32zm13.623-1.764V115h-2.136v-12.156h2.136zm.456-3.816c0 .208-.044.404-.132.588a1.63 1.63 0 01-.336.48c-.136.136-.3.244-.492.324-.184.08-.38.12-.588.12a1.459 1.459 0 01-1.056-.444 1.75 1.75 0 01-.324-.48c-.08-.184-.12-.38-.12-.588 0-.208.04-.404.12-.588.08-.192.188-.356.324-.492.136-.144.292-.256.468-.336.184-.08.38-.12.588-.12.208 0 .404.04.588.12.192.08.356.192.492.336.144.136.256.3.336.492.088.184.132.38.132.588zm5.07 5.58c.264-.296.544-.564.84-.804.296-.24.608-.444.936-.612a4.546 4.546 0 011.056-.396c.376-.096.78-.144 1.212-.144.664 0 1.248.112 1.752.336.512.216.936.528 1.272.936.344.4.604.884.78 1.452.176.568.264 1.196.264 1.884V115h-2.148v-7.74c0-.92-.212-1.632-.636-2.136-.416-.512-1.052-.768-1.908-.768-.632 0-1.224.152-1.776.456a5.871 5.871 0 00-1.512 1.236V115h-2.148v-12.156h1.284c.304 0 .492.148.564.444l.168 1.32zm15.603 4.452c.432 0 .812-.06 1.14-.18.328-.12.604-.288.828-.504.224-.216.392-.472.504-.768a2.86 2.86 0 00.168-.996c0-.744-.228-1.336-.684-1.776-.448-.44-1.1-.66-1.956-.66-.864 0-1.524.22-1.98.66-.448.44-.672 1.032-.672 1.776 0 .36.056.692.168.996.12.296.292.552.516.768.224.216.5.384.828.504.328.12.708.18 1.14.18zm3.852 6.6c0-.296-.084-.536-.252-.72a1.676 1.676 0 00-.684-.432 4.073 4.073 0 00-.984-.216 17.147 17.147 0 00-1.2-.108l-1.272-.072a15.009 15.009 0 01-1.248-.12 3.37 3.37 0 00-1.104.792c-.28.312-.42.68-.42 1.104 0 .272.068.524.204.756.144.24.36.444.648.612.288.176.648.312 1.08.408.44.104.956.156 1.548.156.576 0 1.092-.052 1.548-.156.456-.104.84-.252 1.152-.444.32-.192.564-.42.732-.684.168-.264.252-.556.252-.876zm2.172-12.336v.792c0 .264-.168.432-.504.504l-1.38.18c.272.528.408 1.112.408 1.752 0 .592-.116 1.132-.348 1.62-.224.48-.536.892-.936 1.236s-.88.608-1.44.792a5.812 5.812 0 01-1.824.276 6.15 6.15 0 01-1.608-.204c-.256.16-.452.332-.588.516a.878.878 0 00-.205.54c0 .288.117.508.349.66.24.144.552.248.936.312s.82.104 1.308.12c.496.016 1 .044 1.512.084.52.032 1.024.092 1.512.18.496.088.936.232 1.32.432.384.2.692.476.924.828.24.352.36.808.36 1.368 0 .52-.132 1.024-.396 1.512-.256.488-.628.92-1.116 1.296-.488.384-1.088.688-1.8.912-.704.232-1.5.348-2.388.348-.888 0-1.664-.088-2.328-.264-.664-.176-1.216-.412-1.657-.708-.44-.296-.772-.64-.996-1.032a2.436 2.436 0 01-.323-1.212c0-.6.188-1.108.564-1.524.376-.416.892-.748 1.548-.996a2.299 2.299 0 01-.864-.636c-.209-.272-.313-.636-.313-1.092 0-.176.032-.356.096-.54.065-.192.16-.38.288-.564a3.084 3.084 0 011.165-.984 3.753 3.753 0 01-1.404-1.332c-.337-.56-.505-1.208-.505-1.944 0-.592.112-1.128.337-1.608.232-.488.552-.9.96-1.236a4.313 4.313 0 011.452-.792 6.006 6.006 0 011.86-.276c.528 0 1.02.06 1.476.18.456.112.872.28 1.248.504h3.3zm12.081 11.868c-.96 0-1.7-.268-2.22-.804-.512-.536-.768-1.308-.768-2.316v-7.44h-1.464a.495.495 0 01-.324-.108c-.088-.08-.132-.2-.132-.36v-.852l1.992-.252.492-3.756a.509.509 0 01.156-.288.48.48 0 01.336-.12h1.08v4.188h3.516v1.548h-3.516v7.296c0 .512.124.892.372 1.14.248.248.568.372.96.372.224 0 .416-.028.576-.084.168-.064.312-.132.432-.204.12-.072.22-.136.3-.192.088-.064.164-.096.228-.096.112 0 .212.068.3.204l.624 1.02a4.058 4.058 0 01-1.332.816 4.607 4.607 0 01-1.608.288zm9.923-12.54c.888 0 1.688.148 2.4.444.712.296 1.32.716 1.824 1.26s.888 1.204 1.152 1.98c.272.768.408 1.628.408 2.58 0 .96-.136 1.824-.408 2.592a5.47 5.47 0 01-1.152 1.968 5.143 5.143 0 01-1.824 1.26c-.712.288-1.512.432-2.4.432-.896 0-1.704-.144-2.424-.432a5.143 5.143 0 01-1.824-1.26 5.61 5.61 0 01-1.164-1.968c-.264-.768-.396-1.632-.396-2.592 0-.952.132-1.812.396-2.58.272-.776.66-1.436 1.164-1.98a5.143 5.143 0 011.824-1.26c.72-.296 1.528-.444 2.424-.444zm0 10.848c1.2 0 2.096-.4 2.688-1.2.592-.808.888-1.932.888-3.372 0-1.448-.296-2.576-.888-3.384-.592-.808-1.488-1.212-2.688-1.212-.608 0-1.14.104-1.596.312a3.015 3.015 0 00-1.128.9c-.296.392-.52.876-.672 1.452a7.882 7.882 0 00-.216 1.932c0 1.44.296 2.564.888 3.372.6.8 1.508 1.2 2.724 1.2z"/>
</svg>
