<svg xmlns="http://www.w3.org/2000/svg" width="1668" height="920" fill="none">
  <defs/>
  <path fill="#fff" d="M0 0h1668v920H0z"/>
  <path fill="#EFFFFB" fill-opacity=".7" d="M171 496.854L855.585 314 1452.5 496.854 874.669 809 171 496.854z"/>
  <path stroke="#7DD9BE" stroke-linecap="round" stroke-width="4" d="M967 599l428-187M256 391l423 170M256 359l581.226-157L1399 344.3"/>
  <path stroke="#1C1C1C" stroke-width="3" d="M23.18 390.564h82.563"/>
  <path fill="#333" d="M22.568 362.392h3.563V372h2.431v-9.608h3.563v-2.028h-9.557v2.028zM34.091 372l.864-2.653h4.199l.863 2.653h2.636l-4.01-11.636h-3.171L31.455 372h2.636zm1.489-4.574l1.431-4.403h.091l1.432 4.403H35.58zM43.878 372h2.46v-4.125h1.796L50.338 372h2.716l-2.471-4.523c1.324-.568 2.056-1.721 2.056-3.312 0-2.313-1.528-3.801-4.17-3.801h-4.59V372zm2.46-6.102v-3.523h1.66c1.42 0 2.107.631 2.107 1.79 0 1.153-.687 1.733-2.096 1.733h-1.67zm15.58-1.773h2.5c-.318-2.301-2.347-3.92-4.977-3.92-3.074 0-5.443 2.215-5.443 5.988 0 3.682 2.216 5.966 5.494 5.966 2.937 0 5.034-1.858 5.034-4.92v-1.466h-4.87v1.852h2.5c-.033 1.443-1.016 2.358-2.653 2.358-1.846 0-3.011-1.381-3.011-3.813 0-2.42 1.21-3.789 2.989-3.789 1.267 0 2.124.653 2.437 1.744zm4.28 7.875h7.864v-2.028h-5.404v-2.779h4.977v-2.028h-4.977v-2.773h5.38v-2.028h-7.84V372zm9.178-9.608h3.562V372h2.432v-9.608h3.563v-2.028h-9.557v2.028zm17.606-5.778h-2.295v19.136h2.296v-19.136zM99.194 372h2.46v-3.773h2.068c2.677 0 4.233-1.596 4.233-3.92 0-2.313-1.528-3.943-4.17-3.943h-4.591V372zm2.46-5.744v-3.881h1.659c1.421 0 2.108.773 2.108 1.932 0 1.153-.687 1.949-2.096 1.949h-1.671zm11.48 5.914c2.648 0 4.296-1.812 4.296-4.5 0-2.704-1.648-4.511-4.296-4.511-2.647 0-4.295 1.807-4.295 4.511 0 2.688 1.648 4.5 4.295 4.5zm.012-1.875c-1.222 0-1.847-1.119-1.847-2.642 0-1.522.625-2.647 1.847-2.647 1.199 0 1.824 1.125 1.824 2.647 0 1.523-.625 2.642-1.824 2.642zm8.102-9.931h-2.42V372h2.42v-11.636zm5.74 11.806c2.16 0 3.614-1.051 3.955-2.67l-2.239-.148c-.244.665-.869 1.012-1.676 1.012-1.21 0-1.977-.802-1.977-2.103v-.005h5.943v-.665c0-2.966-1.795-4.432-4.102-4.432-2.568 0-4.233 1.824-4.233 4.517 0 2.767 1.642 4.494 4.329 4.494zm-1.937-5.414c.051-.995.807-1.79 1.881-1.79 1.051 0 1.778.75 1.784 1.79h-3.665zm14.608-.995c-.216-1.608-1.511-2.602-3.716-2.602-2.233 0-3.704 1.034-3.699 2.716-.005 1.307.818 2.153 2.523 2.494l1.511.301c.762.154 1.108.432 1.12.87-.012.517-.574.886-1.421.886-.863 0-1.437-.369-1.585-1.079l-2.381.125c.228 1.67 1.648 2.698 3.961 2.698 2.261 0 3.88-1.153 3.886-2.875-.006-1.261-.83-2.017-2.523-2.363l-1.579-.318c-.813-.176-1.114-.455-1.108-.875-.006-.523.585-.864 1.335-.864.841 0 1.341.46 1.46 1.023l2.216-.137zm6.189-2.488h-1.642v-2.091h-2.42v2.091h-1.194v1.818h1.194v4.545c-.012 1.711 1.153 2.557 2.909 2.483a4.66 4.66 0 001.312-.227l-.381-1.801c-.119.023-.375.079-.602.079-.483 0-.818-.181-.818-.852v-4.227h1.642v-1.818zm3.889 8.892c1.29 0 2.125-.563 2.552-1.375h.068V372h2.295v-5.886c0-2.08-1.761-2.955-3.704-2.955-2.091 0-3.466 1-3.801 2.591l2.238.182c.165-.58.682-1.006 1.551-1.006.824 0 1.296.415 1.296 1.131v.034c0 .562-.597.636-2.114.784-1.727.159-3.278.739-3.278 2.687 0 1.728 1.233 2.603 2.897 2.603zm.694-1.671c-.745 0-1.279-.346-1.279-1.011 0-.682.563-1.017 1.415-1.136.528-.074 1.392-.199 1.682-.392v.926c0 .914-.756 1.613-1.818 1.613zm5.923 1.506h2.42v-4.938c0-1.073.785-1.812 1.853-1.812.335 0 .795.057 1.022.131v-2.148a3.634 3.634 0 00-.761-.085c-.977 0-1.778.568-2.096 1.647h-.091v-1.522h-2.347V372zm20.637-5.818c0-3.807-2.364-5.977-5.449-5.977-3.102 0-5.449 2.17-5.449 5.977 0 3.79 2.347 5.977 5.449 5.977 3.085 0 5.449-2.17 5.449-5.977zm-2.495 0c0 2.466-1.17 3.801-2.954 3.801-1.79 0-2.955-1.335-2.955-3.801s1.165-3.801 2.955-3.801c1.784 0 2.954 1.335 2.954 3.801zm5.817 5.818h2.557l1.5-5.489h.108l1.5 5.489h2.563l2.369-8.727h-2.443l-1.33 5.829h-.074l-1.432-5.829h-2.403l-1.409 5.863h-.08l-1.352-5.863h-2.449l2.375 8.727zm14.132-5.045c.006-1.125.677-1.785 1.654-1.785.971 0 1.557.637 1.551 1.705V372h2.42v-5.557c0-2.034-1.193-3.284-3.011-3.284-1.295 0-2.233.636-2.625 1.653h-.102v-1.539h-2.307V372h2.42v-5.045zm11.334 5.215c2.16 0 3.614-1.051 3.955-2.67l-2.239-.148c-.244.665-.869 1.012-1.676 1.012-1.21 0-1.977-.802-1.977-2.103v-.005h5.943v-.665c0-2.966-1.795-4.432-4.102-4.432-2.568 0-4.233 1.824-4.233 4.517 0 2.767 1.642 4.494 4.329 4.494zm-1.937-5.414c.051-.995.807-1.79 1.881-1.79 1.051 0 1.778.75 1.784 1.79h-3.665zm7.347 5.244h2.42v-4.938c0-1.073.784-1.812 1.852-1.812.336 0 .796.057 1.023.131v-2.148a3.642 3.642 0 00-.761-.085c-.978 0-1.779.568-2.097 1.647h-.091v-1.522h-2.346V372zM23.886 420l1.17-3.295h4.705l1.17 3.295h1.478l-4.273-11.636h-1.454L22.409 420h1.477zm1.614-4.545l1.864-5.25h.09l1.864 5.25H25.5zM33.864 420h1.34v-5.455c0-1.278.932-2.181 1.978-2.181 1.017 0 1.727.664 1.727 1.659V420h1.364v-5.682c0-1.125.704-1.954 1.932-1.954.954 0 1.772.505 1.772 1.795V420h1.341v-5.841c0-2.051-1.102-3-2.659-3-1.25 0-2.164.574-2.613 1.477h-.091c-.432-.931-1.194-1.477-2.341-1.477-1.137 0-1.977.546-2.341 1.477h-.114v-1.363h-1.295V420zm13.912 0h1.295v-1.341h.16c.295.477.863 1.523 2.545 1.523 2.182 0 3.704-1.75 3.704-4.523 0-2.75-1.522-4.5-3.727-4.5-1.704 0-2.227 1.046-2.523 1.5h-.113v-4.295h-1.341V420zm1.318-4.364c0-1.954.864-3.272 2.5-3.272 1.705 0 2.545 1.431 2.545 3.272 0 1.864-.863 3.341-2.545 3.341-1.614 0-2.5-1.363-2.5-3.341zm10.83 4.569c1.522 0 2.318-.819 2.59-1.387h.069V420h1.34v-5.75c0-2.773-2.113-3.091-3.227-3.091-1.318 0-2.818.455-3.5 2.046l1.273.454c.296-.636.995-1.318 2.273-1.318 1.233 0 1.84.653 1.84 1.773v.045c0 .648-.658.591-2.25.796-1.618.21-3.386.568-3.386 2.568 0 1.704 1.319 2.682 2.978 2.682zm.204-1.205c-1.068 0-1.84-.477-1.84-1.409 0-1.023.931-1.341 1.977-1.477.568-.069 2.09-.228 2.318-.5v1.227c0 1.091-.864 2.159-2.455 2.159zm12.249-5.773c-.42-1.238-1.364-2.068-3.09-2.068-1.842 0-3.206 1.046-3.206 2.523 0 1.204.716 2.011 2.319 2.386l1.454.341c.88.205 1.296.625 1.296 1.227 0 .75-.796 1.364-2.046 1.364-1.096 0-1.784-.472-2.022-1.409l-1.273.318c.312 1.483 1.534 2.273 3.318 2.273 2.028 0 3.41-1.108 3.41-2.614 0-1.216-.762-1.983-2.32-2.363l-1.295-.319c-1.034-.255-1.5-.602-1.5-1.272 0-.75.796-1.296 1.864-1.296 1.17 0 1.653.648 1.886 1.25l1.205-.341zm8.183 0c-.42-1.238-1.363-2.068-3.09-2.068-1.841 0-3.205 1.046-3.205 2.523 0 1.204.716 2.011 2.318 2.386l1.455.341c.88.205 1.295.625 1.295 1.227 0 .75-.795 1.364-2.045 1.364-1.097 0-1.784-.472-2.023-1.409l-1.273.318c.313 1.483 1.534 2.273 3.318 2.273 2.029 0 3.41-1.108 3.41-2.614 0-1.216-.762-1.983-2.319-2.363l-1.295-.319c-1.034-.255-1.5-.602-1.5-1.272 0-.75.795-1.296 1.863-1.296 1.17 0 1.654.648 1.887 1.25l1.204-.341zm4.57 6.978c1.523 0 2.318-.819 2.591-1.387h.068V420h1.341v-5.75c0-2.773-2.114-3.091-3.227-3.091-1.318 0-2.818.455-3.5 2.046l1.272.454c.296-.636.995-1.318 2.273-1.318 1.233 0 1.841.653 1.841 1.773v.045c0 .648-.659.591-2.25.796-1.62.21-3.386.568-3.386 2.568 0 1.704 1.318 2.682 2.977 2.682zm.205-1.205c-1.069 0-1.841-.477-1.841-1.409 0-1.023.931-1.341 1.977-1.477.568-.069 2.09-.228 2.318-.5v1.227c0 1.091-.864 2.159-2.454 2.159zm9.362 1.182c1.682 0 2.25-1.046 2.545-1.523h.16V420h1.295v-11.636h-1.34v4.295h-.115c-.295-.454-.818-1.5-2.522-1.5-2.205 0-3.728 1.75-3.728 4.5 0 2.773 1.523 4.523 3.705 4.523zm.182-1.205c-1.682 0-2.546-1.477-2.546-3.341 0-1.841.841-3.272 2.546-3.272 1.636 0 2.5 1.318 2.5 3.272 0 1.978-.887 3.341-2.5 3.341zm9.829 1.205c2.364 0 3.955-1.796 3.955-4.5 0-2.727-1.591-4.523-3.955-4.523-2.363 0-3.954 1.796-3.954 4.523 0 2.704 1.591 4.5 3.954 4.5zm0-1.205c-1.795 0-2.613-1.545-2.613-3.295s.818-3.318 2.613-3.318c1.796 0 2.614 1.568 2.614 3.318s-.818 3.295-2.614 3.295zm5.826 1.023h1.341v-5.523c0-1.182.932-2.045 2.204-2.045.358 0 .728.068.819.091v-1.364a13.282 13.282 0 00-.705-.023c-1.045 0-1.955.591-2.273 1.455h-.091v-1.318h-1.295V420zm11.959-6.773c-.421-1.238-1.364-2.068-3.091-2.068-1.841 0-3.205 1.046-3.205 2.523 0 1.204.716 2.011 2.319 2.386l1.454.341c.881.205 1.296.625 1.296 1.227 0 .75-.796 1.364-2.046 1.364-1.096 0-1.784-.472-2.023-1.409l-1.272.318c.312 1.483 1.534 2.273 3.318 2.273 2.028 0 3.409-1.108 3.409-2.614 0-1.216-.761-1.983-2.318-2.363l-1.296-.319c-1.034-.255-1.5-.602-1.5-1.272 0-.75.796-1.296 1.864-1.296 1.17 0 1.653.648 1.886 1.25l1.205-.341zM23.409 444h4.205c2.75 0 3.886-1.341 3.886-3.091 0-1.841-1.273-2.841-2.34-2.909v-.114c1-.272 1.886-.931 1.886-2.431 0-1.705-1.137-3.091-3.569-3.091H23.41V444zm1.41-1.25v-4.045h2.863c1.523 0 2.477 1.022 2.477 2.204 0 1.023-.704 1.841-2.545 1.841h-2.796zm0-5.273v-3.863h2.658c1.546 0 2.227.818 2.227 1.841 0 1.227-1 2.022-2.272 2.022h-2.614zM33.457 444h1.34v-5.523c0-1.182.932-2.045 2.205-2.045.358 0 .727.068.818.091v-1.364a13.248 13.248 0 00-.704-.023c-1.046 0-1.955.591-2.273 1.455h-.091v-1.318h-1.295V444zm8.345.205c1.523 0 2.318-.819 2.59-1.387h.069V444h1.34v-5.75c0-2.773-2.113-3.091-3.226-3.091-1.319 0-2.819.455-3.5 2.046l1.272.454c.296-.636.995-1.318 2.273-1.318 1.233 0 1.84.653 1.84 1.773v.045c0 .648-.658.591-2.25.796-1.618.21-3.385.568-3.385 2.568 0 1.704 1.318 2.682 2.977 2.682zm.204-1.205c-1.068 0-1.84-.477-1.84-1.409 0-1.023.931-1.341 1.977-1.477.568-.069 2.09-.228 2.318-.5v1.227c0 1.091-.864 2.159-2.455 2.159zm7.408-4.25c0-1.523.943-2.386 2.227-2.386 1.245 0 2 .812 2 2.181V444h1.341v-5.545c0-2.228-1.187-3.296-2.954-3.296-1.318 0-2.137.591-2.546 1.477h-.113v-1.363h-1.296V444h1.341v-5.25zm11.138 5.432c1.682 0 2.25-1.046 2.546-1.523h.159V444h1.295v-11.636h-1.34v4.295h-.114c-.296-.454-.819-1.5-2.523-1.5-2.205 0-3.727 1.75-3.727 4.5 0 2.773 1.522 4.523 3.704 4.523zm.182-1.205c-1.682 0-2.545-1.477-2.545-3.341 0-1.841.84-3.272 2.545-3.272 1.636 0 2.5 1.318 2.5 3.272 0 1.978-.886 3.341-2.5 3.341zm14.154 1.205c1.931 0 3.204-1.182 3.431-2.727h-1.34c-.25.954-1.046 1.522-2.091 1.522-1.591 0-2.614-1.318-2.614-3.341 0-1.977 1.045-3.272 2.614-3.272 1.181 0 1.886.727 2.09 1.522h1.341c-.227-1.636-1.613-2.727-3.454-2.727-2.364 0-3.932 1.864-3.932 4.523 0 2.613 1.5 4.5 3.955 4.5zm8.761 0c2.364 0 3.955-1.796 3.955-4.5 0-2.727-1.591-4.523-3.955-4.523s-3.954 1.796-3.954 4.523c0 2.704 1.59 4.5 3.954 4.5zm0-1.205c-1.795 0-2.614-1.545-2.614-3.295s.819-3.318 2.614-3.318c1.796 0 2.614 1.568 2.614 3.318s-.818 3.295-2.614 3.295zm7.166-4.227c0-1.523.944-2.386 2.228-2.386 1.244 0 2 .812 2 2.181V444h1.34v-5.545c0-2.228-1.187-3.296-2.954-3.296-1.318 0-2.136.591-2.545 1.477h-.114v-1.363h-1.296V444h1.341v-5.25zm9.184 0c0-1.523.943-2.386 2.227-2.386 1.244 0 2 .812 2 2.181V444h1.341v-5.545c0-2.228-1.188-3.296-2.955-3.296-1.318 0-2.136.591-2.545 1.477h-.114v-1.363H98.66V444H100v-5.25zm11.501 5.432c1.773 0 3.069-.887 3.478-2.205l-1.296-.363c-.341.909-1.131 1.363-2.182 1.363-1.574 0-2.659-1.017-2.721-2.886h6.335v-.568c0-3.25-1.932-4.364-3.75-4.364-2.364 0-3.932 1.864-3.932 4.546 0 2.681 1.546 4.477 4.068 4.477zm-2.721-5.25c.091-1.358 1.051-2.568 2.585-2.568 1.455 0 2.386 1.091 2.386 2.568h-4.971zm11.744 5.25c1.932 0 3.205-1.182 3.432-2.727h-1.341c-.25.954-1.045 1.522-2.091 1.522-1.591 0-2.613-1.318-2.613-3.341 0-1.977 1.045-3.272 2.613-3.272 1.182 0 1.887.727 2.091 1.522h1.341c-.227-1.636-1.614-2.727-3.454-2.727-2.364 0-3.932 1.864-3.932 4.523 0 2.613 1.5 4.5 3.954 4.5zm9.012-8.909h-1.864v-2.091h-1.341v2.091h-1.318v1.136h1.318v5.455c0 1.522 1.227 2.25 2.364 2.25.5 0 .818-.091 1-.159l-.273-1.205c-.114.023-.295.068-.591.068-.591 0-1.159-.182-1.159-1.318v-5.091h1.864v-1.136zm1.841 8.727h1.341v-8.727h-1.341V444zm.682-10.182c.522 0 .954-.409.954-.909s-.432-.909-.954-.909c-.523 0-.955.409-.955.909s.432.909.955.909zm6.484 10.364c2.364 0 3.955-1.796 3.955-4.5 0-2.727-1.591-4.523-3.955-4.523s-3.954 1.796-3.954 4.523c0 2.704 1.59 4.5 3.954 4.5zm0-1.205c-1.795 0-2.614-1.545-2.614-3.295s.819-3.318 2.614-3.318c1.796 0 2.614 1.568 2.614 3.318s-.818 3.295-2.614 3.295zm7.166-4.227c0-1.523.944-2.386 2.228-2.386 1.244 0 2 .812 2 2.181V444h1.341v-5.545c0-2.228-1.188-3.296-2.955-3.296-1.318 0-2.136.591-2.545 1.477h-.114v-1.363h-1.295V444h1.34v-5.25z"/>
  <path fill="#7DD9BE" d="M458.688 328.157l8.532-2.335-.602-2.201-5.863 1.605-.825-3.015 5.4-1.478-.602-2.201-5.401 1.478-.823-3.009 5.838-1.598-.602-2.201-8.508 2.329 3.456 12.626zm9.993-12.914l-2.713.742 4.009 3.993-1.516 5.504 2.713-.742.941-3.777 2.764 2.763 2.682-.734-4.113-3.964 1.447-5.486-2.694.737-.876 3.799-2.644-2.835zm11.147 10.945l2.626-.718-1.387-5.068.08-.022c.58.689 1.617 1.353 3.146.935 2.158-.591 3.373-2.759 2.506-5.928-.891-3.256-3.09-4.39-5.168-3.821-1.584.433-2.085 1.584-2.225 2.451l-.117.032-.436-1.59-2.589.708 3.564 13.021zm.303-8.989c-.462-1.69-.043-2.964 1.234-3.314 1.301-.356 2.3.584 2.749 2.223.452 1.653.063 2.992-1.226 3.345-1.263.345-2.295-.565-2.757-2.254zm8.691-10.862l-2.626.719 3.456 12.626 2.626-.718-3.456-12.627zm9.698 11.117c2.873-.787 4.123-3.243 3.325-6.159-.804-2.935-3.128-4.406-6.001-3.619-2.873.786-4.124 3.236-3.321 6.171.798 2.916 3.124 4.393 5.997 3.607zm-.544-2.038c-1.326.363-2.336-.666-2.789-2.319-.452-1.652-.108-3.058 1.218-3.421 1.301-.356 2.313.679 2.765 2.331.452 1.653.107 3.053-1.194 3.409zm6.671.162l2.627-.719-1.467-5.358c-.319-1.165.313-2.199 1.472-2.516.364-.1.88-.175 1.149-.162l-.638-2.331c-.25.009-.587.061-.852.134-1.06.29-1.761 1.145-1.785 2.41l-.099.027-.452-1.652-2.547.697 2.592 9.47zm10.839-2.768c2.343-.641 3.609-2.214 3.498-4.072l-2.473.505c-.068.794-.643 1.355-1.519 1.595-1.313.359-2.383-.282-2.769-1.694l-.002-.006 6.449-1.765-.198-.722c-.881-3.218-3.264-4.275-5.767-3.59-2.787.762-4.052 3.236-3.252 6.158.822 3.003 3.117 4.389 6.033 3.591zm-3.711-5.3c-.239-1.094.344-2.182 1.509-2.5 1.141-.313 2.153.285 2.468 1.412l-3.977 1.088zm15.802-8.387l-1.782.487-.621-2.268-2.626.718.621 2.269-1.295.355.54 1.972 1.295-.354 1.35 4.932c.495 1.859 2.011 2.432 3.894 1.831a5.334 5.334 0 001.357-.637l-.948-1.841c-.123.06-.384.197-.63.265-.524.143-.942.046-1.141-.682l-1.256-4.587 1.782-.487-.54-1.973zm8.339 8.095c2.874-.786 4.123-3.242 3.325-6.158-.803-2.935-3.128-4.406-6.001-3.62-2.873.786-4.124 3.236-3.321 6.171.798 2.916 3.124 4.394 5.997 3.607zm-.544-2.038c-1.326.363-2.336-.666-2.788-2.318-.453-1.652-.109-3.059 1.217-3.422 1.301-.356 2.313.679 2.765 2.332.453 1.652.107 3.052-1.194 3.408zm10.203-.639c1.529-.418 2.083-1.517 2.231-2.406l.111-.031.415 1.517 2.59-.709-3.456-12.626-2.621.717 1.3 4.747-.08.022c-.563-.674-1.579-1.41-3.164-.976-2.077.568-3.392 2.665-2.501 5.92.867 3.169 3.018 4.416 5.175 3.825zm.261-2.317c-1.289.352-2.306-.602-2.758-2.254-.449-1.64-.067-2.958 1.234-3.314 1.276-.349 2.287.534 2.749 2.223.462 1.69.038 2.999-1.225 3.345zm9.803-.411c1.4-.383 2.139-1.241 2.36-2.249l.074-.021.36 1.314 2.49-.682-1.748-6.387c-.617-2.257-2.789-2.683-4.897-2.106-2.269.621-3.464 2.114-3.355 3.94l2.483-.467c.007-.678.441-1.294 1.384-1.552.894-.245 1.529.065 1.742.842l.01.037c.167.61-.458.868-2.061 1.478-1.827.686-3.338 1.776-2.759 3.89.513 1.874 2.111 2.458 3.917 1.963zm.256-2.018c-.807.221-1.49.003-1.687-.718-.203-.74.308-1.271 1.198-1.653.551-.237 1.451-.629 1.708-.925l.275 1.005c.272.993-.341 1.975-1.494 2.291zm9.129 3.075c1.955-.535 2.717-1.818 2.835-3.493l.812-11.489-2.784.749-.075 7.496-.099.027-3.864-6.418-2.762.756 6.063 8.812-.044.443c-.103.982-.75 1.206-1.753 1.175l-.055 2.123c.42.057 1.061.001 1.726-.181zm13.415-14.766c-.712-1.681-2.413-2.375-4.805-1.72-2.423.663-3.713 2.222-3.207 4.046.382 1.419 1.527 2.093 3.478 1.957l1.73-.122c.871-.06 1.33.139 1.472.611.142.564-.359 1.132-1.278 1.383-.937.257-1.669.026-2.04-.7l-2.546.842c.742 1.745 2.589 2.44 5.098 1.753 2.454-.672 3.869-2.404 3.363-4.274-.38-1.367-1.499-1.942-3.439-1.816l-1.808.124c-.934.05-1.344-.162-1.462-.62-.162-.566.378-1.111 1.192-1.334.912-.25 1.592.101 1.888.676l2.364-.806zm11.688 4.276c2.522-.69 3.701-2.603 3.229-4.813l-2.479.678c.123 1.053-.388 1.803-1.288 2.049-1.227.336-2.304-.476-2.8-2.288-.489-1.788.032-3.031 1.253-3.365.962-.263 1.752.203 2.152 1.107l2.478-.678c-.71-2.158-2.761-3.141-5.234-2.464-2.873.786-4.103 3.263-3.308 6.167.788 2.879 3.081 4.406 5.997 3.607zm8.419-2.31c1.399-.383 2.139-1.242 2.36-2.25l.074-.02.359 1.313 2.491-.682-1.748-6.387c-.618-2.257-2.789-2.683-4.898-2.106-2.268.621-3.463 2.115-3.355 3.94l2.483-.467c.007-.678.442-1.294 1.385-1.552.894-.245 1.529.065 1.741.842l.01.037c.168.61-.458.868-2.06 1.479-1.827.685-3.338 1.775-2.759 3.889.513 1.875 2.11 2.458 3.917 1.964zm.256-2.019c-.808.221-1.49.004-1.688-.718-.202-.739.309-1.27 1.198-1.653.551-.237 1.451-.629 1.708-.925l.276 1.005c.271.993-.341 1.976-1.494 2.291zm6.875-.125l2.626-.719-1.466-5.358c-.319-1.165.312-2.199 1.471-2.517.364-.099.88-.174 1.149-.162l-.638-2.33c-.25.009-.587.061-.852.134-1.06.29-1.761 1.144-1.785 2.41l-.099.027-.452-1.652-2.546.697 2.592 9.47zm12.608-3.451l2.774-.76-.002-6.401.117-.032 3.258 5.51 2.78-.761-.021-10.173-2.651.725.289 6.721-.08.022-3.285-5.901-2.608.714.212 6.781-.086.024-3.209-5.961-2.657.727 5.169 8.765zm13.836-9.672c-.328-1.223.222-2.142 1.295-2.436 1.067-.292 1.883.221 2.196 1.388l1.522 5.561 2.626-.719-1.65-6.03c-.602-2.221-2.276-3.207-4.249-2.667-1.437.393-2.213 1.334-2.339 2.568l-.111.031-1.321-4.828-2.553.699 3.456 12.626 2.627-.718-1.499-5.475zm9.515 3.28l2.627-.719-2.592-9.469-2.627.718 2.592 9.47zm-1.607-11.051c.783-.215 1.261-.988 1.06-1.722-.199-.727-1.004-1.15-1.787-.936-.777.213-1.254.987-1.055 1.714.201.734 1.006 1.156 1.782.944zm5.317-3.536l-2.627.718 3.456 12.627 2.627-.719-3.456-12.626zm9.735 11.106c2.343-.641 3.609-2.214 3.498-4.072l-2.473.505c-.068.793-.643 1.355-1.518 1.595-1.314.359-2.384-.282-2.77-1.694l-.002-.006 6.449-1.765-.197-.722c-.881-3.218-3.265-4.275-5.768-3.59-2.787.762-4.052 3.236-3.252 6.158.822 3.003 3.117 4.389 6.033 3.591zm-3.71-5.3c-.24-1.094.343-2.182 1.509-2.501 1.14-.312 2.152.286 2.467 1.413l-3.976 1.088zm16.888 1.66c1.529-.418 2.083-1.518 2.231-2.406l.111-.031.415 1.517 2.589-.709-3.456-12.626-2.62.717 1.299 4.747-.08.022c-.562-.674-1.579-1.41-3.163-.976-2.078.568-3.393 2.664-2.502 5.92.868 3.169 3.018 4.416 5.176 3.825zm.26-2.318c-1.288.353-2.305-.601-2.757-2.254-.449-1.64-.067-2.957 1.233-3.313 1.277-.349 2.287.534 2.749 2.223.463 1.69.039 2.998-1.225 3.344zm7.055.15l2.626-.718-1.466-5.358c-.319-1.165.312-2.2 1.471-2.517.364-.099.88-.174 1.149-.162l-.638-2.33c-.25.008-.586.061-.852.133-1.06.291-1.761 1.145-1.785 2.411l-.099.027-.452-1.652-2.546.697 2.592 9.469zm6.913-1.892l2.626-.719-2.592-9.469-2.626.718 2.592 9.47zm-1.607-11.051c.783-.215 1.26-.988 1.06-1.722-.2-.727-1.004-1.15-1.787-.936-.777.213-1.255.987-1.056 1.714.201.734 1.006 1.156 1.783.944zm12.383-2.077l-2.781.761-.106 7.312-.099.027-3.821-6.237-2.774.759 5.903 8.564 2.959-.81.719-10.376zm3.745 9.154l2.626-.719-2.592-9.47-2.626.719 2.592 9.47zm-1.607-11.052c.783-.214 1.26-.988 1.06-1.721-.199-.728-1.004-1.15-1.787-.936-.777.212-1.255.986-1.056 1.714.201.733 1.006 1.156 1.783.943zm7.274 3.616c-.328-1.223.204-2.137 1.264-2.427 1.054-.289 1.878.228 2.19 1.389l1.522 5.561 2.626-.719-1.65-6.03c-.604-2.207-2.27-3.209-4.243-2.669-1.406.385-2.234 1.354-2.358 2.574l-.111.03-.457-1.671-2.503.685 2.592 9.47 2.626-.718-1.498-5.475zm14.773 5.87c2.707-.74 4.293-2.5 3.63-4.923l-2.617-9.562-2.608.714.435 1.59-.099.027c-.562-.674-1.591-1.407-3.175-.973-2.078.569-3.393 2.665-2.51 5.889.862 3.151 2.971 4.151 5.104 3.567 1.511-.414 2.148-1.403 2.279-2.281l.111-.03.474 1.732c.356 1.301-.338 2.035-1.478 2.347-1.159.317-1.883-.028-2.256-.542l-2.34.991c.723 1.406 2.498 2.153 5.05 1.454zm-1.547-5.872c-1.289.353-2.272-.478-2.719-2.112-.44-1.609-.059-2.926 1.242-3.282 1.276-.35 2.287.533 2.741 2.192.457 1.671 0 2.856-1.264 3.202zM277.175 414.714c.817-2.933-.635-5.414-3.436-6.569-3.196-1.319-6.568-.069-8.202 3.889-1.629 3.947-.166 7.206 3.072 8.543 3.102 1.28 5.826-.009 7.023-2.122l-2.583-1.08c-.776 1.194-2.1 1.519-3.465.956-1.837-.759-2.521-2.638-1.453-5.226 1.039-2.517 2.86-3.446 4.733-2.673 1.401.578 2.077 1.804 1.723 3.214l2.588 1.068zm2.387 10.396c2.753 1.137 5.245-.041 6.398-2.836 1.161-2.812.223-5.398-2.531-6.535-2.753-1.136-5.242.036-6.403 2.848-1.153 2.795-.218 5.387 2.536 6.523zm.816-1.945c-1.27-.524-1.44-1.956-.786-3.54.653-1.583 1.786-2.485 3.056-1.961 1.247.515 1.414 1.953.761 3.537-.654 1.583-1.784 2.479-3.031 1.964zm5.178 4.212l2.517 1.038 2.248-5.448c.414-1.004 1.328-1.408 2.167-1.062.827.341 1.149 1.138.78 2.03l-2.336 5.66 2.441 1.007 2.287-5.542c.388-.939 1.189-1.356 2.105-.978.803.332 1.199 1.083.782 2.093l-2.314 5.608 2.511 1.036 2.519-6.104c.812-1.967.105-3.573-1.585-4.27-1.329-.549-2.644-.296-3.445.59l-.095-.039c.145-1.171-.507-2.221-1.754-2.736-1.223-.505-2.419-.238-3.239.676l-.106-.044.661-1.601-2.399-.99-3.745 9.076zm14.993 6.187l2.517 1.039 2.248-5.448c.415-1.005 1.328-1.409 2.168-1.063.827.342 1.148 1.138.78 2.03l-2.336 5.661 2.44 1.007 2.287-5.542c.388-.94 1.189-1.356 2.105-.978.804.331 1.199 1.082.782 2.093l-2.314 5.607 2.511 1.036 2.519-6.103c.812-1.968.105-3.573-1.585-4.271-1.329-.548-2.643-.295-3.445.591l-.094-.039c.144-1.171-.508-2.222-1.755-2.736-1.223-.505-2.419-.238-3.238.675l-.107-.044.661-1.601-2.399-.99-3.745 9.076zm22.408 4.725c-.496 1.22-1.593 1.514-2.497 1.141-.951-.393-1.29-1.314-.855-2.386l2.2-5.33-2.517-1.038-2.385 5.778c-.869 2.124-.163 3.93 1.663 4.684 1.365.563 2.636.265 3.483-.631l.094.039-.68 1.649 2.417.997 3.745-9.076-2.517-1.038-2.151 5.211zm7.435 1.45c.489-1.167 1.469-1.565 2.485-1.146 1.011.417 1.346 1.33.882 2.439l-2.2 5.329 2.518 1.039 2.384-5.779c.873-2.115.169-3.927-1.722-4.707-1.347-.556-2.595-.297-3.439.593l-.107-.044.661-1.601-2.399-.99-3.745 9.075 2.517 1.039 2.165-5.247zm5.485 8.404l2.517 1.039 3.746-9.076-2.517-1.038-3.746 9.075zm5.493-9.724c.75.31 1.601-.009 1.892-.713.287-.697-.091-1.523-.841-1.833-.745-.307-1.596.012-1.883.709-.29.704.088 1.53.832 1.837zm2.885 13.389c2.417.997 4.521.206 5.5-1.831l-2.376-.98c-.547.908-1.41 1.188-2.272.832-1.176-.485-1.531-1.786-.814-3.524.707-1.713 1.88-2.377 3.05-1.894.921.38 1.261 1.233 1.024 2.193l2.375.98c.759-2.141-.262-4.174-2.631-5.152-2.754-1.136-5.243.07-6.391 2.853-1.139 2.759-.26 5.37 2.535 6.523zm8.073 3.325c1.341.553 2.451.327 3.243-.336l.071.03-.52 1.258 2.387.985 2.527-6.121c.892-2.163-.564-3.828-2.585-4.662-2.174-.898-4.033-.448-5.065 1.063l2.25 1.15c.42-.532 1.141-.754 2.045-.381.857.354 1.169.988.862 1.732l-.015.036c-.241.585-.893.405-2.534-.092-1.865-.576-3.727-.639-4.563 1.388-.741 1.796.165 3.235 1.897 3.95zm1.437-1.44c-.774-.32-1.18-.909-.895-1.601.293-.709 1.021-.816 1.959-.574.581.15 1.533.391 1.917.314l-.397.963c-.393.951-1.479 1.354-2.584.898zm14.087-2.976l-1.708-.705.898-2.174-2.517-1.039-.898 2.175-1.241-.512-.78 1.89 1.241.513-1.951 4.726c-.746 1.774.102 3.154 1.96 3.831.66.245 1.174.305 1.462.327l.377-2.037c-.133-.027-.424-.078-.66-.175-.502-.208-.773-.54-.485-1.238l1.814-4.396 1.708.705.78-1.891zm1.677 11.521c2.245.927 4.209.458 5.258-1.08l-2.265-1.114c-.539.586-1.338.678-2.177.332-1.258-.519-1.712-1.682-1.154-3.035l.003-.006 6.18 2.551.286-.691c1.272-3.085.034-5.38-2.365-6.37-2.67-1.102-5.184.08-6.34 2.881-1.188 2.878-.221 5.379 2.574 6.532zm.309-6.463c.479-1.012 1.607-1.515 2.723-1.054 1.093.451 1.528 1.544 1.088 2.627l-3.811-1.573zm9.057 10.121l2.517 1.039 3.745-9.076-2.517-1.039-3.745 9.076zm5.493-9.724c.75.31 1.601-.01 1.891-.713.288-.697-.09-1.524-.841-1.834-.744-.307-1.595.013-1.883.71-.29.703.088 1.53.833 1.837zm3.54 7.311c.488-1.168 1.468-1.565 2.485-1.146 1.01.417 1.346 1.33.881 2.438l-2.199 5.33 2.517 1.039 2.385-5.779c.873-2.115.168-3.927-1.722-4.707-1.348-.556-2.596-.297-3.44.593l-.106-.044.661-1.602-2.399-.99-3.746 9.076 2.517 1.039 2.166-5.247zm15.713 5.033c.466-1.765-.454-3.355-2.747-4.301-2.322-.959-4.296-.515-5.012 1.237-.567 1.356-.073 2.59 1.553 3.676l1.442.962c.726.486.967.925.791 1.384-.233.533-.977.676-1.857.313-.898-.371-1.337-1.001-1.186-1.803l-2.529-.892c-.48 1.835.555 3.514 2.96 4.506 2.352.971 4.531.466 5.276-1.322.535-1.314.003-2.453-1.61-3.541l-1.506-1.008c-.769-.532-.963-.951-.776-1.386.218-.546.979-.647 1.759-.325.874.361 1.197 1.054 1.08 1.69l2.362.81zm-1.068 7.151l2.517 1.039 3.745-9.076-2.517-1.039-3.745 9.076zm5.493-9.724c.75.31 1.601-.01 1.891-.713.288-.697-.09-1.524-.841-1.833-.744-.308-1.595.012-1.883.709-.29.703.088 1.53.833 1.837zm1.464 16.799c2.593 1.071 4.925.65 5.883-1.672l3.782-9.165-2.499-1.031-.63 1.524-.094-.039c-.032-.877-.398-2.086-1.916-2.713-1.991-.821-4.314.032-5.59 3.122-1.246 3.019-.189 5.101 1.855 5.945 1.448.597 2.557.204 3.198-.409l.106.043-.685 1.661c-.514 1.246-1.512 1.402-2.605.951-1.111-.459-1.472-1.175-1.452-1.81l-2.458-.647c-.288 1.554.658 3.231 3.105 4.24zm2.369-5.591c-1.235-.51-1.504-1.768-.857-3.334.636-1.542 1.744-2.351 2.991-1.836 1.223.505 1.482 1.822.826 3.411-.661 1.601-1.749 2.259-2.96 1.759zm10.053.373c.489-1.167 1.486-1.558 2.515-1.133 1.022.421 1.354 1.326.887 2.44l-2.199 5.33 2.517 1.039 2.384-5.779c.884-2.125.163-3.93-1.728-4.71-1.376-.568-2.566-.299-3.421.6l-.107-.044 1.91-4.626-2.447-1.01-4.993 12.101 2.517 1.039 2.165-5.247zm14.09 1.334l-1.707-.705.897-2.174-2.517-1.039-.897 2.175-1.241-.513-.781 1.891 1.241.512-1.95 4.727c-.746 1.774.102 3.154 1.959 3.831.66.244 1.174.305 1.463.327l.377-2.037c-.134-.027-.424-.078-.661-.175-.502-.208-.772-.541-.485-1.238l1.814-4.396 1.708.705.78-1.891zm7.81 6.252c.466-1.765-.455-3.355-2.747-4.301-2.322-.958-4.297-.515-5.012 1.237-.567 1.356-.074 2.59 1.553 3.676l1.442.962c.726.486.967.925.791 1.385-.234.532-.977.675-1.858.312-.898-.371-1.336-1.001-1.185-1.803l-2.529-.892c-.481 1.835.555 3.514 2.96 4.506 2.352.971 4.531.466 5.275-1.322.536-1.314.003-2.453-1.609-3.54l-1.506-1.009c-.769-.532-.963-.951-.776-1.386.218-.546.979-.647 1.759-.325.874.361 1.197 1.054 1.079 1.691l2.363.809zm9.43-3.342l-2.168-.895-9.879 12.879 2.168.895 9.879-12.879zm-4.198 13.093l2.517 1.039 3.745-9.076-2.517-1.038-3.745 9.075zm5.493-9.723c.75.309 1.601-.01 1.891-.713.288-.698-.09-1.524-.841-1.834-.744-.307-1.595.012-1.883.709-.29.704.088 1.53.833 1.838zm2.141 13.047c1.465.604 2.576.074 3.237-.539l.106.044-.6 1.454 2.482 1.024 4.994-12.101-2.512-1.036-1.877 4.549-.077-.031c-.032-.878-.386-2.082-1.904-2.709-1.991-.821-4.314.032-5.602 3.152-1.253 3.037-.315 5.339 1.753 6.193zm1.624-1.674c-1.235-.51-1.455-1.887-.802-3.47.649-1.572 1.757-2.38 3.004-1.866 1.223.505 1.482 1.822.813 3.441-.668 1.619-1.804 2.395-3.015 1.895zm9.55 6.32c2.246.926 4.209.457 5.259-1.08l-2.265-1.115c-.539.587-1.338.679-2.177.333-1.259-.52-1.712-1.682-1.154-3.035l.002-.006 6.181 2.551.285-.692c1.273-3.084.035-5.379-2.364-6.369-2.671-1.102-5.185.08-6.34 2.881-1.188 2.877-.222 5.378 2.573 6.532zm.309-6.463c.48-1.012 1.607-1.515 2.724-1.054 1.093.451 1.528 1.543 1.087 2.627l-3.811-1.573zm7.907 9.846c1.341.554 2.451.327 3.243-.335l.071.029-.52 1.259 2.388.985 2.526-6.121c.892-2.163-.564-3.829-2.585-4.663-2.174-.897-4.033-.447-5.065 1.063l2.25 1.15c.421-.532 1.141-.753 2.045-.38.857.354 1.169.987.862 1.732l-.015.035c-.241.585-.893.406-2.534-.091-1.865-.576-3.726-.639-4.563 1.387-.741 1.797.166 3.236 1.897 3.95zm1.438-1.44c-.774-.319-1.181-.909-.896-1.6.293-.709 1.022-.816 1.959-.574.581.149 1.533.39 1.917.314l-.397.963c-.393.951-1.478 1.353-2.583.897zm15.742.737c.466-1.765-.455-3.355-2.747-4.301-2.323-.958-4.297-.514-5.013 1.237-.566 1.357-.073 2.59 1.553 3.677l1.443.961c.726.487.967.925.791 1.385-.234.533-.977.675-1.858.312-.898-.371-1.336-1.001-1.185-1.803l-2.529-.892c-.481 1.835.555 3.514 2.96 4.506 2.351.971 4.53.466 5.275-1.322.536-1.314.003-2.453-1.609-3.54l-1.506-1.009c-.769-.532-.963-.951-.777-1.385.219-.546.98-.647 1.759-.325.875.36 1.197 1.054 1.08 1.69l2.363.809zm11.172 1.582l-1.707-.705.897-2.174-2.517-1.039-.898 2.174-1.24-.512-.781 1.891 1.241.512-1.951 4.727c-.745 1.774.103 3.154 1.96 3.83.66.245 1.174.305 1.463.327l.377-2.036c-.134-.028-.424-.078-.661-.176-.502-.207-.773-.54-.485-1.237l1.814-4.396 1.708.704.78-1.89zm2.589 5.549c.488-1.168 1.486-1.558 2.514-1.134 1.023.422 1.355 1.327.888 2.441l-2.2 5.33 2.518 1.038 2.384-5.778c.884-2.125.163-3.93-1.728-4.71-1.377-.568-2.567-.299-3.421.6l-.107-.044 1.909-4.626-2.446-1.01-4.994 12.101 2.517 1.039 2.166-5.247zm5.517 8.417l2.517 1.039 2.119-5.135c.461-1.116 1.594-1.548 2.705-1.09.348.144.802.401 1.007.575l.922-2.233a4.102 4.102 0 00-.755-.416c-1.017-.419-2.094-.172-2.888.814l-.094-.039.653-1.583-2.44-1.007-3.746 9.075zm10.231 4.43c2.753 1.136 5.244-.042 6.398-2.837 1.16-2.812.222-5.398-2.531-6.535-2.754-1.136-5.242.036-6.403 2.848-1.153 2.795-.218 5.387 2.536 6.524zm.816-1.945c-1.27-.525-1.44-1.957-.786-3.54.653-1.584 1.786-2.486 3.056-1.961 1.247.514 1.414 1.952.761 3.536-.654 1.583-1.784 2.479-3.031 1.965zm12.592 2.748c-.496 1.22-1.593 1.514-2.497 1.141-.951-.393-1.29-1.314-.855-2.386l2.2-5.329-2.517-1.039-2.385 5.779c-.869 2.123-.163 3.929 1.663 4.683 1.365.563 2.636.265 3.483-.631l.094.039-.68 1.649 2.417.997 3.745-9.075-2.517-1.039-2.151 5.211zm5.359 10.938c2.594 1.071 4.925.65 5.884-1.672l3.782-9.165-2.5-1.031-.629 1.524-.094-.039c-.032-.877-.398-2.086-1.917-2.713-1.991-.821-4.314.032-5.589 3.122-1.246 3.019-.19 5.101 1.855 5.945 1.448.597 2.557.204 3.197-.409l.107.043-.685 1.661c-.515 1.247-1.512 1.402-2.606.951-1.11-.459-1.472-1.175-1.452-1.81l-2.457-.647c-.289 1.554.658 3.231 3.104 4.24zm2.37-5.591c-1.235-.509-1.504-1.768-.858-3.334.637-1.542 1.745-2.35 2.991-1.836 1.224.505 1.482 1.822.826 3.411-.661 1.601-1.748 2.259-2.959 1.759zm10.053.373c.488-1.167 1.486-1.558 2.514-1.133 1.022.421 1.354 1.326.888 2.44l-2.2 5.33 2.517 1.039 2.385-5.779c.884-2.125.163-3.93-1.728-4.71-1.377-.568-2.567-.299-3.422.6l-.106-.044 1.909-4.626-2.446-1.01-4.994 12.101 2.517 1.039 2.166-5.247zm17.758 2.848l-1.708-.705.898-2.174-2.517-1.039-.898 2.174-1.241-.512-.78 1.891 1.241.512-1.951 4.727c-.746 1.774.102 3.154 1.96 3.831.66.244 1.174.304 1.462.326l.377-2.036c-.133-.028-.424-.078-.66-.176-.502-.207-.773-.54-.485-1.237l1.814-4.396 1.708.705.78-1.891zm2.589 5.549c.488-1.168 1.486-1.558 2.514-1.134 1.022.422 1.354 1.327.888 2.441l-2.2 5.33 2.517 1.038 2.385-5.778c.884-2.125.163-3.93-1.728-4.71-1.377-.568-2.567-.299-3.422.6l-.106-.044 1.909-4.626-2.446-1.01-4.994 12.101 2.517 1.039 2.166-5.247zm9.58 10.302c2.245.926 4.209.457 5.259-1.08l-2.265-1.115c-.539.587-1.338.679-2.177.333-1.259-.52-1.713-1.682-1.154-3.035l.002-.006 6.181 2.551.285-.692c1.273-3.084.035-5.379-2.364-6.369-2.671-1.102-5.185.08-6.341 2.881-1.187 2.877-.221 5.378 2.574 6.532zm.309-6.463c.48-1.012 1.607-1.515 2.724-1.054 1.093.451 1.527 1.543 1.087 2.627l-3.811-1.573zm11.575 11.36c1.341.553 2.451.327 3.243-.335l.071.029-.52 1.258 2.387.986 2.527-6.122c.892-2.162-.564-3.828-2.585-4.662-2.174-.897-4.033-.448-5.065 1.063l2.25 1.15c.42-.532 1.141-.753 2.045-.38.857.353 1.169.987.862 1.731l-.015.036c-.241.585-.893.406-2.534-.092-1.865-.576-3.727-.639-4.563 1.388-.741 1.796.165 3.235 1.897 3.95zm1.437-1.44c-.774-.319-1.18-.909-.895-1.6.293-.709 1.021-.817 1.959-.575.581.15 1.533.391 1.917.314l-.397.963c-.393.952-1.479 1.354-2.584.898zm4.11 7.511l2.517 1.039 2.004-4.857.077.032c.036.9.45 2.06 1.915 2.664 2.068.854 4.357-.117 5.61-3.154 1.288-3.12.243-5.363-1.749-6.185-1.518-.627-2.618-.022-3.26.577l-.112-.046.629-1.525-2.481-1.024-5.15 12.479zm5.741-6.924c.668-1.619 1.78-2.37 3.003-1.866 1.247.515 1.462 1.869.814 3.441-.654 1.584-1.781 2.405-3.016 1.895-1.211-.5-1.469-1.851-.801-3.47zm4.605 11.194l2.517 1.039 2.004-4.857.077.032c.037.9.45 2.059 1.916 2.664 2.068.853 4.356-.118 5.609-3.155 1.288-3.119.243-5.363-1.748-6.184-1.519-.627-2.619-.023-3.26.577l-.113-.047.629-1.524-2.481-1.024-5.15 12.479zm5.741-6.924c.668-1.619 1.78-2.371 3.003-1.866 1.247.515 1.463 1.869.814 3.441-.653 1.583-1.781 2.404-3.016 1.895-1.211-.5-1.469-1.851-.801-3.47zm434.038 14.953l3.37 7.544c.62 1.366.1 2.788-1.36 3.459-1.46.667-2.86.12-3.47-1.245l-3.38-7.544-2.51 1.152 3.47 7.76c1.17 2.614 3.91 3.459 6.88 2.099 2.96-1.354 4.16-4.003 2.99-6.617l-3.48-7.76-2.51 1.152zm14.27.146c-.96-1.55-2.74-1.964-5-.932-2.28 1.046-3.31 2.797-2.54 4.521.6 1.345 1.83 1.828 3.73 1.38l1.69-.398c.85-.199 1.33-.076 1.54.368.23.536-.18 1.179-1.05 1.575-.88.405-1.64.294-2.11-.366l-2.38 1.244c1 1.608 2.93 1.999 5.29.916 2.31-1.059 3.44-3.002 2.65-4.772-.58-1.293-1.77-1.683-3.66-1.246l-1.76.413c-.92.2-1.35.055-1.54-.379-.25-.534.2-1.161.97-1.512.86-.394 1.58-.156 1.96.366l2.21-1.178zm8.59 3.994c2.21-1.011 3.22-2.771 2.82-4.594l-2.36.897c.06.797-.42 1.445-1.25 1.823-1.23.567-2.39.104-2.99-1.232v-.006l6.08-2.784-.3-.682c-1.37-3.046-3.88-3.71-6.24-2.63-2.62 1.203-3.49 3.855-2.25 6.621 1.27 2.841 3.74 3.846 6.49 2.587zm-4.47-4.653c-.4-1.045.01-2.215 1.1-2.718 1.08-.492 2.17-.063 2.65 1.002l-3.75 1.716zm9.93 1.945l2.47-1.134-2.27-5.07c-.49-1.102-.03-2.228 1.07-2.728.34-.157.84-.314 1.1-.345l-.98-2.205a3.91 3.91 0 00-.82.269c-1 .457-1.56 1.416-1.39 2.673l-.09.043-.7-1.564-2.4 1.099 4.01 8.962zm10.12-4.635l2.48-1.134-4.01-8.962-2.48 1.134 4.01 8.962zm-3.28-10.687c.74-.338 1.09-1.18.78-1.875-.31-.688-1.17-.977-1.91-.639-.73.335-1.08 1.178-.77 1.866.31.694 1.17.984 1.9.648zm7.72 2.413c-.51-1.158-.13-2.149.87-2.606.99-.455 1.89-.076 2.37 1.024l2.36 5.262 2.47-1.133-2.55-5.706c-.94-2.089-2.73-2.814-4.59-1.962-1.33.606-1.99 1.699-1.93 2.927l-.1.048-.71-1.581-2.36 1.08 4.01 8.961 2.48-1.133-2.32-5.181zm14.4-8.071c-.96-1.55-2.74-1.964-4.99-.932-2.29 1.046-3.32 2.797-2.54 4.521.6 1.345 1.83 1.828 3.73 1.38l1.68-.399c.85-.199 1.33-.075 1.55.369.22.536-.18 1.179-1.05 1.575-.88.405-1.64.294-2.12-.366l-2.37 1.243c1 1.609 2.92 2 5.29.917 2.31-1.059 3.44-3.002 2.65-4.772-.58-1.293-1.77-1.683-3.67-1.246l-1.76.413c-.91.2-1.35.055-1.53-.38-.25-.534.2-1.16.97-1.512.86-.393 1.58-.155 1.96.367l2.2-1.178zm4.45 5.682l2.48-1.134-4.01-8.962-2.48 1.134 4.01 8.962zm-3.28-10.687c.74-.338 1.09-1.18.78-1.875-.31-.688-1.17-.977-1.91-.639-.73.335-1.08 1.178-.77 1.866.31.694 1.17.984 1.9.648zm13.17 10.433c2.55-1.168 3.84-3.165 2.82-5.458l-4.05-9.049-2.46 1.126.67 1.505-.09.043c-.66-.578-1.78-1.138-3.28-.454-1.96.896-2.93 3.183-1.56 6.235 1.33 2.981 3.56 3.633 5.57 2.712 1.43-.652 1.9-1.734 1.9-2.624l.1-.048.73 1.64c.56 1.231-.01 2.068-1.09 2.56-1.09.501-1.86.275-2.3-.174l-2.16 1.357c.93 1.276 2.8 1.731 5.2.629zm-2.43-5.566c-1.21.556-2.31-.109-3-1.655-.68-1.523-.51-2.889.72-3.45 1.2-.551 2.33.161 3.03 1.731.71 1.581.44 2.828-.75 3.374zm7.16-7.113c-.52-1.158-.12-2.157.9-2.62 1-.46 1.88-.084 2.37 1.021l2.36 5.263 2.47-1.134-2.55-5.706c-.93-2.103-2.74-2.81-4.6-1.959-1.35.62-1.97 1.677-1.9 2.919l-.11.048-2.04-4.568-2.41 1.101 5.35 11.949 2.47-1.133-2.31-5.181zm10.61-9.415l-1.68.769-.96-2.147-2.48 1.134.96 2.147-1.22.559.84 1.867 1.22-.559 2.09 4.667c.77 1.762 2.35 2.086 4.11 1.187a5.214 5.214 0 001.24-.848l-1.21-1.671c-.12.079-.35.258-.58.364-.5.226-.92.196-1.23-.492l-1.95-4.341 1.68-.769-.83-1.867zm9.88-1.442c-.96-1.55-2.75-1.965-5-.932-2.29 1.045-3.32 2.796-2.54 4.521.6 1.344 1.83 1.828 3.73 1.38l1.68-.399c.85-.199 1.34-.075 1.55.369.22.536-.18 1.178-1.05 1.575-.88.404-1.64.294-2.11-.366l-2.38 1.243c1 1.609 2.92 2 5.29.917 2.31-1.059 3.44-3.002 2.65-4.773-.58-1.292-1.77-1.682-3.66-1.245l-1.77.413c-.91.199-1.34.055-1.53-.38-.25-.534.2-1.161.97-1.512.86-.394 1.58-.155 1.96.366l2.21-1.177zm11.41 2.669c1.44-.66 1.81-1.837 1.82-2.741l.11-.048.64 1.435 2.44-1.117-5.35-11.949-2.47 1.131 2.01 4.492-.07.035c-.66-.578-1.77-1.143-3.27-.459-1.96.896-2.93 3.183-1.55 6.264 1.34 2.999 3.65 3.889 5.69 2.957zm-.1-2.337c-1.22.556-2.37-.226-3.07-1.789-.69-1.552-.52-2.918.71-3.479 1.2-.551 2.33.161 3.05 1.76.71 1.599.5 2.963-.69 3.508zm6.97-.984l2.47-1.133-2.27-5.07c-.49-1.103-.03-2.229 1.07-2.729.34-.157.84-.314 1.1-.345l-.99-2.205c-.24.048-.56.154-.81.269-1 .458-1.56 1.416-1.39 2.674l-.09.042-.7-1.563-2.4 1.099 4.01 8.961zm6.51-2.983l2.48-1.134-4.01-8.961-2.48 1.133 4.01 8.962zM1169.82 522c.74-.338 1.09-1.18.78-1.874-.31-.689-1.17-.978-1.91-.64-.73.335-1.08 1.178-.77 1.866.31.694 1.17.984 1.9.648zm11.87-4.044l-2.62 1.2 1.03 7.258-.1.042-4.72-5.563-2.62 1.198 7.13 7.532 2.79-1.277-.89-10.39zm8.95 6.915c2.2-1.011 3.21-2.772 2.81-4.594l-2.35.896c.05.798-.43 1.446-1.25 1.824-1.24.567-2.39.103-2.99-1.233l-.01-.006 6.08-2.783-.3-.682c-1.36-3.046-3.87-3.71-6.23-2.63-2.63 1.203-3.5 3.855-2.26 6.621 1.27 2.841 3.75 3.846 6.5 2.587zm-4.47-4.653c-.41-1.045 0-2.216 1.1-2.718 1.07-.493 2.16-.063 2.64 1.002l-3.74 1.716zm14.48-7.862c-.96-1.55-2.74-1.964-5-.932-2.28 1.046-3.31 2.797-2.53 4.521.59 1.345 1.83 1.828 3.73 1.38l1.68-.399c.85-.199 1.33-.075 1.54.369.23.536-.18 1.179-1.04 1.575-.88.405-1.64.294-2.12-.366l-2.38 1.243c1 1.609 2.93 2 5.29.917 2.32-1.059 3.44-3.002 2.66-4.772-.59-1.293-1.78-1.683-3.67-1.246l-1.76.413c-.91.2-1.35.055-1.54-.38-.24-.534.21-1.16.97-1.512.86-.393 1.59-.155 1.97.367l2.2-1.178zm11.41 2.67c1.44-.66 1.82-1.838 1.83-2.742l.1-.048.65 1.436 2.44-1.118-5.35-11.949-2.47 1.131 2.01 4.493-.08.034c-.65-.577-1.77-1.143-3.26-.459-1.96.897-2.93 3.184-1.55 6.264 1.34 2.999 3.65 3.889 5.68 2.958zm-.1-2.337c-1.21.556-2.36-.226-3.06-1.79-.69-1.552-.52-2.917.7-3.479 1.21-.551 2.34.162 3.05 1.76.72 1.599.5 2.963-.69 3.509zm11.12-2.672c2.21-1.011 3.21-2.772 2.82-4.594l-2.36.897c.06.797-.42 1.445-1.25 1.823-1.24.567-2.39.103-2.99-1.233v-.006l6.08-2.783-.31-.682c-1.36-3.046-3.87-3.71-6.23-2.63-2.63 1.203-3.49 3.855-2.25 6.621 1.27 2.841 3.74 3.846 6.49 2.587zm-4.47-4.653c-.41-1.045 0-2.216 1.1-2.718 1.08-.493 2.16-.063 2.65 1.002l-3.75 1.716zm13.98-10.71l-2.62 1.2 1.02 7.258-.09.043-4.73-5.564-2.61 1.198 7.13 7.533 2.79-1.278-.89-10.39zm8.94 6.915c2.21-1.011 3.21-2.771 2.82-4.594l-2.36.897c.06.797-.42 1.445-1.25 1.823-1.24.567-2.39.104-2.99-1.232v-.006l6.08-2.784-.31-.682c-1.36-3.046-3.87-3.71-6.23-2.63-2.63 1.203-3.49 3.855-2.25 6.621 1.27 2.841 3.74 3.846 6.49 2.587zm-4.47-4.653c-.4-1.045 0-2.215 1.1-2.718 1.08-.492 2.17-.063 2.65 1.002l-3.75 1.716zm7.05-11.137l-2.47 1.133 5.35 11.949 2.47-1.134-5.35-11.948zm11.27 9.451c2.7-1.24 3.56-3.873 2.32-6.632-1.24-2.777-3.76-3.861-6.46-2.621-2.71 1.24-3.57 3.867-2.33 6.644 1.24 2.76 3.76 3.849 6.47 2.609zm-.85-1.93c-1.25.572-2.41-.285-3.11-1.849-.7-1.563-.57-3.011.68-3.583 1.22-.562 2.38.301 3.08 1.864.7 1.564.57 3.006-.65 3.568zm8.1 2.449l2.47-1.133-2.14-4.796.07-.034c.68.589 1.8 1.08 3.24.42 2.04-.931 2.9-3.273 1.56-6.272-1.38-3.081-3.72-3.851-5.68-2.954-1.49.684-1.81 1.903-1.81 2.784l-.11.051-.68-1.505-2.44 1.117 5.52 12.322zm-1.09-8.951c-.72-1.598-.5-2.928.7-3.479 1.23-.561 2.36.209 3.05 1.761.7 1.563.53 2.952-.69 3.508-1.19.545-2.34-.191-3.06-1.79zm9.76.932l2.47-1.134-2.4-5.379c-.45-.992-.11-1.939.71-2.317.81-.372 1.61-.062 2.01.819l2.5 5.589 2.4-1.099-2.45-5.472c-.42-.928-.17-1.8.73-2.213.79-.362 1.61-.137 2.05.861l2.48 5.536 2.47-1.13-2.7-6.027c-.87-1.943-2.51-2.525-4.18-1.764-1.3.599-2.02 1.735-1.93 2.93l-.09.042c-.75-.908-1.96-1.149-3.18-.588-1.21.551-1.83 1.611-1.73 2.837l-.1.048-.71-1.581-2.36 1.08 4.01 8.962zm18.89-8.44c2.21-1.011 3.22-2.772 2.82-4.594l-2.36.897c.06.797-.42 1.445-1.25 1.823-1.23.567-2.39.103-2.99-1.233v-.006l6.08-2.783-.3-.682c-1.37-3.046-3.88-3.71-6.24-2.63-2.62 1.203-3.49 3.855-2.25 6.621 1.27 2.841 3.74 3.846 6.49 2.587zm-4.47-4.653c-.4-1.045.01-2.215 1.1-2.718 1.08-.493 2.17-.063 2.65 1.002l-3.75 1.716zm10.08-4.37c-.51-1.158-.12-2.148.88-2.606.99-.455 1.88-.076 2.37 1.024l2.35 5.262 2.48-1.133-2.56-5.706c-.93-2.089-2.73-2.814-4.59-1.962-1.32.607-1.99 1.699-1.92 2.927l-.11.048-.7-1.581-2.36 1.08 4.01 8.962 2.47-1.134-2.32-5.181zm10.59-9.4l-1.68.769-.96-2.147-2.48 1.134.96 2.147-1.22.559.84 1.867 1.22-.559 2.09 4.667c.77 1.762 2.35 2.086 4.11 1.188a5.245 5.245 0 001.24-.848l-1.22-1.672c-.11.08-.34.258-.58.364-.49.226-.92.197-1.23-.492l-1.94-4.341 1.68-.769-.83-1.867zM971.597 248.678l3.89.964-2.6 10.491 2.655.658 2.601-10.491 3.89.964.549-2.215-10.436-2.586-.549 2.215zm12.19 14.354c2.891.717 5.181-.816 5.908-3.751.732-2.953-.578-5.372-3.469-6.089-2.891-.716-5.18.811-5.912 3.764-.727 2.935.582 5.36 3.473 6.076zm.52-2.044c-1.334-.331-1.714-1.722-1.301-3.385.412-1.663 1.399-2.722 2.733-2.391 1.309.324 1.687 1.722 1.275 3.385-.413 1.662-1.398 2.715-2.707 2.391zm9.102 8.235c2.723.675 4.967-.086 5.571-2.524l2.38-9.623-2.62-.65-.396 1.6-.1-.024c-.161-.863-.701-2.005-2.296-2.4-2.091-.518-4.262.669-5.066 3.914-.786 3.17.567 5.073 2.714 5.605 1.52.377 2.559-.176 3.101-.878l.112.028-.432 1.743c-.324 1.309-1.288 1.611-2.436 1.326-1.166-.289-1.63-.944-1.704-1.575l-2.526-.277c-.055 1.58 1.129 3.099 3.698 3.735zm1.516-5.88c-1.297-.321-1.749-1.527-1.341-3.171.401-1.619 1.378-2.582 2.687-2.258 1.284.319 1.735 1.583 1.321 3.252-.417 1.681-1.395 2.492-2.667 2.177zm10.285 4.999c2.36.584 4.23-.17 5.04-1.846l-2.4-.767c-.45.66-1.23.869-2.11.651-1.32-.328-1.94-1.41-1.59-2.831v-.006l6.49 1.608.18-.726c.81-3.238-.76-5.325-3.28-5.949-2.8-.695-5.11.846-5.84 3.787-.75 3.021.58 5.352 3.51 6.079zm-.65-6.437c.33-1.072 1.37-1.736 2.54-1.445 1.15.284 1.74 1.3 1.46 2.437l-4-.992zm14.03-.559l-1.79-.444.57-2.283-2.65-.655-.56 2.283-1.3-.323-.5 1.985 1.31.323-1.23 4.964c-.48 1.864.56 3.104 2.5 3.498.69.145 1.21.128 1.5.107l.07-2.069c-.14-.008-.43-.015-.68-.077-.53-.13-.85-.42-.66-1.152l1.14-4.616 1.79.445.49-1.986zm3.39 5.106c.31-1.227 1.24-1.761 2.31-1.493 1.08.266 1.54 1.111 1.24 2.282l-1.38 5.597 2.64.655 1.5-6.068c.56-2.232-.42-3.911-2.4-4.403-1.45-.358-2.59.085-3.3 1.1l-.11-.028 1.2-4.858-2.56-.636-3.15 12.706 2.64.655 1.37-5.509zm10.99 8.771c2.36.584 4.23-.17 5.05-1.846l-2.41-.767c-.45.66-1.22.869-2.1.651-1.32-.328-1.95-1.41-1.59-2.831v-.006l6.49 1.608.18-.726c.8-3.238-.76-5.325-3.28-5.949-2.81-.695-5.12.846-5.85 3.787-.75 3.021.58 5.352 3.51 6.079zm-.65-6.437c.33-1.072 1.37-1.736 2.54-1.445 1.15.284 1.74 1.3 1.47 2.437l-4.01-.992zm6.61 7.715l2.64.655 1.34-5.392c.29-1.172 1.34-1.767 2.51-1.477.37.09.85.277 1.08.419l.58-2.345a3.995 3.995 0 00-.81-.299c-1.06-.265-2.09.139-2.73 1.231l-.1-.024.41-1.663-2.56-.635-2.36 9.53zm12.69 3.145l2.79.692 3.12-5.588.12.029.15 6.4 2.8.693 4.95-8.888-2.67-.662-3.03 6.006-.08-.02.01-6.753-2.62-.65-3.13 6.021-.08-.021.11-6.769-2.68-.663.24 10.173zm16.84 4.373c2.36.584 4.23-.17 5.04-1.846l-2.4-.767c-.45.659-1.22.869-2.11.65-1.32-.327-1.94-1.41-1.59-2.83l.01-.007 6.49 1.609.18-.726c.8-3.239-.77-5.325-3.28-5.95-2.81-.695-5.12.846-5.85 3.787-.75 3.022.58 5.352 3.51 6.08zm-.65-6.437c.33-1.072 1.37-1.737 2.54-1.446 1.15.285 1.74 1.3 1.46 2.437l-4-.991zm20.07 3.822c.2-1.814-.94-3.251-3.35-3.847-2.44-.605-4.32.126-4.77 1.964-.36 1.426.31 2.573 2.08 3.407l1.56.738c.79.373 1.1.771.99 1.252-.15.561-.86.812-1.79.583-.94-.234-1.47-.792-1.44-1.608l-2.63-.508c-.21 1.886 1.07 3.393 3.59 4.019 2.47.612 4.55-.209 5.02-2.087.34-1.379-.36-2.427-2.11-3.264l-1.64-.775c-.84-.412-1.09-.798-.97-1.255.13-.573.87-.785 1.69-.582.92.228 1.34.866 1.32 1.512l2.45.451zm4.01 2.376c.31-1.226 1.24-1.76 2.32-1.493 1.08.267 1.54 1.112 1.24 2.283l-1.39 5.596 2.65.655 1.5-6.067c.56-2.232-.42-3.911-2.4-4.403-1.45-.358-2.59.084-3.3 1.1l-.11-.028 1.2-4.858-2.57-.637-3.15 12.707 2.65.655 1.36-5.51zm9.38 8.363c1.41.349 2.47-.039 3.16-.811l.07.018-.33 1.322 2.51.621 1.59-6.428c.57-2.27-1.12-3.703-3.24-4.228-2.29-.566-4.06.153-4.86 1.8l2.4.804c.34-.588 1.02-.913 1.97-.678.9.223 1.3.803 1.1 1.585v.037c-.16.615-.83.534-2.52.285-1.93-.294-3.78-.081-4.31 2.047-.47 1.886.64 3.175 2.46 3.626zm1.21-1.637c-.82-.201-1.31-.724-1.13-1.45.19-.745.89-.958 1.86-.858.59.062 1.57.16 1.94.027l-.25 1.011c-.25.999-1.26 1.558-2.42 1.27zm5.17 6.821l2.64.655 1.27-5.1.08.02c.17.885.75 1.971 2.29 2.352 2.17.538 4.29-.76 5.08-3.949.81-3.276-.55-5.34-2.64-5.858-1.6-.395-2.6.365-3.14 1.053l-.12-.03.4-1.6-2.61-.646-3.25 13.103zm4.66-7.697c.42-1.7 1.41-2.607 2.69-2.289 1.31.324 1.72 1.632 1.31 3.282-.41 1.663-1.4 2.642-2.7 2.32-1.27-.315-1.73-1.613-1.3-3.313zm11.39 8.079c2.36.584 4.23-.17 5.04-1.846l-2.41-.767c-.44.66-1.22.869-2.1.651-1.32-.328-1.94-1.41-1.59-2.831v-.006l6.49 1.608.18-.726c.8-3.239-.76-5.325-3.28-5.949-2.8-.696-5.11.846-5.84 3.786-.75 3.022.57 5.352 3.51 6.08zm-.65-6.437c.32-1.072 1.36-1.736 2.54-1.446 1.14.285 1.74 1.301 1.46 2.437l-4-.991zm17.88.396l-1.79-.445.57-2.283-2.65-.655-.56 2.283-1.31-.323-.49 1.986 1.31.322-1.23 4.964c-.48 1.864.56 3.104 2.5 3.499.69.144 1.21.127 1.49.107l.08-2.07c-.14-.008-.43-.015-.68-.076-.53-.131-.85-.42-.67-1.152l1.15-4.616 1.79.444.49-1.985zm3.38 5.105c.32-1.227 1.24-1.761 2.32-1.493 1.08.266 1.54 1.111 1.24 2.283l-1.38 5.596 2.64.655 1.5-6.068c.56-2.232-.42-3.911-2.4-4.403-1.45-.358-2.59.085-3.3 1.1l-.11-.028 1.2-4.858-2.56-.636-3.15 12.706 2.64.655 1.36-5.509zm11 8.771c2.36.585 4.23-.17 5.04-1.845l-2.4-.768c-.45.66-1.22.869-2.1.651-1.33-.327-1.95-1.41-1.59-2.831v-.006l6.49 1.609.18-.726c.8-3.239-.76-5.326-3.28-5.95-2.81-.695-5.12.846-5.85 3.787-.75 3.021.58 5.352 3.51 6.079zm-.65-6.437c.33-1.072 1.37-1.736 2.54-1.445 1.15.284 1.74 1.3 1.46 2.437l-4-.992zm17.94.41l-1.89-.469.16-.639c.16-.645.51-.959 1.29-.767.32.078.62.227.82.347l.95-1.87c-.3-.181-.99-.522-1.8-.723-1.79-.445-3.38.236-3.89 2.308l-.17.689-1.35-.334-.49 1.986 1.35.333-1.87 7.545 2.64.655 1.87-7.545 1.89.469.49-1.985zm6.18 7.339c-.31 1.28-1.35 1.733-2.3 1.498-1-.248-1.47-1.109-1.2-2.233l1.39-5.596-2.64-.655-1.51 6.067c-.54 2.229.42 3.911 2.34 4.386 1.43.355 2.65-.128 3.35-1.138l.1.024-.43 1.731 2.54.629 2.36-9.53-2.64-.655-1.36 5.472zm10.99-3.084l-1.79-.444.56-2.284-2.64-.655-.56 2.283-1.31-.322-.49 1.985 1.3.323-1.23 4.963c-.47 1.865.57 3.104 2.51 3.499.69.144 1.2.128 1.49.107l.07-2.07c-.13-.007-.43-.014-.67-.076-.53-.131-.85-.42-.67-1.152l1.15-4.616 1.79.444.49-1.985zm6.29 7.366c-.31 1.28-1.36 1.733-2.3 1.497-1-.247-1.47-1.108-1.2-2.233l1.38-5.596-2.64-.655-1.5 6.068c-.55 2.229.42 3.91 2.33 4.386 1.44.355 2.65-.128 3.36-1.139l.1.025-.43 1.731 2.53.629 2.37-9.53-2.65-.655-1.35 5.472zm3.56 5.189l2.64.655 1.33-5.392c.3-1.172 1.35-1.767 2.52-1.477.36.09.85.277 1.08.419l.58-2.345a3.995 3.995 0 00-.81-.299c-1.06-.265-2.09.139-2.73 1.232l-.1-.025.41-1.663-2.56-.635-2.36 9.53zm10.81 2.877c2.35.584 4.23-.17 5.04-1.846l-2.41-.767c-.44.66-1.22.869-2.1.651-1.32-.328-1.94-1.41-1.59-2.831v-.006l6.49 1.608.18-.726c.8-3.239-.76-5.325-3.28-5.949-2.81-.696-5.12.846-5.85 3.786-.74 3.022.58 5.352 3.52 6.08zm-.65-6.437c.32-1.072 1.36-1.736 2.53-1.446 1.15.285 1.74 1.301 1.47 2.437l-4-.991zm18.56 10.877c2.89.717 5.18-.817 5.91-3.751.73-2.954-.58-5.372-3.47-6.089-2.89-.717-5.18.81-5.91 3.764-.73 2.934.58 5.359 3.47 6.076zm.52-2.044c-1.33-.331-1.71-1.722-1.3-3.385.41-1.663 1.4-2.722 2.73-2.392 1.31.325 1.69 1.722 1.28 3.385-.41 1.663-1.4 2.716-2.71 2.392zm13.23-4.861l-1.89-.469.16-.639c.16-.645.51-.959 1.29-.767.31.078.62.227.81.347l.96-1.87c-.3-.181-.99-.522-1.8-.723-1.8-.445-3.38.236-3.89 2.308l-.17.689-1.35-.334-.49 1.986 1.34.333-1.87 7.545 2.65.655 1.87-7.545 1.89.469.49-1.985zm2.96 10.849l2.69.666 1.02-4.12 2.26.56c2.92.724 5.05-.598 5.68-3.135.63-2.525-.6-4.72-3.49-5.435l-5.01-1.242-3.15 12.706zm4.24-5.606l1.05-4.238 1.82.449c1.55.384 2.09 1.414 1.77 2.68-.31 1.259-1.27 1.942-2.81 1.561l-1.83-.452zm10.94 9.565c2.89.717 5.18-.816 5.91-3.751.73-2.953-.58-5.372-3.47-6.089-2.89-.716-5.18.811-5.91 3.764-.73 2.935.58 5.36 3.47 6.076zm.52-2.044c-1.34-.331-1.71-1.722-1.3-3.385.41-1.663 1.4-2.722 2.73-2.391 1.31.324 1.69 1.722 1.28 3.384-.42 1.663-1.4 2.716-2.71 2.392zm11.53-8.652l-2.64-.656-3.15 12.707 2.64.655 3.15-12.706zm3.08 14.446c2.35.584 4.23-.17 5.04-1.846l-2.41-.767c-.44.659-1.22.869-2.1.65-1.32-.327-1.94-1.409-1.59-2.83v-.006l6.49 1.608.18-.726c.8-3.239-.76-5.325-3.28-5.95-2.8-.695-5.12.846-5.84 3.787-.75 3.022.57 5.352 3.51 6.08zm-.65-6.437c.32-1.072 1.36-1.736 2.53-1.446 1.15.285 1.74 1.3 1.47 2.437l-4-.991zm16.22 2.867c.2-1.814-.95-3.25-3.36-3.847-2.43-.604-4.32.127-4.77 1.965-.36 1.425.31 2.573 2.08 3.406l1.57.738c.79.374 1.09.771.99 1.252-.16.562-.87.813-1.8.584-.94-.234-1.47-.793-1.43-1.608l-2.64-.508c-.2 1.886 1.07 3.393 3.6 4.019 2.47.612 4.55-.209 5.02-2.088.33-1.379-.36-2.427-2.12-3.264l-1.64-.774c-.84-.413-1.09-.798-.97-1.256.14-.572.87-.784 1.69-.581.92.227 1.34.865 1.32 1.512l2.46.45zm7.43-1.042l-1.79-.445.56-2.283-2.64-.655-.57 2.283-1.3-.323-.49 1.986 1.3.323-1.23 4.963c-.47 1.865.57 3.104 2.51 3.499.68.144 1.2.128 1.49.107l.07-2.07c-.13-.007-.43-.015-.68-.076-.52-.131-.84-.42-.66-1.152l1.14-4.616 1.8.444.49-1.985zm1.84 10.762c1.41.349 2.47-.039 3.16-.811l.07.019-.33 1.321 2.51.621 1.59-6.427c.57-2.271-1.12-3.703-3.24-4.229-2.29-.566-4.06.154-4.85 1.8l2.39.805c.34-.589 1.02-.914 1.97-.679.9.223 1.3.804 1.11 1.586l-.01.037c-.16.614-.83.533-2.52.284-1.93-.294-3.78-.081-4.31 2.047-.47 1.886.64 3.176 2.46 3.626zm1.21-1.636c-.81-.202-1.3-.725-1.12-1.451.18-.744.89-.958 1.85-.858.6.063 1.57.16 1.94.027l-.25 1.012c-.25.999-1.26 1.557-2.42 1.27zm6.06 3.247l2.64.655 1.34-5.392c.29-1.172 1.35-1.767 2.51-1.477.37.09.85.277 1.08.419l.58-2.345a4.133 4.133 0 00-.8-.299c-1.07-.265-2.1.139-2.74 1.232l-.1-.025.41-1.663-2.56-.635-2.36 9.53z"/>
  <path stroke="#1C1C1C" stroke-width="3" d="M730.77 588.564h53.876"/>
  <path fill="#333" d="M733.017 570l.864-2.653h4.199l.863 2.653h2.637l-4.012-11.636h-3.17L730.381 570h2.636zm1.489-4.574l1.432-4.403h.09l1.432 4.403h-2.954zm8.298 4.574h2.46v-3.773h2.069c2.676 0 4.232-1.596 4.232-3.92 0-2.313-1.528-3.943-4.17-3.943h-4.591V570zm2.46-5.744v-3.881h1.659c1.421 0 2.108.773 2.108 1.932 0 1.153-.687 1.949-2.096 1.949h-1.671zm7.723 5.744h2.461v-3.773h2.068c2.676 0 4.233-1.596 4.233-3.92 0-2.313-1.529-3.943-4.171-3.943h-4.591V570zm2.461-5.744v-3.881h1.659c1.42 0 2.108.773 2.108 1.932 0 1.153-.688 1.949-2.097 1.949h-1.67zM740.773 610c-.432-2.386-2.341-3.795-4.682-3.795-2.977 0-5.136 2.295-5.136 5.977 0 3.682 2.159 5.977 5.136 5.977 2.341 0 4.25-1.409 4.682-3.795h-1.409c-.341 1.613-1.728 2.477-3.273 2.477-2.114 0-3.773-1.636-3.773-4.659 0-3.023 1.659-4.659 3.773-4.659 1.545 0 2.932.863 3.273 2.477h1.409zm5.464 8.182c2.364 0 3.955-1.796 3.955-4.5 0-2.727-1.591-4.523-3.955-4.523-2.363 0-3.954 1.796-3.954 4.523 0 2.704 1.591 4.5 3.954 4.5zm0-1.205c-1.795 0-2.613-1.545-2.613-3.295s.818-3.318 2.613-3.318c1.796 0 2.614 1.568 2.614 3.318s-.818 3.295-2.614 3.295zm7.167-4.227c0-1.523.943-2.386 2.227-2.386 1.244 0 2 .812 2 2.181V618h1.341v-5.545c0-2.228-1.188-3.296-2.955-3.296-1.318 0-2.136.591-2.545 1.477h-.114v-1.363h-1.295V618h1.341v-5.25zm9.183 0c0-1.523.943-2.386 2.227-2.386 1.245 0 2 .812 2 2.181V618h1.341v-5.545c0-2.228-1.187-3.296-2.954-3.296-1.318 0-2.137.591-2.546 1.477h-.113v-1.363h-1.296V618h1.341v-5.25zm11.502 5.432c1.772 0 3.068-.887 3.477-2.205l-1.296-.363c-.34.909-1.13 1.363-2.181 1.363-1.574 0-2.659-1.017-2.722-2.886h6.335v-.568c0-3.25-1.932-4.364-3.75-4.364-2.363 0-3.932 1.864-3.932 4.546 0 2.681 1.546 4.477 4.069 4.477zm-2.722-5.25c.091-1.358 1.051-2.568 2.585-2.568 1.455 0 2.387 1.091 2.387 2.568h-4.972zm11.744 5.25c1.932 0 3.205-1.182 3.432-2.727h-1.341c-.25.954-1.045 1.522-2.091 1.522-1.59 0-2.613-1.318-2.613-3.341 0-1.977 1.045-3.272 2.613-3.272 1.182 0 1.887.727 2.091 1.522h1.341c-.227-1.636-1.613-2.727-3.454-2.727-2.364 0-3.932 1.864-3.932 4.523 0 2.613 1.5 4.5 3.954 4.5zm9.012-8.909h-1.864v-2.091h-1.341v2.091H787.6v1.136h1.318v5.455c0 1.522 1.228 2.25 2.364 2.25.5 0 .818-.091 1-.159l-.273-1.205c-.113.023-.295.068-.591.068-.59 0-1.159-.182-1.159-1.318v-5.091h1.864v-1.136zm1.841 8.727h1.341v-8.727h-1.341V618zm.682-10.182c.523 0 .954-.409.954-.909s-.431-.909-.954-.909c-.523 0-.955.409-.955.909s.432.909.955.909zm4.28 4.932c0-1.523.943-2.386 2.227-2.386 1.244 0 2 .812 2 2.181V618h1.341v-5.545c0-2.228-1.188-3.296-2.955-3.296-1.318 0-2.136.591-2.545 1.477h-.114v-1.363h-1.295V618h1.341v-5.25zm11.365 8.705c2.091 0 3.773-.955 3.773-3.205v-8.977h-1.296v1.386h-.136c-.296-.454-.841-1.5-2.546-1.5-2.204 0-3.727 1.75-3.727 4.432 0 2.727 1.591 4.273 3.705 4.273 1.704 0 2.25-1 2.545-1.478h.114v1.773c0 1.455-1.023 2.114-2.432 2.114-1.585 0-2.142-.835-2.5-1.318l-1.068.75c.545.914 1.619 1.75 3.568 1.75zm-.045-4.796c-1.682 0-2.546-1.273-2.546-3.091 0-1.773.841-3.204 2.546-3.204 1.636 0 2.5 1.318 2.5 3.204 0 1.932-.887 3.091-2.5 3.091zm13.716 1.523c1.682 0 2.25-1.046 2.545-1.523h.159V618h1.296v-11.636h-1.341v4.295h-.114c-.295-.454-.818-1.5-2.523-1.5-2.204 0-3.727 1.75-3.727 4.5 0 2.773 1.523 4.523 3.705 4.523zm.182-1.205c-1.682 0-2.546-1.477-2.546-3.341 0-1.841.841-3.272 2.546-3.272 1.636 0 2.5 1.318 2.5 3.272 0 1.978-.887 3.341-2.5 3.341zm9.943 1.205c1.773 0 3.068-.887 3.477-2.205l-1.295-.363c-.341.909-1.131 1.363-2.182 1.363-1.574 0-2.659-1.017-2.722-2.886h6.336v-.568c0-3.25-1.932-4.364-3.75-4.364-2.364 0-3.932 1.864-3.932 4.546 0 2.681 1.545 4.477 4.068 4.477zm-2.722-5.25c.091-1.358 1.051-2.568 2.586-2.568 1.454 0 2.386 1.091 2.386 2.568h-4.972zm15.07-3.659h-1.455l-2.409 6.954h-.091l-2.409-6.954h-1.454l3.227 8.727h1.364l3.227-8.727zm4.94 8.909c1.773 0 3.069-.887 3.478-2.205l-1.296-.363c-.341.909-1.13 1.363-2.182 1.363-1.573 0-2.659-1.017-2.721-2.886h6.335v-.568c0-3.25-1.932-4.364-3.75-4.364-2.364 0-3.932 1.864-3.932 4.546 0 2.681 1.546 4.477 4.068 4.477zm-2.721-5.25c.091-1.358 1.051-2.568 2.585-2.568 1.455 0 2.386 1.091 2.386 2.568h-4.971zm9.54-6.568h-1.341V618h1.341v-11.636zm5.825 11.818c2.364 0 3.955-1.796 3.955-4.5 0-2.727-1.591-4.523-3.955-4.523-2.363 0-3.954 1.796-3.954 4.523 0 2.704 1.591 4.5 3.954 4.5zm0-1.205c-1.795 0-2.613-1.545-2.613-3.295s.818-3.318 2.613-3.318c1.796 0 2.614 1.568 2.614 3.318s-.818 3.295-2.614 3.295zm5.826 4.296h1.341v-4.614h.113c.296.477.864 1.523 2.546 1.523 2.181 0 3.704-1.75 3.704-4.523 0-2.75-1.523-4.5-3.727-4.5-1.705 0-2.227 1.046-2.523 1.5h-.159v-1.386h-1.295v12zm1.318-7.637c0-1.954.863-3.272 2.5-3.272 1.704 0 2.545 1.431 2.545 3.272 0 1.864-.863 3.341-2.545 3.341-1.614 0-2.5-1.363-2.5-3.341zm8.256 4.364h1.341v-5.455c0-1.278.931-2.181 1.977-2.181 1.017 0 1.727.664 1.727 1.659V618h1.364v-5.682c0-1.125.704-1.954 1.932-1.954.954 0 1.772.505 1.772 1.795V618h1.341v-5.841c0-2.051-1.102-3-2.659-3-1.25 0-2.165.574-2.614 1.477h-.09c-.432-.931-1.194-1.477-2.341-1.477-1.137 0-1.978.546-2.341 1.477h-.114v-1.363h-1.295V618zm17.389.182c1.773 0 3.068-.887 3.477-2.205l-1.295-.363c-.341.909-1.131 1.363-2.182 1.363-1.574 0-2.659-1.017-2.722-2.886h6.336v-.568c0-3.25-1.932-4.364-3.75-4.364-2.364 0-3.932 1.864-3.932 4.546 0 2.681 1.545 4.477 4.068 4.477zm-2.722-5.25c.091-1.358 1.052-2.568 2.586-2.568 1.454 0 2.386 1.091 2.386 2.568h-4.972zm9.54-.182c0-1.523.943-2.386 2.228-2.386 1.244 0 2 .812 2 2.181V618h1.34v-5.545c0-2.228-1.187-3.296-2.954-3.296-1.318 0-2.136.591-2.546 1.477h-.113v-1.363h-1.296V618h1.341v-5.25zm11.638-3.477h-1.863v-2.091h-1.341v2.091h-1.318v1.136h1.318v5.455c0 1.522 1.227 2.25 2.363 2.25.5 0 .819-.091 1-.159l-.272-1.205c-.114.023-.296.068-.591.068-.591 0-1.159-.182-1.159-1.318v-5.091h1.863v-1.136zm3.841 7.136h-1.454l-.068.636c-.165 1.54-.489 3.074-.637 3.796h1.023c.273-.773.852-2.523 1.045-3.818l.091-.614zM731.227 642h1.341v-8.727h-1.341V642zm.682-10.182c.523 0 .955-.409.955-.909s-.432-.909-.955-.909c-.523 0-.954.409-.954.909s.431.909.954.909zm4.28 4.932c0-1.523.943-2.386 2.227-2.386 1.245 0 2 .812 2 2.181V642h1.341v-5.545c0-2.228-1.187-3.296-2.954-3.296-1.318 0-2.137.591-2.546 1.477h-.113v-1.363h-1.296V642h1.341v-5.25zm14.024-1.523c-.42-1.238-1.363-2.068-3.091-2.068-1.84 0-3.204 1.046-3.204 2.523 0 1.204.716 2.011 2.318 2.386l1.455.341c.88.205 1.295.625 1.295 1.227 0 .75-.795 1.364-2.045 1.364-1.097 0-1.784-.472-2.023-1.409l-1.273.318c.313 1.483 1.534 2.273 3.318 2.273 2.029 0 3.409-1.108 3.409-2.614 0-1.216-.761-1.983-2.318-2.363l-1.295-.319c-1.034-.255-1.5-.602-1.5-1.272 0-.75.795-1.296 1.863-1.296 1.171 0 1.654.648 1.887 1.25l1.204-.341zm2.002 6.773h1.341v-8.727h-1.341V642zm.682-10.182c.522 0 .954-.409.954-.909s-.432-.909-.954-.909c-.523 0-.955.409-.955.909s.432.909.955.909zm6.461 13.637c2.091 0 3.773-.955 3.773-3.205v-8.977h-1.295v1.386h-.137c-.295-.454-.841-1.5-2.545-1.5-2.205 0-3.727 1.75-3.727 4.432 0 2.727 1.591 4.273 3.704 4.273 1.705 0 2.25-1 2.546-1.478h.113v1.773c0 1.455-1.022 2.114-2.432 2.114-1.585 0-2.142-.835-2.5-1.318l-1.068.75c.546.914 1.62 1.75 3.568 1.75zm-.045-4.796c-1.682 0-2.545-1.273-2.545-3.091 0-1.773.84-3.204 2.545-3.204 1.636 0 2.5 1.318 2.5 3.204 0 1.932-.886 3.091-2.5 3.091zm7.438-3.909c0-1.523.971-2.386 2.295-2.386 1.261 0 2.023.795 2.023 2.181V642h1.341v-5.545c0-2.245-1.193-3.296-2.978-3.296-1.375 0-2.159.574-2.568 1.477h-.113v-4.272h-1.341V642h1.341v-5.25zm11.731-3.477h-1.863v-2.091h-1.341v2.091h-1.318v1.136h1.318v5.455c0 1.522 1.227 2.25 2.363 2.25.5 0 .819-.091 1-.159l-.272-1.205c-.114.023-.296.068-.591.068-.591 0-1.159-.182-1.159-1.318v-5.091h1.863v-1.136zm7.867 1.954c-.42-1.238-1.364-2.068-3.091-2.068-1.841 0-3.204 1.046-3.204 2.523 0 1.204.715 2.011 2.318 2.386l1.454.341c.881.205 1.296.625 1.296 1.227 0 .75-.796 1.364-2.046 1.364-1.096 0-1.784-.472-2.022-1.409l-1.273.318c.312 1.483 1.534 2.273 3.318 2.273 2.028 0 3.409-1.108 3.409-2.614 0-1.216-.761-1.983-2.318-2.363l-1.296-.319c-1.034-.255-1.5-.602-1.5-1.272 0-.75.796-1.296 1.864-1.296 1.171 0 1.653.648 1.886 1.25l1.205-.341zm8.894 6.978c1.522 0 2.318-.819 2.591-1.387h.068V642h1.341v-5.75c0-2.773-2.114-3.091-3.228-3.091-1.318 0-2.818.455-3.5 2.046l1.273.454c.296-.636.994-1.318 2.273-1.318 1.233 0 1.841.653 1.841 1.773v.045c0 .648-.659.591-2.25.796-1.62.21-3.387.568-3.387 2.568 0 1.704 1.319 2.682 2.978 2.682zm.204-1.205c-1.068 0-1.841-.477-1.841-1.409 0-1.023.932-1.341 1.978-1.477.568-.069 2.091-.228 2.318-.5v1.227c0 1.091-.864 2.159-2.455 2.159zm7.408-4.25c0-1.523.943-2.386 2.227-2.386 1.245 0 2 .812 2 2.181V642h1.341v-5.545c0-2.228-1.187-3.296-2.954-3.296-1.318 0-2.137.591-2.546 1.477h-.113v-1.363h-1.296V642h1.341v-5.25zm11.138 5.432c1.682 0 2.25-1.046 2.545-1.523h.16V642h1.295v-11.636h-1.341v4.295h-.114c-.295-.454-.818-1.5-2.522-1.5-2.205 0-3.728 1.75-3.728 4.5 0 2.773 1.523 4.523 3.705 4.523zm.182-1.205c-1.682 0-2.546-1.477-2.546-3.341 0-1.841.841-3.272 2.546-3.272 1.636 0 2.5 1.318 2.5 3.272 0 1.978-.887 3.341-2.5 3.341zm10.79 1.023h1.409v-4.25h2.545c2.711 0 3.932-1.648 3.932-3.705 0-2.056-1.221-3.681-3.954-3.681h-3.932V642zm1.409-5.5v-4.886h2.477c1.892 0 2.614 1.034 2.614 2.431 0 1.398-.722 2.455-2.591 2.455h-2.5zm11.841 5.682c2.364 0 3.955-1.796 3.955-4.5 0-2.727-1.591-4.523-3.955-4.523s-3.955 1.796-3.955 4.523c0 2.704 1.591 4.5 3.955 4.5zm0-1.205c-1.795 0-2.614-1.545-2.614-3.295s.819-3.318 2.614-3.318 2.614 1.568 2.614 3.318-.819 3.295-2.614 3.295zm7.166-10.613h-1.341V642h1.341v-11.636zm5.939 11.818c1.773 0 3.069-.887 3.478-2.205l-1.296-.363c-.341.909-1.131 1.363-2.182 1.363-1.574 0-2.659-1.017-2.721-2.886h6.335v-.568c0-3.25-1.932-4.364-3.75-4.364-2.364 0-3.932 1.864-3.932 4.546 0 2.681 1.546 4.477 4.068 4.477zm-2.721-5.25c.091-1.358 1.051-2.568 2.585-2.568 1.455 0 2.386 1.091 2.386 2.568h-4.971zm14.381-1.705c-.421-1.238-1.364-2.068-3.091-2.068-1.841 0-3.205 1.046-3.205 2.523 0 1.204.716 2.011 2.318 2.386l1.455.341c.881.205 1.295.625 1.295 1.227 0 .75-.795 1.364-2.045 1.364-1.097 0-1.784-.472-2.023-1.409l-1.273.318c.313 1.483 1.535 2.273 3.319 2.273 2.028 0 3.409-1.108 3.409-2.614 0-1.216-.762-1.983-2.318-2.363l-1.296-.319c-1.034-.255-1.5-.602-1.5-1.272 0-.75.796-1.296 1.864-1.296 1.17 0 1.653.648 1.886 1.25l1.205-.341zm5.797-1.954h-1.864v-2.091h-1.341v2.091h-1.318v1.136h1.318v5.455c0 1.522 1.227 2.25 2.364 2.25.5 0 .818-.091 1-.159l-.273-1.205c-.114.023-.295.068-.591.068-.591 0-1.159-.182-1.159-1.318v-5.091h1.864v-1.136zm4.409 8.932c1.523 0 2.318-.819 2.591-1.387h.068V642h1.341v-5.75c0-2.773-2.114-3.091-3.227-3.091-1.319 0-2.819.455-3.5 2.046l1.272.454c.296-.636.995-1.318 2.273-1.318 1.233 0 1.841.653 1.841 1.773v.045c0 .648-.659.591-2.25.796-1.619.21-3.386.568-3.386 2.568 0 1.704 1.318 2.682 2.977 2.682zm.204-1.205c-1.068 0-1.841-.477-1.841-1.409 0-1.023.932-1.341 1.978-1.477.568-.069 2.091-.228 2.318-.5v1.227c0 1.091-.864 2.159-2.455 2.159zm6.067 1h1.341v-5.523c0-1.182.932-2.045 2.205-2.045.358 0 .727.068.818.091v-1.364a13.282 13.282 0 00-.705-.023c-1.045 0-1.954.591-2.272 1.455h-.091v-1.318h-1.296V642z"/>
  <path stroke="#1C1C1C" stroke-width="3" d="M795.18 148.564h82.563"/>
  <path fill="#333" d="M805.278 122.438c-.323-2.688-2.358-4.233-5.051-4.233-3.074 0-5.42 2.17-5.42 5.977 0 3.795 2.307 5.977 5.42 5.977 2.983 0 4.784-1.983 5.051-4.125l-2.488-.011c-.233 1.244-1.21 1.96-2.523 1.96-1.767 0-2.966-1.313-2.966-3.801 0-2.421 1.182-3.801 2.983-3.801 1.347 0 2.318.778 2.506 2.057h2.488zm3.376 7.562l.863-2.653h4.199l.864 2.653h2.636l-4.011-11.636h-3.171L806.017 130h2.637zm1.488-4.574l1.432-4.403h.091l1.432 4.403h-2.955zm8.299 4.574h2.46v-4.125h1.795l2.205 4.125h2.716l-2.472-4.523c1.324-.568 2.057-1.721 2.057-3.312 0-2.313-1.528-3.801-4.17-3.801h-4.591V130zm2.46-6.102v-3.523h1.659c1.42 0 2.108.631 2.108 1.79 0 1.153-.688 1.733-2.097 1.733h-1.67zm14.516-9.284h-2.296v19.136h2.296v-19.136zm6.21 15.386h2.46v-3.773h2.069c2.676 0 4.233-1.596 4.233-3.92 0-2.313-1.529-3.943-4.171-3.943h-4.591V130zm2.46-5.744v-3.881h1.66c1.42 0 2.108.773 2.108 1.932 0 1.153-.688 1.949-2.097 1.949h-1.671zm11.481 5.914c2.647 0 4.295-1.812 4.295-4.5 0-2.704-1.648-4.511-4.295-4.511-2.648 0-4.296 1.807-4.296 4.511 0 2.688 1.648 4.5 4.296 4.5zm.011-1.875c-1.222 0-1.847-1.119-1.847-2.642 0-1.522.625-2.647 1.847-2.647 1.199 0 1.824 1.125 1.824 2.647 0 1.523-.625 2.642-1.824 2.642zm8.102-9.931h-2.42V130h2.42v-11.636zm5.741 11.806c2.159 0 3.613-1.051 3.954-2.67l-2.238-.148c-.245.665-.87 1.012-1.677 1.012-1.21 0-1.977-.802-1.977-2.103v-.005h5.943v-.665c0-2.966-1.795-4.432-4.102-4.432-2.568 0-4.233 1.824-4.233 4.517 0 2.767 1.642 4.494 4.33 4.494zm-1.938-5.414c.051-.995.807-1.79 1.881-1.79 1.051 0 1.778.75 1.784 1.79h-3.665zm14.608-.995c-.216-1.608-1.511-2.602-3.716-2.602-2.233 0-3.704 1.034-3.699 2.716-.005 1.307.819 2.153 2.523 2.494l1.512.301c.761.154 1.108.432 1.119.87-.011.517-.574.886-1.421.886-.863 0-1.437-.369-1.585-1.079l-2.38.125c.227 1.67 1.647 2.698 3.96 2.698 2.261 0 3.88-1.153 3.886-2.875-.006-1.261-.829-2.017-2.523-2.363l-1.579-.318c-.813-.176-1.114-.455-1.108-.875-.006-.523.585-.864 1.335-.864.841 0 1.341.46 1.46 1.023l2.216-.137zm6.189-2.488h-1.642v-2.091h-2.42v2.091h-1.193v1.818h1.193v4.545c-.012 1.711 1.153 2.557 2.909 2.483a4.66 4.66 0 001.312-.227l-.38-1.801c-.12.023-.375.079-.603.079-.482 0-.818-.181-.818-.852v-4.227h1.642v-1.818zm3.89 8.892c1.289 0 2.125-.563 2.551-1.375h.068V130h2.295v-5.886c0-2.08-1.761-2.955-3.704-2.955-2.091 0-3.466 1-3.801 2.591l2.238.182c.165-.58.682-1.006 1.552-1.006.823 0 1.295.415 1.295 1.131v.034c0 .562-.597.636-2.114.784-1.727.159-3.278.739-3.278 2.687 0 1.728 1.233 2.603 2.898 2.603zm.693-1.671c-.744 0-1.279-.346-1.279-1.011 0-.682.563-1.017 1.415-1.136.529-.074 1.392-.199 1.682-.392v.926c0 .914-.756 1.613-1.818 1.613zm5.923 1.506h2.421v-4.938c0-1.073.784-1.812 1.852-1.812.335 0 .795.057 1.023.131v-2.148a3.644 3.644 0 00-.762-.085c-.977 0-1.778.568-2.096 1.647h-.091v-1.522h-2.347V130zm-95.742 36.364v7.591c0 1.704-1.17 2.931-3.113 2.931s-3.114-1.227-3.114-2.931v-7.591h-1.409v7.704c0 2.387 1.784 4.137 4.523 4.137 2.738 0 4.523-1.75 4.523-4.137v-7.704h-1.41zm10.047 4.863c-.42-1.238-1.363-2.068-3.09-2.068-1.841 0-3.205 1.046-3.205 2.523 0 1.204.716 2.011 2.318 2.386l1.455.341c.88.205 1.295.625 1.295 1.227 0 .75-.795 1.364-2.045 1.364-1.097 0-1.784-.472-2.023-1.409l-1.273.318c.313 1.483 1.534 2.273 3.318 2.273 2.029 0 3.41-1.108 3.41-2.614 0-1.216-.762-1.983-2.319-2.363l-1.295-.319c-1.034-.255-1.5-.602-1.5-1.272 0-.75.795-1.296 1.864-1.296 1.17 0 1.653.648 1.886 1.25l1.204-.341zm5.661 6.955c1.773 0 3.068-.887 3.477-2.205l-1.295-.363c-.341.909-1.131 1.363-2.182 1.363-1.574 0-2.659-1.017-2.721-2.886h6.335v-.568c0-3.25-1.932-4.364-3.75-4.364-2.364 0-3.932 1.864-3.932 4.546 0 2.681 1.545 4.477 4.068 4.477zm-2.721-5.25c.09-1.358 1.051-2.568 2.585-2.568 1.454 0 2.386 1.091 2.386 2.568h-4.971zm8.199 5.068h1.34v-5.523c0-1.182.932-2.045 2.205-2.045.358 0 .727.068.818.091v-1.364a13.242 13.242 0 00-.704-.023c-1.046 0-1.955.591-2.273 1.455h-.091v-1.318h-1.295V178zm10.101 0h1.341v-8.727h-1.341V178zm.681-10.182c.523 0 .955-.409.955-.909s-.432-.909-.955-.909c-.522 0-.954.409-.954.909s.432.909.954.909zm4.28 4.932c0-1.523.944-2.386 2.228-2.386 1.244 0 2 .812 2 2.181V178h1.341v-5.545c0-2.228-1.188-3.296-2.955-3.296-1.318 0-2.136.591-2.545 1.477h-.114v-1.363h-1.295V178h1.34v-5.25zm14.025-1.523c-.421-1.238-1.364-2.068-3.091-2.068-1.841 0-3.205 1.046-3.205 2.523 0 1.204.716 2.011 2.318 2.386l1.455.341c.881.205 1.295.625 1.295 1.227 0 .75-.795 1.364-2.045 1.364-1.097 0-1.784-.472-2.023-1.409l-1.272.318c.312 1.483 1.534 2.273 3.318 2.273 2.028 0 3.409-1.108 3.409-2.614 0-1.216-.762-1.983-2.318-2.363l-1.296-.319c-1.034-.255-1.5-.602-1.5-1.272 0-.75.796-1.296 1.864-1.296 1.17 0 1.653.648 1.886 1.25l1.205-.341zm2.001 6.773h1.341v-8.727h-1.341V178zm.682-10.182c.523 0 .955-.409.955-.909s-.432-.909-.955-.909c-.523 0-.954.409-.954.909s.431.909.954.909zm6.462 13.637c2.091 0 3.773-.955 3.773-3.205v-8.977h-1.296v1.386h-.136c-.296-.454-.841-1.5-2.546-1.5-2.204 0-3.727 1.75-3.727 4.432 0 2.727 1.591 4.273 3.705 4.273 1.704 0 2.25-1 2.545-1.478h.114v1.773c0 1.455-1.023 2.114-2.432 2.114-1.585 0-2.142-.835-2.5-1.318l-1.068.75c.545.914 1.619 1.75 3.568 1.75zm-.046-4.796c-1.681 0-2.545-1.273-2.545-3.091 0-1.773.841-3.204 2.545-3.204 1.637 0 2.5 1.318 2.5 3.204 0 1.932-.886 3.091-2.5 3.091zm7.438-3.909c0-1.523.972-2.386 2.296-2.386 1.261 0 2.022.795 2.022 2.181V178h1.341v-5.545c0-2.245-1.193-3.296-2.977-3.296-1.375 0-2.159.574-2.568 1.477h-.114v-4.272h-1.341V178h1.341v-5.25zm11.732-3.477h-1.864v-2.091h-1.341v2.091h-1.318v1.136h1.318v5.455c0 1.522 1.227 2.25 2.364 2.25.5 0 .818-.091 1-.159l-.273-1.205c-.114.023-.295.068-.591.068-.591 0-1.159-.182-1.159-1.318v-5.091h1.864v-1.136zm7.866 1.954c-.42-1.238-1.363-2.068-3.091-2.068-1.84 0-3.204 1.046-3.204 2.523 0 1.204.716 2.011 2.318 2.386l1.455.341c.88.205 1.295.625 1.295 1.227 0 .75-.795 1.364-2.045 1.364-1.097 0-1.784-.472-2.023-1.409l-1.273.318c.313 1.483 1.534 2.273 3.318 2.273 2.029 0 3.409-1.108 3.409-2.614 0-1.216-.761-1.983-2.318-2.363l-1.295-.319c-1.034-.255-1.5-.602-1.5-1.272 0-.75.795-1.296 1.863-1.296 1.171 0 1.654.648 1.887 1.25l1.204-.341z"/>
  <path stroke="#1C1C1C" stroke-width="3" d="M1452.18 368.564h82.56"/>
  <path fill="#333" d="M1452.01 350h2.46v-4.807h4.73v-2.028h-4.73v-2.773h5.25v-2.028h-7.71V350zm16.37-11.636v7.346c0 1.33-.93 2.29-2.36 2.29-1.43 0-2.37-.96-2.37-2.29v-7.346h-2.46v7.556c0 2.546 1.93 4.245 4.83 4.245 2.89 0 4.82-1.699 4.82-4.245v-7.556h-2.46zm3.87 2.028h3.56V350h2.43v-9.608h3.56v-2.028h-9.55v2.028zm18.14-2.028v7.346c0 1.33-.93 2.29-2.36 2.29-1.43 0-2.37-.96-2.37-2.29v-7.346h-2.46v7.556c0 2.546 1.92 4.245 4.83 4.245 2.89 0 4.82-1.699 4.82-4.245v-7.556h-2.46zM1494.7 350h2.46v-4.125h1.79l2.21 4.125h2.71l-2.47-4.523c1.33-.568 2.06-1.721 2.06-3.312 0-2.313-1.53-3.801-4.17-3.801h-4.59V350zm2.46-6.102v-3.523h1.66c1.42 0 2.11.631 2.11 1.79 0 1.153-.69 1.733-2.1 1.733h-1.67zm7.86 6.102h7.87v-2.028h-5.41v-2.779h4.98v-2.028h-4.98v-2.773h5.38v-2.028h-7.84V350zm-46.25 39.273h1.37c-.07-1.756-1.69-3.068-3.94-3.068-2.22 0-3.97 1.295-3.97 3.25 0 1.568 1.13 2.5 2.95 3.022l1.43.409c1.23.341 2.32.773 2.32 1.932 0 1.273-1.23 2.114-2.84 2.114-1.39 0-2.61-.614-2.73-1.932h-1.45c.14 1.909 1.68 3.205 4.18 3.205 2.68 0 4.21-1.478 4.21-3.364 0-2.182-2.07-2.886-3.28-3.205l-1.18-.318c-.86-.227-2.25-.682-2.25-1.932 0-1.113 1.02-1.931 2.57-1.931 1.41 0 2.48.67 2.61 1.818zm7.28 0h-1.86v-2.091h-1.34v2.091h-1.32v1.136h1.32v5.455c0 1.522 1.22 2.25 2.36 2.25.5 0 .82-.091 1-.159l-.27-1.205c-.12.023-.3.068-.59.068-.6 0-1.16-.182-1.16-1.318v-5.091h1.86v-1.136zm1.84 8.727h1.34v-5.523c0-1.182.93-2.045 2.21-2.045.35 0 .72.068.81.091v-1.364c-.15-.011-.5-.023-.7-.023-1.05 0-1.95.591-2.27 1.455h-.09v-1.318h-1.3V398zm9.06.182c2.36 0 3.95-1.796 3.95-4.5 0-2.727-1.59-4.523-3.95-4.523-2.37 0-3.96 1.796-3.96 4.523 0 2.704 1.59 4.5 3.96 4.5zm0-1.205c-1.8 0-2.62-1.545-2.62-3.295s.82-3.318 2.62-3.318c1.79 0 2.61 1.568 2.61 3.318s-.82 3.295-2.61 3.295zm7.16-4.227c0-1.523.95-2.386 2.23-2.386 1.25 0 2 .812 2 2.181V398h1.34v-5.545c0-2.228-1.19-3.296-2.95-3.296-1.32 0-2.14.591-2.55 1.477h-.11v-1.363h-1.3V398h1.34v-5.25zm11.37 8.705c2.09 0 3.77-.955 3.77-3.205v-8.977h-1.29v1.386h-.14c-.3-.454-.84-1.5-2.55-1.5-2.2 0-3.72 1.75-3.72 4.432 0 2.727 1.59 4.273 3.7 4.273 1.71 0 2.25-1 2.55-1.478h.11v1.773c0 1.455-1.02 2.114-2.43 2.114-1.59 0-2.14-.835-2.5-1.318l-1.07.75c.55.914 1.62 1.75 3.57 1.75zm-.05-4.796c-1.68 0-2.54-1.273-2.54-3.091 0-1.773.84-3.204 2.54-3.204 1.64 0 2.5 1.318 2.5 3.204 0 1.932-.88 3.091-2.5 3.091zm13.97 1.523c1.93 0 3.2-1.182 3.43-2.727h-1.34c-.25.954-1.04 1.522-2.09 1.522-1.59 0-2.61-1.318-2.61-3.341 0-1.977 1.04-3.272 2.61-3.272 1.18 0 1.89.727 2.09 1.522h1.34c-.23-1.636-1.61-2.727-3.45-2.727-2.37 0-3.93 1.864-3.93 4.523 0 2.613 1.5 4.5 3.95 4.5zm10.72-3.75c0 1.636-1.25 2.386-2.25 2.386-1.12 0-1.91-.818-1.91-2.091v-5.454h-1.34v5.545c0 2.227 1.18 3.296 2.81 3.296 1.32 0 2.19-.705 2.6-1.591h.09V398h1.34v-8.727h-1.34v5.159zm9.8-3.205c-.42-1.238-1.36-2.068-3.09-2.068-1.84 0-3.21 1.046-3.21 2.523 0 1.204.72 2.011 2.32 2.386l1.46.341c.88.205 1.29.625 1.29 1.227 0 .75-.79 1.364-2.04 1.364-1.1 0-1.79-.472-2.03-1.409l-1.27.318c.31 1.483 1.53 2.273 3.32 2.273 2.03 0 3.41-1.108 3.41-2.614 0-1.216-.76-1.983-2.32-2.363l-1.3-.319c-1.03-.255-1.5-.602-1.5-1.272 0-.75.8-1.296 1.87-1.296 1.17 0 1.65.648 1.88 1.25l1.21-.341zm5.8-1.954h-1.87v-2.091h-1.34v2.091h-1.32v1.136h1.32v5.455c0 1.522 1.23 2.25 2.36 2.25.5 0 .82-.091 1-.159l-.27-1.205c-.11.023-.29.068-.59.068-.59 0-1.16-.182-1.16-1.318v-5.091h1.87v-1.136zm5.29 8.909c2.36 0 3.95-1.796 3.95-4.5 0-2.727-1.59-4.523-3.95-4.523-2.37 0-3.96 1.796-3.96 4.523 0 2.704 1.59 4.5 3.96 4.5zm0-1.205c-1.8 0-2.62-1.545-2.62-3.295s.82-3.318 2.62-3.318c1.79 0 2.61 1.568 2.61 3.318s-.82 3.295-2.61 3.295zm5.82 1.023h1.34v-5.455c0-1.278.94-2.181 1.98-2.181 1.02 0 1.73.664 1.73 1.659V398h1.36v-5.682c0-1.125.71-1.954 1.93-1.954.96 0 1.78.505 1.78 1.795V398h1.34v-5.841c0-2.051-1.1-3-2.66-3-1.25 0-2.17.574-2.61 1.477h-.1c-.43-.931-1.19-1.477-2.34-1.477-1.13 0-1.97.546-2.34 1.477h-.11v-1.363h-1.3V398zm17.39.182c1.78 0 3.07-.887 3.48-2.205l-1.29-.363c-.35.909-1.14 1.363-2.19 1.363-1.57 0-2.66-1.017-2.72-2.886h6.34v-.568c0-3.25-1.93-4.364-3.75-4.364-2.37 0-3.93 1.864-3.93 4.546 0 2.681 1.54 4.477 4.06 4.477zm-2.72-5.25c.09-1.358 1.05-2.568 2.59-2.568 1.45 0 2.38 1.091 2.38 2.568h-4.97zm8.2 5.068h1.34v-5.523c0-1.182.93-2.045 2.21-2.045.35 0 .72.068.81.091v-1.364c-.15-.011-.5-.023-.7-.023-1.05 0-1.95.591-2.27 1.455h-.09v-1.318h-1.3V398zm11.44-11.636h-1.34V398h1.34v-11.636zm5.83 11.818c2.36 0 3.95-1.796 3.95-4.5 0-2.727-1.59-4.523-3.95-4.523-2.37 0-3.96 1.796-3.96 4.523 0 2.704 1.59 4.5 3.96 4.5zm0-1.205c-1.8 0-2.62-1.545-2.62-3.295s.82-3.318 2.62-3.318c1.79 0 2.61 1.568 2.61 3.318s-.82 3.295-2.61 3.295zm6.37 4.296c1.22 0 2.07-.642 2.57-2l3.72-9.978-1.47-.022-2.41 6.954h-.09l-2.41-6.954h-1.45l3.23 8.772-.25.682c-.49 1.33-1.09 1.455-2.07 1.205l-.34 1.182c.13.068.52.159.97.159zm10.19-3.068c1.52 0 2.32-.819 2.59-1.387h.07V398h1.34v-5.75c0-2.773-2.11-3.091-3.23-3.091-1.32 0-2.82.455-3.5 2.046l1.28.454c.29-.636.99-1.318 2.27-1.318 1.23 0 1.84.653 1.84 1.773v.045c0 .648-.66.591-2.25.796-1.62.21-3.39.568-3.39 2.568 0 1.704 1.32 2.682 2.98 2.682zm.2-1.205c-1.06 0-1.84-.477-1.84-1.409 0-1.023.94-1.341 1.98-1.477.57-.069 2.09-.228 2.32-.5v1.227c0 1.091-.86 2.159-2.46 2.159zm7.41-10.636h-1.34V398h1.34v-11.636zm6.08 2.909h-1.87v-2.091h-1.34v2.091h-1.32v1.136h1.32v5.455c0 1.522 1.23 2.25 2.37 2.25.5 0 .81-.091 1-.159l-.28-1.205c-.11.023-.29.068-.59.068-.59 0-1.16-.182-1.16-1.318v-5.091h1.87v-1.136zm2.7 12c1.21 0 2.06-.642 2.57-2l3.72-9.978-1.47-.022-2.41 6.954h-.09l-2.41-6.954h-1.45l3.22 8.772-.25.682c-.48 1.33-1.09 1.455-2.06 1.205l-.35 1.182c.14.068.53.159.98.159zm-165.12 20.932c1.52 0 2.31-.819 2.59-1.387h.06V422h1.35v-5.75c0-2.773-2.12-3.091-3.23-3.091-1.32 0-2.82.455-3.5 2.046l1.27.454c.3-.636 1-1.318 2.27-1.318 1.24 0 1.84.653 1.84 1.773v.045c0 .648-.65.591-2.25.796-1.61.21-3.38.568-3.38 2.568 0 1.704 1.32 2.682 2.98 2.682zm.2-1.205c-1.07 0-1.84-.477-1.84-1.409 0-1.023.93-1.341 1.98-1.477.56-.069 2.09-.228 2.31-.5v1.227c0 1.091-.86 2.159-2.45 2.159zm7.41-4.25c0-1.523.94-2.386 2.23-2.386 1.24 0 2 .812 2 2.181V422h1.34v-5.545c0-2.228-1.19-3.296-2.96-3.296-1.32 0-2.13.591-2.54 1.477h-.12v-1.363h-1.29V422h1.34v-5.25zm11.14 5.432c1.68 0 2.25-1.046 2.54-1.523h.16V422h1.3v-11.636h-1.35v4.295h-.11c-.29-.454-.82-1.5-2.52-1.5-2.21 0-3.73 1.75-3.73 4.5 0 2.773 1.52 4.523 3.71 4.523zm.18-1.205c-1.68 0-2.55-1.477-2.55-3.341 0-1.841.84-3.272 2.55-3.272 1.63 0 2.5 1.318 2.5 3.272 0 1.978-.89 3.341-2.5 3.341zm10.61 1.023h1.34v-5.523c0-1.182.93-2.045 2.2-2.045.36 0 .73.068.82.091v-1.364c-.15-.011-.51-.023-.71-.023-1.04 0-1.95.591-2.27 1.455h-.09v-1.318h-1.29V422zm9.17.182c1.77 0 3.06-.887 3.47-2.205l-1.29-.363c-.34.909-1.13 1.363-2.18 1.363-1.58 0-2.66-1.017-2.73-2.886h6.34v-.568c0-3.25-1.93-4.364-3.75-4.364-2.36 0-3.93 1.864-3.93 4.546 0 2.681 1.54 4.477 4.07 4.477zm-2.73-5.25c.1-1.358 1.06-2.568 2.59-2.568 1.45 0 2.39 1.091 2.39 2.568h-4.98zm12-3.659h-1.86v-2.091h-1.35v2.091h-1.31v1.136h1.31v5.455c0 1.522 1.23 2.25 2.37 2.25.5 0 .82-.091 1-.159l-.27-1.205c-.12.023-.3.068-.6.068-.59 0-1.15-.182-1.15-1.318v-5.091h1.86v-1.136zm5.41 8.909c1.77 0 3.06-.887 3.47-2.205l-1.29-.363c-.34.909-1.13 1.363-2.18 1.363-1.58 0-2.66-1.017-2.73-2.886h6.34v-.568c0-3.25-1.93-4.364-3.75-4.364-2.36 0-3.93 1.864-3.93 4.546 0 2.681 1.54 4.477 4.07 4.477zm-2.73-5.25c.09-1.358 1.06-2.568 2.59-2.568 1.45 0 2.39 1.091 2.39 2.568h-4.98zm9.54-.182c0-1.523.95-2.386 2.23-2.386 1.25 0 2 .812 2 2.181V422h1.34v-5.545c0-2.228-1.19-3.296-2.95-3.296-1.32 0-2.14.591-2.55 1.477h-.11v-1.363h-1.3V422h1.34v-5.25zm11.64-3.477h-1.86v-2.091h-1.34v2.091h-1.32v1.136h1.32v5.455c0 1.522 1.22 2.25 2.36 2.25.5 0 .82-.091 1-.159l-.27-1.205c-.12.023-.3.068-.59.068-.59 0-1.16-.182-1.16-1.318v-5.091h1.86v-1.136zm1.84 8.727h1.34v-8.727h-1.34V422zm.68-10.182c.53 0 .96-.409.96-.909s-.43-.909-.96-.909c-.52 0-.95.409-.95.909s.43.909.95.909zm6.49 10.364c2.36 0 3.95-1.796 3.95-4.5 0-2.727-1.59-4.523-3.95-4.523-2.36 0-3.96 1.796-3.96 4.523 0 2.704 1.6 4.5 3.96 4.5zm0-1.205c-1.8 0-2.61-1.545-2.61-3.295s.81-3.318 2.61-3.318c1.79 0 2.61 1.568 2.61 3.318s-.82 3.295-2.61 3.295zm7.17-4.227c0-1.523.94-2.386 2.22-2.386 1.25 0 2 .812 2 2.181V422h1.34v-5.545c0-2.228-1.18-3.296-2.95-3.296-1.32 0-2.14.591-2.55 1.477h-.11v-1.363h-1.3V422h1.35v-5.25z"/>
</svg>
