<svg width="1285" height="760" viewBox="0 0 1285 760" fill="none" xmlns="http://www.w3.org/2000/svg">
<path d="M243.576 319.016C242.296 319.485 241.315 320.211 240.632 321.192C239.992 322.173 239.672 323.347 239.672 324.712H243.576V333.352H235.576V324.712C235.576 323.517 235.789 322.408 236.216 321.384C236.643 320.36 237.219 319.464 237.944 318.696C238.669 317.885 239.501 317.203 240.44 316.648C241.421 316.093 242.467 315.645 243.576 315.304V319.016ZM230.84 319.016C229.56 319.485 228.579 320.211 227.896 321.192C227.256 322.173 226.936 323.347 226.936 324.712H230.84V333.352H222.84V324.712C222.84 323.517 223.053 322.408 223.48 321.384C223.907 320.36 224.483 319.464 225.208 318.696C225.933 317.885 226.765 317.203 227.704 316.648C228.685 316.093 229.731 315.645 230.84 315.304V319.016ZM253.069 315.304H290.062V322.216H275.534V361H267.533V322.216H253.069V315.304ZM299.455 315.304H306.751V332.264H306.879C307.775 330.771 309.098 329.533 310.847 328.552C312.639 327.528 314.623 327.016 316.799 327.016C320.426 327.016 323.284 327.955 325.375 329.832C327.466 331.709 328.511 334.525 328.511 338.28V361H321.215V340.2C321.13 337.597 320.575 335.72 319.551 334.568C318.527 333.373 316.927 332.776 314.751 332.776C313.514 332.776 312.404 333.011 311.423 333.48C310.442 333.907 309.61 334.525 308.927 335.336C308.244 336.104 307.711 337.021 307.327 338.088C306.943 339.155 306.751 340.285 306.751 341.48V361H299.455V315.304ZM364.045 341.544C363.96 340.392 363.704 339.283 363.277 338.216C362.893 337.149 362.338 336.232 361.613 335.464C360.93 334.653 360.077 334.013 359.053 333.544C358.072 333.032 356.962 332.776 355.725 332.776C354.445 332.776 353.272 333.011 352.205 333.48C351.181 333.907 350.285 334.525 349.517 335.336C348.792 336.104 348.194 337.021 347.725 338.088C347.298 339.155 347.064 340.307 347.021 341.544H364.045ZM347.021 346.344C347.021 347.624 347.192 348.861 347.533 350.056C347.917 351.251 348.472 352.296 349.197 353.192C349.922 354.088 350.84 354.813 351.949 355.368C353.058 355.88 354.381 356.136 355.917 356.136C358.05 356.136 359.757 355.688 361.037 354.792C362.36 353.853 363.341 352.467 363.981 350.632H370.893C370.509 352.424 369.848 354.024 368.909 355.432C367.97 356.84 366.84 358.035 365.517 359.016C364.194 359.955 362.701 360.659 361.037 361.128C359.416 361.64 357.709 361.896 355.917 361.896C353.314 361.896 351.01 361.469 349.005 360.616C347 359.763 345.293 358.568 343.885 357.032C342.52 355.496 341.474 353.661 340.749 351.528C340.066 349.395 339.725 347.048 339.725 344.488C339.725 342.141 340.088 339.923 340.813 337.832C341.581 335.699 342.648 333.843 344.013 332.264C345.421 330.643 347.106 329.363 349.069 328.424C351.032 327.485 353.25 327.016 355.725 327.016C358.328 327.016 360.653 327.571 362.701 328.68C364.792 329.747 366.52 331.176 367.885 332.968C369.25 334.76 370.232 336.829 370.829 339.176C371.469 341.48 371.64 343.869 371.341 346.344H347.021ZM405.132 327.912H412.044V332.392H412.172C413.196 330.472 414.625 329.107 416.46 328.296C418.295 327.443 420.279 327.016 422.412 327.016C425.015 327.016 427.276 327.485 429.196 328.424C431.159 329.32 432.78 330.579 434.06 332.2C435.34 333.779 436.3 335.635 436.94 337.768C437.58 339.901 437.9 342.184 437.9 344.616C437.9 346.835 437.601 348.989 437.004 351.08C436.449 353.171 435.575 355.027 434.38 356.648C433.228 358.227 431.756 359.507 429.964 360.488C428.172 361.427 426.06 361.896 423.628 361.896C422.561 361.896 421.495 361.789 420.428 361.576C419.361 361.405 418.337 361.107 417.356 360.68C416.375 360.253 415.457 359.72 414.604 359.08C413.793 358.397 413.111 357.608 412.556 356.712H412.428V373.224H405.132V327.912ZM430.604 344.488C430.604 342.995 430.412 341.544 430.028 340.136C429.644 338.728 429.068 337.491 428.3 336.424C427.532 335.315 426.572 334.44 425.42 333.8C424.268 333.117 422.945 332.776 421.452 332.776C418.38 332.776 416.055 333.843 414.476 335.976C412.94 338.109 412.172 340.947 412.172 344.488C412.172 346.152 412.364 347.709 412.748 349.16C413.175 350.568 413.793 351.784 414.604 352.808C415.415 353.832 416.375 354.643 417.484 355.24C418.636 355.837 419.959 356.136 421.452 356.136C423.116 356.136 424.524 355.795 425.676 355.112C426.828 354.429 427.767 353.555 428.492 352.488C429.26 351.379 429.793 350.141 430.092 348.776C430.433 347.368 430.604 345.939 430.604 344.488ZM464.353 361.896C461.708 361.896 459.34 361.469 457.249 360.616C455.201 359.72 453.452 358.504 452.001 356.968C450.593 355.432 449.505 353.597 448.737 351.464C448.012 349.331 447.649 346.984 447.649 344.424C447.649 341.907 448.012 339.581 448.737 337.448C449.505 335.315 450.593 333.48 452.001 331.944C453.452 330.408 455.201 329.213 457.249 328.36C459.34 327.464 461.708 327.016 464.353 327.016C466.998 327.016 469.345 327.464 471.393 328.36C473.484 329.213 475.233 330.408 476.641 331.944C478.092 333.48 479.18 335.315 479.905 337.448C480.673 339.581 481.057 341.907 481.057 344.424C481.057 346.984 480.673 349.331 479.905 351.464C479.18 353.597 478.092 355.432 476.641 356.968C475.233 358.504 473.484 359.72 471.393 360.616C469.345 361.469 466.998 361.896 464.353 361.896ZM464.353 356.136C465.974 356.136 467.382 355.795 468.577 355.112C469.772 354.429 470.753 353.533 471.521 352.424C472.289 351.315 472.844 350.077 473.185 348.712C473.569 347.304 473.761 345.875 473.761 344.424C473.761 343.016 473.569 341.608 473.185 340.2C472.844 338.792 472.289 337.555 471.521 336.488C470.753 335.379 469.772 334.483 468.577 333.8C467.382 333.117 465.974 332.776 464.353 332.776C462.732 332.776 461.324 333.117 460.129 333.8C458.934 334.483 457.953 335.379 457.185 336.488C456.417 337.555 455.841 338.792 455.457 340.2C455.116 341.608 454.945 343.016 454.945 344.424C454.945 345.875 455.116 347.304 455.457 348.712C455.841 350.077 456.417 351.315 457.185 352.424C457.953 353.533 458.934 354.429 460.129 355.112C461.324 355.795 462.732 356.136 464.353 356.136ZM492.434 315.304H499.73V361H492.434V315.304ZM535.52 341.544C535.435 340.392 535.179 339.283 534.752 338.216C534.368 337.149 533.813 336.232 533.088 335.464C532.405 334.653 531.552 334.013 530.528 333.544C529.547 333.032 528.437 332.776 527.2 332.776C525.92 332.776 524.747 333.011 523.68 333.48C522.656 333.907 521.76 334.525 520.992 335.336C520.267 336.104 519.669 337.021 519.2 338.088C518.773 339.155 518.539 340.307 518.496 341.544H535.52ZM518.496 346.344C518.496 347.624 518.667 348.861 519.008 350.056C519.392 351.251 519.947 352.296 520.672 353.192C521.397 354.088 522.315 354.813 523.424 355.368C524.533 355.88 525.856 356.136 527.392 356.136C529.525 356.136 531.232 355.688 532.512 354.792C533.835 353.853 534.816 352.467 535.456 350.632H542.368C541.984 352.424 541.323 354.024 540.384 355.432C539.445 356.84 538.315 358.035 536.992 359.016C535.669 359.955 534.176 360.659 532.512 361.128C530.891 361.64 529.184 361.896 527.392 361.896C524.789 361.896 522.485 361.469 520.48 360.616C518.475 359.763 516.768 358.568 515.36 357.032C513.995 355.496 512.949 353.661 512.224 351.528C511.541 349.395 511.2 347.048 511.2 344.488C511.2 342.141 511.563 339.923 512.288 337.832C513.056 335.699 514.123 333.843 515.488 332.264C516.896 330.643 518.581 329.363 520.544 328.424C522.507 327.485 524.725 327.016 527.2 327.016C529.803 327.016 532.128 327.571 534.176 328.68C536.267 329.747 537.995 331.176 539.36 332.968C540.725 334.76 541.707 336.829 542.304 339.176C542.944 341.48 543.115 343.869 542.816 346.344H518.496ZM558.986 350.376C559.2 352.509 560.01 354.003 561.418 354.856C562.826 355.709 564.512 356.136 566.474 356.136C567.157 356.136 567.925 356.093 568.778 356.008C569.674 355.88 570.506 355.667 571.274 355.368C572.042 355.069 572.661 354.643 573.13 354.088C573.642 353.491 573.877 352.723 573.834 351.784C573.792 350.845 573.45 350.077 572.81 349.48C572.17 348.883 571.338 348.413 570.314 348.072C569.333 347.688 568.202 347.368 566.922 347.112C565.642 346.856 564.341 346.579 563.018 346.28C561.653 345.981 560.33 345.619 559.05 345.192C557.813 344.765 556.682 344.189 555.658 343.464C554.677 342.739 553.888 341.821 553.29 340.712C552.693 339.56 552.394 338.152 552.394 336.488C552.394 334.696 552.821 333.203 553.674 332.008C554.57 330.771 555.68 329.789 557.002 329.064C558.368 328.296 559.861 327.763 561.482 327.464C563.146 327.165 564.725 327.016 566.218 327.016C567.925 327.016 569.546 327.208 571.082 327.592C572.661 327.933 574.069 328.509 575.306 329.32C576.586 330.131 577.632 331.197 578.442 332.52C579.296 333.8 579.829 335.357 580.042 337.192H572.426C572.085 335.443 571.274 334.269 569.994 333.672C568.757 333.075 567.328 332.776 565.706 332.776C565.194 332.776 564.576 332.819 563.85 332.904C563.168 332.989 562.506 333.16 561.866 333.416C561.269 333.629 560.757 333.971 560.33 334.44C559.904 334.867 559.69 335.443 559.69 336.168C559.69 337.064 559.989 337.789 560.586 338.344C561.226 338.899 562.037 339.368 563.018 339.752C564.042 340.093 565.194 340.392 566.474 340.648C567.754 340.904 569.077 341.181 570.442 341.48C571.765 341.779 573.066 342.141 574.346 342.568C575.626 342.995 576.757 343.571 577.738 344.296C578.762 345.021 579.573 345.939 580.17 347.048C580.81 348.157 581.13 349.523 581.13 351.144C581.13 353.107 580.682 354.771 579.786 356.136C578.89 357.501 577.717 358.611 576.266 359.464C574.858 360.317 573.28 360.936 571.53 361.32C569.781 361.704 568.053 361.896 566.346 361.896C564.256 361.896 562.314 361.661 560.522 361.192C558.773 360.723 557.237 360.019 555.914 359.08C554.634 358.099 553.61 356.904 552.842 355.496C552.117 354.045 551.733 352.339 551.69 350.376H558.986ZM588.462 327.912H593.966V317.992H601.262V327.912H607.854V333.352H601.262V351.016C601.262 351.784 601.283 352.445 601.326 353C601.411 353.555 601.561 354.024 601.774 354.408C602.03 354.792 602.393 355.091 602.862 355.304C603.331 355.475 603.971 355.56 604.782 355.56C605.294 355.56 605.806 355.56 606.318 355.56C606.83 355.517 607.342 355.432 607.854 355.304V360.936C607.043 361.021 606.254 361.107 605.486 361.192C604.718 361.277 603.929 361.32 603.118 361.32C601.198 361.32 599.641 361.149 598.446 360.808C597.294 360.424 596.377 359.891 595.694 359.208C595.054 358.483 594.606 357.587 594.35 356.52C594.137 355.453 594.009 354.237 593.966 352.872V333.352H588.462V327.912ZM645.935 353.64C645.935 354.536 646.041 355.176 646.255 355.56C646.511 355.944 646.98 356.136 647.663 356.136C647.876 356.136 648.132 356.136 648.431 356.136C648.729 356.136 649.071 356.093 649.455 356.008V361.064C649.199 361.149 648.857 361.235 648.431 361.32C648.047 361.448 647.641 361.555 647.215 361.64C646.788 361.725 646.361 361.789 645.935 361.832C645.508 361.875 645.145 361.896 644.847 361.896C643.353 361.896 642.116 361.597 641.135 361C640.153 360.403 639.513 359.357 639.215 357.864C637.764 359.272 635.972 360.296 633.839 360.936C631.748 361.576 629.721 361.896 627.759 361.896C626.265 361.896 624.836 361.683 623.471 361.256C622.105 360.872 620.889 360.296 619.823 359.528C618.799 358.717 617.967 357.715 617.327 356.52C616.729 355.283 616.431 353.853 616.431 352.232C616.431 350.184 616.793 348.52 617.519 347.24C618.287 345.96 619.268 344.957 620.463 344.232C621.7 343.507 623.065 342.995 624.559 342.696C626.095 342.355 627.631 342.099 629.167 341.928C630.489 341.672 631.748 341.501 632.943 341.416C634.137 341.288 635.183 341.096 636.079 340.84C637.017 340.584 637.743 340.2 638.255 339.688C638.809 339.133 639.087 338.323 639.087 337.256C639.087 336.317 638.852 335.549 638.383 334.952C637.956 334.355 637.401 333.907 636.719 333.608C636.079 333.267 635.353 333.053 634.543 332.968C633.732 332.84 632.964 332.776 632.239 332.776C630.191 332.776 628.505 333.203 627.183 334.056C625.86 334.909 625.113 336.232 624.943 338.024H617.647C617.775 335.891 618.287 334.12 619.183 332.712C620.079 331.304 621.209 330.173 622.575 329.32C623.983 328.467 625.561 327.869 627.311 327.528C629.06 327.187 630.852 327.016 632.687 327.016C634.308 327.016 635.908 327.187 637.487 327.528C639.065 327.869 640.473 328.424 641.711 329.192C642.991 329.96 644.015 330.963 644.783 332.2C645.551 333.395 645.935 334.867 645.935 336.616V353.64ZM638.639 344.424C637.529 345.149 636.164 345.597 634.543 345.768C632.921 345.896 631.3 346.109 629.679 346.408C628.911 346.536 628.164 346.728 627.439 346.984C626.713 347.197 626.073 347.517 625.519 347.944C624.964 348.328 624.516 348.861 624.175 349.544C623.876 350.184 623.727 350.973 623.727 351.912C623.727 352.723 623.961 353.405 624.431 353.96C624.9 354.515 625.455 354.963 626.095 355.304C626.777 355.603 627.503 355.816 628.271 355.944C629.081 356.072 629.807 356.136 630.447 356.136C631.257 356.136 632.132 356.029 633.071 355.816C634.009 355.603 634.884 355.24 635.695 354.728C636.548 354.216 637.252 353.576 637.807 352.808C638.361 351.997 638.639 351.016 638.639 349.864V344.424ZM658.905 327.912H665.753V334.312H665.881C666.094 333.416 666.5 332.541 667.097 331.688C667.737 330.835 668.484 330.067 669.337 329.384C670.233 328.659 671.214 328.083 672.281 327.656C673.348 327.229 674.436 327.016 675.545 327.016C676.398 327.016 676.974 327.037 677.273 327.08C677.614 327.123 677.956 327.165 678.297 327.208V334.248C677.785 334.163 677.252 334.099 676.697 334.056C676.185 333.971 675.673 333.928 675.161 333.928C673.924 333.928 672.75 334.184 671.641 334.696C670.574 335.165 669.636 335.891 668.825 336.872C668.014 337.811 667.374 338.984 666.905 340.392C666.436 341.8 666.201 343.421 666.201 345.256V361H658.905V327.912ZM732.177 341.544C732.092 340.392 731.836 339.283 731.409 338.216C731.025 337.149 730.471 336.232 729.745 335.464C729.063 334.653 728.209 334.013 727.185 333.544C726.204 333.032 725.095 332.776 723.857 332.776C722.577 332.776 721.404 333.011 720.337 333.48C719.313 333.907 718.417 334.525 717.649 335.336C716.924 336.104 716.327 337.021 715.857 338.088C715.431 339.155 715.196 340.307 715.153 341.544H732.177ZM715.153 346.344C715.153 347.624 715.324 348.861 715.665 350.056C716.049 351.251 716.604 352.296 717.329 353.192C718.055 354.088 718.972 354.813 720.081 355.368C721.191 355.88 722.513 356.136 724.049 356.136C726.183 356.136 727.889 355.688 729.169 354.792C730.492 353.853 731.473 352.467 732.113 350.632H739.025C738.641 352.424 737.98 354.024 737.041 355.432C736.103 356.84 734.972 358.035 733.649 359.016C732.327 359.955 730.833 360.659 729.169 361.128C727.548 361.64 725.841 361.896 724.049 361.896C721.447 361.896 719.143 361.469 717.137 360.616C715.132 359.763 713.425 358.568 712.017 357.032C710.652 355.496 709.607 353.661 708.881 351.528C708.199 349.395 707.857 347.048 707.857 344.488C707.857 342.141 708.22 339.923 708.945 337.832C709.713 335.699 710.78 333.843 712.145 332.264C713.553 330.643 715.239 329.363 717.201 328.424C719.164 327.485 721.383 327.016 723.857 327.016C726.46 327.016 728.785 327.571 730.833 328.68C732.924 329.747 734.652 331.176 736.017 332.968C737.383 334.76 738.364 336.829 738.961 339.176C739.601 341.48 739.772 343.869 739.473 346.344H715.153ZM759.036 343.592L747.58 327.912H756.412L763.324 338.088L770.556 327.912H779.004L767.74 343.208L780.412 361H771.644L763.26 348.776L755.132 361H746.556L759.036 343.592ZM789.827 327.912H796.739V332.392H796.867C797.891 330.472 799.32 329.107 801.155 328.296C802.99 327.443 804.974 327.016 807.107 327.016C809.71 327.016 811.971 327.485 813.891 328.424C815.854 329.32 817.475 330.579 818.755 332.2C820.035 333.779 820.995 335.635 821.635 337.768C822.275 339.901 822.595 342.184 822.595 344.616C822.595 346.835 822.296 348.989 821.699 351.08C821.144 353.171 820.27 355.027 819.075 356.648C817.923 358.227 816.451 359.507 814.659 360.488C812.867 361.427 810.755 361.896 808.323 361.896C807.256 361.896 806.19 361.789 805.123 361.576C804.056 361.405 803.032 361.107 802.051 360.68C801.07 360.253 800.152 359.72 799.299 359.08C798.488 358.397 797.806 357.608 797.251 356.712H797.123V373.224H789.827V327.912ZM815.299 344.488C815.299 342.995 815.107 341.544 814.723 340.136C814.339 338.728 813.763 337.491 812.995 336.424C812.227 335.315 811.267 334.44 810.115 333.8C808.963 333.117 807.64 332.776 806.147 332.776C803.075 332.776 800.75 333.843 799.171 335.976C797.635 338.109 796.867 340.947 796.867 344.488C796.867 346.152 797.059 347.709 797.443 349.16C797.87 350.568 798.488 351.784 799.299 352.808C800.11 353.832 801.07 354.643 802.179 355.24C803.331 355.837 804.654 356.136 806.147 356.136C807.811 356.136 809.219 355.795 810.371 355.112C811.523 354.429 812.462 353.555 813.187 352.488C813.955 351.379 814.488 350.141 814.787 348.776C815.128 347.368 815.299 345.939 815.299 344.488ZM856.6 341.544C856.515 340.392 856.259 339.283 855.832 338.216C855.448 337.149 854.893 336.232 854.168 335.464C853.485 334.653 852.632 334.013 851.608 333.544C850.627 333.032 849.517 332.776 848.28 332.776C847 332.776 845.827 333.011 844.76 333.48C843.736 333.907 842.84 334.525 842.072 335.336C841.347 336.104 840.749 337.021 840.28 338.088C839.853 339.155 839.619 340.307 839.576 341.544H856.6ZM839.576 346.344C839.576 347.624 839.747 348.861 840.088 350.056C840.472 351.251 841.027 352.296 841.752 353.192C842.477 354.088 843.395 354.813 844.504 355.368C845.613 355.88 846.936 356.136 848.472 356.136C850.605 356.136 852.312 355.688 853.592 354.792C854.915 353.853 855.896 352.467 856.536 350.632H863.448C863.064 352.424 862.403 354.024 861.464 355.432C860.525 356.84 859.395 358.035 858.072 359.016C856.749 359.955 855.256 360.659 853.592 361.128C851.971 361.64 850.264 361.896 848.472 361.896C845.869 361.896 843.565 361.469 841.56 360.616C839.555 359.763 837.848 358.568 836.44 357.032C835.075 355.496 834.029 353.661 833.304 351.528C832.621 349.395 832.28 347.048 832.28 344.488C832.28 342.141 832.643 339.923 833.368 337.832C834.136 335.699 835.203 333.843 836.568 332.264C837.976 330.643 839.661 329.363 841.624 328.424C843.587 327.485 845.805 327.016 848.28 327.016C850.883 327.016 853.208 327.571 855.256 328.68C857.347 329.747 859.075 331.176 860.44 332.968C861.805 334.76 862.787 336.829 863.384 339.176C864.024 341.48 864.195 343.869 863.896 346.344H839.576ZM874.562 327.912H881.41V334.312H881.538C881.752 333.416 882.157 332.541 882.754 331.688C883.394 330.835 884.141 330.067 884.994 329.384C885.89 328.659 886.872 328.083 887.938 327.656C889.005 327.229 890.093 327.016 891.202 327.016C892.056 327.016 892.632 327.037 892.93 327.08C893.272 327.123 893.613 327.165 893.954 327.208V334.248C893.442 334.163 892.909 334.099 892.354 334.056C891.842 333.971 891.33 333.928 890.818 333.928C889.581 333.928 888.408 334.184 887.298 334.696C886.232 335.165 885.293 335.891 884.482 336.872C883.672 337.811 883.032 338.984 882.562 340.392C882.093 341.8 881.858 343.421 881.858 345.256V361H874.562V327.912ZM902.374 315.304H909.67V322.216H902.374V315.304ZM902.374 327.912H909.67V361H902.374V327.912ZM945.46 341.544C945.375 340.392 945.119 339.283 944.692 338.216C944.308 337.149 943.753 336.232 943.028 335.464C942.345 334.653 941.492 334.013 940.468 333.544C939.487 333.032 938.377 332.776 937.14 332.776C935.86 332.776 934.687 333.011 933.62 333.48C932.596 333.907 931.7 334.525 930.932 335.336C930.207 336.104 929.609 337.021 929.14 338.088C928.713 339.155 928.479 340.307 928.436 341.544H945.46ZM928.436 346.344C928.436 347.624 928.607 348.861 928.948 350.056C929.332 351.251 929.887 352.296 930.612 353.192C931.337 354.088 932.255 354.813 933.364 355.368C934.473 355.88 935.796 356.136 937.332 356.136C939.465 356.136 941.172 355.688 942.452 354.792C943.775 353.853 944.756 352.467 945.396 350.632H952.308C951.924 352.424 951.263 354.024 950.324 355.432C949.385 356.84 948.255 358.035 946.932 359.016C945.609 359.955 944.116 360.659 942.452 361.128C940.831 361.64 939.124 361.896 937.332 361.896C934.729 361.896 932.425 361.469 930.42 360.616C928.415 359.763 926.708 358.568 925.3 357.032C923.935 355.496 922.889 353.661 922.164 351.528C921.481 349.395 921.14 347.048 921.14 344.488C921.14 342.141 921.503 339.923 922.228 337.832C922.996 335.699 924.063 333.843 925.428 332.264C926.836 330.643 928.521 329.363 930.484 328.424C932.447 327.485 934.665 327.016 937.14 327.016C939.743 327.016 942.068 327.571 944.116 328.68C946.207 329.747 947.935 331.176 949.3 332.968C950.665 334.76 951.647 336.829 952.244 339.176C952.884 341.48 953.055 343.869 952.756 346.344H928.436ZM963.423 327.912H970.335V332.776L970.463 332.904C971.572 331.069 973.023 329.64 974.815 328.616C976.607 327.549 978.591 327.016 980.767 327.016C984.393 327.016 987.252 327.955 989.343 329.832C991.433 331.709 992.479 334.525 992.479 338.28V361H985.183V340.2C985.097 337.597 984.543 335.72 983.519 334.568C982.495 333.373 980.895 332.776 978.719 332.776C977.481 332.776 976.372 333.011 975.391 333.48C974.409 333.907 973.577 334.525 972.895 335.336C972.212 336.104 971.679 337.021 971.295 338.088C970.911 339.155 970.719 340.285 970.719 341.48V361H963.423V327.912ZM1027.63 338.984C1027.33 336.936 1026.5 335.4 1025.13 334.376C1023.81 333.309 1022.12 332.776 1020.08 332.776C1019.14 332.776 1018.14 332.947 1017.07 333.288C1016 333.587 1015.02 334.184 1014.12 335.08C1013.23 335.933 1012.48 337.149 1011.88 338.728C1011.29 340.264 1010.99 342.291 1010.99 344.808C1010.99 346.173 1011.14 347.539 1011.44 348.904C1011.78 350.269 1012.29 351.485 1012.97 352.552C1013.7 353.619 1014.62 354.493 1015.72 355.176C1016.83 355.816 1018.18 356.136 1019.76 356.136C1021.89 356.136 1023.64 355.475 1025 354.152C1026.41 352.829 1027.29 350.973 1027.63 348.584H1034.92C1034.24 352.893 1032.6 356.2 1030 358.504C1027.44 360.765 1024.02 361.896 1019.76 361.896C1017.15 361.896 1014.85 361.469 1012.84 360.616C1010.88 359.72 1009.22 358.525 1007.85 357.032C1006.49 355.496 1005.44 353.683 1004.72 351.592C1004.03 349.501 1003.69 347.24 1003.69 344.808C1003.69 342.333 1004.03 340.008 1004.72 337.832C1005.4 335.656 1006.42 333.779 1007.79 332.2C1009.15 330.579 1010.84 329.32 1012.84 328.424C1014.89 327.485 1017.28 327.016 1020.01 327.016C1021.93 327.016 1023.75 327.272 1025.45 327.784C1027.2 328.253 1028.74 328.979 1030.06 329.96C1031.43 330.941 1032.54 332.179 1033.39 333.672C1034.24 335.165 1034.75 336.936 1034.92 338.984H1027.63ZM1068.7 341.544C1068.61 340.392 1068.35 339.283 1067.93 338.216C1067.54 337.149 1066.99 336.232 1066.26 335.464C1065.58 334.653 1064.73 334.013 1063.7 333.544C1062.72 333.032 1061.61 332.776 1060.38 332.776C1059.1 332.776 1057.92 333.011 1056.86 333.48C1055.83 333.907 1054.94 334.525 1054.17 335.336C1053.44 336.104 1052.84 337.021 1052.38 338.088C1051.95 339.155 1051.71 340.307 1051.67 341.544H1068.7ZM1051.67 346.344C1051.67 347.624 1051.84 348.861 1052.18 350.056C1052.57 351.251 1053.12 352.296 1053.85 353.192C1054.57 354.088 1055.49 354.813 1056.6 355.368C1057.71 355.88 1059.03 356.136 1060.57 356.136C1062.7 356.136 1064.41 355.688 1065.69 354.792C1067.01 353.853 1067.99 352.467 1068.63 350.632H1075.54C1075.16 352.424 1074.5 354.024 1073.56 355.432C1072.62 356.84 1071.49 358.035 1070.17 359.016C1068.84 359.955 1067.35 360.659 1065.69 361.128C1064.07 361.64 1062.36 361.896 1060.57 361.896C1057.96 361.896 1055.66 361.469 1053.66 360.616C1051.65 359.763 1049.94 358.568 1048.54 357.032C1047.17 355.496 1046.12 353.661 1045.4 351.528C1044.72 349.395 1044.38 347.048 1044.38 344.488C1044.38 342.141 1044.74 339.923 1045.46 337.832C1046.23 335.699 1047.3 333.843 1048.66 332.264C1050.07 330.643 1051.76 329.363 1053.72 328.424C1055.68 327.485 1057.9 327.016 1060.38 327.016C1062.98 327.016 1065.3 327.571 1067.35 328.68C1069.44 329.747 1071.17 331.176 1072.54 332.968C1073.9 334.76 1074.88 336.829 1075.48 339.176C1076.12 341.48 1076.29 343.869 1075.99 346.344H1051.67ZM245.176 416.984C244.877 414.936 244.045 413.4 242.68 412.376C241.357 411.309 239.672 410.776 237.624 410.776C236.685 410.776 235.683 410.947 234.616 411.288C233.549 411.587 232.568 412.184 231.672 413.08C230.776 413.933 230.029 415.149 229.432 416.728C228.835 418.264 228.536 420.291 228.536 422.808C228.536 424.173 228.685 425.539 228.984 426.904C229.325 428.269 229.837 429.485 230.52 430.552C231.245 431.619 232.163 432.493 233.272 433.176C234.381 433.816 235.725 434.136 237.304 434.136C239.437 434.136 241.187 433.475 242.552 432.152C243.96 430.829 244.835 428.973 245.176 426.584H252.472C251.789 430.893 250.147 434.2 247.544 436.504C244.984 438.765 241.571 439.896 237.304 439.896C234.701 439.896 232.397 439.469 230.392 438.616C228.429 437.72 226.765 436.525 225.4 435.032C224.035 433.496 222.989 431.683 222.264 429.592C221.581 427.501 221.24 425.24 221.24 422.808C221.24 420.333 221.581 418.008 222.264 415.832C222.947 413.656 223.971 411.779 225.336 410.2C226.701 408.579 228.387 407.32 230.392 406.424C232.44 405.485 234.829 405.016 237.56 405.016C239.48 405.016 241.293 405.272 243 405.784C244.749 406.253 246.285 406.979 247.608 407.96C248.973 408.941 250.083 410.179 250.936 411.672C251.789 413.165 252.301 414.936 252.472 416.984H245.176ZM291.235 431.64C291.235 432.536 291.341 433.176 291.555 433.56C291.81 433.944 292.28 434.136 292.963 434.136C293.176 434.136 293.432 434.136 293.73 434.136C294.029 434.136 294.371 434.093 294.755 434.008V439.064C294.499 439.149 294.157 439.235 293.73 439.32C293.346 439.448 292.941 439.555 292.514 439.64C292.088 439.725 291.661 439.789 291.235 439.832C290.808 439.875 290.445 439.896 290.146 439.896C288.653 439.896 287.416 439.597 286.434 439C285.453 438.403 284.813 437.357 284.514 435.864C283.064 437.272 281.272 438.296 279.139 438.936C277.048 439.576 275.021 439.896 273.058 439.896C271.565 439.896 270.136 439.683 268.77 439.256C267.405 438.872 266.189 438.296 265.122 437.528C264.098 436.717 263.266 435.715 262.626 434.52C262.029 433.283 261.73 431.853 261.73 430.232C261.73 428.184 262.093 426.52 262.818 425.24C263.586 423.96 264.568 422.957 265.762 422.232C267 421.507 268.365 420.995 269.858 420.696C271.394 420.355 272.93 420.099 274.466 419.928C275.789 419.672 277.048 419.501 278.243 419.416C279.437 419.288 280.483 419.096 281.378 418.84C282.317 418.584 283.043 418.2 283.555 417.688C284.109 417.133 284.386 416.323 284.386 415.256C284.386 414.317 284.152 413.549 283.683 412.952C283.256 412.355 282.701 411.907 282.018 411.608C281.378 411.267 280.653 411.053 279.843 410.968C279.032 410.84 278.264 410.776 277.538 410.776C275.49 410.776 273.805 411.203 272.482 412.056C271.16 412.909 270.413 414.232 270.242 416.024H262.946C263.074 413.891 263.586 412.12 264.482 410.712C265.378 409.304 266.509 408.173 267.874 407.32C269.282 406.467 270.861 405.869 272.61 405.528C274.36 405.187 276.152 405.016 277.986 405.016C279.608 405.016 281.208 405.187 282.787 405.528C284.365 405.869 285.773 406.424 287.01 407.192C288.291 407.96 289.315 408.963 290.083 410.2C290.851 411.395 291.235 412.867 291.235 414.616V431.64ZM283.938 422.424C282.829 423.149 281.464 423.597 279.843 423.768C278.221 423.896 276.6 424.109 274.978 424.408C274.21 424.536 273.464 424.728 272.738 424.984C272.013 425.197 271.373 425.517 270.818 425.944C270.264 426.328 269.816 426.861 269.474 427.544C269.176 428.184 269.026 428.973 269.026 429.912C269.026 430.723 269.261 431.405 269.73 431.96C270.2 432.515 270.754 432.963 271.394 433.304C272.077 433.603 272.802 433.816 273.57 433.944C274.381 434.072 275.106 434.136 275.747 434.136C276.557 434.136 277.432 434.029 278.371 433.816C279.309 433.603 280.184 433.24 280.994 432.728C281.848 432.216 282.552 431.576 283.107 430.808C283.661 429.997 283.938 429.016 283.938 427.864V422.424ZM304.205 405.912H311.117V410.776L311.245 410.904C312.354 409.069 313.805 407.64 315.597 406.616C317.389 405.549 319.373 405.016 321.549 405.016C325.176 405.016 328.034 405.955 330.125 407.832C332.216 409.709 333.261 412.525 333.261 416.28V439H325.965V418.2C325.88 415.597 325.325 413.72 324.301 412.568C323.277 411.373 321.677 410.776 319.501 410.776C318.264 410.776 317.154 411.011 316.173 411.48C315.192 411.907 314.36 412.525 313.677 413.336C312.994 414.104 312.461 415.021 312.077 416.088C311.693 417.155 311.501 418.285 311.501 419.48V439H304.205V405.912ZM347.163 407.64C348.699 407.427 349.723 406.787 350.235 405.72C350.79 404.611 351.067 403.352 351.067 401.944H347.163V393.304H355.163V401.944C355.163 404.419 354.438 406.531 352.987 408.28C351.579 409.987 349.638 411.011 347.163 411.352V407.64ZM364.554 405.912H370.058V395.992H377.354V405.912H383.946V411.352H377.354V429.016C377.354 429.784 377.376 430.445 377.418 431C377.504 431.555 377.653 432.024 377.866 432.408C378.122 432.792 378.485 433.091 378.954 433.304C379.424 433.475 380.064 433.56 380.874 433.56C381.386 433.56 381.898 433.56 382.41 433.56C382.922 433.517 383.434 433.432 383.946 433.304V438.936C383.136 439.021 382.346 439.107 381.578 439.192C380.81 439.277 380.021 439.32 379.21 439.32C377.29 439.32 375.733 439.149 374.538 438.808C373.386 438.424 372.469 437.891 371.786 437.208C371.146 436.483 370.698 435.587 370.442 434.52C370.229 433.453 370.101 432.237 370.058 430.872V411.352H364.554V405.912ZM417.44 393.304H424.736V410.2H424.864C425.376 409.389 425.994 408.664 426.72 408.024C427.445 407.384 428.234 406.851 429.088 406.424C429.984 405.955 430.901 405.613 431.84 405.4C432.821 405.144 433.781 405.016 434.72 405.016C437.322 405.016 439.584 405.485 441.504 406.424C443.466 407.32 445.088 408.579 446.368 410.2C447.648 411.779 448.608 413.635 449.248 415.768C449.888 417.901 450.208 420.184 450.208 422.616C450.208 424.835 449.909 426.989 449.312 429.08C448.757 431.171 447.882 433.027 446.688 434.648C445.536 436.227 444.064 437.507 442.272 438.488C440.48 439.427 438.368 439.896 435.936 439.896C434.826 439.896 433.696 439.811 432.544 439.64C431.434 439.512 430.368 439.235 429.344 438.808C428.32 438.381 427.381 437.827 426.528 437.144C425.717 436.461 425.034 435.565 424.48 434.456H424.352V439H417.44V393.304ZM442.912 422.488C442.912 420.995 442.72 419.544 442.336 418.136C441.952 416.728 441.376 415.491 440.608 414.424C439.84 413.315 438.88 412.44 437.728 411.8C436.576 411.117 435.253 410.776 433.76 410.776C430.688 410.776 428.362 411.843 426.784 413.976C425.248 416.109 424.48 418.947 424.48 422.488C424.48 424.152 424.672 425.709 425.056 427.16C425.482 428.568 426.101 429.784 426.912 430.808C427.722 431.832 428.682 432.643 429.792 433.24C430.944 433.837 432.266 434.136 433.76 434.136C435.424 434.136 436.832 433.795 437.984 433.112C439.136 432.429 440.074 431.555 440.8 430.488C441.568 429.379 442.101 428.141 442.4 426.776C442.741 425.368 442.912 423.939 442.912 422.488ZM484.212 419.544C484.127 418.392 483.871 417.283 483.444 416.216C483.06 415.149 482.506 414.232 481.78 413.464C481.098 412.653 480.244 412.013 479.22 411.544C478.239 411.032 477.13 410.776 475.892 410.776C474.612 410.776 473.439 411.011 472.372 411.48C471.348 411.907 470.452 412.525 469.684 413.336C468.959 414.104 468.362 415.021 467.892 416.088C467.466 417.155 467.231 418.307 467.188 419.544H484.212ZM467.188 424.344C467.188 425.624 467.359 426.861 467.7 428.056C468.084 429.251 468.639 430.296 469.364 431.192C470.09 432.088 471.007 432.813 472.116 433.368C473.226 433.88 474.548 434.136 476.084 434.136C478.218 434.136 479.924 433.688 481.204 432.792C482.527 431.853 483.508 430.467 484.148 428.632H491.06C490.676 430.424 490.015 432.024 489.076 433.432C488.138 434.84 487.007 436.035 485.684 437.016C484.362 437.955 482.868 438.659 481.204 439.128C479.583 439.64 477.876 439.896 476.084 439.896C473.482 439.896 471.178 439.469 469.172 438.616C467.167 437.763 465.46 436.568 464.052 435.032C462.687 433.496 461.642 431.661 460.916 429.528C460.234 427.395 459.892 425.048 459.892 422.488C459.892 420.141 460.255 417.923 460.98 415.832C461.748 413.699 462.815 411.843 464.18 410.264C465.588 408.643 467.274 407.363 469.236 406.424C471.199 405.485 473.418 405.016 475.892 405.016C478.495 405.016 480.82 405.571 482.868 406.68C484.959 407.747 486.687 409.176 488.052 410.968C489.418 412.76 490.399 414.829 490.996 417.176C491.636 419.48 491.807 421.869 491.508 424.344H467.188ZM547.443 416.984C547.145 414.936 546.313 413.4 544.947 412.376C543.625 411.309 541.939 410.776 539.891 410.776C538.953 410.776 537.95 410.947 536.883 411.288C535.817 411.587 534.835 412.184 533.939 413.08C533.043 413.933 532.297 415.149 531.699 416.728C531.102 418.264 530.803 420.291 530.803 422.808C530.803 424.173 530.953 425.539 531.251 426.904C531.593 428.269 532.105 429.485 532.787 430.552C533.513 431.619 534.43 432.493 535.539 433.176C536.649 433.816 537.993 434.136 539.571 434.136C541.705 434.136 543.454 433.475 544.819 432.152C546.227 430.829 547.102 428.973 547.443 426.584H554.739C554.057 430.893 552.414 434.2 549.811 436.504C547.251 438.765 543.838 439.896 539.571 439.896C536.969 439.896 534.665 439.469 532.659 438.616C530.697 437.72 529.033 436.525 527.667 435.032C526.302 433.496 525.257 431.683 524.531 429.592C523.849 427.501 523.507 425.24 523.507 422.808C523.507 420.333 523.849 418.008 524.531 415.832C525.214 413.656 526.238 411.779 527.603 410.2C528.969 408.579 530.654 407.32 532.659 406.424C534.707 405.485 537.097 405.016 539.827 405.016C541.747 405.016 543.561 405.272 545.267 405.784C547.017 406.253 548.553 406.979 549.875 407.96C551.241 408.941 552.35 410.179 553.203 411.672C554.057 413.165 554.569 414.936 554.739 416.984H547.443ZM593.502 431.64C593.502 432.536 593.609 433.176 593.822 433.56C594.078 433.944 594.547 434.136 595.23 434.136C595.443 434.136 595.699 434.136 595.998 434.136C596.297 434.136 596.638 434.093 597.022 434.008V439.064C596.766 439.149 596.425 439.235 595.998 439.32C595.614 439.448 595.209 439.555 594.782 439.64C594.355 439.725 593.929 439.789 593.502 439.832C593.075 439.875 592.713 439.896 592.414 439.896C590.921 439.896 589.683 439.597 588.702 439C587.721 438.403 587.081 437.357 586.782 435.864C585.331 437.272 583.539 438.296 581.406 438.936C579.315 439.576 577.289 439.896 575.326 439.896C573.833 439.896 572.403 439.683 571.038 439.256C569.673 438.872 568.457 438.296 567.39 437.528C566.366 436.717 565.534 435.715 564.894 434.52C564.297 433.283 563.998 431.853 563.998 430.232C563.998 428.184 564.361 426.52 565.086 425.24C565.854 423.96 566.835 422.957 568.03 422.232C569.267 421.507 570.633 420.995 572.126 420.696C573.662 420.355 575.198 420.099 576.734 419.928C578.057 419.672 579.315 419.501 580.51 419.416C581.705 419.288 582.75 419.096 583.646 418.84C584.585 418.584 585.31 418.2 585.822 417.688C586.377 417.133 586.654 416.323 586.654 415.256C586.654 414.317 586.419 413.549 585.95 412.952C585.523 412.355 584.969 411.907 584.286 411.608C583.646 411.267 582.921 411.053 582.11 410.968C581.299 410.84 580.531 410.776 579.806 410.776C577.758 410.776 576.073 411.203 574.75 412.056C573.427 412.909 572.681 414.232 572.51 416.024H565.214C565.342 413.891 565.854 412.12 566.75 410.712C567.646 409.304 568.777 408.173 570.142 407.32C571.55 406.467 573.129 405.869 574.878 405.528C576.627 405.187 578.419 405.016 580.254 405.016C581.875 405.016 583.475 405.187 585.054 405.528C586.633 405.869 588.041 406.424 589.278 407.192C590.558 407.96 591.582 408.963 592.35 410.2C593.118 411.395 593.502 412.867 593.502 414.616V431.64ZM586.206 422.424C585.097 423.149 583.731 423.597 582.11 423.768C580.489 423.896 578.867 424.109 577.246 424.408C576.478 424.536 575.731 424.728 575.006 424.984C574.281 425.197 573.641 425.517 573.086 425.944C572.531 426.328 572.083 426.861 571.742 427.544C571.443 428.184 571.294 428.973 571.294 429.912C571.294 430.723 571.529 431.405 571.998 431.96C572.467 432.515 573.022 432.963 573.662 433.304C574.345 433.603 575.07 433.816 575.838 433.944C576.649 434.072 577.374 434.136 578.014 434.136C578.825 434.136 579.699 434.029 580.638 433.816C581.577 433.603 582.451 433.24 583.262 432.728C584.115 432.216 584.819 431.576 585.374 430.808C585.929 429.997 586.206 429.016 586.206 427.864V422.424ZM606.665 405.912H613.577V410.392H613.705C614.729 408.472 616.158 407.107 617.993 406.296C619.827 405.443 621.811 405.016 623.945 405.016C626.547 405.016 628.809 405.485 630.729 406.424C632.691 407.32 634.313 408.579 635.593 410.2C636.873 411.779 637.833 413.635 638.473 415.768C639.113 417.901 639.433 420.184 639.433 422.616C639.433 424.835 639.134 426.989 638.537 429.08C637.982 431.171 637.107 433.027 635.913 434.648C634.761 436.227 633.289 437.507 631.497 438.488C629.705 439.427 627.593 439.896 625.161 439.896C624.094 439.896 623.027 439.789 621.961 439.576C620.894 439.405 619.87 439.107 618.889 438.68C617.907 438.253 616.99 437.72 616.137 437.08C615.326 436.397 614.643 435.608 614.089 434.712H613.961V451.224H606.665V405.912ZM632.137 422.488C632.137 420.995 631.945 419.544 631.561 418.136C631.177 416.728 630.601 415.491 629.833 414.424C629.065 413.315 628.105 412.44 626.953 411.8C625.801 411.117 624.478 410.776 622.985 410.776C619.913 410.776 617.587 411.843 616.009 413.976C614.473 416.109 613.705 418.947 613.705 422.488C613.705 424.152 613.897 425.709 614.281 427.16C614.707 428.568 615.326 429.784 616.137 430.808C616.947 431.832 617.907 432.643 619.017 433.24C620.169 433.837 621.491 434.136 622.985 434.136C624.649 434.136 626.057 433.795 627.209 433.112C628.361 432.429 629.299 431.555 630.025 430.488C630.793 429.379 631.326 428.141 631.625 426.776C631.966 425.368 632.137 423.939 632.137 422.488ZM647.39 405.912H652.894V395.992H660.19V405.912H666.782V411.352H660.19V429.016C660.19 429.784 660.211 430.445 660.254 431C660.339 431.555 660.488 432.024 660.702 432.408C660.958 432.792 661.32 433.091 661.79 433.304C662.259 433.475 662.899 433.56 663.71 433.56C664.222 433.56 664.734 433.56 665.246 433.56C665.758 433.517 666.27 433.432 666.782 433.304V438.936C665.971 439.021 665.182 439.107 664.414 439.192C663.646 439.277 662.856 439.32 662.046 439.32C660.126 439.32 658.568 439.149 657.374 438.808C656.222 438.424 655.304 437.891 654.622 437.208C653.982 436.483 653.534 435.587 653.278 434.52C653.064 433.453 652.936 432.237 652.894 430.872V411.352H647.39V405.912ZM706.206 439H699.038V434.392H698.91C698.014 436.056 696.67 437.4 694.878 438.424C693.129 439.405 691.337 439.896 689.502 439.896C685.15 439.896 681.993 438.829 680.03 436.696C678.11 434.52 677.15 431.256 677.15 426.904V405.912H684.446V426.2C684.446 429.101 685.001 431.149 686.11 432.344C687.219 433.539 688.777 434.136 690.782 434.136C692.318 434.136 693.598 433.901 694.622 433.432C695.646 432.963 696.478 432.344 697.118 431.576C697.758 430.765 698.206 429.805 698.462 428.696C698.761 427.587 698.91 426.392 698.91 425.112V405.912H706.206V439ZM719.02 405.912H725.868V412.312H725.996C726.209 411.416 726.615 410.541 727.212 409.688C727.852 408.835 728.599 408.067 729.452 407.384C730.348 406.659 731.329 406.083 732.396 405.656C733.463 405.229 734.551 405.016 735.66 405.016C736.513 405.016 737.089 405.037 737.388 405.08C737.729 405.123 738.071 405.165 738.412 405.208V412.248C737.9 412.163 737.367 412.099 736.812 412.056C736.3 411.971 735.788 411.928 735.276 411.928C734.039 411.928 732.865 412.184 731.756 412.696C730.689 413.165 729.751 413.891 728.94 414.872C728.129 415.811 727.489 416.984 727.02 418.392C726.551 419.8 726.316 421.421 726.316 423.256V439H719.02V405.912ZM768.235 419.544C768.15 418.392 767.894 417.283 767.467 416.216C767.083 415.149 766.528 414.232 765.803 413.464C765.12 412.653 764.267 412.013 763.243 411.544C762.262 411.032 761.152 410.776 759.915 410.776C758.635 410.776 757.462 411.011 756.395 411.48C755.371 411.907 754.475 412.525 753.707 413.336C752.982 414.104 752.384 415.021 751.915 416.088C751.488 417.155 751.254 418.307 751.211 419.544H768.235ZM751.211 424.344C751.211 425.624 751.382 426.861 751.723 428.056C752.107 429.251 752.662 430.296 753.387 431.192C754.112 432.088 755.03 432.813 756.139 433.368C757.248 433.88 758.571 434.136 760.107 434.136C762.24 434.136 763.947 433.688 765.227 432.792C766.55 431.853 767.531 430.467 768.171 428.632H775.083C774.699 430.424 774.038 432.024 773.099 433.432C772.16 434.84 771.03 436.035 769.707 437.016C768.384 437.955 766.891 438.659 765.227 439.128C763.606 439.64 761.899 439.896 760.107 439.896C757.504 439.896 755.2 439.469 753.195 438.616C751.19 437.763 749.483 436.568 748.075 435.032C746.71 433.496 745.664 431.661 744.939 429.528C744.256 427.395 743.915 425.048 743.915 422.488C743.915 420.141 744.278 417.923 745.003 415.832C745.771 413.699 746.838 411.843 748.203 410.264C749.611 408.643 751.296 407.363 753.259 406.424C755.222 405.485 757.44 405.016 759.915 405.016C762.518 405.016 764.843 405.571 766.891 406.68C768.982 407.747 770.71 409.176 772.075 410.968C773.44 412.76 774.422 414.829 775.019 417.176C775.659 419.48 775.83 421.869 775.531 424.344H751.211ZM817.365 439H810.453V434.52H810.325C809.344 436.44 807.915 437.827 806.037 438.68C804.16 439.491 802.176 439.896 800.085 439.896C797.483 439.896 795.2 439.448 793.237 438.552C791.317 437.613 789.717 436.355 788.437 434.776C787.157 433.197 786.197 431.341 785.557 429.208C784.917 427.032 784.597 424.707 784.597 422.232C784.597 419.245 785.003 416.664 785.813 414.488C786.624 412.312 787.691 410.52 789.013 409.112C790.379 407.704 791.915 406.68 793.621 406.04C795.371 405.357 797.141 405.016 798.933 405.016C799.957 405.016 801.003 405.123 802.069 405.336C803.136 405.507 804.16 405.805 805.141 406.232C806.123 406.659 807.019 407.213 807.829 407.896C808.683 408.536 809.387 409.304 809.941 410.2H810.069V393.304H817.365V439ZM791.893 422.808C791.893 424.216 792.064 425.603 792.405 426.968C792.789 428.333 793.344 429.549 794.069 430.616C794.837 431.683 795.797 432.536 796.949 433.176C798.101 433.816 799.467 434.136 801.045 434.136C802.667 434.136 804.053 433.795 805.205 433.112C806.4 432.429 807.36 431.533 808.085 430.424C808.853 429.315 809.408 428.077 809.749 426.712C810.133 425.304 810.325 423.875 810.325 422.424C810.325 418.755 809.493 415.896 807.829 413.848C806.208 411.8 803.989 410.776 801.173 410.776C799.467 410.776 798.016 411.139 796.821 411.864C795.669 412.547 794.709 413.464 793.941 414.616C793.216 415.725 792.683 417.005 792.341 418.456C792.043 419.864 791.893 421.315 791.893 422.808ZM853.567 393.304H860.863V400.216H853.567V393.304ZM853.567 405.912H860.863V439H853.567V405.912ZM873.932 405.912H880.844V410.776L880.972 410.904C882.082 409.069 883.532 407.64 885.324 406.616C887.116 405.549 889.1 405.016 891.276 405.016C894.903 405.016 897.762 405.955 899.852 407.832C901.943 409.709 902.988 412.525 902.988 416.28V439H895.692V418.2C895.607 415.597 895.052 413.72 894.028 412.568C893.004 411.373 891.404 410.776 889.228 410.776C887.991 410.776 886.882 411.011 885.9 411.48C884.919 411.907 884.087 412.525 883.404 413.336C882.722 414.104 882.188 415.021 881.804 416.088C881.42 417.155 881.228 418.285 881.228 419.48V439H873.932V405.912ZM935.727 405.912H943.471L949.935 430.616H950.063L956.271 405.912H963.631L969.583 430.616H969.711L976.431 405.912H983.855L973.487 439H965.999L959.855 414.424H959.727L953.647 439H945.967L935.727 405.912ZM1008.84 439.896C1006.19 439.896 1003.82 439.469 1001.73 438.616C999.684 437.72 997.934 436.504 996.484 434.968C995.076 433.432 993.988 431.597 993.22 429.464C992.494 427.331 992.132 424.984 992.132 422.424C992.132 419.907 992.494 417.581 993.22 415.448C993.988 413.315 995.076 411.48 996.484 409.944C997.934 408.408 999.684 407.213 1001.73 406.36C1003.82 405.464 1006.19 405.016 1008.84 405.016C1011.48 405.016 1013.83 405.464 1015.88 406.36C1017.97 407.213 1019.72 408.408 1021.12 409.944C1022.57 411.48 1023.66 413.315 1024.39 415.448C1025.16 417.581 1025.54 419.907 1025.54 422.424C1025.54 424.984 1025.16 427.331 1024.39 429.464C1023.66 431.597 1022.57 433.432 1021.12 434.968C1019.72 436.504 1017.97 437.72 1015.88 438.616C1013.83 439.469 1011.48 439.896 1008.84 439.896ZM1008.84 434.136C1010.46 434.136 1011.86 433.795 1013.06 433.112C1014.25 432.429 1015.24 431.533 1016 430.424C1016.77 429.315 1017.33 428.077 1017.67 426.712C1018.05 425.304 1018.24 423.875 1018.24 422.424C1018.24 421.016 1018.05 419.608 1017.67 418.2C1017.33 416.792 1016.77 415.555 1016 414.488C1015.24 413.379 1014.25 412.483 1013.06 411.8C1011.86 411.117 1010.46 410.776 1008.84 410.776C1007.21 410.776 1005.81 411.117 1004.61 411.8C1003.42 412.483 1002.44 413.379 1001.67 414.488C1000.9 415.555 1000.32 416.792 999.94 418.2C999.598 419.608 999.428 421.016 999.428 422.424C999.428 423.875 999.598 425.304 999.94 426.712C1000.32 428.077 1000.9 429.315 1001.67 430.424C1002.44 431.533 1003.42 432.429 1004.61 433.112C1005.81 433.795 1007.21 434.136 1008.84 434.136ZM1036.73 405.912H1043.57V412.312H1043.7C1043.91 411.416 1044.32 410.541 1044.92 409.688C1045.56 408.835 1046.3 408.067 1047.16 407.384C1048.05 406.659 1049.03 406.083 1050.1 405.656C1051.17 405.229 1052.26 405.016 1053.37 405.016C1054.22 405.016 1054.79 405.037 1055.09 405.08C1055.43 405.123 1055.78 405.165 1056.12 405.208V412.248C1055.61 412.163 1055.07 412.099 1054.52 412.056C1054.01 411.971 1053.49 411.928 1052.98 411.928C1051.74 411.928 1050.57 412.184 1049.46 412.696C1048.39 413.165 1047.46 413.891 1046.65 414.872C1045.83 415.811 1045.19 416.984 1044.73 418.392C1044.26 419.8 1044.02 421.421 1044.02 423.256V439H1036.73V405.912ZM1094.39 439H1087.48V434.52H1087.35C1086.37 436.44 1084.94 437.827 1083.06 438.68C1081.18 439.491 1079.2 439.896 1077.11 439.896C1074.51 439.896 1072.22 439.448 1070.26 438.552C1068.34 437.613 1066.74 436.355 1065.46 434.776C1064.18 433.197 1063.22 431.341 1062.58 429.208C1061.94 427.032 1061.62 424.707 1061.62 422.232C1061.62 419.245 1062.03 416.664 1062.84 414.488C1063.65 412.312 1064.71 410.52 1066.04 409.112C1067.4 407.704 1068.94 406.68 1070.64 406.04C1072.39 405.357 1074.16 405.016 1075.96 405.016C1076.98 405.016 1078.03 405.123 1079.09 405.336C1080.16 405.507 1081.18 405.805 1082.16 406.232C1083.15 406.659 1084.04 407.213 1084.85 407.896C1085.71 408.536 1086.41 409.304 1086.96 410.2H1087.09V393.304H1094.39V439ZM1068.92 422.808C1068.92 424.216 1069.09 425.603 1069.43 426.968C1069.81 428.333 1070.37 429.549 1071.09 430.616C1071.86 431.683 1072.82 432.536 1073.97 433.176C1075.12 433.816 1076.49 434.136 1078.07 434.136C1079.69 434.136 1081.08 433.795 1082.23 433.112C1083.42 432.429 1084.38 431.533 1085.11 430.424C1085.88 429.315 1086.43 428.077 1086.77 426.712C1087.16 425.304 1087.35 423.875 1087.35 422.424C1087.35 418.755 1086.52 415.896 1084.85 413.848C1083.23 411.8 1081.01 410.776 1078.2 410.776C1076.49 410.776 1075.04 411.139 1073.84 411.864C1072.69 412.547 1071.73 413.464 1070.96 414.616C1070.24 415.725 1069.71 417.005 1069.36 418.456C1069.07 419.864 1068.92 421.315 1068.92 422.808ZM1112.97 428.376C1113.18 430.509 1113.99 432.003 1115.4 432.856C1116.81 433.709 1118.49 434.136 1120.46 434.136C1121.14 434.136 1121.91 434.093 1122.76 434.008C1123.66 433.88 1124.49 433.667 1125.26 433.368C1126.03 433.069 1126.64 432.643 1127.11 432.088C1127.63 431.491 1127.86 430.723 1127.82 429.784C1127.77 428.845 1127.43 428.077 1126.79 427.48C1126.15 426.883 1125.32 426.413 1124.3 426.072C1123.32 425.688 1122.19 425.368 1120.91 425.112C1119.63 424.856 1118.32 424.579 1117 424.28C1115.64 423.981 1114.31 423.619 1113.03 423.192C1111.8 422.765 1110.67 422.189 1109.64 421.464C1108.66 420.739 1107.87 419.821 1107.27 418.712C1106.68 417.56 1106.38 416.152 1106.38 414.488C1106.38 412.696 1106.8 411.203 1107.66 410.008C1108.55 408.771 1109.66 407.789 1110.99 407.064C1112.35 406.296 1113.84 405.763 1115.47 405.464C1117.13 405.165 1118.71 405.016 1120.2 405.016C1121.91 405.016 1123.53 405.208 1125.07 405.592C1126.64 405.933 1128.05 406.509 1129.29 407.32C1130.57 408.131 1131.61 409.197 1132.43 410.52C1133.28 411.8 1133.81 413.357 1134.03 415.192H1126.41C1126.07 413.443 1125.26 412.269 1123.98 411.672C1122.74 411.075 1121.31 410.776 1119.69 410.776C1119.18 410.776 1118.56 410.819 1117.83 410.904C1117.15 410.989 1116.49 411.16 1115.85 411.416C1115.25 411.629 1114.74 411.971 1114.31 412.44C1113.89 412.867 1113.67 413.443 1113.67 414.168C1113.67 415.064 1113.97 415.789 1114.57 416.344C1115.21 416.899 1116.02 417.368 1117 417.752C1118.03 418.093 1119.18 418.392 1120.46 418.648C1121.74 418.904 1123.06 419.181 1124.43 419.48C1125.75 419.779 1127.05 420.141 1128.33 420.568C1129.61 420.995 1130.74 421.571 1131.72 422.296C1132.75 423.021 1133.56 423.939 1134.15 425.048C1134.79 426.157 1135.11 427.523 1135.11 429.144C1135.11 431.107 1134.67 432.771 1133.77 434.136C1132.87 435.501 1131.7 436.611 1130.25 437.464C1128.84 438.317 1127.26 438.936 1125.51 439.32C1123.76 439.704 1122.04 439.896 1120.33 439.896C1118.24 439.896 1116.3 439.661 1114.51 439.192C1112.76 438.723 1111.22 438.019 1109.9 437.08C1108.62 436.099 1107.59 434.904 1106.83 433.496C1106.1 432.045 1105.72 430.339 1105.67 428.376H1112.97ZM1146.35 430.36H1155.24V439H1146.35V430.36ZM223.864 471.304H231.864V517H223.864V471.304ZM242.444 483.912H247.948V473.992H255.244V483.912H261.837V489.352H255.244V507.016C255.244 507.784 255.266 508.445 255.308 509C255.394 509.555 255.543 510.024 255.756 510.408C256.012 510.792 256.375 511.091 256.844 511.304C257.314 511.475 257.954 511.56 258.764 511.56C259.276 511.56 259.788 511.56 260.3 511.56C260.812 511.517 261.325 511.432 261.837 511.304V516.936C261.026 517.021 260.237 517.107 259.469 517.192C258.7 517.277 257.911 517.32 257.101 517.32C255.18 517.32 253.623 517.149 252.428 516.808C251.276 516.424 250.359 515.891 249.676 515.208C249.036 514.483 248.588 513.587 248.332 512.52C248.119 511.453 247.991 510.237 247.948 508.872V489.352H242.444V483.912ZM295.138 471.304H302.434V488.264H302.562C303.458 486.771 304.78 485.533 306.53 484.552C308.322 483.528 310.306 483.016 312.482 483.016C316.108 483.016 318.967 483.955 321.058 485.832C323.148 487.709 324.194 490.525 324.194 494.28V517H316.898V496.2C316.812 493.597 316.258 491.72 315.234 490.568C314.21 489.373 312.61 488.776 310.434 488.776C309.196 488.776 308.087 489.011 307.106 489.48C306.124 489.907 305.292 490.525 304.61 491.336C303.927 492.104 303.394 493.021 303.01 494.088C302.626 495.155 302.434 496.285 302.434 497.48V517H295.138V471.304ZM364.719 509.64C364.719 510.536 364.826 511.176 365.039 511.56C365.295 511.944 365.765 512.136 366.447 512.136C366.661 512.136 366.917 512.136 367.215 512.136C367.514 512.136 367.855 512.093 368.239 512.008V517.064C367.983 517.149 367.642 517.235 367.215 517.32C366.831 517.448 366.426 517.555 365.999 517.64C365.573 517.725 365.146 517.789 364.719 517.832C364.293 517.875 363.93 517.896 363.631 517.896C362.138 517.896 360.901 517.597 359.919 517C358.938 516.403 358.298 515.357 357.999 513.864C356.549 515.272 354.757 516.296 352.623 516.936C350.533 517.576 348.506 517.896 346.543 517.896C345.05 517.896 343.621 517.683 342.255 517.256C340.89 516.872 339.674 516.296 338.607 515.528C337.583 514.717 336.751 513.715 336.111 512.52C335.514 511.283 335.215 509.853 335.215 508.232C335.215 506.184 335.578 504.52 336.303 503.24C337.071 501.96 338.053 500.957 339.247 500.232C340.485 499.507 341.85 498.995 343.343 498.696C344.879 498.355 346.415 498.099 347.951 497.928C349.274 497.672 350.533 497.501 351.727 497.416C352.922 497.288 353.967 497.096 354.863 496.84C355.802 496.584 356.527 496.2 357.039 495.688C357.594 495.133 357.871 494.323 357.871 493.256C357.871 492.317 357.637 491.549 357.167 490.952C356.741 490.355 356.186 489.907 355.503 489.608C354.863 489.267 354.138 489.053 353.327 488.968C352.517 488.84 351.749 488.776 351.023 488.776C348.975 488.776 347.29 489.203 345.967 490.056C344.645 490.909 343.898 492.232 343.727 494.024H336.431C336.559 491.891 337.071 490.12 337.967 488.712C338.863 487.304 339.994 486.173 341.359 485.32C342.767 484.467 344.346 483.869 346.095 483.528C347.845 483.187 349.637 483.016 351.471 483.016C353.093 483.016 354.693 483.187 356.271 483.528C357.85 483.869 359.258 484.424 360.495 485.192C361.775 485.96 362.799 486.963 363.567 488.2C364.335 489.395 364.719 490.867 364.719 492.616V509.64ZM357.423 500.424C356.314 501.149 354.949 501.597 353.327 501.768C351.706 501.896 350.085 502.109 348.463 502.408C347.695 502.536 346.949 502.728 346.223 502.984C345.498 503.197 344.858 503.517 344.303 503.944C343.749 504.328 343.301 504.861 342.959 505.544C342.661 506.184 342.511 506.973 342.511 507.912C342.511 508.723 342.746 509.405 343.215 509.96C343.685 510.515 344.239 510.963 344.879 511.304C345.562 511.603 346.287 511.816 347.055 511.944C347.866 512.072 348.591 512.136 349.231 512.136C350.042 512.136 350.917 512.029 351.855 511.816C352.794 511.603 353.669 511.24 354.479 510.728C355.333 510.216 356.037 509.576 356.591 508.808C357.146 507.997 357.423 507.016 357.423 505.864V500.424ZM383.194 506.376C383.407 508.509 384.218 510.003 385.626 510.856C387.034 511.709 388.719 512.136 390.682 512.136C391.365 512.136 392.133 512.093 392.986 512.008C393.882 511.88 394.714 511.667 395.482 511.368C396.25 511.069 396.869 510.643 397.338 510.088C397.85 509.491 398.085 508.723 398.042 507.784C397.999 506.845 397.658 506.077 397.018 505.48C396.378 504.883 395.546 504.413 394.522 504.072C393.541 503.688 392.41 503.368 391.13 503.112C389.85 502.856 388.549 502.579 387.226 502.28C385.861 501.981 384.538 501.619 383.258 501.192C382.021 500.765 380.89 500.189 379.866 499.464C378.885 498.739 378.095 497.821 377.498 496.712C376.901 495.56 376.602 494.152 376.602 492.488C376.602 490.696 377.029 489.203 377.882 488.008C378.778 486.771 379.887 485.789 381.21 485.064C382.575 484.296 384.069 483.763 385.69 483.464C387.354 483.165 388.933 483.016 390.426 483.016C392.133 483.016 393.754 483.208 395.29 483.592C396.869 483.933 398.277 484.509 399.514 485.32C400.794 486.131 401.839 487.197 402.65 488.52C403.503 489.8 404.037 491.357 404.25 493.192H396.634C396.293 491.443 395.482 490.269 394.202 489.672C392.965 489.075 391.535 488.776 389.914 488.776C389.402 488.776 388.783 488.819 388.058 488.904C387.375 488.989 386.714 489.16 386.074 489.416C385.477 489.629 384.965 489.971 384.538 490.44C384.111 490.867 383.898 491.443 383.898 492.168C383.898 493.064 384.197 493.789 384.794 494.344C385.434 494.899 386.245 495.368 387.226 495.752C388.25 496.093 389.402 496.392 390.682 496.648C391.962 496.904 393.285 497.181 394.65 497.48C395.973 497.779 397.274 498.141 398.554 498.568C399.834 498.995 400.965 499.571 401.946 500.296C402.97 501.021 403.781 501.939 404.378 503.048C405.018 504.157 405.338 505.523 405.338 507.144C405.338 509.107 404.89 510.771 403.994 512.136C403.098 513.501 401.925 514.611 400.474 515.464C399.066 516.317 397.487 516.936 395.738 517.32C393.989 517.704 392.261 517.896 390.554 517.896C388.463 517.896 386.522 517.661 384.73 517.192C382.981 516.723 381.445 516.019 380.122 515.08C378.842 514.099 377.818 512.904 377.05 511.496C376.325 510.045 375.941 508.339 375.898 506.376H383.194ZM435.602 483.912H441.106V473.992H448.402V483.912H454.994V489.352H448.402V507.016C448.402 507.784 448.423 508.445 448.466 509C448.551 509.555 448.701 510.024 448.914 510.408C449.17 510.792 449.533 511.091 450.002 511.304C450.471 511.475 451.111 511.56 451.922 511.56C452.434 511.56 452.946 511.56 453.458 511.56C453.97 511.517 454.482 511.432 454.994 511.304V516.936C454.183 517.021 453.394 517.107 452.626 517.192C451.858 517.277 451.069 517.32 450.258 517.32C448.338 517.32 446.781 517.149 445.586 516.808C444.434 516.424 443.517 515.891 442.834 515.208C442.194 514.483 441.746 513.587 441.49 512.52C441.277 511.453 441.149 510.237 441.106 508.872V489.352H435.602V483.912ZM480.53 517.896C477.885 517.896 475.517 517.469 473.426 516.616C471.378 515.72 469.629 514.504 468.178 512.968C466.77 511.432 465.682 509.597 464.914 507.464C464.189 505.331 463.826 502.984 463.826 500.424C463.826 497.907 464.189 495.581 464.914 493.448C465.682 491.315 466.77 489.48 468.178 487.944C469.629 486.408 471.378 485.213 473.426 484.36C475.517 483.464 477.885 483.016 480.53 483.016C483.176 483.016 485.522 483.464 487.57 484.36C489.661 485.213 491.41 486.408 492.818 487.944C494.269 489.48 495.357 491.315 496.082 493.448C496.85 495.581 497.234 497.907 497.234 500.424C497.234 502.984 496.85 505.331 496.082 507.464C495.357 509.597 494.269 511.432 492.818 512.968C491.41 514.504 489.661 515.72 487.57 516.616C485.522 517.469 483.176 517.896 480.53 517.896ZM480.53 512.136C482.152 512.136 483.56 511.795 484.754 511.112C485.949 510.429 486.93 509.533 487.698 508.424C488.466 507.315 489.021 506.077 489.362 504.712C489.746 503.304 489.938 501.875 489.938 500.424C489.938 499.016 489.746 497.608 489.362 496.2C489.021 494.792 488.466 493.555 487.698 492.488C486.93 491.379 485.949 490.483 484.754 489.8C483.56 489.117 482.152 488.776 480.53 488.776C478.909 488.776 477.501 489.117 476.306 489.8C475.112 490.483 474.13 491.379 473.362 492.488C472.594 493.555 472.018 494.792 471.634 496.2C471.293 497.608 471.122 499.016 471.122 500.424C471.122 501.875 471.293 503.304 471.634 504.712C472.018 506.077 472.594 507.315 473.362 508.424C474.13 509.533 475.112 510.429 476.306 511.112C477.501 511.795 478.909 512.136 480.53 512.136ZM787.861 485.64C789.184 485.171 790.165 484.445 790.805 483.464C791.445 482.483 791.765 481.309 791.765 479.944H787.861V471.304H795.861V479.944C795.861 481.181 795.648 482.312 795.221 483.336C794.794 484.317 794.218 485.213 793.493 486.024C792.768 486.792 791.914 487.475 790.933 488.072C789.994 488.627 788.97 489.053 787.861 489.352V485.64ZM775.125 485.64C776.448 485.171 777.429 484.445 778.069 483.464C778.709 482.483 779.029 481.309 779.029 479.944H775.125V471.304H783.125V479.944C783.125 481.181 782.912 482.312 782.485 483.336C782.058 484.317 781.482 485.213 780.757 486.024C780.032 486.792 779.178 487.475 778.197 488.072C777.258 488.627 776.234 489.053 775.125 489.352V485.64Z" fill="#1C1C1C"/>
<path d="M531.545 471.304H538.841V488.2H538.969C539.481 487.389 540.099 486.664 540.825 486.024C541.55 485.384 542.339 484.851 543.193 484.424C544.089 483.955 545.006 483.613 545.945 483.4C546.926 483.144 547.886 483.016 548.825 483.016C551.427 483.016 553.689 483.485 555.609 484.424C557.571 485.32 559.193 486.579 560.473 488.2C561.753 489.779 562.713 491.635 563.353 493.768C563.993 495.901 564.313 498.184 564.313 500.616C564.313 502.835 564.014 504.989 563.417 507.08C562.862 509.171 561.987 511.027 560.793 512.648C559.641 514.227 558.169 515.507 556.377 516.488C554.585 517.427 552.473 517.896 550.041 517.896C548.931 517.896 547.801 517.811 546.649 517.64C545.539 517.512 544.473 517.235 543.449 516.808C542.425 516.381 541.486 515.827 540.633 515.144C539.822 514.461 539.139 513.565 538.585 512.456H538.457V517H531.545V471.304ZM557.017 500.488C557.017 498.995 556.825 497.544 556.441 496.136C556.057 494.728 555.481 493.491 554.713 492.424C553.945 491.315 552.985 490.44 551.833 489.8C550.681 489.117 549.358 488.776 547.865 488.776C544.793 488.776 542.467 489.843 540.889 491.976C539.353 494.109 538.585 496.947 538.585 500.488C538.585 502.152 538.777 503.709 539.161 505.16C539.587 506.568 540.206 507.784 541.017 508.808C541.827 509.832 542.787 510.643 543.897 511.24C545.049 511.837 546.371 512.136 547.865 512.136C549.529 512.136 550.937 511.795 552.089 511.112C553.241 510.429 554.179 509.555 554.905 508.488C555.673 507.379 556.206 506.141 556.505 504.776C556.846 503.368 557.017 501.939 557.017 500.488ZM598.318 497.544C598.232 496.392 597.976 495.283 597.55 494.216C597.166 493.149 596.611 492.232 595.886 491.464C595.203 490.653 594.35 490.013 593.326 489.544C592.344 489.032 591.235 488.776 589.998 488.776C588.718 488.776 587.544 489.011 586.478 489.48C585.454 489.907 584.558 490.525 583.79 491.336C583.064 492.104 582.467 493.021 581.998 494.088C581.571 495.155 581.336 496.307 581.294 497.544H598.318ZM581.294 502.344C581.294 503.624 581.464 504.861 581.806 506.056C582.19 507.251 582.744 508.296 583.47 509.192C584.195 510.088 585.112 510.813 586.222 511.368C587.331 511.88 588.654 512.136 590.19 512.136C592.323 512.136 594.03 511.688 595.31 510.792C596.632 509.853 597.614 508.467 598.254 506.632H605.166C604.782 508.424 604.12 510.024 603.182 511.432C602.243 512.84 601.112 514.035 599.79 515.016C598.467 515.955 596.974 516.659 595.31 517.128C593.688 517.64 591.982 517.896 590.19 517.896C587.587 517.896 585.283 517.469 583.278 516.616C581.272 515.763 579.566 514.568 578.158 513.032C576.792 511.496 575.747 509.661 575.022 507.528C574.339 505.395 573.998 503.048 573.998 500.488C573.998 498.141 574.36 495.923 575.086 493.832C575.854 491.699 576.92 489.843 578.286 488.264C579.694 486.643 581.379 485.363 583.342 484.424C585.304 483.485 587.523 483.016 589.998 483.016C592.6 483.016 594.926 483.571 596.974 484.68C599.064 485.747 600.792 487.176 602.158 488.968C603.523 490.76 604.504 492.829 605.102 495.176C605.742 497.48 605.912 499.869 605.614 502.344H581.294ZM635.948 483.912H641.388V481.16C641.388 479.069 641.644 477.384 642.156 476.104C642.668 474.781 643.351 473.779 644.204 473.096C645.058 472.371 646.018 471.901 647.084 471.688C648.194 471.432 649.346 471.304 650.54 471.304C652.887 471.304 654.594 471.453 655.66 471.752V477.448C655.191 477.32 654.679 477.235 654.124 477.192C653.612 477.107 652.994 477.064 652.268 477.064C651.287 477.064 650.434 477.299 649.708 477.768C649.026 478.237 648.684 479.155 648.684 480.52V483.912H654.892V489.352H648.684V517H641.388V489.352H635.948V483.912ZM687.24 497.544C687.155 496.392 686.899 495.283 686.472 494.216C686.088 493.149 685.533 492.232 684.808 491.464C684.125 490.653 683.272 490.013 682.248 489.544C681.267 489.032 680.157 488.776 678.92 488.776C677.64 488.776 676.467 489.011 675.4 489.48C674.376 489.907 673.48 490.525 672.712 491.336C671.987 492.104 671.389 493.021 670.92 494.088C670.493 495.155 670.259 496.307 670.216 497.544H687.24ZM670.216 502.344C670.216 503.624 670.387 504.861 670.728 506.056C671.112 507.251 671.667 508.296 672.392 509.192C673.117 510.088 674.035 510.813 675.144 511.368C676.253 511.88 677.576 512.136 679.112 512.136C681.245 512.136 682.952 511.688 684.232 510.792C685.555 509.853 686.536 508.467 687.176 506.632H694.088C693.704 508.424 693.043 510.024 692.104 511.432C691.165 512.84 690.035 514.035 688.712 515.016C687.389 515.955 685.896 516.659 684.232 517.128C682.611 517.64 680.904 517.896 679.112 517.896C676.509 517.896 674.205 517.469 672.2 516.616C670.195 515.763 668.488 514.568 667.08 513.032C665.715 511.496 664.669 509.661 663.944 507.528C663.261 505.395 662.92 503.048 662.92 500.488C662.92 498.141 663.283 495.923 664.008 493.832C664.776 491.699 665.843 489.843 667.208 488.264C668.616 486.643 670.301 485.363 672.264 484.424C674.227 483.485 676.445 483.016 678.92 483.016C681.523 483.016 683.848 483.571 685.896 484.68C687.987 485.747 689.715 487.176 691.08 488.968C692.445 490.76 693.427 492.829 694.024 495.176C694.664 497.48 694.835 499.869 694.536 502.344H670.216ZM705.394 471.304H712.69V517H705.394V471.304ZM722.432 483.912H727.936V473.992H735.232V483.912H741.824V489.352H735.232V507.016C735.232 507.784 735.253 508.445 735.296 509C735.381 509.555 735.531 510.024 735.744 510.408C736 510.792 736.363 511.091 736.832 511.304C737.301 511.475 737.941 511.56 738.752 511.56C739.264 511.56 739.776 511.56 740.288 511.56C740.8 511.517 741.312 511.432 741.824 511.304V516.936C741.013 517.021 740.224 517.107 739.456 517.192C738.688 517.277 737.899 517.32 737.088 517.32C735.168 517.32 733.611 517.149 732.416 516.808C731.264 516.424 730.347 515.891 729.664 515.208C729.024 514.483 728.576 513.587 728.32 512.52C728.107 511.453 727.979 510.237 727.936 508.872V489.352H722.432V483.912Z" fill="#49439E"/>
<path d="M531.545 471.304H538.841V488.2H538.969C539.481 487.389 540.099 486.664 540.825 486.024C541.55 485.384 542.339 484.851 543.193 484.424C544.089 483.955 545.006 483.613 545.945 483.4C546.926 483.144 547.886 483.016 548.825 483.016C551.427 483.016 553.689 483.485 555.609 484.424C557.571 485.32 559.193 486.579 560.473 488.2C561.753 489.779 562.713 491.635 563.353 493.768C563.993 495.901 564.313 498.184 564.313 500.616C564.313 502.835 564.014 504.989 563.417 507.08C562.862 509.171 561.987 511.027 560.793 512.648C559.641 514.227 558.169 515.507 556.377 516.488C554.585 517.427 552.473 517.896 550.041 517.896C548.931 517.896 547.801 517.811 546.649 517.64C545.539 517.512 544.473 517.235 543.449 516.808C542.425 516.381 541.486 515.827 540.633 515.144C539.822 514.461 539.139 513.565 538.585 512.456H538.457V517H531.545V471.304ZM557.017 500.488C557.017 498.995 556.825 497.544 556.441 496.136C556.057 494.728 555.481 493.491 554.713 492.424C553.945 491.315 552.985 490.44 551.833 489.8C550.681 489.117 549.358 488.776 547.865 488.776C544.793 488.776 542.467 489.843 540.889 491.976C539.353 494.109 538.585 496.947 538.585 500.488C538.585 502.152 538.777 503.709 539.161 505.16C539.587 506.568 540.206 507.784 541.017 508.808C541.827 509.832 542.787 510.643 543.897 511.24C545.049 511.837 546.371 512.136 547.865 512.136C549.529 512.136 550.937 511.795 552.089 511.112C553.241 510.429 554.179 509.555 554.905 508.488C555.673 507.379 556.206 506.141 556.505 504.776C556.846 503.368 557.017 501.939 557.017 500.488ZM598.318 497.544C598.232 496.392 597.976 495.283 597.55 494.216C597.166 493.149 596.611 492.232 595.886 491.464C595.203 490.653 594.35 490.013 593.326 489.544C592.344 489.032 591.235 488.776 589.998 488.776C588.718 488.776 587.544 489.011 586.478 489.48C585.454 489.907 584.558 490.525 583.79 491.336C583.064 492.104 582.467 493.021 581.998 494.088C581.571 495.155 581.336 496.307 581.294 497.544H598.318ZM581.294 502.344C581.294 503.624 581.464 504.861 581.806 506.056C582.19 507.251 582.744 508.296 583.47 509.192C584.195 510.088 585.112 510.813 586.222 511.368C587.331 511.88 588.654 512.136 590.19 512.136C592.323 512.136 594.03 511.688 595.31 510.792C596.632 509.853 597.614 508.467 598.254 506.632H605.166C604.782 508.424 604.12 510.024 603.182 511.432C602.243 512.84 601.112 514.035 599.79 515.016C598.467 515.955 596.974 516.659 595.31 517.128C593.688 517.64 591.982 517.896 590.19 517.896C587.587 517.896 585.283 517.469 583.278 516.616C581.272 515.763 579.566 514.568 578.158 513.032C576.792 511.496 575.747 509.661 575.022 507.528C574.339 505.395 573.998 503.048 573.998 500.488C573.998 498.141 574.36 495.923 575.086 493.832C575.854 491.699 576.92 489.843 578.286 488.264C579.694 486.643 581.379 485.363 583.342 484.424C585.304 483.485 587.523 483.016 589.998 483.016C592.6 483.016 594.926 483.571 596.974 484.68C599.064 485.747 600.792 487.176 602.158 488.968C603.523 490.76 604.504 492.829 605.102 495.176C605.742 497.48 605.912 499.869 605.614 502.344H581.294ZM635.948 483.912H641.388V481.16C641.388 479.069 641.644 477.384 642.156 476.104C642.668 474.781 643.351 473.779 644.204 473.096C645.058 472.371 646.018 471.901 647.084 471.688C648.194 471.432 649.346 471.304 650.54 471.304C652.887 471.304 654.594 471.453 655.66 471.752V477.448C655.191 477.32 654.679 477.235 654.124 477.192C653.612 477.107 652.994 477.064 652.268 477.064C651.287 477.064 650.434 477.299 649.708 477.768C649.026 478.237 648.684 479.155 648.684 480.52V483.912H654.892V489.352H648.684V517H641.388V489.352H635.948V483.912ZM687.24 497.544C687.155 496.392 686.899 495.283 686.472 494.216C686.088 493.149 685.533 492.232 684.808 491.464C684.125 490.653 683.272 490.013 682.248 489.544C681.267 489.032 680.157 488.776 678.92 488.776C677.64 488.776 676.467 489.011 675.4 489.48C674.376 489.907 673.48 490.525 672.712 491.336C671.987 492.104 671.389 493.021 670.92 494.088C670.493 495.155 670.259 496.307 670.216 497.544H687.24ZM670.216 502.344C670.216 503.624 670.387 504.861 670.728 506.056C671.112 507.251 671.667 508.296 672.392 509.192C673.117 510.088 674.035 510.813 675.144 511.368C676.253 511.88 677.576 512.136 679.112 512.136C681.245 512.136 682.952 511.688 684.232 510.792C685.555 509.853 686.536 508.467 687.176 506.632H694.088C693.704 508.424 693.043 510.024 692.104 511.432C691.165 512.84 690.035 514.035 688.712 515.016C687.389 515.955 685.896 516.659 684.232 517.128C682.611 517.64 680.904 517.896 679.112 517.896C676.509 517.896 674.205 517.469 672.2 516.616C670.195 515.763 668.488 514.568 667.08 513.032C665.715 511.496 664.669 509.661 663.944 507.528C663.261 505.395 662.92 503.048 662.92 500.488C662.92 498.141 663.283 495.923 664.008 493.832C664.776 491.699 665.843 489.843 667.208 488.264C668.616 486.643 670.301 485.363 672.264 484.424C674.227 483.485 676.445 483.016 678.92 483.016C681.523 483.016 683.848 483.571 685.896 484.68C687.987 485.747 689.715 487.176 691.08 488.968C692.445 490.76 693.427 492.829 694.024 495.176C694.664 497.48 694.835 499.869 694.536 502.344H670.216ZM705.394 471.304H712.69V517H705.394V471.304ZM722.432 483.912H727.936V473.992H735.232V483.912H741.824V489.352H735.232V507.016C735.232 507.784 735.253 508.445 735.296 509C735.381 509.555 735.531 510.024 735.744 510.408C736 510.792 736.363 511.091 736.832 511.304C737.301 511.475 737.941 511.56 738.752 511.56C739.264 511.56 739.776 511.56 740.288 511.56C740.8 511.517 741.312 511.432 741.824 511.304V516.936C741.013 517.021 740.224 517.107 739.456 517.192C738.688 517.277 737.899 517.32 737.088 517.32C735.168 517.32 733.611 517.149 732.416 516.808C731.264 516.424 730.347 515.891 729.664 515.208C729.024 514.483 728.576 513.587 728.32 512.52C728.107 511.453 727.979 510.237 727.936 508.872V489.352H722.432V483.912Z" fill="url(#paint0_linear)"/>
<g opacity="0.03">
<path d="M197.414 70.3116V258.586H389.344L393 251.274L233.972 216.544L204.726 63L197.414 70.3116Z" fill="#49439E"/>
<path d="M197.414 70.3116V258.586H389.344L393 251.274L233.972 216.544L204.726 63L197.414 70.3116Z" fill="url(#paint1_linear)"/>
<path d="M195.586 448.688V260.414H3.65581L0 267.726L159.028 302.456L188.274 456L195.586 448.688Z" fill="#49439E"/>
<path d="M195.586 448.688V260.414H3.65581L0 267.726L159.028 302.456L188.274 456L195.586 448.688Z" fill="url(#paint2_linear)"/>
</g>
<path d="M228.44 562.096H234.44V560.704H228.44V562.096ZM255.043 550.864V562.528C255.043 563.312 254.995 563.984 254.899 564.544C254.803 565.104 254.635 565.568 254.395 565.936C254.155 566.288 253.827 566.552 253.411 566.728C252.995 566.888 252.467 566.968 251.827 566.968C250.979 566.968 250.331 566.808 249.883 566.488C249.451 566.152 249.139 565.752 248.947 565.288C248.755 564.824 248.643 564.336 248.611 563.824C248.579 563.312 248.555 562.872 248.539 562.504H246.907C246.907 563.256 246.971 563.984 247.099 564.688C247.227 565.392 247.467 566.016 247.819 566.56C248.171 567.088 248.659 567.52 249.283 567.856C249.907 568.176 250.707 568.336 251.683 568.336C252.611 568.336 253.387 568.232 254.011 568.024C254.651 567.816 255.163 567.504 255.547 567.088C255.947 566.672 256.235 566.144 256.411 565.504C256.587 564.864 256.675 564.104 256.675 563.224V550.864H255.043ZM266.994 556.528C267.714 556.528 268.346 556.68 268.89 556.984C269.434 557.288 269.882 557.688 270.234 558.184C270.602 558.68 270.874 559.248 271.05 559.888C271.242 560.512 271.338 561.152 271.338 561.808C271.338 562.464 271.242 563.112 271.05 563.752C270.874 564.376 270.602 564.936 270.234 565.432C269.882 565.928 269.434 566.328 268.89 566.632C268.346 566.936 267.714 567.088 266.994 567.088C266.274 567.088 265.642 566.936 265.098 566.632C264.554 566.328 264.098 565.928 263.73 565.432C263.378 564.936 263.106 564.376 262.914 563.752C262.738 563.112 262.65 562.464 262.65 561.808C262.65 561.152 262.738 560.512 262.914 559.888C263.106 559.248 263.378 558.68 263.73 558.184C264.098 557.688 264.554 557.288 265.098 556.984C265.642 556.68 266.274 556.528 266.994 556.528ZM266.994 555.256C266.05 555.256 265.21 555.432 264.474 555.784C263.754 556.136 263.146 556.608 262.65 557.2C262.154 557.792 261.778 558.488 261.522 559.288C261.266 560.072 261.138 560.912 261.138 561.808C261.138 562.704 261.266 563.552 261.522 564.352C261.778 565.136 262.154 565.824 262.65 566.416C263.146 567.008 263.754 567.48 264.474 567.832C265.21 568.168 266.05 568.336 266.994 568.336C267.938 568.336 268.77 568.168 269.49 567.832C270.226 567.48 270.842 567.008 271.338 566.416C271.834 565.824 272.21 565.136 272.466 564.352C272.722 563.552 272.85 562.704 272.85 561.808C272.85 560.912 272.722 560.072 272.466 559.288C272.21 558.488 271.834 557.792 271.338 557.2C270.842 556.608 270.226 556.136 269.49 555.784C268.77 555.432 267.938 555.256 266.994 555.256ZM276.874 559.408H278.386C278.418 558.4 278.738 557.672 279.346 557.224C279.954 556.76 280.738 556.528 281.698 556.528C282.146 556.528 282.562 556.568 282.946 556.648C283.346 556.712 283.69 556.84 283.978 557.032C284.282 557.224 284.514 557.488 284.674 557.824C284.85 558.144 284.938 558.56 284.938 559.072C284.938 559.408 284.89 559.68 284.794 559.888C284.714 560.096 284.594 560.264 284.434 560.392C284.274 560.504 284.074 560.584 283.834 560.632C283.594 560.68 283.314 560.72 282.994 560.752C282.178 560.848 281.37 560.952 280.57 561.064C279.786 561.16 279.074 561.336 278.434 561.592C277.81 561.848 277.306 562.224 276.922 562.72C276.538 563.2 276.346 563.872 276.346 564.736C276.346 565.36 276.45 565.904 276.658 566.368C276.882 566.816 277.178 567.192 277.546 567.496C277.93 567.784 278.37 567.992 278.866 568.12C279.378 568.264 279.922 568.336 280.498 568.336C281.106 568.336 281.626 568.28 282.058 568.168C282.506 568.056 282.898 567.896 283.234 567.688C283.586 567.48 283.898 567.224 284.17 566.92C284.458 566.6 284.738 566.24 285.01 565.84H285.058C285.058 566.16 285.074 566.456 285.106 566.728C285.154 566.984 285.242 567.208 285.37 567.4C285.498 567.592 285.674 567.744 285.898 567.856C286.138 567.952 286.45 568 286.834 568C287.042 568 287.21 567.992 287.338 567.976C287.482 567.96 287.642 567.936 287.818 567.904V566.632C287.674 566.696 287.514 566.728 287.338 566.728C286.746 566.728 286.45 566.424 286.45 565.816V559.24C286.45 558.408 286.314 557.736 286.042 557.224C285.77 556.696 285.418 556.288 284.986 556C284.554 555.712 284.066 555.52 283.522 555.424C282.978 555.312 282.434 555.256 281.89 555.256C281.17 555.256 280.514 555.336 279.922 555.496C279.33 555.656 278.81 555.904 278.362 556.24C277.93 556.576 277.586 557.008 277.33 557.536C277.074 558.064 276.922 558.688 276.874 559.408ZM284.938 561.232V563.2C284.938 563.808 284.818 564.352 284.578 564.832C284.354 565.312 284.042 565.72 283.642 566.056C283.258 566.392 282.802 566.648 282.274 566.824C281.746 567 281.194 567.088 280.618 567.088C280.266 567.088 279.922 567.032 279.586 566.92C279.25 566.808 278.954 566.648 278.698 566.44C278.442 566.216 278.234 565.96 278.074 565.672C277.93 565.368 277.858 565.024 277.858 564.64C277.858 564.032 278.034 563.568 278.386 563.248C278.754 562.912 279.218 562.656 279.778 562.48C280.338 562.304 280.954 562.176 281.626 562.096C282.314 562 282.978 561.896 283.618 561.784C283.826 561.752 284.066 561.696 284.338 561.616C284.61 561.536 284.794 561.408 284.89 561.232H284.938ZM291.384 550.864V568H292.896V563.296L295.344 561.256L300.24 568H302.136L296.496 560.2L301.776 555.616H299.76L292.896 561.616V550.864H291.384ZM305.328 550.864V553.288H306.84V550.864H305.328ZM305.328 555.616V568H306.84V555.616H305.328ZM311.653 555.616V568H313.165V561.088C313.165 560.432 313.237 559.832 313.381 559.288C313.525 558.728 313.741 558.248 314.029 557.848C314.333 557.432 314.717 557.112 315.181 556.888C315.661 556.648 316.221 556.528 316.861 556.528C317.341 556.528 317.749 556.608 318.085 556.768C318.421 556.928 318.685 557.152 318.877 557.44C319.085 557.712 319.229 558.04 319.309 558.424C319.405 558.792 319.453 559.184 319.453 559.6V568H320.965V560.992C320.965 560.416 321.013 559.864 321.109 559.336C321.221 558.792 321.405 558.312 321.661 557.896C321.917 557.48 322.261 557.152 322.693 556.912C323.125 556.656 323.669 556.528 324.325 556.528C325.413 556.528 326.173 556.8 326.605 557.344C327.037 557.872 327.253 558.648 327.253 559.672V568H328.765V559.6C328.765 556.704 327.397 555.256 324.661 555.256C323.845 555.256 323.077 555.456 322.357 555.856C321.637 556.256 321.093 556.864 320.725 557.68C320.501 556.864 320.053 556.256 319.381 555.856C318.725 555.456 317.989 555.256 317.173 555.256C316.165 555.256 315.333 555.472 314.677 555.904C314.037 556.336 313.517 556.936 313.117 557.704H313.045V555.616H311.653ZM344.085 559V552.256H350.181C351.429 552.256 352.357 552.56 352.965 553.168C353.573 553.776 353.877 554.608 353.877 555.664C353.877 556.192 353.773 556.664 353.565 557.08C353.373 557.48 353.109 557.824 352.773 558.112C352.437 558.4 352.045 558.624 351.597 558.784C351.149 558.928 350.677 559 350.181 559H344.085ZM342.453 550.864V568H344.085V560.392H350.277C351.045 560.36 351.645 560.488 352.077 560.776C352.525 561.064 352.861 561.448 353.085 561.928C353.325 562.392 353.477 562.928 353.541 563.536C353.621 564.128 353.677 564.728 353.709 565.336C353.725 565.512 353.741 565.72 353.757 565.96C353.773 566.2 353.789 566.448 353.805 566.704C353.837 566.944 353.877 567.184 353.925 567.424C353.989 567.648 354.069 567.84 354.165 568H355.965C355.789 567.792 355.645 567.504 355.533 567.136C355.437 566.752 355.365 566.352 355.317 565.936C355.269 565.504 355.237 565.08 355.221 564.664C355.205 564.248 355.189 563.896 355.173 563.608C355.141 563.096 355.069 562.624 354.957 562.192C354.861 561.744 354.693 561.352 354.453 561.016C354.229 560.68 353.933 560.408 353.565 560.2C353.197 559.976 352.733 559.824 352.173 559.744V559.696C353.277 559.472 354.109 558.96 354.669 558.16C355.229 557.36 355.509 556.416 355.509 555.328C355.509 554.56 355.365 553.896 355.077 553.336C354.805 552.76 354.429 552.296 353.949 551.944C353.485 551.576 352.933 551.304 352.293 551.128C351.669 550.952 351.005 550.864 350.301 550.864H342.453ZM359.287 555.616L364.231 567.952L363.703 569.344C363.575 569.632 363.455 569.896 363.343 570.136C363.231 570.376 363.095 570.576 362.935 570.736C362.775 570.912 362.583 571.048 362.359 571.144C362.151 571.24 361.879 571.288 361.543 571.288C361.367 571.288 361.191 571.272 361.015 571.24C360.855 571.224 360.687 571.2 360.511 571.168V572.44C360.639 572.488 360.783 572.512 360.943 572.512C361.119 572.528 361.359 572.544 361.663 572.56C362.143 572.56 362.535 572.512 362.839 572.416C363.159 572.336 363.431 572.192 363.655 571.984C363.895 571.792 364.111 571.52 364.303 571.168C364.495 570.832 364.703 570.4 364.927 569.872L370.303 555.616H368.791L364.975 566.176L360.895 555.616H359.287ZM384.604 568V550.864H383.092V557.968H383.044C382.884 557.52 382.652 557.128 382.348 556.792C382.06 556.456 381.724 556.176 381.34 555.952C380.956 555.712 380.54 555.536 380.092 555.424C379.66 555.312 379.212 555.256 378.748 555.256C377.804 555.256 376.98 555.432 376.276 555.784C375.588 556.136 375.012 556.616 374.548 557.224C374.084 557.816 373.74 558.512 373.516 559.312C373.292 560.096 373.18 560.928 373.18 561.808C373.18 562.688 373.292 563.528 373.516 564.328C373.74 565.112 374.084 565.808 374.548 566.416C375.012 567.008 375.588 567.48 376.276 567.832C376.98 568.168 377.804 568.336 378.748 568.336C379.196 568.336 379.644 568.272 380.092 568.144C380.556 568.016 380.988 567.84 381.388 567.616C381.788 567.376 382.14 567.088 382.444 566.752C382.764 566.416 383.004 566.048 383.164 565.648H383.212V568H384.604ZM374.692 561.808C374.692 561.168 374.764 560.536 374.908 559.912C375.068 559.272 375.308 558.704 375.628 558.208C375.964 557.712 376.388 557.312 376.9 557.008C377.412 556.688 378.028 556.528 378.748 556.528C379.548 556.528 380.22 556.688 380.764 557.008C381.324 557.312 381.772 557.712 382.108 558.208C382.46 558.704 382.708 559.272 382.852 559.912C383.012 560.536 383.092 561.168 383.092 561.808C383.092 562.448 383.012 563.088 382.852 563.728C382.708 564.352 382.46 564.912 382.108 565.408C381.772 565.904 381.324 566.312 380.764 566.632C380.22 566.936 379.548 567.088 378.748 567.088C378.028 567.088 377.412 566.936 376.9 566.632C376.388 566.312 375.964 565.904 375.628 565.408C375.308 564.912 375.068 564.352 374.908 563.728C374.764 563.088 374.692 562.448 374.692 561.808ZM389.386 550.864V568H390.898V560.776C390.914 560.168 391.01 559.608 391.186 559.096C391.378 558.568 391.634 558.12 391.954 557.752C392.29 557.368 392.69 557.072 393.154 556.864C393.634 556.64 394.178 556.528 394.786 556.528C395.394 556.528 395.898 556.624 396.298 556.816C396.714 557.008 397.042 557.272 397.282 557.608C397.522 557.944 397.69 558.344 397.786 558.808C397.882 559.256 397.93 559.744 397.93 560.272V568H399.442V560.032C399.442 559.296 399.37 558.632 399.226 558.04C399.082 557.448 398.834 556.952 398.482 556.552C398.13 556.136 397.658 555.816 397.066 555.592C396.49 555.368 395.77 555.256 394.906 555.256C394.026 555.256 393.218 555.488 392.482 555.952C391.746 556.4 391.234 557 390.946 557.752H390.898V550.864H389.386ZM409.452 556.528C410.172 556.528 410.804 556.68 411.348 556.984C411.892 557.288 412.34 557.688 412.692 558.184C413.06 558.68 413.332 559.248 413.508 559.888C413.7 560.512 413.796 561.152 413.796 561.808C413.796 562.464 413.7 563.112 413.508 563.752C413.332 564.376 413.06 564.936 412.692 565.432C412.34 565.928 411.892 566.328 411.348 566.632C410.804 566.936 410.172 567.088 409.452 567.088C408.732 567.088 408.1 566.936 407.556 566.632C407.012 566.328 406.556 565.928 406.188 565.432C405.836 564.936 405.564 564.376 405.372 563.752C405.196 563.112 405.108 562.464 405.108 561.808C405.108 561.152 405.196 560.512 405.372 559.888C405.564 559.248 405.836 558.68 406.188 558.184C406.556 557.688 407.012 557.288 407.556 556.984C408.1 556.68 408.732 556.528 409.452 556.528ZM409.452 555.256C408.508 555.256 407.668 555.432 406.932 555.784C406.212 556.136 405.604 556.608 405.108 557.2C404.612 557.792 404.236 558.488 403.98 559.288C403.724 560.072 403.596 560.912 403.596 561.808C403.596 562.704 403.724 563.552 403.98 564.352C404.236 565.136 404.612 565.824 405.108 566.416C405.604 567.008 406.212 567.48 406.932 567.832C407.668 568.168 408.508 568.336 409.452 568.336C410.396 568.336 411.228 568.168 411.948 567.832C412.684 567.48 413.3 567.008 413.796 566.416C414.292 565.824 414.668 565.136 414.924 564.352C415.18 563.552 415.308 562.704 415.308 561.808C415.308 560.912 415.18 560.072 414.924 559.288C414.668 558.488 414.292 557.792 413.796 557.2C413.3 556.608 412.684 556.136 411.948 555.784C411.228 555.432 410.396 555.256 409.452 555.256ZM419.5 550.864V568H421.012V550.864H419.5ZM425.826 555.616V568H427.338V561.088C427.338 560.432 427.41 559.832 427.554 559.288C427.698 558.728 427.914 558.248 428.202 557.848C428.506 557.432 428.89 557.112 429.354 556.888C429.834 556.648 430.394 556.528 431.034 556.528C431.514 556.528 431.922 556.608 432.258 556.768C432.594 556.928 432.858 557.152 433.05 557.44C433.258 557.712 433.402 558.04 433.482 558.424C433.578 558.792 433.626 559.184 433.626 559.6V568H435.138V560.992C435.138 560.416 435.186 559.864 435.282 559.336C435.394 558.792 435.578 558.312 435.834 557.896C436.09 557.48 436.434 557.152 436.866 556.912C437.298 556.656 437.842 556.528 438.498 556.528C439.586 556.528 440.346 556.8 440.778 557.344C441.21 557.872 441.426 558.648 441.426 559.672V568H442.938V559.6C442.938 556.704 441.57 555.256 438.834 555.256C438.018 555.256 437.25 555.456 436.53 555.856C435.81 556.256 435.266 556.864 434.898 557.68C434.674 556.864 434.226 556.256 433.554 555.856C432.898 555.456 432.162 555.256 431.346 555.256C430.338 555.256 429.506 555.472 428.85 555.904C428.21 556.336 427.69 556.936 427.29 557.704H427.218V555.616H425.826Z" fill="#1C1C1C"/>
<defs>
<linearGradient id="paint0_linear" x1="711.5" y1="298" x2="711.5" y2="613" gradientUnits="userSpaceOnUse">
<stop stop-color="white"/>
<stop offset="1" stop-color="white" stop-opacity="0"/>
</linearGradient>
<linearGradient id="paint1_linear" x1="295.207" y1="63" x2="295.207" y2="258.586" gradientUnits="userSpaceOnUse">
<stop stop-color="white"/>
<stop offset="1" stop-color="white" stop-opacity="0"/>
</linearGradient>
<linearGradient id="paint2_linear" x1="97.793" y1="456" x2="97.793" y2="260.414" gradientUnits="userSpaceOnUse">
<stop stop-color="white"/>
<stop offset="1" stop-color="white" stop-opacity="0"/>
</linearGradient>
</defs>
</svg>
