<svg width="32" height="32" viewBox="0 0 32 32" fill="none" xmlns="http://www.w3.org/2000/svg">
<rect width="32" height="31.9997" rx="8" fill="#131313"/>
<path d="M8.86 16.48C8.86 15.36 9.08667 14.38 9.54 13.54C9.99333 12.6867 10.6133 12.0267 11.4 11.56C12.2 11.0933 13.0867 10.86 14.06 10.86C15.02 10.86 15.8533 11.0667 16.56 11.48C17.2667 11.8933 17.7933 12.4133 18.14 13.04V11.04H19.98V22H18.14V19.96C17.78 20.6 17.24 21.1333 16.52 21.56C15.8133 21.9733 14.9867 22.18 14.04 22.18C13.0667 22.18 12.1867 21.94 11.4 21.46C10.6133 20.98 9.99333 20.3067 9.54 19.44C9.08667 18.5733 8.86 17.5867 8.86 16.48ZM18.14 16.5C18.14 15.6733 17.9733 14.9533 17.64 14.34C17.3067 13.7267 16.8533 13.26 16.28 12.94C15.72 12.6067 15.1 12.44 14.42 12.44C13.74 12.44 13.12 12.6 12.56 12.92C12 13.24 11.5533 13.7067 11.22 14.32C10.8867 14.9333 10.72 15.6533 10.72 16.48C10.72 17.32 10.8867 18.0533 11.22 18.68C11.5533 19.2933 12 19.7667 12.56 20.1C13.12 20.42 13.74 20.58 14.42 20.58C15.1 20.58 15.72 20.42 16.28 20.1C16.8533 19.7667 17.3067 19.2933 17.64 18.68C17.9733 18.0533 18.14 17.3267 18.14 16.5ZM23.6356 22.12C23.289 22.12 22.9956 22 22.7556 21.76C22.5156 21.52 22.3956 21.2267 22.3956 20.88C22.3956 20.5333 22.5156 20.24 22.7556 20C22.9956 19.76 23.289 19.64 23.6356 19.64C23.969 19.64 24.249 19.76 24.4756 20C24.7156 20.24 24.8356 20.5333 24.8356 20.88C24.8356 21.2267 24.7156 21.52 24.4756 21.76C24.249 22 23.969 22.12 23.6356 22.12Z" fill="white"/>
</svg>
