<svg width="32" height="32" viewBox="0 0 32 32" fill="none" xmlns="http://www.w3.org/2000/svg">
<path d="M27.9152 10.7526C28.4946 10.4308 28.7034 9.70022 28.3815 9.1209C28.0597 8.54156 27.3292 8.33283 26.7498 8.65468L27.9152 10.7526ZM5.24863 8.65468C4.66928 8.33283 3.93872 8.54156 3.61687 9.1209C3.29501 9.70024 3.50375 10.4308 4.08309 10.7526L5.24863 8.65468ZM14.7992 28.6665C14.7992 29.3293 15.3365 29.8665 15.9992 29.8665C16.662 29.8665 17.1992 29.3293 17.1992 28.6665H14.7992ZM26.7498 8.65468L15.4164 14.9509L16.582 17.0489L27.9152 10.7526L26.7498 8.65468ZM16.582 14.9509L5.24863 8.65468L4.08309 10.7526L15.4164 17.0489L16.582 14.9509ZM14.7992 15.9999L14.7992 28.6665H17.1992V15.9999L14.7992 15.9999ZM16.4525 4.29129L26.3192 9.7727L27.4847 7.67476L17.6181 2.19333L16.4525 4.29129ZM5.19924 21.4113V10.5886H2.79924V21.4113H5.19924ZM5.6793 9.77272L15.546 4.29129L14.3804 2.19333L4.51376 7.67476L5.6793 9.77272ZM15.546 27.7086L5.6793 22.2271L4.51376 24.3251L14.3804 29.8065L15.546 27.7086ZM26.7992 10.5886V21.4113H29.1992V10.5886H26.7992ZM26.3192 22.2271L16.4525 27.7086L17.6181 29.8065L27.4847 24.3251L26.3192 22.2271ZM26.7992 21.4113C26.7992 21.6537 26.7988 21.7832 26.793 21.8786C26.788 21.96 26.782 21.9559 26.7925 21.9239L29.0714 22.6767C29.2136 22.2461 29.1992 21.7855 29.1992 21.4113H26.7992ZM27.4847 24.3251C27.8119 24.1434 28.2215 23.9323 28.5288 23.5988L26.7639 21.9724C26.7868 21.9476 26.7935 21.9509 26.7247 21.9948C26.644 22.0461 26.5311 22.1095 26.3192 22.2271L27.4847 24.3251ZM26.7925 21.9239C26.7866 21.9418 26.7768 21.9584 26.7639 21.9724L28.5288 23.5988C28.7733 23.3335 28.9583 23.0192 29.0714 22.6767L26.7925 21.9239ZM14.3804 29.8065C14.6906 29.9788 15.0658 30.2022 15.4889 30.2892L15.9724 27.9384C16.0034 27.9448 16.004 27.9515 15.9349 27.9182C15.8537 27.879 15.7467 27.8202 15.546 27.7086L14.3804 29.8065ZM16.4525 27.7086C16.2517 27.8202 16.1447 27.879 16.0636 27.9182C15.9944 27.9515 15.9951 27.9448 16.0261 27.9384L16.5096 30.2892C16.9327 30.2022 17.3079 29.9788 17.6181 29.8065L16.4525 27.7086ZM15.4889 30.2892C15.8256 30.3585 16.1728 30.3585 16.5096 30.2892L16.0261 27.9384C16.0084 27.9421 15.9901 27.9421 15.9724 27.9384L15.4889 30.2892ZM5.19924 10.5886C5.19924 10.3462 5.19973 10.2167 5.20548 10.1213C5.21039 10.0398 5.21655 10.044 5.20597 10.076L2.92712 9.32312C2.78484 9.75379 2.79924 10.2143 2.79924 10.5886H5.19924ZM4.51376 7.67476C4.18658 7.85651 3.77701 8.06757 3.46964 8.40112L5.23452 10.0275C5.21165 10.0523 5.205 10.049 5.27386 10.0051C5.35442 9.95377 5.4674 9.89045 5.6793 9.77272L4.51376 7.67476ZM5.20597 10.076C5.21192 10.058 5.22165 10.0415 5.23452 10.0275L3.46964 8.40112C3.22524 8.66633 3.04028 8.98068 2.92712 9.32312L5.20597 10.076ZM2.79924 21.4113C2.79924 21.7855 2.78484 22.2461 2.92712 22.6767L5.20597 21.9239C5.21655 21.9559 5.21039 21.96 5.20548 21.8786C5.19973 21.7832 5.19924 21.6537 5.19924 21.4113H2.79924ZM5.6793 22.2271C5.4674 22.1095 5.35442 22.0461 5.27386 21.9948C5.205 21.9509 5.21165 21.9476 5.23452 21.9724L3.46964 23.5988C3.77701 23.9323 4.1866 24.1434 4.51376 24.3251L5.6793 22.2271ZM2.92712 22.6767C3.04028 23.0192 3.22524 23.3335 3.46964 23.5988L5.23452 21.9724C5.22165 21.9584 5.21192 21.9418 5.20597 21.9239L2.92712 22.6767ZM26.3192 9.7727C26.5311 9.89043 26.644 9.95377 26.7247 10.0051C26.7935 10.049 26.7868 10.0523 26.7639 10.0275L28.5288 8.40112C28.2215 8.06757 27.8119 7.85651 27.4847 7.67476L26.3192 9.7727ZM29.1992 10.5886C29.1992 10.2143 29.2136 9.75379 29.0714 9.32311L26.7925 10.076C26.782 10.044 26.788 10.0398 26.793 10.1213C26.7988 10.2167 26.7992 10.3462 26.7992 10.5886H29.1992ZM26.7639 10.0275C26.7768 10.0415 26.7866 10.058 26.7925 10.076L29.0714 9.32311C28.9583 8.98068 28.7733 8.66633 28.5288 8.40112L26.7639 10.0275ZM17.6181 2.19333C17.3079 2.02101 16.9327 1.79765 16.5096 1.71063L16.0261 4.0614C15.9951 4.05502 15.9944 4.04833 16.0636 4.08166C16.1447 4.12083 16.2517 4.17975 16.4525 4.29129L17.6181 2.19333ZM15.546 4.29129C15.7467 4.17975 15.8537 4.12083 15.9349 4.08166C16.004 4.04833 16.0034 4.05502 15.9724 4.0614L15.4889 1.71063C15.0658 1.79765 14.6906 2.02101 14.3804 2.19333L15.546 4.29129ZM16.5096 1.71063C16.1728 1.64138 15.8256 1.64138 15.4889 1.71063L15.9724 4.0614C15.9901 4.05775 16.0084 4.05775 16.0261 4.0614L16.5096 1.71063Z" fill="black"/>
</svg>
