<svg width="32" height="32" viewBox="0 0 32 32" fill="none" xmlns="http://www.w3.org/2000/svg">
<path d="M3.35505 8.35041C2.81212 7.97037 2.06388 8.1024 1.68382 8.64534C1.30376 9.18828 1.43581 9.93649 1.97875 10.3166L3.35505 8.35041ZM30.0217 10.3166C30.5646 9.93649 30.6968 9.18828 30.3166 8.64534C29.9366 8.1024 29.1883 7.97037 28.6454 8.35041L30.0217 10.3166ZM9.06691 6.53352H22.9336V4.13355H9.06691V6.53352ZM28.1336 11.7335V20.2667H30.5336V11.7335H28.1336ZM22.9336 25.4666H9.06691V27.8666H22.9336V25.4666ZM3.86691 20.2667V11.7335H1.4669V20.2667H3.86691ZM9.06691 25.4666C7.92699 25.4666 7.14424 25.4656 6.53744 25.4162C5.94464 25.3677 5.62619 25.2789 5.39572 25.1615L4.30616 27.2999C4.93134 27.6184 5.60078 27.7475 6.342 27.8082C7.0692 27.8675 7.9666 27.8666 9.06691 27.8666V25.4666ZM1.4669 20.2667C1.4669 21.367 1.46597 22.2644 1.52538 22.9916C1.58594 23.7329 1.71512 24.4023 2.03366 25.0274L4.17208 23.9378C4.05465 23.7074 3.96585 23.389 3.91742 22.7962C3.86784 22.1894 3.86691 21.4066 3.86691 20.2667H1.4669ZM5.39572 25.1615C4.86888 24.893 4.44052 24.4647 4.17208 23.9378L2.03366 25.0274C2.5322 26.0058 3.32771 26.8013 4.30616 27.2999L5.39572 25.1615ZM28.1336 20.2667C28.1336 21.4066 28.1326 22.1894 28.083 22.7962C28.0347 23.389 27.9457 23.7074 27.8285 23.9378L29.9669 25.0274C30.2854 24.4023 30.4145 23.7329 30.475 22.9916C30.5345 22.2644 30.5336 21.367 30.5336 20.2667H28.1336ZM22.9336 27.8666C24.0339 27.8666 24.9313 27.8675 25.6585 27.8082C26.3997 27.7475 27.0691 27.6184 27.6944 27.2999L26.6048 25.1615C26.3742 25.2789 26.0558 25.3677 25.463 25.4162C24.8563 25.4656 24.0734 25.4666 22.9336 25.4666V27.8666ZM27.8285 23.9378C27.56 24.4647 27.1317 24.893 26.6048 25.1615L27.6944 27.2999C28.6728 26.8013 29.4683 26.0058 29.9669 25.0274L27.8285 23.9378ZM22.9336 6.53352C24.0734 6.53352 24.8563 6.53445 25.463 6.58403C26.0558 6.63246 26.3742 6.72126 26.6048 6.83869L27.6944 4.70029C27.0691 4.38175 26.3997 4.25258 25.6585 4.19203C24.9313 4.1326 24.0339 4.13355 22.9336 4.13355V6.53352ZM30.5336 11.7335C30.5336 10.6332 30.5345 9.73578 30.475 9.00858C30.4145 8.26737 30.2854 7.59794 29.9669 6.97276L27.8285 8.06232C27.9457 8.29278 28.0347 8.61123 28.083 9.204C28.1326 9.81081 28.1336 10.5936 28.1336 11.7335H30.5336ZM26.6048 6.83869C27.1317 7.10713 27.56 7.53548 27.8285 8.06232L29.9669 6.97276C29.4683 5.99433 28.6728 5.19883 27.6944 4.70029L26.6048 6.83869ZM9.06691 4.13355C7.9666 4.13355 7.0692 4.1326 6.342 4.19203C5.60078 4.25258 4.93134 4.38175 4.30616 4.70029L5.39572 6.83869C5.62619 6.72126 5.94464 6.63246 6.53742 6.58403C7.14424 6.53445 7.92699 6.53352 9.06691 6.53352V4.13355ZM3.86691 11.7335C3.86691 10.5936 3.86784 9.81081 3.91742 9.204C3.96585 8.61123 4.05465 8.29278 4.17208 8.06232L2.03366 6.97276C1.71512 7.59794 1.58594 8.26737 1.52538 9.00858C1.46597 9.73578 1.4669 10.6332 1.4669 11.7335H3.86691ZM4.30616 4.70029C3.32771 5.19883 2.5322 5.99433 2.03366 6.97276L4.17208 8.06232C4.44052 7.53548 4.86888 7.10713 5.39572 6.83869L4.30616 4.70029Z" fill="black"/>
<path d="M9 11H22.8039" stroke="black" stroke-width="2.6" stroke-linecap="round"/>
<path d="M9.00195 16H22.8059" stroke="black" stroke-width="2.6" stroke-linecap="round"/>
<path d="M9.00195 21H15.6038" stroke="black" stroke-width="2.6" stroke-linecap="round"/>
</svg>
