<svg width="32" height="32" viewBox="0 0 32 32" fill="none" xmlns="http://www.w3.org/2000/svg">
<path d="M19.6405 4.42154C20.2728 4.62013 20.9464 4.26854 21.145 3.63626C21.3436 3.00398 20.992 2.33044 20.3597 2.13185L19.6405 4.42154ZM28.7991 9.10913C28.4845 8.52584 27.7567 8.30805 27.1733 8.62268C26.59 8.9373 26.3722 9.66521 26.6869 10.2485L28.7991 9.10913ZM22.6668 15.9995L21.8183 16.8481C22.2869 17.3167 23.0468 17.3167 23.5154 16.8481L22.6668 15.9995ZM22.6668 6.46625C22.004 6.46625 21.4668 7.00351 21.4668 7.66624C21.4668 8.32898 22.004 8.86623 22.6668 8.86623V6.46625ZM22.6735 8.86623C23.3362 8.86623 23.8735 8.32898 23.8735 7.66624C23.8735 7.00351 23.3362 6.46625 22.6735 6.46625V8.86623ZM12.8002 29.1836C12.8002 29.8463 13.3374 30.3836 14.0001 30.3838C14.6629 30.3838 15.2002 29.8465 15.2002 29.1838L12.8002 29.1836ZM2.64592 13.2852C1.98578 13.344 1.49831 13.9268 1.55711 14.5869C1.61591 15.2471 2.19871 15.7346 2.85884 15.6758L2.64592 13.2852ZM28.1335 15.9995C28.1335 22.7005 22.7012 28.1327 16.0001 28.1327V30.5327C24.0266 30.5327 30.5335 24.0259 30.5335 15.9995H28.1335ZM16.0001 28.1327C9.29908 28.1327 3.8668 22.7005 3.8668 15.9995H1.4668C1.4668 24.0259 7.97359 30.5327 16.0001 30.5327V28.1327ZM3.8668 15.9995C3.8668 9.29851 9.29908 3.86628 16.0001 3.86628V1.46631C7.97359 1.46631 1.4668 7.97303 1.4668 15.9995H3.8668ZM16.0001 3.86628C17.2704 3.86628 18.4928 4.06108 19.6405 4.42154L20.3597 2.13185C18.982 1.69913 17.5172 1.46631 16.0001 1.46631V3.86628ZM26.6869 10.2485C27.6093 11.9588 28.1335 13.9162 28.1335 15.9995H30.5335C30.5335 13.5087 29.9058 11.1609 28.7991 9.10913L26.6869 10.2485ZM26.8002 7.99958C26.8002 9.09187 26.3096 10.1683 25.3828 11.3719C24.444 12.5908 23.1914 13.7778 21.8183 15.151L23.5154 16.8481C24.8088 15.5546 26.2229 14.2143 27.2842 12.8363C28.3573 11.443 29.2002 9.85276 29.2002 7.99958H26.8002ZM23.5154 15.151C22.1421 13.7778 20.8896 12.5908 19.9509 11.3719C19.0239 10.1683 18.5335 9.09187 18.5335 7.99958H16.1335C16.1335 9.85276 16.9764 11.443 18.0495 12.8363C19.1106 14.2143 20.5248 15.5546 21.8183 16.8481L23.5154 15.151ZM18.5335 7.99958C18.5335 5.71682 20.384 3.86628 22.6668 3.86628V1.46631C19.0586 1.46631 16.1335 4.39134 16.1335 7.99958H18.5335ZM22.6668 3.86628C24.9496 3.86628 26.8002 5.71682 26.8002 7.99958H29.2002C29.2002 4.39134 26.2751 1.46631 22.6668 1.46631V3.86628ZM22.6668 8.86623H22.6735V6.46625H22.6668V8.86623ZM21.8002 7.66624C21.8002 7.1876 22.1882 6.79959 22.6668 6.79959V9.19957C23.5136 9.19957 24.2002 8.51308 24.2002 7.66624H21.8002ZM22.6668 6.79959C23.1455 6.79959 23.5335 7.1876 23.5335 7.66624H21.1335C21.1335 8.51308 21.82 9.19957 22.6668 9.19957V6.79959ZM23.5335 7.66624C23.5335 8.14489 23.1455 8.5329 22.6668 8.5329V6.13293C21.82 6.13293 21.1335 6.81941 21.1335 7.66624H23.5335ZM22.6668 8.5329C22.1882 8.5329 21.8002 8.14489 21.8002 7.66624H24.2002C24.2002 6.81941 23.5136 6.13293 22.6668 6.13293V8.5329ZM12.8003 26.2459L12.8002 29.1836L15.2002 29.1838L15.2003 26.246L12.8003 26.2459ZM13.2497 25.0312C12.9598 25.3696 12.8004 25.8003 12.8003 26.2459L15.2003 26.246C15.2003 26.3732 15.1548 26.4964 15.072 26.5931L13.2497 25.0312ZM16.564 21.1643L13.2497 25.0312L15.072 26.5931L18.3863 22.7262L16.564 21.1643ZM16.7044 21.9746C16.4136 21.8083 16.3463 21.4186 16.564 21.1643L18.3863 22.7262C19.149 21.8365 18.9127 20.4722 17.8952 19.8908L16.7044 21.9746ZM12.8961 19.7983L16.7044 21.9746L17.8952 19.8908L14.0869 17.7146L12.8961 19.7983ZM12.201 19.1028C12.3664 19.3925 12.6064 19.6328 12.8961 19.7983L14.0869 17.7146C14.1697 17.7618 14.2382 17.8305 14.2855 17.9133L12.201 19.1028ZM9.7185 14.7524L12.201 19.1028L14.2855 17.9133L11.803 13.5629L9.7185 14.7524ZM10.229 15.0193C10.0213 15.0378 9.82186 14.9336 9.7185 14.7524L11.803 13.5629C11.4412 12.929 10.7432 12.564 10.0161 12.6288L10.229 15.0193ZM2.85884 15.6758L10.229 15.0193L10.0161 12.6288L2.64592 13.2852L2.85884 15.6758Z" fill="black"/>
</svg>
