<svg width="25" height="19" viewBox="0 0 25 19" fill="none" xmlns="http://www.w3.org/2000/svg">
<path d="M1 15.0708C1 11.1897 4.5634 5.07464 7.15315 2.48489C11.623 -1.98497 12.4213 6.35446 12.4213 9.56909C12.4213 11.2359 12.1783 13.5771 11.3485 15.0708C11.0069 15.6856 8.87748 18.3304 8.33058 16.4162C7.81581 14.6145 10.9138 12.2395 11.9648 11.2194C13.3858 9.84021 14.7577 9.5979 16.5296 9.00727" stroke="black" stroke-width="1.11875" stroke-linecap="round"/>
<path d="M23.3742 4.16309C24.493 11.9944 23.3742 14.5116 21.6961 16.1897C20.2976 17.5882 15.543 19.7007 15.543 15.6303C15.543 14.6613 15.543 13.9522 16.1176 12.459" stroke="black" stroke-width="1.11875" stroke-linecap="round"/>
</svg>
