<svg width="512" height="512" viewBox="0 0 512 512" fill="none" xmlns="http://www.w3.org/2000/svg">
<rect width="512" height="512" rx="26" fill="white"/>
<path d="M310.283 414.361L273.029 91.4733C313.639 90.9738 342.684 99.228 363.885 113.901C386.26 129.385 400.728 152.591 410.538 182.416C420.379 212.334 425.375 248.422 429.1 289.096C430.626 305.767 431.947 323.338 433.314 341.519C435.079 364.989 436.92 389.477 439.379 414.361H310.283ZM278.715 317.544C278.715 374.575 232.483 420.808 175.452 420.808C118.421 420.808 72.1883 374.575 72.1883 317.544C72.1883 260.514 118.421 214.281 175.452 214.281C232.483 214.281 278.715 260.514 278.715 317.544ZM176.245 180.605C165.708 184.969 154.535 187.552 143.182 188.263L143.182 91.6555H239.79C239.079 103.009 236.496 114.182 232.131 124.719C226.942 137.247 219.335 148.631 209.746 158.22C200.157 167.809 188.774 175.415 176.245 180.605Z" fill="black" stroke="black" stroke-width="12.9079"/>
</svg>
