<svg width="102" height="41" viewBox="0 0 102 41" fill="none" xmlns="http://www.w3.org/2000/svg">
<path d="M7.5 17.5L5.5 5.5L15.5 11.5L10 13L7.5 17.5Z" fill="#686DE0"/>
<path d="M5.7571 5.07104L4.8291 4.51404L5.0071 5.58204L7.0071 17.582L7.2421 18.994L7.9371 17.743L10.3351 13.427L15.6321 11.982L16.7621 11.674L15.7571 11.071L5.7571 5.07104Z" stroke="white"/>
<rect x="17" y="17" width="85" height="24" rx="4" fill="#686DE0"/>
<path d="M43.42 34L47.032 24.2H48.278L51.876 34H50.63L47.648 25.67L44.652 34H43.42ZM45.072 31.48L45.408 30.528H49.846L50.182 31.48H45.072ZM53.2769 34V26.944H54.3409L54.3969 28.176C54.6209 27.7373 54.9382 27.3967 55.3489 27.154C55.7689 26.902 56.2449 26.776 56.7769 26.776C57.3275 26.776 57.8035 26.888 58.2049 27.112C58.6062 27.3267 58.9189 27.658 59.1429 28.106C59.3669 28.5447 59.4789 29.1047 59.4789 29.786V34H58.3029V29.912C58.3029 29.2027 58.1442 28.6707 57.8269 28.316C57.5189 27.9613 57.0802 27.784 56.5109 27.784C56.1189 27.784 55.7689 27.882 55.4609 28.078C55.1529 28.2647 54.9055 28.54 54.7189 28.904C54.5415 29.2587 54.4529 29.702 54.4529 30.234V34H53.2769ZM61.3159 34V26.944H62.3799L62.4359 28.176C62.6599 27.7373 62.9773 27.3967 63.3879 27.154C63.8079 26.902 64.2839 26.776 64.8159 26.776C65.3666 26.776 65.8426 26.888 66.2439 27.112C66.6453 27.3267 66.9579 27.658 67.1819 28.106C67.4059 28.5447 67.5179 29.1047 67.5179 29.786V34H66.3419V29.912C66.3419 29.2027 66.1833 28.6707 65.8659 28.316C65.5579 27.9613 65.1193 27.784 64.5499 27.784C64.1579 27.784 63.8079 27.882 63.4999 28.078C63.1919 28.2647 62.9446 28.54 62.7579 28.904C62.5806 29.2587 62.4919 29.702 62.4919 30.234V34H61.3159ZM71.651 34.168C71.0817 34.168 70.6057 34.07 70.223 33.874C69.8403 33.6687 69.5557 33.4027 69.369 33.076C69.1823 32.74 69.089 32.376 69.089 31.984C69.089 31.508 69.2103 31.1067 69.453 30.78C69.705 30.444 70.055 30.192 70.503 30.024C70.9603 29.8467 71.497 29.758 72.113 29.758H73.975C73.975 29.3193 73.905 28.9553 73.765 28.666C73.6343 28.3673 73.4383 28.1433 73.177 27.994C72.925 27.8447 72.6077 27.77 72.225 27.77C71.777 27.77 71.3897 27.882 71.063 28.106C70.7363 28.33 70.5357 28.6613 70.461 29.1H69.257C69.313 28.596 69.481 28.176 69.761 27.84C70.0503 27.4947 70.4143 27.2333 70.853 27.056C71.2917 26.8693 71.749 26.776 72.225 26.776C72.8783 26.776 73.4197 26.8973 73.849 27.14C74.2877 27.3733 74.6143 27.7047 74.829 28.134C75.0437 28.554 75.151 29.0533 75.151 29.632V34H74.101L74.031 32.754C73.9377 32.95 73.8163 33.1367 73.667 33.314C73.527 33.482 73.359 33.6313 73.163 33.762C72.967 33.8833 72.743 33.9813 72.491 34.056C72.2483 34.1307 71.9683 34.168 71.651 34.168ZM71.833 33.174C72.1597 33.174 72.4537 33.1087 72.715 32.978C72.9857 32.838 73.2143 32.6513 73.401 32.418C73.5877 32.1753 73.7277 31.9093 73.821 31.62C73.9237 31.3307 73.975 31.0273 73.975 30.71V30.668H72.211C71.7537 30.668 71.385 30.724 71.105 30.836C70.825 30.9387 70.6243 31.088 70.503 31.284C70.3817 31.4707 70.321 31.6853 70.321 31.928C70.321 32.18 70.377 32.3993 70.489 32.586C70.6103 32.7727 70.783 32.9173 71.007 33.02C71.2403 33.1227 71.5157 33.174 71.833 33.174Z" fill="white"/>
</svg>
