<svg width="64" height="64" viewBox="0 0 64 64" fill="none" xmlns="http://www.w3.org/2000/svg">
<rect width="64" height="64" fill="black"/>
<path d="M17.5469 40.1643V23.0117H20.6541V30.2731H28.6023V23.0117H31.7179V40.1643H28.6023V32.8778H20.6541V40.1643H17.5469Z" fill="white"/>
<path d="M36.8478 44.9885C36.4346 44.9885 36.0521 44.955 35.7003 44.888C35.3542 44.8266 35.0778 44.754 34.8712 44.6703L35.5747 42.3084C36.0158 42.4368 36.4095 42.4983 36.7556 42.4927C37.1018 42.4871 37.4061 42.3782 37.6685 42.166C37.9366 41.9594 38.1627 41.6133 38.3469 41.1275L38.6066 40.4324L33.9415 27.2999H37.1577L40.1225 37.0152H40.2565L43.2297 27.2999H46.4542L41.3034 41.7222C41.0633 42.4033 40.7451 42.9868 40.3486 43.4726C39.9522 43.9639 39.4664 44.338 38.8913 44.5949C38.3218 44.8573 37.6406 44.9885 36.8478 44.9885Z" fill="white"/>
</svg>
