<svg width="64" height="64" viewBox="0 0 64 64" fill="none" xmlns="http://www.w3.org/2000/svg">
<path fill-rule="evenodd" clip-rule="evenodd" d="M12 0C5.37258 0 0 5.37258 0 12V52C0 58.6274 5.37258 64 12 64H52C58.6274 64 64 58.6274 64 52V12C64 5.37258 58.6274 0 52 0H12ZM13.479 23.7368V49H22.558V23.7368H13.479ZM14.8606 19.8882C15.7378 20.6996 16.7904 21.1053 18.0185 21.1053C19.2575 21.1053 20.3102 20.6996 21.1764 19.8882C22.0536 19.0768 22.4922 18.1009 22.4922 16.9605C22.4922 15.8202 22.0536 14.8443 21.1764 14.0329C20.3102 13.2215 19.2575 12.8158 18.0185 12.8158C16.7904 12.8158 15.7378 13.2215 14.8606 14.0329C13.9834 14.8443 13.5448 15.8202 13.5448 16.9605C13.5448 18.1009 13.9834 19.0768 14.8606 19.8882ZM36.2627 49V34.7895C36.2737 33.9561 36.4272 33.2434 36.7233 32.6513C37.0193 32.0482 37.4415 31.5877 37.9897 31.2697C38.5489 30.9408 39.2013 30.7763 39.947 30.7763C41.0873 30.7763 41.9755 31.1327 42.6114 31.8454C43.2584 32.5581 43.5763 33.5395 43.5654 34.7895V49H52.6443V32.8816C52.6553 31.0504 52.2934 29.4221 51.5588 27.9967C50.8351 26.5713 49.8099 25.4529 48.4831 24.6414C47.1674 23.8191 45.6158 23.4079 43.8285 23.4079C41.9755 23.4079 40.3527 23.8629 38.9601 24.773C37.5785 25.6831 36.6136 26.9386 36.0654 28.5395H35.8022V23.7368H27.1838V49H36.2627Z" fill="black"/>
</svg>
