<svg width="91" height="21" viewBox="0 0 91 21" fill="none" xmlns="http://www.w3.org/2000/svg">
<path d="M11.0479 20.4316C9.69875 20.4316 8.36276 20.1765 7.11627 19.6808C5.86977 19.1852 4.73718 18.4586 3.78315 17.5428C2.82912 16.6269 2.07234 15.5396 1.55603 14.343C1.03971 13.1464 0.773973 11.8638 0.773973 10.5686C0.773973 9.27335 1.03971 7.9908 1.55603 6.79417C2.07235 5.59753 2.82912 4.51024 3.78315 3.59438C4.73718 2.67851 5.86977 1.95201 7.11627 1.45634C8.36276 0.96068 9.69875 0.705566 11.0479 0.705566L18.9932 0.705566C19.7497 0.705566 20.363 1.31888 20.363 2.07543L20.363 10.2946L20.363 19.0617C20.363 19.8183 19.7497 20.4316 18.9932 20.4316L11.0479 20.4316Z" fill="black"/>
<path d="M24.1986 10.9794C24.1986 9.63017 24.4537 8.29418 24.9494 7.04768C25.4451 5.80119 26.1716 4.66859 27.0874 3.71457C28.0033 2.76054 29.0906 2.00376 30.2872 1.48745C31.4839 0.971133 32.7664 0.705392 34.0616 0.705392C35.3569 0.705392 36.6394 0.971133 37.8361 1.48745C39.0327 2.00376 40.12 2.76054 41.0358 3.71457C41.9517 4.6686 42.6782 5.80119 43.1739 7.04769C43.6695 8.29418 43.9247 9.63017 43.9247 10.9794L43.9247 18.9246C43.9247 19.6811 43.3113 20.2944 42.5548 20.2944L34.3356 20.2944L25.5685 20.2944C24.8119 20.2944 24.1986 19.6811 24.1986 18.9246L24.1986 10.9794Z" fill="black"/>
<path d="M47.7603 10.9794C47.7603 9.63017 48.0154 8.29418 48.5111 7.04768C49.0067 5.80119 49.7332 4.66859 50.6491 3.71457C51.565 2.76054 52.6522 2.00376 53.8489 1.48745C55.0455 0.971133 56.3281 0.705392 57.6233 0.705392C58.9185 0.705392 60.2011 0.971133 61.3977 1.48745C62.5943 2.00376 63.6816 2.76054 64.5975 3.71457C65.5134 4.6686 66.2399 5.80119 66.7355 7.04769C67.2312 8.29418 67.4863 9.63017 67.4863 10.9794L67.4863 18.9246C67.4863 19.6811 66.873 20.2944 66.1164 20.2944L57.8973 20.2944L49.1301 20.2944C48.3736 20.2944 47.7603 19.6811 47.7603 18.9246L47.7603 10.9794Z" fill="black"/>
<path d="M80.774 20.4316C79.4248 20.4316 78.0888 20.1765 76.8423 19.6808C75.5958 19.1852 74.4632 18.4586 73.5092 17.5428C72.5552 16.6269 71.7984 15.5396 71.2821 14.343C70.7658 13.1464 70.5 11.8638 70.5 10.5686C70.5 9.27335 70.7658 7.9908 71.2821 6.79417C71.7984 5.59753 72.5552 4.51024 73.5092 3.59438C74.4632 2.67851 75.5958 1.95201 76.8423 1.45634C78.0888 0.960681 79.4248 0.705566 80.774 0.705567L88.7192 0.705566C89.4757 0.705566 90.0891 1.31888 90.0891 2.07543L90.0891 10.2946L90.0891 19.0617C90.0891 19.8183 89.4757 20.4316 88.7192 20.4316L80.774 20.4316Z" fill="black"/>
</svg>
