<svg width="16" height="16" viewBox="0 0 16 16" fill="none" xmlns="http://www.w3.org/2000/svg">
<g clip-path="url(#clip0_346_18342)">
<path d="M12.001 7.49414C11.7532 7.49414 11.5977 7.63181 11.5977 7.93331V8.51152H12.403V7.93331C12.403 7.63869 12.2433 7.49414 12.001 7.49414Z" fill="#111112"/>
<path d="M8 0C6.41775 0 4.87103 0.469192 3.55544 1.34824C2.23985 2.22729 1.21447 3.47672 0.608967 4.93853C0.00346631 6.40034 -0.15496 8.00887 0.153721 9.56072C0.462403 11.1126 1.22433 12.538 2.34315 13.6569C3.46197 14.7757 4.88743 15.5376 6.43928 15.8463C7.99113 16.155 9.59966 15.9965 11.0615 15.391C12.5233 14.7855 13.7727 13.7602 14.6518 12.4446C15.5308 11.129 16 9.58225 16 8C16 5.87827 15.1571 3.84344 13.6569 2.34315C12.1566 0.842855 10.1217 0 8 0ZM5.78214 8C5.78323 7.41212 6.01725 6.84863 6.43294 6.43294C6.84864 6.01725 7.41213 5.78323 8 5.78214V6.44295C7.58703 6.44332 7.19106 6.60744 6.89892 6.89932C6.60678 7.1912 6.44231 7.58703 6.44158 8H5.78214ZM8.07848 13.9446C7.26072 13.9446 6.9248 13.482 6.86147 12.9988H7.43418C7.5099 13.2741 7.67786 13.4118 8.07297 13.4118C8.39649 13.4118 8.56445 13.292 8.56445 13.0924C8.56445 12.8928 8.36896 12.857 7.8761 12.7496C7.38324 12.6422 6.93031 12.4825 6.93031 11.9319C6.93031 11.3454 7.45345 11.0535 7.98348 11.0535C8.73378 11.0535 9.04492 11.4569 9.10825 11.9195H8.53554C8.47496 11.724 8.33592 11.5849 7.99312 11.5849C7.65032 11.5849 7.5099 11.7226 7.5099 11.9084C7.5099 12.0943 7.64757 12.1122 8.01652 12.192C8.7627 12.3517 9.14129 12.5156 9.14129 13.0704C9.13991 13.7216 8.54931 13.9446 8.07848 13.9446ZM11.0563 9.08622V7.91051C11.0563 7.31165 11.4073 6.91654 11.9938 6.91654C12.5803 6.91654 12.941 7.31165 12.941 7.91051V8.51351H13.8427V9.08622H11.0563Z" fill="#111112"/>
</g>
<defs>
<clipPath id="clip0_346_18342">
<rect width="16" height="16" fill="white"/>
</clipPath>
</defs>
</svg>
