<svg width="14" height="21" viewBox="0 0 14 21" fill="none" xmlns="http://www.w3.org/2000/svg">
<g clip-path="url(#clip0_346_18337)">
<path d="M3.5093 9.37488C2.32179 7.82799 1.17742 6.33735 0 4.80226C1.25267 3.40689 2.49524 2.0224 3.758 0.615234C4.35726 1.12784 4.91982 1.6096 5.5044 2.11041C5.07858 2.60124 4.67846 3.06303 4.1985 3.61647C4.50869 3.63007 4.68397 3.64187 4.85925 3.64459C6.27986 3.6709 7.70964 3.61012 9.12015 3.74076C11.1052 3.92403 12.8369 5.69138 13.1057 7.63383C13.3893 9.68153 12.2982 11.6684 10.4316 12.5022C10.1975 12.6066 9.96261 12.7073 9.66252 12.8379C9.93783 13.4975 10.1783 14.1444 10.4774 14.7649C10.6564 15.136 11.0299 15.2657 11.4392 15.2667C11.6356 15.2667 11.832 15.2667 12.11 15.2667C12.0077 15.9102 11.9742 16.6148 11.7668 17.2354C11.6423 17.6081 11.5628 17.846 11.5628 17.846C11.474 17.8826 11.2313 17.8569 11.0464 17.8378C10.5619 17.7879 10.0709 17.7961 9.58543 17.7535C8.70811 17.6773 8.10426 17.2227 7.81242 16.4007C7.47012 15.4345 7.13424 14.4655 6.83232 13.4875C6.70843 13.0874 6.25719 12.9577 6.08255 12.9577C5.86836 12.9577 5.66802 12.9577 5.60758 12.9577C5.56767 12.9577 5.5601 12.7177 5.55579 12.4187C5.58332 11.7274 5.56313 11.0334 5.56313 10.2722C6.36704 10.2722 7.14066 10.2803 7.91521 10.2703C8.77143 10.2586 9.41382 9.88385 9.77907 9.10723C10.2911 8.01851 9.63407 6.58776 8.4071 6.44441C7.06633 6.28745 5.69528 6.38544 4.33707 6.37455C4.31413 6.37455 4.29211 6.41084 4.21594 6.47526C4.58944 6.97153 4.96754 7.47325 5.37775 8.01761C4.75922 8.4667 4.16271 8.90037 3.50839 9.37669L3.5093 9.37488Z" fill="#DE4067"/>
</g>
<defs>
<clipPath id="clip0_346_18337">
<rect width="14" height="20" fill="white" transform="translate(0 0.615234)"/>
</clipPath>
</defs>
</svg>
