<svg width="28" height="24" viewBox="0 0 28 24" fill="none" xmlns="http://www.w3.org/2000/svg">
<path d="M18.1325 23.0954L15.5201 0.454054C18.3678 0.419025 20.4045 0.997821 21.8911 2.02668C23.4601 3.11247 24.4746 4.73974 25.1625 6.83106C25.8525 8.92897 26.2028 11.4595 26.464 14.3116C26.5711 15.4806 26.6637 16.7127 26.7596 17.9876C26.8833 19.6333 27.0124 21.3504 27.1849 23.0954H18.1325ZM15.9189 16.3065C15.9189 20.3055 12.677 23.5474 8.67791 23.5474C4.67883 23.5474 1.43694 20.3055 1.43694 16.3065C1.43694 12.3074 4.67883 9.06549 8.67791 9.06549C12.677 9.06549 15.9189 12.3074 15.9189 16.3065ZM8.73355 6.70406C7.99469 7.01011 7.21121 7.19124 6.41511 7.24109L6.41511 0.466832H13.1894C13.1395 1.26294 12.9584 2.04641 12.6523 2.78527C12.2884 3.66379 11.7551 4.46203 11.0827 5.13441C10.4103 5.8068 9.61206 6.34017 8.73355 6.70406Z" stroke="black" stroke-width="0.905122"/>
</svg>
