<svg width="90" height="20" viewBox="0 0 90 20" fill="none" xmlns="http://www.w3.org/2000/svg">
<path d="M10.3425 19.4316C9.05616 19.4316 7.7829 19.1883 6.59554 18.7162C5.40821 18.2441 4.33067 17.5526 3.42394 16.6821C2.51725 15.8117 1.79916 14.7794 1.30964 13.6449C0.82014 12.5104 0.568494 11.2952 0.568494 10.0686C0.568494 8.84191 0.820141 7.62673 1.30964 6.49225C1.79916 5.35771 2.51725 4.32549 3.42394 3.45507C4.33067 2.58461 5.40821 1.89309 6.59554 1.42096C7.7829 0.948811 9.05616 0.705566 10.3425 0.705566L18.2877 0.705566C18.7681 0.705566 19.1575 1.09502 19.1575 1.57543L19.1575 9.79461L19.1575 18.5617C19.1575 19.0421 18.7681 19.4316 18.2877 19.4316L10.3425 19.4316Z" stroke="black"/>
<path d="M23.9932 10.4794C23.9932 9.19306 24.2364 7.91979 24.7085 6.73244C25.1807 5.54511 25.8722 4.46756 26.7427 3.56083C27.6131 2.65415 28.6453 1.93606 29.7798 1.44654C30.9143 0.957038 32.1295 0.705392 33.3562 0.705392C34.5828 0.705392 35.798 0.957038 36.9325 1.44654C38.067 1.93606 39.0993 2.65415 39.9697 3.56083C40.8401 4.46757 41.5317 5.54511 42.0038 6.73244C42.4759 7.91979 42.7192 9.19306 42.7192 10.4794L42.7192 18.4246C42.7192 18.905 42.3297 19.2944 41.8493 19.2944L33.6301 19.2944L24.863 19.2944C24.3826 19.2944 23.9932 18.905 23.9932 18.4246L23.9932 10.4794Z" stroke="black"/>
<path d="M47.5548 10.4794C47.5548 9.19306 47.798 7.91979 48.2702 6.73244C48.7423 5.54511 49.4338 4.46756 50.3043 3.56083C51.1747 2.65415 52.2069 1.93606 53.3415 1.44654C54.476 0.957038 55.6911 0.705392 56.9178 0.705392C58.1445 0.705392 59.3597 0.957038 60.4941 1.44654C61.6287 1.93606 62.6609 2.65415 63.5313 3.56083C64.4018 4.46757 65.0933 5.54511 65.5654 6.73244C66.0376 7.91979 66.2808 9.19306 66.2808 10.4794L66.2808 18.4246C66.2808 18.905 65.8914 19.2944 65.411 19.2944L57.1918 19.2944L48.4247 19.2944C47.9442 19.2944 47.5548 18.905 47.5548 18.4246L47.5548 10.4794Z" stroke="black"/>
<path d="M80.0685 19.4316C78.7822 19.4316 77.5089 19.1883 76.3216 18.7162C75.1342 18.2441 74.0567 17.5526 73.15 16.6821C72.2433 15.8117 71.5252 14.7794 71.0357 13.6449C70.5462 12.5104 70.2945 11.2953 70.2945 10.0686C70.2945 8.84191 70.5462 7.62674 71.0357 6.49225C71.5252 5.35771 72.2433 4.32549 73.15 3.45507C74.0567 2.58461 75.1342 1.89309 76.3216 1.42096C77.5089 0.948812 78.7822 0.705566 80.0685 0.705567L88.0137 0.705566C88.4941 0.705566 88.8836 1.09502 88.8836 1.57543L88.8836 9.79461L88.8836 18.5617C88.8836 19.0421 88.4941 19.4316 88.0137 19.4316L80.0685 19.4316Z" stroke="black"/>
</svg>
