<svg width="29" height="38" viewBox="0 0 29 38" fill="none" xmlns="http://www.w3.org/2000/svg">
<g clip-path="url(#clip0_336_16290)">
<path d="M7.73927 19.3181C5.12039 15.9067 2.59662 12.6193 0 9.23389C2.76258 6.15659 5.5029 3.10331 8.28774 0C9.60932 1.13048 10.85 2.19292 12.1392 3.29739C11.2001 4.37984 10.3177 5.39827 9.2592 6.61879C9.94326 6.6488 10.3298 6.67481 10.7164 6.68081C13.8493 6.73884 17.0025 6.60478 20.1132 6.8929C24.4908 7.29707 28.3099 11.1947 28.9029 15.4785C29.5282 19.9944 27.1219 24.3763 23.0053 26.215C22.4892 26.4451 21.9711 26.6672 21.3093 26.9554C21.9165 28.41 22.4467 29.8366 23.1065 31.2051C23.5012 32.0235 24.3249 32.3096 25.2275 32.3116C25.6606 32.3116 26.0937 32.3116 26.707 32.3116C26.4812 33.7308 26.4075 35.2847 25.95 36.6534C25.6754 37.4753 25.5 38 25.5 38C25.3044 38.0807 24.769 38.0241 24.3613 37.982C23.2927 37.8719 22.2099 37.89 21.1393 37.7959C19.2045 37.6278 17.8728 36.6254 17.2292 34.8127C16.4743 32.6818 15.7335 30.5449 15.0677 28.388C14.7945 27.5056 13.7993 27.2195 13.4142 27.2195C12.9418 27.2195 12.5 27.2195 12.3667 27.2195C12.2787 27.2195 12.262 26.6903 12.2525 26.031C12.3132 24.5063 12.2687 22.9757 12.2687 21.297C14.0416 21.297 15.7477 21.315 17.4559 21.293C19.3441 21.267 20.7608 20.4406 21.5663 18.7279C22.6957 16.3269 21.2466 13.1715 18.5407 12.8554C15.5838 12.5093 12.5601 12.7254 9.5648 12.7013C9.5142 12.7013 9.46563 12.7814 9.29765 12.9234C10.1214 14.0179 10.9552 15.1244 11.8599 16.3249C10.4958 17.3153 9.18026 18.2717 7.73725 19.3221L7.73927 19.3181Z" fill="#DE4067"/>
</g>
<defs>
<clipPath id="clip0_336_16290">
<rect width="29" height="38" fill="white"/>
</clipPath>
</defs>
</svg>
