<svg width="36" height="36" viewBox="0 0 36 36" fill="none" xmlns="http://www.w3.org/2000/svg">
<g clip-path="url(#clip0_335_16156)">
<path d="M27.0052 16.8633C26.4477 16.8633 26.0977 17.173 26.0977 17.8514V19.1524H27.9097V17.8514C27.9097 17.1885 27.5504 16.8633 27.0052 16.8633Z" fill="#111112"/>
<path d="M18 0C14.4399 0 10.9598 1.05568 7.99974 3.03355C5.03966 5.01141 2.73255 7.82263 1.37018 11.1117C0.0077992 14.4008 -0.348661 18.02 0.345873 21.5116C1.04041 25.0033 2.75474 28.2106 5.27209 30.7279C7.78943 33.2453 10.9967 34.9596 14.4884 35.6541C17.98 36.3487 21.5992 35.9922 24.8883 34.6298C28.1774 33.2675 30.9886 30.9603 32.9665 28.0003C34.9443 25.0402 36 21.5601 36 18C36 13.2261 34.1036 8.64773 30.7279 5.27208C27.3523 1.89642 22.7739 0 18 0ZM13.0098 18C13.0123 16.6773 13.5388 15.4094 14.4741 14.4741C15.4094 13.5388 16.6773 13.0123 18 13.0098V14.4966C17.0708 14.4975 16.1799 14.8667 15.5226 15.5235C14.8652 16.1802 14.4952 17.0708 14.4936 18H13.0098ZM18.1766 31.3753C16.3366 31.3753 15.5808 30.3345 15.4383 29.2473H16.7269C16.8973 29.8668 17.2752 30.1766 18.1642 30.1766C18.8921 30.1766 19.27 29.9071 19.27 29.4579C19.27 29.0088 18.8302 28.9282 17.7212 28.6866C16.6123 28.445 15.5932 28.0857 15.5932 26.8467C15.5932 25.5271 16.7703 24.8704 17.9628 24.8704C19.651 24.8704 20.3511 25.778 20.4936 26.8188H19.205C19.0687 26.3789 18.7558 26.0661 17.9845 26.0661C17.2132 26.0661 16.8973 26.3758 16.8973 26.794C16.8973 27.2122 17.207 27.2525 18.0372 27.4321C19.7161 27.7914 20.5679 28.16 20.5679 29.4084C20.5648 30.8735 19.2359 31.3753 18.1766 31.3753ZM24.8766 20.444V17.7987C24.8766 16.4512 25.6665 15.5622 26.9861 15.5622C28.3056 15.5622 29.1172 16.4512 29.1172 17.7987V19.1554H31.1461V20.444H24.8766Z" fill="#111112"/>
</g>
<defs>
<clipPath id="clip0_335_16156">
<rect width="36" height="36" fill="white"/>
</clipPath>
</defs>
</svg>
