<svg width="36" height="36" viewBox="0 0 36 36" fill="none" xmlns="http://www.w3.org/2000/svg">
<g clip-path="url(#clip0_336_16275)">
<path d="M16.2383 19.3684H20.6015V17.914H20.1263C20.1263 18.4756 19.7231 18.8788 19.0895 18.8788H18.4271V16.7044H19.1471V16.2148H16.2383V16.7044H16.9727V18.8788H16.2383V19.3684Z" fill="black"/>
<path d="M22.7083 19.3684H24.4075L25.8619 16.7044H26.5819V16.2148H24.4075V16.7044H25.0411L23.9755 18.6484L22.9243 16.7044H23.6875V16.2148H20.5195V16.7044H21.2395L22.7083 19.3684Z" fill="black"/>
<path d="M7.54423 16.2148H4.39062V16.7044H5.11062L6.57943 19.3684H8.27862L9.71862 16.7044H10.4386V16.2148H8.26423V16.7044H8.89782L7.84662 18.6484L6.78102 16.7044H7.54423V16.2148Z" fill="black"/>
<path d="M10.8711 17.8C10.8711 18.7216 11.6199 19.4704 13.1175 19.4704C14.6151 19.4704 15.3495 18.736 15.3495 17.8C15.3495 16.8784 14.5719 16.1584 13.1031 16.1584C11.6487 16.144 10.8711 16.8784 10.8711 17.8ZM13.8807 17.8C13.8663 18.376 13.6359 18.9664 13.0887 18.952C12.5559 18.9376 12.3255 18.3472 12.3255 17.7712C12.3399 17.1664 12.6279 16.6336 13.1319 16.648C13.6359 16.648 13.8951 17.1952 13.8807 17.8Z" fill="black"/>
<path d="M26.9961 17.8C26.9961 18.7216 27.7449 19.4704 29.2425 19.4704C30.7401 19.4704 31.4745 18.736 31.4745 17.8C31.4745 16.8784 30.6969 16.1584 29.2281 16.1584C27.7737 16.144 26.9961 16.8784 26.9961 17.8ZM29.2569 16.648C29.7609 16.6624 30.0201 17.1952 30.0057 17.8C29.9913 18.376 29.7609 18.9664 29.2137 18.952C28.6809 18.9376 28.4505 18.3472 28.4505 17.7712C28.4649 17.1664 28.7529 16.6336 29.2569 16.648Z" fill="black"/>
<path d="M32.8176 7.776L30.9888 9.6048C32.5584 12.024 33.4656 14.904 33.4656 18C33.4656 26.5392 26.5392 33.4656 18 33.4656C9.4608 33.4656 2.5344 26.5392 2.5344 18C2.5344 9.4608 9.4608 2.5344 18 2.5344C21.1104 2.5344 23.9904 3.456 26.4096 5.0256L28.2384 3.1968C25.344 1.1808 21.8016 0 18 0C8.064 0 0 8.064 0 18C0 27.936 8.064 36 18 36C27.936 36 36 27.936 36 18C36 14.1984 34.8192 10.6704 32.8176 7.776Z" fill="black"/>
<path d="M27.0586 0.705078V1.20908C28.153 1.79948 29.1754 2.50508 30.1258 3.28268L27.5626 5.84588C28.5274 6.60908 29.4058 7.47308 30.169 8.43788L32.7322 5.87468C33.5242 6.82508 34.2154 7.86188 34.8058 8.92748H35.2954V0.705078H27.0586Z" fill="black"/>
</g>
<defs>
<clipPath id="clip0_336_16275">
<rect width="36" height="36" fill="white"/>
</clipPath>
</defs>
</svg>
