<svg width="118" height="32" viewBox="0 0 118 32" fill="none" xmlns="http://www.w3.org/2000/svg">
<path d="M7.53168 2C7.00623 2.06568 5.33548 7.78761 5.01728 8.76094C3.7004 12.7891 2 18.1347 2 22.3387C2 25.3809 7.68813 20.8293 8.81682 20.1037C10.5097 19.0154 12.2625 17.9426 13.8456 16.6953C14.2218 16.3989 15.0749 14.615 15.0749 15.8292C15.0749 19.0968 14.9128 25.8372 19.6008 23.2327C24.9833 20.2424 29.1555 12.1427 29.1555 6.02304" stroke="black" stroke-width="2.03633" stroke-linecap="round"/>
<path d="M41.8949 4.9082C34.6768 4.9082 28.7163 17.2991 32.0297 23.2633C36.0816 30.5567 46.2613 15.0989 44.0765 8.54451" stroke="black" stroke-width="2.03633" stroke-linecap="round"/>
<path d="M46.4311 25.91C48.8498 18.6539 51.0715 13.7895 50.8186 6.92895" stroke="black" stroke-width="2.03633" stroke-linecap="round"/>
<path d="M62.3573 25.6358C64.8798 18.0686 67.1967 12.9956 66.933 5.84085" stroke="black" stroke-width="2.03633" stroke-linecap="round"/>
<path d="M50.4621 17.8472C52.881 18.6534 56.8198 17.4046 58.4376 15.5709C63.3608 8.97847 55.0177 4.94909 51.2667 6.56022" stroke="black" stroke-width="2.03633" stroke-linecap="round"/>
<path d="M53.6875 18.7637C54.3436 23.0229 54.5084 22.7324 56.9124 26.7158" stroke="black" stroke-width="2.03633" stroke-linecap="round"/>
<path d="M76.7697 5.84082C72.1009 10.8857 63.6336 15.5473 67.8021 17.6315C73.9094 20.6852 75.4122 21.3245 78.5 27.5" stroke="black" stroke-width="2.03633" stroke-linecap="round"/>
<path d="M88 17.0035C96.8977 17.0035 108.226 16.4809 108.226 28.1813" stroke="black" stroke-width="2" stroke-linecap="round"/>
<path d="M112.397 24.9385C112.397 25.9786 111.325 27.0234 110.625 27.7227C109.994 28.3537 109.261 29.3998 108.803 30.1778C108.579 30.5578 106.736 28.8647 106.069 28.6338C105.065 28.2864 104.181 27.4366 103.285 26.9886" stroke="black" stroke-width="2" stroke-linecap="round"/>
</svg>
