<svg xmlns="http://www.w3.org/2000/svg" width="2390" height="667" fill="none">
  <defs/>
  <path fill="#fff" d="M0 0h2390v667H0z"/>
  <g filter="url(#Frame_20__filter0_d)">
    <rect width="555" height="133" x="484" y="344" fill="#fff" rx="8"/>
  </g>
  <g filter="url(#Frame_20__filter1_d)">
    <rect width="555" height="133" x="1352" y="432" fill="#fff" rx="8"/>
  </g>
  <rect width="203" height="41" x="1639" y="477" fill="#417FE0" rx="8"/>
  <path fill="#fff" d="M1668.87 501.021h-4.96l-1.04 2.979h-2.31l4.84-12.797h1.99l4.84 12.797h-2.32l-1.04-2.979zm-4.33-1.793h3.7l-1.85-5.309-1.85 5.309zm11.46-7.049v2.311h1.68v1.582H1676v5.309c0 .363.08.627.22.791.14.158.4.237.77.237.25 0 .49-.029.75-.088v1.653c-.49.134-.96.202-1.41.202-1.64 0-2.46-.905-2.46-2.716v-5.388h-1.57v-1.582h1.57v-2.311h2.13zm6 0v2.311h1.68v1.582H1682v5.309c0 .363.07.627.21.791.15.158.4.237.77.237.25 0 .5-.029.75-.088v1.653c-.49.134-.95.202-1.41.202-1.64 0-2.46-.905-2.46-2.716v-5.388h-1.56v-1.582h1.56v-2.311h2.14zm9 11.821c-.09-.182-.18-.478-.25-.888-.68.709-1.51 1.064-2.49 1.064-.96 0-1.74-.273-2.34-.818-.6-.545-.91-1.218-.91-2.021 0-1.014.38-1.79 1.13-2.329.75-.545 1.83-.818 3.23-.818h1.31v-.624c0-.492-.14-.884-.41-1.177-.28-.299-.69-.449-1.26-.449-.48 0-.88.123-1.19.37-.31.24-.47.547-.47.922h-2.13c0-.521.17-1.007.51-1.459.35-.457.82-.814 1.41-1.072.6-.258 1.26-.387 2-.387 1.11 0 2 .282 2.66.844.66.557 1 1.342 1.02 2.356v4.289c0 .855.12 1.538.36 2.048V504H1691zm-2.35-1.538c.42 0 .82-.103 1.19-.308.37-.205.66-.48.84-.826v-1.793h-1.15c-.79 0-1.38.138-1.78.413-.4.276-.6.665-.6 1.169 0 .41.13.738.4.985.28.24.65.36 1.1.36zm10.31.009c.54 0 .98-.156 1.33-.466.35-.311.54-.694.56-1.151h2.01c-.02.591-.2 1.145-.55 1.661-.35.509-.81.914-1.41 1.213-.59.298-1.23.448-1.91.448-1.33 0-2.39-.431-3.17-1.292-.78-.862-1.16-2.051-1.16-3.569v-.219c0-1.448.38-2.605 1.16-3.472.77-.873 1.82-1.31 3.16-1.31 1.13 0 2.05.332 2.76.994.71.656 1.09 1.52 1.12 2.592h-2.01c-.02-.545-.21-.993-.56-1.344-.35-.352-.79-.528-1.33-.528-.69 0-1.22.252-1.6.756-.37.498-.56 1.257-.57 2.277v.342c0 1.032.19 1.802.55 2.312.38.504.92.756 1.62.756zm7.62-6.944c.7-.808 1.58-1.213 2.65-1.213 2.02 0 3.05 1.158 3.08 3.472V504h-2.13v-6.135c0-.656-.15-1.119-.43-1.388-.29-.276-.7-.414-1.25-.414-.86 0-1.5.381-1.92 1.143V504h-2.13v-13.5h2.13v5.027zm19.28 5.177c0-.562-.2-.996-.6-1.301-.39-.304-1.11-.612-2.14-.923-1.03-.31-1.85-.656-2.46-1.037-1.16-.732-1.75-1.687-1.75-2.865 0-1.031.42-1.881 1.26-2.549.84-.668 1.94-1.002 3.28-1.002.89 0 1.68.164 2.38.493.7.328 1.25.796 1.64 1.406.4.603.6 1.274.6 2.012h-2.21c0-.667-.21-1.189-.64-1.564-.41-.381-1.01-.571-1.79-.571-.73 0-1.29.155-1.7.466-.39.31-.59.744-.59 1.3 0 .469.21.862.65 1.178.43.311 1.15.615 2.14.914 1 .293 1.8.63 2.4 1.011.6.375 1.05.808 1.33 1.301.28.486.42 1.057.42 1.714 0 1.066-.41 1.916-1.23 2.548-.81.627-1.92.941-3.32.941-.93 0-1.78-.17-2.56-.51-.77-.346-1.38-.82-1.81-1.424-.43-.603-.64-1.306-.64-2.109h2.22c0 .726.24 1.289.72 1.687.48.399 1.17.598 2.07.598.77 0 1.35-.155 1.74-.466.39-.316.59-.732.59-1.248zm6.07-5.177c.7-.808 1.58-1.213 2.65-1.213 2.02 0 3.05 1.158 3.08 3.472V504h-2.14v-6.135c0-.656-.14-1.119-.43-1.388-.28-.276-.69-.414-1.24-.414-.86 0-1.5.381-1.92 1.143V504h-2.14v-13.5h2.14v5.027zM1742.1 504h-2.14v-9.51h2.14V504zm-2.27-11.979c0-.329.1-.601.31-.818.21-.217.51-.325.9-.325.38 0 .68.108.89.325.21.217.32.489.32.818 0 .322-.11.591-.32.808-.21.211-.51.317-.89.317-.39 0-.69-.106-.9-.317a1.112 1.112 0 01-.31-.808zm12.93 7.321c0 1.47-.33 2.645-1 3.524-.67.873-1.57 1.31-2.69 1.31-1.04 0-1.88-.343-2.51-1.029v4.509h-2.13V494.49h1.97l.08.967c.63-.762 1.48-1.143 2.56-1.143 1.16 0 2.07.434 2.73 1.301.66.862.99 2.06.99 3.595v.132zm-2.13-.185c0-.949-.19-1.702-.57-2.259-.37-.556-.91-.835-1.62-.835-.87 0-1.5.361-1.88 1.082v4.218c.39.739 1.02 1.108 1.9 1.108.68 0 1.21-.273 1.59-.818.39-.55.58-1.382.58-2.496zm12.27.185c0 1.47-.33 2.645-1 3.524-.67.873-1.56 1.31-2.69 1.31-1.04 0-1.88-.343-2.5-1.029v4.509h-2.14V494.49h1.97l.09.967c.62-.762 1.48-1.143 2.55-1.143 1.16 0 2.07.434 2.73 1.301.66.862.99 2.06.99 3.595v.132zm-2.12-.185c0-.949-.2-1.702-.58-2.259-.37-.556-.91-.835-1.61-.835-.88 0-1.5.361-1.88 1.082v4.218c.38.739 1.02 1.108 1.89 1.108.68 0 1.21-.273 1.6-.818.38-.55.58-1.382.58-2.496zm6.21 4.843h-2.14v-9.51h2.14V504zm-2.27-11.979c0-.329.1-.601.31-.818.21-.217.51-.325.9-.325.38 0 .68.108.89.325.21.217.32.489.32.818 0 .322-.11.591-.32.808-.21.211-.51.317-.89.317-.39 0-.69-.106-.9-.317a1.112 1.112 0 01-.31-.808zm6.58 2.469l.07 1.099c.7-.85 1.62-1.275 2.76-1.275 1.99 0 2.99 1.134 3.03 3.402V504h-2.14v-6.161c0-.604-.13-1.049-.39-1.336-.26-.293-.69-.44-1.28-.44-.86 0-1.5.39-1.92 1.169V504h-2.14v-9.51h2.01zm7.67 4.685c0-1.477.34-2.654 1.04-3.533.69-.885 1.62-1.328 2.76-1.328 1.09 0 1.94.378 2.56 1.134l.1-.958h1.92v9.22c0 1.248-.39 2.232-1.17 2.953-.77.721-1.81 1.081-3.13 1.081-.7 0-1.38-.146-2.05-.439-.66-.287-1.17-.665-1.51-1.134l1.01-1.283c.65.779 1.46 1.169 2.42 1.169.71 0 1.27-.194 1.68-.58.41-.381.62-.944.62-1.688v-.642c-.62.686-1.44 1.029-2.46 1.029-1.12 0-2.03-.443-2.74-1.327-.7-.885-1.05-2.11-1.05-3.674zm2.13.184c0 .955.19 1.708.58 2.259.39.545.93.818 1.62.818.86 0 1.5-.37 1.92-1.108v-4.183c-.41-.721-1.04-1.082-1.9-1.082-.7 0-1.25.279-1.64.835-.39.557-.58 1.377-.58 2.461zm18.27 2.057a.963.963 0 00-.48-.87c-.31-.199-.83-.375-1.55-.527-.73-.153-1.34-.346-1.82-.581-1.07-.515-1.6-1.262-1.6-2.241 0-.82.34-1.506 1.04-2.056.69-.551 1.57-.827 2.63-.827 1.14 0 2.06.282 2.75.844.71.563 1.06 1.292 1.06 2.189h-2.14c0-.41-.15-.75-.45-1.02-.31-.275-.71-.413-1.22-.413-.47 0-.85.108-1.15.325-.29.217-.44.507-.44.87 0 .329.14.583.42.765.27.182.83.366 1.66.554.84.181 1.5.401 1.97.659.48.252.84.557 1.07.914.23.357.35.791.35 1.301 0 .855-.36 1.55-1.06 2.083-.71.527-1.64.791-2.79.791-.78 0-1.47-.141-2.08-.422-.61-.281-1.09-.668-1.43-1.16a2.746 2.746 0 01-.51-1.591h2.08c.03.504.22.893.57 1.169.35.269.82.404 1.4.404.56 0 .99-.105 1.28-.316.29-.217.44-.498.44-.844zm6.24 2.584h-2.14v-13.5h2.14V504zm4.6 0h-2.13v-9.51h2.13V504zm-2.26-11.979c0-.329.1-.601.3-.818.21-.217.51-.325.9-.325s.69.108.9.325c.21.217.31.489.31.818 0 .322-.1.591-.31.808-.21.211-.51.317-.9.317s-.69-.106-.9-.317c-.2-.217-.3-.486-.3-.808zm12.93 7.321c0 1.47-.34 2.645-1.01 3.524-.66.873-1.56 1.31-2.69 1.31-1.04 0-1.87-.343-2.5-1.029v4.509h-2.14V494.49h1.97l.09.967c.63-.762 1.48-1.143 2.56-1.143 1.16 0 2.07.434 2.72 1.301.66.862 1 2.06 1 3.595v.132zm-2.13-.185c0-.949-.19-1.702-.57-2.259-.38-.556-.92-.835-1.62-.835-.87 0-1.5.361-1.88 1.082v4.218c.39.739 1.02 1.108 1.9 1.108.68 0 1.21-.273 1.59-.818.38-.55.58-1.382.58-2.496z"/>
  <rect width="201" height="39" x="1418" y="478" stroke="#417FE0" stroke-width="2" rx="7"/>
  <path fill="#417FE0" d="M1470.89 499.069h-2.48V504h-2.22v-12.797h4.5c1.47 0 2.61.331 3.42.993.8.662 1.2 1.62 1.2 2.874 0 .856-.21 1.574-.62 2.154-.41.574-.99 1.016-1.73 1.327l2.88 5.335V504h-2.38l-2.57-4.931zm-2.48-1.784h2.29c.75 0 1.33-.187 1.75-.562.43-.381.64-.9.64-1.556 0-.686-.2-1.216-.59-1.591-.39-.375-.97-.568-1.74-.58h-2.35v4.289zm12.99 6.891c-1.35 0-2.45-.425-3.3-1.275-.83-.855-1.25-1.992-1.25-3.41v-.263c0-.95.18-1.796.54-2.54.37-.75.89-1.334 1.55-1.75.66-.416 1.4-.624 2.21-.624 1.3 0 2.3.414 3 1.24.71.826 1.06 1.995 1.06 3.507v.861H1479c.07.785.33 1.406.78 1.863.47.457 1.05.686 1.74.686.98 0 1.78-.396 2.39-1.187l1.16 1.099c-.39.568-.9 1.011-1.53 1.327-.64.311-1.35.466-2.14.466zm-.25-8.148c-.59 0-1.07.205-1.43.616-.36.41-.58.981-.68 1.713h4.07v-.158c-.05-.715-.24-1.254-.58-1.617-.33-.369-.79-.554-1.38-.554zm7.96-1.538v10.354c0 .972-.24 1.714-.73 2.223-.48.516-1.19.774-2.12.774-.39 0-.77-.05-1.13-.15v-1.687c.22.053.47.079.75.079.71 0 1.08-.387 1.09-1.16V494.49h2.14zm-2.32-2.469c0-.329.1-.601.31-.818.21-.217.51-.325.89-.325.39 0 .69.108.9.325.21.217.32.489.32.818 0 .322-.11.591-.32.808-.21.211-.51.317-.9.317-.38 0-.68-.106-.89-.317a1.112 1.112 0 01-.31-.808zm8.8 12.155c-1.36 0-2.46-.425-3.3-1.275-.84-.855-1.26-1.992-1.26-3.41v-.263c0-.95.18-1.796.55-2.54.37-.75.88-1.334 1.54-1.75a4.126 4.126 0 012.22-.624c1.29 0 2.29.414 3 1.24.71.826 1.06 1.995 1.06 3.507v.861h-6.21c.06.785.32 1.406.78 1.863.46.457 1.04.686 1.74.686.98 0 1.77-.396 2.39-1.187l1.15 1.099a3.857 3.857 0 01-1.53 1.327c-.63.311-1.34.466-2.13.466zm-.26-8.148c-.58 0-1.06.205-1.42.616-.36.41-.59.981-.69 1.713h4.07v-.158c-.05-.715-.24-1.254-.57-1.617-.33-.369-.8-.554-1.39-.554zm9.64 6.443c.54 0 .98-.156 1.33-.466.35-.311.54-.694.56-1.151h2.02a3.191 3.191 0 01-.56 1.661c-.34.509-.81.914-1.4 1.213a4.26 4.26 0 01-1.92.448c-1.33 0-2.39-.431-3.17-1.292-.77-.862-1.16-2.051-1.16-3.569v-.219c0-1.448.38-2.605 1.16-3.472.77-.873 1.82-1.31 3.16-1.31 1.13 0 2.05.332 2.76.994.71.656 1.09 1.52 1.13 2.592h-2.02c-.02-.545-.21-.993-.56-1.344-.35-.352-.79-.528-1.33-.528-.69 0-1.22.252-1.6.756-.37.498-.56 1.257-.57 2.277v.342c0 1.032.19 1.802.56 2.312.37.504.91.756 1.61.756zm8.19-10.292v2.311h1.68v1.582h-1.68v5.309c0 .363.07.627.22.791.14.158.4.237.77.237.24 0 .49-.029.75-.088v1.653c-.49.134-.96.202-1.41.202-1.64 0-2.46-.905-2.46-2.716v-5.388h-1.57v-1.582h1.57v-2.311h2.13zm12.71 6.89h-2.48V504h-2.22v-12.797h4.5c1.48 0 2.62.331 3.42.993.8.662 1.2 1.62 1.2 2.874 0 .856-.2 1.574-.62 2.154-.41.574-.98 1.016-1.72 1.327l2.87 5.335V504h-2.38l-2.57-4.931zm-2.48-1.784h2.29c.75 0 1.34-.187 1.76-.562.42-.381.63-.9.63-1.556 0-.686-.2-1.216-.59-1.591-.39-.375-.97-.568-1.74-.58h-2.35v4.289zm12.99 6.891c-1.35 0-2.45-.425-3.29-1.275-.84-.855-1.26-1.992-1.26-3.41v-.263c0-.95.18-1.796.55-2.54.37-.75.88-1.334 1.54-1.75.67-.416 1.4-.624 2.22-.624 1.29 0 2.29.414 3 1.24.7.826 1.06 1.995 1.06 3.507v.861h-6.21c.06.785.32 1.406.78 1.863.46.457 1.04.686 1.74.686.98 0 1.77-.396 2.39-1.187l1.15 1.099a3.857 3.857 0 01-1.53 1.327c-.63.311-1.34.466-2.14.466zm-.25-8.148c-.59 0-1.06.205-1.42.616-.36.41-.59.981-.69 1.713h4.07v-.158c-.05-.715-.24-1.254-.57-1.617-.34-.369-.8-.554-1.39-.554zm8.41-3.849v2.311h1.68v1.582h-1.68v5.309c0 .363.07.627.21.791.15.158.41.237.78.237.24 0 .49-.029.74-.088v1.653c-.48.134-.95.202-1.4.202-1.64 0-2.46-.905-2.46-2.716v-5.388h-1.57v-1.582h1.57v-2.311h2.13zm9.08 10.889c-.63.739-1.52 1.108-2.67 1.108-1.03 0-1.82-.302-2.35-.905-.53-.604-.79-1.477-.79-2.62v-6.161h2.14v6.135c0 1.207.5 1.811 1.5 1.811 1.04 0 1.74-.373 2.1-1.117v-6.829h2.14V504h-2.02l-.05-.932zm9.22-6.627c-.28-.046-.57-.07-.87-.07-.98 0-1.64.375-1.98 1.125V504h-2.13v-9.51h2.04l.05 1.064c.51-.826 1.23-1.24 2.14-1.24.31 0 .56.041.76.124l-.01 2.003zm3.33-1.951l.06 1.099c.71-.85 1.63-1.275 2.77-1.275 1.98 0 2.99 1.134 3.02 3.402V504h-2.13v-6.161c0-.604-.13-1.049-.4-1.336-.25-.293-.68-.44-1.27-.44-.86 0-1.5.39-1.93 1.169V504h-2.13v-9.51h2.01z"/>
  <rect width="203" height="41" x="771" y="390" fill="#FEEE9C" rx="8"/>
  <path fill="#956200" d="M800.868 414.021h-4.957L794.874 417h-2.312l4.834-12.797h1.996L804.234 417h-2.32l-1.046-2.979zm-4.333-1.793h3.709l-1.854-5.309-1.855 5.309zm11.47-7.049v2.311h1.679v1.582h-1.679v5.309c0 .363.07.627.211.791.146.158.404.237.773.237.246 0 .495-.029.747-.088v1.653a5.288 5.288 0 01-1.406.202c-1.641 0-2.461-.905-2.461-2.716v-5.388h-1.564v-1.582h1.564v-2.311h2.136zm5.994 0v2.311h1.679v1.582h-1.679v5.309c0 .363.07.627.211.791.146.158.404.237.773.237.246 0 .496-.029.747-.088v1.653a5.288 5.288 0 01-1.406.202c-1.64 0-2.461-.905-2.461-2.716v-5.388h-1.564v-1.582h1.564v-2.311h2.136zm9 11.821c-.094-.182-.176-.478-.246-.888a3.326 3.326 0 01-2.496 1.064c-.955 0-1.735-.273-2.338-.818-.604-.545-.905-1.218-.905-2.021 0-1.014.375-1.79 1.125-2.329.756-.545 1.834-.818 3.234-.818h1.31v-.624c0-.492-.138-.884-.413-1.177-.276-.299-.695-.449-1.257-.449-.487 0-.885.123-1.196.37-.31.24-.465.547-.465.922h-2.136c0-.521.173-1.007.518-1.459.346-.457.815-.814 1.407-1.072.597-.258 1.262-.387 1.995-.387 1.113 0 2.001.282 2.663.844.662.557 1.002 1.342 1.019 2.356v4.289c0 .855.12 1.538.361 2.048V417h-2.18zm-2.347-1.538c.422 0 .818-.103 1.187-.308a2.05 2.05 0 00.844-.826v-1.793h-1.152c-.791 0-1.385.138-1.784.413-.398.276-.598.665-.598 1.169 0 .41.135.738.405.985.275.24.641.36 1.098.36zm10.31.009c.533 0 .976-.156 1.327-.466.352-.311.539-.694.563-1.151h2.012a3.164 3.164 0 01-.553 1.661 3.657 3.657 0 01-1.407 1.213 4.2 4.2 0 01-1.916.448c-1.33 0-2.384-.431-3.164-1.292-.779-.862-1.169-2.051-1.169-3.569v-.219c0-1.448.387-2.605 1.16-3.472.774-.873 1.829-1.31 3.164-1.31 1.131 0 2.051.332 2.76.994.715.656 1.09 1.52 1.125 2.592h-2.012c-.024-.545-.211-.993-.563-1.344-.346-.352-.788-.528-1.327-.528-.691 0-1.225.252-1.6.756-.375.498-.565 1.257-.571 2.277v.342c0 1.032.185 1.802.554 2.312.375.504.914.756 1.617.756zm7.62-6.944c.697-.808 1.579-1.213 2.646-1.213 2.027 0 3.055 1.158 3.084 3.472V417h-2.135v-6.135c0-.656-.144-1.119-.431-1.388-.281-.276-.697-.414-1.248-.414-.855 0-1.494.381-1.916 1.143V417h-2.136v-13.5h2.136v5.027zm19.274 5.177c0-.562-.199-.996-.597-1.301-.393-.304-1.105-.612-2.136-.923-1.031-.31-1.852-.656-2.461-1.037-1.166-.732-1.749-1.687-1.749-2.865 0-1.031.419-1.881 1.257-2.549.844-.668 1.936-1.002 3.278-1.002.891 0 1.685.164 2.382.493a3.899 3.899 0 011.644 1.406c.398.603.597 1.274.597 2.012h-2.215c0-.667-.21-1.189-.632-1.564-.416-.381-1.014-.571-1.793-.571-.727 0-1.292.155-1.697.466-.398.31-.597.744-.597 1.3 0 .469.217.862.65 1.178.434.311 1.149.615 2.145.914.996.293 1.796.63 2.399 1.011.604.375 1.046.808 1.327 1.301.281.486.422 1.057.422 1.714 0 1.066-.41 1.916-1.23 2.548-.815.627-1.922.941-3.323.941-.925 0-1.778-.17-2.557-.51-.774-.346-1.377-.82-1.811-1.424-.428-.603-.641-1.306-.641-2.109h2.223c0 .726.24 1.289.721 1.687.48.399 1.169.598 2.065.598.774 0 1.354-.155 1.741-.466.392-.316.588-.732.588-1.248zm6.074-5.177c.697-.808 1.579-1.213 2.645-1.213 2.028 0 3.056 1.158 3.085 3.472V417h-2.136v-6.135c0-.656-.143-1.119-.43-1.388-.282-.276-.698-.414-1.248-.414-.856 0-1.494.381-1.916 1.143V417h-2.136v-13.5h2.136v5.027zM874.099 417h-2.136v-9.51h2.136V417zm-2.268-11.979c0-.329.103-.601.308-.818.211-.217.509-.325.896-.325s.686.108.897.325c.211.217.316.489.316.818 0 .322-.105.591-.316.808-.211.211-.51.317-.897.317s-.685-.106-.896-.317a1.131 1.131 0 01-.308-.808zm12.929 7.321c0 1.47-.334 2.645-1.002 3.524-.668.873-1.565 1.31-2.69 1.31-1.043 0-1.878-.343-2.505-1.029v4.509h-2.135V407.49h1.968l.088.967c.627-.762 1.48-1.143 2.558-1.143 1.16 0 2.068.434 2.725 1.301.662.862.993 2.06.993 3.595v.132zm-2.127-.185c0-.949-.191-1.702-.571-2.259-.375-.556-.915-.835-1.618-.835-.873 0-1.5.361-1.881 1.082v4.218c.387.739 1.02 1.108 1.899 1.108.68 0 1.21-.273 1.591-.818.386-.55.58-1.382.58-2.496zm12.269.185c0 1.47-.334 2.645-1.002 3.524-.668.873-1.564 1.31-2.689 1.31-1.043 0-1.878-.343-2.505-1.029v4.509h-2.136V407.49h1.969l.088.967c.627-.762 1.479-1.143 2.558-1.143 1.16 0 2.068.434 2.724 1.301.662.862.993 2.06.993 3.595v.132zm-2.127-.185c0-.949-.19-1.702-.571-2.259-.375-.556-.914-.835-1.617-.835-.873 0-1.5.361-1.881 1.082v4.218c.387.739 1.02 1.108 1.898 1.108.68 0 1.21-.273 1.591-.818.387-.55.58-1.382.58-2.496zm6.214 4.843h-2.135v-9.51h2.135V417zm-2.267-11.979c0-.329.102-.601.307-.818.211-.217.51-.325.897-.325.386 0 .685.108.896.325.211.217.317.489.317.818 0 .322-.106.591-.317.808-.211.211-.51.317-.896.317-.387 0-.686-.106-.897-.317a1.13 1.13 0 01-.307-.808zm6.583 2.469l.061 1.099c.703-.85 1.626-1.275 2.769-1.275 1.98 0 2.988 1.134 3.023 3.402V417h-2.136v-6.161c0-.604-.131-1.049-.395-1.336-.258-.293-.683-.44-1.274-.44-.862 0-1.503.39-1.925 1.169V417h-2.136v-9.51h2.013zm7.664 4.685c0-1.477.345-2.654 1.037-3.533.697-.885 1.62-1.328 2.768-1.328 1.084 0 1.937.378 2.558 1.134l.097-.958h1.925v9.22c0 1.248-.39 2.232-1.169 2.953-.774.721-1.82 1.081-3.138 1.081-.697 0-1.38-.146-2.048-.439-.662-.287-1.166-.665-1.512-1.134l1.011-1.283c.656.779 1.465 1.169 2.426 1.169.709 0 1.268-.194 1.679-.58.41-.381.615-.944.615-1.688v-.642c-.615.686-1.436 1.029-2.461 1.029-1.113 0-2.025-.443-2.734-1.327-.703-.885-1.054-2.11-1.054-3.674zm2.127.184c0 .955.193 1.708.58 2.259.392.545.934.818 1.626.818.861 0 1.5-.37 1.916-1.108v-4.183c-.405-.721-1.037-1.082-1.899-1.082-.703 0-1.251.279-1.643.835-.387.557-.58 1.377-.58 2.461zm18.272 2.057a.966.966 0 00-.474-.87c-.311-.199-.83-.375-1.556-.527-.727-.153-1.333-.346-1.819-.581-1.067-.515-1.6-1.262-1.6-2.241 0-.82.346-1.506 1.037-2.056.691-.551 1.57-.827 2.637-.827 1.136 0 2.053.282 2.751.844.703.563 1.054 1.292 1.054 2.189h-2.135c0-.41-.153-.75-.457-1.02-.305-.275-.709-.413-1.213-.413-.469 0-.853.108-1.152.325a1.028 1.028 0 00-.439.87c0 .329.138.583.413.765.275.182.832.366 1.67.554.838.181 1.494.401 1.969.659.48.252.835.557 1.063.914.235.357.352.791.352 1.301 0 .855-.355 1.55-1.064 2.083-.709.527-1.637.791-2.786.791-.779 0-1.473-.141-2.083-.422-.609-.281-1.084-.668-1.424-1.16a2.745 2.745 0 01-.509-1.591h2.074c.029.504.219.893.571 1.169.352.269.817.404 1.398.404.562 0 .99-.105 1.283-.316.293-.217.439-.498.439-.844zm6.24 2.584h-2.135v-13.5h2.135V417zm4.606 0h-2.136v-9.51h2.136V417zm-2.268-11.979c0-.329.103-.601.308-.818.211-.217.51-.325.896-.325.387 0 .686.108.897.325.211.217.316.489.316.818 0 .322-.105.591-.316.808-.211.211-.51.317-.897.317-.386 0-.685-.106-.896-.317a1.131 1.131 0 01-.308-.808zm12.929 7.321c0 1.47-.334 2.645-1.002 3.524-.668.873-1.564 1.31-2.689 1.31-1.043 0-1.878-.343-2.505-1.029v4.509h-2.136V407.49h1.969l.088.967c.627-.762 1.479-1.143 2.557-1.143 1.16 0 2.069.434 2.725 1.301.662.862.993 2.06.993 3.595v.132zm-2.127-.185c0-.949-.19-1.702-.571-2.259-.375-.556-.914-.835-1.617-.835-.873 0-1.5.361-1.881 1.082v4.218c.386.739 1.019 1.108 1.898 1.108.68 0 1.21-.273 1.591-.818.387-.55.58-1.382.58-2.496z"/>
  <rect width="203" height="41" x="549" y="390" fill="#ECECEC" rx="8"/>
  <path fill="#686868" d="M602.889 412.069h-2.479V417h-2.223v-12.797h4.5c1.476 0 2.616.331 3.418.993.803.662 1.205 1.62 1.205 2.874 0 .856-.208 1.574-.624 2.154-.411.574-.985 1.016-1.723 1.327l2.874 5.335V417h-2.382l-2.566-4.931zm-2.479-1.784h2.285c.75 0 1.336-.187 1.758-.562.422-.381.633-.9.633-1.556 0-.686-.196-1.216-.589-1.591-.387-.375-.967-.568-1.74-.58h-2.347v4.289zm12.99 6.891c-1.353 0-2.452-.425-3.296-1.275-.837-.855-1.256-1.992-1.256-3.41v-.263c0-.95.181-1.796.545-2.54.369-.75.884-1.334 1.546-1.75a4.082 4.082 0 012.215-.624c1.295 0 2.294.414 2.997 1.24.709.826 1.064 1.995 1.064 3.507v.861h-6.214c.064.785.325 1.406.782 1.863.463.457 1.043.686 1.74.686.979 0 1.776-.396 2.391-1.187l1.151 1.099a3.861 3.861 0 01-1.529 1.327c-.633.311-1.345.466-2.136.466zm-.254-8.148c-.586 0-1.061.205-1.424.616-.358.41-.586.981-.686 1.713h4.069v-.158c-.046-.715-.237-1.254-.571-1.617-.334-.369-.797-.554-1.388-.554zm7.962-1.538v10.354c0 .972-.243 1.714-.729 2.223-.481.516-1.187.774-2.118.774a4.25 4.25 0 01-1.134-.15v-1.687c.223.053.475.079.756.079.709 0 1.072-.387 1.09-1.16V407.49h2.135zm-2.32-2.469c0-.329.103-.601.308-.818.211-.217.509-.325.896-.325s.686.108.897.325c.211.217.316.489.316.818 0 .322-.105.591-.316.808-.211.211-.51.317-.897.317s-.685-.106-.896-.317a1.131 1.131 0 01-.308-.808zm8.798 12.155c-1.354 0-2.452-.425-3.296-1.275-.838-.855-1.257-1.992-1.257-3.41v-.263c0-.95.182-1.796.545-2.54.369-.75.885-1.334 1.547-1.75a4.077 4.077 0 012.215-.624c1.295 0 2.294.414 2.997 1.24.709.826 1.063 1.995 1.063 3.507v.861h-6.213c.064.785.325 1.406.782 1.863.463.457 1.043.686 1.74.686.979 0 1.775-.396 2.391-1.187l1.151 1.099a3.875 3.875 0 01-1.529 1.327c-.633.311-1.345.466-2.136.466zm-.255-8.148c-.586 0-1.06.205-1.424.616-.357.41-.586.981-.685 1.713h4.069v-.158c-.047-.715-.237-1.254-.571-1.617-.334-.369-.797-.554-1.389-.554zm9.642 6.443c.533 0 .975-.156 1.327-.466.351-.311.539-.694.562-1.151h2.013a3.157 3.157 0 01-.554 1.661 3.647 3.647 0 01-1.406 1.213 4.2 4.2 0 01-1.916.448c-1.33 0-2.385-.431-3.164-1.292-.779-.862-1.169-2.051-1.169-3.569v-.219c0-1.448.387-2.605 1.16-3.472.774-.873 1.828-1.31 3.164-1.31 1.131 0 2.051.332 2.76.994.715.656 1.09 1.52 1.125 2.592h-2.013c-.023-.545-.211-.993-.562-1.344-.346-.352-.788-.528-1.327-.528-.692 0-1.225.252-1.6.756-.375.498-.565 1.257-.571 2.277v.342c0 1.032.184 1.802.553 2.312.375.504.915.756 1.618.756zm8.191-10.292v2.311h1.679v1.582h-1.679v5.309c0 .363.07.627.211.791.146.158.404.237.773.237.247 0 .496-.029.748-.088v1.653a5.3 5.3 0 01-1.407.202c-1.64 0-2.461-.905-2.461-2.716v-5.388h-1.564v-1.582h1.564v-2.311h2.136zm12.709 6.89h-2.478V417h-2.224v-12.797h4.5c1.476 0 2.616.331 3.419.993.803.662 1.204 1.62 1.204 2.874 0 .856-.208 1.574-.624 2.154-.41.574-.984 1.016-1.723 1.327l2.874 5.335V417h-2.382l-2.566-4.931zm-2.478-1.784h2.285c.75 0 1.336-.187 1.758-.562.421-.381.632-.9.632-1.556 0-.686-.196-1.216-.589-1.591-.386-.375-.966-.568-1.74-.58h-2.346v4.289zm12.99 6.891c-1.354 0-2.452-.425-3.296-1.275-.838-.855-1.257-1.992-1.257-3.41v-.263c0-.95.182-1.796.545-2.54.369-.75.885-1.334 1.547-1.75a4.077 4.077 0 012.215-.624c1.295 0 2.294.414 2.997 1.24.709.826 1.063 1.995 1.063 3.507v.861h-6.214c.065.785.326 1.406.783 1.863.462.457 1.043.686 1.74.686.978 0 1.775-.396 2.39-1.187l1.152 1.099a3.875 3.875 0 01-1.529 1.327c-.633.311-1.345.466-2.136.466zm-.255-8.148c-.586 0-1.061.205-1.424.616-.357.41-.586.981-.685 1.713h4.069v-.158c-.047-.715-.237-1.254-.571-1.617-.334-.369-.797-.554-1.389-.554zm8.411-3.849v2.311h1.679v1.582h-1.679v5.309c0 .363.07.627.211.791.146.158.404.237.773.237.246 0 .496-.029.747-.088v1.653a5.288 5.288 0 01-1.406.202c-1.64 0-2.461-.905-2.461-2.716v-5.388h-1.564v-1.582h1.564v-2.311h2.136zm9.079 10.889c-.627.739-1.517 1.108-2.672 1.108-1.031 0-1.813-.302-2.346-.905-.528-.604-.791-1.477-.791-2.62v-6.161h2.135v6.135c0 1.207.501 1.811 1.503 1.811 1.037 0 1.738-.373 2.101-1.117v-6.829h2.136V417h-2.013l-.053-.932zm9.22-6.627a5.377 5.377 0 00-.87-.07c-.979 0-1.638.375-1.978 1.125V417h-2.136v-9.51h2.04l.052 1.064c.516-.826 1.231-1.24 2.145-1.24.304 0 .556.041.756.124l-.009 2.003zm3.331-1.951l.061 1.099c.704-.85 1.626-1.275 2.769-1.275 1.98 0 2.988 1.134 3.023 3.402V417h-2.135v-6.161c0-.604-.132-1.049-.396-1.336-.258-.293-.682-.44-1.274-.44-.862 0-1.503.39-1.925 1.169V417h-2.136v-9.51h2.013z"/>
  <circle cx="756" cy="201" r="99" fill="#F3EFFB"/>
  <circle cx="1646" cy="289" r="99" fill="#F3EFFB"/>
  <path fill="#7F57E2" d="M776.451 232.376c1.152 0 2.048.288 2.688.864.64.576.96 1.376.96 2.4 0 1.088-.32 1.92-.96 2.496-.576.576-1.472.864-2.688.864h-31.776c-1.216 0-2.144-.288-2.784-.864-.576-.576-.864-1.408-.864-2.496 0-1.024.32-1.824.96-2.4.64-.576 1.536-.864 2.688-.864h11.904V180.92l-10.464 6.816c-.512.32-1.024.48-1.536.48-.896 0-1.696-.416-2.4-1.248-.64-.832-.96-1.728-.96-2.688 0-1.344.512-2.304 1.536-2.88l14.592-9.504c1.088-.704 2.208-1.056 3.36-1.056 1.088 0 1.984.352 2.688 1.056.704.704 1.056 1.696 1.056 2.976v57.504h12zm891.539 88c1.15 0 2.04.288 2.68.864.64.576.96 1.376.96 2.4 0 2.24-1.21 3.36-3.64 3.36h-37.64c-1.08 0-1.98-.32-2.68-.96-.71-.704-1.06-1.536-1.06-2.496 0-1.216.45-2.272 1.34-3.168l23.14-25.44c3.2-3.584 5.5-6.784 6.91-9.6 1.47-2.88 2.21-5.76 2.21-8.64 0-3.712-1.09-6.56-3.26-8.544-2.12-1.984-5.12-2.976-9.03-2.976-3.07 0-6.01.576-8.83 1.728-2.82 1.088-5.63 2.784-8.45 5.088-.96.768-1.85 1.152-2.69 1.152-.7 0-1.31-.32-1.82-.96-.51-.704-.77-1.536-.77-2.496 0-1.344.51-2.432 1.54-3.264 2.62-2.432 5.82-4.352 9.6-5.76a32.97 32.97 0 0111.61-2.112c6.08 0 10.92 1.6 14.5 4.8 3.65 3.2 5.47 7.52 5.47 12.96 0 3.904-.89 7.648-2.69 11.232-1.72 3.584-4.6 7.584-8.64 12l-19.2 20.832h30.44zM1288.9 499.788a2.011 2.011 0 00.89-2.685l-8.08-16.088a1.992 1.992 0 00-2.68-.89 1.993 1.993 0 00-.89 2.684l7.18 14.301-14.3 7.176a2.007 2.007 0 00-.9 2.685c.5.987 1.7 1.386 2.69.89l16.09-8.073zm-199.86-65.672c1.05.348 2.18-.22 2.53-1.268a1.998 1.998 0 00-1.27-2.528l-1.26 3.796zm12.28-.142a2.004 2.004 0 00-2.53 1.269 1.998 1.998 0 001.27 2.528l1.26-3.797zm6.09 6.233c1.05.348 2.18-.22 2.52-1.268a2 2 0 00-1.26-2.528l-1.26 3.796zm12.27-.142a1.993 1.993 0 00-2.52 1.269 2 2 0 001.26 2.528l1.26-3.797zm6.09 6.233c1.05.348 2.18-.22 2.53-1.268a1.997 1.997 0 00-1.27-2.528l-1.26 3.796zm12.28-.142a2.004 2.004 0 00-2.53 1.269 1.998 1.998 0 001.27 2.528l1.26-3.797zm6.08 6.233c1.05.348 2.18-.22 2.53-1.268a1.997 1.997 0 00-1.27-2.528l-1.26 3.796zm12.28-.142a2.002 2.002 0 00-2.53 1.269 2.006 2.006 0 001.27 2.528l1.26-3.797zm6.09 6.233c1.05.348 2.18-.22 2.53-1.269a2.005 2.005 0 00-1.27-2.527l-1.26 3.796zm12.28-.142a1.998 1.998 0 00-2.53 1.269 1.998 1.998 0 001.27 2.528l1.26-3.797zm6.08 6.233c1.05.348 2.18-.22 2.53-1.269a1.998 1.998 0 00-1.27-2.528l-1.26 3.797zm12.28-.142a2.002 2.002 0 00-2.53 1.269 1.998 1.998 0 001.27 2.528l1.26-3.797zm6.08 6.233c1.05.348 2.19-.22 2.53-1.269a1.998 1.998 0 00-1.27-2.528l-1.26 3.797zm12.28-.142a2.002 2.002 0 00-2.53 1.269 2.005 2.005 0 001.27 2.527l1.26-3.796zm6.09 6.233c1.05.348 2.18-.22 2.53-1.269a2.006 2.006 0 00-1.27-2.528l-1.26 3.797zm12.28-.142a2.002 2.002 0 00-2.53 1.268 1.997 1.997 0 001.27 2.528l1.26-3.796zm6.08 6.233a2.004 2.004 0 002.53-1.269 1.998 1.998 0 00-1.27-2.528l-1.26 3.797zm12.28-.142a2.002 2.002 0 00-2.53 1.268 1.997 1.997 0 001.27 2.528l1.26-3.796zm6.09 6.233a1.993 1.993 0 002.52-1.269 2 2 0 00-1.26-2.528l-1.26 3.797zm12.27-.142a1.987 1.987 0 00-2.52 1.268 2 2 0 001.26 2.528l1.26-3.796zm6.09 6.233a2.004 2.004 0 002.53-1.269 1.998 1.998 0 00-1.27-2.528l-1.26 3.797zm12.28-.142a2.002 2.002 0 00-2.53 1.268 1.998 1.998 0 001.27 2.528l1.26-3.796zm-199.59-61.986l3.67 1.218 1.26-3.796-3.67-1.218-1.26 3.796zm14.69 4.873l7.35 2.436 1.26-3.796-7.35-2.437-1.26 3.797zm18.36 6.091l7.35 2.436 1.26-3.796-7.35-2.437-1.26 3.797zm18.37 6.091l7.34 2.436 1.26-3.796-7.34-2.437-1.26 3.797zm18.36 6.091l7.35 2.436 1.26-3.796-7.35-2.437-1.26 3.797zm18.37 6.091l7.34 2.436 1.26-3.797-7.34-2.436-1.26 3.797zm18.36 6.091l7.34 2.436 1.26-3.797-7.34-2.436-1.26 3.797zm18.36 6.09l7.35 2.437 1.26-3.797-7.35-2.436-1.26 3.796zm18.37 6.091l7.34 2.437 1.26-3.797-7.34-2.436-1.26 3.796zm18.36 6.091l7.35 2.437 1.26-3.797-7.35-2.436-1.26 3.796zm18.36 6.091l7.35 2.437 1.26-3.797-7.35-2.436-1.26 3.796zm18.37 6.091l3.67 1.218 1.26-3.796-3.67-1.218-1.26 3.796z"/>
  <defs>
    <filter id="Frame_20__filter0_d" width="643" height="221" x="440" y="316" color-interpolation-filters="sRGB" filterUnits="userSpaceOnUse">
      <feFlood flood-opacity="0" result="BackgroundImageFix"/>
      <feColorMatrix in="SourceAlpha" result="hardAlpha" values="0 0 0 0 0 0 0 0 0 0 0 0 0 0 0 0 0 0 127 0"/>
      <feMorphology in="SourceAlpha" operator="dilate" radius="4" result="effect1_dropShadow"/>
      <feOffset dy="16"/>
      <feGaussianBlur stdDeviation="20"/>
      <feColorMatrix values="0 0 0 0 0.645718 0 0 0 0 0.645718 0 0 0 0 0.645718 0 0 0 0.2 0"/>
      <feBlend in2="BackgroundImageFix" result="effect1_dropShadow"/>
      <feBlend in="SourceGraphic" in2="effect1_dropShadow" result="shape"/>
    </filter>
    <filter id="Frame_20__filter1_d" width="643" height="221" x="1308" y="404" color-interpolation-filters="sRGB" filterUnits="userSpaceOnUse">
      <feFlood flood-opacity="0" result="BackgroundImageFix"/>
      <feColorMatrix in="SourceAlpha" result="hardAlpha" values="0 0 0 0 0 0 0 0 0 0 0 0 0 0 0 0 0 0 127 0"/>
      <feMorphology in="SourceAlpha" operator="dilate" radius="4" result="effect1_dropShadow"/>
      <feOffset dy="16"/>
      <feGaussianBlur stdDeviation="20"/>
      <feColorMatrix values="0 0 0 0 0.645718 0 0 0 0 0.645718 0 0 0 0 0.645718 0 0 0 0.2 0"/>
      <feBlend in2="BackgroundImageFix" result="effect1_dropShadow"/>
      <feBlend in="SourceGraphic" in2="effect1_dropShadow" result="shape"/>
    </filter>
  </defs>
</svg>
