<svg xmlns="http://www.w3.org/2000/svg" width="4218" height="2802" fill="none">
  <defs/>
  <path fill="#fff" d="M0 0h4218v2802H0z"/>
  <path fill="#fff" d="M1363 382h1699v1208H1363z"/>
  <path fill="#EEEFF1" d="M1568 525h1494v1064H1568z"/>
  <rect width="1133" height="660" x="1740" y="778" fill="#BCC0C8" rx="20"/>
  <path fill="#BCC0C8" d="M1363 382h205v1207h-205z"/>
  <path fill="#BCC0C8" d="M1363 382h1698v65H1363z"/>
  <rect width="868" height="71" x="1872" y="641" fill="#fff" rx="30"/>
  <rect width="105" height="7" x="2622" y="498" fill="#EEEFF1" rx="3.5"/>
  <rect width="105" height="23" x="2622" y="466" fill="#EEEFF1" rx="11.5"/>
  <rect width="105" height="23" x="2768" y="466" fill="#EEEFF1" rx="11.5"/>
  <rect width="105" height="23" x="2915" y="466" fill="#EEEFF1" rx="11.5"/>
  <rect width="105" height="23" x="2476" y="466" fill="#EEEFF1" rx="11.5"/>
  <rect width="160" height="24" x="1604" y="474" fill="#BCC0C8" rx="12"/>
  <rect width="161" height="23" x="1385" y="486" fill="#EEEFF1" rx="11.5"/>
  <rect width="161" height="23" x="1385" y="525" fill="#EEEFF1" rx="11.5"/>
  <rect width="161" height="23" x="1385" y="564" fill="#EEEFF1" rx="11.5"/>
  <rect width="161" height="24" x="1385" y="602" fill="#EEEFF1" rx="12"/>
  <rect width="161" height="24" x="1385" y="641" fill="#EEEFF1" rx="12"/>
  <rect width="161" height="24" x="1385" y="680" fill="#EEEFF1" rx="12"/>
  <g opacity=".3">
    <path fill="#fff" d="M1363 1677h1145v814H1363z"/>
    <path fill="#EEEFF1" d="M1501 1721h1007v770H1501z"/>
    <rect width="657" height="445" x="1640" y="1954" fill="#BCC0C8" rx="20"/>
    <path fill="#BCC0C8" d="M1363 1677h138v814h-138z"/>
    <rect width="178" height="127" x="1640" y="1810" fill="#fff" rx="20"/>
    <rect width="226" height="127" x="1851" y="1810" fill="#fff" rx="20"/>
    <rect width="178" height="127" x="2109" y="1810" fill="#fff" rx="20"/>
    <path fill="#BCC0C8" d="M1363 1677h1144v44H1363z"/>
    <rect width="108" height="16" x="1378" y="1747" fill="#EEEFF1" rx="8"/>
    <rect width="108" height="16" x="1516" y="1794" fill="#EEEFF1" rx="8"/>
    <rect width="108" height="16" x="1378" y="1773" fill="#EEEFF1" rx="8"/>
    <rect width="108" height="16" x="1516" y="1820" fill="#EEEFF1" rx="8"/>
    <rect width="108" height="16" x="1378" y="1799" fill="#EEEFF1" rx="8"/>
    <rect width="108" height="16" x="1516" y="1846" fill="#EEEFF1" rx="8"/>
    <rect width="108" height="15" x="1378" y="1826" fill="#EEEFF1" rx="7.5"/>
    <rect width="108" height="16" x="1516" y="1872" fill="#EEEFF1" rx="8"/>
    <rect width="108" height="16" x="1378" y="1852" fill="#EEEFF1" rx="8"/>
    <rect width="108" height="16" x="1516" y="1899" fill="#EEEFF1" rx="8"/>
    <rect width="108" height="16" x="1378" y="1878" fill="#EEEFF1" rx="8"/>
    <rect width="108" height="16" x="1516" y="1925" fill="#EEEFF1" rx="8"/>
    <path fill="#BCC0C8" d="M2358 1721h149v770h-149z"/>
    <rect width="109" height="16" x="2378" y="1747" fill="#EEEFF1" rx="8"/>
    <rect width="109" height="16" x="2378" y="1773" fill="#EEEFF1" rx="8"/>
    <rect width="109" height="16" x="2378" y="1799" fill="#EEEFF1" rx="8"/>
    <rect width="109" height="15" x="2378" y="1826" fill="#EEEFF1" rx="7.5"/>
    <rect width="109" height="16" x="2378" y="1852" fill="#EEEFF1" rx="8"/>
    <rect width="109" height="16" x="2378" y="1878" fill="#EEEFF1" rx="8"/>
  </g>
  <rect width="852" height="110" x="1889" y="178" fill="#F3EFFB" rx="55"/>
  <path fill="#5431AA" d="M2019.02 259h-6.79v-23.66h-25.8V259h-6.75v-51.188h6.75v22.008h25.8v-22.008h6.79V259zm53.52-23.941c0 5.015-.84 9.398-2.53 13.148-1.69 3.727-4.08 6.574-7.17 8.543-3.1 1.969-6.71 2.953-10.83 2.953-4.03 0-7.61-.984-10.72-2.953-3.12-1.992-5.55-4.816-7.28-8.473-1.71-3.679-2.59-7.933-2.64-12.761v-3.692c0-4.922.86-9.269 2.57-13.043 1.71-3.773 4.12-6.656 7.24-8.648 3.14-2.016 6.73-3.024 10.76-3.024 4.1 0 7.71.996 10.83 2.989 3.14 1.968 5.55 4.84 7.24 8.613 1.69 3.75 2.53 8.121 2.53 13.113v3.235zm-6.71-3.305c0-6.07-1.22-10.723-3.66-13.957-2.44-3.258-5.85-4.887-10.23-4.887-4.27 0-7.63 1.629-10.09 4.887-2.44 3.234-3.69 7.734-3.76 13.5v3.762c0 5.882 1.23 10.511 3.69 13.886 2.48 3.352 5.89 5.028 10.23 5.028 4.36 0 7.73-1.582 10.12-4.746 2.39-3.188 3.62-7.747 3.7-13.676v-3.797zm37.77 6.539h-12.02V259h-6.79v-51.188h16.95c5.76 0 10.19 1.313 13.28 3.938 3.12 2.625 4.68 6.445 4.68 11.461 0 3.187-.87 5.965-2.6 8.332-1.71 2.367-4.1 4.137-7.17 5.309l12.02 21.726V259h-7.24l-11.11-20.707zm-12.02-5.52h10.37c3.35 0 6.01-.867 7.98-2.601 1.99-1.734 2.98-4.055 2.98-6.961 0-3.164-.94-5.59-2.84-7.277-1.88-1.688-4.6-2.543-8.16-2.567h-10.33v19.406zM2138.59 259h-6.75v-51.188h6.75V259zm19.6-5.52h29.29V259h-37.27v-5.062l28.06-40.571h-27.6v-5.555h35.68v4.958l-28.16 40.71zm78.66-18.421c0 5.015-.84 9.398-2.53 13.148-1.69 3.727-4.08 6.574-7.17 8.543-3.1 1.969-6.7 2.953-10.83 2.953-4.03 0-7.6-.984-10.72-2.953-3.12-1.992-5.55-4.816-7.28-8.473-1.71-3.679-2.59-7.933-2.64-12.761v-3.692c0-4.922.86-9.269 2.57-13.043 1.71-3.773 4.13-6.656 7.24-8.648 3.14-2.016 6.73-3.024 10.76-3.024 4.1 0 7.71.996 10.83 2.989 3.14 1.968 5.55 4.84 7.24 8.613 1.69 3.75 2.53 8.121 2.53 13.113v3.235zm-6.71-3.305c0-6.07-1.22-10.723-3.66-13.957-2.44-3.258-5.85-4.887-10.23-4.887-4.27 0-7.63 1.629-10.09 4.887-2.44 3.234-3.69 7.734-3.76 13.5v3.762c0 5.882 1.23 10.511 3.69 13.886 2.48 3.352 5.89 5.028 10.23 5.028 4.36 0 7.73-1.582 10.13-4.746 2.39-3.188 3.62-7.747 3.69-13.676v-3.797zM2288.48 259h-6.79l-25.77-39.445V259h-6.78v-51.188h6.78l25.84 39.622v-39.622h6.72V259zm48.46-45.633h-16.46V259h-6.71v-45.633h-16.42v-5.555h39.59v5.555zm35.2 32.274h-21.44L2345.88 259h-6.96l19.55-51.188h5.9L2383.96 259h-6.93l-4.89-13.359zm-19.4-5.555h17.4l-8.72-23.941-8.68 23.941zm47.05 13.394h24.26V259h-31.04v-51.188h6.78v45.668zm62.86-45.668l16.73 41.766 16.74-41.766h8.75V259h-6.75v-19.934l.63-21.515-16.8 41.449h-5.17l-16.77-41.344.67 21.41V259h-6.75v-51.188h8.72zm85.23 27.528h-22.18v18.14h25.77V259h-32.52v-51.188h32.17v5.555h-25.42v16.453h22.18v5.52zm53.49 23.66h-6.78l-25.77-39.445V259h-6.79v-51.188h6.79l25.84 39.622v-39.622h6.71V259zm50.18-51.188v34.805c-.02 4.828-1.54 8.778-4.57 11.848-3 3.07-7.07 4.793-12.23 5.168l-1.79.07c-5.61 0-10.07-1.512-13.4-4.535s-5.01-7.184-5.06-12.48v-34.876h6.68v34.665c0 3.703 1.02 6.585 3.06 8.648 2.04 2.039 4.94 3.059 8.72 3.059 3.82 0 6.73-1.02 8.75-3.059 2.04-2.039 3.06-4.91 3.06-8.613v-34.7h6.78z"/>
  <path fill="#7F57E2" d="M2316.88 433.121a2.996 2.996 0 004.24 0l19.09-19.092a3.002 3.002 0 000-4.242 2.996 2.996 0 00-4.24 0l-16.97 16.97-16.97-16.97a2.996 2.996 0 00-4.24 0 3.002 3.002 0 000 4.242l19.09 19.092zM2316 289v142h6V289h-6z"/>
  <rect width="852" height="110" x="1889" y="178" stroke="#7F57E2" stroke-width="6" rx="55"/>
  <rect width="852" height="110" x="3156" y="622" fill="#F3EFFB" rx="55"/>
  <path fill="#5431AA" d="M3368.7 679.199l-6.26 6.504V703h-6.75v-51.188h6.75v25.313l22.75-25.313h8.15l-20.14 22.606L3394.93 703h-8.09l-18.14-23.801zm63.23.141h-22.19v18.14h25.77V703h-32.52v-51.188h32.17v5.555h-25.42v16.453h22.19v5.52zm29.75-1.828l13.36-25.7h7.67l-17.65 32.098V703h-6.75v-19.09l-17.65-32.098h7.73l13.29 25.7zm78.05 2.883h-21.48V703h-6.75v-51.188h31.71v5.555h-24.96v17.508h21.48v5.52zm49.76-28.583v34.805c-.03 4.828-1.55 8.778-4.57 11.848-3 3.07-7.08 4.793-12.24 5.168l-1.79.07c-5.6 0-10.07-1.512-13.39-4.535-3.33-3.023-5.02-7.184-5.07-12.48v-34.876h6.68v34.665c0 3.703 1.02 6.585 3.06 8.648 2.04 2.039 4.95 3.059 8.72 3.059 3.82 0 6.74-1.02 8.75-3.059 2.04-2.039 3.06-4.91 3.06-8.613v-34.7h6.79zM3641.64 703h-6.78l-25.77-39.445V703h-6.79v-51.188h6.79l25.84 39.622v-39.622h6.71V703zm51.8-16.242c-.63 5.414-2.64 9.597-6.01 12.551-3.35 2.929-7.82 4.394-13.4 4.394-6.04 0-10.89-2.168-14.55-6.504-3.63-4.336-5.45-10.137-5.45-17.402v-4.922c0-4.758.84-8.941 2.53-12.551 1.71-3.609 4.13-6.375 7.24-8.297 3.12-1.945 6.73-2.918 10.83-2.918 5.44 0 9.8 1.524 13.08 4.571 3.28 3.023 5.19 7.218 5.73 12.586h-6.78c-.59-4.078-1.87-7.032-3.84-8.86-1.94-1.828-4.67-2.742-8.19-2.742-4.31 0-7.7 1.594-10.16 4.781-2.44 3.188-3.65 7.723-3.65 13.606v4.957c0 5.554 1.16 9.972 3.48 13.254 2.32 3.281 5.56 4.922 9.73 4.922 3.75 0 6.63-.844 8.62-2.532 2.01-1.711 3.35-4.675 4.01-8.894h6.78zm45.72-29.391h-16.45V703h-6.72v-45.633h-16.42v-5.555h39.59v5.555zm17 45.633h-6.75v-51.188h6.75V703zm53.91-23.941c0 5.015-.85 9.398-2.54 13.148-1.68 3.727-4.07 6.574-7.17 8.543-3.09 1.969-6.7 2.953-10.83 2.953-4.03 0-7.6-.984-10.72-2.953-3.12-1.992-5.54-4.816-7.28-8.473-1.71-3.679-2.59-7.933-2.63-12.761v-3.692c0-4.922.85-9.269 2.56-13.043 1.71-3.773 4.13-6.656 7.25-8.648 3.14-2.016 6.72-3.024 10.75-3.024 4.11 0 7.71.996 10.83 2.989 3.14 1.968 5.56 4.84 7.24 8.613 1.69 3.75 2.54 8.121 2.54 13.113v3.235zm-6.72-3.305c0-6.07-1.22-10.723-3.66-13.957-2.43-3.258-5.84-4.887-10.23-4.887-4.26 0-7.62 1.629-10.09 4.887-2.43 3.234-3.69 7.734-3.76 13.5v3.762c0 5.882 1.23 10.511 3.69 13.886 2.49 3.352 5.9 5.028 10.23 5.028 4.36 0 7.74-1.582 10.13-4.746 2.39-3.188 3.62-7.747 3.69-13.676v-3.797z"/>
  <path fill="#7F57E2" d="M2872.88 674.879a3.002 3.002 0 000 4.242l19.09 19.092a2.996 2.996 0 004.24 0 3.002 3.002 0 000-4.242L2879.24 677l16.97-16.971a3.002 3.002 0 000-4.242 2.996 2.996 0 00-4.24 0l-19.09 19.092zM3147.5 674H2875v6h272.5v-6z"/>
  <rect width="852" height="110" x="3156" y="622" stroke="#7F57E2" stroke-width="6" rx="55"/>
  <g opacity=".3">
    <path fill="#fff" d="M127 1677h1144v814H127z"/>
    <path fill="#EEEFF1" d="M265 1721h1006v769H265z"/>
    <rect width="697" height="445" x="487" y="1963" fill="#BCC0C8" rx="20"/>
    <path fill="#BCC0C8" d="M127 1677h138v813H127z"/>
    <path fill="#fff" d="M265 1721h139v769H265z"/>
    <rect width="192" height="137" x="487" y="1774" fill="#fff" rx="20"/>
    <rect width="243" height="137" x="715" y="1774" fill="#fff" rx="20"/>
    <rect width="192" height="137" x="992" y="1774" fill="#fff" rx="20"/>
    <path fill="#BCC0C8" d="M127 1677h1143v44H127z"/>
    <rect width="108" height="16" x="142" y="1747" fill="#EEEFF1" rx="8"/>
    <rect width="109" height="16" x="280" y="1794" fill="#EEEFF1" rx="8"/>
    <rect width="108" height="16" x="142" y="1773" fill="#EEEFF1" rx="8"/>
    <rect width="109" height="16" x="280" y="1820" fill="#EEEFF1" rx="8"/>
    <rect width="108" height="16" x="142" y="1799" fill="#EEEFF1" rx="8"/>
    <rect width="109" height="16" x="280" y="1846" fill="#EEEFF1" rx="8"/>
    <rect width="108" height="16" x="142" y="1826" fill="#EEEFF1" rx="8"/>
    <rect width="109" height="16" x="280" y="1873" fill="#EEEFF1" rx="8"/>
    <rect width="108" height="16" x="142" y="1852" fill="#EEEFF1" rx="8"/>
    <rect width="109" height="16" x="280" y="1899" fill="#EEEFF1" rx="8"/>
    <rect width="108" height="16" x="142" y="1878" fill="#EEEFF1" rx="8"/>
    <rect width="109" height="16" x="280" y="1925" fill="#EEEFF1" rx="8"/>
  </g>
  <g clip-path="url(#Frame_19__clip0)" opacity=".3">
    <path fill="#fff" d="M127 778h1143v813H127z"/>
    <path fill="#EEEFF1" d="M265 822h1006v769H265z"/>
    <rect width="657" height="444" x="487" y="1045" fill="#BCC0C8" rx="20"/>
    <path fill="#BCC0C8" d="M127 778h138v813H127z"/>
    <path fill="#fff" d="M265 822h138v769H265z"/>
    <rect width="112" height="127" x="279" y="908" fill="#EEEFF1" rx="20"/>
    <rect width="112" height="126" x="279" y="1053" fill="#EEEFF1" rx="20"/>
    <rect width="112" height="127" x="279" y="1435" fill="#EEEFF1" rx="20"/>
    <path fill="#BCC0C8" d="M127 778h1143v44H127z"/>
    <rect width="584" height="47" x="524" y="953" fill="#fff" rx="23.5"/>
    <rect width="108" height="16" x="283" y="842" fill="#BCC0C8" rx="8"/>
    <rect width="108" height="16" x="279" y="1359" fill="#BCC0C8" rx="8"/>
    <rect width="108" height="15" x="279" y="1393" fill="#BCC0C8" rx="7.5"/>
    <rect width="108" height="16" x="142" y="848" fill="#EEEFF1" rx="8"/>
    <rect width="108" height="16" x="142" y="874" fill="#EEEFF1" rx="8"/>
    <rect width="108" height="16" x="142" y="900" fill="#EEEFF1" rx="8"/>
    <rect width="108" height="16" x="142" y="926" fill="#EEEFF1" rx="8"/>
    <rect width="108" height="16" x="142" y="953" fill="#EEEFF1" rx="8"/>
    <rect width="108" height="16" x="142" y="979" fill="#EEEFF1" rx="8"/>
  </g>
  <defs>
    <clipPath id="Frame_19__clip0">
      <path fill="#fff" d="M0 0h1143v813H0z" transform="translate(127 778)"/>
    </clipPath>
  </defs>
</svg>
