<svg xmlns="http://www.w3.org/2000/svg" width="1227" height="771" fill="none">
  <defs/>
  <path fill="#fff" d="M0 0h1227v771H0z"/>
  <path fill="#9BA6B7" d="M489.51 160h-4.102l-7.984-13.098V160h-4.102v-19.906h4.102l7.998 13.125v-13.125h4.088V160zm2.707-7.533c0-1.468.282-2.776.847-3.924.566-1.148 1.377-2.037 2.434-2.666 1.066-.629 2.301-.943 3.705-.943 1.996 0 3.623.61 4.881 1.832 1.267 1.221 1.973 2.88 2.119 4.976l.027 1.012c0 2.269-.633 4.092-1.9 5.469-1.267 1.367-2.967 2.05-5.1 2.05-2.132 0-3.837-.683-5.113-2.05-1.267-1.368-1.9-3.227-1.9-5.578v-.178zm3.951.287c0 1.404.264 2.479.793 3.226.529.739 1.285 1.108 2.269 1.108.958 0 1.705-.365 2.243-1.094.537-.738.806-1.914.806-3.527 0-1.377-.269-2.443-.806-3.199-.538-.757-1.295-1.135-2.27-1.135-.966 0-1.713.378-2.242 1.135-.529.747-.793 1.909-.793 3.486zm27.781-3.842a10.708 10.708 0 00-1.422-.109c-1.494 0-2.474.506-2.939 1.517V160h-3.951v-14.793h3.732l.11 1.764c.792-1.358 1.891-2.037 3.294-2.037.438 0 .848.059 1.231.177l-.055 3.801zm8.449 11.361c-2.169 0-3.937-.665-5.304-1.996-1.358-1.33-2.037-3.103-2.037-5.318v-.383c0-1.486.287-2.812.861-3.978.574-1.176 1.385-2.078 2.434-2.707 1.057-.638 2.26-.957 3.609-.957 2.023 0 3.614.638 4.771 1.914 1.167 1.276 1.75 3.085 1.75 5.427v1.614h-9.42c.128.966.511 1.741 1.149 2.324.647.583 1.463.875 2.447.875 1.522 0 2.712-.552 3.569-1.654l1.941 2.173c-.592.839-1.395 1.495-2.406 1.969-1.012.465-2.133.697-3.364.697zm-.451-12.14c-.784 0-1.422.264-1.914.793-.483.528-.793 1.285-.929 2.269h5.496v-.314c-.019-.875-.256-1.55-.711-2.024-.456-.483-1.103-.724-1.942-.724zm13.522-6.563v3.637h2.529v2.898h-2.529v7.383c0 .547.105.939.314 1.176.21.237.611.356 1.203.356.438 0 .825-.032 1.162-.096v2.994a8.127 8.127 0 01-2.392.355c-2.771 0-4.184-1.399-4.238-4.197v-7.971h-2.161v-2.898h2.161v-3.637h3.951zm13.59 16.926c-.976 1.185-2.325 1.777-4.047 1.777-1.586 0-2.798-.455-3.637-1.367-.829-.911-1.253-2.246-1.271-4.006v-9.693h3.951v9.557c0 1.54.702 2.31 2.105 2.31 1.34 0 2.261-.465 2.762-1.394v-10.473h3.965V160h-3.719l-.109-1.504zm15.121-9.584a10.72 10.72 0 00-1.422-.109c-1.495 0-2.475.506-2.94 1.517V160h-3.951v-14.793h3.733l.109 1.764c.793-1.358 1.891-2.037 3.295-2.037.437 0 .848.059 1.23.177l-.054 3.801zm5.55-3.705l.124 1.709c1.057-1.322 2.474-1.982 4.251-1.982 1.568 0 2.735.46 3.5 1.38.766.921 1.158 2.297 1.176 4.129V160h-3.951v-9.461c0-.838-.182-1.445-.547-1.818-.364-.383-.971-.575-1.818-.575-1.112 0-1.946.474-2.502 1.422V160h-3.951v-14.793h3.718zm20.071 10.705c0-.483-.242-.861-.725-1.135-.474-.282-1.239-.533-2.297-.752-3.518-.738-5.277-2.233-5.277-4.484 0-1.312.542-2.406 1.627-3.281 1.094-.884 2.52-1.326 4.279-1.326 1.878 0 3.377.442 4.498 1.326 1.13.884 1.696 2.032 1.696 3.445h-3.952c0-.565-.182-1.03-.546-1.394-.365-.374-.935-.561-1.709-.561-.666 0-1.181.15-1.545.451a1.424 1.424 0 00-.547 1.149c0 .437.205.793.615 1.066.419.264 1.121.497 2.105.697.985.192 1.814.41 2.489.657 2.087.765 3.131 2.091 3.131 3.978 0 1.349-.579 2.443-1.737 3.281-1.157.83-2.652 1.244-4.484 1.244-1.24 0-2.343-.218-3.309-.656-.957-.446-1.709-1.053-2.256-1.818-.546-.775-.82-1.609-.82-2.502h3.746c.037.702.296 1.239.779 1.613.484.374 1.131.561 1.942.561.756 0 1.326-.142 1.709-.424.392-.292.588-.67.588-1.135zm18.101-14.342v3.637h2.53v2.898h-2.53v7.383c0 .547.105.939.315 1.176.209.237.61.356 1.203.356.437 0 .825-.032 1.162-.096v2.994a8.134 8.134 0 01-2.393.355c-2.77 0-4.183-1.399-4.238-4.197v-7.971h-2.16v-2.898h2.16v-3.637h3.951zm3.705 10.897c0-1.468.283-2.776.848-3.924.565-1.148 1.376-2.037 2.434-2.666 1.066-.629 2.301-.943 3.705-.943 1.996 0 3.623.61 4.881 1.832 1.267 1.221 1.973 2.88 2.119 4.976l.027 1.012c0 2.269-.633 4.092-1.9 5.469-1.267 1.367-2.967 2.05-5.1 2.05-2.133 0-3.837-.683-5.113-2.05-1.267-1.368-1.901-3.227-1.901-5.578v-.178zm3.952.287c0 1.404.264 2.479.793 3.226.528.739 1.285 1.108 2.269 1.108.957 0 1.705-.365 2.242-1.094.538-.738.807-1.914.807-3.527 0-1.377-.269-2.443-.807-3.199-.537-.757-1.294-1.135-2.269-1.135-.966 0-1.714.378-2.242 1.135-.529.747-.793 1.909-.793 3.486zm27.48 3.158c0-.483-.241-.861-.725-1.135-.474-.282-1.239-.533-2.296-.752-3.519-.738-5.278-2.233-5.278-4.484 0-1.312.543-2.406 1.627-3.281 1.094-.884 2.52-1.326 4.279-1.326 1.878 0 3.377.442 4.499 1.326 1.13.884 1.695 2.032 1.695 3.445h-3.951c0-.565-.183-1.03-.547-1.394-.365-.374-.934-.561-1.709-.561-.666 0-1.181.15-1.545.451a1.424 1.424 0 00-.547 1.149c0 .437.205.793.615 1.066.42.264 1.121.497 2.106.697.984.192 1.814.41 2.488.657 2.087.765 3.131 2.091 3.131 3.978 0 1.349-.579 2.443-1.736 3.281-1.158.83-2.653 1.244-4.485 1.244-1.239 0-2.342-.218-3.308-.656-.957-.446-1.709-1.053-2.256-1.818-.547-.775-.821-1.609-.821-2.502h3.746c.037.702.297 1.239.78 1.613.483.374 1.13.561 1.941.561.757 0 1.326-.142 1.709-.424.392-.292.588-.67.588-1.135zm10.254-9.092c1.048-1.258 2.365-1.886 3.951-1.886 3.208 0 4.835 1.864 4.881 5.591V160h-3.951v-9.365c0-.848-.182-1.472-.547-1.873-.365-.41-.971-.616-1.818-.616-1.158 0-1.997.447-2.516 1.34V160h-3.951v-21h3.951v7.82zm11.197 5.647c0-1.468.283-2.776.848-3.924.565-1.148 1.376-2.037 2.433-2.666 1.067-.629 2.302-.943 3.706-.943 1.996 0 3.623.61 4.88 1.832 1.267 1.221 1.974 2.88 2.12 4.976l.027 1.012c0 2.269-.634 4.092-1.9 5.469-1.267 1.367-2.967 2.05-5.1 2.05-2.133 0-3.837-.683-5.113-2.05-1.267-1.368-1.901-3.227-1.901-5.578v-.178zm3.951.287c0 1.404.265 2.479.793 3.226.529.739 1.286 1.108 2.27 1.108.957 0 1.704-.365 2.242-1.094.538-.738.807-1.914.807-3.527 0-1.377-.269-2.443-.807-3.199-.538-.757-1.294-1.135-2.269-1.135-.967 0-1.714.378-2.243 1.135-.528.747-.793 1.909-.793 3.486zm25.362 1.873l1.941-9.42h3.815L705.785 160h-3.308l-2.803-9.311-2.803 9.311h-3.295l-3.773-14.793h3.814l1.928 9.406 2.707-9.406h2.857l2.694 9.42zm20.22-.219l2.735-9.201h4.238l-5.947 17.09-.328.779c-.884 1.932-2.343 2.899-4.375 2.899a6.217 6.217 0 01-1.75-.26v-2.994l.601.013c.748 0 1.304-.114 1.668-.341.374-.228.666-.607.875-1.135l.465-1.217-5.182-14.834h4.252l2.748 9.201zm15.149 5.865c-2.169 0-3.938-.665-5.305-1.996-1.358-1.33-2.037-3.103-2.037-5.318v-.383c0-1.486.287-2.812.861-3.978.575-1.176 1.386-2.078 2.434-2.707 1.057-.638 2.26-.957 3.609-.957 2.024 0 3.614.638 4.772 1.914 1.167 1.276 1.75 3.085 1.75 5.427v1.614h-9.42c.128.966.51 1.741 1.148 2.324.648.583 1.463.875 2.448.875 1.522 0 2.711-.552 3.568-1.654l1.941 2.173c-.592.839-1.394 1.495-2.406 1.969-1.012.465-2.133.697-3.363.697zm-.451-12.14c-.784 0-1.422.264-1.914.793-.483.528-.793 1.285-.93 2.269h5.496v-.314c-.018-.875-.255-1.55-.711-2.024-.456-.483-1.103-.724-1.941-.724zm13.521-6.563v3.637h2.529v2.898h-2.529v7.383c0 .547.105.939.315 1.176.209.237.61.356 1.203.356.437 0 .825-.032 1.162-.096v2.994a8.134 8.134 0 01-2.393.355c-2.771 0-4.183-1.399-4.238-4.197v-7.971h-2.16v-2.898h2.16v-3.637h3.951z"/>
  <path stroke="#538EF4" stroke-width="1.2" d="M678 229h24"/>
  <path fill="#7F8A9B" d="M489.468 217.047l3.254 8.121 3.254-8.121h1.702V227h-1.313v-3.876l.123-4.184-3.267 8.06h-1.005l-3.261-8.039.13 4.163V227h-1.313v-9.953h1.696zM504.363 227c-.073-.146-.132-.406-.177-.779-.588.61-1.29.916-2.106.916-.729 0-1.328-.205-1.798-.616-.465-.414-.697-.938-.697-1.572 0-.77.292-1.367.875-1.791.588-.428 1.413-.642 2.475-.642h1.23v-.581c0-.442-.132-.793-.396-1.053-.265-.264-.654-.397-1.169-.397-.452 0-.83.114-1.135.342-.305.228-.458.504-.458.827h-1.272c0-.369.13-.724.39-1.066a2.7 2.7 0 011.066-.82 3.608 3.608 0 011.484-.301c.852 0 1.52.214 2.003.642.483.424.733 1.01.752 1.757v3.405c0 .679.086 1.219.259 1.62V227h-1.326zm-2.098-.964c.396 0 .772-.102 1.128-.307.355-.206.613-.472.772-.8v-1.518h-.991c-1.55 0-2.324.454-2.324 1.36 0 .397.132.707.396.93.264.223.604.335 1.019.335zm7.212-2.461l-.793.827V227h-1.265v-10.5h1.265v6.351l.676-.814 2.304-2.433h1.538l-2.878 3.089 3.213 4.307h-1.483l-2.577-3.425zm7.963 3.562c-1.002 0-1.818-.328-2.447-.985-.629-.66-.943-1.542-.943-2.645v-.233c0-.733.139-1.387.417-1.962a3.281 3.281 0 011.176-1.353 2.954 2.954 0 011.64-.492c.962 0 1.709.317 2.242.95.534.633.8 1.54.8 2.721v.526h-5.011c.019.729.231 1.319.636 1.771.41.446.93.669 1.559.669.446 0 .825-.091 1.135-.273a2.85 2.85 0 00.813-.725l.772.602c-.619.952-1.549 1.429-2.789 1.429zm-.157-6.631c-.51 0-.939.187-1.285.56-.346.37-.56.889-.643 1.559h3.706v-.096c-.037-.642-.21-1.139-.52-1.49-.31-.355-.729-.533-1.258-.533zm12.291 4.532c0-.342-.13-.606-.389-.793-.256-.191-.705-.355-1.347-.492-.638-.137-1.146-.301-1.525-.492-.373-.192-.651-.42-.834-.684a1.655 1.655 0 01-.266-.943c0-.606.255-1.119.766-1.538.514-.42 1.171-.629 1.968-.629.839 0 1.518.216 2.037.649.524.433.787.987.787 1.661h-1.272c0-.346-.148-.645-.444-.895-.292-.251-.661-.376-1.108-.376-.46 0-.82.1-1.08.301a.944.944 0 00-.389.786c0 .305.12.535.362.69.241.155.677.303 1.306.445.633.141 1.146.309 1.538.505.392.196.681.433.868.711.191.274.287.609.287 1.005 0 .661-.264 1.192-.793 1.593-.529.396-1.215.595-2.058.595-.592 0-1.116-.105-1.572-.315a2.584 2.584 0 01-1.073-.875 2.146 2.146 0 01-.383-1.223h1.265c.022.423.191.761.505 1.011.319.246.739.369 1.258.369.479 0 .862-.095 1.149-.287.291-.196.437-.455.437-.779zm7.479 1.231c-.492.578-1.215.868-2.167.868-.789 0-1.39-.228-1.805-.684-.41-.46-.617-1.139-.622-2.037v-4.812h1.265v4.778c0 1.121.455 1.681 1.367 1.681.966 0 1.609-.36 1.928-1.08v-5.379h1.264V227h-1.203l-.027-.731zm6.733-5.531a3.777 3.777 0 00-.622-.048c-.829 0-1.392.354-1.688 1.06V227h-1.265v-7.396h1.23l.021.854c.415-.661 1.003-.991 1.764-.991.246 0 .433.032.56.095v1.176zm4.102 6.399c-1.003 0-1.819-.328-2.448-.985-.628-.66-.943-1.542-.943-2.645v-.233c0-.733.139-1.387.417-1.962a3.295 3.295 0 011.176-1.353 2.96 2.96 0 011.64-.492c.962 0 1.709.317 2.243.95.533.633.799 1.54.799 2.721v.526h-5.01c.018.729.23 1.319.635 1.771.411.446.93.669 1.559.669.447 0 .825-.091 1.135-.273.31-.182.581-.424.813-.725l.773.602c-.62.952-1.55 1.429-2.789 1.429zm-.158-6.631c-.51 0-.938.187-1.285.56-.346.37-.56.889-.642 1.559h3.705v-.096c-.037-.642-.21-1.139-.52-1.49-.31-.355-.729-.533-1.258-.533zm10.405 4.641l1.722-5.543h1.354l-2.974 8.538c-.46 1.23-1.191 1.845-2.194 1.845l-.239-.02-.472-.089v-1.025l.342.027c.428 0 .761-.087.998-.26.241-.173.44-.49.595-.95l.28-.752-2.639-7.314h1.381l1.846 5.543zm3.766-1.914c0-.724.142-1.376.424-1.955a3.226 3.226 0 011.19-1.34c.51-.314 1.091-.471 1.743-.471 1.007 0 1.82.348 2.44 1.046.625.697.937 1.624.937 2.782v.089c0 .72-.139 1.367-.417 1.941a3.117 3.117 0 01-1.183 1.333c-.51.319-1.098.479-1.764.479-1.002 0-1.816-.349-2.44-1.046-.62-.697-.93-1.62-.93-2.769v-.089zm1.272.151c0 .82.189 1.479.567 1.975.383.497.893.745 1.531.745.643 0 1.153-.25 1.532-.751.378-.506.567-1.213.567-2.12 0-.811-.194-1.467-.581-1.968-.383-.506-.893-.759-1.531-.759-.625 0-1.128.248-1.511.745s-.574 1.208-.574 2.133zm11.614 2.885c-.492.578-1.214.868-2.167.868-.788 0-1.39-.228-1.805-.684-.41-.46-.617-1.139-.622-2.037v-4.812h1.265v4.778c0 1.121.456 1.681 1.367 1.681.966 0 1.609-.36 1.928-1.08v-5.379h1.265V227h-1.204l-.027-.731zm7.896-5.77c.56-.688 1.289-1.032 2.187-1.032 1.563 0 2.352.882 2.365 2.645V227h-1.264v-4.895c-.005-.533-.128-.927-.369-1.182-.237-.255-.609-.383-1.115-.383-.41 0-.77.109-1.08.328-.31.219-.551.506-.724.861V227h-1.265v-10.5h1.265v3.999zM593.695 227c-.073-.146-.132-.406-.177-.779-.588.61-1.29.916-2.106.916-.729 0-1.328-.205-1.798-.616-.465-.414-.697-.938-.697-1.572 0-.77.292-1.367.875-1.791.588-.428 1.413-.642 2.475-.642h1.23v-.581c0-.442-.132-.793-.396-1.053-.265-.264-.654-.397-1.169-.397-.452 0-.83.114-1.135.342-.305.228-.458.504-.458.827h-1.272c0-.369.13-.724.39-1.066a2.7 2.7 0 011.066-.82 3.608 3.608 0 011.484-.301c.852 0 1.52.214 2.003.642.483.424.733 1.01.752 1.757v3.405c0 .679.086 1.219.259 1.62V227h-1.326zm-2.098-.964c.396 0 .772-.102 1.128-.307.355-.206.613-.472.772-.8v-1.518h-.991c-1.55 0-2.324.454-2.324 1.36 0 .397.132.707.396.93.264.223.604.335 1.019.335zm7.478-.752l1.832-5.68h1.292L599.547 227h-.964l-2.68-7.396h1.292l1.88 5.68zm7.315 1.853c-1.003 0-1.819-.328-2.448-.985-.629-.66-.943-1.542-.943-2.645v-.233c0-.733.139-1.387.417-1.962a3.288 3.288 0 011.176-1.353 2.96 2.96 0 011.64-.492c.962 0 1.709.317 2.243.95.533.633.799 1.54.799 2.721v.526h-5.01c.018.729.23 1.319.635 1.771.411.446.93.669 1.559.669.447 0 .825-.091 1.135-.273.31-.182.581-.424.813-.725l.773.602c-.62.952-1.55 1.429-2.789 1.429zm-.158-6.631c-.51 0-.938.187-1.285.56-.346.37-.56.889-.642 1.559h3.705v-.096c-.037-.642-.21-1.139-.52-1.49-.31-.355-.729-.533-1.258-.533zM618.783 227c-.073-.146-.132-.406-.178-.779-.587.61-1.289.916-2.105.916-.729 0-1.328-.205-1.798-.616-.465-.414-.697-.938-.697-1.572 0-.77.292-1.367.875-1.791.588-.428 1.413-.642 2.474-.642h1.231v-.581c0-.442-.132-.793-.397-1.053-.264-.264-.653-.397-1.168-.397-.452 0-.83.114-1.135.342-.306.228-.458.504-.458.827h-1.272c0-.369.13-.724.39-1.066a2.7 2.7 0 011.066-.82 3.605 3.605 0 011.484-.301c.852 0 1.52.214 2.003.642.483.424.733 1.01.752 1.757v3.405c0 .679.086 1.219.259 1.62V227h-1.326zm-2.098-.964a2.22 2.22 0 001.127-.307c.356-.206.613-.472.773-.8v-1.518h-.991c-1.55 0-2.324.454-2.324 1.36 0 .397.132.707.396.93.264.223.604.335 1.019.335zm4.839-2.796c0-1.135.269-2.046.807-2.734.538-.693 1.242-1.039 2.112-1.039.866 0 1.552.296 2.058.888V216.5h1.265V227h-1.162l-.062-.793c-.506.62-1.21.93-2.112.93-.857 0-1.557-.351-2.099-1.053-.538-.702-.807-1.618-.807-2.748v-.096zm1.265.144c0 .838.173 1.495.52 1.969.346.473.824.71 1.435.71.802 0 1.388-.36 1.757-1.08v-3.397c-.378-.697-.959-1.046-1.743-1.046-.62 0-1.103.239-1.449.718-.347.478-.52 1.187-.52 2.126zm6.638-.144c0-1.135.269-2.046.806-2.734.538-.693 1.242-1.039 2.113-1.039.866 0 1.551.296 2.057.888V216.5h1.265V227h-1.162l-.062-.793c-.506.62-1.21.93-2.112.93-.857 0-1.556-.351-2.099-1.053-.537-.702-.806-1.618-.806-2.748v-.096zm1.264.144c0 .838.174 1.495.52 1.969.346.473.825.71 1.435.71.803 0 1.388-.36 1.757-1.08v-3.397c-.378-.697-.959-1.046-1.743-1.046-.62 0-1.103.239-1.449.718-.346.478-.52 1.187-.52 2.126zm10.015 3.753c-1.003 0-1.818-.328-2.447-.985-.629-.66-.944-1.542-.944-2.645v-.233c0-.733.139-1.387.417-1.962a3.295 3.295 0 011.176-1.353 2.96 2.96 0 011.641-.492c.961 0 1.709.317 2.242.95.533.633.8 1.54.8 2.721v.526h-5.011c.018.729.23 1.319.636 1.771.41.446.93.669 1.558.669.447 0 .825-.091 1.135-.273.31-.182.581-.424.814-.725l.772.602c-.62.952-1.549 1.429-2.789 1.429zm-.157-6.631c-.511 0-.939.187-1.285.56-.347.37-.561.889-.643 1.559h3.705v-.096c-.036-.642-.209-1.139-.519-1.49-.31-.355-.73-.533-1.258-.533zm4.204 2.734c0-1.135.269-2.046.807-2.734.537-.693 1.241-1.039 2.112-1.039.866 0 1.552.296 2.057.888V216.5h1.265V227h-1.162l-.061-.793c-.506.62-1.21.93-2.113.93-.857 0-1.556-.351-2.098-1.053-.538-.702-.807-1.618-.807-2.748v-.096zm1.265.144c0 .838.173 1.495.519 1.969.346.473.825.71 1.436.71.802 0 1.387-.36 1.756-1.08v-3.397c-.378-.697-.959-1.046-1.743-1.046-.619 0-1.103.239-1.449.718-.346.478-.519 1.187-.519 2.126zm12.133-5.572v1.792h1.381v.977h-1.381v4.587c0 .296.062.52.185.67.123.146.333.219.629.219.146 0 .346-.028.601-.082V227a3.667 3.667 0 01-.97.137c-.565 0-.992-.171-1.279-.513-.287-.342-.43-.827-.43-1.456v-4.587h-1.347v-.977h1.347v-1.792h1.264zm4.129 2.687c.561-.688 1.29-1.032 2.188-1.032 1.563 0 2.351.882 2.365 2.645V227h-1.265v-4.895c-.004-.533-.127-.927-.369-1.182-.237-.255-.608-.383-1.114-.383-.41 0-.77.109-1.08.328a2.23 2.23 0 00-.725.861V227h-1.264v-10.5h1.264v3.999zm9.516 6.638c-1.003 0-1.818-.328-2.447-.985-.629-.66-.944-1.542-.944-2.645v-.233c0-.733.139-1.387.417-1.962a3.295 3.295 0 011.176-1.353 2.96 2.96 0 011.641-.492c.961 0 1.709.317 2.242.95.533.633.8 1.54.8 2.721v.526h-5.011c.018.729.23 1.319.636 1.771.41.446.929.669 1.558.669.447 0 .825-.091 1.135-.273.31-.182.581-.424.813-.725l.773.602c-.62.952-1.55 1.429-2.789 1.429zm-.157-6.631c-.511 0-.939.187-1.285.56-.347.37-.561.889-.643 1.559h3.705v-.096c-.036-.642-.21-1.139-.52-1.49-.309-.355-.729-.533-1.257-.533zm34.801-2.694v1.792h1.381v.977h-1.381v4.587c0 .296.062.52.185.67.123.146.333.219.629.219.146 0 .346-.028.601-.082V227a3.667 3.667 0 01-.97.137c-.565 0-.991-.171-1.279-.513-.287-.342-.43-.827-.43-1.456v-4.587h-1.347v-.977h1.347v-1.792h1.264zm2.393 5.421c0-.724.141-1.376.424-1.955.287-.578.683-1.025 1.189-1.34.511-.314 1.092-.471 1.743-.471 1.008 0 1.821.348 2.441 1.046.624.697.936 1.624.936 2.782v.089c0 .72-.139 1.367-.417 1.941a3.109 3.109 0 01-1.182 1.333c-.511.319-1.099.479-1.764.479-1.002 0-1.816-.349-2.44-1.046-.62-.697-.93-1.62-.93-2.769v-.089zm1.271.151c0 .82.19 1.479.568 1.975.383.497.893.745 1.531.745.643 0 1.153-.25 1.531-.751.379-.506.568-1.213.568-2.12 0-.811-.194-1.467-.581-1.968-.383-.506-.894-.759-1.532-.759-.624 0-1.127.248-1.51.745s-.575 1.208-.575 2.133zm12.237-5.572v1.792h1.381v.977h-1.381v4.587c0 .296.061.52.184.67.123.146.333.219.629.219.146 0 .347-.028.602-.082V227a3.674 3.674 0 01-.971.137c-.565 0-.991-.171-1.278-.513-.287-.342-.431-.827-.431-1.456v-4.587h-1.347v-.977h1.347v-1.792h1.265zm4.129 2.687c.56-.688 1.289-1.032 2.187-1.032 1.563 0 2.352.882 2.365 2.645V227h-1.264v-4.895c-.005-.533-.128-.927-.369-1.182-.237-.255-.609-.383-1.115-.383-.41 0-.77.109-1.08.328-.31.219-.551.506-.724.861V227h-1.265v-10.5h1.265v3.999zm9.515 6.638c-1.002 0-1.818-.328-2.447-.985-.629-.66-.943-1.542-.943-2.645v-.233c0-.733.139-1.387.417-1.962a3.281 3.281 0 011.176-1.353 2.954 2.954 0 011.64-.492c.962 0 1.709.317 2.242.95.534.633.8 1.54.8 2.721v.526h-5.011c.019.729.231 1.319.636 1.771.41.446.93.669 1.559.669.446 0 .825-.091 1.134-.273a2.84 2.84 0 00.814-.725l.772.602c-.619.952-1.549 1.429-2.789 1.429zm-.157-6.631c-.51 0-.939.187-1.285.56-.346.37-.561.889-.643 1.559h3.705v-.096c-.036-.642-.209-1.139-.519-1.49-.31-.355-.729-.533-1.258-.533zm-231.943 18.232a3.785 3.785 0 00-.622-.048c-.83 0-1.393.354-1.689 1.06V245h-1.264v-7.396h1.23l.021.854c.414-.661 1.002-.991 1.763-.991.246 0 .433.032.561.095v1.176zm4.101 6.399c-1.002 0-1.818-.328-2.447-.985-.629-.66-.943-1.542-.943-2.645v-.233c0-.733.139-1.387.417-1.962a3.286 3.286 0 011.175-1.353 2.96 2.96 0 011.641-.492c.962 0 1.709.317 2.242.95.533.633.8 1.54.8 2.721v.526h-5.011c.019.729.23 1.319.636 1.771.41.446.93.669 1.559.669.446 0 .825-.091 1.134-.273a2.84 2.84 0 00.814-.725l.772.602c-.619.952-1.549 1.429-2.789 1.429zm-.157-6.631c-.51 0-.939.187-1.285.56-.346.37-.561.889-.643 1.559h3.705v-.096c-.036-.642-.209-1.139-.519-1.49-.31-.355-.729-.533-1.258-.533zm6.228-2.694v1.792h1.381v.977h-1.381v4.587c0 .296.061.52.184.67.123.146.333.219.629.219.146 0 .346-.028.602-.082V245a3.68 3.68 0 01-.971.137c-.565 0-.991-.171-1.278-.513-.287-.342-.431-.827-.431-1.456v-4.587h-1.347v-.977h1.347v-1.792h1.265zm7.43 8.457c-.492.578-1.214.868-2.167.868-.788 0-1.39-.228-1.804-.684-.411-.46-.618-1.139-.622-2.037v-4.812h1.264v4.778c0 1.121.456 1.681 1.367 1.681.967 0 1.609-.36 1.928-1.08v-5.379h1.265V245h-1.203l-.028-.731zm6.734-5.531a3.785 3.785 0 00-.622-.048c-.83 0-1.393.354-1.689 1.06V245h-1.264v-7.396h1.23l.02.854c.415-.661 1.003-.991 1.764-.991.246 0 .433.032.561.095v1.176zm2.365-1.134l.041.929c.565-.711 1.303-1.066 2.215-1.066 1.563 0 2.351.882 2.365 2.645V245h-1.265v-4.895c-.004-.533-.127-.927-.369-1.182-.237-.255-.608-.383-1.114-.383-.41 0-.77.109-1.08.328a2.23 2.23 0 00-.725.861V245h-1.264v-7.396h1.196zM541.209 245v-6.419h-1.169v-.977h1.169v-.759c0-.793.212-1.406.636-1.839.424-.433 1.023-.65 1.798-.65a3.3 3.3 0 01.868.117l-.069 1.025a3.63 3.63 0 00-.683-.061c-.41 0-.727.12-.95.362-.224.237-.335.579-.335 1.025v.78h1.579v.977h-1.579V245h-1.265zm3.91-3.767c0-.724.141-1.376.424-1.955a3.23 3.23 0 011.189-1.34c.511-.314 1.092-.471 1.744-.471 1.007 0 1.82.348 2.44 1.046.624.697.937 1.624.937 2.782v.089c0 .72-.139 1.367-.417 1.941a3.117 3.117 0 01-1.183 1.333c-.51.319-1.098.479-1.764.479-1.002 0-1.816-.349-2.44-1.046-.62-.697-.93-1.62-.93-2.769v-.089zm1.272.151c0 .82.189 1.479.567 1.975.383.497.893.745 1.531.745.643 0 1.153-.25 1.532-.751.378-.506.567-1.213.567-2.12 0-.811-.194-1.467-.581-1.968-.383-.506-.893-.759-1.531-.759-.625 0-1.128.248-1.511.745s-.574 1.208-.574 2.133zm10.623-2.646a3.785 3.785 0 00-.622-.048c-.83 0-1.393.354-1.689 1.06V245h-1.265v-7.396h1.231l.02.854c.415-.661 1.003-.991 1.764-.991.246 0 .433.032.561.095v1.176zm2.358-1.134l.034.82c.543-.638 1.274-.957 2.195-.957 1.034 0 1.738.396 2.112 1.189.246-.355.565-.642.957-.861.396-.219.864-.328 1.401-.328 1.623 0 2.448.859 2.475 2.577V245h-1.265v-4.881c0-.529-.121-.923-.362-1.182-.242-.265-.647-.397-1.217-.397-.469 0-.859.141-1.169.424-.31.278-.49.654-.54 1.128V245h-1.271v-4.847c0-1.075-.527-1.613-1.579-1.613-.83 0-1.397.353-1.703 1.06v5.4h-1.264v-7.396h1.196zm14.226 3.629c0-.724.141-1.376.423-1.955.288-.578.684-1.025 1.19-1.34.51-.314 1.091-.471 1.743-.471 1.007 0 1.821.348 2.441 1.046.624.697.936 1.624.936 2.782v.089c0 .72-.139 1.367-.417 1.941a3.11 3.11 0 01-1.183 1.333c-.51.319-1.098.479-1.763.479-1.003 0-1.816-.349-2.441-1.046-.619-.697-.929-1.62-.929-2.769v-.089zm1.271.151c0 .82.189 1.479.568 1.975.382.497.893.745 1.531.745.642 0 1.153-.25 1.531-.751.378-.506.567-1.213.567-2.12 0-.811-.193-1.467-.581-1.968-.382-.506-.893-.759-1.531-.759-.624 0-1.128.248-1.511.745-.382.497-.574 1.208-.574 2.133zm8.244-3.78l.041.929c.565-.711 1.304-1.066 2.215-1.066 1.563 0 2.352.882 2.365 2.645V245h-1.264v-4.895c-.005-.533-.128-.927-.369-1.182-.237-.255-.609-.383-1.115-.383-.41 0-.77.109-1.08.328-.31.219-.551.506-.724.861V245h-1.265v-7.396h1.196zm12.421 5.543l1.723-5.543h1.353l-2.973 8.538c-.461 1.23-1.192 1.845-2.195 1.845l-.239-.02-.472-.089v-1.025l.342.027c.429 0 .761-.087.998-.26.242-.173.44-.49.595-.95l.28-.752-2.638-7.314h1.38l1.846 5.543zm3.767-1.914c0-.724.141-1.376.424-1.955.287-.578.683-1.025 1.189-1.34.51-.314 1.092-.471 1.743-.471 1.007 0 1.821.348 2.441 1.046.624.697.936 1.624.936 2.782v.089c0 .72-.139 1.367-.417 1.941a3.109 3.109 0 01-1.182 1.333c-.511.319-1.099.479-1.764.479-1.003 0-1.816-.349-2.441-1.046-.619-.697-.929-1.62-.929-2.769v-.089zm1.271.151c0 .82.189 1.479.568 1.975.382.497.893.745 1.531.745.642 0 1.153-.25 1.531-.751.378-.506.568-1.213.568-2.12 0-.811-.194-1.467-.582-1.968-.382-.506-.893-.759-1.531-.759-.624 0-1.128.248-1.511.745-.382.497-.574 1.208-.574 2.133zm11.615 2.885c-.493.578-1.215.868-2.167.868-.789 0-1.39-.228-1.805-.684-.41-.46-.618-1.139-.622-2.037v-4.812h1.264v4.778c0 1.121.456 1.681 1.368 1.681.966 0 1.608-.36 1.927-1.08v-5.379h1.265V245h-1.203l-.027-.731zm6.733-5.531a3.777 3.777 0 00-.622-.048c-.83 0-1.392.354-1.689 1.06V245h-1.264v-7.396h1.23l.021.854c.414-.661 1.002-.991 1.763-.991.246 0 .433.032.561.095v1.176zm7.711 6.399c-1.003 0-1.819-.328-2.447-.985-.629-.66-.944-1.542-.944-2.645v-.233c0-.733.139-1.387.417-1.962a3.295 3.295 0 011.176-1.353 2.96 2.96 0 011.641-.492c.961 0 1.709.317 2.242.95.533.633.8 1.54.8 2.721v.526h-5.011c.018.729.23 1.319.636 1.771.41.446.929.669 1.558.669.447 0 .825-.091 1.135-.273.31-.182.581-.424.813-.725l.773.602c-.62.952-1.55 1.429-2.789 1.429zm-.157-6.631c-.511 0-.939.187-1.286.56-.346.37-.56.889-.642 1.559h3.705v-.096c-.036-.642-.21-1.139-.52-1.49-.309-.355-.729-.533-1.257-.533zm7.143 2.782h-3.336v-1.032h3.336v1.032zm4.204 2.816a1.82 1.82 0 001.183-.41 1.44 1.44 0 00.56-1.025h1.197a2.295 2.295 0 01-.438 1.21 2.876 2.876 0 01-1.08.916c-.446.228-.92.342-1.422.342-1.007 0-1.809-.335-2.406-1.005-.592-.675-.889-1.595-.889-2.762v-.212c0-.72.133-1.36.397-1.921.264-.56.642-.995 1.135-1.305.496-.31 1.082-.465 1.756-.465.83 0 1.518.248 2.065.745.551.497.845 1.142.882 1.934h-1.197c-.036-.478-.218-.87-.546-1.175-.324-.31-.725-.465-1.204-.465-.642 0-1.141.232-1.497.697-.351.46-.526 1.128-.526 2.003v.239c0 .853.175 1.509.526 1.969.351.46.853.69 1.504.69zm4.027-2.871c0-.724.141-1.376.423-1.955.288-.578.684-1.025 1.19-1.34.51-.314 1.091-.471 1.743-.471 1.007 0 1.821.348 2.441 1.046.624.697.936 1.624.936 2.782v.089c0 .72-.139 1.367-.417 1.941a3.11 3.11 0 01-1.183 1.333c-.51.319-1.098.479-1.763.479-1.003 0-1.816-.349-2.441-1.046-.619-.697-.929-1.62-.929-2.769v-.089zm1.271.151c0 .82.189 1.479.568 1.975.382.497.893.745 1.531.745.642 0 1.153-.25 1.531-.751.378-.506.567-1.213.567-2.12 0-.811-.193-1.467-.581-1.968-.382-.506-.893-.759-1.531-.759-.624 0-1.128.248-1.511.745-.382.497-.574 1.208-.574 2.133zm8.237-3.78l.035.82c.542-.638 1.273-.957 2.194-.957 1.034 0 1.739.396 2.112 1.189.246-.355.565-.642.957-.861.397-.219.864-.328 1.402-.328 1.622 0 2.447.859 2.474 2.577V245h-1.264v-4.881c0-.529-.121-.923-.363-1.182-.241-.265-.647-.397-1.216-.397-.47 0-.86.141-1.169.424-.31.278-.49.654-.54 1.128V245h-1.272v-4.847c0-1.075-.526-1.613-1.579-1.613-.829 0-1.397.353-1.702 1.06v5.4h-1.265v-7.396h1.196zm12.278 0l.034.82c.542-.638 1.274-.957 2.194-.957 1.035 0 1.739.396 2.113 1.189.246-.355.565-.642.957-.861.396-.219.863-.328 1.401-.328 1.622 0 2.447.859 2.475 2.577V245h-1.265v-4.881c0-.529-.121-.923-.362-1.182-.242-.265-.647-.397-1.217-.397-.47 0-.859.141-1.169.424-.31.278-.49.654-.54 1.128V245h-1.272v-4.847c0-1.075-.526-1.613-1.579-1.613-.829 0-1.397.353-1.702 1.06v5.4h-1.264v-7.396h1.196zm14.157 7.533c-1.003 0-1.818-.328-2.447-.985-.629-.66-.944-1.542-.944-2.645v-.233c0-.733.139-1.387.417-1.962a3.295 3.295 0 011.176-1.353 2.96 2.96 0 011.641-.492c.961 0 1.709.317 2.242.95.533.633.8 1.54.8 2.721v.526h-5.011c.018.729.23 1.319.636 1.771.41.446.929.669 1.558.669.447 0 .825-.091 1.135-.273.31-.182.581-.424.814-.725l.772.602c-.62.952-1.549 1.429-2.789 1.429zm-.157-6.631c-.511 0-.939.187-1.285.56-.347.37-.561.889-.643 1.559h3.705v-.096c-.036-.642-.21-1.139-.519-1.49-.31-.355-.73-.533-1.258-.533zm8.087.232a3.785 3.785 0 00-.622-.048c-.83 0-1.393.354-1.689 1.06V245h-1.264v-7.396h1.23l.02.854c.415-.661 1.003-.991 1.764-.991.246 0 .433.032.561.095v1.176zm3.999 5.366c.451 0 .845-.136 1.182-.41.338-.273.524-.615.561-1.025h1.196a2.294 2.294 0 01-.437 1.21 2.876 2.876 0 01-1.08.916 3.087 3.087 0 01-1.422.342c-1.007 0-1.81-.335-2.407-1.005-.592-.675-.888-1.595-.888-2.762v-.212c0-.72.132-1.36.396-1.921.265-.56.643-.995 1.135-1.305.497-.31 1.082-.465 1.757-.465.829 0 1.517.248 2.064.745.552.497.846 1.142.882 1.934h-1.196c-.037-.478-.219-.87-.547-1.175-.324-.31-.725-.465-1.203-.465-.643 0-1.142.232-1.497.697-.351.46-.527 1.128-.527 2.003v.239c0 .853.176 1.509.527 1.969.351.46.852.69 1.504.69zm7.43 1.033c-1.002 0-1.818-.328-2.447-.985-.629-.66-.943-1.542-.943-2.645v-.233c0-.733.139-1.387.417-1.962a3.281 3.281 0 011.176-1.353 2.954 2.954 0 011.64-.492c.962 0 1.709.317 2.242.95.534.633.8 1.54.8 2.721v.526h-5.011c.019.729.231 1.319.636 1.771.41.446.93.669 1.559.669.446 0 .825-.091 1.135-.273a2.85 2.85 0 00.813-.725l.772.602c-.619.952-1.549 1.429-2.789 1.429zm-.157-6.631c-.51 0-.939.187-1.285.56-.346.37-.561.889-.643 1.559h3.706v-.096c-.037-.642-.21-1.139-.52-1.49-.31-.355-.729-.533-1.258-.533zm12.291 4.532c0-.342-.13-.606-.389-.793-.256-.191-.705-.355-1.347-.492-.638-.137-1.146-.301-1.525-.492-.373-.192-.651-.42-.834-.684a1.655 1.655 0 01-.266-.943c0-.606.255-1.119.765-1.538.515-.42 1.172-.629 1.969-.629.839 0 1.518.216 2.037.649.524.433.786.987.786 1.661h-1.271c0-.346-.148-.645-.444-.895-.292-.251-.661-.376-1.108-.376-.46 0-.82.1-1.08.301a.944.944 0 00-.389.786c0 .305.12.535.362.69.241.155.677.303 1.305.445.634.141 1.147.309 1.539.505.391.196.681.433.868.711.191.274.287.609.287 1.005 0 .661-.264 1.192-.793 1.593-.529.396-1.215.595-2.058.595-.592 0-1.116-.105-1.572-.315a2.578 2.578 0 01-1.073-.875 2.146 2.146 0 01-.383-1.223h1.265c.022.423.191.761.505 1.011.319.246.739.369 1.258.369.479 0 .862-.095 1.149-.287.291-.196.437-.455.437-.779zM713.57 245h-1.264v-7.396h1.264V245zm-1.367-9.358c0-.205.062-.379.185-.52.127-.141.314-.212.56-.212.246 0 .433.071.561.212a.75.75 0 01.191.52.722.722 0 01-.191.512c-.128.137-.315.205-.561.205-.246 0-.433-.068-.56-.205a.735.735 0 01-.185-.512zm5.113.17v1.792h1.381v.977h-1.381v4.587c0 .296.062.52.185.67.123.146.333.219.629.219.146 0 .346-.028.601-.082V245a3.667 3.667 0 01-.97.137c-.565 0-.991-.171-1.279-.513-.287-.342-.43-.827-.43-1.456v-4.587h-1.347v-.977h1.347v-1.792h1.264zm5.934 9.325c-1.003 0-1.818-.328-2.447-.985-.629-.66-.944-1.542-.944-2.645v-.233c0-.733.139-1.387.417-1.962a3.295 3.295 0 011.176-1.353 2.96 2.96 0 011.641-.492c.961 0 1.709.317 2.242.95.533.633.8 1.54.8 2.721v.526h-5.011c.018.729.23 1.319.636 1.771.41.446.929.669 1.558.669.447 0 .825-.091 1.135-.273.31-.182.581-.424.814-.725l.772.602c-.62.952-1.549 1.429-2.789 1.429zm-.157-6.631c-.511 0-.939.187-1.285.56-.347.37-.561.889-.643 1.559h3.705v-.096c-.036-.642-.21-1.139-.519-1.49-.31-.355-.73-.533-1.258-.533z"/>
  <path fill="#538EF4" d="M680.997 227h-1.265v-10.5h1.265V227zm3.404 0h-1.264v-7.396h1.264V227zm-1.367-9.358c0-.205.062-.379.185-.52.127-.141.314-.212.56-.212.246 0 .433.071.561.212a.75.75 0 01.191.52.722.722 0 01-.191.512c-.128.137-.315.205-.561.205-.246 0-.433-.068-.56-.205a.735.735 0 01-.185-.512zm4.594 1.962l.041.929c.565-.711 1.303-1.066 2.215-1.066 1.563 0 2.351.882 2.365 2.645V227h-1.265v-4.895c-.004-.533-.127-.927-.369-1.182-.237-.255-.608-.383-1.114-.383-.41 0-.77.109-1.08.328a2.23 2.23 0 00-.725.861V227h-1.264v-7.396h1.196zm8.593 3.971l-.793.827V227h-1.265v-10.5h1.265v6.351l.676-.814 2.304-2.433h1.538l-2.878 3.089 3.213 4.307h-1.483l-2.577-3.425z"/>
  <path fill="#EFF4FB" fill-rule="evenodd" d="M551.057 388.511a79.056 79.056 0 0110.557 7.787H457.863a79.185 79.185 0 0110.557-7.787h82.637zm16.564 13.627H451.856a79.294 79.294 0 00-6.339 7.787h128.444a79.304 79.304 0 00-6.34-7.787zm10.131 13.628a78.564 78.564 0 014.013 7.787H437.713a78.564 78.564 0 014.013-7.787h136.026zm6.345 13.627H435.38a78.337 78.337 0 00-2.305 7.787h153.327a78.337 78.337 0 00-2.305-7.787zm3.477 13.628c.412 2.556.702 5.154.862 7.787H431.042c.16-2.633.45-5.231.862-7.787h155.67zm1.004 13.627H430.9c.032 2.629.192 5.227.475 7.787h156.727c.284-2.56.444-5.158.476-7.787zm-1.344 13.628a78.368 78.368 0 01-1.874 7.787H434.118a78.651 78.651 0 01-1.875-7.787h154.991zm-3.854 13.627H436.098a78.196 78.196 0 003.484 7.787h140.314a78.427 78.427 0 003.484-7.787zm-6.811 13.628a79.171 79.171 0 01-5.573 7.787H448.481a78.996 78.996 0 01-5.572-7.787h133.66zm-10.811 13.627H453.72a79.3 79.3 0 008.964 7.787h94.109a79.31 79.31 0 008.965-7.787zm-18.039 13.628a78.306 78.306 0 01-20.49 7.787h-34.981a78.313 78.313 0 01-20.489-7.787h75.96zm-8.145-142.116h-59.67c9.203-3.765 19.277-5.84 29.835-5.84s20.632 2.075 29.835 5.84z" clip-rule="evenodd"/>
  <path fill="#E2E9F3" d="M864.056 433.669c-1.136-19.943-10.078-38.687-24.964-52.327-14.885-13.64-34.565-21.124-54.94-20.891h-63.8l21.207-23.768L711.595 311l-61.773 69.28 57.647 75.879 31.918-23.306-19.939-26.286h58.335c8.25-.118 16.238 2.837 22.35 8.27 6.113 5.432 9.895 12.936 10.581 20.995a30.226 30.226 0 01-1.926 12.244 30.678 30.678 0 01-6.693 10.509 31.413 31.413 0 01-10.376 7.073 31.946 31.946 0 01-12.38 2.491h-40.06l.615 46.116h17.696l17.262 51.579c5.139 17.382 16.755 26.854 38.974 26.854h26.056l8.07-43.278h-11.291c-9.336 0-14.475-2.838-18.673-12.913l-9.698-25.541c13.002-3.847 24.77-10.922 34.161-20.539a76.107 76.107 0 0016.795-26.188 74.952 74.952 0 004.81-30.57z"/>
  <path fill="#E2E9F3" fill-rule="evenodd" d="M509.793 433.749c-2.41-8.036-8.066-14.326-13.938-20.089-11.431-11.22-17.58-18.157-21.654-34.569-2.396-9.652-4.834-19.881-12.434-26.883-5.533-5.1-15.056-9.385-22.456-5.733-11.385 6.795-14.442 20.739-13.294 33.226 1.423 15.476 8.652 25.018 22.54 30.718 7.825 3.21 13.027 7.446 17.275 14.828 3.397 5.902 5.378 13.293 9.648 18.643 6.384 7.999 14.372 11.554 24.218 10.226-9.222-16.969-19.998-34.096-32.994-48.383-1.217-1.436-8.393-6.934-6.945-9.382 1.594-2.695 8.96 7.429 8.908 7.368 3.777 4.336 7.272 8.943 10.704 13.594-.008.005-.019.007-.028.012a695.353 695.353 0 0110.477 14.52 152.658 152.658 0 014.04 6.329c1.902 3.16 4.919 12.129 8.031 14.072.666.415 1.281.647 1.857.743a288.577 288.577 0 016.153 10.526c5.131 9.259 9.534 19.036 11.555 29.49.59 3.052.173 14.465 2.256 16.668 3.808 4.029 2.692-3.73 2.464-6.071-1.891-19.393-8.853-35.915-18.962-52.218 3.106-4.056 3.554-14.378 2.579-17.635zm-130.426 9.368c4.014-4.73 13.665-5.533 19.567-5.216 7.304.391 14.806 2.169 21.754 4.319 11.446 3.541 22.569 10.003 32.65 16.258 1.214.753 16.181 9.754 14.857 11.333-1.313 1.565-16.006-9.126-19.28-10.969-6.988-3.933-13.396-8.585-21.099-11.182-7.975-2.69-16.409-3.755-24.796-3.682-1.076.01-4.587-.741-4.663.852-.074 1.557 5.735.744 6.76.754a77.47 77.47 0 0112.659 1.17c7.814 1.374 15.161 4.141 21.854 8.385-1.867 4.342-6.344 6.345-11.041 5.258-4.059-.94-8.015-3.256-11.99-3.926-2.737-.461-5.478-.187-8.132.584-7.002 2.035-11.04 6.204-18.738 3.304-6.035-2.273-16.128-10.44-10.362-17.242z" clip-rule="evenodd"/>
  <path fill="#232A67" fill-rule="evenodd" d="M390.94 360.496c-2.34-1.16-5.46.186-4.158 3.253 1.394 3.285 6.547 3.326 9.458 3.261-.291-.016-1.229-3.028-1.55-3.483-.948-1.343-2.311-2.316-3.75-3.031zm26.961 58.894c.591.504.049.047 0 0zm-29.215-44.036c-1.37 1.046-1.435 2.895-.316 4.146 1.332 1.489 3.764 1.435 5.579 1.29.822-.066 5.207-.417 4.167-1.135.08.03.247.104.426.203.096.352.197.702.302 1.05-.025.015-.047.032-.075.047.03-.013.051-.028.077-.041a40.26 40.26 0 004.521 9.905 9.51 9.51 0 00-2.269-.606c-2.288-.289-7.101 1.489-4.542 4.535 2.454 2.92 6.274-.213 9.059-.645 2.701 3.77 5.679 7.382 8.8 10.874a.744.744 0 00-.455.379c-1.252-.635-2.557-1.544-3.716-1.79-1.672-.354-5.101-.569-6.365.928-1.554 1.84.112 3.335 1.949 3.688 2.663.512 6.149-.789 8.711-1.668.293.051.613-.034.804-.269l.168-.054c3.161 3.475 6.442 6.835 9.704 10.122l-.106-.006c-.851-.558-1.763-1.016-2.752-1.256-2.288-.558-4.981-.56-6.838 1.095-1.849 1.649-2.505 4.532-.591 6.383 3.83 3.706 9.474-4.743 11.406-5.096 3.314 3.305 6.819 6.393 10.379 9.419a6.368 6.368 0 00-1.248-.255c-3.49-.334-11.684 3.946-7.4 8.156 3.733 3.669 8.054-3.393 11.063-5.863 3.354 2.82 6.727 5.621 10.005 8.531-1.788-.475-3.516-.545-5.432.034-1.984.6-5.184 2.098-3.93 4.775 1.275 2.723 5.118 1.484 7.119.62 1.092-.472 3.281-2.063 5.202-2.733 5.231 4.938 9.762 10.377 13.192 16.785 2.141 4.001 3.766 8.275 4.91 12.668.73 2.804 2.169 7.514 1.881 11.163 1.372-7.305-1.11-16.079-3.783-22.608-2.459-6.005-6.138-11.276-10.447-16.02 1.081-3.253 10.184-7.944 4.742-10.966-2.89-1.598-5.849 1.053-6.481 3.861-.434 1.93.227 4.354.929 6.227a87.917 87.917 0 00-4.218-4.199 216.658 216.658 0 00-6.136-5.48c3.419-3.212 6.654-12.394 2.07-13.895-6.769-2.212-3.509 10.313-3.037 12.66a.37.37 0 00.315-.119c-.038.214-.082.444-.136.676-3.97-3.414-8-6.761-11.897-10.257.351-.26.909-1.251 1.348-1.779.99-1.19 1.937-2.433 2.629-3.825 1.094-2.199 2.149-5.708-.75-7.001-3.153-1.41-4.651 2.558-4.673 4.925-.015 1.637.431 3.193.663 4.797.073.501-.207 2.757.475 1.786a4.805 4.805 0 00-.021.801 187.714 187.714 0 01-2.083-1.911.862.862 0 00.061-.272c.037-.705-.673-.977-1.171-.771a124.026 124.026 0 01-2.697-2.634 387.151 387.151 0 01-5.671-5.827c.411-.352.247-.84.631-1.214.383-.374 1.137-.58 1.587-.927 1.133-.872 2.072-2.143 2.751-3.394 1.122-2.067 2.571-6.403-.705-7.388-3.376-1.017-5.09 3.157-5.307 5.766-.043.506.336 5.061.626 6.715-3.498-3.695-6.939-7.528-10.055-11.428.945-.009 3.624-1.945 4.166-2.473 1.321-1.289 3.422-4.137 1.105-5.643-2.06-1.337-4.6.599-5.481 2.48-.144.31-.655 3.193-.695 4.487a101.547 101.547 0 01-3.665-4.986 49.474 49.474 0 01-2.145-3.412c.161-.091.312-.25.455-.447 3.436-.584 7.817-5.945 3.781-7.81-1.922-.887-4.006.944-4.947 2.443-.193.307-.505 1.848-.76 3.064-1.92-3.853-3.388-7.932-4.505-12.115a.75.75 0 00.586-.695c1.668-.951 2.985-1.743 4.15-3.572.723-1.136 2.026-3.731-.099-4.362-2.767-.82-4.505 3.405-4.731 5.486-.026.242-.025.945-.016 1.588a.927.927 0 00-.288.006 90.277 90.277 0 01-1.546-7.841c1.51-.486 1.771-8.416.765-9.545-2.247-2.528-3.832 1.124-3.712 3.054.142 2.276 1.173 4.346 2.401 6.184.132.194.094.185.128-.086a.545.545 0 00.13.304c-.063 1.198-.186 2.425-.127 3.485.17 3.036.524 6.089 1.037 9.086.125.729.268 1.452.428 2.169-1.213-1.034-2.85-1.953-3.49-2.24-1.662-.745-4.223-1.549-5.873-.287zm83.584 105.389c-.078 1.059-.269 2.028-.625 2.828.267-.91.472-1.856.625-2.828z" clip-rule="evenodd"/>
  <path fill="url(#All_Returns_-_No_returns__paint0_linear)" d="M583.991 598.822h68.894v39.805h-68.894z"/>
  <path fill="url(#All_Returns_-_No_returns__paint1_linear)" d="M456.92 418.168h324.565v189.84H456.92z"/>
  <path fill="#D8DADC" d="M513.565 638.625h209.742v7.655H513.565z"/>
  <path fill="#fff" d="M461.513 424.293h318.441v162.282H461.513z"/>
  <path fill="#F1F2F3" d="M473.76 430.414h284.76v21.433H473.76z"/>
  <path fill="#E2E9F3" fill-rule="evenodd" d="M371.911 638.52h60.231a8.378 8.378 0 018.379 8.379v48.185a8.38 8.38 0 01-8.379 8.38h-60.231a8.38 8.38 0 01-8.38-8.38v-48.185a8.38 8.38 0 018.38-8.379zm8.38 14.664a2.095 2.095 0 00-2.095 2.095v31.425c0 1.157.938 2.095 2.095 2.095h43.471a2.095 2.095 0 002.095-2.095v-31.425a2.095 2.095 0 00-2.095-2.095h-43.471z" clip-rule="evenodd"/>
  <path fill="#B28B67" fill-rule="evenodd" d="M494.832 705.278c-11.424-13.95-19.154-24.292-23.189-31.025-6.91-11.53-12.565-21.79-14.349-25.709-4.256-9.345 9.797-13.721 12.977-9.362 4.814 6.597 15.095 27.358 30.842 62.282l-6.281 3.814z" clip-rule="evenodd"/>
  <path fill="#2F3676" fill-rule="evenodd" d="M471.422 701.223l-21.26-53.517c-4.547-9.756 17.412-16.168 20.754-11.628 7.587 10.307 25.619 50.969 27.879 54.04l-27.373 11.105z" clip-rule="evenodd"/>
  <path fill="#B28B67" fill-rule="evenodd" d="M414.8 690.49c4.142-6.041 19.205-26.365 27.41-34.774a625.994 625.994 0 016.834-6.898c6.468-6.424 19.347 4.374 12.891 10.225-16.077 14.573-39.534 34.245-41.494 35.999-2.747 2.459-8.244-.756-5.641-4.552z" clip-rule="evenodd"/>
  <path fill="#C53B33" fill-rule="evenodd" d="M415.769 687.761c-1.427 1.174-2.355 2.133-2.785 2.877-.522.905-1.134 2.313-1.834 4.223l28.301 16.34c2.14-2.007 2.473-3.565 1-4.674a175.036 175.036 0 01-3.645-2.805l-9.769-13.459a.579.579 0 00-.823-.118l-2.029 1.562c-1.862-.162-3.252-.508-4.169-1.037-.745-.431-1.6-1.326-2.566-2.686a1.16 1.16 0 00-1.681-.223zm74.149 15.43c-.649 1.73-.973 3.025-.973 3.884 0 1.045.174 2.57.523 4.574h32.68c.849-2.807.359-4.323-1.471-4.547a183.44 183.44 0 01-4.56-.606l-15.189-6.772a.58.58 0 00-.772.309l-.976 2.368c-1.694.79-3.071 1.185-4.13 1.185-.86 0-2.048-.347-3.564-1.042a1.16 1.16 0 00-1.537.57c-.011.026-.022.051-.031.077z" clip-rule="evenodd"/>
  <path fill="#5C63AB" fill-rule="evenodd" d="M442.512 650.379c-17.67-2.878-29.506-4.847-35.507-5.905-17.107-3.016-22.095-12.222-19.146-32.306h31.518c4.171 1.204 21.599 8.654 52.283 22.348 5.521 2.74 4.493 10.821 3.484 13.483-.042.109-9.348 16.056-27.921 47.843l-25.783-16.425 21.121-27.102c.557-1.124.541-1.769-.049-1.936z" clip-rule="evenodd"/>
  <path fill="#191847" fill-rule="evenodd" d="M403.145 504.392c4.428 7.612 12.276 25.287 10.089 28.976l-18.743 5.022-.032-.098c-7.153 1.093-14.135-3.35-16.051-10.502l-3.637-13.572c-2.056-7.674 2.498-15.563 10.173-17.619l1.292-.346c6.97-1.868 14.115 1.717 16.909 8.139z" clip-rule="evenodd"/>
  <path fill="#B28B67" fill-rule="evenodd" d="M384.993 523.249c-3.915-2.698-7.079-6.442-8.028-11.332-2.736-14.092 17.333-16.208 22.949-10.231 5.616 5.978 9.915 23.805 5.409 26.349-1.797 1.015-6.235.898-11.097-.503l7.607 17.881-15.511 4.156-1.329-26.32z" clip-rule="evenodd"/>
  <path fill="#191847" fill-rule="evenodd" d="M388.56 519.788c2.771 7.485 4.834 16.329 3.262 18.981l-18.743 5.022c-5.906-17.865 6.069-13.543 1.492-30.626.464-.784.896-1.551 1.343-2.234l-.155-.497c1.465-7.514 4.692-11.939 9.682-13.276 7.484-2.006 10.78.844 13.583 3.262-.121 5.564-5.753 7.893-10.077 12.5a3.68 3.68 0 10-.387 6.868z" clip-rule="evenodd"/>
  <path fill="#B28B67" fill-rule="evenodd" d="M437.087 542.946l23.399-7.025c4.366-3.398 8.483-5.882 12.352-7.453 1.126-.212 2.989-.089.661 2.552s-4.659 5.524-3.994 6.632c.665 1.107 3.087.272 3.788 2.026.467 1.17-3.546 2.007-12.038 2.513l-18.194 10.707-5.974-9.952zM435.02 584.2l19.691 14.46c5.341 1.442 9.803 3.235 13.387 5.38.846.771 1.869 2.333-1.641 2.063-3.511-.27-7.215-.396-7.7.801-.484 1.198 1.64 2.629.661 4.245-.653 1.077-3.736-1.624-9.251-8.102l-19.5-8.086 4.353-10.761z" clip-rule="evenodd"/>
  <path fill="#538EF4" fill-rule="evenodd" d="M404.433 545.257c10.723 19.995 26.23 35.323 48.71 51.257l-8.512 9.597c-25.1-9.328-38.347-14.956-44.853-33.847-1.633-4.741-2.774-19.856-3.753-27.808l8.408.801z" clip-rule="evenodd"/>
  <path fill="#F2F2F2" fill-rule="evenodd" d="M374.455 611.876h47.534c-10.767-32.839-16.268-55.377-16.501-67.616-.012-.623-1.164-1.723-1.674-1.579-3.728 1.053-7.717.659-11.968-1.181-11.269 18.124-15.166 40.438-17.391 70.376z" clip-rule="evenodd"/>
  <path fill="#95B7F1" fill-rule="evenodd" d="M395.902 541.529c13.626.111 35.732 2.599 61.227-5.586l2.517 12.578c-19.269 12.392-38.78 21.992-55.877 20.629 7.424 31.846 7.082 57.915-9.308 57.915h-25.346c-4.025-27.053 6.554-64.562 16.363-83.481.374-.723 1.172-2.085 3.05-2.085h7.364l.01.03z" clip-rule="evenodd"/>
  <circle cx="482.181" cy="440.367" r="2.296" fill="#232A67"/>
  <circle cx="491.367" cy="440.367" r="2.296" fill="#232A67"/>
  <circle cx="500.552" cy="440.367" r="2.296" fill="#232A67"/>
  <path fill="#232A67" d="M714.771 471.752c-3.167 7.042-7.918 2.934-9.897 0-4.949.978-24.743 8.803-22.764 11.737 1.736 2.574 8.908 7.825 8.908 6.847 0-.782 4.289-3.586 5.938-4.89 0 2.934-4.948 16.628-4.948 18.584 0 1.565 21.774 2.608 32.661 2.934l-.99-18.584 6.928 6.847 4.949-9.781c-2.376-5.478-14.846-11.412-20.785-13.694z"/>
  <path fill="#6C9EF1" d="M528.015 528.869c-1.137 7.238-6.46 4.624-8.98 2.413-4.249 2.104-20.278 14.112-17.759 16.323 2.21 1.94 10.012 5.013 9.771 4.115-.193-.719 3.006-4.338 4.181-5.937.724 2.694-.389 16.471.093 18.267.386 1.437 20.399-2.912 30.357-5.266l-5.481-16.82 7.974 4.597 2.078-10.186c-3.506-4.449-16.284-6.858-22.234-7.506z"/>
  <circle cx="522.751" cy="490.125" r="19.903" fill="url(#All_Returns_-_No_returns__paint2_linear)"/>
  <circle cx="617.672" cy="543.705" r="19.903" fill="url(#All_Returns_-_No_returns__paint3_linear)"/>
  <path fill="#D3E1FB" d="M611.855 471.436c-1.107-1.116-.461-3.722 0-4.885 2.581-1.562 8.175-.816 11.16-.143.059-.091.356.02.601.143a35.667 35.667 0 00-.601-.143c-.052.081.082.318.601.841 1.107 1.117-.461 3.257-1.384 4.187 2.767 0 7.149.931 8.994 1.396 4.842 4.885 8.993 27.216 7.61 27.216-1.107 0-4.151.465-5.535.697-1.153-.775-2.596-5.414-3.679-9.655.694 4.916 1.304 12.255 1.604 16.634-1.661 1.675-19.14.232-27.673-.698-.553-4.466 1.153-14.887 2.076-19.539-1.614 4.884-5.258 14.654-6.918 14.654-1.661 0-4.382-1.396-5.535-2.093 2.306-8.607 7.333-26.1 8.994-27.216 1.66-1.117 7.148-1.396 9.685-1.396z"/>
  <path fill="#91B4EF" d="M713.458 542.178h8.319c-.765-6.124-.765-5.358-.765-8.42h-10.717c-.892 2.473-7.198 2.52-10.717 3.062-5.352.824-8.123 2.61-8.42 5.358h22.3zm0 20.666h8.319c-.765-6.124-.765-5.358-.765-8.42h-10.717c-.892 2.473-7.198 2.52-10.717 3.062-5.352.824-8.123 2.61-8.42 5.358h22.3z"/>
  <path stroke="#232A67" stroke-width="2" d="M691.158 544.238h30.619m-30.619 19.903h30.619"/>
  <path fill="#232A67" d="M534.999 546.005a6.895 6.895 0 00-2.017-4.872 6.886 6.886 0 00-4.872-2.018c-.905 0-1.801.178-2.636.525a6.884 6.884 0 00-4.253 6.365h13.778zm0 7.654a6.895 6.895 0 00-2.017-4.872 6.902 6.902 0 00-4.872-2.017 6.887 6.887 0 00-6.889 6.889h13.778z"/>
  <path fill="#CADDFB" fill-rule="evenodd" d="M760.287 545.354c1.87-.23 3.867-.149 5.606.593 3.698 1.578 4.75 5.969 4.699 9.538-.055 3.841-.866 8.037 2.04 11.132 1.336 1.423 2.997 2.512 4.309 3.961 1.402 1.548 2.502 3.32 3.316 5.223 1.495 3.494 2.229 7.604.862 11.27-1.204 3.228-4.233 6.141-3.578 9.812.682 3.828 4.523 6.755 6.925 9.607 2.718 3.228 5.22 7.352 5.631 11.585.395 4.056-1.362 8.158-4.059 11.224-5.387 6.127-13.485 9.13-21.65 9.111-3.466-.008-7.391-.165-10.383-2.037-.924-.579-1.412-1.228-1.962-2.13-.493-.81-1.144-1.336-1.897-1.909-1.656-1.257-2.851-2.953-3.614-4.85-2.963-7.37-.595-16.488 3.552-23.033.983-1.55 1.787-3.043 1.31-4.891-.498-1.929-1.723-3.669-2.806-5.328-1.07-1.639-2.292-3.202-3.128-4.974-.876-1.857-1.123-3.801-.968-5.833.291-3.816 1.93-7.338 4.251-10.407 2.236-2.957 4.861-5.785 4.867-9.659.006-4.106-2.725-7.758-1.561-11.932.481-1.729 1.449-3.502 3.009-4.538 1.495-.994 3.47-1.319 5.229-1.535z" clip-rule="evenodd"/>
  <path fill="#ABC6F0" fill-rule="evenodd" d="M759.065 551.916c.035-.551.686-.882 1.198-.738.674.19.661.823.644 1.387-.055 1.734.195 3.42.61 5.102.862 3.499 2.455 6.722 3.718 10.083 1.261 3.358 1.853 6.824 1.113 10.377-.697 3.35-1.793 6.613-2.507 9.968-.629 2.956-1.299 6.074-.341 9.022.922 2.839 2.961 5.15 4.429 7.715 3.039 5.31 4.387 11.201 4.567 17.263.084 2.815.008 5.656-.642 8.417-.374 1.59-.876 3.738-2.232 4.836-.625.506-1.694.681-2.22-.069-.494-.703-.061-1.791.096-2.54.679-3.244.816-6.559.653-9.852-.157-3.19-.532-6.375-1.531-9.422-.928-2.827-2.337-5.367-3.995-7.84-1.689-2.521-3.445-5.047-4.144-8.034-.709-3.033-.133-6.119.638-9.095.815-3.147 1.882-6.204 2.985-9.266 1.076-2.983 1.457-5.806.863-8.929-1.172-6.169-4.311-11.96-3.902-18.385z" clip-rule="evenodd"/>
  <path fill="#232A67" fill-rule="evenodd" d="M790.457 529.152c-.751-2.502-3.865-3.86-5.216-.814-1.446 3.262 2.045 7.053 4.082 9.134-.188-.223 1.37-2.966 1.483-3.512.333-1.609.112-3.269-.349-4.808zm-24.583 59.925c.035.776-.001.067 0 0zm12.194-51.42c-1.7-.285-3.094.93-3.243 2.602-.178 1.99 1.524 3.729 2.87 4.955.609.555 3.862 3.517 3.676 2.268a3.6 3.6 0 01.142.45c-.191.31-.377.623-.56.938-.029-.009-.056-.014-.085-.024.03.013.054.019.082.029a40.211 40.211 0 00-4.144 10.069 9.453 9.453 0 00-1.108-2.072c-1.352-1.868-5.938-4.167-6.414-.218-.455 3.787 4.442 4.436 6.66 6.174-.907 4.548-1.51 9.191-1.928 13.856a.74.74 0 00-.588-.073c-.391-1.349-.619-2.922-1.231-3.936-.884-1.464-3.07-4.114-5.026-4.014-2.406.122-2.359 2.36-1.362 3.942 1.446 2.294 4.777 3.951 7.17 5.221.162.25.444.425.745.404l.155.086c-.378 4.682-.59 9.374-.761 14.001l-.068-.081c-.174-1.003-.463-1.982-.964-2.868-1.156-2.052-2.993-4.02-5.471-4.244-2.468-.225-5.021 1.267-5.065 3.929-.089 5.329 9.936 3.677 11.514 4.847-.149 4.678-.009 9.347.214 14.013a6.294 6.294 0 00-.667-1.084c-2.141-2.778-10.863-5.836-11.011.168-.128 5.233 7.98 3.563 11.839 4.073.233 4.376.492 8.752.607 13.133-.875-1.629-2.004-2.939-3.736-3.943-1.794-1.038-5.073-2.351-6.172.394-1.117 2.791 2.413 4.751 4.412 5.621 1.09.475 3.747.986 5.55 1.931-.032 7.194-.909 14.219-3.244 21.101-1.458 4.297-3.469 8.404-5.895 12.241-1.549 2.449-4.005 6.717-6.867 9 6.272-3.989 10.983-11.796 13.924-18.209 2.705-5.898 4.04-12.185 4.56-18.574 3.114-1.433 12.759 2.009 11.248-4.029-.808-3.202-4.766-3.552-7.248-2.095-1.705 1.002-3.024 3.141-3.912 4.933.13-1.978.189-3.964.185-5.949a221.178 221.178 0 00-.191-8.225c4.681.302 13.596-3.608 11.56-7.981-3.01-6.454-9.928 4.483-11.32 6.432a.367.367 0 00.303.148c-.183.12-.381.244-.587.364-.22-5.233-.529-10.462-.638-15.696.429.079 1.534-.191 2.219-.231 1.546-.09 3.1-.248 4.59-.693 2.353-.705 5.635-2.332 4.6-5.332-1.125-3.265-5.046-1.648-6.79-.047-1.205 1.108-2.036 2.496-3.049 3.762-.316.395-2.154 1.732-.98 1.567a4.8 4.8 0 00-.599.532c-.017-.942-.026-1.885-.028-2.827a.856.856 0 00.24-.141c.54-.456.254-1.16-.237-1.382a124.7 124.7 0 01.08-3.769c.1-2.663.221-5.383.381-8.122.538.059.783-.394 1.318-.369.534.024 1.2.434 1.761.526 1.411.231 2.981.048 4.358-.31 2.275-.594 6.432-2.498 4.913-5.563-1.565-3.16-5.783-1.56-7.837.064-.398.315-3.466 3.703-4.475 5.045.308-5.079.756-10.21 1.475-15.15.652.684 3.896 1.317 4.652 1.352 1.844.084 5.359-.327 4.876-3.048-.432-2.418-3.58-2.95-5.556-2.308-.325.106-2.78 1.703-3.751 2.558.326-2.072.7-4.107 1.136-6.083a49.578 49.578 0 011.026-3.897c.176.055.396.057.637.026 2.774 2.111 9.682 1.647 8.286-2.575-.665-2.009-3.426-2.28-5.163-1.943-.356.069-1.695.894-2.757 1.539 1.501-4.035 3.477-7.893 5.768-11.567a.75.75 0 00.909-.047c1.834.568 3.312.989 5.443.59 1.324-.248 4.109-1.07 3.117-3.053-1.291-2.58-5.564-.962-7.238.294-.194.146-.707.627-1.171 1.073a.936.936 0 00-.2-.207 90.585 90.585 0 014.669-6.485c1.386.77 7.355-4.457 7.492-5.963.311-3.368-3.439-2.03-4.766-.624-1.565 1.659-2.372 3.826-2.875 5.978-.052.229-.071.196.15.035a.547.547 0 00-.133.303c-.918.773-1.898 1.52-2.632 2.288a80.935 80.935 0 00-5.926 6.965 43.694 43.694 0 00-1.291 1.795c-.074-1.593-.521-3.415-.749-4.079-.591-1.723-1.754-4.142-3.803-4.485zM758.22 670.695c-.826.667-1.664 1.19-2.492 1.476a22.17 22.17 0 002.492-1.476z" clip-rule="evenodd"/>
  <path fill="#A3C1F4" fill-rule="evenodd" d="M809.67 552.839c2.314.706 4.613 1.846 6.263 3.632 3.508 3.8 2.432 9.542.495 13.736-2.084 4.515-5.243 9.052-3.463 14.232.819 2.381 2.195 4.537 2.972 6.937.829 2.564 1.187 5.234 1.142 7.91-.085 4.915-1.386 10.159-4.918 13.78-3.109 3.187-8.194 5.049-9.357 9.732-1.213 4.885 1.753 10.355 3.07 14.983 1.49 5.237 2.255 11.424.512 16.644-1.672 5.003-5.89 8.936-10.665 11.152-9.541 4.429-20.619 3.748-30.186-.543-4.061-1.822-8.582-4.06-11.107-7.838-.78-1.167-1.01-2.19-1.18-3.545-.153-1.214-.639-2.177-1.222-3.248-1.28-2.353-1.791-4.983-1.688-7.626.401-10.265 7.975-19.81 16.281-25.382 1.969-1.32 3.697-2.664 4.109-5.099.431-2.542-.09-5.24-.488-7.768-.393-2.498-1.004-4.986-1.053-7.519-.051-2.653.682-5.081 1.932-7.403 2.349-4.361 6.124-7.669 10.461-10.086 4.177-2.327 8.744-4.3 10.788-8.878 2.167-4.853.884-10.6 4.445-14.928 1.474-1.792 3.542-3.383 5.916-3.794 2.277-.393 4.764.255 6.941.919z" clip-rule="evenodd"/>
  <path fill="#8CAFEC" fill-rule="evenodd" d="M804.942 560.86c.328-.634 1.261-.683 1.785-.243.69.58.345 1.323.03 1.982-.967 2.025-1.554 4.152-1.946 6.363-.815 4.597-.631 9.254-.907 13.898-.275 4.641-1.389 9.059-4.106 12.876-2.561 3.6-5.543 6.887-8.126 10.483-2.277 3.17-4.684 6.509-5.101 10.506-.401 3.847.778 7.658 1.158 11.469.786 7.889-.708 15.575-3.656 22.849-1.37 3.377-2.938 6.702-5.137 9.629-1.266 1.686-2.973 3.965-5.13 4.551-.995.27-2.337-.086-2.561-1.25-.211-1.093.863-2.154 1.436-2.958 2.485-3.484 4.372-7.337 5.899-11.323 1.478-3.861 2.699-7.83 3.119-11.965.389-3.836.065-7.586-.584-11.388-.662-3.875-1.4-7.792-.659-11.696.751-3.966 3.033-7.318 5.485-10.435 2.593-3.298 5.434-6.356 8.32-9.401 2.812-2.967 4.729-6.109 5.662-10.12 1.844-7.923 1.192-16.434 5.019-23.827z" clip-rule="evenodd"/>
  <path fill="#E3EEFF" fill-rule="evenodd" d="M738.12 581.982c3.848 0 7.232 2.05 9.563 4.959 2.729 3.406 3.28 7.564 4.389 11.623.551 2.02 1.499 4.025 3.162 5.397 1.511 1.248 3.43 1.498 5.24 2.108 3.616 1.218 6.536 4.154 7.69 7.735 1.406 4.369-.084 8.775.173 13.203.235 4.066 4.225 6.603 7.435 8.552 3.165 1.922 6.016 3.722 6.97 7.466 1.01 3.972 1.35 8.404-.051 12.328-2.331 6.532-9.153 9.408-15.745 9.854-5.983.405-13.505-.23-17.998-4.594-2.688-2.612-3.662-6.264-3.541-9.898.075-2.259.52-4.498 1.096-6.682.408-1.547.96-3.088 1.117-4.687.417-4.255-3.496-5.072-6.827-6.24-4.232-1.485-7.195-4.289-9.256-8.196-1.919-3.638-2.724-7.721-1.574-11.726.588-2.045 1.654-3.9 3.099-5.478.636-.695 1.532-1.274 2.107-2.004.536-.681.419-1.564.234-2.363-.854-3.687-3.515-6.74-4.466-10.42-.859-3.322-.351-7.456 2.671-9.599 1.306-.926 2.916-1.327 4.512-1.338z" clip-rule="evenodd"/>
  <path fill="#ABC6F0" fill-rule="evenodd" d="M743.364 591.589c4.079 4.366 5.187 10.29 5.513 16.032.182 3.22-.008 6.616.934 9.739.805 2.673 2.693 4.716 4.64 6.648 3.917 3.887 8.287 7.839 9.433 13.465.672 3.302.218 6.712 1.147 9.978.845 2.968 2.332 5.884 4.142 8.391 1.456 2.018 3.354 3.563 4.946 5.445.486.574 1.182 1.419.982 2.23-.235.95-1.439 1.25-2.292 1.101-1.991-.348-3.667-2.258-4.969-3.647-1.904-2.031-3.521-4.215-4.836-6.666-1.46-2.721-2.635-5.609-3.137-8.661-.521-3.168-.262-6.469-1.451-9.508-2.003-5.115-6.859-8.133-10.371-12.119-4.374-4.968-3.722-11.15-3.274-17.26.246-3.358.491-7.15-1.197-10.216-.645-1.17-2.082-2.261-2.359-3.591-.254-1.219 1.132-2.451 2.149-1.361z" clip-rule="evenodd"/>
  <path fill="#D9DBDD" fill-rule="evenodd" d="M747.713 663.342c0 24.971 4.055 38.055 25.464 38.055 21.408 0 25.463-13.084 25.463-38.055h-50.927z" clip-rule="evenodd"/>
  <defs>
    <linearGradient id="All_Returns_-_No_returns__paint0_linear" x1="620.786" x2="611.97" y1="652.161" y2="573.99" gradientUnits="userSpaceOnUse">
      <stop stop-color="#EDEDED"/>
      <stop offset="1" stop-color="#C0C4C9"/>
    </linearGradient>
    <linearGradient id="All_Returns_-_No_returns__paint1_linear" x1="497.293" x2="710.246" y1="407.799" y2="617.56" gradientUnits="userSpaceOnUse">
      <stop stop-color="#EDEDED"/>
      <stop offset="1" stop-color="#D6D7D8"/>
    </linearGradient>
    <linearGradient id="All_Returns_-_No_returns__paint2_linear" x1="522.751" x2="502.849" y1="470.223" y2="510.028" gradientUnits="userSpaceOnUse">
      <stop stop-color="#88ADEC"/>
      <stop offset="1" stop-color="#B9D0FA"/>
    </linearGradient>
    <linearGradient id="All_Returns_-_No_returns__paint3_linear" x1="617.672" x2="597.769" y1="523.803" y2="563.608" gradientUnits="userSpaceOnUse">
      <stop stop-color="#88ADEC"/>
      <stop offset="1" stop-color="#B9D0FA"/>
    </linearGradient>
  </defs>
</svg>
