<svg width="1920" height="787" viewBox="0 0 1920 787" fill="none" xmlns="http://www.w3.org/2000/svg">
<rect width="1920" height="787" fill="#F1F1F1"/>
<g filter="url(#filter0_d_479_7019)">
<rect x="479" y="200" width="324" height="89" rx="16" fill="white"/>
</g>
<g filter="url(#filter1_d_479_7019)">
<rect x="451" y="468" width="324" height="89" rx="16" fill="white"/>
</g>
<path d="M526.432 521.168C524.88 521.168 523.464 520.808 522.184 520.088C520.904 519.352 519.888 518.336 519.136 517.04C518.4 515.728 518.032 514.256 518.032 512.624C518.032 510.992 518.4 509.528 519.136 508.232C519.888 506.92 520.904 505.904 522.184 505.184C523.464 504.448 524.88 504.08 526.432 504.08C528 504.08 529.424 504.448 530.704 505.184C531.984 505.904 532.992 506.912 533.728 508.208C534.464 509.504 534.832 510.976 534.832 512.624C534.832 514.272 534.464 515.744 533.728 517.04C532.992 518.336 531.984 519.352 530.704 520.088C529.424 520.808 528 521.168 526.432 521.168ZM526.432 519.272C527.6 519.272 528.648 519 529.576 518.456C530.52 517.912 531.256 517.136 531.784 516.128C532.328 515.12 532.6 513.952 532.6 512.624C532.6 511.28 532.328 510.112 531.784 509.12C531.256 508.112 530.528 507.336 529.6 506.792C528.672 506.248 527.616 505.976 526.432 505.976C525.248 505.976 524.192 506.248 523.264 506.792C522.336 507.336 521.6 508.112 521.056 509.12C520.528 510.112 520.264 511.28 520.264 512.624C520.264 513.952 520.528 515.12 521.056 516.128C521.6 517.136 522.336 517.912 523.264 518.456C524.208 519 525.264 519.272 526.432 519.272ZM540.499 509.984C540.883 509.232 541.427 508.648 542.131 508.232C542.851 507.816 543.723 507.608 544.747 507.608V509.864H544.171C541.723 509.864 540.499 511.192 540.499 513.848V521H538.315V507.848H540.499V509.984ZM553.292 507.632C554.428 507.632 555.42 507.88 556.268 508.376C557.132 508.872 557.772 509.496 558.188 510.248V507.848H560.396V521.288C560.396 522.488 560.14 523.552 559.628 524.48C559.116 525.424 558.38 526.16 557.42 526.688C556.476 527.216 555.372 527.48 554.108 527.48C552.38 527.48 550.94 527.072 549.788 526.256C548.636 525.44 547.956 524.328 547.748 522.92H549.908C550.148 523.72 550.644 524.36 551.396 524.84C552.148 525.336 553.052 525.584 554.108 525.584C555.308 525.584 556.284 525.208 557.036 524.456C557.804 523.704 558.188 522.648 558.188 521.288V518.528C557.756 519.296 557.116 519.936 556.268 520.448C555.42 520.96 554.428 521.216 553.292 521.216C552.124 521.216 551.06 520.928 550.1 520.352C549.156 519.776 548.412 518.968 547.868 517.928C547.324 516.888 547.052 515.704 547.052 514.376C547.052 513.032 547.324 511.856 547.868 510.848C548.412 509.824 549.156 509.032 550.1 508.472C551.06 507.912 552.124 507.632 553.292 507.632ZM558.188 514.4C558.188 513.408 557.988 512.544 557.588 511.808C557.188 511.072 556.644 510.512 555.956 510.128C555.284 509.728 554.54 509.528 553.724 509.528C552.908 509.528 552.164 509.72 551.492 510.104C550.82 510.488 550.284 511.048 549.884 511.784C549.484 512.52 549.284 513.384 549.284 514.376C549.284 515.384 549.484 516.264 549.884 517.016C550.284 517.752 550.82 518.32 551.492 518.72C552.164 519.104 552.908 519.296 553.724 519.296C554.54 519.296 555.284 519.104 555.956 518.72C556.644 518.32 557.188 517.752 557.588 517.016C557.988 516.264 558.188 515.392 558.188 514.4ZM563.871 514.376C563.871 513.032 564.143 511.856 564.687 510.848C565.231 509.824 565.975 509.032 566.919 508.472C567.879 507.912 568.943 507.632 570.111 507.632C571.263 507.632 572.263 507.88 573.111 508.376C573.959 508.872 574.591 509.496 575.007 510.248V507.848H577.215V521H575.007V518.552C574.575 519.32 573.927 519.96 573.063 520.472C572.215 520.968 571.223 521.216 570.087 521.216C568.919 521.216 567.863 520.928 566.919 520.352C565.975 519.776 565.231 518.968 564.687 517.928C564.143 516.888 563.871 515.704 563.871 514.376ZM575.007 514.4C575.007 513.408 574.807 512.544 574.407 511.808C574.007 511.072 573.463 510.512 572.775 510.128C572.103 509.728 571.359 509.528 570.543 509.528C569.727 509.528 568.983 509.72 568.311 510.104C567.639 510.488 567.103 511.048 566.703 511.784C566.303 512.52 566.103 513.384 566.103 514.376C566.103 515.384 566.303 516.264 566.703 517.016C567.103 517.752 567.639 518.32 568.311 518.72C568.983 519.104 569.727 519.296 570.543 519.296C571.359 519.296 572.103 519.104 572.775 518.72C573.463 518.32 574.007 517.752 574.407 517.016C574.807 516.264 575.007 515.392 575.007 514.4ZM587.914 507.608C589.514 507.608 590.81 508.096 591.802 509.072C592.794 510.032 593.29 511.424 593.29 513.248V521H591.13V513.56C591.13 512.248 590.802 511.248 590.146 510.56C589.49 509.856 588.594 509.504 587.458 509.504C586.306 509.504 585.386 509.864 584.698 510.584C584.026 511.304 583.69 512.352 583.69 513.728V521H581.506V507.848H583.69V509.72C584.122 509.048 584.706 508.528 585.442 508.16C586.194 507.792 587.018 507.608 587.914 507.608ZM598.585 505.712C598.169 505.712 597.817 505.568 597.529 505.28C597.241 504.992 597.097 504.64 597.097 504.224C597.097 503.808 597.241 503.456 597.529 503.168C597.817 502.88 598.169 502.736 598.585 502.736C598.985 502.736 599.321 502.88 599.593 503.168C599.881 503.456 600.025 503.808 600.025 504.224C600.025 504.64 599.881 504.992 599.593 505.28C599.321 505.568 598.985 505.712 598.585 505.712ZM599.641 507.848V521H597.457V507.848H599.641ZM603.148 514.4C603.148 513.04 603.42 511.856 603.964 510.848C604.508 509.824 605.26 509.032 606.22 508.472C607.196 507.912 608.308 507.632 609.556 507.632C611.172 507.632 612.5 508.024 613.54 508.808C614.596 509.592 615.292 510.68 615.628 512.072H613.276C613.052 511.272 612.612 510.64 611.956 510.176C611.316 509.712 610.516 509.48 609.556 509.48C608.308 509.48 607.3 509.912 606.532 510.776C605.764 511.624 605.38 512.832 605.38 514.4C605.38 515.984 605.764 517.208 606.532 518.072C607.3 518.936 608.308 519.368 609.556 519.368C610.516 519.368 611.316 519.144 611.956 518.696C612.596 518.248 613.036 517.608 613.276 516.776H615.628C615.276 518.12 614.572 519.2 613.516 520.016C612.46 520.816 611.14 521.216 609.556 521.216C608.308 521.216 607.196 520.936 606.22 520.376C605.26 519.816 604.508 519.024 603.964 518C603.42 516.976 603.148 515.776 603.148 514.4ZM625.324 512.624C625.324 510.992 625.692 509.528 626.428 508.232C627.164 506.92 628.164 505.896 629.428 505.16C630.708 504.424 632.124 504.056 633.676 504.056C635.5 504.056 637.092 504.496 638.452 505.376C639.812 506.256 640.804 507.504 641.428 509.12H638.812C638.348 508.112 637.676 507.336 636.796 506.792C635.932 506.248 634.892 505.976 633.676 505.976C632.508 505.976 631.46 506.248 630.532 506.792C629.604 507.336 628.876 508.112 628.348 509.12C627.82 510.112 627.556 511.28 627.556 512.624C627.556 513.952 627.82 515.12 628.348 516.128C628.876 517.12 629.604 517.888 630.532 518.432C631.46 518.976 632.508 519.248 633.676 519.248C634.892 519.248 635.932 518.984 636.796 518.456C637.676 517.912 638.348 517.136 638.812 516.128H641.428C640.804 517.728 639.812 518.968 638.452 519.848C637.092 520.712 635.5 521.144 633.676 521.144C632.124 521.144 630.708 520.784 629.428 520.064C628.164 519.328 627.164 518.312 626.428 517.016C625.692 515.72 625.324 514.256 625.324 512.624ZM651.015 521.216C649.783 521.216 648.663 520.936 647.655 520.376C646.663 519.816 645.879 519.024 645.303 518C644.743 516.96 644.463 515.76 644.463 514.4C644.463 513.056 644.751 511.872 645.327 510.848C645.919 509.808 646.719 509.016 647.727 508.472C648.735 507.912 649.863 507.632 651.111 507.632C652.359 507.632 653.487 507.912 654.495 508.472C655.503 509.016 656.295 509.8 656.871 510.824C657.463 511.848 657.759 513.04 657.759 514.4C657.759 515.76 657.455 516.96 656.847 518C656.255 519.024 655.447 519.816 654.423 520.376C653.399 520.936 652.263 521.216 651.015 521.216ZM651.015 519.296C651.799 519.296 652.535 519.112 653.223 518.744C653.911 518.376 654.463 517.824 654.879 517.088C655.311 516.352 655.527 515.456 655.527 514.4C655.527 513.344 655.319 512.448 654.903 511.712C654.487 510.976 653.943 510.432 653.271 510.08C652.599 509.712 651.871 509.528 651.087 509.528C650.287 509.528 649.551 509.712 648.879 510.08C648.223 510.432 647.695 510.976 647.295 511.712C646.895 512.448 646.695 513.344 646.695 514.4C646.695 515.472 646.887 516.376 647.271 517.112C647.671 517.848 648.199 518.4 648.855 518.768C649.511 519.12 650.231 519.296 651.015 519.296ZM663.895 509.648V517.4C663.895 518.04 664.031 518.496 664.303 518.768C664.575 519.024 665.047 519.152 665.719 519.152H667.327V521H665.359C664.143 521 663.231 520.72 662.623 520.16C662.015 519.6 661.711 518.68 661.711 517.4V509.648H660.007V507.848H661.711V504.536H663.895V507.848H667.327V509.648H663.895ZM673.237 509.648V517.4C673.237 518.04 673.373 518.496 673.645 518.768C673.917 519.024 674.389 519.152 675.061 519.152H676.669V521H674.701C673.485 521 672.573 520.72 671.965 520.16C671.357 519.6 671.053 518.68 671.053 517.4V509.648H669.349V507.848H671.053V504.536H673.237V507.848H676.669V509.648H673.237ZM685.651 521.216C684.419 521.216 683.299 520.936 682.291 520.376C681.299 519.816 680.515 519.024 679.939 518C679.379 516.96 679.099 515.76 679.099 514.4C679.099 513.056 679.387 511.872 679.963 510.848C680.555 509.808 681.355 509.016 682.363 508.472C683.371 507.912 684.499 507.632 685.747 507.632C686.995 507.632 688.123 507.912 689.131 508.472C690.139 509.016 690.931 509.8 691.507 510.824C692.099 511.848 692.395 513.04 692.395 514.4C692.395 515.76 692.091 516.96 691.483 518C690.891 519.024 690.083 519.816 689.059 520.376C688.035 520.936 686.899 521.216 685.651 521.216ZM685.651 519.296C686.435 519.296 687.171 519.112 687.859 518.744C688.547 518.376 689.099 517.824 689.515 517.088C689.947 516.352 690.163 515.456 690.163 514.4C690.163 513.344 689.955 512.448 689.539 511.712C689.123 510.976 688.579 510.432 687.907 510.08C687.235 509.712 686.507 509.528 685.723 509.528C684.923 509.528 684.187 509.712 683.515 510.08C682.859 510.432 682.331 510.976 681.931 511.712C681.531 512.448 681.331 513.344 681.331 514.4C681.331 515.472 681.523 516.376 681.907 517.112C682.307 517.848 682.835 518.4 683.491 518.768C684.147 519.12 684.867 519.296 685.651 519.296ZM702.275 507.608C703.875 507.608 705.171 508.096 706.163 509.072C707.155 510.032 707.651 511.424 707.651 513.248V521H705.491V513.56C705.491 512.248 705.163 511.248 704.507 510.56C703.851 509.856 702.955 509.504 701.819 509.504C700.667 509.504 699.747 509.864 699.059 510.584C698.387 511.304 698.051 512.352 698.051 513.728V521H695.867V507.848H698.051V509.72C698.483 509.048 699.067 508.528 699.803 508.16C700.555 507.792 701.379 507.608 702.275 507.608Z" fill="#191919"/>
<g filter="url(#filter2_d_479_7019)">
<rect x="342" y="334" width="324" height="89" rx="16" fill="white"/>
</g>
<path d="M387.152 387.168C386.048 387.168 385.056 386.976 384.176 386.592C383.312 386.192 382.632 385.648 382.136 384.96C381.64 384.256 381.384 383.448 381.368 382.536H383.696C383.776 383.32 384.096 383.984 384.656 384.528C385.232 385.056 386.064 385.32 387.152 385.32C388.192 385.32 389.008 385.064 389.6 384.552C390.208 384.024 390.512 383.352 390.512 382.536C390.512 381.896 390.336 381.376 389.984 380.976C389.632 380.576 389.192 380.272 388.664 380.064C388.136 379.856 387.424 379.632 386.528 379.392C385.424 379.104 384.536 378.816 383.864 378.528C383.208 378.24 382.64 377.792 382.16 377.184C381.696 376.56 381.464 375.728 381.464 374.688C381.464 373.776 381.696 372.968 382.16 372.264C382.624 371.56 383.272 371.016 384.104 370.632C384.952 370.248 385.92 370.056 387.008 370.056C388.576 370.056 389.856 370.448 390.848 371.232C391.856 372.016 392.424 373.056 392.552 374.352H390.152C390.072 373.712 389.736 373.152 389.144 372.672C388.552 372.176 387.768 371.928 386.792 371.928C385.88 371.928 385.136 372.168 384.56 372.648C383.984 373.112 383.696 373.768 383.696 374.616C383.696 375.224 383.864 375.72 384.2 376.104C384.552 376.488 384.976 376.784 385.472 376.992C385.984 377.184 386.696 377.408 387.608 377.664C388.712 377.968 389.6 378.272 390.272 378.576C390.944 378.864 391.52 379.32 392 379.944C392.48 380.552 392.72 381.384 392.72 382.44C392.72 383.256 392.504 384.024 392.072 384.744C391.64 385.464 391 386.048 390.152 386.496C389.304 386.944 388.304 387.168 387.152 387.168ZM408.198 373.848V387H406.014V385.056C405.598 385.728 405.014 386.256 404.262 386.64C403.526 387.008 402.71 387.192 401.814 387.192C400.79 387.192 399.87 386.984 399.054 386.568C398.238 386.136 397.59 385.496 397.11 384.648C396.646 383.8 396.414 382.768 396.414 381.552V373.848H398.574V381.264C398.574 382.56 398.902 383.56 399.558 384.264C400.214 384.952 401.11 385.296 402.246 385.296C403.414 385.296 404.334 384.936 405.006 384.216C405.678 383.496 406.014 382.448 406.014 381.072V373.848H408.198ZM417.142 387.216C416.134 387.216 415.23 387.048 414.43 386.712C413.63 386.36 412.998 385.88 412.534 385.272C412.07 384.648 411.814 383.936 411.766 383.136H414.022C414.086 383.792 414.39 384.328 414.934 384.744C415.494 385.16 416.222 385.368 417.118 385.368C417.95 385.368 418.606 385.184 419.086 384.816C419.566 384.448 419.806 383.984 419.806 383.424C419.806 382.848 419.55 382.424 419.038 382.152C418.526 381.864 417.734 381.584 416.662 381.312C415.686 381.056 414.886 380.8 414.262 380.544C413.654 380.272 413.126 379.88 412.678 379.368C412.246 378.84 412.03 378.152 412.03 377.304C412.03 376.632 412.23 376.016 412.63 375.456C413.03 374.896 413.598 374.456 414.334 374.136C415.07 373.8 415.91 373.632 416.854 373.632C418.31 373.632 419.486 374 420.382 374.736C421.278 375.472 421.758 376.48 421.822 377.76H419.638C419.59 377.072 419.31 376.52 418.798 376.104C418.302 375.688 417.63 375.48 416.782 375.48C415.998 375.48 415.374 375.648 414.91 375.984C414.446 376.32 414.214 376.76 414.214 377.304C414.214 377.736 414.35 378.096 414.622 378.384C414.91 378.656 415.262 378.88 415.678 379.056C416.11 379.216 416.702 379.4 417.454 379.608C418.398 379.864 419.166 380.12 419.758 380.376C420.35 380.616 420.854 380.984 421.27 381.48C421.702 381.976 421.926 382.624 421.942 383.424C421.942 384.144 421.742 384.792 421.342 385.368C420.942 385.944 420.374 386.4 419.638 386.736C418.918 387.056 418.086 387.216 417.142 387.216ZM428.289 375.648V383.4C428.289 384.04 428.425 384.496 428.697 384.768C428.969 385.024 429.441 385.152 430.113 385.152H431.721V387H429.753C428.537 387 427.625 386.72 427.017 386.16C426.409 385.6 426.105 384.68 426.105 383.4V375.648H424.401V373.848H426.105V370.536H428.289V373.848H431.721V375.648H428.289ZM434.151 380.376C434.151 379.032 434.423 377.856 434.967 376.848C435.511 375.824 436.255 375.032 437.199 374.472C438.159 373.912 439.223 373.632 440.391 373.632C441.543 373.632 442.543 373.88 443.391 374.376C444.239 374.872 444.871 375.496 445.287 376.248V373.848H447.495V387H445.287V384.552C444.855 385.32 444.207 385.96 443.343 386.472C442.495 386.968 441.503 387.216 440.367 387.216C439.199 387.216 438.143 386.928 437.199 386.352C436.255 385.776 435.511 384.968 434.967 383.928C434.423 382.888 434.151 381.704 434.151 380.376ZM445.287 380.4C445.287 379.408 445.087 378.544 444.687 377.808C444.287 377.072 443.743 376.512 443.055 376.128C442.383 375.728 441.639 375.528 440.823 375.528C440.007 375.528 439.263 375.72 438.591 376.104C437.919 376.488 437.383 377.048 436.983 377.784C436.583 378.52 436.383 379.384 436.383 380.376C436.383 381.384 436.583 382.264 436.983 383.016C437.383 383.752 437.919 384.32 438.591 384.72C439.263 385.104 440.007 385.296 440.823 385.296C441.639 385.296 442.383 385.104 443.055 384.72C443.743 384.32 444.287 383.752 444.687 383.016C445.087 382.264 445.287 381.392 445.287 380.4ZM452.914 371.712C452.498 371.712 452.146 371.568 451.858 371.28C451.57 370.992 451.426 370.64 451.426 370.224C451.426 369.808 451.57 369.456 451.858 369.168C452.146 368.88 452.498 368.736 452.914 368.736C453.314 368.736 453.65 368.88 453.922 369.168C454.21 369.456 454.354 369.808 454.354 370.224C454.354 370.64 454.21 370.992 453.922 371.28C453.65 371.568 453.314 371.712 452.914 371.712ZM453.97 373.848V387H451.786V373.848H453.97ZM464.7 373.608C466.3 373.608 467.596 374.096 468.588 375.072C469.58 376.032 470.076 377.424 470.076 379.248V387H467.916V379.56C467.916 378.248 467.588 377.248 466.932 376.56C466.276 375.856 465.38 375.504 464.244 375.504C463.092 375.504 462.172 375.864 461.484 376.584C460.812 377.304 460.476 378.352 460.476 379.728V387H458.292V373.848H460.476V375.72C460.908 375.048 461.492 374.528 462.228 374.16C462.98 373.792 463.804 373.608 464.7 373.608ZM473.427 380.376C473.427 379.032 473.699 377.856 474.243 376.848C474.787 375.824 475.531 375.032 476.475 374.472C477.435 373.912 478.499 373.632 479.667 373.632C480.819 373.632 481.819 373.88 482.667 374.376C483.515 374.872 484.147 375.496 484.563 376.248V373.848H486.771V387H484.563V384.552C484.131 385.32 483.483 385.96 482.619 386.472C481.771 386.968 480.779 387.216 479.643 387.216C478.475 387.216 477.419 386.928 476.475 386.352C475.531 385.776 474.787 384.968 474.243 383.928C473.699 382.888 473.427 381.704 473.427 380.376ZM484.563 380.4C484.563 379.408 484.363 378.544 483.963 377.808C483.563 377.072 483.019 376.512 482.331 376.128C481.659 375.728 480.915 375.528 480.099 375.528C479.283 375.528 478.539 375.72 477.867 376.104C477.195 376.488 476.659 377.048 476.259 377.784C475.859 378.52 475.659 379.384 475.659 380.376C475.659 381.384 475.859 382.264 476.259 383.016C476.659 383.752 477.195 384.32 477.867 384.72C478.539 385.104 479.283 385.296 480.099 385.296C480.915 385.296 481.659 385.104 482.331 384.72C483.019 384.32 483.563 383.752 483.963 383.016C484.363 382.264 484.563 381.392 484.563 380.4ZM493.246 376.296C493.694 375.512 494.35 374.872 495.214 374.376C496.078 373.88 497.062 373.632 498.166 373.632C499.35 373.632 500.414 373.912 501.358 374.472C502.302 375.032 503.046 375.824 503.59 376.848C504.134 377.856 504.406 379.032 504.406 380.376C504.406 381.704 504.134 382.888 503.59 383.928C503.046 384.968 502.294 385.776 501.334 386.352C500.39 386.928 499.334 387.216 498.166 387.216C497.03 387.216 496.03 386.968 495.166 386.472C494.318 385.976 493.678 385.344 493.246 384.576V387H491.062V369.24H493.246V376.296ZM502.174 380.376C502.174 379.384 501.974 378.52 501.574 377.784C501.174 377.048 500.63 376.488 499.942 376.104C499.27 375.72 498.526 375.528 497.71 375.528C496.91 375.528 496.166 375.728 495.478 376.128C494.806 376.512 494.262 377.08 493.846 377.832C493.446 378.568 493.246 379.424 493.246 380.4C493.246 381.392 493.446 382.264 493.846 383.016C494.262 383.752 494.806 384.32 495.478 384.72C496.166 385.104 496.91 385.296 497.71 385.296C498.526 385.296 499.27 385.104 499.942 384.72C500.63 384.32 501.174 383.752 501.574 383.016C501.974 382.264 502.174 381.384 502.174 380.376ZM510.065 369.24V387H507.881V369.24H510.065ZM526.387 379.92C526.387 380.336 526.363 380.776 526.315 381.24H515.803C515.883 382.536 516.323 383.552 517.123 384.288C517.939 385.008 518.923 385.368 520.075 385.368C521.019 385.368 521.803 385.152 522.427 384.72C523.067 384.272 523.515 383.68 523.771 382.944H526.123C525.771 384.208 525.067 385.24 524.011 386.04C522.955 386.824 521.643 387.216 520.075 387.216C518.827 387.216 517.707 386.936 516.715 386.376C515.739 385.816 514.971 385.024 514.411 384C513.851 382.96 513.571 381.76 513.571 380.4C513.571 379.04 513.843 377.848 514.387 376.824C514.931 375.8 515.691 375.016 516.667 374.472C517.659 373.912 518.795 373.632 520.075 373.632C521.323 373.632 522.427 373.904 523.387 374.448C524.347 374.992 525.083 375.744 525.595 376.704C526.123 377.648 526.387 378.72 526.387 379.92ZM524.131 379.464C524.131 378.632 523.947 377.92 523.579 377.328C523.211 376.72 522.707 376.264 522.067 375.96C521.443 375.64 520.747 375.48 519.979 375.48C518.875 375.48 517.931 375.832 517.147 376.536C516.379 377.24 515.939 378.216 515.827 379.464H524.131ZM536.052 378.624C536.052 376.992 536.42 375.528 537.156 374.232C537.892 372.92 538.892 371.896 540.156 371.16C541.436 370.424 542.852 370.056 544.404 370.056C546.228 370.056 547.82 370.496 549.18 371.376C550.54 372.256 551.532 373.504 552.156 375.12H549.54C549.076 374.112 548.404 373.336 547.524 372.792C546.66 372.248 545.62 371.976 544.404 371.976C543.236 371.976 542.188 372.248 541.26 372.792C540.332 373.336 539.604 374.112 539.076 375.12C538.548 376.112 538.284 377.28 538.284 378.624C538.284 379.952 538.548 381.12 539.076 382.128C539.604 383.12 540.332 383.888 541.26 384.432C542.188 384.976 543.236 385.248 544.404 385.248C545.62 385.248 546.66 384.984 547.524 384.456C548.404 383.912 549.076 383.136 549.54 382.128H552.156C551.532 383.728 550.54 384.968 549.18 385.848C547.82 386.712 546.228 387.144 544.404 387.144C542.852 387.144 541.436 386.784 540.156 386.064C538.892 385.328 537.892 384.312 537.156 383.016C536.42 381.72 536.052 380.256 536.052 378.624ZM562.535 373.608C563.527 373.608 564.423 373.824 565.223 374.256C566.023 374.672 566.647 375.304 567.095 376.152C567.559 377 567.791 378.032 567.791 379.248V387H565.631V379.56C565.631 378.248 565.303 377.248 564.647 376.56C563.991 375.856 563.095 375.504 561.959 375.504C560.807 375.504 559.887 375.864 559.199 376.584C558.527 377.304 558.191 378.352 558.191 379.728V387H556.007V369.24H558.191V375.72C558.623 375.048 559.215 374.528 559.967 374.16C560.735 373.792 561.591 373.608 562.535 373.608ZM577.695 387.216C576.463 387.216 575.343 386.936 574.335 386.376C573.343 385.816 572.559 385.024 571.983 384C571.423 382.96 571.143 381.76 571.143 380.4C571.143 379.056 571.431 377.872 572.007 376.848C572.599 375.808 573.399 375.016 574.407 374.472C575.415 373.912 576.543 373.632 577.791 373.632C579.039 373.632 580.167 373.912 581.175 374.472C582.183 375.016 582.975 375.8 583.551 376.824C584.143 377.848 584.439 379.04 584.439 380.4C584.439 381.76 584.135 382.96 583.527 384C582.935 385.024 582.127 385.816 581.103 386.376C580.079 386.936 578.943 387.216 577.695 387.216ZM577.695 385.296C578.479 385.296 579.215 385.112 579.903 384.744C580.591 384.376 581.143 383.824 581.559 383.088C581.991 382.352 582.207 381.456 582.207 380.4C582.207 379.344 581.999 378.448 581.583 377.712C581.167 376.976 580.623 376.432 579.951 376.08C579.279 375.712 578.551 375.528 577.767 375.528C576.967 375.528 576.231 375.712 575.559 376.08C574.903 376.432 574.375 376.976 573.975 377.712C573.575 378.448 573.375 379.344 573.375 380.4C573.375 381.472 573.567 382.376 573.951 383.112C574.351 383.848 574.879 384.4 575.535 384.768C576.191 385.12 576.911 385.296 577.695 385.296ZM589.039 371.712C588.623 371.712 588.271 371.568 587.983 371.28C587.695 370.992 587.551 370.64 587.551 370.224C587.551 369.808 587.695 369.456 587.983 369.168C588.271 368.88 588.623 368.736 589.039 368.736C589.439 368.736 589.775 368.88 590.047 369.168C590.335 369.456 590.479 369.808 590.479 370.224C590.479 370.64 590.335 370.992 590.047 371.28C589.775 371.568 589.439 371.712 589.039 371.712ZM590.095 373.848V387H587.911V373.848H590.095ZM593.601 380.4C593.601 379.04 593.873 377.856 594.417 376.848C594.961 375.824 595.713 375.032 596.673 374.472C597.649 373.912 598.761 373.632 600.009 373.632C601.625 373.632 602.953 374.024 603.993 374.808C605.049 375.592 605.745 376.68 606.081 378.072H603.729C603.505 377.272 603.065 376.64 602.409 376.176C601.769 375.712 600.969 375.48 600.009 375.48C598.761 375.48 597.753 375.912 596.985 376.776C596.217 377.624 595.833 378.832 595.833 380.4C595.833 381.984 596.217 383.208 596.985 384.072C597.753 384.936 598.761 385.368 600.009 385.368C600.969 385.368 601.769 385.144 602.409 384.696C603.049 384.248 603.489 383.608 603.729 382.776H606.081C605.729 384.12 605.025 385.2 603.969 386.016C602.913 386.816 601.593 387.216 600.009 387.216C598.761 387.216 597.649 386.936 596.673 386.376C595.713 385.816 594.961 385.024 594.417 384C593.873 382.976 593.601 381.776 593.601 380.4ZM621.595 379.92C621.595 380.336 621.571 380.776 621.523 381.24H611.011C611.091 382.536 611.531 383.552 612.331 384.288C613.147 385.008 614.131 385.368 615.283 385.368C616.227 385.368 617.011 385.152 617.635 384.72C618.275 384.272 618.723 383.68 618.979 382.944H621.331C620.979 384.208 620.275 385.24 619.219 386.04C618.163 386.824 616.851 387.216 615.283 387.216C614.035 387.216 612.915 386.936 611.923 386.376C610.947 385.816 610.179 385.024 609.619 384C609.059 382.96 608.779 381.76 608.779 380.4C608.779 379.04 609.051 377.848 609.595 376.824C610.139 375.8 610.899 375.016 611.875 374.472C612.867 373.912 614.003 373.632 615.283 373.632C616.531 373.632 617.635 373.904 618.595 374.448C619.555 374.992 620.291 375.744 620.803 376.704C621.331 377.648 621.595 378.72 621.595 379.92ZM619.339 379.464C619.339 378.632 619.155 377.92 618.787 377.328C618.419 376.72 617.915 376.264 617.275 375.96C616.651 375.64 615.955 375.48 615.187 375.48C614.083 375.48 613.139 375.832 612.355 376.536C611.587 377.24 611.147 378.216 611.035 379.464H619.339Z" fill="#303030"/>
<path d="M512.032 242.624C512.032 240.992 512.4 239.528 513.136 238.232C513.872 236.92 514.872 235.896 516.136 235.16C517.416 234.424 518.832 234.056 520.384 234.056C522.208 234.056 523.8 234.496 525.16 235.376C526.52 236.256 527.512 237.504 528.136 239.12H525.52C525.056 238.112 524.384 237.336 523.504 236.792C522.64 236.248 521.6 235.976 520.384 235.976C519.216 235.976 518.168 236.248 517.24 236.792C516.312 237.336 515.584 238.112 515.056 239.12C514.528 240.112 514.264 241.28 514.264 242.624C514.264 243.952 514.528 245.12 515.056 246.128C515.584 247.12 516.312 247.888 517.24 248.432C518.168 248.976 519.216 249.248 520.384 249.248C521.6 249.248 522.64 248.984 523.504 248.456C524.384 247.912 525.056 247.136 525.52 246.128H528.136C527.512 247.728 526.52 248.968 525.16 249.848C523.8 250.712 522.208 251.144 520.384 251.144C518.832 251.144 517.416 250.784 516.136 250.064C514.872 249.328 513.872 248.312 513.136 247.016C512.4 245.72 512.032 244.256 512.032 242.624ZM537.723 251.216C536.491 251.216 535.371 250.936 534.363 250.376C533.371 249.816 532.587 249.024 532.011 248C531.451 246.96 531.171 245.76 531.171 244.4C531.171 243.056 531.459 241.872 532.035 240.848C532.627 239.808 533.427 239.016 534.435 238.472C535.443 237.912 536.571 237.632 537.819 237.632C539.067 237.632 540.195 237.912 541.203 238.472C542.211 239.016 543.003 239.8 543.579 240.824C544.171 241.848 544.467 243.04 544.467 244.4C544.467 245.76 544.163 246.96 543.555 248C542.963 249.024 542.155 249.816 541.131 250.376C540.107 250.936 538.971 251.216 537.723 251.216ZM537.723 249.296C538.507 249.296 539.243 249.112 539.931 248.744C540.619 248.376 541.171 247.824 541.587 247.088C542.019 246.352 542.235 245.456 542.235 244.4C542.235 243.344 542.027 242.448 541.611 241.712C541.195 240.976 540.651 240.432 539.979 240.08C539.307 239.712 538.579 239.528 537.795 239.528C536.995 239.528 536.259 239.712 535.587 240.08C534.931 240.432 534.403 240.976 534.003 241.712C533.603 242.448 533.403 243.344 533.403 244.4C533.403 245.472 533.595 246.376 533.979 247.112C534.379 247.848 534.907 248.4 535.563 248.768C536.219 249.12 536.939 249.296 537.723 249.296ZM554.347 237.608C555.947 237.608 557.243 238.096 558.235 239.072C559.227 240.032 559.723 241.424 559.723 243.248V251H557.563V243.56C557.563 242.248 557.235 241.248 556.579 240.56C555.923 239.856 555.027 239.504 553.891 239.504C552.739 239.504 551.819 239.864 551.131 240.584C550.459 241.304 550.123 242.352 550.123 243.728V251H547.939V237.848H550.123V239.72C550.555 239.048 551.139 238.528 551.875 238.16C552.627 237.792 553.451 237.608 554.347 237.608ZM568.546 251.216C567.538 251.216 566.634 251.048 565.834 250.712C565.034 250.36 564.402 249.88 563.938 249.272C563.474 248.648 563.218 247.936 563.17 247.136H565.426C565.49 247.792 565.794 248.328 566.338 248.744C566.898 249.16 567.626 249.368 568.522 249.368C569.354 249.368 570.01 249.184 570.49 248.816C570.97 248.448 571.21 247.984 571.21 247.424C571.21 246.848 570.954 246.424 570.442 246.152C569.93 245.864 569.138 245.584 568.066 245.312C567.09 245.056 566.29 244.8 565.666 244.544C565.058 244.272 564.53 243.88 564.082 243.368C563.65 242.84 563.434 242.152 563.434 241.304C563.434 240.632 563.634 240.016 564.034 239.456C564.434 238.896 565.002 238.456 565.738 238.136C566.474 237.8 567.314 237.632 568.258 237.632C569.714 237.632 570.89 238 571.786 238.736C572.682 239.472 573.162 240.48 573.226 241.76H571.042C570.994 241.072 570.714 240.52 570.202 240.104C569.706 239.688 569.034 239.48 568.186 239.48C567.402 239.48 566.778 239.648 566.314 239.984C565.85 240.32 565.618 240.76 565.618 241.304C565.618 241.736 565.754 242.096 566.026 242.384C566.314 242.656 566.666 242.88 567.082 243.056C567.514 243.216 568.106 243.4 568.858 243.608C569.802 243.864 570.57 244.12 571.162 244.376C571.754 244.616 572.258 244.984 572.674 245.48C573.106 245.976 573.33 246.624 573.346 247.424C573.346 248.144 573.146 248.792 572.746 249.368C572.346 249.944 571.778 250.4 571.042 250.736C570.322 251.056 569.49 251.216 568.546 251.216ZM576.213 244.4C576.213 243.04 576.485 241.856 577.029 240.848C577.573 239.824 578.325 239.032 579.285 238.472C580.261 237.912 581.373 237.632 582.621 237.632C584.237 237.632 585.565 238.024 586.605 238.808C587.661 239.592 588.357 240.68 588.693 242.072H586.341C586.117 241.272 585.677 240.64 585.021 240.176C584.381 239.712 583.581 239.48 582.621 239.48C581.373 239.48 580.365 239.912 579.597 240.776C578.829 241.624 578.445 242.832 578.445 244.4C578.445 245.984 578.829 247.208 579.597 248.072C580.365 248.936 581.373 249.368 582.621 249.368C583.581 249.368 584.381 249.144 585.021 248.696C585.661 248.248 586.101 247.608 586.341 246.776H588.693C588.341 248.12 587.637 249.2 586.581 250.016C585.525 250.816 584.205 251.216 582.621 251.216C581.373 251.216 580.261 250.936 579.285 250.376C578.325 249.816 577.573 249.024 577.029 248C576.485 246.976 576.213 245.776 576.213 244.4ZM593.335 235.712C592.919 235.712 592.567 235.568 592.279 235.28C591.991 234.992 591.847 234.64 591.847 234.224C591.847 233.808 591.991 233.456 592.279 233.168C592.567 232.88 592.919 232.736 593.335 232.736C593.735 232.736 594.071 232.88 594.343 233.168C594.631 233.456 594.775 233.808 594.775 234.224C594.775 234.64 594.631 234.992 594.343 235.28C594.071 235.568 593.735 235.712 593.335 235.712ZM594.391 237.848V251H592.207V237.848H594.391ZM604.45 251.216C603.218 251.216 602.098 250.936 601.09 250.376C600.098 249.816 599.314 249.024 598.738 248C598.178 246.96 597.898 245.76 597.898 244.4C597.898 243.056 598.186 241.872 598.762 240.848C599.354 239.808 600.154 239.016 601.162 238.472C602.17 237.912 603.298 237.632 604.546 237.632C605.794 237.632 606.922 237.912 607.93 238.472C608.938 239.016 609.73 239.8 610.306 240.824C610.898 241.848 611.194 243.04 611.194 244.4C611.194 245.76 610.89 246.96 610.282 248C609.69 249.024 608.882 249.816 607.858 250.376C606.834 250.936 605.698 251.216 604.45 251.216ZM604.45 249.296C605.234 249.296 605.97 249.112 606.658 248.744C607.346 248.376 607.898 247.824 608.314 247.088C608.746 246.352 608.962 245.456 608.962 244.4C608.962 243.344 608.754 242.448 608.338 241.712C607.922 240.976 607.378 240.432 606.706 240.08C606.034 239.712 605.306 239.528 604.522 239.528C603.722 239.528 602.986 239.712 602.314 240.08C601.658 240.432 601.13 240.976 600.73 241.712C600.33 242.448 600.13 243.344 600.13 244.4C600.13 245.472 600.322 246.376 600.706 247.112C601.106 247.848 601.634 248.4 602.29 248.768C602.946 249.12 603.666 249.296 604.45 249.296ZM626.329 237.848V251H624.145V249.056C623.729 249.728 623.145 250.256 622.393 250.64C621.657 251.008 620.841 251.192 619.945 251.192C618.921 251.192 618.001 250.984 617.185 250.568C616.369 250.136 615.721 249.496 615.241 248.648C614.777 247.8 614.545 246.768 614.545 245.552V237.848H616.705V245.264C616.705 246.56 617.033 247.56 617.689 248.264C618.345 248.952 619.241 249.296 620.377 249.296C621.545 249.296 622.465 248.936 623.137 248.216C623.809 247.496 624.145 246.448 624.145 245.072V237.848H626.329ZM635.273 251.216C634.265 251.216 633.361 251.048 632.561 250.712C631.761 250.36 631.129 249.88 630.665 249.272C630.201 248.648 629.945 247.936 629.897 247.136H632.153C632.217 247.792 632.521 248.328 633.065 248.744C633.625 249.16 634.353 249.368 635.249 249.368C636.081 249.368 636.737 249.184 637.217 248.816C637.697 248.448 637.937 247.984 637.937 247.424C637.937 246.848 637.681 246.424 637.169 246.152C636.657 245.864 635.865 245.584 634.793 245.312C633.817 245.056 633.017 244.8 632.393 244.544C631.785 244.272 631.257 243.88 630.809 243.368C630.377 242.84 630.161 242.152 630.161 241.304C630.161 240.632 630.361 240.016 630.761 239.456C631.161 238.896 631.729 238.456 632.465 238.136C633.201 237.8 634.041 237.632 634.985 237.632C636.441 237.632 637.617 238 638.513 238.736C639.409 239.472 639.889 240.48 639.953 241.76H637.769C637.721 241.072 637.441 240.52 636.929 240.104C636.433 239.688 635.761 239.48 634.913 239.48C634.129 239.48 633.505 239.648 633.041 239.984C632.577 240.32 632.345 240.76 632.345 241.304C632.345 241.736 632.481 242.096 632.753 242.384C633.041 242.656 633.393 242.88 633.809 243.056C634.241 243.216 634.833 243.4 635.585 243.608C636.529 243.864 637.297 244.12 637.889 244.376C638.481 244.616 638.985 244.984 639.401 245.48C639.833 245.976 640.057 246.624 640.073 247.424C640.073 248.144 639.873 248.792 639.473 249.368C639.073 249.944 638.505 250.4 637.769 250.736C637.049 251.056 636.217 251.216 635.273 251.216ZM649.938 242.624C649.938 240.992 650.306 239.528 651.042 238.232C651.778 236.92 652.778 235.896 654.042 235.16C655.322 234.424 656.738 234.056 658.29 234.056C660.114 234.056 661.706 234.496 663.066 235.376C664.426 236.256 665.418 237.504 666.042 239.12H663.426C662.962 238.112 662.29 237.336 661.41 236.792C660.546 236.248 659.506 235.976 658.29 235.976C657.122 235.976 656.074 236.248 655.146 236.792C654.218 237.336 653.49 238.112 652.962 239.12C652.434 240.112 652.17 241.28 652.17 242.624C652.17 243.952 652.434 245.12 652.962 246.128C653.49 247.12 654.218 247.888 655.146 248.432C656.074 248.976 657.122 249.248 658.29 249.248C659.506 249.248 660.546 248.984 661.41 248.456C662.29 247.912 662.962 247.136 663.426 246.128H666.042C665.418 247.728 664.426 248.968 663.066 249.848C661.706 250.712 660.114 251.144 658.29 251.144C656.738 251.144 655.322 250.784 654.042 250.064C652.778 249.328 651.778 248.312 651.042 247.016C650.306 245.72 649.938 244.256 649.938 242.624ZM675.629 251.216C674.397 251.216 673.277 250.936 672.269 250.376C671.277 249.816 670.493 249.024 669.917 248C669.357 246.96 669.077 245.76 669.077 244.4C669.077 243.056 669.365 241.872 669.941 240.848C670.533 239.808 671.333 239.016 672.341 238.472C673.349 237.912 674.477 237.632 675.725 237.632C676.973 237.632 678.101 237.912 679.109 238.472C680.117 239.016 680.909 239.8 681.485 240.824C682.077 241.848 682.373 243.04 682.373 244.4C682.373 245.76 682.069 246.96 681.461 248C680.869 249.024 680.061 249.816 679.037 250.376C678.013 250.936 676.877 251.216 675.629 251.216ZM675.629 249.296C676.413 249.296 677.149 249.112 677.837 248.744C678.525 248.376 679.077 247.824 679.493 247.088C679.925 246.352 680.141 245.456 680.141 244.4C680.141 243.344 679.933 242.448 679.517 241.712C679.101 240.976 678.557 240.432 677.885 240.08C677.213 239.712 676.485 239.528 675.701 239.528C674.901 239.528 674.165 239.712 673.493 240.08C672.837 240.432 672.309 240.976 671.909 241.712C671.509 242.448 671.309 243.344 671.309 244.4C671.309 245.472 671.501 246.376 671.885 247.112C672.285 247.848 672.813 248.4 673.469 248.768C674.125 249.12 674.845 249.296 675.629 249.296ZM688.029 233.24V251H685.845V233.24H688.029ZM694.535 233.24V251H692.351V233.24H694.535ZM710.857 243.92C710.857 244.336 710.833 244.776 710.785 245.24H700.273C700.353 246.536 700.793 247.552 701.593 248.288C702.409 249.008 703.393 249.368 704.545 249.368C705.489 249.368 706.273 249.152 706.897 248.72C707.537 248.272 707.985 247.68 708.241 246.944H710.593C710.241 248.208 709.537 249.24 708.481 250.04C707.425 250.824 706.113 251.216 704.545 251.216C703.297 251.216 702.177 250.936 701.185 250.376C700.209 249.816 699.441 249.024 698.881 248C698.321 246.96 698.041 245.76 698.041 244.4C698.041 243.04 698.313 241.848 698.857 240.824C699.401 239.8 700.161 239.016 701.137 238.472C702.129 237.912 703.265 237.632 704.545 237.632C705.793 237.632 706.897 237.904 707.857 238.448C708.817 238.992 709.553 239.744 710.065 240.704C710.593 241.648 710.857 242.72 710.857 243.92ZM708.601 243.464C708.601 242.632 708.417 241.92 708.049 241.328C707.681 240.72 707.177 240.264 706.537 239.96C705.913 239.64 705.217 239.48 704.449 239.48C703.345 239.48 702.401 239.832 701.617 240.536C700.849 241.24 700.409 242.216 700.297 243.464H708.601ZM713.524 244.4C713.524 243.04 713.796 241.856 714.34 240.848C714.884 239.824 715.636 239.032 716.596 238.472C717.572 237.912 718.684 237.632 719.932 237.632C721.548 237.632 722.876 238.024 723.916 238.808C724.972 239.592 725.668 240.68 726.004 242.072H723.652C723.428 241.272 722.988 240.64 722.332 240.176C721.692 239.712 720.892 239.48 719.932 239.48C718.684 239.48 717.676 239.912 716.908 240.776C716.14 241.624 715.756 242.832 715.756 244.4C715.756 245.984 716.14 247.208 716.908 248.072C717.676 248.936 718.684 249.368 719.932 249.368C720.892 249.368 721.692 249.144 722.332 248.696C722.972 248.248 723.412 247.608 723.652 246.776H726.004C725.652 248.12 724.948 249.2 723.892 250.016C722.836 250.816 721.516 251.216 719.932 251.216C718.684 251.216 717.572 250.936 716.596 250.376C715.636 249.816 714.884 249.024 714.34 248C713.796 246.976 713.524 245.776 713.524 244.4ZM732.182 239.648V247.4C732.182 248.04 732.318 248.496 732.59 248.768C732.862 249.024 733.334 249.152 734.006 249.152H735.614V251H733.646C732.43 251 731.518 250.72 730.91 250.16C730.302 249.6 729.998 248.68 729.998 247.4V239.648H728.294V237.848H729.998V234.536H732.182V237.848H735.614V239.648H732.182ZM739.988 235.712C739.572 235.712 739.22 235.568 738.932 235.28C738.644 234.992 738.5 234.64 738.5 234.224C738.5 233.808 738.644 233.456 738.932 233.168C739.22 232.88 739.572 232.736 739.988 232.736C740.388 232.736 740.724 232.88 740.996 233.168C741.284 233.456 741.428 233.808 741.428 234.224C741.428 234.64 741.284 234.992 740.996 235.28C740.724 235.568 740.388 235.712 739.988 235.712ZM741.044 237.848V251H738.86V237.848H741.044ZM751.103 251.216C749.871 251.216 748.751 250.936 747.743 250.376C746.751 249.816 745.967 249.024 745.391 248C744.831 246.96 744.551 245.76 744.551 244.4C744.551 243.056 744.839 241.872 745.415 240.848C746.007 239.808 746.807 239.016 747.815 238.472C748.823 237.912 749.951 237.632 751.199 237.632C752.447 237.632 753.575 237.912 754.583 238.472C755.591 239.016 756.383 239.8 756.959 240.824C757.551 241.848 757.847 243.04 757.847 244.4C757.847 245.76 757.543 246.96 756.935 248C756.343 249.024 755.535 249.816 754.511 250.376C753.487 250.936 752.351 251.216 751.103 251.216ZM751.103 249.296C751.887 249.296 752.623 249.112 753.311 248.744C753.999 248.376 754.551 247.824 754.967 247.088C755.399 246.352 755.615 245.456 755.615 244.4C755.615 243.344 755.407 242.448 754.991 241.712C754.575 240.976 754.031 240.432 753.359 240.08C752.687 239.712 751.959 239.528 751.175 239.528C750.375 239.528 749.639 239.712 748.967 240.08C748.311 240.432 747.783 240.976 747.383 241.712C746.983 242.448 746.783 243.344 746.783 244.4C746.783 245.472 746.975 246.376 747.359 247.112C747.759 247.848 748.287 248.4 748.943 248.768C749.599 249.12 750.319 249.296 751.103 249.296ZM767.726 237.608C769.326 237.608 770.622 238.096 771.614 239.072C772.606 240.032 773.102 241.424 773.102 243.248V251H770.942V243.56C770.942 242.248 770.614 241.248 769.958 240.56C769.302 239.856 768.406 239.504 767.27 239.504C766.118 239.504 765.198 239.864 764.51 240.584C763.838 241.304 763.502 242.352 763.502 243.728V251H761.318V237.848H763.502V239.72C763.934 239.048 764.518 238.528 765.254 238.16C766.006 237.792 766.83 237.608 767.726 237.608Z" fill="#191919"/>
<g filter="url(#filter3_d_479_7019)">
<rect x="1178" y="187" width="355" height="413" rx="16" fill="white"/>
</g>
<path d="M1298.16 246.168C1296.99 246.168 1295.94 245.968 1294.99 245.568C1294.06 245.168 1293.33 244.592 1292.78 243.84C1292.24 243.088 1291.96 242.2 1291.94 241.176H1295.54C1295.59 241.864 1295.83 242.408 1296.26 242.808C1296.71 243.208 1297.32 243.408 1298.09 243.408C1298.87 243.408 1299.49 243.224 1299.94 242.856C1300.38 242.472 1300.61 241.976 1300.61 241.368C1300.61 240.872 1300.46 240.464 1300.15 240.144C1299.85 239.824 1299.46 239.576 1299 239.4C1298.55 239.208 1297.93 239 1297.13 238.776C1296.04 238.456 1295.15 238.144 1294.46 237.84C1293.79 237.52 1293.21 237.048 1292.71 236.424C1292.23 235.784 1291.99 234.936 1291.99 233.88C1291.99 232.888 1292.24 232.024 1292.74 231.288C1293.23 230.552 1293.93 229.992 1294.82 229.608C1295.72 229.208 1296.74 229.008 1297.9 229.008C1299.62 229.008 1301.02 229.432 1302.1 230.28C1303.18 231.112 1303.78 232.28 1303.9 233.784H1300.2C1300.17 233.208 1299.92 232.736 1299.46 232.368C1299.01 231.984 1298.41 231.792 1297.66 231.792C1297 231.792 1296.47 231.96 1296.07 232.296C1295.69 232.632 1295.5 233.12 1295.5 233.76C1295.5 234.208 1295.64 234.584 1295.93 234.888C1296.23 235.176 1296.6 235.416 1297.03 235.608C1297.48 235.784 1298.1 235.992 1298.9 236.232C1299.99 236.552 1300.88 236.872 1301.57 237.192C1302.26 237.512 1302.85 237.992 1303.34 238.632C1303.84 239.272 1304.09 240.112 1304.09 241.152C1304.09 242.048 1303.86 242.88 1303.39 243.648C1302.93 244.416 1302.25 245.032 1301.35 245.496C1300.46 245.944 1299.39 246.168 1298.16 246.168ZM1320.15 232.704V246H1316.77V244.32C1316.34 244.896 1315.77 245.352 1315.07 245.688C1314.38 246.008 1313.63 246.168 1312.81 246.168C1311.77 246.168 1310.85 245.952 1310.05 245.52C1309.25 245.072 1308.62 244.424 1308.15 243.576C1307.71 242.712 1307.48 241.688 1307.48 240.504V232.704H1310.84V240.024C1310.84 241.08 1311.11 241.896 1311.63 242.472C1312.16 243.032 1312.88 243.312 1313.79 243.312C1314.72 243.312 1315.45 243.032 1315.98 242.472C1316.51 241.896 1316.77 241.08 1316.77 240.024V232.704H1320.15ZM1327.43 234.648C1327.86 234.008 1328.45 233.488 1329.2 233.088C1329.97 232.688 1330.84 232.488 1331.82 232.488C1332.96 232.488 1333.98 232.768 1334.89 233.328C1335.82 233.888 1336.55 234.688 1337.08 235.728C1337.62 236.752 1337.89 237.944 1337.89 239.304C1337.89 240.664 1337.62 241.872 1337.08 242.928C1336.55 243.968 1335.82 244.776 1334.89 245.352C1333.98 245.928 1332.96 246.216 1331.82 246.216C1330.83 246.216 1329.96 246.024 1329.2 245.64C1328.47 245.24 1327.88 244.728 1327.43 244.104V246H1324.07V228.24H1327.43V234.648ZM1334.46 239.304C1334.46 238.504 1334.29 237.816 1333.96 237.24C1333.64 236.648 1333.2 236.2 1332.66 235.896C1332.13 235.592 1331.56 235.44 1330.93 235.44C1330.32 235.44 1329.75 235.6 1329.2 235.92C1328.68 236.224 1328.24 236.672 1327.91 237.264C1327.59 237.856 1327.43 238.552 1327.43 239.352C1327.43 240.152 1327.59 240.848 1327.91 241.44C1328.24 242.032 1328.68 242.488 1329.2 242.808C1329.75 243.112 1330.32 243.264 1330.93 243.264C1331.56 243.264 1332.13 243.104 1332.66 242.784C1333.2 242.464 1333.64 242.008 1333.96 241.416C1334.29 240.824 1334.46 240.12 1334.46 239.304ZM1351.16 236.016V238.848H1340.98V236.016H1351.16ZM1358.89 234.624C1359.32 234.016 1359.91 233.512 1360.66 233.112C1361.43 232.696 1362.3 232.488 1363.28 232.488C1364.41 232.488 1365.44 232.768 1366.35 233.328C1367.28 233.888 1368.01 234.688 1368.53 235.728C1369.08 236.752 1369.35 237.944 1369.35 239.304C1369.35 240.664 1369.08 241.872 1368.53 242.928C1368.01 243.968 1367.28 244.776 1366.35 245.352C1365.44 245.928 1364.41 246.216 1363.28 246.216C1362.3 246.216 1361.44 246.016 1360.69 245.616C1359.95 245.216 1359.35 244.712 1358.89 244.104V252.336H1355.53V232.704H1358.89V234.624ZM1365.92 239.304C1365.92 238.504 1365.75 237.816 1365.41 237.24C1365.09 236.648 1364.66 236.2 1364.12 235.896C1363.59 235.592 1363.01 235.44 1362.39 235.44C1361.78 235.44 1361.21 235.6 1360.66 235.92C1360.13 236.224 1359.7 236.672 1359.37 237.264C1359.05 237.856 1358.89 238.552 1358.89 239.352C1358.89 240.152 1359.05 240.848 1359.37 241.44C1359.7 242.032 1360.13 242.488 1360.66 242.808C1361.21 243.112 1361.78 243.264 1362.39 243.264C1363.01 243.264 1363.59 243.104 1364.12 242.784C1364.66 242.464 1365.09 242.008 1365.41 241.416C1365.75 240.824 1365.92 240.12 1365.92 239.304ZM1371.53 239.304C1371.53 237.96 1371.79 236.768 1372.32 235.728C1372.86 234.688 1373.59 233.888 1374.5 233.328C1375.43 232.768 1376.46 232.488 1377.6 232.488C1378.59 232.488 1379.46 232.688 1380.19 233.088C1380.94 233.488 1381.54 233.992 1381.99 234.6V232.704H1385.38V246H1381.99V244.056C1381.56 244.68 1380.96 245.2 1380.19 245.616C1379.44 246.016 1378.57 246.216 1377.58 246.216C1376.46 246.216 1375.43 245.928 1374.5 245.352C1373.59 244.776 1372.86 243.968 1372.32 242.928C1371.79 241.872 1371.53 240.664 1371.53 239.304ZM1381.99 239.352C1381.99 238.536 1381.83 237.84 1381.51 237.264C1381.19 236.672 1380.76 236.224 1380.22 235.92C1379.67 235.6 1379.09 235.44 1378.46 235.44C1377.84 235.44 1377.26 235.592 1376.74 235.896C1376.21 236.2 1375.78 236.648 1375.44 237.24C1375.12 237.816 1374.96 238.504 1374.96 239.304C1374.96 240.104 1375.12 240.808 1375.44 241.416C1375.78 242.008 1376.21 242.464 1376.74 242.784C1377.28 243.104 1377.86 243.264 1378.46 243.264C1379.09 243.264 1379.67 243.112 1380.22 242.808C1380.76 242.488 1381.19 242.04 1381.51 241.464C1381.83 240.872 1381.99 240.168 1381.99 239.352ZM1394.47 232.488C1395.46 232.488 1396.33 232.688 1397.08 233.088C1397.83 233.472 1398.43 233.976 1398.86 234.6V232.704H1402.24V246.096C1402.24 247.328 1401.99 248.424 1401.5 249.384C1401 250.36 1400.26 251.128 1399.27 251.688C1398.27 252.264 1397.07 252.552 1395.67 252.552C1393.78 252.552 1392.23 252.112 1391.01 251.232C1389.81 250.352 1389.13 249.152 1388.97 247.632H1392.31C1392.48 248.24 1392.86 248.72 1393.43 249.072C1394.03 249.44 1394.74 249.624 1395.57 249.624C1396.55 249.624 1397.34 249.328 1397.95 248.736C1398.55 248.16 1398.86 247.28 1398.86 246.096V244.032C1398.43 244.656 1397.83 245.176 1397.06 245.592C1396.31 246.008 1395.44 246.216 1394.47 246.216C1393.35 246.216 1392.32 245.928 1391.39 245.352C1390.47 244.776 1389.73 243.968 1389.19 242.928C1388.66 241.872 1388.39 240.664 1388.39 239.304C1388.39 237.96 1388.66 236.768 1389.19 235.728C1389.73 234.688 1390.46 233.888 1391.37 233.328C1392.3 232.768 1393.33 232.488 1394.47 232.488ZM1398.86 239.352C1398.86 238.536 1398.7 237.84 1398.38 237.264C1398.06 236.672 1397.63 236.224 1397.08 235.92C1396.54 235.6 1395.95 235.44 1395.33 235.44C1394.71 235.44 1394.13 235.592 1393.6 235.896C1393.07 236.2 1392.64 236.648 1392.31 237.24C1391.99 237.816 1391.83 238.504 1391.83 239.304C1391.83 240.104 1391.99 240.808 1392.31 241.416C1392.64 242.008 1393.07 242.464 1393.6 242.784C1394.15 243.104 1394.72 243.264 1395.33 243.264C1395.95 243.264 1396.54 243.112 1397.08 242.808C1397.63 242.488 1398.06 242.04 1398.38 241.464C1398.7 240.872 1398.86 240.168 1398.86 239.352ZM1418.48 239.064C1418.48 239.544 1418.45 239.976 1418.39 240.36H1408.67C1408.75 241.32 1409.08 242.072 1409.68 242.616C1410.27 243.16 1411 243.432 1411.86 243.432C1413.11 243.432 1414 242.896 1414.52 241.824H1418.15C1417.76 243.104 1417.03 244.16 1415.94 244.992C1414.85 245.808 1413.52 246.216 1411.93 246.216C1410.65 246.216 1409.5 245.936 1408.48 245.376C1407.47 244.8 1406.68 243.992 1406.1 242.952C1405.54 241.912 1405.26 240.712 1405.26 239.352C1405.26 237.976 1405.54 236.768 1406.1 235.728C1406.66 234.688 1407.44 233.888 1408.45 233.328C1409.46 232.768 1410.62 232.488 1411.93 232.488C1413.2 232.488 1414.32 232.76 1415.32 233.304C1416.32 233.848 1417.1 234.624 1417.64 235.632C1418.2 236.624 1418.48 237.768 1418.48 239.064ZM1415 238.104C1414.99 237.24 1414.68 236.552 1414.07 236.04C1413.46 235.512 1412.72 235.248 1411.84 235.248C1411 235.248 1410.3 235.504 1409.72 236.016C1409.16 236.512 1408.82 237.208 1408.69 238.104H1415Z" fill="#191919"/>
<rect x="1218" y="323.702" width="274.868" height="6.57055" rx="3.28528" fill="#F1F1F1"/>
<rect x="1218" y="349.273" width="274.868" height="6.57055" rx="3.28528" fill="#F1F1F1"/>
<rect x="1218" y="374.844" width="274.868" height="6.57055" rx="3.28528" fill="#F1F1F1"/>
<rect x="1218" y="400.414" width="274.868" height="6.57055" rx="3.28528" fill="#F1F1F1"/>
<rect x="1218" y="425.984" width="274.868" height="6.57055" rx="3.28528" fill="#F1F1F1"/>
<rect x="1218" y="451.555" width="274.868" height="6.57055" rx="3.28528" fill="#F1F1F1"/>
<rect x="1218" y="477.125" width="181.785" height="6.57055" rx="3.28528" fill="#F1F1F1"/>
<defs>
<filter id="filter0_d_479_7019" x="469" y="198" width="344" height="109" filterUnits="userSpaceOnUse" color-interpolation-filters="sRGB">
<feFlood flood-opacity="0" result="BackgroundImageFix"/>
<feColorMatrix in="SourceAlpha" type="matrix" values="0 0 0 0 0 0 0 0 0 0 0 0 0 0 0 0 0 0 127 0" result="hardAlpha"/>
<feOffset dy="8"/>
<feGaussianBlur stdDeviation="5"/>
<feComposite in2="hardAlpha" operator="out"/>
<feColorMatrix type="matrix" values="0 0 0 0 0.862413 0 0 0 0 0.862413 0 0 0 0 0.862413 0 0 0 0.25 0"/>
<feBlend mode="normal" in2="BackgroundImageFix" result="effect1_dropShadow_479_7019"/>
<feBlend mode="normal" in="SourceGraphic" in2="effect1_dropShadow_479_7019" result="shape"/>
</filter>
<filter id="filter1_d_479_7019" x="441" y="466" width="344" height="109" filterUnits="userSpaceOnUse" color-interpolation-filters="sRGB">
<feFlood flood-opacity="0" result="BackgroundImageFix"/>
<feColorMatrix in="SourceAlpha" type="matrix" values="0 0 0 0 0 0 0 0 0 0 0 0 0 0 0 0 0 0 127 0" result="hardAlpha"/>
<feOffset dy="8"/>
<feGaussianBlur stdDeviation="5"/>
<feComposite in2="hardAlpha" operator="out"/>
<feColorMatrix type="matrix" values="0 0 0 0 0.862413 0 0 0 0 0.862413 0 0 0 0 0.862413 0 0 0 0.25 0"/>
<feBlend mode="normal" in2="BackgroundImageFix" result="effect1_dropShadow_479_7019"/>
<feBlend mode="normal" in="SourceGraphic" in2="effect1_dropShadow_479_7019" result="shape"/>
</filter>
<filter id="filter2_d_479_7019" x="332" y="332" width="344" height="109" filterUnits="userSpaceOnUse" color-interpolation-filters="sRGB">
<feFlood flood-opacity="0" result="BackgroundImageFix"/>
<feColorMatrix in="SourceAlpha" type="matrix" values="0 0 0 0 0 0 0 0 0 0 0 0 0 0 0 0 0 0 127 0" result="hardAlpha"/>
<feOffset dy="8"/>
<feGaussianBlur stdDeviation="5"/>
<feComposite in2="hardAlpha" operator="out"/>
<feColorMatrix type="matrix" values="0 0 0 0 0.862413 0 0 0 0 0.862413 0 0 0 0 0.862413 0 0 0 0.25 0"/>
<feBlend mode="normal" in2="BackgroundImageFix" result="effect1_dropShadow_479_7019"/>
<feBlend mode="normal" in="SourceGraphic" in2="effect1_dropShadow_479_7019" result="shape"/>
</filter>
<filter id="filter3_d_479_7019" x="1168" y="185" width="375" height="433" filterUnits="userSpaceOnUse" color-interpolation-filters="sRGB">
<feFlood flood-opacity="0" result="BackgroundImageFix"/>
<feColorMatrix in="SourceAlpha" type="matrix" values="0 0 0 0 0 0 0 0 0 0 0 0 0 0 0 0 0 0 127 0" result="hardAlpha"/>
<feOffset dy="8"/>
<feGaussianBlur stdDeviation="5"/>
<feComposite in2="hardAlpha" operator="out"/>
<feColorMatrix type="matrix" values="0 0 0 0 0.862413 0 0 0 0 0.862413 0 0 0 0 0.862413 0 0 0 0.25 0"/>
<feBlend mode="normal" in2="BackgroundImageFix" result="effect1_dropShadow_479_7019"/>
<feBlend mode="normal" in="SourceGraphic" in2="effect1_dropShadow_479_7019" result="shape"/>
</filter>
</defs>
</svg>
