<svg xmlns="http://www.w3.org/2000/svg" width="922" height="263" fill="none"><path fill="#fff" d="M0 0h922v263H0z"/><path fill="#191919" d="M55.502 43.098c-.905 0-1.731-.21-2.478-.63a4.78 4.78 0 0 1-1.778-1.778c-.43-.765-.644-1.624-.644-2.576s.215-1.806.644-2.562a4.649 4.649 0 0 1 1.778-1.778 4.883 4.883 0 0 1 2.478-.644c.915 0 1.745.215 2.492.644a4.577 4.577 0 0 1 1.764 1.764c.43.756.644 1.615.644 2.576 0 .961-.215 1.82-.644 2.576a4.677 4.677 0 0 1-1.764 1.778c-.747.42-1.577.63-2.492.63Zm0-1.106c.681 0 1.293-.159 1.834-.476.55-.317.98-.77 1.288-1.358.317-.588.476-1.27.476-2.044 0-.784-.159-1.465-.476-2.044a3.318 3.318 0 0 0-1.274-1.358c-.541-.317-1.157-.476-1.848-.476-.69 0-1.307.159-1.848.476-.541.317-.97.77-1.288 1.358-.308.579-.462 1.26-.462 2.044 0 .775.154 1.456.462 2.044.317.588.747 1.04 1.288 1.358.55.317 1.167.476 1.848.476ZM70.106 43h-1.274l-5.124-7.77V43h-1.274v-9.772h1.274l5.124 7.756v-7.756h1.274V43Zm3.796-1.036h3.416V43h-4.69v-9.758h1.274v8.722Zm6.393-8.722V43H79.02v-9.758h1.274ZM90.488 43h-1.274l-5.124-7.77V43h-1.274v-9.772h1.274l5.124 7.756v-7.756h1.274V43Zm3.796-8.722v3.262h3.556v1.05h-3.556v3.36h3.976V43h-5.25v-9.772h5.25v1.05h-3.976Zm13.43 8.82c-.644 0-1.223-.112-1.736-.336-.504-.233-.901-.55-1.19-.952a2.465 2.465 0 0 1-.448-1.414h1.358c.046.457.233.845.56 1.162.336.308.821.462 1.456.462.606 0 1.082-.15 1.428-.448.354-.308.532-.7.532-1.176 0-.373-.103-.677-.308-.91a1.973 1.973 0 0 0-.77-.532 12.092 12.092 0 0 0-1.246-.392c-.644-.168-1.162-.336-1.554-.504a2.578 2.578 0 0 1-.994-.784c-.271-.364-.406-.85-.406-1.456 0-.532.135-1.003.406-1.414.27-.41.648-.728 1.134-.952.494-.224 1.059-.336 1.694-.336.914 0 1.661.229 2.24.686.588.457.919 1.064.994 1.82h-1.4c-.047-.373-.243-.7-.588-.98-.346-.29-.803-.434-1.372-.434-.532 0-.966.14-1.302.42-.336.27-.504.653-.504 1.148 0 .355.098.644.294.868.205.224.452.397.742.518.298.112.714.243 1.246.392.644.177 1.162.355 1.554.532a2.51 2.51 0 0 1 1.008.798c.28.355.42.84.42 1.456 0 .476-.126.924-.378 1.344-.252.42-.626.76-1.12 1.022-.495.261-1.078.392-1.75.392Zm6.719-9.856v6.174c0 .868.21 1.512.63 1.932.429.42 1.022.63 1.778.63.746 0 1.33-.21 1.75-.63.429-.42.644-1.064.644-1.932v-6.174h1.274v6.16c0 .812-.164 1.498-.49 2.058a3.08 3.08 0 0 1-1.33 1.232c-.551.27-1.172.406-1.862.406-.691 0-1.316-.135-1.876-.406a3.091 3.091 0 0 1-1.316-1.232c-.318-.56-.476-1.246-.476-2.058v-6.16h1.274ZM128.122 43l-2.324-3.99h-1.54V43h-1.274v-9.758h3.15c.737 0 1.358.126 1.862.378.513.252.896.593 1.148 1.022.252.43.378.92.378 1.47 0 .672-.196 1.265-.588 1.778-.383.513-.961.854-1.736 1.022l2.45 4.088h-1.526Zm-3.864-5.012h1.876c.691 0 1.209-.168 1.554-.504.345-.345.518-.803.518-1.372 0-.579-.173-1.027-.518-1.344-.336-.317-.854-.476-1.554-.476h-1.876v3.696Zm15.657-4.746L136.233 43h-1.47l-3.682-9.758h1.358l3.066 8.414 3.066-8.414h1.344Zm3.021 1.036v3.262h3.556v1.05h-3.556v3.36h3.976V43h-5.25v-9.772h5.25v1.05h-3.976Zm13.086-1.036-3.178 6.076V43h-1.274v-3.682l-3.192-6.076h1.414l2.408 4.942 2.408-4.942h1.414Z"/><g filter="url(#empathize-overview2__a)"><circle cx="100" cy="155" r="80" fill="#F1F1F1"/><rect width="72.258" height="49.032" x="66.453" y="124.032" fill="#fff" rx="4"/><rect width="70.258" height="47.032" x="62.291" y="130.194" stroke="#191919" stroke-width="2" rx="3"/><path stroke="#191919" stroke-linecap="round" stroke-width="2" d="M80.356 143.677h44.451M80.356 154h44.451"/><circle cx="72.259" cy="144.032" r="3.226" fill="#191919"/><circle cx="72.259" cy="154.355" r="3.226" fill="#191919"/><path stroke="#191919" stroke-linecap="round" stroke-width="2" d="M80.356 165.613h44.451"/><circle cx="72.259" cy="164.677" r="3.226" fill="#191919"/></g><g filter="url(#empathize-overview2__b)"><path fill="#191919" d="M81.247 209.406V214h-1.173v-7.636h1.133v1.193h.1c.179-.388.45-.7.815-.935.365-.238.835-.358 1.412-.358.517 0 .97.106 1.357.318.388.209.69.527.905.955.216.424.323.961.323 1.611V214h-1.173v-4.773c0-.6-.156-1.067-.467-1.402-.312-.338-.74-.507-1.283-.507-.374 0-.71.081-1.004.244a1.738 1.738 0 0 0-.691.711c-.17.311-.254.689-.254 1.133Zm7.844-.318v-1.074h6.125v1.074H89.09Zm0 2.943v-1.074h6.125v1.074H89.09Zm12.263 2.108a3.494 3.494 0 0 1-1.576-.348 2.928 2.928 0 0 1-1.124-.954 2.602 2.602 0 0 1-.462-1.382h1.193c.046.46.255.841.626 1.143.375.298.822.447 1.343.447a2.11 2.11 0 0 0 1.113-.293c.329-.195.585-.464.771-.805a2.39 2.39 0 0 0 .283-1.169c0-.444-.097-.84-.293-1.188a2.15 2.15 0 0 0-.795-.83 2.249 2.249 0 0 0-1.159-.308 3.142 3.142 0 0 0-.959.144c-.328.096-.599.22-.81.373l-1.154-.139.616-5.012h5.29v1.094h-4.256l-.358 3.003h.06c.209-.166.471-.303.786-.413.315-.109.643-.164.984-.164.623 0 1.178.149 1.666.448.49.294.875.699 1.153 1.213.282.513.423 1.1.423 1.76 0 .649-.146 1.229-.438 1.74a3.197 3.197 0 0 1-1.193 1.203c-.507.291-1.084.437-1.73.437Zm8.867 0a3.499 3.499 0 0 1-1.576-.348 2.924 2.924 0 0 1-1.123-.954 2.604 2.604 0 0 1-.463-1.382h1.194c.046.46.255.841.626 1.143.375.298.822.447 1.342.447.418 0 .789-.097 1.114-.293.328-.195.585-.464.771-.805.188-.345.283-.734.283-1.169 0-.444-.098-.84-.293-1.188a2.16 2.16 0 0 0-.796-.83 2.245 2.245 0 0 0-1.158-.308 3.143 3.143 0 0 0-.96.144 2.65 2.65 0 0 0-.81.373l-1.153-.139.616-5.012h5.29v1.094h-4.256l-.358 3.003h.06c.209-.166.47-.303.785-.413a2.99 2.99 0 0 1 .985-.164c.623 0 1.178.149 1.665.448.491.294.875.699 1.154 1.213.281.513.422 1.1.422 1.76 0 .649-.146 1.229-.437 1.74a3.2 3.2 0 0 1-1.194 1.203c-.507.291-1.083.437-1.73.437Z"/></g><g filter="url(#empathize-overview2__c)"><circle cx="341" cy="155" r="80" fill="#F1F1F1"/><circle cx="346.805" cy="140.161" r="12.258" fill="#fff"/><path fill="#fff" d="M324.567 166.498c2.336-12.888 16.044-15.369 23.211-15.369 7.643 0 20.41 2.48 22.58 15.366.367 2.179-1.473 3.989-3.682 3.989h-38.451c-2.21 0-4.052-1.812-3.658-3.986Z"/><circle cx="322.289" cy="149.194" r="12.258" fill="#fff"/><path fill="#fff" d="M300.052 175.531c2.336-12.889 16.044-15.369 23.21-15.369 7.644 0 20.411 2.48 22.581 15.366.366 2.179-1.473 3.988-3.682 3.988h-38.452c-2.209 0-4.051-1.811-3.657-3.985Z"/><circle cx="372.612" cy="145.323" r="12.258" fill="#fff"/><path fill="#fff" d="M350.374 171.66c2.336-12.889 16.044-15.369 23.21-15.369 7.644 0 20.411 2.48 22.581 15.366.367 2.179-1.473 3.988-3.682 3.988h-38.452c-2.209 0-4.051-1.811-3.657-3.985Z"/><circle cx="340.354" cy="141.452" r="11.258" fill="#fff" stroke="#191919" stroke-width="2"/><path fill="#fff" stroke="#191919" stroke-width="2" d="M319.1 167.967c1.098-6.058 4.846-9.669 9.245-11.796 4.433-2.143 9.488-2.751 12.981-2.752 3.738 0 8.666.61 12.893 2.744 4.183 2.112 7.678 5.71 8.702 11.789.244 1.451-.981 2.822-2.696 2.822h-38.452c-1.72 0-2.933-1.373-2.673-2.807Z"/><circle cx="315.838" cy="150.484" r="11.258" fill="#fff" stroke="#191919" stroke-width="2"/><path fill="#fff" stroke="#191919" stroke-width="2" d="M294.584 176.999c1.098-6.059 4.846-9.669 9.246-11.796 4.433-2.143 9.487-2.752 12.981-2.752 3.737 0 8.666.61 12.892 2.744 4.183 2.112 7.679 5.71 8.702 11.789.245 1.451-.98 2.822-2.696 2.822h-38.451c-1.721 0-2.934-1.373-2.674-2.807Z"/><circle cx="366.16" cy="146.613" r="11.258" fill="#fff" stroke="#191919" stroke-width="2"/><path fill="#fff" stroke="#191919" stroke-width="2" d="M344.907 173.129c1.098-6.059 4.846-9.669 9.245-11.796 4.433-2.144 9.488-2.752 12.981-2.752 3.737 0 8.666.61 12.892 2.744 4.184 2.112 7.679 5.71 8.703 11.789.244 1.451-.981 2.822-2.696 2.822H347.58c-1.72 0-2.933-1.373-2.673-2.807Z"/></g><g filter="url(#empathize-overview2__d)"><path fill="#191919" d="M323.247 209.406V214h-1.173v-7.636h1.133v1.193h.1c.179-.388.451-.7.815-.935.365-.238.835-.358 1.412-.358.517 0 .97.106 1.357.318.388.209.69.527.905.955.216.424.323.961.323 1.611V214h-1.173v-4.773c0-.6-.156-1.067-.467-1.402-.312-.338-.739-.507-1.283-.507-.375 0-.709.081-1.004.244a1.736 1.736 0 0 0-.691.711c-.169.311-.254.689-.254 1.133Zm7.844-.318v-1.074h6.125v1.074h-6.125Zm0 2.943v-1.074h6.125v1.074h-6.125Zm12.66-8.213V214h-1.232v-8.889h-.06l-2.486 1.65v-1.252l2.546-1.691h1.232Zm6.659 10.321a3.8 3.8 0 0 1-1.252-.238 3.012 3.012 0 0 1-1.144-.771c-.345-.365-.621-.857-.83-1.477-.209-.623-.313-1.405-.313-2.346 0-.902.084-1.7.253-2.396.169-.7.415-1.288.736-1.765.322-.481.709-.846 1.163-1.094a3.184 3.184 0 0 1 1.547-.373c.57 0 1.077.114 1.521.343a2.9 2.9 0 0 1 1.094.945 3.3 3.3 0 0 1 .546 1.397h-1.213a2.243 2.243 0 0 0-.656-1.139c-.325-.301-.756-.452-1.292-.452-.789 0-1.411.343-1.865 1.029-.451.686-.678 1.649-.681 2.888h.08a3 3 0 0 1 1.516-1.188c.312-.109.641-.164.989-.164.584 0 1.117.146 1.601.438.484.288.872.687 1.164 1.198.291.507.437 1.088.437 1.745 0 .629-.141 1.206-.423 1.73a3.21 3.21 0 0 1-1.188 1.243c-.507.305-1.103.454-1.79.447Zm0-1.094c.418 0 .793-.104 1.124-.313.335-.209.598-.489.791-.84.195-.351.293-.742.293-1.173 0-.421-.095-.804-.284-1.149a2.16 2.16 0 0 0-.77-.83 2.043 2.043 0 0 0-1.114-.308c-.315 0-.608.063-.88.189-.272.122-.51.291-.716.507a2.44 2.44 0 0 0-.477.741 2.216 2.216 0 0 0-.174.87 2.343 2.343 0 0 0 1.069 1.983c.335.216.714.323 1.138.323Z"/></g><g filter="url(#empathize-overview2__e)"><circle cx="823" cy="155" r="80" fill="#F1F1F1"/><circle cx="833.967" cy="149.194" r="12.258" fill="#fff"/><path fill="#fff" d="M811.729 175.531c2.336-12.889 16.044-15.369 23.211-15.369 7.643 0 20.41 2.48 22.58 15.366.367 2.179-1.473 3.988-3.682 3.988h-38.451c-2.209 0-4.052-1.811-3.658-3.985Z"/><circle cx="830.096" cy="153.065" r="11.258" fill="#fff" stroke="#191919" stroke-width="2"/><path fill="#fff" stroke="#191919" stroke-width="2" d="M808.842 179.58c1.098-6.059 4.846-9.669 9.245-11.796 4.433-2.143 9.488-2.752 12.982-2.752 3.737 0 8.666.61 12.892 2.744 4.183 2.112 7.678 5.71 8.702 11.789.244 1.451-.98 2.822-2.696 2.822h-38.451c-1.721 0-2.934-1.373-2.674-2.807Zm4.756-55.838h-27.889a3 3 0 0 0-3 3v15.718a3 3 0 0 0 3 3h20.027a5 5 0 0 1 3.46 1.39l5.71 5.474c.635.609 1.692.159 1.692-.722v-24.86a3 3 0 0 0-3-3Z"/><circle cx="793.008" cy="135.6" r="1.935" fill="#191919"/><circle cx="800.029" cy="135.6" r="1.935" fill="#191919"/><circle cx="807.051" cy="135.6" r="1.935" fill="#191919"/></g><g filter="url(#empathize-overview2__f)"><path fill="#191919" d="M814.45 209.406V214h-1.173v-7.636h1.133v1.193h.1c.179-.388.45-.7.815-.935.364-.238.835-.358 1.412-.358.517 0 .969.106 1.357.318.388.209.689.527.905.955.215.424.323.961.323 1.611V214h-1.173v-4.773c0-.6-.156-1.067-.468-1.402-.311-.338-.739-.507-1.282-.507-.375 0-.71.081-1.005.244a1.742 1.742 0 0 0-.691.711c-.169.311-.253.689-.253 1.133Zm7.843-.318v-1.074h6.125v1.074h-6.125Zm0 2.943v-1.074h6.125v1.074h-6.125Zm9.082 1.969v-.895l3.36-3.679c.395-.431.72-.805.975-1.123.255-.322.444-.624.567-.905.126-.285.189-.584.189-.895 0-.358-.087-.668-.259-.93a1.67 1.67 0 0 0-.696-.606 2.248 2.248 0 0 0-.994-.214c-.391 0-.733.081-1.024.243-.289.16-.512.383-.672.672a2.109 2.109 0 0 0-.233 1.014h-1.174c0-.597.138-1.12.413-1.571.275-.451.65-.802 1.124-1.054a3.382 3.382 0 0 1 1.605-.378c.597 0 1.126.126 1.586.378.461.252.822.591 1.084 1.019.262.428.393.903.393 1.427 0 .374-.068.741-.204 1.099-.132.354-.364.75-.696 1.188-.328.434-.784.964-1.367 1.591l-2.287 2.446v.079h4.733V214h-6.423Z"/></g><g filter="url(#empathize-overview2__g)"><circle cx="582" cy="155" r="80" fill="#F1F1F1"/><rect width="59.355" height="41.29" x="547.162" y="130.484" fill="#fff" rx="4"/><circle cx="561.999" cy="159.516" r="3.226" fill="#191919"/><circle cx="573.613" cy="159.516" r="3.226" fill="#191919"/><circle cx="583.935" cy="158.226" r="1.935" fill="#191919"/><path stroke="#191919" stroke-width="2" d="M546 139.226h51.355a3 3 0 0 1 3 3v31.225a3 3 0 0 1-3 3h-36.789a5.003 5.003 0 0 0-3.46 1.391l-12.414 11.901c-.636.61-1.692.159-1.692-.722v-46.795a3 3 0 0 1 3-3Z"/><path fill="#fff" stroke="#191919" stroke-width="2" d="M627.033 123.742h-51.355a3 3 0 0 0-3 3v31.226c0 1.656 1.344 3 3 3h36.789a5 5 0 0 1 3.46 1.39l12.414 11.901c.636.61 1.692.159 1.692-.721v-46.796a3 3 0 0 0-3-3Z"/><circle cx="590.388" cy="144.032" r="3.226" fill="#191919"/><circle cx="602.001" cy="144.032" r="3.226" fill="#191919"/><circle cx="613.613" cy="144.032" r="3.226" fill="#191919"/></g><g filter="url(#empathize-overview2__h)"><path fill="#191919" d="M574.32 209.406V214h-1.173v-7.636h1.133v1.193h.1c.179-.388.45-.7.815-.935.365-.238.835-.358 1.412-.358.517 0 .969.106 1.357.318.388.209.69.527.905.955.215.424.323.961.323 1.611V214h-1.173v-4.773c0-.6-.156-1.067-.467-1.402-.312-.338-.74-.507-1.283-.507-.375 0-.709.081-1.004.244a1.736 1.736 0 0 0-.691.711c-.169.311-.254.689-.254 1.133Zm7.843-.318v-1.074h6.125v1.074h-6.125Zm0 2.943v-1.074h6.125v1.074h-6.125Zm12.323-8.352c.418.003.836.083 1.253.239.418.155.799.414 1.144.775.344.358.621.847.83 1.467.209.62.313 1.397.313 2.331 0 .905-.086 1.709-.258 2.412-.17.699-.415 1.289-.736 1.77-.318.48-.706.845-1.164 1.093a3.15 3.15 0 0 1-1.541.373c-.57 0-1.079-.112-1.526-.338a3.002 3.002 0 0 1-1.094-.949 3.31 3.31 0 0 1-.542-1.417h1.213c.11.467.327.853.652 1.158.328.302.76.452 1.297.452.786 0 1.405-.343 1.86-1.029.457-.686.686-1.655.686-2.908h-.08a3.139 3.139 0 0 1-.661.721 2.91 2.91 0 0 1-1.845.631 3.095 3.095 0 0 1-1.605-.432 3.288 3.288 0 0 1-1.164-1.198c-.288-.511-.432-1.094-.432-1.75 0-.624.139-1.194.417-1.711.282-.52.676-.934 1.184-1.243.51-.308 1.11-.457 1.799-.447Zm0 1.094c-.417 0-.794.104-1.128.313a2.252 2.252 0 0 0-.791.835 2.358 2.358 0 0 0-.288 1.159c0 .424.093.81.278 1.158.189.345.446.62.771.825a2.09 2.09 0 0 0 1.119.303 2.12 2.12 0 0 0 1.59-.696c.206-.218.367-.465.483-.74.116-.279.174-.569.174-.87a2.27 2.27 0 0 0-.289-1.119 2.282 2.282 0 0 0-.785-.845 2.03 2.03 0 0 0-1.134-.323Z"/></g><path fill="#191919" d="M292.594 33.242v1.036h-4.242v3.29h3.444v1.036h-3.444V43h-1.274v-9.758h5.516Zm6.313 9.856c-.906 0-1.732-.21-2.478-.63a4.773 4.773 0 0 1-1.778-1.778c-.43-.765-.644-1.624-.644-2.576s.214-1.806.644-2.562a4.642 4.642 0 0 1 1.778-1.778 4.88 4.88 0 0 1 2.478-.644c.914 0 1.745.215 2.492.644a4.586 4.586 0 0 1 1.764 1.764c.429.756.644 1.615.644 2.576 0 .961-.215 1.82-.644 2.576a4.687 4.687 0 0 1-1.764 1.778c-.747.42-1.578.63-2.492.63Zm0-1.106c.681 0 1.292-.159 1.834-.476.55-.317.98-.77 1.288-1.358.317-.588.476-1.27.476-2.044 0-.784-.159-1.465-.476-2.044a3.32 3.32 0 0 0-1.274-1.358c-.542-.317-1.158-.476-1.848-.476-.691 0-1.307.159-1.848.476-.542.317-.971.77-1.288 1.358-.308.579-.462 1.26-.462 2.044 0 .775.154 1.456.462 2.044a3.41 3.41 0 0 0 1.288 1.358 3.63 3.63 0 0 0 1.848.476Zm6.456-3.878c0-.952.214-1.806.644-2.562a4.673 4.673 0 0 1 1.75-1.792 4.88 4.88 0 0 1 2.478-.644c1.064 0 1.992.257 2.786.77.793.513 1.372 1.241 1.736 2.184h-1.526a3.053 3.053 0 0 0-1.176-1.358c-.504-.317-1.111-.476-1.82-.476-.682 0-1.293.159-1.834.476-.542.317-.966.77-1.274 1.358-.308.579-.462 1.26-.462 2.044 0 .775.154 1.456.462 2.044a3.334 3.334 0 0 0 1.274 1.344c.541.317 1.152.476 1.834.476.709 0 1.316-.154 1.82-.462.513-.317.905-.77 1.176-1.358h1.526c-.364.933-.943 1.657-1.736 2.17-.794.504-1.722.756-2.786.756-.906 0-1.732-.21-2.478-.63a4.7 4.7 0 0 1-1.75-1.778c-.43-.756-.644-1.61-.644-2.562Zm12.886-4.872v6.174c0 .868.21 1.512.63 1.932.429.42 1.022.63 1.778.63.747 0 1.33-.21 1.75-.63.429-.42.644-1.064.644-1.932v-6.174h1.274v6.16c0 .812-.163 1.498-.49 2.058a3.08 3.08 0 0 1-1.33 1.232c-.551.27-1.171.406-1.862.406-.691 0-1.316-.135-1.876-.406a3.097 3.097 0 0 1-1.316-1.232c-.317-.56-.476-1.246-.476-2.058v-6.16h1.274Zm11.645 9.856c-.644 0-1.222-.112-1.736-.336-.504-.233-.9-.55-1.19-.952a2.48 2.48 0 0 1-.448-1.414h1.358c.047.457.234.845.56 1.162.336.308.822.462 1.456.462.607 0 1.083-.15 1.428-.448.355-.308.532-.7.532-1.176 0-.373-.102-.677-.308-.91a1.965 1.965 0 0 0-.77-.532 12.013 12.013 0 0 0-1.246-.392c-.644-.168-1.162-.336-1.554-.504a2.585 2.585 0 0 1-.994-.784c-.27-.364-.406-.85-.406-1.456 0-.532.136-1.003.406-1.414a2.66 2.66 0 0 1 1.134-.952c.495-.224 1.06-.336 1.694-.336.915 0 1.662.229 2.24.686.588.457.92 1.064.994 1.82h-1.4c-.046-.373-.242-.7-.588-.98-.345-.29-.802-.434-1.372-.434-.532 0-.966.14-1.302.42-.336.27-.504.653-.504 1.148 0 .355.098.644.294.868.206.224.453.397.742.518.299.112.714.243 1.246.392.644.177 1.162.355 1.554.532a2.51 2.51 0 0 1 1.008.798c.28.355.42.84.42 1.456 0 .476-.126.924-.378 1.344-.252.42-.625.76-1.12 1.022-.494.261-1.078.392-1.75.392Zm16.947-7.028a2.982 2.982 0 0 0-1.176-1.316c-.513-.317-1.11-.476-1.792-.476-.681 0-1.297.159-1.848.476-.541.308-.97.756-1.288 1.344-.308.579-.462 1.25-.462 2.016 0 .765.154 1.437.462 2.016a3.442 3.442 0 0 0 1.288 1.344 3.722 3.722 0 0 0 1.848.462c.952 0 1.736-.285 2.352-.854.616-.57.976-1.34 1.078-2.31h-3.892v-1.036h5.25v.98a4.875 4.875 0 0 1-.756 2.212 4.75 4.75 0 0 1-1.694 1.582c-.7.383-1.479.574-2.338.574-.905 0-1.731-.21-2.478-.63a4.787 4.787 0 0 1-1.778-1.778c-.429-.756-.644-1.61-.644-2.562 0-.952.215-1.806.644-2.562a4.655 4.655 0 0 1 1.778-1.778 4.884 4.884 0 0 1 2.478-.644c1.036 0 1.951.257 2.744.77.803.513 1.386 1.237 1.75 2.17h-1.526Zm8.993 6.93-2.324-3.99h-1.54V43h-1.274v-9.758h3.15c.737 0 1.358.126 1.862.378.513.252.896.593 1.148 1.022.252.43.378.92.378 1.47 0 .672-.196 1.265-.588 1.778-.383.513-.961.854-1.736 1.022L357.36 43h-1.526Zm-3.864-5.012h1.876c.691 0 1.209-.168 1.554-.504.345-.345.518-.803.518-1.372 0-.579-.173-1.027-.518-1.344-.336-.317-.854-.476-1.554-.476h-1.876v3.696Zm12.018 5.11c-.906 0-1.732-.21-2.478-.63a4.773 4.773 0 0 1-1.778-1.778c-.43-.765-.644-1.624-.644-2.576s.214-1.806.644-2.562a4.642 4.642 0 0 1 1.778-1.778 4.88 4.88 0 0 1 2.478-.644c.914 0 1.745.215 2.492.644a4.586 4.586 0 0 1 1.764 1.764c.429.756.644 1.615.644 2.576 0 .961-.215 1.82-.644 2.576a4.687 4.687 0 0 1-1.764 1.778c-.747.42-1.578.63-2.492.63Zm0-1.106c.681 0 1.292-.159 1.834-.476.55-.317.98-.77 1.288-1.358.317-.588.476-1.27.476-2.044 0-.784-.159-1.465-.476-2.044a3.32 3.32 0 0 0-1.274-1.358c-.542-.317-1.158-.476-1.848-.476-.691 0-1.307.159-1.848.476-.542.317-.971.77-1.288 1.358-.308.579-.462 1.26-.462 2.044 0 .775.154 1.456.462 2.044a3.41 3.41 0 0 0 1.288 1.358 3.63 3.63 0 0 0 1.848.476Zm8.177-8.75v6.174c0 .868.21 1.512.63 1.932.43.42 1.022.63 1.778.63.747 0 1.33-.21 1.75-.63.43-.42.644-1.064.644-1.932v-6.174h1.274v6.16c0 .812-.163 1.498-.49 2.058a3.08 3.08 0 0 1-1.33 1.232c-.55.27-1.171.406-1.862.406-.69 0-1.316-.135-1.876-.406a3.102 3.102 0 0 1-1.316-1.232c-.317-.56-.476-1.246-.476-2.058v-6.16h1.274Zm15.076 2.856c0 .812-.28 1.489-.84 2.03-.551.532-1.396.798-2.534.798h-1.876V43h-1.274v-9.758h3.15c1.101 0 1.936.266 2.506.798.578.532.868 1.218.868 2.058Zm-3.374 1.778c.709 0 1.232-.154 1.568-.462.336-.308.504-.747.504-1.316 0-1.204-.691-1.806-2.072-1.806h-1.876v3.584h1.876Zm8.401 5.222c-.644 0-1.223-.112-1.736-.336-.504-.233-.901-.55-1.19-.952a2.472 2.472 0 0 1-.448-1.414h1.358c.047.457.233.845.56 1.162.336.308.821.462 1.456.462.607 0 1.083-.15 1.428-.448.355-.308.532-.7.532-1.176 0-.373-.103-.677-.308-.91a1.965 1.965 0 0 0-.77-.532 12.013 12.013 0 0 0-1.246-.392c-.644-.168-1.162-.336-1.554-.504a2.578 2.578 0 0 1-.994-.784c-.271-.364-.406-.85-.406-1.456 0-.532.135-1.003.406-1.414a2.66 2.66 0 0 1 1.134-.952c.495-.224 1.059-.336 1.694-.336.915 0 1.661.229 2.24.686.588.457.919 1.064.994 1.82h-1.4c-.047-.373-.243-.7-.588-.98-.345-.29-.803-.434-1.372-.434-.532 0-.966.14-1.302.42-.336.27-.504.653-.504 1.148 0 .355.098.644.294.868.205.224.453.397.742.518.299.112.714.243 1.246.392.644.177 1.162.355 1.554.532a2.51 2.51 0 0 1 1.008.798c.28.355.42.84.42 1.456 0 .476-.126.924-.378 1.344-.252.42-.625.76-1.12 1.022-.495.261-1.078.392-1.75.392Zm107.334-4.984c0-.952.215-1.806.644-2.562a4.68 4.68 0 0 1 1.75-1.792 4.884 4.884 0 0 1 2.478-.644c1.064 0 1.993.257 2.786.77.793.513 1.372 1.241 1.736 2.184h-1.526a3.053 3.053 0 0 0-1.176-1.358c-.504-.317-1.111-.476-1.82-.476-.681 0-1.293.159-1.834.476a3.32 3.32 0 0 0-1.274 1.358c-.308.579-.462 1.26-.462 2.044 0 .775.154 1.456.462 2.044a3.341 3.341 0 0 0 1.274 1.344c.541.317 1.153.476 1.834.476.709 0 1.316-.154 1.82-.462.513-.317.905-.77 1.176-1.358h1.526c-.364.933-.943 1.657-1.736 2.17-.793.504-1.722.756-2.786.756-.905 0-1.731-.21-2.478-.63a4.708 4.708 0 0 1-1.75-1.778c-.429-.756-.644-1.61-.644-2.562Zm12.886-4.872v6.174c0 .868.21 1.512.63 1.932.43.42 1.022.63 1.778.63.747 0 1.33-.21 1.75-.63.43-.42.644-1.064.644-1.932v-6.174h1.274v6.16c0 .812-.163 1.498-.49 2.058a3.08 3.08 0 0 1-1.33 1.232c-.55.27-1.171.406-1.862.406-.69 0-1.316-.135-1.876-.406a3.102 3.102 0 0 1-1.316-1.232c-.317-.56-.476-1.246-.476-2.058v-6.16h1.274Zm11.646 9.856c-.644 0-1.223-.112-1.736-.336-.504-.233-.901-.55-1.19-.952a2.465 2.465 0 0 1-.448-1.414h1.358c.046.457.233.845.56 1.162.336.308.821.462 1.456.462.606 0 1.082-.15 1.428-.448.354-.308.532-.7.532-1.176 0-.373-.103-.677-.308-.91a1.973 1.973 0 0 0-.77-.532 12.092 12.092 0 0 0-1.246-.392c-.644-.168-1.162-.336-1.554-.504a2.578 2.578 0 0 1-.994-.784c-.271-.364-.406-.85-.406-1.456 0-.532.135-1.003.406-1.414.27-.41.648-.728 1.134-.952.494-.224 1.059-.336 1.694-.336.914 0 1.661.229 2.24.686.588.457.919 1.064.994 1.82h-1.4c-.047-.373-.243-.7-.588-.98-.346-.29-.803-.434-1.372-.434-.532 0-.966.14-1.302.42-.336.27-.504.653-.504 1.148 0 .355.098.644.294.868.205.224.452.397.742.518.298.112.714.243 1.246.392.644.177 1.162.355 1.554.532a2.51 2.51 0 0 1 1.008.798c.28.355.42.84.42 1.456 0 .476-.126.924-.378 1.344-.252.42-.626.76-1.12 1.022-.495.261-1.078.392-1.75.392Zm11.479-9.856v1.036h-2.66V43h-1.274v-8.722h-2.674v-1.036h6.608Zm6.342 9.856c-.906 0-1.732-.21-2.478-.63a4.773 4.773 0 0 1-1.778-1.778c-.43-.765-.644-1.624-.644-2.576s.214-1.806.644-2.562a4.642 4.642 0 0 1 1.778-1.778 4.88 4.88 0 0 1 2.478-.644c.914 0 1.745.215 2.492.644a4.586 4.586 0 0 1 1.764 1.764c.429.756.644 1.615.644 2.576 0 .961-.215 1.82-.644 2.576a4.687 4.687 0 0 1-1.764 1.778c-.747.42-1.578.63-2.492.63Zm0-1.106c.681 0 1.292-.159 1.834-.476.55-.317.98-.77 1.288-1.358.317-.588.476-1.27.476-2.044 0-.784-.159-1.465-.476-2.044a3.32 3.32 0 0 0-1.274-1.358c-.542-.317-1.158-.476-1.848-.476-.691 0-1.307.159-1.848.476-.542.317-.971.77-1.288 1.358-.308.579-.462 1.26-.462 2.044 0 .775.154 1.456.462 2.044a3.41 3.41 0 0 0 1.288 1.358 3.63 3.63 0 0 0 1.848.476Zm16.83-8.68V43h-1.274v-7.224L554.291 43h-.896l-3.234-7.238V43h-1.274v-9.688h1.372l3.584 8.008 3.584-8.008h1.358Zm3.784.966v3.262h3.556v1.05h-3.556v3.36h3.976V43h-5.25v-9.772h5.25v1.05h-3.976ZM573.961 43l-2.324-3.99h-1.54V43h-1.274v-9.758h3.15c.737 0 1.358.126 1.862.378.513.252.896.593 1.148 1.022.252.43.378.92.378 1.47 0 .672-.196 1.265-.588 1.778-.383.513-.961.854-1.736 1.022l2.45 4.088h-1.526Zm-3.864-5.012h1.876c.691 0 1.209-.168 1.554-.504.345-.345.518-.803.518-1.372 0-.579-.173-1.027-.518-1.344-.336-.317-.854-.476-1.554-.476h-1.876v3.696Zm12.95-4.746V43h-1.274v-9.758h1.274ZM593.24 43h-1.274l-5.124-7.77V43h-1.274v-9.772h1.274l5.124 7.756v-7.756h1.274V43Zm8.528-9.758v1.036h-2.66V43h-1.274v-8.722h-2.674v-1.036h6.608Zm3.192 1.036v3.262h3.556v1.05h-3.556v3.36h3.976V43h-5.25v-9.772h5.25v1.05h-3.976ZM616.352 43l-2.324-3.99h-1.54V43h-1.274v-9.758h3.15c.737 0 1.358.126 1.862.378.513.252.896.593 1.148 1.022.252.43.378.92.378 1.47 0 .672-.196 1.265-.588 1.778-.383.513-.961.854-1.736 1.022l2.45 4.088h-1.526Zm-3.864-5.012h1.876c.691 0 1.209-.168 1.554-.504.345-.345.518-.803.518-1.372 0-.579-.173-1.027-.518-1.344-.336-.317-.854-.476-1.554-.476h-1.876v3.696Zm15.658-4.746L624.464 43h-1.47l-3.682-9.758h1.358l3.066 8.414 3.066-8.414h1.344Zm3.02 0V43h-1.274v-9.758h1.274Zm3.796 1.036v3.262h3.556v1.05h-3.556v3.36h3.976V43h-5.25v-9.772h5.25v1.05h-3.976Zm18.517-1.036L650.651 43h-1.428l-2.268-7.854L644.603 43l-1.414.014-2.73-9.772h1.358l2.128 8.274 2.352-8.274h1.428l2.24 8.246 2.142-8.246h1.372Zm4.839 9.856c-.644 0-1.223-.112-1.736-.336-.504-.233-.901-.55-1.19-.952a2.465 2.465 0 0 1-.448-1.414h1.358c.046.457.233.845.56 1.162.336.308.821.462 1.456.462.606 0 1.082-.15 1.428-.448.354-.308.532-.7.532-1.176 0-.373-.103-.677-.308-.91a1.973 1.973 0 0 0-.77-.532 12.092 12.092 0 0 0-1.246-.392c-.644-.168-1.162-.336-1.554-.504a2.578 2.578 0 0 1-.994-.784c-.271-.364-.406-.85-.406-1.456 0-.532.135-1.003.406-1.414.27-.41.648-.728 1.134-.952.494-.224 1.059-.336 1.694-.336.914 0 1.661.229 2.24.686.588.457.919 1.064.994 1.82h-1.4c-.047-.373-.243-.7-.588-.98-.346-.29-.803-.434-1.372-.434-.532 0-.966.14-1.302.42-.336.27-.504.653-.504 1.148 0 .355.098.644.294.868.205.224.452.397.742.518.298.112.714.243 1.246.392.644.177 1.162.355 1.554.532a2.51 2.51 0 0 1 1.008.798c.28.355.42.84.42 1.456 0 .476-.126.924-.378 1.344-.252.42-.626.76-1.12 1.022-.495.261-1.078.392-1.75.392Zm99.034-8.82v3.262h3.556v1.05h-3.556v3.36h3.976V43h-5.25v-9.772h5.25v1.05h-3.976Zm10.244 3.85L770.592 43h-1.442l-2.338-3.808L764.586 43h-1.414l2.982-4.872-2.996-4.886h1.428l2.352 3.822 2.24-3.822h1.428l-3.01 4.886Zm11.579-2.03c0 .812-.28 1.489-.84 2.03-.551.532-1.395.798-2.534.798h-1.876V43h-1.274v-9.758h3.15c1.101 0 1.937.266 2.506.798.579.532.868 1.218.868 2.058Zm-3.374 1.778c.709 0 1.232-.154 1.568-.462.336-.308.504-.747.504-1.316 0-1.204-.691-1.806-2.072-1.806h-1.876v3.584h1.876Zm6.581-3.598v3.262h3.556v1.05h-3.556v3.36h3.976V43h-5.25v-9.772h5.25v1.05h-3.976ZM793.774 43l-2.324-3.99h-1.54V43h-1.274v-9.758h3.15c.738 0 1.358.126 1.862.378.514.252.896.593 1.148 1.022.252.43.378.92.378 1.47 0 .672-.196 1.265-.588 1.778-.382.513-.961.854-1.736 1.022L795.3 43h-1.526Zm-3.864-5.012h1.876c.691 0 1.209-.168 1.554-.504.346-.345.518-.803.518-1.372 0-.579-.172-1.027-.518-1.344-.336-.317-.854-.476-1.554-.476h-1.876v3.696Zm13.6-4.746v1.036h-2.66V43h-1.274v-8.722h-2.674v-1.036h6.608Zm7.274 0V43h-1.274v-9.758h1.274ZM820.978 43h-1.274l-5.124-7.77V43h-1.274v-9.772h1.274l5.124 7.756v-7.756h1.274V43Zm8.527-9.758v1.036h-2.66V43h-1.274v-8.722h-2.674v-1.036h6.608Zm3.193 1.036v3.262h3.556v1.05h-3.556v3.36h3.976V43h-5.25v-9.772h5.25v1.05h-3.976ZM844.089 43l-2.324-3.99h-1.54V43h-1.274v-9.758h3.15c.738 0 1.358.126 1.862.378.514.252.896.593 1.148 1.022.252.43.378.92.378 1.47 0 .672-.196 1.265-.588 1.778-.382.513-.961.854-1.736 1.022l2.45 4.088h-1.526Zm-3.864-5.012h1.876c.691 0 1.209-.168 1.554-.504.346-.345.518-.803.518-1.372 0-.579-.172-1.027-.518-1.344-.336-.317-.854-.476-1.554-.476h-1.876v3.696Zm15.658-4.746L852.201 43h-1.47l-3.682-9.758h1.358l3.066 8.414 3.066-8.414h1.344Zm3.021 0V43h-1.274v-9.758h1.274Zm3.795 1.036v3.262h3.556v1.05h-3.556v3.36h3.976V43h-5.25v-9.772h5.25v1.05h-3.976Zm18.518-1.036L878.389 43h-1.428l-2.268-7.854L872.341 43l-1.414.014-2.73-9.772h1.358l2.128 8.274 2.352-8.274h1.428l2.24 8.246 2.142-8.246h1.372Zm4.838 9.856c-.644 0-1.222-.112-1.736-.336-.504-.233-.9-.55-1.19-.952a2.48 2.48 0 0 1-.448-1.414h1.358c.047.457.234.845.56 1.162.336.308.822.462 1.456.462.607 0 1.083-.15 1.428-.448.355-.308.532-.7.532-1.176 0-.373-.102-.677-.308-.91a1.965 1.965 0 0 0-.77-.532 12.013 12.013 0 0 0-1.246-.392c-.644-.168-1.162-.336-1.554-.504a2.585 2.585 0 0 1-.994-.784c-.27-.364-.406-.85-.406-1.456 0-.532.136-1.003.406-1.414a2.66 2.66 0 0 1 1.134-.952c.495-.224 1.06-.336 1.694-.336.915 0 1.662.229 2.24.686.588.457.92 1.064.994 1.82h-1.4c-.046-.373-.242-.7-.588-.98-.345-.29-.802-.434-1.372-.434-.532 0-.966.14-1.302.42-.336.27-.504.653-.504 1.148 0 .355.098.644.294.868.206.224.453.397.742.518.299.112.714.243 1.246.392.644.177 1.162.355 1.554.532a2.51 2.51 0 0 1 1.008.798c.28.355.42.84.42 1.456 0 .476-.126.924-.378 1.344-.252.42-.625.76-1.12 1.022-.494.261-1.078.392-1.75.392Z"/><defs><filter id="empathize-overview2__a" width="184" height="184" x="8" y="67" color-interpolation-filters="sRGB" filterUnits="userSpaceOnUse"><feFlood flood-opacity="0" result="BackgroundImageFix"/><feColorMatrix in="SourceAlpha" result="hardAlpha" values="0 0 0 0 0 0 0 0 0 0 0 0 0 0 0 0 0 0 127 0"/><feOffset dy="4"/><feGaussianBlur stdDeviation="6"/><feComposite in2="hardAlpha" operator="out"/><feColorMatrix values="0 0 0 0 1 0 0 0 0 1 0 0 0 0 1 0 0 0 0.25 0"/><feBlend in2="BackgroundImageFix" result="effect1_dropShadow_481_7345"/><feBlend in="SourceGraphic" in2="effect1_dropShadow_481_7345" result="shape"/></filter><filter id="empathize-overview2__b" width="57.508" height="34.321" x="68.074" y="195.818" color-interpolation-filters="sRGB" filterUnits="userSpaceOnUse"><feFlood flood-opacity="0" result="BackgroundImageFix"/><feColorMatrix in="SourceAlpha" result="hardAlpha" values="0 0 0 0 0 0 0 0 0 0 0 0 0 0 0 0 0 0 127 0"/><feOffset dy="4"/><feGaussianBlur stdDeviation="6"/><feComposite in2="hardAlpha" operator="out"/><feColorMatrix values="0 0 0 0 1 0 0 0 0 1 0 0 0 0 1 0 0 0 0.25 0"/><feBlend in2="BackgroundImageFix" result="effect1_dropShadow_481_7345"/><feBlend in="SourceGraphic" in2="effect1_dropShadow_481_7345" result="shape"/></filter><filter id="empathize-overview2__c" width="184" height="184" x="249" y="67" color-interpolation-filters="sRGB" filterUnits="userSpaceOnUse"><feFlood flood-opacity="0" result="BackgroundImageFix"/><feColorMatrix in="SourceAlpha" result="hardAlpha" values="0 0 0 0 0 0 0 0 0 0 0 0 0 0 0 0 0 0 127 0"/><feOffset dy="4"/><feGaussianBlur stdDeviation="6"/><feComposite in2="hardAlpha" operator="out"/><feColorMatrix values="0 0 0 0 1 0 0 0 0 1 0 0 0 0 1 0 0 0 0.25 0"/><feBlend in2="BackgroundImageFix" result="effect1_dropShadow_481_7345"/><feBlend in="SourceGraphic" in2="effect1_dropShadow_481_7345" result="shape"/></filter><filter id="empathize-overview2__d" width="55.736" height="34.47" x="310.074" y="195.679" color-interpolation-filters="sRGB" filterUnits="userSpaceOnUse"><feFlood flood-opacity="0" result="BackgroundImageFix"/><feColorMatrix in="SourceAlpha" result="hardAlpha" values="0 0 0 0 0 0 0 0 0 0 0 0 0 0 0 0 0 0 127 0"/><feOffset dy="4"/><feGaussianBlur stdDeviation="6"/><feComposite in2="hardAlpha" operator="out"/><feColorMatrix values="0 0 0 0 1 0 0 0 0 1 0 0 0 0 1 0 0 0 0.25 0"/><feBlend in2="BackgroundImageFix" result="effect1_dropShadow_481_7345"/><feBlend in="SourceGraphic" in2="effect1_dropShadow_481_7345" result="shape"/></filter><filter id="empathize-overview2__e" width="184" height="184" x="731" y="67" color-interpolation-filters="sRGB" filterUnits="userSpaceOnUse"><feFlood flood-opacity="0" result="BackgroundImageFix"/><feColorMatrix in="SourceAlpha" result="hardAlpha" values="0 0 0 0 0 0 0 0 0 0 0 0 0 0 0 0 0 0 127 0"/><feOffset dy="4"/><feGaussianBlur stdDeviation="6"/><feComposite in2="hardAlpha" operator="out"/><feColorMatrix values="0 0 0 0 1 0 0 0 0 1 0 0 0 0 1 0 0 0 0.25 0"/><feBlend in2="BackgroundImageFix" result="effect1_dropShadow_481_7345"/><feBlend in="SourceGraphic" in2="effect1_dropShadow_481_7345" result="shape"/></filter><filter id="empathize-overview2__f" width="48.522" height="34.321" x="801.277" y="195.679" color-interpolation-filters="sRGB" filterUnits="userSpaceOnUse"><feFlood flood-opacity="0" result="BackgroundImageFix"/><feColorMatrix in="SourceAlpha" result="hardAlpha" values="0 0 0 0 0 0 0 0 0 0 0 0 0 0 0 0 0 0 127 0"/><feOffset dy="4"/><feGaussianBlur stdDeviation="6"/><feComposite in2="hardAlpha" operator="out"/><feColorMatrix values="0 0 0 0 1 0 0 0 0 1 0 0 0 0 1 0 0 0 0.25 0"/><feBlend in2="BackgroundImageFix" result="effect1_dropShadow_481_7345"/><feBlend in="SourceGraphic" in2="effect1_dropShadow_481_7345" result="shape"/></filter><filter id="empathize-overview2__g" width="184" height="184" x="490" y="67" color-interpolation-filters="sRGB" filterUnits="userSpaceOnUse"><feFlood flood-opacity="0" result="BackgroundImageFix"/><feColorMatrix in="SourceAlpha" result="hardAlpha" values="0 0 0 0 0 0 0 0 0 0 0 0 0 0 0 0 0 0 127 0"/><feOffset dy="4"/><feGaussianBlur stdDeviation="6"/><feComposite in2="hardAlpha" operator="out"/><feColorMatrix values="0 0 0 0 1 0 0 0 0 1 0 0 0 0 1 0 0 0 0.25 0"/><feBlend in2="BackgroundImageFix" result="effect1_dropShadow_481_7345"/><feBlend in="SourceGraphic" in2="effect1_dropShadow_481_7345" result="shape"/></filter><filter id="empathize-overview2__h" width="48.879" height="34.475" x="561.146" y="195.664" color-interpolation-filters="sRGB" filterUnits="userSpaceOnUse"><feFlood flood-opacity="0" result="BackgroundImageFix"/><feColorMatrix in="SourceAlpha" result="hardAlpha" values="0 0 0 0 0 0 0 0 0 0 0 0 0 0 0 0 0 0 127 0"/><feOffset dy="4"/><feGaussianBlur stdDeviation="6"/><feComposite in2="hardAlpha" operator="out"/><feColorMatrix values="0 0 0 0 1 0 0 0 0 1 0 0 0 0 1 0 0 0 0.25 0"/><feBlend in2="BackgroundImageFix" result="effect1_dropShadow_481_7345"/><feBlend in="SourceGraphic" in2="effect1_dropShadow_481_7345" result="shape"/></filter></defs></svg>