<svg xmlns="http://www.w3.org/2000/svg" width="812" height="295" fill="none"><path fill="#fff" d="M0 0h812v295H0z"/><ellipse cx="233" cy="110.5" fill="#E0F2FF" rx="58" ry="58.5"/><path stroke="#5795C1" stroke-width="2" d="M213 124.217V93a4 4 0 0 1 4-4h32a4 4 0 0 1 4 4v32"/><circle cx="554.5" cy="110.5" r="58.5" fill="#E0F2FF"/><rect width="25" height="13" x="220" y="82" fill="#fff" stroke="#5795C1" stroke-width="2" rx="4"/><rect width="25" height="13" x="240" y="104" fill="#fff" stroke="#5795C1" stroke-width="2" rx="4"/><rect width="38" height="62" x="536" y="80" fill="#fff" stroke="#5795C1" stroke-width="2" rx="4"/><rect width="38" height="13" x="549" y="91" fill="#fff" stroke="#5795C1" stroke-width="2" rx="4"/><rect width="38" height="6" x="516" y="107" fill="#fff" stroke="#5795C1" stroke-width="2" rx="3"/><rect width="38" height="5" x="516" y="117" fill="#fff" stroke="#5795C1" stroke-width="2" rx="2.5"/><rect width="38" height="5" x="516" y="127" fill="#fff" stroke="#5795C1" stroke-width="2" rx="2.5"/><rect width="26" height="13" x="240" y="126" fill="#fff" stroke="#5795C1" stroke-width="2" rx="4"/><rect width="26" height="12" x="200" y="125" fill="#fff" stroke="#5795C1" stroke-width="2" rx="4"/><rect width="26" height="13" x="200" y="104" fill="#fff" stroke="#5795C1" stroke-width="2" rx="4"/><path fill="#fff" stroke="#5795C1" stroke-width="2" d="M587 123.5c0 6.315-5.335 11.5-12 11.5s-12-5.185-12-11.5 5.335-11.5 12-11.5 12 5.185 12 11.5Z"/><circle cx="538" cy="97" r="6" fill="#fff" stroke="#5795C1" stroke-width="2"/><path fill="#5795C1" d="M210.694 198.758v6.284c-.004.872-.279 1.585-.825 2.139-.542.555-1.278.866-2.209.933l-.324.013c-1.011 0-1.817-.273-2.418-.819-.601-.546-.906-1.297-.914-2.253v-6.297h1.206v6.259c0 .668.184 1.189.552 1.561.368.368.893.552 1.574.552.69 0 1.217-.184 1.581-.552.368-.368.552-.886.552-1.555v-6.265h1.225ZM220.11 208h-1.225l-4.652-7.122V208h-1.226v-9.242h1.226l4.665 7.154v-7.154h1.212V208Zm9.353-2.933c-.114.978-.476 1.733-1.085 2.266-.605.529-1.411.794-2.419.794-1.091 0-1.967-.391-2.627-1.174-.656-.783-.984-1.831-.984-3.142v-.889c0-.859.152-1.615.457-2.266.309-.652.744-1.151 1.307-1.498.563-.352 1.215-.527 1.955-.527.982 0 1.769.275 2.362.825.592.546.937 1.303 1.034 2.273h-1.225c-.106-.737-.336-1.27-.692-1.6-.351-.33-.844-.495-1.479-.495-.778 0-1.39.288-1.834.863-.44.576-.66 1.394-.66 2.457v.895c0 1.003.209 1.8.628 2.393.419.592 1.005.888 1.758.888.678 0 1.196-.152 1.556-.457.364-.309.605-.844.723-1.606h1.225Zm3.285 1.936h4.38V208h-5.605v-9.242h1.225v8.245Zm11.384-3.275h-4.005v3.275h4.652V208h-5.871v-9.242h5.808v1.003h-4.589v2.97h4.005v.997Zm7.658 1.86h-3.872l-.87 2.412h-1.256l3.529-9.242h1.066l3.536 9.242h-1.251l-.882-2.412Zm-3.504-1.003h3.142l-1.574-4.323-1.568 4.323Zm10.661-.324h-2.171V208h-1.225v-9.242h3.059c1.041 0 1.841.237 2.4.711.562.474.844 1.163.844 2.069 0 .576-.157 1.077-.47 1.504-.309.428-.74.747-1.295.959l2.171 3.923V208h-1.307l-2.006-3.739Zm-2.171-.996h1.872c.605 0 1.086-.157 1.441-.47.36-.313.54-.732.54-1.257 0-.571-.172-1.009-.514-1.314-.339-.305-.83-.459-1.473-.463h-1.866v3.504ZM204.583 225h-1.225v-4.272h-4.659V225h-1.219v-9.242h1.219v3.973h4.659v-3.973h1.225V225Zm3.862 0h-1.219v-9.242h1.219V225Zm7.849-4.272h-4.006v3.275h4.653V225h-5.871v-9.242h5.808v1.003h-4.59v2.97h4.006v.997Zm5.944.533h-2.171V225h-1.225v-9.242h3.06c1.041 0 1.84.237 2.399.711.563.474.844 1.163.844 2.069 0 .576-.156 1.077-.47 1.504-.308.428-.74.747-1.294.959l2.17 3.923V225h-1.307l-2.006-3.739Zm-2.171-.996h1.873c.605 0 1.085-.157 1.441-.47.359-.313.539-.732.539-1.257 0-.571-.171-1.009-.514-1.314-.339-.305-.83-.459-1.473-.463h-1.866v3.504Zm12.286 2.323h-3.873l-.869 2.412h-1.257l3.529-9.242h1.067l3.535 9.242h-1.25l-.882-2.412Zm-3.504-1.003h3.142l-1.574-4.323-1.568 4.323Zm10.66-.324h-2.171V225h-1.225v-9.242h3.06c1.041 0 1.841.237 2.399.711.563.474.844 1.163.844 2.069 0 .576-.156 1.077-.469 1.504-.309.428-.741.747-1.295.959l2.171 3.923V225h-1.308l-2.006-3.739Zm-2.171-.996h1.873c.605 0 1.085-.157 1.441-.47.359-.313.539-.732.539-1.257 0-.571-.171-1.009-.514-1.314-.338-.305-.829-.459-1.473-.463h-1.866v3.504Zm13.981 1.802c-.115.978-.477 1.733-1.086 2.266-.605.529-1.411.794-2.418.794-1.092 0-1.968-.391-2.628-1.174-.656-.783-.984-1.831-.984-3.142v-.889c0-.859.152-1.615.457-2.266.309-.652.745-1.151 1.307-1.498.563-.352 1.215-.527 1.956-.527.981 0 1.768.275 2.361.825.592.546.937 1.303 1.035 2.273h-1.226c-.105-.737-.336-1.27-.691-1.6-.352-.33-.845-.495-1.479-.495-.779 0-1.391.288-1.835.863-.44.576-.66 1.394-.66 2.457v.895c0 1.003.209 1.8.628 2.393.419.592 1.005.888 1.759.888.677 0 1.195-.152 1.555-.457.364-.309.605-.844.723-1.606h1.226Zm9.162 2.933h-1.225v-4.272h-4.659V225h-1.219v-9.242h1.219v3.973h4.659v-3.973h1.225V225Zm5.195-4.602 2.412-4.64h1.384l-3.186 5.795V225h-1.219v-3.447l-3.187-5.795h1.397l2.399 4.64Zm262.898-13.395h4.38V208h-5.605v-9.242h1.225v8.245Zm11.391-1.415h-3.872l-.87 2.412h-1.257l3.53-9.242h1.066l3.536 9.242h-1.251l-.882-2.412Zm-3.504-1.003h3.142l-1.574-4.323-1.568 4.323Zm13.993.482c-.114.978-.476 1.733-1.085 2.266-.606.529-1.412.794-2.419.794-1.092 0-1.968-.391-2.628-1.174-.656-.783-.984-1.831-.984-3.142v-.889c0-.859.153-1.615.457-2.266.309-.652.745-1.151 1.308-1.498.563-.352 1.215-.527 1.955-.527.982 0 1.769.275 2.361.825.593.546.938 1.303 1.035 2.273h-1.225c-.106-.737-.336-1.27-.692-1.6-.351-.33-.844-.495-1.479-.495-.779 0-1.39.288-1.834.863-.441.576-.661 1.394-.661 2.457v.895c0 1.003.21 1.8.629 2.393.419.592 1.005.888 1.758.888.677 0 1.196-.152 1.555-.457.364-.309.605-.844.724-1.606h1.225Zm4.408-1.364-1.13 1.174V208h-1.219v-9.242h1.219v4.57l4.107-4.57h1.473l-3.637 4.081 3.922 5.161h-1.459l-3.276-4.297Zm16.916-.026c0 .906-.152 1.697-.457 2.374-.305.673-.736 1.187-1.295 1.543-.559.355-1.21.533-1.955.533-.728 0-1.373-.178-1.936-.533-.563-.36-1.001-.87-1.314-1.53-.309-.664-.468-1.432-.476-2.304v-.667c0-.888.154-1.673.463-2.355.309-.681.745-1.202 1.308-1.561.567-.364 1.214-.546 1.942-.546.741 0 1.392.18 1.955.539.567.356 1.003.874 1.308 1.556.305.677.457 1.466.457 2.367v.584Zm-1.213-.596c0-1.096-.22-1.936-.66-2.52-.44-.589-1.056-.883-1.847-.883-.77 0-1.377.294-1.822.883-.44.584-.666 1.396-.679 2.437v.679c0 1.062.222 1.898.667 2.508.448.605 1.064.907 1.847.907.787 0 1.396-.285 1.828-.857.432-.575.654-1.398.666-2.469v-.685Zm8.528.837h-3.878V208h-1.219v-9.242h5.726v1.003h-4.507v3.161h3.878v.996Zm-71.309 19.463 2.64-7.623h1.333L508.33 225h-1.079l-3.422-9.242h1.327l2.628 7.623Zm6.915 1.619h-1.219v-9.242h1.219V225Zm5.348-4.12c-1.045-.3-1.807-.668-2.285-1.104a2.13 2.13 0 0 1-.711-1.625c0-.728.29-1.329.869-1.803.584-.478 1.342-.717 2.273-.717.635 0 1.199.123 1.695.368.499.245.884.584 1.155 1.016.275.431.412.903.412 1.415h-1.225c0-.558-.177-.996-.533-1.314-.355-.321-.857-.482-1.504-.482-.601 0-1.071.133-1.409.4-.335.262-.502.628-.502 1.098 0 .376.159.696.476.958.322.258.866.495 1.632.711.77.216 1.371.455 1.802.718.436.258.758.56.965.907.212.347.317.756.317 1.225 0 .749-.292 1.35-.875 1.803-.584.449-1.365.673-2.343.673a4.378 4.378 0 0 1-1.777-.362c-.55-.245-.976-.58-1.276-1.003a2.452 2.452 0 0 1-.444-1.441h1.225c0 .559.205 1.001.615 1.327.415.322.967.482 1.657.482.643 0 1.136-.131 1.479-.393.343-.263.514-.62.514-1.073 0-.453-.158-.802-.476-1.047-.317-.25-.893-.495-1.726-.737Zm11.892-5.122v6.284c-.005.872-.28 1.585-.825 2.139-.542.555-1.278.866-2.209.933l-.324.013c-1.012 0-1.818-.273-2.419-.819-.601-.546-.905-1.297-.914-2.253v-6.297h1.206v6.259c0 .668.184 1.189.553 1.561.368.368.892.552 1.574.552.69 0 1.216-.184 1.58-.552.369-.368.553-.886.553-1.555v-6.265h1.225Zm7.277 6.83h-3.872l-.87 2.412h-1.257l3.53-9.242h1.066l3.536 9.242h-1.251l-.882-2.412Zm-3.504-1.003h3.142l-1.574-4.323-1.568 4.323Zm8.496 2.418h4.38V225h-5.605v-9.242h1.225v8.245Zm16.573-1.936c-.114.978-.476 1.733-1.086 2.266-.605.529-1.411.794-2.418.794-1.092 0-1.968-.391-2.628-1.174-.656-.783-.984-1.831-.984-3.142v-.889c0-.859.153-1.615.457-2.266.309-.652.745-1.151 1.308-1.498.563-.352 1.214-.527 1.955-.527.982 0 1.769.275 2.361.825.593.546.938 1.303 1.035 2.273h-1.225c-.106-.737-.337-1.27-.692-1.6-.351-.33-.844-.495-1.479-.495-.779 0-1.39.288-1.835.863-.44.576-.66 1.394-.66 2.457v.895c0 1.003.21 1.8.629 2.393.419.592 1.005.888 1.758.888.677 0 1.195-.152 1.555-.457.364-.309.605-.844.724-1.606h1.225Zm3.284 1.936h4.38V225h-5.605v-9.242h1.225v8.245Zm11.391-1.415h-3.872l-.87 2.412h-1.257l3.53-9.242h1.066l3.536 9.242h-1.251l-.882-2.412Zm-3.504-1.003h3.142l-1.574-4.323-1.568 4.323Zm10.661-.324h-2.171V225h-1.225v-9.242h3.059c1.041 0 1.841.237 2.4.711.562.474.844 1.163.844 2.069 0 .576-.157 1.077-.47 1.504-.309.428-.741.747-1.295.959l2.171 3.923V225h-1.308l-2.005-3.739Zm-2.171-.996h1.872c.605 0 1.086-.157 1.441-.47.36-.313.54-.732.54-1.257 0-.571-.172-1.009-.514-1.314-.339-.305-.83-.459-1.473-.463h-1.866v3.504Zm8.489 4.735h-1.218v-9.242h1.218V225Zm8.82-8.239h-2.971V225h-1.212v-8.239h-2.965v-1.003h7.148v1.003Zm4.681 3.637 2.412-4.64h1.384l-3.187 5.795V225h-1.218v-3.447l-3.187-5.795h1.397l2.399 4.64Z"/></svg>