<svg xmlns="http://www.w3.org/2000/svg" width="1262" height="295" fill="none">
  <defs/>
  <path fill="#fff" d="M0 0h1262v295H0z"/>
  <g filter="url(#Slide_16:9_-_3__filter0_d)">
    <rect width="555" height="133" x="334" y="65" fill="#fff" rx="8"/>
  </g>
  <rect width="86" height="83" x="291" y="98" fill="#E0F2FF" rx="12"/>
  <rect width="448" height="4" x="400" y="120" fill="#E0F2FF" rx="2"/>
  <rect width="448" height="4" x="400" y="133" fill="#E0F2FF" rx="2"/>
  <rect width="448" height="4" x="400" y="146" fill="#E0F2FF" rx="2"/>
  <rect width="448" height="4" x="400" y="159" fill="#E0F2FF" rx="2"/>
  <rect width="448" height="4" x="400" y="172" fill="#E0F2FF" rx="2"/>
  <g filter="url(#Slide_16:9_-_3__filter1_d)">
    <rect width="276" height="99" x="664" y="132" fill="#fff" rx="8"/>
  </g>
  <rect width="102" height="4" x="689" y="163" fill="#ACCFE9" rx="2"/>
  <rect width="274" height="4" x="689" y="176" fill="#ACCFE9" rx="2"/>
  <rect width="274" height="4" x="689" y="189" fill="#ACCFE9" rx="2"/>
  <rect width="274" height="4" x="689" y="202" fill="#ACCFE9" rx="2"/>
  <path fill="#5795C1" d="M403.985 106V88.937h5.578c1.851 0 3.242.383 4.172 1.149.937.766 1.406 1.898 1.406 3.398 0 .797-.227 1.504-.68 2.122-.453.609-1.07 1.082-1.851 1.417.922.258 1.648.75 2.179 1.477.539.719.809 1.578.809 2.578 0 1.531-.496 2.734-1.488 3.61-.992.874-2.395 1.312-4.207 1.312h-5.918zm2.25-7.98v6.14h3.715c1.046 0 1.871-.269 2.472-.808.61-.547.914-1.297.914-2.25 0-2.055-1.117-3.083-3.351-3.083h-3.75zm0-1.805h3.398c.985 0 1.77-.246 2.356-.738.593-.493.89-1.16.89-2.004 0-.938-.273-1.617-.82-2.04-.547-.43-1.379-.644-2.496-.644h-3.328v5.426zm19.681 2.883h-4.008V106h-2.262V88.937h5.649c1.921 0 3.398.438 4.429 1.313 1.039.875 1.559 2.148 1.559 3.82 0 1.063-.289 1.989-.867 2.778-.571.789-1.368 1.379-2.391 1.77l4.008 7.241V106h-2.414l-3.703-6.902zm-4.008-1.84h3.457c1.117 0 2.004-.29 2.66-.867.664-.579.996-1.352.996-2.32 0-1.055-.316-1.864-.949-2.427-.625-.562-1.531-.847-2.719-.855h-3.445v6.469zm22.903.855h-7.394v6.047h8.59V106h-10.84V88.937h10.723v1.852h-8.473v5.484h7.394v1.84zm14.138 3.434h-7.148L450.195 106h-2.32l6.516-17.063h1.969L462.887 106h-2.309l-1.629-4.453zm-6.468-1.852h5.8l-2.906-7.98-2.894 7.98zm17.759-1.629l-2.086 2.168V106h-2.25V88.937h2.25v8.438l7.582-8.438h2.719l-6.715 7.536 7.242 9.527h-2.695l-6.047-7.934zM484.085 106h-2.25V88.937h2.25V106zm17.958 0h-2.262l-8.59-13.148V106h-2.261V88.937h2.261l8.614 13.208V88.938h2.238V106zm17.314-2.238c-.578.828-1.387 1.449-2.426 1.863-1.031.406-2.234.609-3.609.609-1.391 0-2.625-.324-3.704-.972-1.078-.657-1.914-1.586-2.507-2.789-.586-1.203-.887-2.598-.903-4.184v-1.488c0-2.57.598-4.563 1.793-5.977 1.203-1.414 2.891-2.12 5.063-2.12 1.781 0 3.215.456 4.301 1.37 1.085.907 1.75 2.195 1.992 3.867h-2.25c-.422-2.257-1.766-3.386-4.032-3.386-1.507 0-2.652.53-3.433 1.593-.774 1.055-1.164 2.586-1.172 4.594v1.395c0 1.914.438 3.437 1.313 4.57.875 1.125 2.058 1.688 3.55 1.688.844 0 1.582-.094 2.215-.282a3.419 3.419 0 001.57-.949v-3.832h-3.949v-1.828h6.188v6.258zM543.625 106h-2.262l-8.59-13.148V106h-2.261V88.937h2.261l8.614 13.208V88.938h2.238V106zm14.36-7.887h-7.394v6.047h8.59V106h-10.84V88.937h10.723v1.852h-8.473v5.484h7.394v1.84zm8.396 2.508l.328 2.25.481-2.027 3.375-11.906h1.898l3.293 11.906.469 2.062.363-2.297 2.649-11.671h2.261L577.362 106h-2.051l-3.516-12.434-.269-1.3-.27 1.3L567.612 106h-2.051l-4.125-17.063h2.25l2.695 11.684zm23.373-2.227c-1.93-.554-3.336-1.234-4.219-2.038-.875-.813-1.313-1.813-1.313-3 0-1.344.536-2.454 1.606-3.329 1.078-.883 2.476-1.324 4.195-1.324 1.172 0 2.215.227 3.129.68.922.453 1.633 1.078 2.133 1.875.508.797.762 1.668.762 2.613h-2.262c0-1.031-.328-1.84-.985-2.426-.656-.593-1.582-.89-2.777-.89-1.109 0-1.976.246-2.601.738-.618.484-.926 1.16-.926 2.027 0 .696.293 1.286.879 1.77.593.476 1.597.914 3.011 1.312 1.422.399 2.532.84 3.329 1.325.804.476 1.398 1.035 1.781 1.675.39.641.586 1.395.586 2.262 0 1.383-.539 2.492-1.617 3.328-1.079.828-2.52 1.242-4.325 1.242a8.069 8.069 0 01-3.281-.668c-1.016-.453-1.801-1.07-2.355-1.851-.547-.781-.821-1.668-.821-2.66h2.262c0 1.031.379 1.847 1.137 2.449.765.594 1.785.891 3.058.891 1.188 0 2.098-.243 2.731-.727s.949-1.145.949-1.98c0-.836-.293-1.481-.879-1.934-.586-.461-1.648-.914-3.187-1.36zm-276.566 29.825c0-.539.214-1.056.594-1.437.381-.38.898-.594 1.437-.594h28.437c.539 0 1.056.214 1.437.594.38.381.595.898.595 1.437a2.032 2.032 0 01-2.032 2.031h-28.437a2.032 2.032 0 01-2.031-2.031zm22.343 10.156a2.032 2.032 0 000 4.063h8.125c.539 0 1.056-.215 1.437-.595.38-.381.595-.898.595-1.437a2.032 2.032 0 00-2.032-2.031h-8.125zm-2.031 14.219a2.032 2.032 0 012.031-2.032h8.125c.539 0 1.056.215 1.437.595.38.381.595.898.595 1.437a2.032 2.032 0 01-2.032 2.031h-8.125a2.032 2.032 0 01-2.031-2.031zm-18.281-14.219a2.032 2.032 0 00-2.031 2.031v12.188a2.032 2.032 0 002.031 2.031h12.187a2.032 2.032 0 002.032-2.031v-12.188a2.032 2.032 0 00-2.032-2.031h-12.187zm2.031 12.187v-8.124h8.125v8.124h-8.125z"/>
  <path fill="#5795C1" d="M301 122.125a8.122 8.122 0 018.125-8.125h40.625a8.122 8.122 0 018.125 8.125v4.063a8.125 8.125 0 018.125 8.124v22.344a10.156 10.156 0 01-10.156 10.156h-44.688A10.157 10.157 0 01301 156.656v-34.531zm52.812 0a4.067 4.067 0 00-1.189-2.873 4.068 4.068 0 00-2.873-1.19h-40.625a4.068 4.068 0 00-2.873 1.19 4.068 4.068 0 00-1.19 2.873v34.531a6.098 6.098 0 006.094 6.094h44.688a6.094 6.094 0 006.094-6.094v-22.344a4.066 4.066 0 00-4.063-4.062v26.406a2.032 2.032 0 11-4.063 0v-34.531z"/>
  <circle cx="809" cy="75" r="39" fill="#E0F2FF"/>
  <circle cx="400" cy="222" r="39" fill="#5795C1"/>
  <path fill="#5795C1" d="M802.721 85h9.327a10.766 10.766 0 007.578-3.125 10.64 10.64 0 003.143-7.533v-1.577h2.308a6.943 6.943 0 004.895-2.016A6.86 6.86 0 00832 65.882a6.86 6.86 0 00-2.028-4.866A6.943 6.943 0 00825.077 59H792v15.342a10.638 10.638 0 003.144 7.533A10.765 10.765 0 00802.721 85zm20.048-22.941h2.308a3.86 3.86 0 012.72 1.12 3.813 3.813 0 010 5.407 3.86 3.86 0 01-2.72 1.12h-2.308v-7.647zm-27.692 0h24.615v12.283a7.584 7.584 0 01-2.241 5.37 7.676 7.676 0 01-5.403 2.23h-9.327a7.676 7.676 0 01-5.403-2.23 7.584 7.584 0 01-2.241-5.37V62.059zM786 90a1 1 0 011-1h44a1 1 0 010 2h-44a1 1 0 01-1-1z"/>
  <path fill="#fff" d="M399.5 198c-13.509 0-24.5 10.991-24.5 24.5s10.991 24.5 24.5 24.5 24.5-10.991 24.5-24.5-10.991-24.5-24.5-24.5zm-19.6 24.5c0-2.203.382-4.317 1.056-6.294l3.844 3.844 4.9 4.9v4.9l4.9 4.9 2.45 2.45v4.731c-9.651-1.213-17.15-9.455-17.15-19.431zm35.109 11.939c-1.6-1.289-4.026-2.139-5.709-2.139v-2.45a4.9 4.9 0 00-4.9-4.9h-9.8v-7.35a4.9 4.9 0 004.9-4.9v-2.45h2.45a4.9 4.9 0 004.9-4.9v-1.007c7.174 2.913 12.25 9.95 12.25 18.157a19.47 19.47 0 01-4.091 11.939z"/>
  <defs>
    <filter id="Slide_16:9_-_3__filter0_d" width="643" height="221" x="290" y="37" color-interpolation-filters="sRGB" filterUnits="userSpaceOnUse">
      <feFlood flood-opacity="0" result="BackgroundImageFix"/>
      <feColorMatrix in="SourceAlpha" result="hardAlpha" values="0 0 0 0 0 0 0 0 0 0 0 0 0 0 0 0 0 0 127 0"/>
      <feMorphology in="SourceAlpha" operator="dilate" radius="4" result="effect1_dropShadow"/>
      <feOffset dy="16"/>
      <feGaussianBlur stdDeviation="20"/>
      <feColorMatrix values="0 0 0 0 0.645718 0 0 0 0 0.645718 0 0 0 0 0.645718 0 0 0 0.2 0"/>
      <feBlend in2="BackgroundImageFix" result="effect1_dropShadow"/>
      <feBlend in="SourceGraphic" in2="effect1_dropShadow" result="shape"/>
    </filter>
    <filter id="Slide_16:9_-_3__filter1_d" width="364" height="187" x="620" y="104" color-interpolation-filters="sRGB" filterUnits="userSpaceOnUse">
      <feFlood flood-opacity="0" result="BackgroundImageFix"/>
      <feColorMatrix in="SourceAlpha" result="hardAlpha" values="0 0 0 0 0 0 0 0 0 0 0 0 0 0 0 0 0 0 127 0"/>
      <feMorphology in="SourceAlpha" operator="dilate" radius="4" result="effect1_dropShadow"/>
      <feOffset dy="16"/>
      <feGaussianBlur stdDeviation="20"/>
      <feColorMatrix values="0 0 0 0 0.645718 0 0 0 0 0.645718 0 0 0 0 0.645718 0 0 0 0.2 0"/>
      <feBlend in2="BackgroundImageFix" result="effect1_dropShadow"/>
      <feBlend in="SourceGraphic" in2="effect1_dropShadow" result="shape"/>
    </filter>
  </defs>
</svg>
