<svg xmlns="http://www.w3.org/2000/svg" width="812" height="342" fill="none">
  <defs/>
  <path fill="#fff" d="M0 0h812v342H0z"/>
  <circle cx="256.5" cy="130.5" r="78.5" fill="#E0F2FF"/>
  <path stroke="#5795C1" stroke-width="2" d="M192 151.478V87a4 4 0 014-4h71a4 4 0 014 4v66"/>
  <circle cx="553.5" cy="130.5" r="78.5" fill="#E0F2FF"/>
  <rect width="51" height="28" x="205" y="68" fill="#fff" stroke="#5795C1" stroke-width="2" rx="4"/>
  <rect width="52" height="28" x="244" y="111" fill="#fff" stroke="#5795C1" stroke-width="2" rx="4"/>
  <rect width="52" height="84" x="528" y="89" fill="#fff" stroke="#5795C1" stroke-width="2" rx="4"/>
  <rect width="52" height="19" x="546" y="104" fill="#fff" stroke="#5795C1" stroke-width="2" rx="4"/>
  <rect width="52" height="8" x="501" y="126" fill="#fff" stroke="#5795C1" stroke-width="2" rx="4"/>
  <rect width="52" height="8" x="501" y="139" fill="#fff" stroke="#5795C1" stroke-width="2" rx="4"/>
  <rect width="52" height="8" x="501" y="152" fill="#fff" stroke="#5795C1" stroke-width="2" rx="4"/>
  <rect width="53" height="28" x="244" y="154" fill="#fff" stroke="#5795C1" stroke-width="2" rx="4"/>
  <rect width="53" height="27" x="166" y="151" fill="#fff" stroke="#5795C1" stroke-width="2" rx="4"/>
  <rect width="52" height="28" x="166" y="111" fill="#fff" stroke="#5795C1" stroke-width="2" rx="4"/>
  <circle cx="581" cy="148" r="16" fill="#fff" stroke="#5795C1" stroke-width="2"/>
  <circle cx="530.5" cy="112.5" r="8.5" fill="#fff" stroke="#5795C1" stroke-width="2"/>
  <path fill="#5795C1" d="M215.82 233.938v11.601c-.008 1.609-.516 2.926-1.524 3.949-1 1.024-2.359 1.598-4.078 1.723l-.597.023c-1.868 0-3.356-.504-4.465-1.511-1.11-1.008-1.672-2.395-1.688-4.161v-11.624h2.227v11.554c0 1.235.34 2.196 1.019 2.883.68.68 1.649 1.02 2.907 1.02 1.273 0 2.246-.34 2.918-1.02.679-.68 1.019-1.637 1.019-2.871v-11.566h2.262zM233.204 251h-2.262l-8.59-13.148V251h-2.261v-17.062h2.261l8.614 13.207v-13.207h2.238V251zm17.267-5.414c-.211 1.805-.879 3.199-2.004 4.184-1.117.976-2.606 1.464-4.465 1.464-2.016 0-3.633-.722-4.852-2.168-1.21-1.445-1.816-3.378-1.816-5.8v-1.641c0-1.586.281-2.98.844-4.184.57-1.203 1.375-2.125 2.414-2.765 1.039-.649 2.242-.973 3.609-.973 1.813 0 3.266.508 4.36 1.524 1.093 1.007 1.73 2.406 1.91 4.195h-2.262c-.195-1.36-.621-2.344-1.277-2.953-.649-.61-1.559-.914-2.731-.914-1.437 0-2.566.531-3.386 1.593-.813 1.063-1.219 2.575-1.219 4.536v1.652c0 1.852.386 3.324 1.16 4.418.773 1.094 1.855 1.641 3.246 1.641 1.25 0 2.207-.282 2.871-.844.672-.571 1.117-1.559 1.336-2.965h2.262zm6.064 3.574h8.085V251h-10.347v-17.062h2.262v15.222zm21.016-6.047h-7.394v6.047h8.59V251h-10.84v-17.062h10.723v1.851h-8.473v5.484h7.394v1.84zm14.138 3.434h-7.148L282.935 251h-2.32l6.516-17.062h1.969L295.627 251h-2.309l-1.629-4.453zm-6.468-1.852h5.8l-2.906-7.98-2.894 7.98zm19.681-.597h-4.008V251h-2.262v-17.062h5.648c1.922 0 3.399.437 4.43 1.312 1.039.875 1.559 2.148 1.559 3.82 0 1.063-.289 1.989-.867 2.778-.571.789-1.368 1.379-2.391 1.769l4.008 7.242V251h-2.414l-3.703-6.902zm-4.008-1.84h3.457c1.117 0 2.004-.289 2.66-.867.664-.579.996-1.352.996-2.321 0-1.054-.316-1.863-.949-2.425-.625-.563-1.531-.848-2.719-.856h-3.445v6.469zM204.538 282h-2.262v-7.887h-8.601V282h-2.25v-17.062h2.25v7.335h8.601v-7.335h2.262V282zm7.13 0h-2.25v-17.062h2.25V282zm14.49-7.887h-7.395v6.047h8.59V282h-10.84v-17.062h10.723v1.851h-8.473v5.484h7.395v1.84zm10.974.985h-4.008V282h-2.262v-17.062h5.648c1.922 0 3.399.437 4.43 1.312 1.039.875 1.559 2.148 1.559 3.82 0 1.063-.289 1.989-.867 2.778-.571.789-1.368 1.379-2.391 1.769l4.008 7.242V282h-2.414l-3.703-6.902zm-4.008-1.84h3.457c1.117 0 2.004-.289 2.66-.867.664-.579.996-1.352.996-2.321 0-1.054-.316-1.863-.949-2.425-.625-.563-1.531-.848-2.719-.856h-3.445v6.469zm22.681 4.289h-7.149L247.051 282h-2.321l6.516-17.062h1.969L259.742 282h-2.308l-1.629-4.453zm-6.469-1.852h5.801l-2.907-7.98-2.894 7.98zm19.681-.597h-4.008V282h-2.262v-17.062h5.649c1.922 0 3.398.437 4.429 1.312 1.04.875 1.559 2.148 1.559 3.82 0 1.063-.289 1.989-.867 2.778-.57.789-1.367 1.379-2.391 1.769l4.008 7.242V282h-2.414l-3.703-6.902zm-4.008-1.84h3.457c1.117 0 2.004-.289 2.66-.867.664-.579.996-1.352.996-2.321 0-1.054-.316-1.863-.949-2.425-.625-.563-1.531-.848-2.719-.856h-3.445v6.469zm25.81 3.328c-.211 1.805-.879 3.199-2.004 4.184-1.117.976-2.605 1.464-4.465 1.464-2.015 0-3.633-.722-4.851-2.168-1.211-1.445-1.817-3.378-1.817-5.8v-1.641c0-1.586.281-2.98.844-4.184.57-1.203 1.375-2.125 2.414-2.765 1.039-.649 2.242-.973 3.609-.973 1.813 0 3.266.508 4.36 1.524 1.094 1.007 1.73 2.406 1.91 4.195h-2.262c-.195-1.36-.621-2.344-1.277-2.953-.649-.61-1.559-.914-2.731-.914-1.437 0-2.566.531-3.386 1.593-.813 1.063-1.219 2.575-1.219 4.536v1.652c0 1.852.387 3.324 1.16 4.418.774 1.094 1.856 1.641 3.246 1.641 1.25 0 2.207-.282 2.871-.844.672-.571 1.117-1.559 1.336-2.965h2.262zM307.734 282h-2.261v-7.887h-8.602V282h-2.25v-17.062h2.25v7.335h8.602v-7.335h2.261V282zm9.591-8.496l4.453-8.566h2.555l-5.883 10.699V282h-2.25v-6.363l-5.882-10.699h2.578l4.429 8.566zm188.889-24.344h8.086V251h-10.347v-17.062h2.261v15.222zm21.029-2.613h-7.148L518.489 251h-2.32l6.515-17.062h1.969L531.18 251h-2.308l-1.629-4.453zm-6.469-1.852h5.801l-2.906-7.98-2.895 7.98zm25.833.891c-.21 1.805-.878 3.199-2.003 4.184-1.118.976-2.606 1.464-4.465 1.464-2.016 0-3.633-.722-4.852-2.168-1.211-1.445-1.816-3.378-1.816-5.8v-1.641c0-1.586.281-2.98.844-4.184.57-1.203 1.375-2.125 2.414-2.765 1.039-.649 2.242-.973 3.609-.973 1.812 0 3.266.508 4.359 1.524 1.094 1.007 1.731 2.406 1.91 4.195h-2.261c-.196-1.36-.621-2.344-1.278-2.953-.648-.61-1.558-.914-2.73-.914-1.438 0-2.566.531-3.387 1.593-.812 1.063-1.219 2.575-1.219 4.536v1.652c0 1.852.387 3.324 1.161 4.418.773 1.094 1.855 1.641 3.246 1.641 1.25 0 2.207-.282 2.871-.844.672-.571 1.117-1.559 1.336-2.965h2.261zm8.138-2.52l-2.085 2.168V251h-2.25v-17.062h2.25v8.437l7.582-8.437h2.718l-6.715 7.535 7.243 9.527h-2.696l-6.047-7.934zm31.23-.046c0 1.671-.282 3.132-.844 4.382-.563 1.243-1.36 2.192-2.391 2.848-1.031.656-2.234.984-3.609.984-1.344 0-2.535-.328-3.574-.984-1.04-.664-1.848-1.605-2.426-2.824-.571-1.227-.864-2.645-.879-4.254v-1.231c0-1.64.285-3.089.855-4.347.571-1.258 1.375-2.219 2.414-2.883 1.047-.672 2.243-1.008 3.586-1.008 1.368 0 2.571.332 3.61.996 1.047.656 1.851 1.613 2.414 2.871.562 1.25.844 2.707.844 4.371v1.079zm-2.239-1.102c0-2.023-.406-3.574-1.219-4.652-.812-1.086-1.949-1.629-3.41-1.629-1.422 0-2.543.543-3.363 1.629-.812 1.078-1.23 2.578-1.254 4.5v1.254c0 1.96.41 3.503 1.231 4.628.828 1.118 1.964 1.676 3.41 1.676 1.453 0 2.578-.527 3.375-1.582.797-1.062 1.207-2.582 1.23-4.558v-1.266zm15.744 1.547h-7.16V251h-2.25v-17.062h10.57v1.851h-8.32v5.836h7.16v1.84zm-131.648 35.547l4.875-14.074h2.461L468.84 282h-1.993l-6.316-17.062h2.449l4.852 14.074zM480.599 282h-2.25v-17.062h2.25V282zm9.872-7.605c-1.93-.555-3.336-1.235-4.219-2.04-.875-.812-1.312-1.812-1.312-3 0-1.343.535-2.453 1.605-3.328 1.078-.882 2.477-1.324 4.195-1.324 1.172 0 2.215.227 3.129.68.922.453 1.633 1.078 2.133 1.875.508.797.762 1.668.762 2.613h-2.262c0-1.031-.328-1.84-.984-2.426-.656-.593-1.582-.89-2.778-.89-1.109 0-1.976.246-2.601.738-.617.484-.926 1.16-.926 2.027 0 .696.293 1.285.879 1.77.594.476 1.598.914 3.012 1.312 1.422.399 2.531.84 3.328 1.325.805.476 1.398 1.035 1.781 1.675.391.641.586 1.395.586 2.262 0 1.383-.539 2.492-1.617 3.328-1.078.828-2.52 1.242-4.324 1.242a8.073 8.073 0 01-3.282-.668c-1.015-.453-1.8-1.07-2.355-1.851-.547-.781-.82-1.668-.82-2.66h2.261c0 1.031.379 1.847 1.137 2.449.766.594 1.785.891 3.059.891 1.187 0 2.097-.243 2.73-.727s.949-1.145.949-1.98c0-.836-.293-1.481-.879-1.934-.585-.461-1.648-.914-3.187-1.359zm21.954-9.457v11.601c-.008 1.609-.515 2.926-1.523 3.949-1 1.024-2.36 1.598-4.078 1.723l-.598.023c-1.867 0-3.355-.504-4.465-1.511-1.109-1.008-1.672-2.395-1.687-4.161v-11.624h2.226v11.554c0 1.235.34 2.196 1.02 2.883.68.68 1.648 1.02 2.906 1.02 1.274 0 2.246-.34 2.918-1.02.68-.68 1.02-1.637 1.02-2.871v-11.566h2.261zm13.435 12.609h-7.148L517.106 282h-2.32l6.516-17.062h1.968L529.798 282h-2.309l-1.629-4.453zm-6.469-1.852h5.801l-2.906-7.98-2.895 7.98zm15.685 4.465h8.086V282h-10.347v-17.062h2.261v15.222zm30.597-3.574c-.211 1.805-.879 3.199-2.004 4.184-1.118.976-2.606 1.464-4.465 1.464-2.016 0-3.633-.722-4.852-2.168-1.211-1.445-1.816-3.378-1.816-5.8v-1.641c0-1.586.281-2.98.844-4.184.57-1.203 1.375-2.125 2.414-2.765 1.039-.649 2.242-.973 3.609-.973 1.812 0 3.266.508 4.359 1.524 1.094 1.007 1.731 2.406 1.911 4.195h-2.262c-.196-1.36-.621-2.344-1.278-2.953-.648-.61-1.558-.914-2.73-.914-1.438 0-2.566.531-3.387 1.593-.812 1.063-1.218 2.575-1.218 4.536v1.652c0 1.852.386 3.324 1.16 4.418.773 1.094 1.855 1.641 3.246 1.641 1.25 0 2.207-.282 2.871-.844.672-.571 1.117-1.559 1.336-2.965h2.262zm6.063 3.574h8.086V282h-10.347v-17.062h2.261v15.222zm21.029-2.613h-7.149L584.011 282h-2.32l6.515-17.062h1.969L596.702 282h-2.308l-1.629-4.453zm-6.469-1.852h5.801l-2.906-7.98-2.895 7.98zm19.681-.597h-4.008V282h-2.262v-17.062h5.649c1.922 0 3.398.437 4.43 1.312 1.039.875 1.558 2.148 1.558 3.82 0 1.063-.289 1.989-.867 2.778-.57.789-1.367 1.379-2.391 1.769l4.008 7.242V282h-2.414l-3.703-6.902zm-4.008-1.84h3.457c1.117 0 2.004-.289 2.66-.867.664-.579.996-1.352.996-2.321 0-1.054-.316-1.863-.949-2.425-.625-.563-1.531-.848-2.718-.856h-3.446v6.469zM617.642 282h-2.25v-17.062h2.25V282zm16.283-15.211h-5.485V282h-2.238v-15.211h-5.472v-1.851h13.195v1.851zm8.642 6.715l4.453-8.566h2.555l-5.883 10.699V282h-2.25v-6.363l-5.883-10.699h2.578l4.43 8.566z"/>
</svg>
