<svg xmlns="http://www.w3.org/2000/svg" width="812" height="295" fill="none">
  <defs/>
  <path fill="#fff" d="M0 0h812v295H0z"/>
  <ellipse cx="233" cy="110.5" fill="#E0F2FF" rx="58" ry="58.5"/>
  <path stroke="#5795C1" stroke-width="2" d="M185 125.87V79a4 4 0 014-4h51a4 4 0 014 4v48"/>
  <circle cx="554.5" cy="110.5" r="58.5" fill="#E0F2FF"/>
  <rect width="37" height="20" x="195" y="64" fill="#fff" stroke="#5795C1" stroke-width="2" rx="4"/>
  <rect width="38" height="20" x="224" y="96" fill="#fff" stroke="#5795C1" stroke-width="2" rx="4"/>
  <rect width="38" height="62" x="536" y="80" fill="#fff" stroke="#5795C1" stroke-width="2" rx="4"/>
  <rect width="38" height="13" x="549" y="91" fill="#fff" stroke="#5795C1" stroke-width="2" rx="4"/>
  <rect width="38" height="6" x="516" y="107" fill="#fff" stroke="#5795C1" stroke-width="2" rx="3"/>
  <rect width="38" height="5" x="516" y="117" fill="#fff" stroke="#5795C1" stroke-width="2" rx="2.5"/>
  <rect width="38" height="5" x="516" y="127" fill="#fff" stroke="#5795C1" stroke-width="2" rx="2.5"/>
  <rect width="39" height="20" x="224" y="128" fill="#fff" stroke="#5795C1" stroke-width="2" rx="4"/>
  <rect width="39" height="19" x="166" y="126" fill="#fff" stroke="#5795C1" stroke-width="2" rx="4"/>
  <rect width="38" height="20" x="166" y="96" fill="#fff" stroke="#5795C1" stroke-width="2" rx="4"/>
  <path fill="#fff" stroke="#5795C1" stroke-width="2" d="M587 123.5c0 6.315-5.335 11.5-12 11.5s-12-5.185-12-11.5 5.335-11.5 12-11.5 12 5.185 12 11.5z"/>
  <circle cx="538" cy="97" r="6" fill="#fff" stroke="#5795C1" stroke-width="2"/>
  <path fill="#5795C1" d="M201.615 199.203v8.701c-.006 1.207-.387 2.195-1.143 2.962-.75.768-1.769 1.198-3.058 1.292l-.449.018c-1.4 0-2.516-.378-3.348-1.134-.832-.756-1.254-1.796-1.266-3.12v-8.719h1.67v8.666c0 .926.255 1.647.765 2.162.51.51 1.236.765 2.179.765.956 0 1.685-.255 2.189-.765.51-.51.765-1.227.765-2.153v-8.675h1.696zM214.653 212h-1.696l-6.443-9.861V212h-1.696v-12.797h1.696l6.46 9.905v-9.905h1.679V212zm12.95-4.061c-.158 1.354-.659 2.4-1.503 3.138-.838.733-1.954 1.099-3.348 1.099-1.512 0-2.725-.542-3.639-1.626-.908-1.084-1.362-2.534-1.362-4.351v-1.23c0-1.19.21-2.236.632-3.138.428-.902 1.032-1.594 1.811-2.074.779-.486 1.682-.73 2.707-.73 1.359 0 2.449.381 3.269 1.143.821.756 1.298 1.805 1.433 3.146h-1.696c-.147-1.019-.466-1.757-.958-2.214-.487-.457-1.169-.686-2.048-.686-1.078 0-1.925.398-2.54 1.195-.609.797-.914 1.931-.914 3.402v1.239c0 1.389.29 2.493.87 3.313.58.821 1.392 1.231 2.435 1.231.937 0 1.655-.211 2.153-.633.504-.428.838-1.169 1.002-2.224h1.696zm4.548 2.681h6.064V212h-7.76v-12.797h1.696v11.417zm15.763-4.535h-5.546v4.535h6.442V212h-8.13v-12.797h8.042v1.389h-6.354v4.113h5.546v1.38zm10.603 2.575h-5.361l-1.204 3.34h-1.741l4.887-12.797h1.477L261.47 212h-1.731l-1.222-3.34zm-4.852-1.389h4.351l-2.18-5.985-2.171 5.985zm14.761-.448h-3.006V212h-1.696v-12.797h4.236c1.442 0 2.549.328 3.323.985.779.656 1.169 1.611 1.169 2.865 0 .797-.217 1.491-.651 2.083-.428.592-1.025 1.034-1.793 1.327l3.006 5.432V212h-1.81l-2.778-5.177zm-3.006-1.38h2.593c.838 0 1.503-.216 1.995-.65.498-.434.747-1.014.747-1.74 0-.791-.237-1.398-.712-1.82-.468-.421-1.148-.635-2.039-.641h-2.584v4.851zM193.153 235h-1.696v-5.915h-6.451V235h-1.687v-12.797h1.687v5.502h6.451v-5.502h1.696V235zm5.348 0h-1.687v-12.797h1.687V235zm10.867-5.915h-5.546v4.535h6.443V235h-8.13v-12.797h8.042v1.389h-6.355v4.113h5.546v1.38zm8.231.738h-3.006V235h-1.696v-12.797h4.236c1.441 0 2.549.328 3.322.985.779.656 1.169 1.611 1.169 2.865 0 .797-.217 1.491-.65 2.083-.428.592-1.026 1.034-1.793 1.327l3.006 5.432V235h-1.811l-2.777-5.177zm-3.006-1.38h2.593c.837 0 1.503-.216 1.995-.65.498-.434.747-1.014.747-1.74 0-.791-.238-1.398-.712-1.82-.469-.421-1.149-.635-2.039-.641h-2.584v4.851zm17.011 3.217h-5.362l-1.204 3.34h-1.74l4.887-12.797h1.476L234.557 235h-1.732l-1.221-3.34zm-4.852-1.389h4.351l-2.18-5.985-2.171 5.985zm14.761-.448h-3.006V235h-1.696v-12.797h4.236c1.441 0 2.549.328 3.322.985.779.656 1.169 1.611 1.169 2.865 0 .797-.217 1.491-.65 2.083-.428.592-1.026 1.034-1.793 1.327l3.006 5.432V235h-1.811l-2.777-5.177zm-3.006-1.38h2.593c.837 0 1.503-.216 1.995-.65.498-.434.747-1.014.747-1.74 0-.791-.238-1.398-.712-1.82-.469-.421-1.149-.635-2.039-.641h-2.584v4.851zm19.357 2.496c-.158 1.354-.659 2.4-1.503 3.138-.838.733-1.954 1.099-3.348 1.099-1.512 0-2.725-.542-3.639-1.626-.908-1.084-1.362-2.534-1.362-4.351v-1.23c0-1.19.211-2.236.632-3.138.428-.902 1.032-1.594 1.811-2.074.779-.486 1.682-.73 2.707-.73 1.359 0 2.449.381 3.27 1.143.82.756 1.297 1.805 1.432 3.146h-1.696c-.147-1.019-.466-1.757-.958-2.214-.486-.457-1.169-.686-2.048-.686-1.078 0-1.925.398-2.54 1.195-.609.797-.914 1.931-.914 3.402v1.239c0 1.389.29 2.493.87 3.313.58.821 1.392 1.231 2.435 1.231.937 0 1.655-.211 2.153-.633.504-.428.838-1.169 1.002-2.224h1.696zM270.551 235h-1.697v-5.915h-6.451V235h-1.687v-12.797h1.687v5.502h6.451v-5.502h1.697V235zm7.193-6.372l3.34-6.425H283l-4.412 8.025V235H276.9v-4.772l-4.412-8.025h1.934l3.322 6.425zm240.667-18.008h6.064V212h-7.761v-12.797h1.697v11.417zm15.771-1.96h-5.361l-1.204 3.34h-1.74l4.886-12.797h1.477L537.135 212h-1.731l-1.222-3.34zm-4.851-1.389h4.35l-2.179-5.985-2.171 5.985zm19.375.668c-.159 1.354-.66 2.4-1.503 3.138-.838.733-1.954 1.099-3.349 1.099-1.512 0-2.725-.542-3.639-1.626-.908-1.084-1.362-2.534-1.362-4.351v-1.23c0-1.19.211-2.236.633-3.138.428-.902 1.031-1.594 1.81-2.074.78-.486 1.682-.73 2.707-.73 1.36 0 2.45.381 3.27 1.143.82.756 1.298 1.805 1.433 3.146h-1.697c-.146-1.019-.465-1.757-.958-2.214-.486-.457-1.169-.686-2.048-.686-1.078 0-1.924.398-2.54 1.195-.609.797-.914 1.931-.914 3.402v1.239c0 1.389.29 2.493.87 3.313.581.821 1.392 1.231 2.435 1.231.938 0 1.655-.211 2.153-.633.504-.428.838-1.169 1.002-2.224h1.697zm6.103-1.889l-1.564 1.626V212h-1.688v-12.797h1.688v6.328l5.686-6.328h2.039l-5.036 5.651 5.432 7.146h-2.022l-4.535-5.95zm23.422-.035c0 1.254-.211 2.349-.633 3.287-.422.931-1.019 1.643-1.793 2.136-.773.492-1.676.738-2.707.738-1.008 0-1.901-.246-2.681-.738-.779-.499-1.385-1.205-1.819-2.119-.428-.92-.647-1.983-.659-3.19v-.923c0-1.23.214-2.317.642-3.261.427-.943 1.031-1.664 1.81-2.162.785-.504 1.682-.756 2.69-.756 1.025 0 1.927.249 2.707.747.785.493 1.388 1.21 1.81 2.154.422.937.633 2.03.633 3.278v.809zm-1.679-.827c0-1.517-.305-2.68-.914-3.489-.609-.814-1.462-1.221-2.557-1.221-1.067 0-1.908.407-2.523 1.221-.609.809-.923 1.934-.94 3.375v.941c0 1.47.307 2.628.922 3.471.622.838 1.474 1.257 2.558 1.257 1.09 0 1.934-.395 2.531-1.186.598-.797.906-1.937.923-3.419v-.95zm11.808 1.161h-5.37V212h-1.688v-12.797h7.928v1.389h-6.24v4.377h5.37v1.38zm-98.736 26.41l3.656-10.556h1.846L490.38 235h-1.494l-4.738-12.797h1.837l3.639 10.556zm9.575 2.241h-1.688v-12.797h1.688V235zm7.404-5.704c-1.447-.416-2.502-.926-3.164-1.529-.656-.61-.984-1.36-.984-2.25 0-1.008.401-1.84 1.204-2.496.808-.663 1.857-.994 3.146-.994.879 0 1.661.17 2.347.51.691.34 1.225.809 1.6 1.406.38.598.571 1.251.571 1.96h-1.696c0-.773-.246-1.38-.739-1.819-.492-.445-1.186-.668-2.083-.668-.832 0-1.482.185-1.951.554-.463.363-.694.87-.694 1.52 0 .522.22.964.659 1.327.445.358 1.198.686 2.259.985 1.066.299 1.898.63 2.496.993.603.357 1.049.776 1.336 1.257.293.48.439 1.046.439 1.696 0 1.037-.404 1.869-1.213 2.496-.808.621-1.889.932-3.243.932a6.061 6.061 0 01-2.461-.501c-.761-.34-1.35-.803-1.766-1.389a3.397 3.397 0 01-.616-1.995h1.697c0 .773.284 1.386.852 1.837.575.445 1.339.668 2.294.668.891 0 1.573-.182 2.048-.545.475-.363.712-.858.712-1.485 0-.627-.22-1.111-.659-1.451-.44-.345-1.237-.685-2.391-1.019zm16.466-7.093v8.701c-.006 1.207-.387 2.195-1.143 2.962-.75.768-1.769 1.198-3.058 1.292l-.448.018c-1.401 0-2.517-.378-3.349-1.134-.832-.756-1.254-1.796-1.266-3.12v-8.719h1.67v8.666c0 .926.255 1.647.765 2.162.51.51 1.236.765 2.18.765.955 0 1.684-.255 2.188-.765.51-.51.765-1.227.765-2.153v-8.675h1.696zm10.076 9.457h-5.361L526.58 235h-1.741l4.887-12.797h1.477L536.098 235h-1.731l-1.222-3.34zm-4.851-1.389h4.35l-2.18-5.985-2.17 5.985zm11.763 3.349h6.065V235h-7.761v-12.797h1.696v11.417zm22.947-2.681c-.158 1.354-.659 2.4-1.503 3.138-.837.733-1.954 1.099-3.348 1.099-1.512 0-2.725-.542-3.639-1.626-.908-1.084-1.362-2.534-1.362-4.351v-1.23c0-1.19.211-2.236.633-3.138.427-.902 1.031-1.594 1.81-2.074.779-.486 1.682-.73 2.707-.73 1.36 0 2.449.381 3.27 1.143.82.756 1.298 1.805 1.432 3.146h-1.696c-.146-1.019-.466-1.757-.958-2.214-.486-.457-1.169-.686-2.048-.686-1.078 0-1.925.398-2.54 1.195-.609.797-.914 1.931-.914 3.402v1.239c0 1.389.29 2.493.87 3.313.58.821 1.392 1.231 2.435 1.231.937 0 1.655-.211 2.153-.633.504-.428.838-1.169 1.002-2.224h1.696zm4.548 2.681h6.065V235h-7.761v-12.797h1.696v11.417zm15.772-1.96h-5.362l-1.204 3.34h-1.74l4.887-12.797h1.476L586.277 235h-1.732l-1.221-3.34zm-4.852-1.389h4.351l-2.18-5.985-2.171 5.985zm14.761-.448h-3.006V235h-1.696v-12.797h4.236c1.441 0 2.549.328 3.322.985.78.656 1.169 1.611 1.169 2.865 0 .797-.217 1.491-.65 2.083-.428.592-1.026 1.034-1.793 1.327l3.006 5.432V235h-1.811l-2.777-5.177zm-3.006-1.38h2.593c.838 0 1.503-.216 1.995-.65.498-.434.747-1.014.747-1.74 0-.791-.237-1.398-.712-1.82-.469-.421-1.148-.635-2.039-.641h-2.584v4.851zM601.982 235h-1.688v-12.797h1.688V235zm12.212-11.408h-4.114V235h-1.678v-11.408h-4.105v-1.389h9.897v1.389zm6.481 5.036l3.34-6.425h1.916l-4.412 8.025V235h-1.688v-4.772l-4.412-8.025h1.934l3.322 6.425z"/>
</svg>
