<svg width="1920" height="1080" viewBox="0 0 1920 1080" fill="none" xmlns="http://www.w3.org/2000/svg">
<g clip-path="url(#clip0)">
<rect width="1920" height="1080" fill="white"/>
<rect y="58" width="513" height="114" fill="#F0A9E9"/>
<path d="M473.99 334.568H484.186V347.893C482.533 348.432 480.975 348.807 479.51 349.018C478.057 349.24 476.568 349.352 475.045 349.352C471.166 349.352 468.201 348.215 466.15 345.941C464.111 343.656 463.092 340.381 463.092 336.115C463.092 331.967 464.275 328.732 466.643 326.412C469.021 324.092 472.314 322.932 476.521 322.932C479.158 322.932 481.701 323.459 484.15 324.514L482.34 328.873C480.465 327.936 478.514 327.467 476.486 327.467C474.131 327.467 472.244 328.258 470.826 329.84C469.408 331.422 468.699 333.549 468.699 336.221C468.699 339.01 469.268 341.143 470.404 342.619C471.553 344.084 473.217 344.816 475.396 344.816C476.533 344.816 477.688 344.699 478.859 344.465V339.104H473.99V334.568ZM516.886 336.115C516.886 340.369 515.832 343.639 513.722 345.924C511.613 348.209 508.59 349.352 504.652 349.352C500.715 349.352 497.691 348.209 495.582 345.924C493.472 343.639 492.418 340.357 492.418 336.08C492.418 331.803 493.472 328.539 495.582 326.289C497.703 324.027 500.738 322.896 504.687 322.896C508.636 322.896 511.654 324.033 513.74 326.307C515.838 328.58 516.886 331.85 516.886 336.115ZM498.131 336.115C498.131 338.986 498.676 341.148 499.765 342.602C500.855 344.055 502.484 344.781 504.652 344.781C509 344.781 511.174 341.893 511.174 336.115C511.174 330.326 509.011 327.432 504.687 327.432C502.519 327.432 500.885 328.164 499.783 329.629C498.681 331.082 498.131 333.244 498.131 336.115ZM541.185 349L539.322 342.883H529.953L528.089 349H522.218L531.289 323.195H537.951L547.056 349H541.185ZM538.021 338.312C536.298 332.77 535.326 329.635 535.103 328.908C534.892 328.182 534.74 327.607 534.646 327.186C534.259 328.686 533.152 332.395 531.324 338.312H538.021ZM553.548 349V323.301H558.997V344.5H569.421V349H553.548ZM604.536 342.162C604.536 344.424 603.716 346.188 602.075 347.453C600.434 348.719 598.208 349.352 595.395 349.352C592.348 349.352 590.005 348.959 588.364 348.174V345.291C589.419 345.736 590.567 346.088 591.809 346.346C593.052 346.604 594.282 346.732 595.501 346.732C597.493 346.732 598.993 346.357 600.001 345.607C601.009 344.846 601.512 343.791 601.512 342.443C601.512 341.553 601.331 340.826 600.968 340.264C600.616 339.689 600.018 339.162 599.175 338.682C598.343 338.201 597.071 337.656 595.36 337.047C592.97 336.191 591.259 335.178 590.227 334.006C589.208 332.834 588.698 331.305 588.698 329.418C588.698 327.438 589.442 325.861 590.93 324.689C592.419 323.518 594.387 322.932 596.837 322.932C599.391 322.932 601.741 323.4 603.886 324.338L602.954 326.939C600.833 326.049 598.77 325.604 596.766 325.604C595.184 325.604 593.948 325.943 593.057 326.623C592.167 327.303 591.721 328.246 591.721 329.453C591.721 330.344 591.886 331.076 592.214 331.65C592.542 332.213 593.093 332.734 593.866 333.215C594.651 333.684 595.846 334.205 597.452 334.779C600.147 335.74 601.999 336.771 603.007 337.873C604.026 338.975 604.536 340.404 604.536 342.162ZM621.557 349.352C620.303 349.352 619.155 349.123 618.112 348.666C617.081 348.197 616.213 347.482 615.51 346.521H615.299C615.44 347.646 615.51 348.713 615.51 349.721V357.648H612.592V329.734H614.965L615.37 332.371H615.51C616.26 331.316 617.133 330.555 618.129 330.086C619.126 329.617 620.268 329.383 621.557 329.383C624.112 329.383 626.081 330.256 627.463 332.002C628.858 333.748 629.555 336.197 629.555 339.35C629.555 342.514 628.846 344.975 627.428 346.732C626.022 348.479 624.065 349.352 621.557 349.352ZM621.135 331.861C619.167 331.861 617.743 332.406 616.864 333.496C615.985 334.586 615.534 336.32 615.51 338.699V339.35C615.51 342.057 615.961 343.996 616.864 345.168C617.766 346.328 619.213 346.908 621.206 346.908C622.87 346.908 624.17 346.234 625.108 344.887C626.057 343.539 626.532 341.682 626.532 339.314C626.532 336.912 626.057 335.072 625.108 333.795C624.17 332.506 622.846 331.861 621.135 331.861ZM646.049 349.352C643.201 349.352 640.951 348.484 639.299 346.75C637.659 345.016 636.838 342.607 636.838 339.525C636.838 336.42 637.6 333.953 639.123 332.125C640.659 330.297 642.715 329.383 645.293 329.383C647.707 329.383 649.617 330.18 651.024 331.773C652.43 333.355 653.133 335.447 653.133 338.049V339.895H639.862C639.92 342.156 640.489 343.873 641.567 345.045C642.657 346.217 644.186 346.803 646.155 346.803C648.229 346.803 650.28 346.369 652.307 345.502V348.104C651.276 348.549 650.297 348.865 649.371 349.053C648.457 349.252 647.35 349.352 646.049 349.352ZM645.258 331.826C643.711 331.826 642.475 332.33 641.549 333.338C640.635 334.346 640.096 335.74 639.932 337.521H650.004C650.004 335.682 649.594 334.275 648.774 333.303C647.953 332.318 646.782 331.826 645.258 331.826ZM669.065 349.352C666.275 349.352 664.113 348.496 662.578 346.785C661.055 345.062 660.293 342.631 660.293 339.49C660.293 336.268 661.066 333.777 662.613 332.02C664.172 330.262 666.387 329.383 669.258 329.383C670.184 329.383 671.109 329.482 672.035 329.682C672.961 329.881 673.688 330.115 674.215 330.385L673.318 332.863C672.674 332.605 671.971 332.395 671.209 332.23C670.447 332.055 669.774 331.967 669.188 331.967C665.274 331.967 663.316 334.463 663.316 339.455C663.316 341.822 663.791 343.639 664.74 344.904C665.701 346.17 667.119 346.803 668.994 346.803C670.6 346.803 672.246 346.457 673.934 345.766V348.35C672.645 349.018 671.022 349.352 669.065 349.352ZM684.68 349H681.762V329.734H684.68V349ZM681.515 324.514C681.515 323.846 681.68 323.359 682.008 323.055C682.336 322.738 682.746 322.58 683.238 322.58C683.707 322.58 684.111 322.738 684.451 323.055C684.791 323.371 684.961 323.857 684.961 324.514C684.961 325.17 684.791 325.662 684.451 325.99C684.111 326.307 683.707 326.465 683.238 326.465C682.746 326.465 682.336 326.307 682.008 325.99C681.68 325.662 681.515 325.17 681.515 324.514ZM702.791 332.002H697.886V349H694.968V332.002H691.523V330.684L694.968 329.629V328.557C694.968 323.822 697.037 321.455 701.173 321.455C702.193 321.455 703.388 321.66 704.759 322.07L704.004 324.408C702.879 324.045 701.918 323.863 701.121 323.863C700.019 323.863 699.205 324.232 698.677 324.971C698.15 325.697 697.886 326.869 697.886 328.486V329.734H702.791V332.002ZM706.488 329.734H709.617L713.835 340.721C714.761 343.229 715.335 345.039 715.558 346.152H715.699C715.851 345.555 716.167 344.535 716.648 343.094C717.14 341.641 718.734 337.188 721.429 329.734H724.558L716.279 351.672C715.458 353.84 714.497 355.375 713.396 356.277C712.306 357.191 710.964 357.648 709.37 357.648C708.48 357.648 707.601 357.549 706.734 357.35V355.012C707.378 355.152 708.099 355.223 708.896 355.223C710.9 355.223 712.329 354.098 713.185 351.848L714.257 349.105L706.488 329.734ZM759.251 349L755.718 337.697C755.495 337.006 755.079 335.436 754.47 332.986H754.329C753.86 335.037 753.45 336.619 753.099 337.732L749.46 349H746.085L740.829 329.734H743.888C745.13 334.574 746.073 338.26 746.718 340.791C747.374 343.322 747.749 345.027 747.843 345.906H747.983C748.112 345.238 748.317 344.377 748.599 343.322C748.891 342.256 749.143 341.412 749.354 340.791L752.888 329.734H756.052L759.497 340.791C760.153 342.807 760.599 344.5 760.833 345.871H760.974C761.02 345.449 761.143 344.799 761.343 343.92C761.554 343.041 762.778 338.312 765.016 329.734H768.04L762.714 349H759.251ZM787.962 349V336.537C787.962 334.967 787.604 333.795 786.889 333.021C786.174 332.248 785.055 331.861 783.532 331.861C781.505 331.861 780.022 332.412 779.085 333.514C778.159 334.615 777.696 336.42 777.696 338.928V349H774.778V321.648H777.696V329.928C777.696 330.924 777.649 331.75 777.555 332.406H777.731C778.305 331.48 779.12 330.754 780.174 330.227C781.241 329.688 782.454 329.418 783.813 329.418C786.169 329.418 787.932 329.98 789.104 331.105C790.288 332.219 790.88 333.994 790.88 336.432V349H787.962ZM811.979 349L811.399 346.258H811.258C810.297 347.465 809.336 348.285 808.375 348.719C807.426 349.141 806.237 349.352 804.807 349.352C802.897 349.352 801.397 348.859 800.307 347.875C799.229 346.891 798.69 345.49 798.69 343.674C798.69 339.783 801.801 337.744 808.024 337.557L811.293 337.451V336.256C811.293 334.744 810.965 333.631 810.309 332.916C809.664 332.189 808.627 331.826 807.198 331.826C805.592 331.826 803.776 332.318 801.748 333.303L800.852 331.07C801.801 330.555 802.838 330.15 803.963 329.857C805.1 329.564 806.237 329.418 807.373 329.418C809.67 329.418 811.37 329.928 812.471 330.947C813.584 331.967 814.141 333.602 814.141 335.852V349H811.979ZM805.387 346.943C807.204 346.943 808.627 346.445 809.659 345.449C810.702 344.453 811.223 343.059 811.223 341.266V339.525L808.305 339.648C805.985 339.73 804.309 340.094 803.278 340.738C802.258 341.371 801.748 342.361 801.748 343.709C801.748 344.764 802.065 345.566 802.698 346.117C803.342 346.668 804.239 346.943 805.387 346.943ZM829.633 346.943C830.149 346.943 830.647 346.908 831.127 346.838C831.608 346.756 831.988 346.674 832.27 346.592V348.824C831.953 348.977 831.485 349.1 830.863 349.193C830.254 349.299 829.703 349.352 829.211 349.352C825.485 349.352 823.621 347.389 823.621 343.463V332.002H820.861V330.596L823.621 329.383L824.852 325.27H826.539V329.734H832.129V332.002H826.539V343.34C826.539 344.5 826.815 345.391 827.365 346.012C827.916 346.633 828.672 346.943 829.633 346.943ZM848.91 329.734H852.039L856.258 340.721C857.183 343.229 857.758 345.039 857.98 346.152H858.121C858.273 345.555 858.59 344.535 859.07 343.094C859.562 341.641 861.156 337.188 863.851 329.734H866.98L858.701 351.672C857.881 353.84 856.92 355.375 855.818 356.277C854.728 357.191 853.386 357.648 851.793 357.648C850.902 357.648 850.023 357.549 849.156 357.35V355.012C849.8 355.152 850.521 355.223 851.318 355.223C853.322 355.223 854.752 354.098 855.607 351.848L856.679 349.105L848.91 329.734ZM889.978 339.35C889.978 342.49 889.187 344.945 887.605 346.715C886.023 348.473 883.837 349.352 881.048 349.352C879.326 349.352 877.796 348.947 876.46 348.139C875.124 347.33 874.093 346.17 873.367 344.658C872.64 343.146 872.277 341.377 872.277 339.35C872.277 336.209 873.062 333.766 874.632 332.02C876.203 330.262 878.382 329.383 881.171 329.383C883.867 329.383 886.005 330.279 887.587 332.072C889.181 333.865 889.978 336.291 889.978 339.35ZM875.3 339.35C875.3 341.811 875.792 343.686 876.777 344.975C877.761 346.264 879.208 346.908 881.119 346.908C883.029 346.908 884.476 346.27 885.46 344.992C886.456 343.703 886.955 341.822 886.955 339.35C886.955 336.9 886.456 335.043 885.46 333.777C884.476 332.5 883.017 331.861 881.083 331.861C879.173 331.861 877.732 332.488 876.759 333.742C875.787 334.996 875.3 336.865 875.3 339.35ZM901.093 329.734V342.232C901.093 343.803 901.45 344.975 902.165 345.748C902.88 346.521 903.999 346.908 905.523 346.908C907.538 346.908 909.009 346.357 909.935 345.256C910.872 344.154 911.341 342.355 911.341 339.859V329.734H914.259V349H911.851L911.429 346.416H911.271C910.673 347.365 909.841 348.092 908.775 348.596C907.72 349.1 906.513 349.352 905.154 349.352C902.81 349.352 901.052 348.795 899.88 347.682C898.72 346.568 898.14 344.787 898.14 342.338V329.734H901.093ZM948.143 349L947.563 346.258H947.423C946.462 347.465 945.501 348.285 944.54 348.719C943.591 349.141 942.401 349.352 940.971 349.352C939.061 349.352 937.561 348.859 936.471 347.875C935.393 346.891 934.854 345.49 934.854 343.674C934.854 339.783 937.966 337.744 944.188 337.557L947.458 337.451V336.256C947.458 334.744 947.13 333.631 946.473 332.916C945.829 332.189 944.792 331.826 943.362 331.826C941.757 331.826 939.94 332.318 937.913 333.303L937.016 331.07C937.966 330.555 939.003 330.15 940.128 329.857C941.264 329.564 942.401 329.418 943.538 329.418C945.835 329.418 947.534 329.928 948.635 330.947C949.749 331.967 950.305 333.602 950.305 335.852V349H948.143ZM941.551 346.943C943.368 346.943 944.792 346.445 945.823 345.449C946.866 344.453 947.387 343.059 947.387 341.266V339.525L944.469 339.648C942.149 339.73 940.473 340.094 939.442 340.738C938.423 341.371 937.913 342.361 937.913 343.709C937.913 344.764 938.229 345.566 938.862 346.117C939.507 346.668 940.403 346.943 941.551 346.943ZM968.364 329.383C969.219 329.383 969.987 329.453 970.666 329.594L970.262 332.301C969.465 332.125 968.762 332.037 968.153 332.037C966.594 332.037 965.258 332.67 964.145 333.936C963.043 335.201 962.493 336.777 962.493 338.664V349H959.575V329.734H961.983L962.317 333.303H962.457C963.172 332.049 964.034 331.082 965.041 330.402C966.049 329.723 967.157 329.383 968.364 329.383ZM985.649 349.352C982.801 349.352 980.551 348.484 978.899 346.75C977.258 345.016 976.438 342.607 976.438 339.525C976.438 336.42 977.199 333.953 978.723 332.125C980.258 330.297 982.315 329.383 984.893 329.383C987.307 329.383 989.217 330.18 990.623 331.773C992.03 333.355 992.733 335.447 992.733 338.049V339.895H979.461C979.52 342.156 980.088 343.873 981.166 345.045C982.256 346.217 983.785 346.803 985.754 346.803C987.828 346.803 989.879 346.369 991.906 345.502V348.104C990.875 348.549 989.897 348.865 988.971 349.053C988.057 349.252 986.949 349.352 985.649 349.352ZM984.858 331.826C983.311 331.826 982.074 332.33 981.149 333.338C980.235 334.346 979.696 335.74 979.531 337.521H989.604C989.604 335.682 989.194 334.275 988.373 333.303C987.553 332.318 986.381 331.826 984.858 331.826ZM1019.78 346.943C1020.29 346.943 1020.79 346.908 1021.27 346.838C1021.75 346.756 1022.13 346.674 1022.42 346.592V348.824C1022.1 348.977 1021.63 349.1 1021.01 349.193C1020.4 349.299 1019.85 349.352 1019.36 349.352C1015.63 349.352 1013.77 347.389 1013.77 343.463V332.002H1011.01V330.596L1013.77 329.383L1015 325.27H1016.69V329.734H1022.28V332.002H1016.69V343.34C1016.69 344.5 1016.96 345.391 1017.51 346.012C1018.06 346.633 1018.82 346.943 1019.78 346.943ZM1038.31 329.383C1039.17 329.383 1039.94 329.453 1040.61 329.594L1040.21 332.301C1039.41 332.125 1038.71 332.037 1038.1 332.037C1036.54 332.037 1035.21 332.67 1034.09 333.936C1032.99 335.201 1032.44 336.777 1032.44 338.664V349H1029.52V329.734H1031.93L1032.27 333.303H1032.41C1033.12 332.049 1033.98 331.082 1034.99 330.402C1036 329.723 1037.1 329.383 1038.31 329.383ZM1044.4 329.734H1047.53L1051.75 340.721C1052.67 343.229 1053.25 345.039 1053.47 346.152H1053.61C1053.76 345.555 1054.08 344.535 1054.56 343.094C1055.05 341.641 1056.65 337.188 1059.34 329.734H1062.47L1054.19 351.672C1053.37 353.84 1052.41 355.375 1051.31 356.277C1050.22 357.191 1048.88 357.648 1047.28 357.648C1046.39 357.648 1045.51 357.549 1044.65 357.35V355.012C1045.29 355.152 1046.01 355.223 1046.81 355.223C1048.81 355.223 1050.24 354.098 1051.1 351.848L1052.17 349.105L1044.4 329.734ZM1071.76 349H1068.84V329.734H1071.76V349ZM1068.59 324.514C1068.59 323.846 1068.76 323.359 1069.09 323.055C1069.41 322.738 1069.82 322.58 1070.32 322.58C1070.78 322.58 1071.19 322.738 1071.53 323.055C1071.87 323.371 1072.04 323.857 1072.04 324.514C1072.04 325.17 1071.87 325.662 1071.53 325.99C1071.19 326.307 1070.78 326.465 1070.32 326.465C1069.82 326.465 1069.41 326.307 1069.09 325.99C1068.76 325.662 1068.59 325.17 1068.59 324.514ZM1094.37 349V336.537C1094.37 334.967 1094.01 333.795 1093.3 333.021C1092.58 332.248 1091.46 331.861 1089.94 331.861C1087.92 331.861 1086.45 332.406 1085.51 333.496C1084.57 334.586 1084.1 336.385 1084.1 338.893V349H1081.18V329.734H1083.56L1084.03 332.371H1084.17C1084.77 331.422 1085.61 330.689 1086.69 330.174C1087.76 329.646 1088.97 329.383 1090.29 329.383C1092.61 329.383 1094.36 329.945 1095.53 331.07C1096.7 332.184 1097.29 333.971 1097.29 336.432V349H1094.37ZM1122.31 329.734V331.58L1118.74 332.002C1119.07 332.412 1119.36 332.951 1119.62 333.619C1119.87 334.275 1120 335.02 1120 335.852C1120 337.738 1119.36 339.244 1118.07 340.369C1116.78 341.494 1115.01 342.057 1112.76 342.057C1112.19 342.057 1111.65 342.01 1111.14 341.916C1109.9 342.572 1109.28 343.398 1109.28 344.395C1109.28 344.922 1109.5 345.314 1109.93 345.572C1110.36 345.818 1111.11 345.941 1112.16 345.941H1115.57C1117.66 345.941 1119.26 346.381 1120.37 347.26C1121.5 348.139 1122.06 349.416 1122.06 351.092C1122.06 353.225 1121.2 354.848 1119.49 355.961C1117.78 357.086 1115.29 357.648 1112 357.648C1109.48 357.648 1107.54 357.18 1106.17 356.242C1104.81 355.305 1104.13 353.98 1104.13 352.27C1104.13 351.098 1104.5 350.084 1105.25 349.229C1106 348.373 1107.06 347.793 1108.42 347.488C1107.93 347.266 1107.51 346.92 1107.17 346.451C1106.84 345.982 1106.68 345.438 1106.68 344.816C1106.68 344.113 1106.87 343.498 1107.24 342.971C1107.62 342.443 1108.21 341.934 1109.02 341.441C1108.02 341.031 1107.21 340.334 1106.57 339.35C1105.95 338.365 1105.64 337.24 1105.64 335.975C1105.64 333.865 1106.27 332.242 1107.54 331.105C1108.81 329.957 1110.6 329.383 1112.92 329.383C1113.93 329.383 1114.83 329.5 1115.64 329.734H1122.31ZM1106.94 352.234C1106.94 353.277 1107.38 354.068 1108.26 354.607C1109.14 355.146 1110.4 355.416 1112.04 355.416C1114.49 355.416 1116.3 355.047 1117.47 354.309C1118.65 353.582 1119.25 352.592 1119.25 351.338C1119.25 350.295 1118.92 349.568 1118.28 349.158C1117.64 348.76 1116.42 348.561 1114.64 348.561H1111.14C1109.82 348.561 1108.79 348.877 1108.05 349.51C1107.31 350.143 1106.94 351.051 1106.94 352.234ZM1108.52 335.904C1108.52 337.252 1108.9 338.271 1109.67 338.963C1110.43 339.654 1111.49 340 1112.85 340C1115.7 340 1117.12 338.617 1117.12 335.852C1117.12 332.957 1115.68 331.51 1112.8 331.51C1111.42 331.51 1110.37 331.879 1109.63 332.617C1108.89 333.355 1108.52 334.451 1108.52 335.904ZM1148.31 346.943C1148.83 346.943 1149.33 346.908 1149.81 346.838C1150.29 346.756 1150.67 346.674 1150.95 346.592V348.824C1150.63 348.977 1150.17 349.1 1149.54 349.193C1148.94 349.299 1148.38 349.352 1147.89 349.352C1144.17 349.352 1142.3 347.389 1142.3 343.463V332.002H1139.54V330.596L1142.3 329.383L1143.53 325.27H1145.22V329.734H1150.81V332.002H1145.22V343.34C1145.22 344.5 1145.5 345.391 1146.05 346.012C1146.6 346.633 1147.35 346.943 1148.31 346.943ZM1174.69 339.35C1174.69 342.49 1173.9 344.945 1172.31 346.715C1170.73 348.473 1168.55 349.352 1165.76 349.352C1164.03 349.352 1162.51 348.947 1161.17 348.139C1159.83 347.33 1158.8 346.17 1158.08 344.658C1157.35 343.146 1156.99 341.377 1156.99 339.35C1156.99 336.209 1157.77 333.766 1159.34 332.02C1160.91 330.262 1163.09 329.383 1165.88 329.383C1168.58 329.383 1170.71 330.279 1172.3 332.072C1173.89 333.865 1174.69 336.291 1174.69 339.35ZM1160.01 339.35C1160.01 341.811 1160.5 343.686 1161.49 344.975C1162.47 346.264 1163.92 346.908 1165.83 346.908C1167.74 346.908 1169.19 346.27 1170.17 344.992C1171.17 343.703 1171.66 341.822 1171.66 339.35C1171.66 336.9 1171.17 335.043 1170.17 333.777C1169.19 332.5 1167.73 331.861 1165.79 331.861C1163.88 331.861 1162.44 332.488 1161.47 333.742C1160.5 334.996 1160.01 336.865 1160.01 339.35ZM1207.5 349L1206.92 346.258H1206.78C1205.82 347.465 1204.86 348.285 1203.9 348.719C1202.95 349.141 1201.76 349.352 1200.33 349.352C1198.42 349.352 1196.92 348.859 1195.83 347.875C1194.75 346.891 1194.21 345.49 1194.21 343.674C1194.21 339.783 1197.32 337.744 1203.54 337.557L1206.81 337.451V336.256C1206.81 334.744 1206.49 333.631 1205.83 332.916C1205.18 332.189 1204.15 331.826 1202.72 331.826C1201.11 331.826 1199.3 332.318 1197.27 333.303L1196.37 331.07C1197.32 330.555 1198.36 330.15 1199.48 329.857C1200.62 329.564 1201.76 329.418 1202.89 329.418C1205.19 329.418 1206.89 329.928 1207.99 330.947C1209.1 331.967 1209.66 333.602 1209.66 335.852V349H1207.5ZM1200.91 346.943C1202.72 346.943 1204.15 346.445 1205.18 345.449C1206.22 344.453 1206.74 343.059 1206.74 341.266V339.525L1203.83 339.648C1201.51 339.73 1199.83 340.094 1198.8 340.738C1197.78 341.371 1197.27 342.361 1197.27 343.709C1197.27 344.764 1197.59 345.566 1198.22 346.117C1198.86 346.668 1199.76 346.943 1200.91 346.943ZM1226.63 349.352C1223.84 349.352 1221.68 348.496 1220.14 346.785C1218.62 345.062 1217.86 342.631 1217.86 339.49C1217.86 336.268 1218.63 333.777 1220.18 332.02C1221.74 330.262 1223.95 329.383 1226.82 329.383C1227.75 329.383 1228.67 329.482 1229.6 329.682C1230.53 329.881 1231.25 330.115 1231.78 330.385L1230.88 332.863C1230.24 332.605 1229.54 332.395 1228.77 332.23C1228.01 332.055 1227.34 331.967 1226.75 331.967C1222.84 331.967 1220.88 334.463 1220.88 339.455C1220.88 341.822 1221.36 343.639 1222.31 344.904C1223.27 346.17 1224.68 346.803 1226.56 346.803C1228.17 346.803 1229.81 346.457 1231.5 345.766V348.35C1230.21 349.018 1228.59 349.352 1226.63 349.352ZM1252.51 349V336.537C1252.51 334.967 1252.15 333.795 1251.44 333.021C1250.72 332.248 1249.6 331.861 1248.08 331.861C1246.05 331.861 1244.57 332.412 1243.63 333.514C1242.71 334.615 1242.24 336.42 1242.24 338.928V349H1239.33V321.648H1242.24V329.928C1242.24 330.924 1242.2 331.75 1242.1 332.406H1242.28C1242.85 331.48 1243.67 330.754 1244.72 330.227C1245.79 329.688 1247 329.418 1248.36 329.418C1250.72 329.418 1252.48 329.98 1253.65 331.105C1254.84 332.219 1255.43 333.994 1255.43 336.432V349H1252.51ZM1267.6 349H1264.68V329.734H1267.6V349ZM1264.43 324.514C1264.43 323.846 1264.6 323.359 1264.93 323.055C1265.25 322.738 1265.66 322.58 1266.16 322.58C1266.63 322.58 1267.03 322.738 1267.37 323.055C1267.71 323.371 1267.88 323.857 1267.88 324.514C1267.88 325.17 1267.71 325.662 1267.37 325.99C1267.03 326.307 1266.63 326.465 1266.16 326.465C1265.66 326.465 1265.25 326.307 1264.93 325.99C1264.6 325.662 1264.43 325.17 1264.43 324.514ZM1281.24 349L1273.93 329.734H1277.06L1281.21 341.16C1282.15 343.832 1282.7 345.566 1282.86 346.363H1283C1283.13 345.742 1283.54 344.459 1284.22 342.514C1284.91 340.557 1286.45 336.297 1288.84 329.734H1291.97L1284.65 349H1281.24ZM1306.44 349.352C1303.59 349.352 1301.34 348.484 1299.69 346.75C1298.05 345.016 1297.23 342.607 1297.23 339.525C1297.23 336.42 1297.99 333.953 1299.51 332.125C1301.05 330.297 1303.11 329.383 1305.68 329.383C1308.1 329.383 1310.01 330.18 1311.41 331.773C1312.82 333.355 1313.52 335.447 1313.52 338.049V339.895H1300.25C1300.31 342.156 1300.88 343.873 1301.96 345.045C1303.05 346.217 1304.58 346.803 1306.55 346.803C1308.62 346.803 1310.67 346.369 1312.7 345.502V348.104C1311.67 348.549 1310.69 348.865 1309.76 349.053C1308.85 349.252 1307.74 349.352 1306.44 349.352ZM1305.65 331.826C1304.1 331.826 1302.87 332.33 1301.94 333.338C1301.03 334.346 1300.49 335.74 1300.32 337.521H1310.39C1310.39 335.682 1309.98 334.275 1309.16 333.303C1308.34 332.318 1307.17 331.826 1305.65 331.826ZM485.369 467H482.522V448.684C482.522 447.16 482.568 445.719 482.662 444.359C482.416 444.605 482.141 444.863 481.836 445.133C481.531 445.402 480.137 446.545 477.652 448.561L476.106 446.557L482.908 441.301H485.369V467ZM496.074 465.137C496.074 464.352 496.25 463.76 496.602 463.361C496.965 462.951 497.481 462.746 498.149 462.746C498.828 462.746 499.356 462.951 499.731 463.361C500.117 463.76 500.311 464.352 500.311 465.137C500.311 465.898 500.117 466.484 499.731 466.895C499.344 467.305 498.817 467.51 498.149 467.51C497.551 467.51 497.053 467.328 496.654 466.965C496.268 466.59 496.074 465.98 496.074 465.137ZM529.906 467L521.188 444.219H521.047C521.211 446.023 521.293 448.168 521.293 450.652V467H518.533V441.301H523.033L531.172 462.5H531.312L539.521 441.301H543.986V467H540.998V450.441C540.998 448.543 541.08 446.48 541.244 444.254H541.104L532.314 467H529.906ZM565.701 467L565.121 464.258H564.98C564.019 465.465 563.058 466.285 562.097 466.719C561.148 467.141 559.959 467.352 558.529 467.352C556.619 467.352 555.119 466.859 554.029 465.875C552.951 464.891 552.412 463.49 552.412 461.674C552.412 457.783 555.523 455.744 561.746 455.557L565.015 455.451V454.256C565.015 452.744 564.687 451.631 564.031 450.916C563.386 450.189 562.349 449.826 560.92 449.826C559.314 449.826 557.498 450.318 555.47 451.303L554.574 449.07C555.523 448.555 556.56 448.15 557.685 447.857C558.822 447.564 559.959 447.418 561.095 447.418C563.392 447.418 565.092 447.928 566.193 448.947C567.306 449.967 567.863 451.602 567.863 453.852V467H565.701ZM559.109 464.943C560.926 464.943 562.349 464.445 563.381 463.449C564.424 462.453 564.945 461.059 564.945 459.266V457.525L562.027 457.648C559.707 457.73 558.031 458.094 557 458.738C555.98 459.371 555.47 460.361 555.47 461.709C555.47 462.764 555.787 463.566 556.42 464.117C557.064 464.668 557.961 464.943 559.109 464.943ZM585.921 447.383C586.777 447.383 587.544 447.453 588.224 447.594L587.82 450.301C587.023 450.125 586.32 450.037 585.71 450.037C584.152 450.037 582.816 450.67 581.703 451.936C580.601 453.201 580.05 454.777 580.05 456.664V467H577.132V447.734H579.541L579.875 451.303H580.015C580.73 450.049 581.591 449.082 582.599 448.402C583.607 447.723 584.714 447.383 585.921 447.383ZM597.95 457.139C598.454 456.424 599.222 455.486 600.253 454.326L606.476 447.734H609.939L602.134 455.943L610.484 467H606.95L600.148 457.895L597.95 459.793V467H595.068V439.648H597.95V454.15C597.95 454.795 597.904 455.791 597.81 457.139H597.95ZM632.731 467H629.813V447.734H632.731V467ZM629.567 442.514C629.567 441.846 629.731 441.359 630.059 441.055C630.387 440.738 630.798 440.58 631.29 440.58C631.759 440.58 632.163 440.738 632.503 441.055C632.843 441.371 633.012 441.857 633.012 442.514C633.012 443.17 632.843 443.662 632.503 443.99C632.163 444.307 631.759 444.465 631.29 444.465C630.798 444.465 630.387 444.307 630.059 443.99C629.731 443.662 629.567 443.17 629.567 442.514ZM655.342 467V454.537C655.342 452.967 654.985 451.795 654.27 451.021C653.555 450.248 652.436 449.861 650.913 449.861C648.897 449.861 647.42 450.406 646.483 451.496C645.545 452.586 645.077 454.385 645.077 456.893V467H642.159V447.734H644.532L645.006 450.371H645.147C645.745 449.422 646.583 448.689 647.661 448.174C648.739 447.646 649.94 447.383 651.264 447.383C653.585 447.383 655.331 447.945 656.503 449.07C657.674 450.184 658.26 451.971 658.26 454.432V467H655.342ZM673.735 464.943C674.25 464.943 674.748 464.908 675.229 464.838C675.709 464.756 676.09 464.674 676.371 464.592V466.824C676.055 466.977 675.586 467.1 674.965 467.193C674.356 467.299 673.805 467.352 673.313 467.352C669.586 467.352 667.723 465.389 667.723 461.463V450.002H664.963V448.596L667.723 447.383L668.953 443.27H670.641V447.734H676.231V450.002H670.641V461.34C670.641 462.5 670.916 463.391 671.467 464.012C672.018 464.633 672.774 464.943 673.735 464.943ZM691.617 467.352C688.77 467.352 686.52 466.484 684.867 464.75C683.227 463.016 682.406 460.607 682.406 457.525C682.406 454.42 683.168 451.953 684.691 450.125C686.227 448.297 688.283 447.383 690.861 447.383C693.275 447.383 695.186 448.18 696.592 449.773C697.998 451.355 698.701 453.447 698.701 456.049V457.895H685.43C685.488 460.156 686.057 461.873 687.135 463.045C688.225 464.217 689.754 464.803 691.723 464.803C693.797 464.803 695.848 464.369 697.875 463.502V466.104C696.844 466.549 695.865 466.865 694.94 467.053C694.025 467.252 692.918 467.352 691.617 467.352ZM690.826 449.826C689.279 449.826 688.043 450.33 687.117 451.338C686.203 452.346 685.664 453.74 685.5 455.521H695.572C695.572 453.682 695.162 452.275 694.342 451.303C693.522 450.318 692.35 449.826 690.826 449.826ZM715.723 447.383C716.578 447.383 717.346 447.453 718.025 447.594L717.621 450.301C716.824 450.125 716.121 450.037 715.512 450.037C713.953 450.037 712.617 450.67 711.504 451.936C710.402 453.201 709.851 454.777 709.851 456.664V467H706.933V447.734H709.342L709.676 451.303H709.816C710.531 450.049 711.392 449.082 712.4 448.402C713.408 447.723 714.515 447.383 715.723 447.383ZM733.007 467.352C730.16 467.352 727.91 466.484 726.257 464.75C724.617 463.016 723.796 460.607 723.796 457.525C723.796 454.42 724.558 451.953 726.082 450.125C727.617 448.297 729.673 447.383 732.252 447.383C734.666 447.383 736.576 448.18 737.982 449.773C739.388 451.355 740.091 453.447 740.091 456.049V457.895H726.82C726.879 460.156 727.447 461.873 728.525 463.045C729.615 464.217 731.144 464.803 733.113 464.803C735.187 464.803 737.238 464.369 739.265 463.502V466.104C738.234 466.549 737.255 466.865 736.33 467.053C735.416 467.252 734.308 467.352 733.007 467.352ZM732.216 449.826C730.67 449.826 729.433 450.33 728.507 451.338C727.593 452.346 727.054 453.74 726.89 455.521H736.962C736.962 453.682 736.552 452.275 735.732 451.303C734.912 450.318 733.74 449.826 732.216 449.826ZM760.751 461.744C760.751 463.537 760.083 464.92 758.747 465.893C757.411 466.865 755.536 467.352 753.122 467.352C750.568 467.352 748.576 466.947 747.146 466.139V463.432C748.072 463.9 749.062 464.27 750.117 464.539C751.183 464.809 752.208 464.943 753.193 464.943C754.716 464.943 755.888 464.703 756.708 464.223C757.529 463.73 757.939 462.986 757.939 461.99C757.939 461.24 757.611 460.602 756.954 460.074C756.31 459.535 755.044 458.902 753.158 458.176C751.365 457.508 750.087 456.928 749.326 456.436C748.576 455.932 748.013 455.363 747.638 454.73C747.275 454.098 747.093 453.342 747.093 452.463C747.093 450.893 747.732 449.656 749.009 448.754C750.286 447.84 752.038 447.383 754.265 447.383C756.339 447.383 758.367 447.805 760.347 448.648L759.31 451.021C757.376 450.225 755.624 449.826 754.054 449.826C752.671 449.826 751.628 450.043 750.925 450.477C750.222 450.91 749.87 451.508 749.87 452.27C749.87 452.785 749.999 453.225 750.257 453.588C750.527 453.951 750.954 454.297 751.54 454.625C752.126 454.953 753.251 455.428 754.915 456.049C757.201 456.881 758.742 457.719 759.538 458.562C760.347 459.406 760.751 460.467 760.751 461.744ZM774.978 464.943C775.493 464.943 775.991 464.908 776.472 464.838C776.952 464.756 777.333 464.674 777.614 464.592V466.824C777.298 466.977 776.829 467.1 776.208 467.193C775.599 467.299 775.048 467.352 774.556 467.352C770.829 467.352 768.966 465.389 768.966 461.463V450.002H766.206V448.596L768.966 447.383L770.196 443.27H771.884V447.734H777.474V450.002H771.884V461.34C771.884 462.5 772.159 463.391 772.71 464.012C773.261 464.633 774.017 464.943 774.978 464.943ZM787.64 467H784.722V447.734H787.64V467ZM784.475 442.514C784.475 441.846 784.64 441.359 784.968 441.055C785.296 440.738 785.706 440.58 786.198 440.58C786.667 440.58 787.071 440.738 787.411 441.055C787.751 441.371 787.921 441.857 787.921 442.514C787.921 443.17 787.751 443.662 787.411 443.99C787.071 444.307 786.667 444.465 786.198 444.465C785.706 444.465 785.296 444.307 784.968 443.99C784.64 443.662 784.475 443.17 784.475 442.514ZM810.251 467V454.537C810.251 452.967 809.893 451.795 809.178 451.021C808.464 450.248 807.344 449.861 805.821 449.861C803.805 449.861 802.329 450.406 801.391 451.496C800.454 452.586 799.985 454.385 799.985 456.893V467H797.067V447.734H799.44L799.915 450.371H800.055C800.653 449.422 801.491 448.689 802.569 448.174C803.647 447.646 804.848 447.383 806.172 447.383C808.493 447.383 810.239 447.945 811.411 449.07C812.583 450.184 813.169 451.971 813.169 454.432V467H810.251ZM838.188 447.734V449.58L834.62 450.002C834.948 450.412 835.241 450.951 835.498 451.619C835.756 452.275 835.885 453.02 835.885 453.852C835.885 455.738 835.241 457.244 833.952 458.369C832.663 459.494 830.893 460.057 828.643 460.057C828.069 460.057 827.53 460.01 827.026 459.916C825.784 460.572 825.163 461.398 825.163 462.395C825.163 462.922 825.379 463.314 825.813 463.572C826.246 463.818 826.991 463.941 828.045 463.941H831.455C833.541 463.941 835.141 464.381 836.254 465.26C837.379 466.139 837.942 467.416 837.942 469.092C837.942 471.225 837.086 472.848 835.375 473.961C833.664 475.086 831.168 475.648 827.887 475.648C825.368 475.648 823.422 475.18 822.051 474.242C820.692 473.305 820.012 471.98 820.012 470.27C820.012 469.098 820.387 468.084 821.137 467.229C821.887 466.373 822.942 465.793 824.301 465.488C823.809 465.266 823.393 464.92 823.053 464.451C822.725 463.982 822.561 463.438 822.561 462.816C822.561 462.113 822.748 461.498 823.123 460.971C823.498 460.443 824.09 459.934 824.899 459.441C823.903 459.031 823.088 458.334 822.455 457.35C821.834 456.365 821.524 455.24 821.524 453.975C821.524 451.865 822.157 450.242 823.422 449.105C824.688 447.957 826.481 447.383 828.801 447.383C829.809 447.383 830.717 447.5 831.526 447.734H838.188ZM822.825 470.234C822.825 471.277 823.264 472.068 824.143 472.607C825.022 473.146 826.282 473.416 827.922 473.416C830.371 473.416 832.182 473.047 833.354 472.309C834.538 471.582 835.129 470.592 835.129 469.338C835.129 468.295 834.807 467.568 834.163 467.158C833.518 466.76 832.305 466.561 830.524 466.561H827.026C825.702 466.561 824.67 466.877 823.932 467.51C823.194 468.143 822.825 469.051 822.825 470.234ZM824.407 453.904C824.407 455.252 824.788 456.271 825.549 456.963C826.311 457.654 827.371 458 828.731 458C831.579 458 833.002 456.617 833.002 453.852C833.002 450.957 831.561 449.51 828.678 449.51C827.307 449.51 826.252 449.879 825.514 450.617C824.776 451.355 824.407 452.451 824.407 453.904ZM860.857 457.139C861.361 456.424 862.129 455.486 863.16 454.326L869.383 447.734H872.846L865.041 455.943L873.391 467H869.857L863.055 457.895L860.857 459.793V467H857.975V439.648H860.857V454.15C860.857 454.795 860.81 455.791 860.717 457.139H860.857ZM888.267 467.352C885.42 467.352 883.17 466.484 881.517 464.75C879.877 463.016 879.056 460.607 879.056 457.525C879.056 454.42 879.818 451.953 881.341 450.125C882.877 448.297 884.933 447.383 887.511 447.383C889.925 447.383 891.836 448.18 893.242 449.773C894.648 451.355 895.351 453.447 895.351 456.049V457.895H882.08C882.138 460.156 882.707 461.873 883.785 463.045C884.875 464.217 886.404 464.803 888.373 464.803C890.447 464.803 892.498 464.369 894.525 463.502V466.104C893.494 466.549 892.515 466.865 891.59 467.053C890.675 467.252 889.568 467.352 888.267 467.352ZM887.476 449.826C885.929 449.826 884.693 450.33 883.767 451.338C882.853 452.346 882.314 453.74 882.15 455.521H892.222C892.222 453.682 891.812 452.275 890.992 451.303C890.172 450.318 889 449.826 887.476 449.826ZM900.525 447.734H903.654L907.872 458.721C908.798 461.229 909.372 463.039 909.595 464.152H909.736C909.888 463.555 910.205 462.535 910.685 461.094C911.177 459.641 912.771 455.188 915.466 447.734H918.595L910.316 469.672C909.496 471.84 908.535 473.375 907.433 474.277C906.343 475.191 905.001 475.648 903.408 475.648C902.517 475.648 901.638 475.549 900.771 475.35V473.012C901.415 473.152 902.136 473.223 902.933 473.223C904.937 473.223 906.367 472.098 907.222 469.848L908.294 467.105L900.525 447.734ZM940.696 467L937.163 455.697C936.941 455.006 936.525 453.436 935.915 450.986H935.775C935.306 453.037 934.896 454.619 934.544 455.732L930.905 467H927.53L922.275 447.734H925.333C926.575 452.574 927.519 456.26 928.163 458.791C928.82 461.322 929.195 463.027 929.288 463.906H929.429C929.558 463.238 929.763 462.377 930.044 461.322C930.337 460.256 930.589 459.412 930.8 458.791L934.333 447.734H937.497L940.943 458.791C941.599 460.807 942.044 462.5 942.279 463.871H942.419C942.466 463.449 942.589 462.799 942.788 461.92C942.999 461.041 944.224 456.312 946.462 447.734H949.486L944.159 467H940.696ZM972.853 457.35C972.853 460.49 972.061 462.945 970.479 464.715C968.897 466.473 966.712 467.352 963.923 467.352C962.2 467.352 960.671 466.947 959.335 466.139C957.999 465.33 956.968 464.17 956.241 462.658C955.515 461.146 955.151 459.377 955.151 457.35C955.151 454.209 955.936 451.766 957.507 450.02C959.077 448.262 961.257 447.383 964.046 447.383C966.741 447.383 968.88 448.279 970.462 450.072C972.056 451.865 972.853 454.291 972.853 457.35ZM958.175 457.35C958.175 459.811 958.667 461.686 959.651 462.975C960.636 464.264 962.083 464.908 963.993 464.908C965.903 464.908 967.351 464.27 968.335 462.992C969.331 461.703 969.829 459.822 969.829 457.35C969.829 454.9 969.331 453.043 968.335 451.777C967.351 450.5 965.892 449.861 963.958 449.861C962.048 449.861 960.606 450.488 959.634 451.742C958.661 452.996 958.175 454.865 958.175 457.35ZM990.014 447.383C990.87 447.383 991.637 447.453 992.317 447.594L991.913 450.301C991.116 450.125 990.413 450.037 989.803 450.037C988.245 450.037 986.909 450.67 985.796 451.936C984.694 453.201 984.143 454.777 984.143 456.664V467H981.225V447.734H983.634L983.968 451.303H984.108C984.823 450.049 985.684 449.082 986.692 448.402C987.7 447.723 988.807 447.383 990.014 447.383ZM1012.27 464.416H1012.12C1010.77 466.373 1008.75 467.352 1006.07 467.352C1003.55 467.352 1001.59 466.49 1000.18 464.768C998.786 463.045 998.088 460.596 998.088 457.42C998.088 454.244 998.792 451.777 1000.2 450.02C1001.6 448.262 1003.56 447.383 1006.07 447.383C1008.68 447.383 1010.69 448.332 1012.08 450.23H1012.31L1012.19 448.842L1012.12 447.488V439.648H1015.03V467H1012.66L1012.27 464.416ZM1006.44 464.908C1008.43 464.908 1009.87 464.369 1010.76 463.291C1011.66 462.201 1012.12 460.449 1012.12 458.035V457.42C1012.12 454.689 1011.66 452.744 1010.74 451.584C1009.84 450.412 1008.4 449.826 1006.4 449.826C1004.69 449.826 1003.38 450.494 1002.47 451.83C1001.56 453.154 1001.11 455.029 1001.11 457.455C1001.11 459.916 1001.56 461.773 1002.47 463.027C1003.37 464.281 1004.69 464.908 1006.44 464.908ZM1036.91 461.744C1036.91 463.537 1036.24 464.92 1034.9 465.893C1033.57 466.865 1031.69 467.352 1029.28 467.352C1026.72 467.352 1024.73 466.947 1023.3 466.139V463.432C1024.23 463.9 1025.22 464.27 1026.27 464.539C1027.34 464.809 1028.36 464.943 1029.35 464.943C1030.87 464.943 1032.04 464.703 1032.86 464.223C1033.68 463.73 1034.09 462.986 1034.09 461.99C1034.09 461.24 1033.77 460.602 1033.11 460.074C1032.47 459.535 1031.2 458.902 1029.31 458.176C1027.52 457.508 1026.24 456.928 1025.48 456.436C1024.73 455.932 1024.17 455.363 1023.79 454.73C1023.43 454.098 1023.25 453.342 1023.25 452.463C1023.25 450.893 1023.89 449.656 1025.16 448.754C1026.44 447.84 1028.19 447.383 1030.42 447.383C1032.49 447.383 1034.52 447.805 1036.5 448.648L1035.47 451.021C1033.53 450.225 1031.78 449.826 1030.21 449.826C1028.83 449.826 1027.78 450.043 1027.08 450.477C1026.38 450.91 1026.03 451.508 1026.03 452.27C1026.03 452.785 1026.15 453.225 1026.41 453.588C1026.68 453.951 1027.11 454.297 1027.7 454.625C1028.28 454.953 1029.41 455.428 1031.07 456.049C1033.36 456.881 1034.9 457.719 1035.69 458.562C1036.5 459.406 1036.91 460.467 1036.91 461.744ZM1066.19 450.002H1061.28V467H1058.36V450.002H1054.92V448.684L1058.36 447.629V446.557C1058.36 441.822 1060.43 439.455 1064.57 439.455C1065.59 439.455 1066.78 439.66 1068.15 440.07L1067.4 442.408C1066.27 442.045 1065.31 441.863 1064.52 441.863C1063.41 441.863 1062.6 442.232 1062.07 442.971C1061.54 443.697 1061.28 444.869 1061.28 446.486V447.734H1066.19V450.002ZM1081.73 447.383C1082.59 447.383 1083.35 447.453 1084.03 447.594L1083.63 450.301C1082.83 450.125 1082.13 450.037 1081.52 450.037C1079.96 450.037 1078.62 450.67 1077.51 451.936C1076.41 453.201 1075.86 454.777 1075.86 456.664V467H1072.94V447.734H1075.35L1075.68 451.303H1075.82C1076.54 450.049 1077.4 449.082 1078.41 448.402C1079.42 447.723 1080.52 447.383 1081.73 447.383ZM1107.51 457.35C1107.51 460.49 1106.71 462.945 1105.13 464.715C1103.55 466.473 1101.36 467.352 1098.58 467.352C1096.85 467.352 1095.32 466.947 1093.99 466.139C1092.65 465.33 1091.62 464.17 1090.89 462.658C1090.17 461.146 1089.8 459.377 1089.8 457.35C1089.8 454.209 1090.59 451.766 1092.16 450.02C1093.73 448.262 1095.91 447.383 1098.7 447.383C1101.39 447.383 1103.53 448.279 1105.11 450.072C1106.71 451.865 1107.51 454.291 1107.51 457.35ZM1092.83 457.35C1092.83 459.811 1093.32 461.686 1094.3 462.975C1095.29 464.264 1096.74 464.908 1098.65 464.908C1100.56 464.908 1102 464.27 1102.99 462.992C1103.98 461.703 1104.48 459.822 1104.48 457.35C1104.48 454.9 1103.98 453.043 1102.99 451.777C1102 450.5 1100.54 449.861 1098.61 449.861C1096.7 449.861 1095.26 450.488 1094.29 451.742C1093.31 452.996 1092.83 454.865 1092.83 457.35ZM1140.43 467V454.467C1140.43 452.932 1140.11 451.783 1139.45 451.021C1138.79 450.248 1137.77 449.861 1136.39 449.861C1134.58 449.861 1133.23 450.383 1132.37 451.426C1131.5 452.469 1131.07 454.074 1131.07 456.242V467H1128.15V454.467C1128.15 452.932 1127.82 451.783 1127.16 451.021C1126.51 450.248 1125.48 449.861 1124.09 449.861C1122.26 449.861 1120.92 450.412 1120.06 451.514C1119.22 452.604 1118.8 454.396 1118.8 456.893V467H1115.88V447.734H1118.25L1118.73 450.371H1118.87C1119.42 449.434 1120.19 448.701 1121.19 448.174C1122.19 447.646 1123.32 447.383 1124.56 447.383C1127.57 447.383 1129.54 448.473 1130.47 450.652H1130.61C1131.18 449.645 1132.01 448.848 1133.1 448.262C1134.19 447.676 1135.44 447.383 1136.83 447.383C1139.01 447.383 1140.64 447.945 1141.72 449.07C1142.81 450.184 1143.35 451.971 1143.35 454.432V467H1140.43ZM1171.44 464.943C1171.95 464.943 1172.45 464.908 1172.93 464.838C1173.41 464.756 1173.79 464.674 1174.07 464.592V466.824C1173.76 466.977 1173.29 467.1 1172.67 467.193C1172.06 467.299 1171.51 467.352 1171.01 467.352C1167.29 467.352 1165.42 465.389 1165.42 461.463V450.002H1162.66V448.596L1165.42 447.383L1166.65 443.27H1168.34V447.734H1173.93V450.002H1168.34V461.34C1168.34 462.5 1168.62 463.391 1169.17 464.012C1169.72 464.633 1170.48 464.943 1171.44 464.943ZM1194.36 467V454.537C1194.36 452.967 1194.01 451.795 1193.29 451.021C1192.58 450.248 1191.46 449.861 1189.93 449.861C1187.91 449.861 1186.42 450.412 1185.49 451.514C1184.56 452.615 1184.1 454.42 1184.1 456.928V467H1181.18V439.648H1184.1V447.928C1184.1 448.924 1184.05 449.75 1183.96 450.406H1184.13C1184.71 449.48 1185.52 448.754 1186.58 448.227C1187.64 447.688 1188.86 447.418 1190.22 447.418C1192.57 447.418 1194.33 447.98 1195.51 449.105C1196.69 450.219 1197.28 451.994 1197.28 454.432V467H1194.36ZM1214.67 467.352C1211.82 467.352 1209.57 466.484 1207.92 464.75C1206.28 463.016 1205.46 460.607 1205.46 457.525C1205.46 454.42 1206.22 451.953 1207.75 450.125C1209.28 448.297 1211.34 447.383 1213.92 447.383C1216.33 447.383 1218.24 448.18 1219.65 449.773C1221.05 451.355 1221.76 453.447 1221.76 456.049V457.895H1208.48C1208.54 460.156 1209.11 461.873 1210.19 463.045C1211.28 464.217 1212.81 464.803 1214.78 464.803C1216.85 464.803 1218.9 464.369 1220.93 463.502V466.104C1219.9 466.549 1218.92 466.865 1217.99 467.053C1217.08 467.252 1215.97 467.352 1214.67 467.352ZM1213.88 449.826C1212.33 449.826 1211.1 450.33 1210.17 451.338C1209.26 452.346 1208.72 453.74 1208.55 455.521H1218.63C1218.63 453.682 1218.22 452.275 1217.4 451.303C1216.58 450.318 1215.4 449.826 1213.88 449.826ZM1245.5 467H1242.58V447.734H1245.5V467ZM1242.33 442.514C1242.33 441.846 1242.5 441.359 1242.83 441.055C1243.15 440.738 1243.56 440.58 1244.06 440.58C1244.53 440.58 1244.93 440.738 1245.27 441.055C1245.61 441.371 1245.78 441.857 1245.78 442.514C1245.78 443.17 1245.61 443.662 1245.27 443.99C1244.93 444.307 1244.53 444.465 1244.06 444.465C1243.56 444.465 1243.15 444.307 1242.83 443.99C1242.5 443.662 1242.33 443.17 1242.33 442.514ZM1268.11 467V454.537C1268.11 452.967 1267.75 451.795 1267.04 451.021C1266.32 450.248 1265.2 449.861 1263.68 449.861C1261.66 449.861 1260.19 450.406 1259.25 451.496C1258.31 452.586 1257.84 454.385 1257.84 456.893V467H1254.93V447.734H1257.3L1257.77 450.371H1257.91C1258.51 449.422 1259.35 448.689 1260.43 448.174C1261.51 447.646 1262.71 447.383 1264.03 447.383C1266.35 447.383 1268.1 447.945 1269.27 449.07C1270.44 450.184 1271.03 451.971 1271.03 454.432V467H1268.11ZM1286.5 464.943C1287.02 464.943 1287.51 464.908 1288 464.838C1288.48 464.756 1288.86 464.674 1289.14 464.592V466.824C1288.82 466.977 1288.35 467.1 1287.73 467.193C1287.12 467.299 1286.57 467.352 1286.08 467.352C1282.35 467.352 1280.49 465.389 1280.49 461.463V450.002H1277.73V448.596L1280.49 447.383L1281.72 443.27H1283.41V447.734H1289V450.002H1283.41V461.34C1283.41 462.5 1283.68 463.391 1284.23 464.012C1284.78 464.633 1285.54 464.943 1286.5 464.943ZM1304.38 467.352C1301.54 467.352 1299.29 466.484 1297.63 464.75C1295.99 463.016 1295.17 460.607 1295.17 457.525C1295.17 454.42 1295.93 451.953 1297.46 450.125C1298.99 448.297 1301.05 447.383 1303.63 447.383C1306.04 447.383 1307.95 448.18 1309.36 449.773C1310.76 451.355 1311.47 453.447 1311.47 456.049V457.895H1298.2C1298.25 460.156 1298.82 461.873 1299.9 463.045C1300.99 464.217 1302.52 464.803 1304.49 464.803C1306.56 464.803 1308.61 464.369 1310.64 463.502V466.104C1309.61 466.549 1308.63 466.865 1307.71 467.053C1306.79 467.252 1305.68 467.352 1304.38 467.352ZM1303.59 449.826C1302.05 449.826 1300.81 450.33 1299.88 451.338C1298.97 452.346 1298.43 453.74 1298.27 455.521H1308.34C1308.34 453.682 1307.93 452.275 1307.11 451.303C1306.29 450.318 1305.12 449.826 1303.59 449.826ZM1328.49 447.383C1329.34 447.383 1330.11 447.453 1330.79 447.594L1330.39 450.301C1329.59 450.125 1328.89 450.037 1328.28 450.037C1326.72 450.037 1325.38 450.67 1324.27 451.936C1323.17 453.201 1322.62 454.777 1322.62 456.664V467H1319.7V447.734H1322.11L1322.44 451.303H1322.58C1323.3 450.049 1324.16 449.082 1325.17 448.402C1326.17 447.723 1327.28 447.383 1328.49 447.383ZM1341.85 467L1334.54 447.734H1337.67L1341.82 459.16C1342.76 461.832 1343.31 463.566 1343.47 464.363H1343.61C1343.74 463.742 1344.14 462.459 1344.82 460.514C1345.52 458.557 1347.06 454.297 1349.45 447.734H1352.58L1345.26 467H1341.85ZM1361.83 467H1358.91V447.734H1361.83V467ZM1358.66 442.514C1358.66 441.846 1358.83 441.359 1359.16 441.055C1359.48 440.738 1359.89 440.58 1360.39 440.58C1360.86 440.58 1361.26 440.738 1361.6 441.055C1361.94 441.371 1362.11 441.857 1362.11 442.514C1362.11 443.17 1361.94 443.662 1361.6 443.99C1361.26 444.307 1360.86 444.465 1360.39 444.465C1359.89 444.465 1359.48 444.307 1359.16 443.99C1358.83 443.662 1358.66 443.17 1358.66 442.514ZM1379.39 467.352C1376.55 467.352 1374.3 466.484 1372.64 464.75C1371 463.016 1370.18 460.607 1370.18 457.525C1370.18 454.42 1370.95 451.953 1372.47 450.125C1374 448.297 1376.06 447.383 1378.64 447.383C1381.05 447.383 1382.96 448.18 1384.37 449.773C1385.78 451.355 1386.48 453.447 1386.48 456.049V457.895H1373.21C1373.27 460.156 1373.83 461.873 1374.91 463.045C1376 464.217 1377.53 464.803 1379.5 464.803C1381.57 464.803 1383.62 464.369 1385.65 463.502V466.104C1384.62 466.549 1383.64 466.865 1382.72 467.053C1381.8 467.252 1380.7 467.352 1379.39 467.352ZM1378.6 449.826C1377.06 449.826 1375.82 450.33 1374.89 451.338C1373.98 452.346 1373.44 453.74 1373.28 455.521H1383.35C1383.35 453.682 1382.94 452.275 1382.12 451.303C1381.3 450.318 1380.13 449.826 1378.6 449.826ZM1410.44 467L1406.91 455.697C1406.69 455.006 1406.27 453.436 1405.66 450.986H1405.52C1405.05 453.037 1404.64 454.619 1404.29 455.732L1400.65 467H1397.28L1392.02 447.734H1395.08C1396.32 452.574 1397.27 456.26 1397.91 458.791C1398.57 461.322 1398.94 463.027 1399.03 463.906H1399.18C1399.3 463.238 1399.51 462.377 1399.79 461.322C1400.08 460.256 1400.34 459.412 1400.55 458.791L1404.08 447.734H1407.24L1410.69 458.791C1411.35 460.807 1411.79 462.5 1412.03 463.871H1412.17C1412.21 463.449 1412.34 462.799 1412.53 461.92C1412.75 461.041 1413.97 456.312 1416.21 447.734H1419.23L1413.91 467H1410.44ZM491.451 516H474.559V513.486L481.326 506.684C483.389 504.598 484.748 503.109 485.404 502.219C486.061 501.328 486.553 500.461 486.881 499.617C487.209 498.773 487.373 497.865 487.373 496.893C487.373 495.521 486.957 494.438 486.125 493.641C485.293 492.832 484.139 492.428 482.662 492.428C481.596 492.428 480.582 492.604 479.621 492.955C478.672 493.307 477.611 493.945 476.44 494.871L474.893 492.885C477.26 490.916 479.838 489.932 482.627 489.932C485.041 489.932 486.934 490.553 488.305 491.795C489.676 493.025 490.361 494.684 490.361 496.77C490.361 498.398 489.904 500.01 488.99 501.604C488.076 503.197 486.365 505.213 483.858 507.65L478.233 513.152V513.293H491.451V516ZM496.074 514.137C496.074 513.352 496.25 512.76 496.602 512.361C496.965 511.951 497.481 511.746 498.149 511.746C498.828 511.746 499.356 511.951 499.731 512.361C500.117 512.76 500.311 513.352 500.311 514.137C500.311 514.898 500.117 515.484 499.731 515.895C499.344 516.305 498.817 516.51 498.149 516.51C497.551 516.51 497.053 516.328 496.654 515.965C496.268 515.59 496.074 514.98 496.074 514.137ZM534.688 516L531.488 507.826H521.188L518.023 516H515L525.16 490.195H527.674L537.781 516H534.688ZM530.557 505.137L527.568 497.174C527.182 496.166 526.783 494.93 526.373 493.465C526.115 494.59 525.746 495.826 525.266 497.174L522.242 505.137H530.557ZM557.299 516V503.537C557.299 501.967 556.941 500.795 556.226 500.021C555.511 499.248 554.392 498.861 552.869 498.861C550.853 498.861 549.377 499.406 548.439 500.496C547.502 501.586 547.033 503.385 547.033 505.893V516H544.115V496.734H546.488L546.963 499.371H547.103C547.701 498.422 548.539 497.689 549.617 497.174C550.695 496.646 551.896 496.383 553.22 496.383C555.541 496.383 557.287 496.945 558.459 498.07C559.631 499.184 560.217 500.971 560.217 503.432V516H557.299ZM581.316 516L580.736 513.258H580.595C579.634 514.465 578.673 515.285 577.712 515.719C576.763 516.141 575.574 516.352 574.144 516.352C572.234 516.352 570.734 515.859 569.644 514.875C568.566 513.891 568.027 512.49 568.027 510.674C568.027 506.783 571.138 504.744 577.361 504.557L580.63 504.451V503.256C580.63 501.744 580.302 500.631 579.646 499.916C579.001 499.189 577.964 498.826 576.535 498.826C574.929 498.826 573.113 499.318 571.085 500.303L570.189 498.07C571.138 497.555 572.175 497.15 573.3 496.857C574.437 496.564 575.574 496.418 576.71 496.418C579.007 496.418 580.707 496.928 581.808 497.947C582.921 498.967 583.478 500.602 583.478 502.852V516H581.316ZM574.724 513.943C576.541 513.943 577.964 513.445 578.996 512.449C580.039 511.453 580.56 510.059 580.56 508.266V506.525L577.642 506.648C575.322 506.73 573.646 507.094 572.615 507.738C571.595 508.371 571.085 509.361 571.085 510.709C571.085 511.764 571.402 512.566 572.035 513.117C572.679 513.668 573.576 513.943 574.724 513.943ZM595.665 516H592.747V488.648H595.665V516ZM602.034 496.734H605.163L609.382 507.721C610.308 510.229 610.882 512.039 611.105 513.152H611.245C611.398 512.555 611.714 511.535 612.194 510.094C612.687 508.641 614.28 504.188 616.976 496.734H620.105L611.825 518.672C611.005 520.84 610.044 522.375 608.942 523.277C607.853 524.191 606.511 524.648 604.917 524.648C604.026 524.648 603.148 524.549 602.28 524.35V522.012C602.925 522.152 603.646 522.223 604.442 522.223C606.446 522.223 607.876 521.098 608.731 518.848L609.804 516.105L602.034 496.734ZM638.796 516H624.821V514.014L635.333 499.002H625.471V496.734H638.532V499.002L628.161 513.732H638.796V516ZM654.692 516.352C651.844 516.352 649.594 515.484 647.942 513.75C646.301 512.016 645.481 509.607 645.481 506.525C645.481 503.42 646.243 500.953 647.766 499.125C649.301 497.297 651.358 496.383 653.936 496.383C656.35 496.383 658.26 497.18 659.667 498.773C661.073 500.355 661.776 502.447 661.776 505.049V506.895H648.504C648.563 509.156 649.131 510.873 650.21 512.045C651.299 513.217 652.829 513.803 654.797 513.803C656.872 513.803 658.922 513.369 660.95 512.502V515.104C659.919 515.549 658.94 515.865 658.014 516.053C657.1 516.252 655.993 516.352 654.692 516.352ZM653.901 498.826C652.354 498.826 651.118 499.33 650.192 500.338C649.278 501.346 648.739 502.74 648.575 504.521H658.647C658.647 502.682 658.237 501.275 657.417 500.303C656.596 499.318 655.424 498.826 653.901 498.826ZM685.482 506.139C685.986 505.424 686.754 504.486 687.785 503.326L694.008 496.734H697.471L689.666 504.943L698.016 516H694.482L687.68 506.895L685.482 508.793V516H682.6V488.648H685.482V503.15C685.482 503.795 685.436 504.791 685.342 506.139H685.482ZM712.892 516.352C710.045 516.352 707.795 515.484 706.142 513.75C704.502 512.016 703.681 509.607 703.681 506.525C703.681 503.42 704.443 500.953 705.967 499.125C707.502 497.297 709.558 496.383 712.137 496.383C714.551 496.383 716.461 497.18 717.867 498.773C719.273 500.355 719.976 502.447 719.976 505.049V506.895H706.705C706.764 509.156 707.332 510.873 708.41 512.045C709.5 513.217 711.029 513.803 712.998 513.803C715.072 513.803 717.123 513.369 719.15 512.502V515.104C718.119 515.549 717.14 515.865 716.215 516.053C715.301 516.252 714.193 516.352 712.892 516.352ZM712.101 498.826C710.555 498.826 709.318 499.33 708.392 500.338C707.478 501.346 706.939 502.74 706.775 504.521H716.848C716.848 502.682 716.437 501.275 715.617 500.303C714.797 499.318 713.625 498.826 712.101 498.826ZM725.15 496.734H728.279L732.498 507.721C733.423 510.229 733.998 512.039 734.22 513.152H734.361C734.513 512.555 734.83 511.535 735.31 510.094C735.802 508.641 737.396 504.188 740.091 496.734H743.22L734.941 518.672C734.121 520.84 733.16 522.375 732.058 523.277C730.968 524.191 729.627 524.648 728.033 524.648C727.142 524.648 726.263 524.549 725.396 524.35V522.012C726.041 522.152 726.761 522.223 727.558 522.223C729.562 522.223 730.992 521.098 731.847 518.848L732.92 516.105L725.15 496.734ZM765.322 516L761.788 504.697C761.566 504.006 761.15 502.436 760.54 499.986H760.4C759.931 502.037 759.521 503.619 759.169 504.732L755.531 516H752.156L746.9 496.734H749.958C751.201 501.574 752.144 505.26 752.788 507.791C753.445 510.322 753.82 512.027 753.913 512.906H754.054C754.183 512.238 754.388 511.377 754.669 510.322C754.962 509.256 755.214 508.412 755.425 507.791L758.958 496.734H762.122L765.568 507.791C766.224 509.807 766.669 511.5 766.904 512.871H767.044C767.091 512.449 767.214 511.799 767.413 510.92C767.624 510.041 768.849 505.312 771.087 496.734H774.111L768.785 516H765.322ZM797.478 506.35C797.478 509.49 796.687 511.945 795.105 513.715C793.523 515.473 791.337 516.352 788.548 516.352C786.825 516.352 785.296 515.947 783.96 515.139C782.624 514.33 781.593 513.17 780.866 511.658C780.14 510.146 779.776 508.377 779.776 506.35C779.776 503.209 780.562 500.766 782.132 499.02C783.702 497.262 785.882 496.383 788.671 496.383C791.366 496.383 793.505 497.279 795.087 499.072C796.681 500.865 797.478 503.291 797.478 506.35ZM782.8 506.35C782.8 508.811 783.292 510.686 784.276 511.975C785.261 513.264 786.708 513.908 788.618 513.908C790.528 513.908 791.976 513.27 792.96 511.992C793.956 510.703 794.454 508.822 794.454 506.35C794.454 503.9 793.956 502.043 792.96 500.777C791.976 499.5 790.517 498.861 788.583 498.861C786.673 498.861 785.232 499.488 784.259 500.742C783.286 501.996 782.8 503.865 782.8 506.35ZM814.64 496.383C815.495 496.383 816.263 496.453 816.942 496.594L816.538 499.301C815.741 499.125 815.038 499.037 814.429 499.037C812.87 499.037 811.534 499.67 810.421 500.936C809.319 502.201 808.768 503.777 808.768 505.664V516H805.85V496.734H808.259L808.593 500.303H808.733C809.448 499.049 810.309 498.082 811.317 497.402C812.325 496.723 813.432 496.383 814.64 496.383ZM836.899 513.416H836.741C835.393 515.373 833.378 516.352 830.694 516.352C828.174 516.352 826.212 515.49 824.805 513.768C823.411 512.045 822.714 509.596 822.714 506.42C822.714 503.244 823.417 500.777 824.823 499.02C826.229 497.262 828.186 496.383 830.694 496.383C833.307 496.383 835.311 497.332 836.706 499.23H836.934L836.811 497.842L836.741 496.488V488.648H839.659V516H837.286L836.899 513.416ZM831.063 513.908C833.055 513.908 834.497 513.369 835.387 512.291C836.29 511.201 836.741 509.449 836.741 507.035V506.42C836.741 503.689 836.284 501.744 835.37 500.584C834.467 499.412 833.02 498.826 831.028 498.826C829.317 498.826 828.005 499.494 827.09 500.83C826.188 502.154 825.737 504.029 825.737 506.455C825.737 508.916 826.188 510.773 827.09 512.027C827.993 513.281 829.317 513.908 831.063 513.908ZM861.532 510.744C861.532 512.537 860.864 513.92 859.528 514.893C858.192 515.865 856.317 516.352 853.903 516.352C851.348 516.352 849.356 515.947 847.926 515.139V512.432C848.852 512.9 849.842 513.27 850.897 513.539C851.963 513.809 852.989 513.943 853.973 513.943C855.496 513.943 856.668 513.703 857.489 513.223C858.309 512.73 858.719 511.986 858.719 510.99C858.719 510.24 858.391 509.602 857.735 509.074C857.09 508.535 855.825 507.902 853.938 507.176C852.145 506.508 850.868 505.928 850.106 505.436C849.356 504.932 848.793 504.363 848.418 503.73C848.055 503.098 847.873 502.342 847.873 501.463C847.873 499.893 848.512 498.656 849.789 497.754C851.067 496.84 852.819 496.383 855.045 496.383C857.12 496.383 859.147 496.805 861.127 497.648L860.09 500.021C858.157 499.225 856.405 498.826 854.834 498.826C853.452 498.826 852.409 499.043 851.705 499.477C851.002 499.91 850.651 500.508 850.651 501.27C850.651 501.785 850.78 502.225 851.038 502.588C851.307 502.951 851.735 503.297 852.321 503.625C852.907 503.953 854.032 504.428 855.696 505.049C857.981 505.881 859.522 506.719 860.319 507.562C861.127 508.406 861.532 509.467 861.532 510.744ZM893.975 516L893.394 513.258H893.254C892.293 514.465 891.332 515.285 890.371 515.719C889.422 516.141 888.232 516.352 886.803 516.352C884.892 516.352 883.392 515.859 882.303 514.875C881.225 513.891 880.685 512.49 880.685 510.674C880.685 506.783 883.797 504.744 890.019 504.557L893.289 504.451V503.256C893.289 501.744 892.961 500.631 892.305 499.916C891.66 499.189 890.623 498.826 889.193 498.826C887.588 498.826 885.771 499.318 883.744 500.303L882.848 498.07C883.797 497.555 884.834 497.15 885.959 496.857C887.096 496.564 888.232 496.418 889.369 496.418C891.666 496.418 893.365 496.928 894.467 497.947C895.58 498.967 896.137 500.602 896.137 502.852V516H893.975ZM887.383 513.943C889.199 513.943 890.623 513.445 891.654 512.449C892.697 511.453 893.219 510.059 893.219 508.266V506.525L890.301 506.648C887.98 506.73 886.305 507.094 885.273 507.738C884.254 508.371 883.744 509.361 883.744 510.709C883.744 511.764 884.06 512.566 884.693 513.117C885.338 513.668 886.234 513.943 887.383 513.943ZM918.59 516V503.537C918.59 501.967 918.232 500.795 917.517 500.021C916.802 499.248 915.683 498.861 914.16 498.861C912.144 498.861 910.668 499.406 909.73 500.496C908.793 501.586 908.324 503.385 908.324 505.893V516H905.406V496.734H907.779L908.254 499.371H908.394C908.992 498.422 909.83 497.689 910.908 497.174C911.986 496.646 913.187 496.383 914.511 496.383C916.832 496.383 918.578 496.945 919.75 498.07C920.922 499.184 921.508 500.971 921.508 503.432V516H918.59ZM943.872 513.416H943.714C942.367 515.373 940.351 516.352 937.667 516.352C935.148 516.352 933.185 515.49 931.779 513.768C930.384 512.045 929.687 509.596 929.687 506.42C929.687 503.244 930.39 500.777 931.796 499.02C933.203 497.262 935.16 496.383 937.667 496.383C940.281 496.383 942.285 497.332 943.679 499.23H943.908L943.785 497.842L943.714 496.488V488.648H946.632V516H944.259L943.872 513.416ZM938.037 513.908C940.029 513.908 941.47 513.369 942.361 512.291C943.263 511.201 943.714 509.449 943.714 507.035V506.42C943.714 503.689 943.257 501.744 942.343 500.584C941.441 499.412 939.994 498.826 938.001 498.826C936.29 498.826 934.978 499.494 934.064 500.83C933.162 502.154 932.71 504.029 932.71 506.455C932.71 508.916 933.162 510.773 934.064 512.027C934.966 513.281 936.29 513.908 938.037 513.908ZM977.353 499.002H972.448V516H969.53V499.002H966.085V497.684L969.53 496.629V495.557C969.53 490.822 971.599 488.455 975.735 488.455C976.755 488.455 977.95 488.66 979.321 489.07L978.565 491.408C977.44 491.045 976.479 490.863 975.683 490.863C974.581 490.863 973.767 491.232 973.239 491.971C972.712 492.697 972.448 493.869 972.448 495.486V496.734H977.353V499.002ZM983.786 516H980.868V496.734H983.786V516ZM980.622 491.514C980.622 490.846 980.786 490.359 981.114 490.055C981.442 489.738 981.853 489.58 982.345 489.58C982.813 489.58 983.218 489.738 983.558 490.055C983.897 490.371 984.067 490.857 984.067 491.514C984.067 492.17 983.897 492.662 983.558 492.99C983.218 493.307 982.813 493.465 982.345 493.465C981.853 493.465 981.442 493.307 981.114 492.99C980.786 492.662 980.622 492.17 980.622 491.514ZM1006.4 516V503.537C1006.4 501.967 1006.04 500.795 1005.32 500.021C1004.61 499.248 1003.49 498.861 1001.97 498.861C999.952 498.861 998.475 499.406 997.538 500.496C996.6 501.586 996.132 503.385 996.132 505.893V516H993.214V496.734H995.587L996.061 499.371H996.202C996.8 498.422 997.637 497.689 998.716 497.174C999.794 496.646 1000.99 496.383 1002.32 496.383C1004.64 496.383 1006.39 496.945 1007.56 498.07C1008.73 499.184 1009.32 500.971 1009.32 503.432V516H1006.4ZM1031.68 513.416H1031.52C1030.17 515.373 1028.16 516.352 1025.48 516.352C1022.96 516.352 1020.99 515.49 1019.59 513.768C1018.19 512.045 1017.49 509.596 1017.49 506.42C1017.49 503.244 1018.2 500.777 1019.6 499.02C1021.01 497.262 1022.97 496.383 1025.48 496.383C1028.09 496.383 1030.09 497.332 1031.49 499.23H1031.72L1031.59 497.842L1031.52 496.488V488.648H1034.44V516H1032.07L1031.68 513.416ZM1025.84 513.908C1027.84 513.908 1029.28 513.369 1030.17 512.291C1031.07 511.201 1031.52 509.449 1031.52 507.035V506.42C1031.52 503.689 1031.06 501.744 1030.15 500.584C1029.25 499.412 1027.8 498.826 1025.81 498.826C1024.1 498.826 1022.79 499.494 1021.87 500.83C1020.97 502.154 1020.52 504.029 1020.52 506.455C1020.52 508.916 1020.97 510.773 1021.87 512.027C1022.77 513.281 1024.1 513.908 1025.84 513.908ZM1068.32 516L1067.74 513.258H1067.6C1066.64 514.465 1065.68 515.285 1064.72 515.719C1063.77 516.141 1062.58 516.352 1061.15 516.352C1059.24 516.352 1057.74 515.859 1056.65 514.875C1055.57 513.891 1055.04 512.49 1055.04 510.674C1055.04 506.783 1058.15 504.744 1064.37 504.557L1067.64 504.451V503.256C1067.64 501.744 1067.31 500.631 1066.65 499.916C1066.01 499.189 1064.97 498.826 1063.54 498.826C1061.94 498.826 1060.12 499.318 1058.09 500.303L1057.2 498.07C1058.15 497.555 1059.18 497.15 1060.31 496.857C1061.45 496.564 1062.58 496.418 1063.72 496.418C1066.02 496.418 1067.71 496.928 1068.82 497.947C1069.93 498.967 1070.49 500.602 1070.49 502.852V516H1068.32ZM1061.73 513.943C1063.55 513.943 1064.97 513.445 1066 512.449C1067.05 511.453 1067.57 510.059 1067.57 508.266V506.525L1064.65 506.648C1062.33 506.73 1060.65 507.094 1059.62 507.738C1058.6 508.371 1058.09 509.361 1058.09 510.709C1058.09 511.764 1058.41 512.566 1059.04 513.117C1059.69 513.668 1060.58 513.943 1061.73 513.943ZM1098.57 513.943C1099.09 513.943 1099.58 513.908 1100.06 513.838C1100.54 513.756 1100.93 513.674 1101.21 513.592V515.824C1100.89 515.977 1100.42 516.1 1099.8 516.193C1099.19 516.299 1098.64 516.352 1098.15 516.352C1094.42 516.352 1092.56 514.389 1092.56 510.463V499.002H1089.8V497.596L1092.56 496.383L1093.79 492.27H1095.48V496.734H1101.07V499.002H1095.48V510.34C1095.48 511.5 1095.75 512.391 1096.3 513.012C1096.85 513.633 1097.61 513.943 1098.57 513.943ZM1121.5 516V503.537C1121.5 501.967 1121.14 500.795 1120.43 500.021C1119.71 499.248 1118.59 498.861 1117.07 498.861C1115.04 498.861 1113.56 499.412 1112.62 500.514C1111.69 501.615 1111.23 503.42 1111.23 505.928V516H1108.31V488.648H1111.23V496.928C1111.23 497.924 1111.18 498.75 1111.09 499.406H1111.27C1111.84 498.48 1112.66 497.754 1113.71 497.227C1114.78 496.688 1115.99 496.418 1117.35 496.418C1119.7 496.418 1121.47 496.98 1122.64 498.105C1123.82 499.219 1124.42 500.994 1124.42 503.432V516H1121.5ZM1141.81 516.352C1138.96 516.352 1136.71 515.484 1135.06 513.75C1133.42 512.016 1132.59 509.607 1132.59 506.525C1132.59 503.42 1133.36 500.953 1134.88 499.125C1136.42 497.297 1138.47 496.383 1141.05 496.383C1143.46 496.383 1145.37 497.18 1146.78 498.773C1148.19 500.355 1148.89 502.447 1148.89 505.049V506.895H1135.62C1135.68 509.156 1136.25 510.873 1137.32 512.045C1138.41 513.217 1139.94 513.803 1141.91 513.803C1143.99 513.803 1146.04 513.369 1148.06 512.502V515.104C1147.03 515.549 1146.05 515.865 1145.13 516.053C1144.21 516.252 1143.11 516.352 1141.81 516.352ZM1141.01 498.826C1139.47 498.826 1138.23 499.33 1137.31 500.338C1136.39 501.346 1135.85 502.74 1135.69 504.521H1145.76C1145.76 502.682 1145.35 501.275 1144.53 500.303C1143.71 499.318 1142.54 498.826 1141.01 498.826ZM1181.68 516V503.467C1181.68 501.932 1181.35 500.783 1180.69 500.021C1180.04 499.248 1179.02 498.861 1177.64 498.861C1175.82 498.861 1174.48 499.383 1173.61 500.426C1172.74 501.469 1172.31 503.074 1172.31 505.242V516H1169.39V503.467C1169.39 501.932 1169.06 500.783 1168.41 500.021C1167.75 499.248 1166.73 498.861 1165.33 498.861C1163.5 498.861 1162.16 499.412 1161.31 500.514C1160.46 501.604 1160.04 503.396 1160.04 505.893V516H1157.12V496.734H1159.49L1159.97 499.371H1160.11C1160.66 498.434 1161.43 497.701 1162.43 497.174C1163.44 496.646 1164.56 496.383 1165.81 496.383C1168.82 496.383 1170.79 497.473 1171.71 499.652H1171.85C1172.43 498.645 1173.26 497.848 1174.35 497.262C1175.44 496.676 1176.68 496.383 1178.08 496.383C1180.25 496.383 1181.88 496.945 1182.96 498.07C1184.05 499.184 1184.6 500.971 1184.6 503.432V516H1181.68ZM1202 516.352C1199.16 516.352 1196.91 515.484 1195.25 513.75C1193.61 512.016 1192.79 509.607 1192.79 506.525C1192.79 503.42 1193.56 500.953 1195.08 499.125C1196.61 497.297 1198.67 496.383 1201.25 496.383C1203.66 496.383 1205.57 497.18 1206.98 498.773C1208.39 500.355 1209.09 502.447 1209.09 505.049V506.895H1195.82C1195.88 509.156 1196.44 510.873 1197.52 512.045C1198.61 513.217 1200.14 513.803 1202.11 513.803C1204.18 513.803 1206.23 513.369 1208.26 512.502V515.104C1207.23 515.549 1206.25 515.865 1205.33 516.053C1204.41 516.252 1203.31 516.352 1202 516.352ZM1201.21 498.826C1199.67 498.826 1198.43 499.33 1197.5 500.338C1196.59 501.346 1196.05 502.74 1195.89 504.521H1205.96C1205.96 502.682 1205.55 501.275 1204.73 500.303C1203.91 499.318 1202.74 498.826 1201.21 498.826ZM490.484 545.348C490.484 546.988 490.022 548.33 489.096 549.373C488.182 550.416 486.881 551.113 485.193 551.465V551.605C487.256 551.863 488.785 552.52 489.781 553.574C490.777 554.629 491.276 556.012 491.276 557.723C491.276 560.172 490.426 562.059 488.727 563.383C487.027 564.695 484.613 565.352 481.484 565.352C480.125 565.352 478.877 565.246 477.74 565.035C476.615 564.836 475.52 564.479 474.453 563.963V561.186C475.567 561.736 476.75 562.158 478.004 562.451C479.27 562.732 480.465 562.873 481.59 562.873C486.031 562.873 488.252 561.133 488.252 557.652C488.252 554.535 485.803 552.977 480.904 552.977H478.373V550.463H480.94C482.943 550.463 484.531 550.023 485.703 549.145C486.875 548.254 487.461 547.023 487.461 545.453C487.461 544.199 487.027 543.215 486.16 542.5C485.305 541.785 484.139 541.428 482.662 541.428C481.537 541.428 480.477 541.58 479.481 541.885C478.484 542.189 477.348 542.752 476.07 543.572L474.594 541.604C475.649 540.771 476.861 540.121 478.233 539.652C479.615 539.172 481.068 538.932 482.592 538.932C485.088 538.932 487.027 539.506 488.41 540.654C489.793 541.791 490.484 543.355 490.484 545.348ZM496.074 563.137C496.074 562.352 496.25 561.76 496.602 561.361C496.965 560.951 497.481 560.746 498.149 560.746C498.828 560.746 499.356 560.951 499.731 561.361C500.117 561.76 500.311 562.352 500.311 563.137C500.311 563.898 500.117 564.484 499.731 564.895C499.344 565.305 498.817 565.51 498.149 565.51C497.551 565.51 497.053 565.328 496.654 564.965C496.268 564.59 496.074 563.98 496.074 563.137ZM540.963 565H538.01L532.824 547.791C532.578 547.029 532.303 546.068 531.998 544.908C531.693 543.748 531.535 543.051 531.523 542.816C531.266 544.363 530.855 546.057 530.293 547.896L525.266 565H522.312L515.475 539.301H518.639L522.699 555.174C523.262 557.4 523.672 559.416 523.93 561.221C524.246 559.076 524.715 556.979 525.336 554.928L529.941 539.301H533.105L537.939 555.068C538.502 556.885 538.977 558.936 539.363 561.221C539.586 559.557 540.008 557.529 540.629 555.139L544.672 539.301H547.836L540.963 565ZM563.451 545.383C564.306 545.383 565.074 545.453 565.754 545.594L565.349 548.301C564.552 548.125 563.849 548.037 563.24 548.037C561.681 548.037 560.345 548.67 559.232 549.936C558.131 551.201 557.58 552.777 557.58 554.664V565H554.662V545.734H557.07L557.404 549.303H557.545C558.26 548.049 559.121 547.082 560.129 546.402C561.136 545.723 562.244 545.383 563.451 545.383ZM575.515 565H572.597V545.734H575.515V565ZM572.351 540.514C572.351 539.846 572.515 539.359 572.843 539.055C573.171 538.738 573.582 538.58 574.074 538.58C574.543 538.58 574.947 538.738 575.287 539.055C575.626 539.371 575.796 539.857 575.796 540.514C575.796 541.17 575.626 541.662 575.287 541.99C574.947 542.307 574.543 542.465 574.074 542.465C573.582 542.465 573.171 542.307 572.843 541.99C572.515 541.662 572.351 541.17 572.351 540.514ZM591.165 562.943C591.681 562.943 592.179 562.908 592.659 562.838C593.14 562.756 593.521 562.674 593.802 562.592V564.824C593.486 564.977 593.017 565.1 592.396 565.193C591.786 565.299 591.236 565.352 590.743 565.352C587.017 565.352 585.154 563.389 585.154 559.463V548.002H582.394V546.596L585.154 545.383L586.384 541.27H588.072V545.734H593.661V548.002H588.072V559.34C588.072 560.5 588.347 561.391 588.898 562.012C589.449 562.633 590.204 562.943 591.165 562.943ZM609.048 565.352C606.2 565.352 603.95 564.484 602.298 562.75C600.657 561.016 599.837 558.607 599.837 555.525C599.837 552.42 600.599 549.953 602.122 548.125C603.657 546.297 605.714 545.383 608.292 545.383C610.706 545.383 612.616 546.18 614.023 547.773C615.429 549.355 616.132 551.447 616.132 554.049V555.895H602.86C602.919 558.156 603.487 559.873 604.565 561.045C605.655 562.217 607.185 562.803 609.153 562.803C611.228 562.803 613.278 562.369 615.306 561.502V564.104C614.274 564.549 613.296 564.865 612.37 565.053C611.456 565.252 610.349 565.352 609.048 565.352ZM608.257 547.826C606.71 547.826 605.474 548.33 604.548 549.338C603.634 550.346 603.095 551.74 602.931 553.521H613.003C613.003 551.682 612.593 550.275 611.773 549.303C610.952 548.318 609.78 547.826 608.257 547.826ZM648.803 565L648.223 562.258H648.083C647.122 563.465 646.161 564.285 645.2 564.719C644.251 565.141 643.061 565.352 641.631 565.352C639.721 565.352 638.221 564.859 637.131 563.875C636.053 562.891 635.514 561.49 635.514 559.674C635.514 555.783 638.626 553.744 644.848 553.557L648.118 553.451V552.256C648.118 550.744 647.79 549.631 647.133 548.916C646.489 548.189 645.452 547.826 644.022 547.826C642.417 547.826 640.6 548.318 638.573 549.303L637.676 547.07C638.626 546.555 639.663 546.15 640.788 545.857C641.924 545.564 643.061 545.418 644.198 545.418C646.495 545.418 648.194 545.928 649.295 546.947C650.409 547.967 650.965 549.602 650.965 551.852V565H648.803ZM642.211 562.943C644.028 562.943 645.452 562.445 646.483 561.449C647.526 560.453 648.047 559.059 648.047 557.266V555.525L645.129 555.648C642.809 555.73 641.133 556.094 640.102 556.738C639.083 557.371 638.573 558.361 638.573 559.709C638.573 560.764 638.889 561.566 639.522 562.117C640.167 562.668 641.063 562.943 642.211 562.943ZM663.153 565H660.235V545.734H663.153V565ZM659.989 540.514C659.989 539.846 660.153 539.359 660.481 539.055C660.809 538.738 661.219 538.58 661.711 538.58C662.18 538.58 662.584 538.738 662.924 539.055C663.264 539.371 663.434 539.857 663.434 540.514C663.434 541.17 663.264 541.662 662.924 541.99C662.584 542.307 662.18 542.465 661.711 542.465C661.219 542.465 660.809 542.307 660.481 541.99C660.153 541.662 659.989 541.17 659.989 540.514ZM697.137 565V552.467C697.137 550.932 696.809 549.783 696.152 549.021C695.496 548.248 694.477 547.861 693.094 547.861C691.277 547.861 689.936 548.383 689.068 549.426C688.201 550.469 687.768 552.074 687.768 554.242V565H684.85V552.467C684.85 550.932 684.522 549.783 683.865 549.021C683.209 548.248 682.184 547.861 680.789 547.861C678.961 547.861 677.619 548.412 676.764 549.514C675.92 550.604 675.498 552.396 675.498 554.893V565H672.58V545.734H674.953L675.428 548.371H675.568C676.119 547.434 676.893 546.701 677.889 546.174C678.897 545.646 680.022 545.383 681.264 545.383C684.275 545.383 686.244 546.473 687.17 548.652H687.311C687.885 547.645 688.717 546.848 689.807 546.262C690.897 545.676 692.139 545.383 693.533 545.383C695.713 545.383 697.342 545.945 698.42 547.07C699.51 548.184 700.055 549.971 700.055 552.432V565H697.137ZM724.834 565H721.916V545.734H724.834V565ZM721.67 540.514C721.67 539.846 721.834 539.359 722.162 539.055C722.49 538.738 722.9 538.58 723.392 538.58C723.861 538.58 724.265 538.738 724.605 539.055C724.945 539.371 725.115 539.857 725.115 540.514C725.115 541.17 724.945 541.662 724.605 541.99C724.265 542.307 723.861 542.465 723.392 542.465C722.9 542.465 722.49 542.307 722.162 541.99C721.834 541.662 721.67 541.17 721.67 540.514ZM747.445 565V552.537C747.445 550.967 747.087 549.795 746.372 549.021C745.658 548.248 744.538 547.861 743.015 547.861C740.999 547.861 739.523 548.406 738.585 549.496C737.648 550.586 737.179 552.385 737.179 554.893V565H734.261V545.734H736.634L737.109 548.371H737.249C737.847 547.422 738.685 546.689 739.763 546.174C740.841 545.646 742.042 545.383 743.367 545.383C745.687 545.383 747.433 545.945 748.605 547.07C749.777 548.184 750.363 549.971 750.363 552.432V565H747.445ZM784.634 559.744C784.634 561.537 783.966 562.92 782.63 563.893C781.294 564.865 779.419 565.352 777.005 565.352C774.45 565.352 772.458 564.947 771.028 564.139V561.432C771.954 561.9 772.944 562.27 773.999 562.539C775.065 562.809 776.091 562.943 777.075 562.943C778.599 562.943 779.77 562.703 780.591 562.223C781.411 561.73 781.821 560.986 781.821 559.99C781.821 559.24 781.493 558.602 780.837 558.074C780.192 557.535 778.927 556.902 777.04 556.176C775.247 555.508 773.97 554.928 773.208 554.436C772.458 553.932 771.895 553.363 771.52 552.73C771.157 552.098 770.975 551.342 770.975 550.463C770.975 548.893 771.614 547.656 772.891 546.754C774.169 545.84 775.921 545.383 778.147 545.383C780.222 545.383 782.249 545.805 784.229 546.648L783.192 549.021C781.259 548.225 779.507 547.826 777.936 547.826C776.554 547.826 775.511 548.043 774.807 548.477C774.104 548.91 773.753 549.508 773.753 550.27C773.753 550.785 773.882 551.225 774.14 551.588C774.409 551.951 774.837 552.297 775.423 552.625C776.009 552.953 777.134 553.428 778.798 554.049C781.083 554.881 782.624 555.719 783.421 556.562C784.229 557.406 784.634 558.467 784.634 559.744ZM799.915 562.908C801.86 562.908 803.278 562.387 804.169 561.344C805.059 560.301 805.534 558.543 805.592 556.07V555.42C805.592 552.725 805.135 550.785 804.221 549.602C803.307 548.418 801.86 547.826 799.88 547.826C798.169 547.826 796.856 548.494 795.942 549.83C795.04 551.154 794.589 553.029 794.589 555.455C794.589 557.881 795.034 559.732 795.924 561.01C796.827 562.275 798.157 562.908 799.915 562.908ZM799.475 565.352C796.991 565.352 795.051 564.479 793.657 562.732C792.262 560.986 791.565 558.549 791.565 555.42C791.565 552.268 792.268 549.807 793.674 548.037C795.081 546.268 797.038 545.383 799.546 545.383C802.182 545.383 804.21 546.379 805.628 548.371H805.786L806.208 545.734H808.51V573.648H805.592V565.404C805.592 564.232 805.657 563.236 805.786 562.416H805.557C804.21 564.373 802.182 565.352 799.475 565.352ZM829.803 565L829.223 562.258H829.082C828.121 563.465 827.161 564.285 826.2 564.719C825.25 565.141 824.061 565.352 822.631 565.352C820.721 565.352 819.221 564.859 818.131 563.875C817.053 562.891 816.514 561.49 816.514 559.674C816.514 555.783 819.625 553.744 825.848 553.557L829.118 553.451V552.256C829.118 550.744 828.789 549.631 828.133 548.916C827.489 548.189 826.452 547.826 825.022 547.826C823.416 547.826 821.6 548.318 819.573 549.303L818.676 547.07C819.625 546.555 820.663 546.15 821.788 545.857C822.924 545.564 824.061 545.418 825.198 545.418C827.495 545.418 829.194 545.928 830.295 546.947C831.409 547.967 831.965 549.602 831.965 551.852V565H829.803ZM823.211 562.943C825.028 562.943 826.452 562.445 827.483 561.449C828.526 560.453 829.047 559.059 829.047 557.266V555.525L826.129 555.648C823.809 555.73 822.133 556.094 821.102 556.738C820.082 557.371 819.573 558.361 819.573 559.709C819.573 560.764 819.889 561.566 820.522 562.117C821.166 562.668 822.063 562.943 823.211 562.943ZM850.024 545.383C850.879 545.383 851.647 545.453 852.326 545.594L851.922 548.301C851.125 548.125 850.422 548.037 849.813 548.037C848.254 548.037 846.918 548.67 845.805 549.936C844.703 551.201 844.152 552.777 844.152 554.664V565H841.235V545.734H843.643L843.977 549.303H844.117C844.832 548.049 845.694 547.082 846.701 546.402C847.709 545.723 848.817 545.383 850.024 545.383ZM867.309 565.352C864.461 565.352 862.211 564.484 860.559 562.75C858.918 561.016 858.098 558.607 858.098 555.525C858.098 552.42 858.859 549.953 860.383 548.125C861.918 546.297 863.975 545.383 866.553 545.383C868.967 545.383 870.877 546.18 872.283 547.773C873.689 549.355 874.392 551.447 874.392 554.049V555.895H861.121C861.18 558.156 861.748 559.873 862.826 561.045C863.916 562.217 865.445 562.803 867.414 562.803C869.488 562.803 871.539 562.369 873.566 561.502V564.104C872.535 564.549 871.557 564.865 870.631 565.053C869.717 565.252 868.609 565.352 867.309 565.352ZM866.517 547.826C864.971 547.826 863.734 548.33 862.809 549.338C861.894 550.346 861.355 551.74 861.191 553.521H871.264C871.264 551.682 870.853 550.275 870.033 549.303C869.213 548.318 868.041 547.826 866.517 547.826ZM910.773 565H893.88V562.486L900.648 555.684C902.71 553.598 904.07 552.109 904.726 551.219C905.382 550.328 905.874 549.461 906.203 548.617C906.531 547.773 906.695 546.865 906.695 545.893C906.695 544.521 906.279 543.438 905.447 542.641C904.615 541.832 903.46 541.428 901.984 541.428C900.917 541.428 899.904 541.604 898.943 541.955C897.994 542.307 896.933 542.945 895.761 543.871L894.214 541.885C896.581 539.916 899.16 538.932 901.949 538.932C904.363 538.932 906.255 539.553 907.626 540.795C908.997 542.025 909.683 543.684 909.683 545.77C909.683 547.398 909.226 549.01 908.312 550.604C907.398 552.197 905.687 554.213 903.179 556.65L897.554 562.152V562.293H910.773V565ZM918.636 563.137C918.636 562.352 918.812 561.76 919.163 561.361C919.527 560.951 920.042 560.746 920.71 560.746C921.39 560.746 921.917 560.951 922.292 561.361C922.679 561.76 922.872 562.352 922.872 563.137C922.872 563.898 922.679 564.484 922.292 564.895C921.905 565.305 921.378 565.51 920.71 565.51C920.112 565.51 919.614 565.328 919.216 564.965C918.829 564.59 918.636 563.98 918.636 563.137ZM965.44 551.904C965.44 556.146 964.286 559.393 961.977 561.643C959.68 563.881 956.37 565 952.046 565H944.926V539.301H952.801C956.798 539.301 959.903 540.408 962.118 542.623C964.333 544.838 965.44 547.932 965.44 551.904ZM962.276 552.01C962.276 548.658 961.432 546.133 959.745 544.434C958.069 542.734 955.573 541.885 952.257 541.885H947.915V562.416H951.553C955.116 562.416 957.794 561.543 959.587 559.797C961.38 558.039 962.276 555.443 962.276 552.01ZM982.127 565.352C979.28 565.352 977.03 564.484 975.377 562.75C973.737 561.016 972.916 558.607 972.916 555.525C972.916 552.42 973.678 549.953 975.202 548.125C976.737 546.297 978.793 545.383 981.372 545.383C983.786 545.383 985.696 546.18 987.102 547.773C988.508 549.355 989.211 551.447 989.211 554.049V555.895H975.94C975.999 558.156 976.567 559.873 977.645 561.045C978.735 562.217 980.264 562.803 982.233 562.803C984.307 562.803 986.358 562.369 988.385 561.502V564.104C987.354 564.549 986.375 564.865 985.45 565.053C984.536 565.252 983.428 565.352 982.127 565.352ZM981.336 547.826C979.79 547.826 978.553 548.33 977.627 549.338C976.713 550.346 976.174 551.74 976.01 553.521H986.082C986.082 551.682 985.672 550.275 984.852 549.303C984.032 548.318 982.86 547.826 981.336 547.826ZM1006.13 548.002H1001.22V565H998.305V548.002H994.86V546.684L998.305 545.629V544.557C998.305 539.822 1000.37 537.455 1004.51 537.455C1005.53 537.455 1006.72 537.66 1008.1 538.07L1007.34 540.408C1006.22 540.045 1005.25 539.863 1004.46 539.863C1003.36 539.863 1002.54 540.232 1002.01 540.971C1001.49 541.697 1001.22 542.869 1001.22 544.486V545.734H1006.13V548.002ZM1012.56 565H1009.64V545.734H1012.56V565ZM1009.4 540.514C1009.4 539.846 1009.56 539.359 1009.89 539.055C1010.22 538.738 1010.63 538.58 1011.12 538.58C1011.59 538.58 1011.99 538.738 1012.33 539.055C1012.67 539.371 1012.84 539.857 1012.84 540.514C1012.84 541.17 1012.67 541.662 1012.33 541.99C1011.99 542.307 1011.59 542.465 1011.12 542.465C1010.63 542.465 1010.22 542.307 1009.89 541.99C1009.56 541.662 1009.4 541.17 1009.4 540.514ZM1035.17 565V552.537C1035.17 550.967 1034.81 549.795 1034.1 549.021C1033.38 548.248 1032.27 547.861 1030.74 547.861C1028.73 547.861 1027.25 548.406 1026.31 549.496C1025.38 550.586 1024.91 552.385 1024.91 554.893V565H1021.99V545.734H1024.36L1024.84 548.371H1024.98C1025.57 547.422 1026.41 546.689 1027.49 546.174C1028.57 545.646 1029.77 545.383 1031.09 545.383C1033.41 545.383 1035.16 545.945 1036.33 547.07C1037.5 548.184 1038.09 549.971 1038.09 552.432V565H1035.17ZM1055.48 565.352C1052.63 565.352 1050.38 564.484 1048.73 562.75C1047.09 561.016 1046.27 558.607 1046.27 555.525C1046.27 552.42 1047.03 549.953 1048.55 548.125C1050.09 546.297 1052.15 545.383 1054.72 545.383C1057.14 545.383 1059.05 546.18 1060.45 547.773C1061.86 549.355 1062.56 551.447 1062.56 554.049V555.895H1049.29C1049.35 558.156 1049.92 559.873 1051 561.045C1052.09 562.217 1053.62 562.803 1055.59 562.803C1057.66 562.803 1059.71 562.369 1061.74 561.502V564.104C1060.71 564.549 1059.73 564.865 1058.8 565.053C1057.89 565.252 1056.78 565.352 1055.48 565.352ZM1054.69 547.826C1053.14 547.826 1051.91 548.33 1050.98 549.338C1050.07 550.346 1049.53 551.74 1049.36 553.521H1059.44C1059.44 551.682 1059.03 550.275 1058.2 549.303C1057.38 548.318 1056.21 547.826 1054.69 547.826ZM1100.02 555.35C1100.02 558.49 1099.23 560.945 1097.64 562.715C1096.06 564.473 1093.88 565.352 1091.09 565.352C1089.36 565.352 1087.84 564.947 1086.5 564.139C1085.16 563.33 1084.13 562.17 1083.41 560.658C1082.68 559.146 1082.32 557.377 1082.32 555.35C1082.32 552.209 1083.1 549.766 1084.67 548.02C1086.24 546.262 1088.42 545.383 1091.21 545.383C1093.91 545.383 1096.04 546.279 1097.63 548.072C1099.22 549.865 1100.02 552.291 1100.02 555.35ZM1085.34 555.35C1085.34 557.811 1085.83 559.686 1086.82 560.975C1087.8 562.264 1089.25 562.908 1091.16 562.908C1093.07 562.908 1094.51 562.27 1095.5 560.992C1096.5 559.703 1096.99 557.822 1096.99 555.35C1096.99 552.9 1096.5 551.043 1095.5 549.777C1094.51 548.5 1093.06 547.861 1091.12 547.861C1089.21 547.861 1087.77 548.488 1086.8 549.742C1085.83 550.996 1085.34 552.865 1085.34 555.35ZM1121.57 565V552.537C1121.57 550.967 1121.22 549.795 1120.5 549.021C1119.79 548.248 1118.67 547.861 1117.14 547.861C1115.13 547.861 1113.65 548.406 1112.71 549.496C1111.78 550.586 1111.31 552.385 1111.31 554.893V565H1108.39V545.734H1110.76L1111.24 548.371H1111.38C1111.98 547.422 1112.81 546.689 1113.89 546.174C1114.97 545.646 1116.17 545.383 1117.5 545.383C1119.82 545.383 1121.56 545.945 1122.73 547.07C1123.91 548.184 1124.49 549.971 1124.49 552.432V565H1121.57ZM1162.07 565L1158.53 553.697C1158.31 553.006 1157.9 551.436 1157.29 548.986H1157.15C1156.68 551.037 1156.27 552.619 1155.91 553.732L1152.28 565H1148.9L1143.65 545.734H1146.7C1147.95 550.574 1148.89 554.26 1149.53 556.791C1150.19 559.322 1150.57 561.027 1150.66 561.906H1150.8C1150.93 561.238 1151.13 560.377 1151.41 559.322C1151.71 558.256 1151.96 557.412 1152.17 556.791L1155.7 545.734H1158.87L1162.31 556.791C1162.97 558.807 1163.41 560.5 1163.65 561.871H1163.79C1163.84 561.449 1163.96 560.799 1164.16 559.92C1164.37 559.041 1165.59 554.312 1167.83 545.734H1170.86L1165.53 565H1162.07ZM1194.22 555.35C1194.22 558.49 1193.43 560.945 1191.85 562.715C1190.27 564.473 1188.08 565.352 1185.29 565.352C1183.57 565.352 1182.04 564.947 1180.71 564.139C1179.37 563.33 1178.34 562.17 1177.61 560.658C1176.89 559.146 1176.52 557.377 1176.52 555.35C1176.52 552.209 1177.31 549.766 1178.88 548.02C1180.45 546.262 1182.63 545.383 1185.42 545.383C1188.11 545.383 1190.25 546.279 1191.83 548.072C1193.43 549.865 1194.22 552.291 1194.22 555.35ZM1179.55 555.35C1179.55 557.811 1180.04 559.686 1181.02 560.975C1182.01 562.264 1183.45 562.908 1185.36 562.908C1187.27 562.908 1188.72 562.27 1189.71 560.992C1190.7 559.703 1191.2 557.822 1191.2 555.35C1191.2 552.9 1190.7 551.043 1189.71 549.777C1188.72 548.5 1187.26 547.861 1185.33 547.861C1183.42 547.861 1181.98 548.488 1181 549.742C1180.03 550.996 1179.55 552.865 1179.55 555.35ZM1211.38 545.383C1212.24 545.383 1213.01 545.453 1213.69 545.594L1213.28 548.301C1212.49 548.125 1211.78 548.037 1211.17 548.037C1209.62 548.037 1208.28 548.67 1207.17 549.936C1206.06 551.201 1205.51 552.777 1205.51 554.664V565H1202.6V545.734H1205L1205.34 549.303H1205.48C1206.19 548.049 1207.05 547.082 1208.06 546.402C1209.07 545.723 1210.18 545.383 1211.38 545.383ZM1223.41 555.139C1223.92 554.424 1224.69 553.486 1225.72 552.326L1231.94 545.734H1235.4L1227.6 553.943L1235.95 565H1232.41L1225.61 555.895L1223.41 557.793V565H1220.53V537.648H1223.41V552.15C1223.41 552.795 1223.37 553.791 1223.27 555.139H1223.41ZM1255.11 559.744C1255.11 561.537 1254.44 562.92 1253.11 563.893C1251.77 564.865 1249.9 565.352 1247.48 565.352C1244.93 565.352 1242.94 564.947 1241.51 564.139V561.432C1242.43 561.9 1243.42 562.27 1244.48 562.539C1245.54 562.809 1246.57 562.943 1247.55 562.943C1249.08 562.943 1250.25 562.703 1251.07 562.223C1251.89 561.73 1252.3 560.986 1252.3 559.99C1252.3 559.24 1251.97 558.602 1251.32 558.074C1250.67 557.535 1249.41 556.902 1247.52 556.176C1245.73 555.508 1244.45 554.928 1243.69 554.436C1242.94 553.932 1242.37 553.363 1242 552.73C1241.64 552.098 1241.45 551.342 1241.45 550.463C1241.45 548.893 1242.09 547.656 1243.37 546.754C1244.65 545.84 1246.4 545.383 1248.63 545.383C1250.7 545.383 1252.73 545.805 1254.71 546.648L1253.67 549.021C1251.74 548.225 1249.99 547.826 1248.42 547.826C1247.03 547.826 1245.99 548.043 1245.29 548.477C1244.58 548.91 1244.23 549.508 1244.23 550.27C1244.23 550.785 1244.36 551.225 1244.62 551.588C1244.89 551.951 1245.32 552.297 1245.9 552.625C1246.49 552.953 1247.61 553.428 1249.28 554.049C1251.56 554.881 1253.1 555.719 1253.9 556.562C1254.71 557.406 1255.11 558.467 1255.11 559.744ZM1276.3 565V552.537C1276.3 550.967 1275.94 549.795 1275.23 549.021C1274.51 548.248 1273.39 547.861 1271.87 547.861C1269.84 547.861 1268.36 548.412 1267.42 549.514C1266.5 550.615 1266.03 552.42 1266.03 554.928V565H1263.12V537.648H1266.03V545.928C1266.03 546.924 1265.99 547.75 1265.89 548.406H1266.07C1266.64 547.48 1267.46 546.754 1268.51 546.227C1269.58 545.688 1270.79 545.418 1272.15 545.418C1274.51 545.418 1276.27 545.98 1277.44 547.105C1278.63 548.219 1279.22 549.994 1279.22 552.432V565H1276.3ZM1296.61 565.352C1293.76 565.352 1291.51 564.484 1289.86 562.75C1288.22 561.016 1287.4 558.607 1287.4 555.525C1287.4 552.42 1288.16 549.953 1289.68 548.125C1291.22 546.297 1293.27 545.383 1295.85 545.383C1298.27 545.383 1300.18 546.18 1301.58 547.773C1302.99 549.355 1303.69 551.447 1303.69 554.049V555.895H1290.42C1290.48 558.156 1291.05 559.873 1292.13 561.045C1293.22 562.217 1294.75 562.803 1296.71 562.803C1298.79 562.803 1300.84 562.369 1302.87 561.502V564.104C1301.84 564.549 1300.86 564.865 1299.93 565.053C1299.02 565.252 1297.91 565.352 1296.61 565.352ZM1295.82 547.826C1294.27 547.826 1293.03 548.33 1292.11 549.338C1291.19 550.346 1290.66 551.74 1290.49 553.521H1300.56C1300.56 551.682 1300.15 550.275 1299.33 549.303C1298.51 548.318 1297.34 547.826 1295.82 547.826ZM1320.06 565.352C1317.22 565.352 1314.97 564.484 1313.31 562.75C1311.67 561.016 1310.85 558.607 1310.85 555.525C1310.85 552.42 1311.61 549.953 1313.14 548.125C1314.67 546.297 1316.73 545.383 1319.31 545.383C1321.72 545.383 1323.63 546.18 1325.04 547.773C1326.44 549.355 1327.15 551.447 1327.15 554.049V555.895H1313.88C1313.93 558.156 1314.5 559.873 1315.58 561.045C1316.67 562.217 1318.2 562.803 1320.17 562.803C1322.24 562.803 1324.29 562.369 1326.32 561.502V564.104C1325.29 564.549 1324.31 564.865 1323.39 565.053C1322.47 565.252 1321.36 565.352 1320.06 565.352ZM1319.27 547.826C1317.73 547.826 1316.49 548.33 1315.56 549.338C1314.65 550.346 1314.11 551.74 1313.95 553.521H1324.02C1324.02 551.682 1323.61 550.275 1322.79 549.303C1321.97 548.318 1320.8 547.826 1319.27 547.826ZM1341.6 562.943C1342.12 562.943 1342.62 562.908 1343.1 562.838C1343.58 562.756 1343.96 562.674 1344.24 562.592V564.824C1343.92 564.977 1343.45 565.1 1342.83 565.193C1342.22 565.299 1341.67 565.352 1341.18 565.352C1337.45 565.352 1335.59 563.389 1335.59 559.463V548.002H1332.83V546.596L1335.59 545.383L1336.82 541.27H1338.51V545.734H1344.1V548.002H1338.51V559.34C1338.51 560.5 1338.78 561.391 1339.33 562.012C1339.89 562.633 1340.64 562.943 1341.6 562.943Z" fill="black"/>
<path d="M307.028 111.809C307.028 120.293 304.72 126.785 300.102 131.285C295.509 135.762 288.888 138 280.239 138H266.001V86.6016H281.751C289.743 86.6016 295.954 88.8164 300.384 93.2461C304.813 97.6758 307.028 103.863 307.028 111.809ZM300.7 112.02C300.7 105.316 299.013 100.266 295.638 96.8672C292.286 93.4688 287.294 91.7695 280.661 91.7695H271.977V132.832H279.255C286.38 132.832 291.735 131.086 295.321 127.594C298.907 124.078 300.7 118.887 300.7 112.02ZM343.937 138H315.284V86.6016H343.937V91.9102H321.261V108.469H342.565V113.742H321.261V132.656H343.937V138ZM358.099 138H352.122V86.6016H380.775V91.9102H358.099V110.719H379.404V116.027H358.099V138ZM386.078 138V86.6016H392.054V138H386.078ZM443.095 138H436.275L408.185 94.8633H407.904C408.279 99.9258 408.467 104.566 408.467 108.785V138H402.947V86.6016H409.697L437.717 129.562H437.998C437.951 128.93 437.845 126.902 437.681 123.48C437.517 120.035 437.459 117.574 437.506 116.098V86.6016H443.095V138ZM482.641 138H453.988V86.6016H482.641V91.9102H459.965V108.469H481.27V113.742H459.965V132.656H482.641V138Z" fill="#020612"/>
</g>
<defs>
<clipPath id="clip0">
<rect width="1920" height="1080" fill="white"/>
</clipPath>
</defs>
</svg>
