<svg width="1920" height="1080" viewBox="0 0 1920 1080" fill="none" xmlns="http://www.w3.org/2000/svg">
<rect width="1920" height="1080" fill="white"/>
<rect x="825" y="517" width="575" height="212" fill="#B1EDBE"/>
<path d="M620.588 408.348C620.588 409.871 620.037 411.066 618.935 411.934C617.834 412.801 616.314 413.234 614.377 413.234C612.439 413.234 610.853 412.934 609.619 412.332V409.684C610.4 410.051 611.228 410.34 612.103 410.551C612.986 410.762 613.806 410.867 614.564 410.867C615.673 410.867 616.49 410.656 617.013 410.234C617.545 409.812 617.81 409.246 617.81 408.535C617.81 407.895 617.568 407.352 617.084 406.906C616.599 406.461 615.599 405.934 614.084 405.324C612.521 404.691 611.42 403.969 610.779 403.156C610.138 402.344 609.818 401.367 609.818 400.227C609.818 398.797 610.326 397.672 611.341 396.852C612.357 396.031 613.72 395.621 615.431 395.621C617.072 395.621 618.705 395.98 620.33 396.699L619.439 398.984C617.916 398.344 616.556 398.023 615.361 398.023C614.455 398.023 613.767 398.223 613.298 398.621C612.83 399.012 612.595 399.531 612.595 400.18C612.595 400.625 612.689 401.008 612.877 401.328C613.064 401.641 613.373 401.938 613.802 402.219C614.232 402.5 615.005 402.871 616.123 403.332C617.38 403.855 618.302 404.344 618.888 404.797C619.474 405.25 619.904 405.762 620.177 406.332C620.451 406.902 620.588 407.574 620.588 408.348ZM640.262 413H637.461V398.27H632.422V395.867H645.301V398.27H640.262V413ZM668.069 413H658.378V395.867H668.069V398.234H661.178V402.898H667.635V405.242H661.178V410.621H668.069V413ZM693.568 401.047C693.568 402.836 692.982 404.207 691.81 405.16C690.638 406.113 688.97 406.59 686.806 406.59H685.025V413H682.224V395.867H687.158C689.298 395.867 690.9 396.305 691.962 397.18C693.033 398.055 693.568 399.344 693.568 401.047ZM685.025 404.234H686.513C687.95 404.234 689.005 403.984 689.677 403.484C690.349 402.984 690.685 402.203 690.685 401.141C690.685 400.156 690.384 399.422 689.783 398.938C689.181 398.453 688.243 398.211 686.97 398.211H685.025V404.234ZM733.866 399.805C733.866 400.891 733.549 401.797 732.916 402.523C732.284 403.242 731.393 403.727 730.245 403.977V404.07C731.62 404.242 732.651 404.672 733.338 405.359C734.026 406.039 734.37 406.945 734.37 408.078C734.37 409.727 733.787 411 732.623 411.898C731.459 412.789 729.803 413.234 727.655 413.234C725.756 413.234 724.155 412.926 722.85 412.309V409.859C723.577 410.219 724.346 410.496 725.159 410.691C725.971 410.887 726.752 410.984 727.502 410.984C728.83 410.984 729.823 410.738 730.479 410.246C731.135 409.754 731.463 408.992 731.463 407.961C731.463 407.047 731.1 406.375 730.373 405.945C729.647 405.516 728.506 405.301 726.952 405.301H725.463V403.062H726.975C729.709 403.062 731.077 402.117 731.077 400.227C731.077 399.492 730.838 398.926 730.362 398.527C729.885 398.129 729.182 397.93 728.252 397.93C727.604 397.93 726.979 398.023 726.377 398.211C725.776 398.391 725.065 398.746 724.245 399.277L722.897 397.355C724.467 396.199 726.291 395.621 728.37 395.621C730.096 395.621 731.444 395.992 732.412 396.734C733.381 397.477 733.866 398.5 733.866 399.805Z" fill="#121212"/>
<path d="M1041.26 666.27C1041.26 669.098 1040.48 671.262 1038.91 672.762C1037.34 674.254 1035.08 675 1032.12 675H1027.33V657.867H1032.63C1035.35 657.867 1037.47 658.602 1038.99 660.07C1040.51 661.539 1041.26 663.605 1041.26 666.27ZM1038.31 666.363C1038.31 662.262 1036.39 660.211 1032.56 660.211H1030.13V672.645H1032.12C1036.25 672.645 1038.31 670.551 1038.31 666.363ZM1065.09 675H1055.4V657.867H1065.09V660.234H1058.2V664.898H1064.65V667.242H1058.2V672.621H1065.09V675ZM1089.12 670.348C1089.12 671.871 1088.57 673.066 1087.47 673.934C1086.37 674.801 1084.85 675.234 1082.91 675.234C1080.97 675.234 1079.39 674.934 1078.15 674.332V671.684C1078.93 672.051 1079.76 672.34 1080.64 672.551C1081.52 672.762 1082.34 672.867 1083.1 672.867C1084.21 672.867 1085.02 672.656 1085.55 672.234C1086.08 671.812 1086.34 671.246 1086.34 670.535C1086.34 669.895 1086.1 669.352 1085.62 668.906C1085.13 668.461 1084.13 667.934 1082.62 667.324C1081.05 666.691 1079.95 665.969 1079.31 665.156C1078.67 664.344 1078.35 663.367 1078.35 662.227C1078.35 660.797 1078.86 659.672 1079.87 658.852C1080.89 658.031 1082.25 657.621 1083.96 657.621C1085.6 657.621 1087.24 657.98 1088.86 658.699L1087.97 660.984C1086.45 660.344 1085.09 660.023 1083.89 660.023C1082.99 660.023 1082.3 660.223 1081.83 660.621C1081.36 661.012 1081.13 661.531 1081.13 662.18C1081.13 662.625 1081.22 663.008 1081.41 663.328C1081.6 663.641 1081.91 663.938 1082.34 664.219C1082.76 664.5 1083.54 664.871 1084.66 665.332C1085.91 665.855 1086.84 666.344 1087.42 666.797C1088.01 667.25 1088.44 667.762 1088.71 668.332C1088.98 668.902 1089.12 669.574 1089.12 670.348ZM1102.88 675V657.867H1105.68V675H1102.88ZM1127.66 665.707H1133.97V674.309C1132.93 674.645 1131.94 674.883 1130.99 675.023C1130.04 675.164 1129.02 675.234 1127.92 675.234C1125.32 675.234 1123.32 674.469 1121.92 672.938C1120.51 671.398 1119.81 669.23 1119.81 666.434C1119.81 663.676 1120.6 661.52 1122.19 659.965C1123.77 658.402 1125.96 657.621 1128.74 657.621C1130.53 657.621 1132.22 657.965 1133.82 658.652L1132.84 660.984C1131.45 660.344 1130.06 660.023 1128.67 660.023C1126.84 660.023 1125.39 660.598 1124.33 661.746C1123.27 662.895 1122.74 664.465 1122.74 666.457C1122.74 668.551 1123.22 670.145 1124.17 671.238C1125.13 672.324 1126.51 672.867 1128.3 672.867C1129.21 672.867 1130.18 672.754 1131.21 672.527V668.109H1127.66V665.707ZM1162.8 675H1159.37L1150.94 661.348H1150.85L1150.91 662.109C1151.02 663.562 1151.07 664.891 1151.07 666.094V675H1148.53V657.867H1151.93L1160.33 671.449H1160.4C1160.39 671.27 1160.35 670.617 1160.31 669.492C1160.26 668.359 1160.24 667.477 1160.24 666.844V657.867H1162.8V675ZM1200.36 675H1197.56V660.27H1192.52V657.867H1205.4V660.27H1200.36V675ZM1231.99 675H1229.17V667.277H1221.28V675H1218.48V657.867H1221.28V664.875H1229.17V657.867H1231.99V675ZM1246.94 675V657.867H1249.74V675H1246.94ZM1278.99 675H1275.55L1267.13 661.348H1267.03L1267.09 662.109C1267.2 663.562 1267.26 664.891 1267.26 666.094V675H1264.71V657.867H1268.11L1276.52 671.449H1276.59C1276.57 671.27 1276.54 670.617 1276.49 669.492C1276.44 668.359 1276.42 667.477 1276.42 666.844V657.867H1278.99V675ZM1307.03 675H1303.78L1298.4 667.242L1296.75 668.59V675H1293.95V657.867H1296.75V666.047C1297.52 665.109 1298.28 664.207 1299.04 663.34L1303.67 657.867H1306.85C1303.86 661.383 1301.72 663.887 1300.42 665.379L1307.03 675ZM1319.74 675V657.867H1322.54V675H1319.74ZM1351.79 675H1348.36L1339.93 661.348H1339.84L1339.9 662.109C1340.01 663.562 1340.06 664.891 1340.06 666.094V675H1337.52V657.867H1340.92L1349.32 671.449H1349.39C1349.37 671.27 1349.34 670.617 1349.3 669.492C1349.25 668.359 1349.23 667.477 1349.23 666.844V657.867H1351.79V675ZM1373.76 665.707H1380.07V674.309C1379.04 674.645 1378.04 674.883 1377.09 675.023C1376.15 675.164 1375.12 675.234 1374.02 675.234C1371.43 675.234 1369.43 674.469 1368.02 672.938C1366.62 671.398 1365.91 669.23 1365.91 666.434C1365.91 663.676 1366.71 661.52 1368.29 659.965C1369.88 658.402 1372.06 657.621 1374.84 657.621C1376.63 657.621 1378.33 657.965 1379.93 658.652L1378.94 660.984C1377.55 660.344 1376.16 660.023 1374.77 660.023C1372.94 660.023 1371.5 660.598 1370.44 661.746C1369.37 662.895 1368.84 664.465 1368.84 666.457C1368.84 668.551 1369.32 670.145 1370.27 671.238C1371.23 672.324 1372.61 672.867 1374.41 672.867C1375.31 672.867 1376.28 672.754 1377.31 672.527V668.109H1373.76V665.707Z" fill="#121212"/>
<path d="M752.114 588V485.203H764.067V588H752.114ZM867.908 535.617C867.908 552.586 863.29 565.57 854.056 574.57C844.868 583.523 831.626 588 814.329 588H785.853V485.203H817.353C833.337 485.203 845.759 489.633 854.618 498.492C863.478 507.352 867.908 519.727 867.908 535.617ZM855.251 536.039C855.251 522.633 851.876 512.531 845.126 505.734C838.423 498.938 828.439 495.539 815.173 495.539H797.806V577.664H812.361C826.611 577.664 837.322 574.172 844.493 567.188C851.665 560.156 855.251 549.773 855.251 536.039ZM941.724 588H884.42V485.203H941.724V495.82H896.373V528.938H938.982V539.484H896.373V577.312H941.724V588ZM1022.71 588L1009.92 555.305H968.713L956.057 588H943.963L984.604 484.781H994.658L1035.09 588H1022.71ZM1006.19 544.547L994.237 512.695C992.69 508.664 991.096 503.719 989.455 497.859C988.424 502.359 986.948 507.305 985.026 512.695L972.932 544.547H1006.19ZM1074.38 588H1062.43V495.82H1029.87V485.203H1106.94V495.82H1074.38V588ZM1173.3 588H1116V485.203H1173.3V495.82H1127.95V528.938H1170.56V539.484H1127.95V577.312H1173.3V588Z" fill="#020612"/>
</svg>
