<svg width="1920" height="1080" viewBox="0 0 1920 1080" fill="none" xmlns="http://www.w3.org/2000/svg">
<g clip-path="url(#clip0)">
<rect width="1920" height="1080" fill="white"/>
<rect y="58" width="513" height="114" fill="#B1EDBE"/>
<path d="M473.99 334.568H484.186V347.893C482.533 348.432 480.975 348.807 479.51 349.018C478.057 349.24 476.568 349.352 475.045 349.352C471.166 349.352 468.201 348.215 466.15 345.941C464.111 343.656 463.092 340.381 463.092 336.115C463.092 331.967 464.275 328.732 466.643 326.412C469.021 324.092 472.314 322.932 476.521 322.932C479.158 322.932 481.701 323.459 484.15 324.514L482.34 328.873C480.465 327.936 478.514 327.467 476.486 327.467C474.131 327.467 472.244 328.258 470.826 329.84C469.408 331.422 468.699 333.549 468.699 336.221C468.699 339.01 469.268 341.143 470.404 342.619C471.553 344.084 473.217 344.816 475.396 344.816C476.533 344.816 477.688 344.699 478.859 344.465V339.104H473.99V334.568ZM516.886 336.115C516.886 340.369 515.832 343.639 513.722 345.924C511.613 348.209 508.59 349.352 504.652 349.352C500.715 349.352 497.691 348.209 495.582 345.924C493.472 343.639 492.418 340.357 492.418 336.08C492.418 331.803 493.472 328.539 495.582 326.289C497.703 324.027 500.738 322.896 504.687 322.896C508.636 322.896 511.654 324.033 513.74 326.307C515.838 328.58 516.886 331.85 516.886 336.115ZM498.131 336.115C498.131 338.986 498.676 341.148 499.765 342.602C500.855 344.055 502.484 344.781 504.652 344.781C509 344.781 511.174 341.893 511.174 336.115C511.174 330.326 509.011 327.432 504.687 327.432C502.519 327.432 500.885 328.164 499.783 329.629C498.681 331.082 498.131 333.244 498.131 336.115ZM541.185 349L539.322 342.883H529.953L528.089 349H522.218L531.289 323.195H537.951L547.056 349H541.185ZM538.021 338.312C536.298 332.77 535.326 329.635 535.103 328.908C534.892 328.182 534.74 327.607 534.646 327.186C534.259 328.686 533.152 332.395 531.324 338.312H538.021ZM553.548 349V323.301H558.997V344.5H569.421V349H553.548ZM593.022 349H590.034V323.301H604.36V325.955H593.022V335.359H603.675V338.014H593.022V349ZM614.35 349H611.432V329.734H614.35V349ZM611.186 324.514C611.186 323.846 611.35 323.359 611.678 323.055C612.006 322.738 612.417 322.58 612.909 322.58C613.378 322.58 613.782 322.738 614.122 323.055C614.461 323.371 614.631 323.857 614.631 324.514C614.631 325.17 614.461 325.662 614.122 325.99C613.782 326.307 613.378 326.465 612.909 326.465C612.417 326.465 612.006 326.307 611.678 325.99C611.35 325.662 611.186 325.17 611.186 324.514ZM636.961 349V336.537C636.961 334.967 636.604 333.795 635.889 333.021C635.174 332.248 634.055 331.861 632.532 331.861C630.516 331.861 629.039 332.406 628.102 333.496C627.164 334.586 626.696 336.385 626.696 338.893V349H623.778V329.734H626.151L626.625 332.371H626.766C627.364 331.422 628.201 330.689 629.28 330.174C630.358 329.646 631.559 329.383 632.883 329.383C635.203 329.383 636.95 329.945 638.121 331.07C639.293 332.184 639.879 333.971 639.879 336.432V349H636.961ZM662.244 346.416H662.086C660.738 348.373 658.723 349.352 656.039 349.352C653.52 349.352 651.557 348.49 650.15 346.768C648.756 345.045 648.059 342.596 648.059 339.42C648.059 336.244 648.762 333.777 650.168 332.02C651.574 330.262 653.531 329.383 656.039 329.383C658.652 329.383 660.656 330.332 662.051 332.23H662.279L662.156 330.842L662.086 329.488V321.648H665.004V349H662.631L662.244 346.416ZM656.408 346.908C658.4 346.908 659.842 346.369 660.732 345.291C661.635 344.201 662.086 342.449 662.086 340.035V339.42C662.086 336.689 661.629 334.744 660.715 333.584C659.813 332.412 658.365 331.826 656.373 331.826C654.662 331.826 653.35 332.494 652.436 333.83C651.533 335.154 651.082 337.029 651.082 339.455C651.082 341.916 651.533 343.773 652.436 345.027C653.338 346.281 654.662 346.908 656.408 346.908ZM696.005 349.352C694.752 349.352 693.603 349.123 692.56 348.666C691.529 348.197 690.662 347.482 689.959 346.521H689.748C689.888 347.646 689.959 348.713 689.959 349.721V357.648H687.041V329.734H689.414L689.818 332.371H689.959C690.709 331.316 691.582 330.555 692.578 330.086C693.574 329.617 694.716 329.383 696.005 329.383C698.56 329.383 700.529 330.256 701.912 332.002C703.306 333.748 704.004 336.197 704.004 339.35C704.004 342.514 703.295 344.975 701.877 346.732C700.47 348.479 698.513 349.352 696.005 349.352ZM695.584 331.861C693.615 331.861 692.191 332.406 691.312 333.496C690.433 334.586 689.982 336.32 689.959 338.699V339.35C689.959 342.057 690.41 343.996 691.312 345.168C692.214 346.328 693.662 346.908 695.654 346.908C697.318 346.908 698.619 346.234 699.556 344.887C700.505 343.539 700.98 341.682 700.98 339.314C700.98 336.912 700.505 335.072 699.556 333.795C698.619 332.506 697.295 331.861 695.584 331.861ZM728.988 339.35C728.988 342.49 728.197 344.945 726.615 346.715C725.033 348.473 722.847 349.352 720.058 349.352C718.335 349.352 716.806 348.947 715.47 348.139C714.134 347.33 713.103 346.17 712.376 344.658C711.65 343.146 711.286 341.377 711.286 339.35C711.286 336.209 712.072 333.766 713.642 332.02C715.212 330.262 717.392 329.383 720.181 329.383C722.876 329.383 725.015 330.279 726.597 332.072C728.191 333.865 728.988 336.291 728.988 339.35ZM714.31 339.35C714.31 341.811 714.802 343.686 715.786 344.975C716.771 346.264 718.218 346.908 720.128 346.908C722.038 346.908 723.486 346.27 724.47 344.992C725.466 343.703 725.964 341.822 725.964 339.35C725.964 336.9 725.466 335.043 724.47 333.777C723.486 332.5 722.027 331.861 720.093 331.861C718.183 331.861 716.742 332.488 715.769 333.742C714.796 334.996 714.31 336.865 714.31 339.35ZM749.788 343.744C749.788 345.537 749.12 346.92 747.784 347.893C746.448 348.865 744.573 349.352 742.159 349.352C739.605 349.352 737.612 348.947 736.183 348.139V345.432C737.109 345.9 738.099 346.27 739.153 346.539C740.22 346.809 741.245 346.943 742.23 346.943C743.753 346.943 744.925 346.703 745.745 346.223C746.566 345.73 746.976 344.986 746.976 343.99C746.976 343.24 746.648 342.602 745.991 342.074C745.347 341.535 744.081 340.902 742.194 340.176C740.401 339.508 739.124 338.928 738.362 338.436C737.612 337.932 737.05 337.363 736.675 336.73C736.312 336.098 736.13 335.342 736.13 334.463C736.13 332.893 736.769 331.656 738.046 330.754C739.323 329.84 741.075 329.383 743.302 329.383C745.376 329.383 747.403 329.805 749.384 330.648L748.347 333.021C746.413 332.225 744.661 331.826 743.091 331.826C741.708 331.826 740.665 332.043 739.962 332.477C739.259 332.91 738.907 333.508 738.907 334.27C738.907 334.785 739.036 335.225 739.294 335.588C739.564 335.951 739.991 336.297 740.577 336.625C741.163 336.953 742.288 337.428 743.952 338.049C746.237 338.881 747.778 339.719 748.575 340.562C749.384 341.406 749.788 342.467 749.788 343.744ZM770.22 343.744C770.22 345.537 769.552 346.92 768.216 347.893C766.88 348.865 765.005 349.352 762.591 349.352C760.036 349.352 758.044 348.947 756.614 348.139V345.432C757.54 345.9 758.53 346.27 759.585 346.539C760.651 346.809 761.677 346.943 762.661 346.943C764.184 346.943 765.356 346.703 766.177 346.223C766.997 345.73 767.407 344.986 767.407 343.99C767.407 343.24 767.079 342.602 766.423 342.074C765.778 341.535 764.513 340.902 762.626 340.176C760.833 339.508 759.556 338.928 758.794 338.436C758.044 337.932 757.481 337.363 757.106 336.73C756.743 336.098 756.561 335.342 756.561 334.463C756.561 332.893 757.2 331.656 758.477 330.754C759.755 329.84 761.507 329.383 763.733 329.383C765.807 329.383 767.835 329.805 769.815 330.648L768.778 333.021C766.845 332.225 765.093 331.826 763.522 331.826C762.14 331.826 761.097 332.043 760.393 332.477C759.69 332.91 759.339 333.508 759.339 334.27C759.339 334.785 759.468 335.225 759.725 335.588C759.995 335.951 760.423 336.297 761.009 336.625C761.595 336.953 762.72 337.428 764.384 338.049C766.669 338.881 768.21 339.719 769.007 340.562C769.815 341.406 770.22 342.467 770.22 343.744ZM781.141 349H778.223V329.734H781.141V349ZM777.977 324.514C777.977 323.846 778.141 323.359 778.469 323.055C778.797 322.738 779.208 322.58 779.7 322.58C780.169 322.58 780.573 322.738 780.913 323.055C781.253 323.371 781.422 323.857 781.422 324.514C781.422 325.17 781.253 325.662 780.913 325.99C780.573 326.307 780.169 326.465 779.7 326.465C779.208 326.465 778.797 326.307 778.469 325.99C778.141 325.662 777.977 325.17 777.977 324.514ZM799.534 329.418C802.065 329.418 804.028 330.285 805.422 332.02C806.829 333.742 807.532 336.186 807.532 339.35C807.532 342.514 806.823 344.975 805.405 346.732C803.998 348.479 802.041 349.352 799.534 349.352C798.28 349.352 797.131 349.123 796.088 348.666C795.057 348.197 794.19 347.482 793.487 346.521H793.276L792.661 349H790.569V321.648H793.487V328.293C793.487 329.781 793.44 331.117 793.346 332.301H793.487C794.846 330.379 796.862 329.418 799.534 329.418ZM799.112 331.861C797.12 331.861 795.684 332.436 794.805 333.584C793.926 334.721 793.487 336.643 793.487 339.35C793.487 342.057 793.938 343.996 794.84 345.168C795.743 346.328 797.19 346.908 799.182 346.908C800.975 346.908 802.311 346.258 803.19 344.957C804.069 343.645 804.508 341.764 804.508 339.314C804.508 336.807 804.069 334.938 803.19 333.707C802.311 332.477 800.952 331.861 799.112 331.861ZM818.805 349H815.887V321.648H818.805V349ZM836.371 349.352C833.523 349.352 831.273 348.484 829.621 346.75C827.98 345.016 827.16 342.607 827.16 339.525C827.16 336.42 827.922 333.953 829.445 332.125C830.98 330.297 833.037 329.383 835.615 329.383C838.029 329.383 839.939 330.18 841.346 331.773C842.752 333.355 843.455 335.447 843.455 338.049V339.895H830.184C830.242 342.156 830.81 343.873 831.889 345.045C832.978 346.217 834.508 346.803 836.476 346.803C838.551 346.803 840.601 346.369 842.629 345.502V348.104C841.598 348.549 840.619 348.865 839.693 349.053C838.779 349.252 837.672 349.352 836.371 349.352ZM835.58 331.826C834.033 331.826 832.797 332.33 831.871 333.338C830.957 334.346 830.418 335.74 830.254 337.521H840.326C840.326 335.682 839.916 334.275 839.096 333.303C838.275 332.318 837.103 331.826 835.58 331.826ZM876.706 343.744C876.706 345.537 876.039 346.92 874.703 347.893C873.367 348.865 871.492 349.352 869.078 349.352C866.523 349.352 864.531 348.947 863.101 348.139V345.432C864.027 345.9 865.017 346.27 866.072 346.539C867.138 346.809 868.164 346.943 869.148 346.943C870.671 346.943 871.843 346.703 872.664 346.223C873.484 345.73 873.894 344.986 873.894 343.99C873.894 343.24 873.566 342.602 872.91 342.074C872.265 341.535 870.999 340.902 869.113 340.176C867.32 339.508 866.042 338.928 865.281 338.436C864.531 337.932 863.968 337.363 863.593 336.73C863.23 336.098 863.048 335.342 863.048 334.463C863.048 332.893 863.687 331.656 864.964 330.754C866.242 329.84 867.994 329.383 870.22 329.383C872.294 329.383 874.322 329.805 876.302 330.648L875.265 333.021C873.331 332.225 871.58 331.826 870.009 331.826C868.626 331.826 867.583 332.043 866.88 332.477C866.177 332.91 865.826 333.508 865.826 334.27C865.826 334.785 865.955 335.225 866.212 335.588C866.482 335.951 866.91 336.297 867.496 336.625C868.081 336.953 869.206 337.428 870.871 338.049C873.156 338.881 874.697 339.719 875.494 340.562C876.302 341.406 876.706 342.467 876.706 343.744ZM901.339 339.35C901.339 342.49 900.548 344.945 898.966 346.715C897.384 348.473 895.198 349.352 892.409 349.352C890.687 349.352 889.157 348.947 887.821 348.139C886.486 347.33 885.454 346.17 884.728 344.658C884.001 343.146 883.638 341.377 883.638 339.35C883.638 336.209 884.423 333.766 885.993 332.02C887.564 330.262 889.743 329.383 892.532 329.383C895.228 329.383 897.366 330.279 898.948 332.072C900.542 333.865 901.339 336.291 901.339 339.35ZM886.661 339.35C886.661 341.811 887.154 343.686 888.138 344.975C889.122 346.264 890.57 346.908 892.48 346.908C894.39 346.908 895.837 346.27 896.821 344.992C897.818 343.703 898.316 341.822 898.316 339.35C898.316 336.9 897.818 335.043 896.821 333.777C895.837 332.5 894.378 331.861 892.445 331.861C890.534 331.861 889.093 332.488 888.12 333.742C887.148 334.996 886.661 336.865 886.661 339.35ZM912.63 349H909.712V321.648H912.63V349ZM924.8 329.734V342.232C924.8 343.803 925.157 344.975 925.872 345.748C926.587 346.521 927.706 346.908 929.229 346.908C931.245 346.908 932.716 346.357 933.641 345.256C934.579 344.154 935.048 342.355 935.048 339.859V329.734H937.966V349H935.557L935.135 346.416H934.977C934.38 347.365 933.548 348.092 932.481 348.596C931.426 349.1 930.219 349.352 928.86 349.352C926.516 349.352 924.759 348.795 923.587 347.682C922.426 346.568 921.846 344.787 921.846 342.338V329.734H924.8ZM953.633 346.943C954.149 346.943 954.647 346.908 955.127 346.838C955.608 346.756 955.989 346.674 956.27 346.592V348.824C955.954 348.977 955.485 349.1 954.864 349.193C954.254 349.299 953.704 349.352 953.211 349.352C949.485 349.352 947.622 347.389 947.622 343.463V332.002H944.862V330.596L947.622 329.383L948.852 325.27H950.54V329.734H956.129V332.002H950.54V343.34C950.54 344.5 950.815 345.391 951.366 346.012C951.916 346.633 952.672 346.943 953.633 346.943ZM966.295 349H963.377V329.734H966.295V349ZM963.131 324.514C963.131 323.846 963.295 323.359 963.623 323.055C963.951 322.738 964.362 322.58 964.854 322.58C965.323 322.58 965.727 322.738 966.067 323.055C966.406 323.371 966.576 323.857 966.576 324.514C966.576 325.17 966.406 325.662 966.067 325.99C965.727 326.307 965.323 326.465 964.854 326.465C964.362 326.465 963.951 326.307 963.623 325.99C963.295 325.662 963.131 325.17 963.131 324.514ZM992.352 339.35C992.352 342.49 991.561 344.945 989.979 346.715C988.396 348.473 986.211 349.352 983.422 349.352C981.699 349.352 980.17 348.947 978.834 348.139C977.498 347.33 976.467 346.17 975.74 344.658C975.014 343.146 974.65 341.377 974.65 339.35C974.65 336.209 975.436 333.766 977.006 332.02C978.576 330.262 980.756 329.383 983.545 329.383C986.24 329.383 988.379 330.279 989.961 332.072C991.555 333.865 992.352 336.291 992.352 339.35ZM977.674 339.35C977.674 341.811 978.166 343.686 979.15 344.975C980.135 346.264 981.582 346.908 983.492 346.908C985.402 346.908 986.85 346.27 987.834 344.992C988.83 343.703 989.328 341.822 989.328 339.35C989.328 336.9 988.83 335.043 987.834 333.777C986.85 332.5 985.391 331.861 983.457 331.861C981.547 331.861 980.105 332.488 979.133 333.742C978.16 334.996 977.674 336.865 977.674 339.35ZM1013.91 349V336.537C1013.91 334.967 1013.55 333.795 1012.84 333.021C1012.12 332.248 1011 331.861 1009.48 331.861C1007.46 331.861 1005.99 332.406 1005.05 333.496C1004.11 334.586 1003.64 336.385 1003.64 338.893V349H1000.72V329.734H1003.1L1003.57 332.371H1003.71C1004.31 331.422 1005.15 330.689 1006.23 330.174C1007.3 329.646 1008.51 329.383 1009.83 329.383C1012.15 329.383 1013.9 329.945 1015.07 331.07C1016.24 332.184 1016.83 333.971 1016.83 336.432V349H1013.91ZM1038.51 343.744C1038.51 345.537 1037.84 346.92 1036.5 347.893C1035.17 348.865 1033.29 349.352 1030.88 349.352C1028.32 349.352 1026.33 348.947 1024.9 348.139V345.432C1025.83 345.9 1026.82 346.27 1027.87 346.539C1028.94 346.809 1029.96 346.943 1030.95 346.943C1032.47 346.943 1033.64 346.703 1034.46 346.223C1035.28 345.73 1035.69 344.986 1035.69 343.99C1035.69 343.24 1035.36 342.602 1034.71 342.074C1034.06 341.535 1032.8 340.902 1030.91 340.176C1029.12 339.508 1027.84 338.928 1027.08 338.436C1026.33 337.932 1025.77 337.363 1025.39 336.73C1025.03 336.098 1024.85 335.342 1024.85 334.463C1024.85 332.893 1025.49 331.656 1026.76 330.754C1028.04 329.84 1029.79 329.383 1032.02 329.383C1034.09 329.383 1036.12 329.805 1038.1 330.648L1037.06 333.021C1035.13 332.225 1033.38 331.826 1031.81 331.826C1030.43 331.826 1029.38 332.043 1028.68 332.477C1027.98 332.91 1027.62 333.508 1027.62 334.27C1027.62 334.785 1027.75 335.225 1028.01 335.588C1028.28 335.951 1028.71 336.297 1029.29 336.625C1029.88 336.953 1031.01 337.428 1032.67 338.049C1034.95 338.881 1036.5 339.719 1037.29 340.562C1038.1 341.406 1038.51 342.467 1038.51 343.744ZM485.369 467H482.522V448.684C482.522 447.16 482.568 445.719 482.662 444.359C482.416 444.605 482.141 444.863 481.836 445.133C481.531 445.402 480.137 446.545 477.652 448.561L476.106 446.557L482.908 441.301H485.369V467ZM496.074 465.137C496.074 464.352 496.25 463.76 496.602 463.361C496.965 462.951 497.481 462.746 498.149 462.746C498.828 462.746 499.356 462.951 499.731 463.361C500.117 463.76 500.311 464.352 500.311 465.137C500.311 465.898 500.117 466.484 499.731 466.895C499.344 467.305 498.817 467.51 498.149 467.51C497.551 467.51 497.053 467.328 496.654 466.965C496.268 466.59 496.074 465.98 496.074 465.137ZM540.963 467H538.01L532.824 449.791C532.578 449.029 532.303 448.068 531.998 446.908C531.693 445.748 531.535 445.051 531.523 444.816C531.266 446.363 530.855 448.057 530.293 449.896L525.266 467H522.312L515.475 441.301H518.639L522.699 457.174C523.262 459.4 523.672 461.416 523.93 463.221C524.246 461.076 524.715 458.979 525.336 456.928L529.941 441.301H533.105L537.939 457.068C538.502 458.885 538.977 460.936 539.363 463.221C539.586 461.557 540.008 459.529 540.629 457.139L544.672 441.301H547.836L540.963 467ZM566.51 467L565.929 464.258H565.789C564.828 465.465 563.867 466.285 562.906 466.719C561.957 467.141 560.767 467.352 559.338 467.352C557.427 467.352 555.927 466.859 554.838 465.875C553.76 464.891 553.22 463.49 553.22 461.674C553.22 457.783 556.332 455.744 562.554 455.557L565.824 455.451V454.256C565.824 452.744 565.496 451.631 564.84 450.916C564.195 450.189 563.158 449.826 561.728 449.826C560.123 449.826 558.306 450.318 556.279 451.303L555.383 449.07C556.332 448.555 557.369 448.15 558.494 447.857C559.631 447.564 560.767 447.418 561.904 447.418C564.201 447.418 565.9 447.928 567.002 448.947C568.115 449.967 568.672 451.602 568.672 453.852V467H566.51ZM559.918 464.943C561.734 464.943 563.158 464.445 564.189 463.449C565.232 462.453 565.754 461.059 565.754 459.266V457.525L562.836 457.648C560.515 457.73 558.84 458.094 557.808 458.738C556.789 459.371 556.279 460.361 556.279 461.709C556.279 462.764 556.595 463.566 557.228 464.117C557.873 464.668 558.769 464.943 559.918 464.943ZM586.73 447.383C587.585 447.383 588.353 447.453 589.033 447.594L588.628 450.301C587.832 450.125 587.128 450.037 586.519 450.037C584.96 450.037 583.625 450.67 582.511 451.936C581.41 453.201 580.859 454.777 580.859 456.664V467H577.941V447.734H580.349L580.683 451.303H580.824C581.539 450.049 582.4 449.082 583.408 448.402C584.416 447.723 585.523 447.383 586.73 447.383ZM620.433 467V454.467C620.433 452.932 620.105 451.783 619.449 451.021C618.792 450.248 617.773 449.861 616.39 449.861C614.574 449.861 613.232 450.383 612.365 451.426C611.497 452.469 611.064 454.074 611.064 456.242V467H608.146V454.467C608.146 452.932 607.818 451.783 607.161 451.021C606.505 450.248 605.48 449.861 604.085 449.861C602.257 449.861 600.915 450.412 600.06 451.514C599.216 452.604 598.794 454.396 598.794 456.893V467H595.876V447.734H598.249L598.724 450.371H598.865C599.415 449.434 600.189 448.701 601.185 448.174C602.193 447.646 603.318 447.383 604.56 447.383C607.572 447.383 609.54 448.473 610.466 450.652H610.607C611.181 449.645 612.013 448.848 613.103 448.262C614.193 447.676 615.435 447.383 616.829 447.383C619.009 447.383 620.638 447.945 621.716 449.07C622.806 450.184 623.351 451.971 623.351 454.432V467H620.433ZM647.954 447.734V460.232C647.954 461.803 648.311 462.975 649.026 463.748C649.741 464.521 650.86 464.908 652.384 464.908C654.399 464.908 655.87 464.357 656.796 463.256C657.733 462.154 658.202 460.355 658.202 457.859V447.734H661.12V467H658.712L658.29 464.416H658.132C657.534 465.365 656.702 466.092 655.636 466.596C654.581 467.1 653.374 467.352 652.014 467.352C649.671 467.352 647.913 466.795 646.741 465.682C645.581 464.568 645.001 462.787 645.001 460.338V447.734H647.954ZM679.53 467.352C678.276 467.352 677.128 467.123 676.085 466.666C675.053 466.197 674.186 465.482 673.483 464.521H673.272C673.413 465.646 673.483 466.713 673.483 467.721V475.648H670.565V447.734H672.938L673.342 450.371H673.483C674.233 449.316 675.106 448.555 676.102 448.086C677.098 447.617 678.241 447.383 679.53 447.383C682.085 447.383 684.053 448.256 685.436 450.002C686.831 451.748 687.528 454.197 687.528 457.35C687.528 460.514 686.819 462.975 685.401 464.732C683.995 466.479 682.038 467.352 679.53 467.352ZM679.108 449.861C677.139 449.861 675.715 450.406 674.836 451.496C673.958 452.586 673.506 454.32 673.483 456.699V457.35C673.483 460.057 673.934 461.996 674.836 463.168C675.739 464.328 677.186 464.908 679.178 464.908C680.842 464.908 682.143 464.234 683.081 462.887C684.03 461.539 684.504 459.682 684.504 457.314C684.504 454.912 684.03 453.072 683.081 451.795C682.143 450.506 680.819 449.861 679.108 449.861ZM706.857 458.686V456.014H715.488V458.686H706.857ZM751.64 467L748.107 455.697C747.884 455.006 747.468 453.436 746.859 450.986H746.718C746.25 453.037 745.839 454.619 745.488 455.732L741.849 467H738.474L733.218 447.734H736.277C737.519 452.574 738.462 456.26 739.107 458.791C739.763 461.322 740.138 463.027 740.232 463.906H740.373C740.502 463.238 740.707 462.377 740.988 461.322C741.281 460.256 741.533 459.412 741.744 458.791L745.277 447.734H748.441L751.886 458.791C752.543 460.807 752.988 462.5 753.222 463.871H753.363C753.41 463.449 753.533 462.799 753.732 461.92C753.943 461.041 755.168 456.312 757.406 447.734H760.429L755.103 467H751.64ZM783.796 457.35C783.796 460.49 783.005 462.945 781.423 464.715C779.841 466.473 777.656 467.352 774.867 467.352C773.144 467.352 771.615 466.947 770.279 466.139C768.943 465.33 767.911 464.17 767.185 462.658C766.458 461.146 766.095 459.377 766.095 457.35C766.095 454.209 766.88 451.766 768.451 450.02C770.021 448.262 772.201 447.383 774.99 447.383C777.685 447.383 779.824 448.279 781.406 450.072C782.999 451.865 783.796 454.291 783.796 457.35ZM769.119 457.35C769.119 459.811 769.611 461.686 770.595 462.975C771.579 464.264 773.027 464.908 774.937 464.908C776.847 464.908 778.294 464.27 779.279 462.992C780.275 461.703 780.773 459.822 780.773 457.35C780.773 454.9 780.275 453.043 779.279 451.777C778.294 450.5 776.835 449.861 774.902 449.861C772.992 449.861 771.55 450.488 770.578 451.742C769.605 452.996 769.119 454.865 769.119 457.35ZM800.958 447.383C801.814 447.383 802.581 447.453 803.261 447.594L802.857 450.301C802.06 450.125 801.357 450.037 800.747 450.037C799.189 450.037 797.853 450.67 796.739 451.936C795.638 453.201 795.087 454.777 795.087 456.664V467H792.169V447.734H794.577L794.911 451.303H795.052C795.767 450.049 796.628 449.082 797.636 448.402C798.644 447.723 799.751 447.383 800.958 447.383ZM822.532 461.744C822.532 463.537 821.864 464.92 820.528 465.893C819.192 466.865 817.317 467.352 814.903 467.352C812.349 467.352 810.356 466.947 808.927 466.139V463.432C809.852 463.9 810.843 464.27 811.897 464.539C812.964 464.809 813.989 464.943 814.974 464.943C816.497 464.943 817.669 464.703 818.489 464.223C819.309 463.73 819.72 462.986 819.72 461.99C819.72 461.24 819.391 460.602 818.735 460.074C818.091 459.535 816.825 458.902 814.938 458.176C813.145 457.508 811.868 456.928 811.106 456.436C810.356 455.932 809.794 455.363 809.419 454.73C809.056 454.098 808.874 453.342 808.874 452.463C808.874 450.893 809.513 449.656 810.79 448.754C812.067 447.84 813.819 447.383 816.046 447.383C818.12 447.383 820.147 447.805 822.128 448.648L821.091 451.021C819.157 450.225 817.405 449.826 815.835 449.826C814.452 449.826 813.409 450.043 812.706 450.477C812.003 450.91 811.651 451.508 811.651 452.27C811.651 452.785 811.78 453.225 812.038 453.588C812.307 453.951 812.735 454.297 813.321 454.625C813.907 454.953 815.032 455.428 816.696 456.049C818.981 456.881 820.522 457.719 821.319 458.562C822.128 459.406 822.532 460.467 822.532 461.744ZM836.758 464.943C837.274 464.943 837.772 464.908 838.253 464.838C838.733 464.756 839.114 464.674 839.395 464.592V466.824C839.079 466.977 838.61 467.1 837.989 467.193C837.38 467.299 836.829 467.352 836.337 467.352C832.61 467.352 830.747 465.389 830.747 461.463V450.002H827.987V448.596L830.747 447.383L831.977 443.27H833.665V447.734H839.255V450.002H833.665V461.34C833.665 462.5 833.94 463.391 834.491 464.012C835.042 464.633 835.797 464.943 836.758 464.943ZM868.059 467.352C866.805 467.352 865.656 467.123 864.613 466.666C863.582 466.197 862.715 465.482 862.012 464.521H861.801C861.942 465.646 862.012 466.713 862.012 467.721V475.648H859.094V447.734H861.467L861.871 450.371H862.012C862.762 449.316 863.635 448.555 864.631 448.086C865.627 447.617 866.77 447.383 868.059 447.383C870.613 447.383 872.582 448.256 873.965 450.002C875.36 451.748 876.057 454.197 876.057 457.35C876.057 460.514 875.348 462.975 873.93 464.732C872.524 466.479 870.567 467.352 868.059 467.352ZM867.637 449.861C865.668 449.861 864.244 450.406 863.365 451.496C862.486 452.586 862.035 454.32 862.012 456.699V457.35C862.012 460.057 862.463 461.996 863.365 463.168C864.268 464.328 865.715 464.908 867.707 464.908C869.371 464.908 870.672 464.234 871.61 462.887C872.559 461.539 873.033 459.682 873.033 457.314C873.033 454.912 872.559 453.072 871.61 451.795C870.672 450.506 869.348 449.861 867.637 449.861ZM901.041 457.35C901.041 460.49 900.25 462.945 898.668 464.715C897.086 466.473 894.9 467.352 892.111 467.352C890.389 467.352 888.859 466.947 887.523 466.139C886.187 465.33 885.156 464.17 884.43 462.658C883.703 461.146 883.34 459.377 883.34 457.35C883.34 454.209 884.125 451.766 885.695 450.02C887.266 448.262 889.445 447.383 892.234 447.383C894.93 447.383 897.068 448.279 898.65 450.072C900.244 451.865 901.041 454.291 901.041 457.35ZM886.363 457.35C886.363 459.811 886.855 461.686 887.84 462.975C888.824 464.264 890.271 464.908 892.182 464.908C894.092 464.908 895.539 464.27 896.523 462.992C897.519 461.703 898.017 459.822 898.017 457.35C898.017 454.9 897.519 453.043 896.523 451.777C895.539 450.5 894.08 449.861 892.146 449.861C890.236 449.861 888.795 450.488 887.822 451.742C886.85 452.996 886.363 454.865 886.363 457.35ZM921.841 461.744C921.841 463.537 921.174 464.92 919.838 465.893C918.502 466.865 916.627 467.352 914.213 467.352C911.658 467.352 909.666 466.947 908.236 466.139V463.432C909.162 463.9 910.152 464.27 911.207 464.539C912.273 464.809 913.299 464.943 914.283 464.943C915.806 464.943 916.978 464.703 917.799 464.223C918.619 463.73 919.029 462.986 919.029 461.99C919.029 461.24 918.701 460.602 918.045 460.074C917.4 459.535 916.134 458.902 914.248 458.176C912.455 457.508 911.177 456.928 910.416 456.436C909.666 455.932 909.103 455.363 908.728 454.73C908.365 454.098 908.183 453.342 908.183 452.463C908.183 450.893 908.822 449.656 910.099 448.754C911.377 447.84 913.129 447.383 915.355 447.383C917.429 447.383 919.457 447.805 921.437 448.648L920.4 451.021C918.466 450.225 916.715 449.826 915.144 449.826C913.761 449.826 912.718 450.043 912.015 450.477C911.312 450.91 910.961 451.508 910.961 452.27C910.961 452.785 911.09 453.225 911.347 453.588C911.617 453.951 912.045 454.297 912.631 454.625C913.216 454.953 914.341 455.428 916.006 456.049C918.291 456.881 919.832 457.719 920.629 458.562C921.437 459.406 921.841 460.467 921.841 461.744ZM942.273 461.744C942.273 463.537 941.605 464.92 940.269 465.893C938.933 466.865 937.058 467.352 934.644 467.352C932.089 467.352 930.097 466.947 928.667 466.139V463.432C929.593 463.9 930.583 464.27 931.638 464.539C932.705 464.809 933.73 464.943 934.714 464.943C936.238 464.943 937.41 464.703 938.23 464.223C939.05 463.73 939.46 462.986 939.46 461.99C939.46 461.24 939.132 460.602 938.476 460.074C937.831 459.535 936.566 458.902 934.679 458.176C932.886 457.508 931.609 456.928 930.847 456.436C930.097 455.932 929.535 455.363 929.16 454.73C928.796 454.098 928.615 453.342 928.615 452.463C928.615 450.893 929.253 449.656 930.531 448.754C931.808 447.84 933.56 447.383 935.787 447.383C937.861 447.383 939.888 447.805 941.869 448.648L940.831 451.021C938.898 450.225 937.146 449.826 935.576 449.826C934.193 449.826 933.15 450.043 932.447 450.477C931.744 450.91 931.392 451.508 931.392 452.27C931.392 452.785 931.521 453.225 931.779 453.588C932.048 453.951 932.476 454.297 933.062 454.625C933.648 454.953 934.773 455.428 936.437 456.049C938.722 456.881 940.263 457.719 941.06 458.562C941.869 459.406 942.273 460.467 942.273 461.744ZM953.195 467H950.277V447.734H953.195V467ZM950.03 442.514C950.03 441.846 950.195 441.359 950.523 441.055C950.851 440.738 951.261 440.58 951.753 440.58C952.222 440.58 952.626 440.738 952.966 441.055C953.306 441.371 953.476 441.857 953.476 442.514C953.476 443.17 953.306 443.662 952.966 443.99C952.626 444.307 952.222 444.465 951.753 444.465C951.261 444.465 950.851 444.307 950.523 443.99C950.195 443.662 950.03 443.17 950.03 442.514ZM971.587 447.418C974.118 447.418 976.081 448.285 977.476 450.02C978.882 451.742 979.585 454.186 979.585 457.35C979.585 460.514 978.876 462.975 977.458 464.732C976.052 466.479 974.095 467.352 971.587 467.352C970.333 467.352 969.185 467.123 968.142 466.666C967.11 466.197 966.243 465.482 965.54 464.521H965.329L964.714 467H962.622V439.648H965.54V446.293C965.54 447.781 965.493 449.117 965.399 450.301H965.54C966.899 448.379 968.915 447.418 971.587 447.418ZM971.165 449.861C969.173 449.861 967.737 450.436 966.858 451.584C965.979 452.721 965.54 454.643 965.54 457.35C965.54 460.057 965.991 461.996 966.894 463.168C967.796 464.328 969.243 464.908 971.235 464.908C973.028 464.908 974.364 464.258 975.243 462.957C976.122 461.645 976.561 459.764 976.561 457.314C976.561 454.807 976.122 452.938 975.243 451.707C974.364 450.477 973.005 449.861 971.165 449.861ZM990.858 467H987.94V439.648H990.858V467ZM1008.42 467.352C1005.58 467.352 1003.33 466.484 1001.67 464.75C1000.03 463.016 999.213 460.607 999.213 457.525C999.213 454.42 999.975 451.953 1001.5 450.125C1003.03 448.297 1005.09 447.383 1007.67 447.383C1010.08 447.383 1011.99 448.18 1013.4 449.773C1014.81 451.355 1015.51 453.447 1015.51 456.049V457.895H1002.24C1002.3 460.156 1002.86 461.873 1003.94 463.045C1005.03 464.217 1006.56 464.803 1008.53 464.803C1010.6 464.803 1012.65 464.369 1014.68 463.502V466.104C1013.65 466.549 1012.67 466.865 1011.75 467.053C1010.83 467.252 1009.73 467.352 1008.42 467.352ZM1007.63 449.826C1006.09 449.826 1004.85 450.33 1003.92 451.338C1003.01 452.346 1002.47 453.74 1002.31 455.521H1012.38C1012.38 453.682 1011.97 452.275 1011.15 451.303C1010.33 450.318 1009.16 449.826 1007.63 449.826ZM1039.25 467H1036.33V447.734H1039.25V467ZM1036.09 442.514C1036.09 441.846 1036.25 441.359 1036.58 441.055C1036.91 440.738 1037.32 440.58 1037.81 440.58C1038.28 440.58 1038.68 440.738 1039.02 441.055C1039.36 441.371 1039.53 441.857 1039.53 442.514C1039.53 443.17 1039.36 443.662 1039.02 443.99C1038.68 444.307 1038.28 444.465 1037.81 444.465C1037.32 444.465 1036.91 444.307 1036.58 443.99C1036.25 443.662 1036.09 443.17 1036.09 442.514ZM1061.79 464.416H1061.63C1060.28 466.373 1058.27 467.352 1055.59 467.352C1053.07 467.352 1051.1 466.49 1049.7 464.768C1048.3 463.045 1047.61 460.596 1047.61 457.42C1047.61 454.244 1048.31 451.777 1049.71 450.02C1051.12 448.262 1053.08 447.383 1055.59 447.383C1058.2 447.383 1060.2 448.332 1061.6 450.23H1061.83L1061.7 448.842L1061.63 447.488V439.648H1064.55V467H1062.18L1061.79 464.416ZM1055.95 464.908C1057.95 464.908 1059.39 464.369 1060.28 463.291C1061.18 462.201 1061.63 460.449 1061.63 458.035V457.42C1061.63 454.689 1061.18 452.744 1060.26 451.584C1059.36 450.412 1057.91 449.826 1055.92 449.826C1054.21 449.826 1052.9 450.494 1051.98 451.83C1051.08 453.154 1050.63 455.029 1050.63 457.455C1050.63 459.916 1051.08 461.773 1051.98 463.027C1052.88 464.281 1054.21 464.908 1055.95 464.908ZM1082.13 467.352C1079.29 467.352 1077.04 466.484 1075.38 464.75C1073.74 463.016 1072.92 460.607 1072.92 457.525C1072.92 454.42 1073.69 451.953 1075.21 450.125C1076.74 448.297 1078.8 447.383 1081.38 447.383C1083.79 447.383 1085.7 448.18 1087.11 449.773C1088.52 451.355 1089.22 453.447 1089.22 456.049V457.895H1075.95C1076.01 460.156 1076.57 461.873 1077.65 463.045C1078.74 464.217 1080.27 464.803 1082.24 464.803C1084.31 464.803 1086.36 464.369 1088.39 463.502V466.104C1087.36 466.549 1086.38 466.865 1085.46 467.053C1084.54 467.252 1083.44 467.352 1082.13 467.352ZM1081.34 449.826C1079.8 449.826 1078.56 450.33 1077.63 451.338C1076.72 452.346 1076.18 453.74 1076.02 455.521H1086.09C1086.09 453.682 1085.68 452.275 1084.86 451.303C1084.04 450.318 1082.87 449.826 1081.34 449.826ZM1109.3 467L1108.72 464.258H1108.58C1107.62 465.465 1106.66 466.285 1105.69 466.719C1104.75 467.141 1103.56 467.352 1102.13 467.352C1100.22 467.352 1098.72 466.859 1097.63 465.875C1096.55 464.891 1096.01 463.49 1096.01 461.674C1096.01 457.783 1099.12 455.744 1105.34 455.557L1108.61 455.451V454.256C1108.61 452.744 1108.28 451.631 1107.63 450.916C1106.98 450.189 1105.95 449.826 1104.52 449.826C1102.91 449.826 1101.09 450.318 1099.07 451.303L1098.17 449.07C1099.12 448.555 1100.16 448.15 1101.28 447.857C1102.42 447.564 1103.56 447.418 1104.69 447.418C1106.99 447.418 1108.69 447.928 1109.79 448.947C1110.9 449.967 1111.46 451.602 1111.46 453.852V467H1109.3ZM1102.71 464.943C1104.52 464.943 1105.95 464.445 1106.98 463.449C1108.02 462.453 1108.54 461.059 1108.54 459.266V457.525L1105.62 457.648C1103.3 457.73 1101.63 458.094 1100.6 458.738C1099.58 459.371 1099.07 460.361 1099.07 461.709C1099.07 462.764 1099.38 463.566 1100.02 464.117C1100.66 464.668 1101.56 464.943 1102.71 464.943ZM1133.16 461.744C1133.16 463.537 1132.49 464.92 1131.15 465.893C1129.82 466.865 1127.94 467.352 1125.53 467.352C1122.97 467.352 1120.98 466.947 1119.55 466.139V463.432C1120.48 463.9 1121.47 464.27 1122.52 464.539C1123.59 464.809 1124.61 464.943 1125.6 464.943C1127.12 464.943 1128.29 464.703 1129.11 464.223C1129.93 463.73 1130.34 462.986 1130.34 461.99C1130.34 461.24 1130.02 460.602 1129.36 460.074C1128.72 459.535 1127.45 458.902 1125.56 458.176C1123.77 457.508 1122.49 456.928 1121.73 456.436C1120.98 455.932 1120.42 455.363 1120.04 454.73C1119.68 454.098 1119.5 453.342 1119.5 452.463C1119.5 450.893 1120.14 449.656 1121.42 448.754C1122.69 447.84 1124.44 447.383 1126.67 447.383C1128.75 447.383 1130.77 447.805 1132.75 448.648L1131.72 451.021C1129.78 450.225 1128.03 449.826 1126.46 449.826C1125.08 449.826 1124.03 450.043 1123.33 450.477C1122.63 450.91 1122.28 451.508 1122.28 452.27C1122.28 452.785 1122.41 453.225 1122.66 453.588C1122.93 453.951 1123.36 454.297 1123.95 454.625C1124.53 454.953 1125.66 455.428 1127.32 456.049C1129.61 456.881 1131.15 457.719 1131.94 458.562C1132.75 459.406 1133.16 460.467 1133.16 461.744ZM491.451 516H474.559V513.486L481.326 506.684C483.389 504.598 484.748 503.109 485.404 502.219C486.061 501.328 486.553 500.461 486.881 499.617C487.209 498.773 487.373 497.865 487.373 496.893C487.373 495.521 486.957 494.438 486.125 493.641C485.293 492.832 484.139 492.428 482.662 492.428C481.596 492.428 480.582 492.604 479.621 492.955C478.672 493.307 477.611 493.945 476.44 494.871L474.893 492.885C477.26 490.916 479.838 489.932 482.627 489.932C485.041 489.932 486.934 490.553 488.305 491.795C489.676 493.025 490.361 494.684 490.361 496.77C490.361 498.398 489.904 500.01 488.99 501.604C488.076 503.197 486.365 505.213 483.858 507.65L478.233 513.152V513.293H491.451V516ZM496.074 514.137C496.074 513.352 496.25 512.76 496.602 512.361C496.965 511.951 497.481 511.746 498.149 511.746C498.828 511.746 499.356 511.951 499.731 512.361C500.117 512.76 500.311 513.352 500.311 514.137C500.311 514.898 500.117 515.484 499.731 515.895C499.344 516.305 498.817 516.51 498.149 516.51C497.551 516.51 497.053 516.328 496.654 515.965C496.268 515.59 496.074 514.98 496.074 514.137ZM529.537 492.604C526.713 492.604 524.48 493.547 522.84 495.434C521.211 497.309 520.396 499.881 520.396 503.15C520.396 506.514 521.182 509.115 522.752 510.955C524.334 512.783 526.584 513.697 529.502 513.697C531.295 513.697 533.34 513.375 535.637 512.73V515.35C533.855 516.018 531.658 516.352 529.045 516.352C525.26 516.352 522.336 515.203 520.273 512.906C518.223 510.609 517.197 507.346 517.197 503.115C517.197 500.467 517.689 498.146 518.674 496.154C519.67 494.162 521.1 492.627 522.963 491.549C524.838 490.471 527.041 489.932 529.572 489.932C532.268 489.932 534.623 490.424 536.639 491.408L535.373 493.975C533.428 493.061 531.482 492.604 529.537 492.604ZM547.472 505.312V516H544.484V490.301H551.533C554.685 490.301 557.011 490.904 558.511 492.111C560.023 493.318 560.779 495.135 560.779 497.561C560.779 500.959 559.056 503.256 555.611 504.451L562.59 516H559.056L552.834 505.312H547.472ZM547.472 502.746H551.568C553.677 502.746 555.224 502.33 556.209 501.498C557.193 500.654 557.685 499.395 557.685 497.719C557.685 496.02 557.181 494.795 556.174 494.045C555.177 493.295 553.572 492.92 551.357 492.92H547.472V502.746ZM586.132 516L582.933 507.826H572.632L569.468 516H566.445L576.605 490.195H579.119L589.226 516H586.132ZM582.001 505.137L579.013 497.174C578.626 496.166 578.228 494.93 577.818 493.465C577.56 494.59 577.191 495.826 576.71 497.174L573.687 505.137H582.001ZM611.574 516H593.908V513.662L607.548 492.99H594.329V490.301H611.187V492.639L597.546 513.293H611.574V516ZM626.345 503.15L633.2 490.301H636.435L627.856 506.033V516H624.833V506.174L616.273 490.301H619.542L626.345 503.15ZM662.549 489.932C664.893 489.932 666.751 490.477 668.122 491.566C669.493 492.656 670.178 494.162 670.178 496.084C670.178 497.35 669.786 498.504 669.001 499.547C668.215 500.59 666.961 501.539 665.239 502.395C667.325 503.391 668.807 504.439 669.686 505.541C670.565 506.631 671.004 507.896 671.004 509.338C671.004 511.471 670.26 513.176 668.772 514.453C667.284 515.719 665.245 516.352 662.655 516.352C659.913 516.352 657.803 515.754 656.327 514.559C654.85 513.352 654.112 511.646 654.112 509.443C654.112 506.502 655.905 504.211 659.491 502.57C657.874 501.656 656.713 500.672 656.01 499.617C655.307 498.551 654.956 497.361 654.956 496.049C654.956 494.186 655.641 492.703 657.012 491.602C658.395 490.488 660.241 489.932 662.549 489.932ZM656.995 509.514C656.995 510.92 657.481 512.016 658.454 512.801C659.438 513.586 660.815 513.979 662.585 513.979C664.331 513.979 665.69 513.568 666.663 512.748C667.635 511.928 668.122 510.803 668.122 509.373C668.122 508.236 667.665 507.229 666.751 506.35C665.836 505.459 664.243 504.598 661.969 503.766C660.223 504.516 658.958 505.348 658.172 506.262C657.387 507.164 656.995 508.248 656.995 509.514ZM662.514 492.305C661.049 492.305 659.901 492.656 659.069 493.359C658.237 494.062 657.821 495 657.821 496.172C657.821 497.25 658.167 498.176 658.858 498.949C659.549 499.723 660.827 500.496 662.69 501.27C664.366 500.566 665.549 499.811 666.241 499.002C666.944 498.193 667.295 497.25 667.295 496.172C667.295 494.988 666.868 494.051 666.012 493.359C665.169 492.656 664.003 492.305 662.514 492.305ZM690.193 507.686V505.014H698.824V507.686H690.193ZM735.837 516L732.638 507.826H722.337L719.173 516H716.15L726.31 490.195H728.824L738.931 516H735.837ZM731.707 505.137L728.718 497.174C728.332 496.166 727.933 494.93 727.523 493.465C727.265 494.59 726.896 495.826 726.416 497.174L723.392 505.137H731.707ZM769.599 502.535H778.335V515.033C776.976 515.467 775.593 515.795 774.187 516.018C772.78 516.24 771.151 516.352 769.3 516.352C765.409 516.352 762.38 515.197 760.212 512.889C758.044 510.568 756.96 507.322 756.96 503.15C756.96 500.479 757.493 498.141 758.56 496.137C759.638 494.121 761.185 492.586 763.2 491.531C765.216 490.465 767.577 489.932 770.284 489.932C773.026 489.932 775.581 490.436 777.948 491.443L776.788 494.08C774.468 493.096 772.235 492.604 770.091 492.604C766.962 492.604 764.519 493.535 762.761 495.398C761.003 497.262 760.124 499.846 760.124 503.15C760.124 506.619 760.968 509.25 762.655 511.043C764.355 512.836 766.845 513.732 770.126 513.732C771.907 513.732 773.648 513.527 775.347 513.117V505.207H769.599V502.535ZM803.952 506.35C803.952 509.49 803.161 511.945 801.579 513.715C799.997 515.473 797.811 516.352 795.022 516.352C793.3 516.352 791.77 515.947 790.434 515.139C789.099 514.33 788.067 513.17 787.341 511.658C786.614 510.146 786.251 508.377 786.251 506.35C786.251 503.209 787.036 500.766 788.606 499.02C790.177 497.262 792.356 496.383 795.145 496.383C797.841 496.383 799.979 497.279 801.561 499.072C803.155 500.865 803.952 503.291 803.952 506.35ZM789.274 506.35C789.274 508.811 789.766 510.686 790.751 511.975C791.735 513.264 793.182 513.908 795.093 513.908C797.003 513.908 798.45 513.27 799.434 511.992C800.431 510.703 800.929 508.822 800.929 506.35C800.929 503.9 800.431 502.043 799.434 500.777C798.45 499.5 796.991 498.861 795.057 498.861C793.147 498.861 791.706 499.488 790.733 500.742C789.761 501.996 789.274 503.865 789.274 506.35ZM828.954 506.35C828.954 509.49 828.163 511.945 826.581 513.715C824.999 515.473 822.813 516.352 820.024 516.352C818.301 516.352 816.772 515.947 815.436 515.139C814.1 514.33 813.069 513.17 812.342 511.658C811.616 510.146 811.253 508.377 811.253 506.35C811.253 503.209 812.038 500.766 813.608 499.02C815.178 497.262 817.358 496.383 820.147 496.383C822.842 496.383 824.981 497.279 826.563 499.072C828.157 500.865 828.954 503.291 828.954 506.35ZM814.276 506.35C814.276 508.811 814.768 510.686 815.753 511.975C816.737 513.264 818.184 513.908 820.094 513.908C822.005 513.908 823.452 513.27 824.436 511.992C825.432 510.703 825.93 508.822 825.93 506.35C825.93 503.9 825.432 502.043 824.436 500.777C823.452 499.5 821.993 498.861 820.059 498.861C818.149 498.861 816.708 499.488 815.735 500.742C814.762 501.996 814.276 503.865 814.276 506.35ZM853.094 496.734V498.58L849.526 499.002C849.854 499.412 850.147 499.951 850.405 500.619C850.663 501.275 850.791 502.02 850.791 502.852C850.791 504.738 850.147 506.244 848.858 507.369C847.569 508.494 845.799 509.057 843.549 509.057C842.975 509.057 842.436 509.01 841.932 508.916C840.69 509.572 840.069 510.398 840.069 511.395C840.069 511.922 840.286 512.314 840.719 512.572C841.153 512.818 841.897 512.941 842.952 512.941H846.362C848.448 512.941 850.047 513.381 851.161 514.26C852.286 515.139 852.848 516.416 852.848 518.092C852.848 520.225 851.993 521.848 850.282 522.961C848.571 524.086 846.075 524.648 842.793 524.648C840.274 524.648 838.329 524.18 836.957 523.242C835.598 522.305 834.918 520.98 834.918 519.27C834.918 518.098 835.293 517.084 836.043 516.229C836.793 515.373 837.848 514.793 839.207 514.488C838.715 514.266 838.299 513.92 837.959 513.451C837.631 512.982 837.467 512.438 837.467 511.816C837.467 511.113 837.655 510.498 838.03 509.971C838.405 509.443 838.996 508.934 839.805 508.441C838.809 508.031 837.995 507.334 837.362 506.35C836.741 505.365 836.43 504.24 836.43 502.975C836.43 500.865 837.063 499.242 838.329 498.105C839.594 496.957 841.387 496.383 843.707 496.383C844.715 496.383 845.623 496.5 846.432 496.734H853.094ZM837.731 519.234C837.731 520.277 838.17 521.068 839.049 521.607C839.928 522.146 841.188 522.416 842.829 522.416C845.278 522.416 847.088 522.047 848.26 521.309C849.444 520.582 850.036 519.592 850.036 518.338C850.036 517.295 849.713 516.568 849.069 516.158C848.424 515.76 847.211 515.561 845.43 515.561H841.932C840.608 515.561 839.577 515.877 838.838 516.51C838.1 517.143 837.731 518.051 837.731 519.234ZM839.313 502.904C839.313 504.252 839.694 505.271 840.455 505.963C841.217 506.654 842.278 507 843.637 507C846.485 507 847.909 505.617 847.909 502.852C847.909 499.957 846.467 498.51 843.584 498.51C842.213 498.51 841.159 498.879 840.42 499.617C839.682 500.355 839.313 501.451 839.313 502.904ZM863.207 516H860.289V488.648H863.207V516ZM880.773 516.352C877.926 516.352 875.676 515.484 874.023 513.75C872.383 512.016 871.562 509.607 871.562 506.525C871.562 503.42 872.324 500.953 873.848 499.125C875.383 497.297 877.439 496.383 880.017 496.383C882.432 496.383 884.342 497.18 885.748 498.773C887.154 500.355 887.857 502.447 887.857 505.049V506.895H874.586C874.644 509.156 875.213 510.873 876.291 512.045C877.381 513.217 878.91 513.803 880.879 513.803C882.953 513.803 885.004 513.369 887.031 512.502V515.104C886 515.549 885.021 515.865 884.096 516.053C883.182 516.252 882.074 516.352 880.773 516.352ZM879.982 498.826C878.435 498.826 877.199 499.33 876.273 500.338C875.359 501.346 874.82 502.74 874.656 504.521H884.728C884.728 502.682 884.318 501.275 883.498 500.303C882.678 499.318 881.506 498.826 879.982 498.826ZM921.794 513.416H921.636C920.289 515.373 918.273 516.352 915.589 516.352C913.07 516.352 911.107 515.49 909.701 513.768C908.306 512.045 907.609 509.596 907.609 506.42C907.609 503.244 908.312 500.777 909.718 499.02C911.124 497.262 913.081 496.383 915.589 496.383C918.203 496.383 920.206 497.332 921.601 499.23H921.83L921.706 497.842L921.636 496.488V488.648H924.554V516H922.181L921.794 513.416ZM915.958 513.908C917.951 513.908 919.392 513.369 920.283 512.291C921.185 511.201 921.636 509.449 921.636 507.035V506.42C921.636 503.689 921.179 501.744 920.265 500.584C919.363 499.412 917.915 498.826 915.923 498.826C914.212 498.826 912.9 499.494 911.986 500.83C911.083 502.154 910.632 504.029 910.632 506.455C910.632 508.916 911.083 510.773 911.986 512.027C912.888 513.281 914.212 513.908 915.958 513.908ZM942.138 516.352C939.29 516.352 937.04 515.484 935.388 513.75C933.747 512.016 932.927 509.607 932.927 506.525C932.927 503.42 933.689 500.953 935.212 499.125C936.747 497.297 938.804 496.383 941.382 496.383C943.796 496.383 945.706 497.18 947.112 498.773C948.519 500.355 949.222 502.447 949.222 505.049V506.895H935.95C936.009 509.156 936.577 510.873 937.655 512.045C938.745 513.217 940.275 513.803 942.243 513.803C944.318 513.803 946.368 513.369 948.396 512.502V515.104C947.364 515.549 946.386 515.865 945.46 516.053C944.546 516.252 943.439 516.352 942.138 516.352ZM941.347 498.826C939.8 498.826 938.564 499.33 937.638 500.338C936.724 501.346 936.185 502.74 936.021 504.521H946.093C946.093 502.682 945.683 501.275 944.862 500.303C944.042 499.318 942.87 498.826 941.347 498.826ZM969.882 510.744C969.882 512.537 969.214 513.92 967.878 514.893C966.542 515.865 964.667 516.352 962.253 516.352C959.698 516.352 957.706 515.947 956.276 515.139V512.432C957.202 512.9 958.192 513.27 959.247 513.539C960.313 513.809 961.339 513.943 962.323 513.943C963.847 513.943 965.019 513.703 965.839 513.223C966.659 512.73 967.069 511.986 967.069 510.99C967.069 510.24 966.741 509.602 966.085 509.074C965.44 508.535 964.175 507.902 962.288 507.176C960.495 506.508 959.218 505.928 958.456 505.436C957.706 504.932 957.144 504.363 956.769 503.73C956.405 503.098 956.224 502.342 956.224 501.463C956.224 499.893 956.862 498.656 958.14 497.754C959.417 496.84 961.169 496.383 963.395 496.383C965.47 496.383 967.497 496.805 969.478 497.648L968.44 500.021C966.507 499.225 964.755 498.826 963.185 498.826C961.802 498.826 960.759 499.043 960.056 499.477C959.353 499.91 959.001 500.508 959.001 501.27C959.001 501.785 959.13 502.225 959.388 502.588C959.657 502.951 960.085 503.297 960.671 503.625C961.257 503.953 962.382 504.428 964.046 505.049C966.331 505.881 967.872 506.719 968.669 507.562C969.478 508.406 969.882 509.467 969.882 510.744ZM980.803 516H977.885V496.734H980.803V516ZM977.639 491.514C977.639 490.846 977.803 490.359 978.132 490.055C978.46 489.738 978.87 489.58 979.362 489.58C979.831 489.58 980.235 489.738 980.575 490.055C980.915 490.371 981.085 490.857 981.085 491.514C981.085 492.17 980.915 492.662 980.575 492.99C980.235 493.307 979.831 493.465 979.362 493.465C978.87 493.465 978.46 493.307 978.132 492.99C977.803 492.662 977.639 492.17 977.639 491.514ZM1006 496.734V498.58L1002.43 499.002C1002.76 499.412 1003.05 499.951 1003.31 500.619C1003.57 501.275 1003.7 502.02 1003.7 502.852C1003.7 504.738 1003.05 506.244 1001.76 507.369C1000.47 508.494 998.704 509.057 996.454 509.057C995.879 509.057 995.34 509.01 994.836 508.916C993.594 509.572 992.973 510.398 992.973 511.395C992.973 511.922 993.19 512.314 993.624 512.572C994.057 512.818 994.801 512.941 995.856 512.941H999.266C1001.35 512.941 1002.95 513.381 1004.06 514.26C1005.19 515.139 1005.75 516.416 1005.75 518.092C1005.75 520.225 1004.9 521.848 1003.19 522.961C1001.48 524.086 998.979 524.648 995.698 524.648C993.178 524.648 991.233 524.18 989.862 523.242C988.502 522.305 987.823 520.98 987.823 519.27C987.823 518.098 988.198 517.084 988.948 516.229C989.698 515.373 990.752 514.793 992.112 514.488C991.62 514.266 991.204 513.92 990.864 513.451C990.536 512.982 990.372 512.438 990.372 511.816C990.372 511.113 990.559 510.498 990.934 509.971C991.309 509.443 991.901 508.934 992.709 508.441C991.713 508.031 990.899 507.334 990.266 506.35C989.645 505.365 989.334 504.24 989.334 502.975C989.334 500.865 989.967 499.242 991.233 498.105C992.499 496.957 994.292 496.383 996.612 496.383C997.62 496.383 998.528 496.5 999.336 496.734H1006ZM990.635 519.234C990.635 520.277 991.075 521.068 991.954 521.607C992.833 522.146 994.092 522.416 995.733 522.416C998.182 522.416 999.993 522.047 1001.16 521.309C1002.35 520.582 1002.94 519.592 1002.94 518.338C1002.94 517.295 1002.62 516.568 1001.97 516.158C1001.33 515.76 1000.12 515.561 998.334 515.561H994.836C993.512 515.561 992.481 515.877 991.743 516.51C991.004 517.143 990.635 518.051 990.635 519.234ZM992.217 502.904C992.217 504.252 992.598 505.271 993.36 505.963C994.122 506.654 995.182 507 996.542 507C999.389 507 1000.81 505.617 1000.81 502.852C1000.81 499.957 999.372 498.51 996.489 498.51C995.118 498.51 994.063 498.879 993.325 499.617C992.586 500.355 992.217 501.451 992.217 502.904ZM1026.38 516V503.537C1026.38 501.967 1026.02 500.795 1025.3 500.021C1024.59 499.248 1023.47 498.861 1021.95 498.861C1019.93 498.861 1018.46 499.406 1017.52 500.496C1016.58 501.586 1016.11 503.385 1016.11 505.893V516H1013.19V496.734H1015.57L1016.04 499.371H1016.18C1016.78 498.422 1017.62 497.689 1018.7 497.174C1019.77 496.646 1020.97 496.383 1022.3 496.383C1024.62 496.383 1026.37 496.945 1027.54 498.07C1028.71 499.184 1029.3 500.971 1029.3 503.432V516H1026.38ZM1063.57 510.744C1063.57 512.537 1062.9 513.92 1061.56 514.893C1060.23 515.865 1058.35 516.352 1055.94 516.352C1053.38 516.352 1051.39 515.947 1049.96 515.139V512.432C1050.89 512.9 1051.88 513.27 1052.93 513.539C1054 513.809 1055.02 513.943 1056.01 513.943C1057.53 513.943 1058.7 513.703 1059.52 513.223C1060.34 512.73 1060.75 511.986 1060.75 510.99C1060.75 510.24 1060.43 509.602 1059.77 509.074C1059.12 508.535 1057.86 507.902 1055.97 507.176C1054.18 506.508 1052.9 505.928 1052.14 505.436C1051.39 504.932 1050.83 504.363 1050.45 503.73C1050.09 503.098 1049.91 502.342 1049.91 501.463C1049.91 499.893 1050.55 498.656 1051.82 497.754C1053.1 496.84 1054.85 496.383 1057.08 496.383C1059.15 496.383 1061.18 496.805 1063.16 497.648L1062.12 500.021C1060.19 499.225 1058.44 498.826 1056.87 498.826C1055.49 498.826 1054.44 499.043 1053.74 499.477C1053.04 499.91 1052.69 500.508 1052.69 501.27C1052.69 501.785 1052.81 502.225 1053.07 502.588C1053.34 502.951 1053.77 503.297 1054.36 503.625C1054.94 503.953 1056.07 504.428 1057.73 505.049C1060.02 505.881 1061.56 506.719 1062.35 507.562C1063.16 508.406 1063.57 509.467 1063.57 510.744ZM1080.53 516.352C1079.28 516.352 1078.13 516.123 1077.09 515.666C1076.06 515.197 1075.19 514.482 1074.49 513.521H1074.28C1074.42 514.646 1074.49 515.713 1074.49 516.721V524.648H1071.57V496.734H1073.94L1074.35 499.371H1074.49C1075.24 498.316 1076.11 497.555 1077.11 497.086C1078.1 496.617 1079.25 496.383 1080.53 496.383C1083.09 496.383 1085.06 497.256 1086.44 499.002C1087.84 500.748 1088.53 503.197 1088.53 506.35C1088.53 509.514 1087.82 511.975 1086.41 513.732C1085 515.479 1083.04 516.352 1080.53 516.352ZM1080.11 498.861C1078.14 498.861 1076.72 499.406 1075.84 500.496C1074.96 501.586 1074.51 503.32 1074.49 505.699V506.35C1074.49 509.057 1074.94 510.996 1075.84 512.168C1076.74 513.328 1078.19 513.908 1080.18 513.908C1081.85 513.908 1083.15 513.234 1084.09 511.887C1085.03 510.539 1085.51 508.682 1085.51 506.314C1085.51 503.912 1085.03 502.072 1084.09 500.795C1083.15 499.506 1081.82 498.861 1080.11 498.861ZM1105.68 496.383C1106.53 496.383 1107.3 496.453 1107.98 496.594L1107.58 499.301C1106.78 499.125 1106.08 499.037 1105.47 499.037C1103.91 499.037 1102.57 499.67 1101.46 500.936C1100.36 502.201 1099.81 503.777 1099.81 505.664V516H1096.89V496.734H1099.3L1099.63 500.303H1099.77C1100.49 499.049 1101.35 498.082 1102.35 497.402C1103.36 496.723 1104.47 496.383 1105.68 496.383ZM1117.74 516H1114.82V496.734H1117.74V516ZM1114.58 491.514C1114.58 490.846 1114.74 490.359 1115.07 490.055C1115.4 489.738 1115.81 489.58 1116.3 489.58C1116.77 489.58 1117.17 489.738 1117.51 490.055C1117.85 490.371 1118.02 490.857 1118.02 491.514C1118.02 492.17 1117.85 492.662 1117.51 492.99C1117.17 493.307 1116.77 493.465 1116.3 493.465C1115.81 493.465 1115.4 493.307 1115.07 492.99C1114.74 492.662 1114.58 492.17 1114.58 491.514ZM1140.35 516V503.537C1140.35 501.967 1139.99 500.795 1139.28 500.021C1138.57 499.248 1137.45 498.861 1135.92 498.861C1133.91 498.861 1132.43 499.406 1131.49 500.496C1130.56 501.586 1130.09 503.385 1130.09 505.893V516H1127.17V496.734H1129.54L1130.02 499.371H1130.16C1130.75 498.422 1131.59 497.689 1132.67 497.174C1133.75 496.646 1134.95 496.383 1136.27 496.383C1138.59 496.383 1140.34 496.945 1141.51 498.07C1142.68 499.184 1143.27 500.971 1143.27 503.432V516H1140.35ZM1158.74 513.943C1159.26 513.943 1159.76 513.908 1160.24 513.838C1160.72 513.756 1161.1 513.674 1161.38 513.592V515.824C1161.07 515.977 1160.6 516.1 1159.98 516.193C1159.37 516.299 1158.82 516.352 1158.32 516.352C1154.6 516.352 1152.73 514.389 1152.73 510.463V499.002H1149.97V497.596L1152.73 496.383L1153.96 492.27H1155.65V496.734H1161.24V499.002H1155.65V510.34C1155.65 511.5 1155.93 512.391 1156.48 513.012C1157.03 513.633 1157.78 513.943 1158.74 513.943ZM1205.64 516V503.467C1205.64 501.932 1205.31 500.783 1204.65 500.021C1204 499.248 1202.98 498.861 1201.59 498.861C1199.78 498.861 1198.44 499.383 1197.57 500.426C1196.7 501.469 1196.27 503.074 1196.27 505.242V516H1193.35V503.467C1193.35 501.932 1193.02 500.783 1192.37 500.021C1191.71 499.248 1190.68 498.861 1189.29 498.861C1187.46 498.861 1186.12 499.412 1185.26 500.514C1184.42 501.604 1184 503.396 1184 505.893V516H1181.08V496.734H1183.45L1183.93 499.371H1184.07C1184.62 498.434 1185.39 497.701 1186.39 497.174C1187.4 496.646 1188.52 496.383 1189.76 496.383C1192.78 496.383 1194.74 497.473 1195.67 499.652H1195.81C1196.38 498.645 1197.22 497.848 1198.31 497.262C1199.4 496.676 1200.64 496.383 1202.03 496.383C1204.21 496.383 1205.84 496.945 1206.92 498.07C1208.01 499.184 1208.55 500.971 1208.55 503.432V516H1205.64ZM1225.96 516.352C1223.12 516.352 1220.87 515.484 1219.21 513.75C1217.57 512.016 1216.75 509.607 1216.75 506.525C1216.75 503.42 1217.51 500.953 1219.04 499.125C1220.57 497.297 1222.63 496.383 1225.21 496.383C1227.62 496.383 1229.53 497.18 1230.94 498.773C1232.34 500.355 1233.05 502.447 1233.05 505.049V506.895H1219.78C1219.83 509.156 1220.4 510.873 1221.48 512.045C1222.57 513.217 1224.1 513.803 1226.07 513.803C1228.14 513.803 1230.19 513.369 1232.22 512.502V515.104C1231.19 515.549 1230.21 515.865 1229.28 516.053C1228.37 516.252 1227.26 516.352 1225.96 516.352ZM1225.17 498.826C1223.62 498.826 1222.39 499.33 1221.46 500.338C1220.55 501.346 1220.01 502.74 1219.85 504.521H1229.92C1229.92 502.682 1229.51 501.275 1228.69 500.303C1227.87 499.318 1226.7 498.826 1225.17 498.826ZM1247.5 513.943C1248.02 513.943 1248.52 513.908 1249 513.838C1249.48 513.756 1249.86 513.674 1250.14 513.592V515.824C1249.82 515.977 1249.35 516.1 1248.73 516.193C1248.12 516.299 1247.57 516.352 1247.08 516.352C1243.35 516.352 1241.49 514.389 1241.49 510.463V499.002H1238.73V497.596L1241.49 496.383L1242.72 492.27H1244.41V496.734H1250V499.002H1244.41V510.34C1244.41 511.5 1244.68 512.391 1245.23 513.012C1245.78 513.633 1246.54 513.943 1247.5 513.943ZM1270.43 516V503.537C1270.43 501.967 1270.07 500.795 1269.36 500.021C1268.64 499.248 1267.52 498.861 1266 498.861C1263.97 498.861 1262.49 499.412 1261.55 500.514C1260.63 501.615 1260.16 503.42 1260.16 505.928V516H1257.25V488.648H1260.16V496.928C1260.16 497.924 1260.12 498.75 1260.02 499.406H1260.2C1260.77 498.48 1261.59 497.754 1262.64 497.227C1263.71 496.688 1264.92 496.418 1266.28 496.418C1268.64 496.418 1270.4 496.98 1271.57 498.105C1272.76 499.219 1273.35 500.994 1273.35 503.432V516H1270.43ZM1299.23 506.35C1299.23 509.49 1298.44 511.945 1296.85 513.715C1295.27 515.473 1293.09 516.352 1290.3 516.352C1288.58 516.352 1287.05 515.947 1285.71 515.139C1284.37 514.33 1283.34 513.17 1282.62 511.658C1281.89 510.146 1281.53 508.377 1281.53 506.35C1281.53 503.209 1282.31 500.766 1283.88 499.02C1285.45 497.262 1287.63 496.383 1290.42 496.383C1293.12 496.383 1295.26 497.279 1296.84 499.072C1298.43 500.865 1299.23 503.291 1299.23 506.35ZM1284.55 506.35C1284.55 508.811 1285.04 510.686 1286.03 511.975C1287.01 513.264 1288.46 513.908 1290.37 513.908C1292.28 513.908 1293.73 513.27 1294.71 511.992C1295.71 510.703 1296.2 508.822 1296.2 506.35C1296.2 503.9 1295.71 502.043 1294.71 500.777C1293.73 499.5 1292.27 498.861 1290.33 498.861C1288.42 498.861 1286.98 499.488 1286.01 500.742C1285.04 501.996 1284.55 503.865 1284.55 506.35ZM1320.71 513.416H1320.56C1319.21 515.373 1317.19 516.352 1314.51 516.352C1311.99 516.352 1310.03 515.49 1308.62 513.768C1307.23 512.045 1306.53 509.596 1306.53 506.42C1306.53 503.244 1307.23 500.777 1308.64 499.02C1310.04 497.262 1312 496.383 1314.51 496.383C1317.12 496.383 1319.13 497.332 1320.52 499.23H1320.75L1320.63 497.842L1320.56 496.488V488.648H1323.47V516H1321.1L1320.71 513.416ZM1314.88 513.908C1316.87 513.908 1318.31 513.369 1319.2 512.291C1320.1 511.201 1320.56 509.449 1320.56 507.035V506.42C1320.56 503.689 1320.1 501.744 1319.18 500.584C1318.28 499.412 1316.83 498.826 1314.84 498.826C1313.13 498.826 1311.82 499.494 1310.91 500.83C1310 502.154 1309.55 504.029 1309.55 506.455C1309.55 508.916 1310 510.773 1310.91 512.027C1311.81 513.281 1313.13 513.908 1314.88 513.908ZM490.484 545.348C490.484 546.988 490.022 548.33 489.096 549.373C488.182 550.416 486.881 551.113 485.193 551.465V551.605C487.256 551.863 488.785 552.52 489.781 553.574C490.777 554.629 491.276 556.012 491.276 557.723C491.276 560.172 490.426 562.059 488.727 563.383C487.027 564.695 484.613 565.352 481.484 565.352C480.125 565.352 478.877 565.246 477.74 565.035C476.615 564.836 475.52 564.479 474.453 563.963V561.186C475.567 561.736 476.75 562.158 478.004 562.451C479.27 562.732 480.465 562.873 481.59 562.873C486.031 562.873 488.252 561.133 488.252 557.652C488.252 554.535 485.803 552.977 480.904 552.977H478.373V550.463H480.94C482.943 550.463 484.531 550.023 485.703 549.145C486.875 548.254 487.461 547.023 487.461 545.453C487.461 544.199 487.027 543.215 486.16 542.5C485.305 541.785 484.139 541.428 482.662 541.428C481.537 541.428 480.477 541.58 479.481 541.885C478.484 542.189 477.348 542.752 476.07 543.572L474.594 541.604C475.649 540.771 476.861 540.121 478.233 539.652C479.615 539.172 481.068 538.932 482.592 538.932C485.088 538.932 487.027 539.506 488.41 540.654C489.793 541.791 490.484 543.355 490.484 545.348ZM496.074 563.137C496.074 562.352 496.25 561.76 496.602 561.361C496.965 560.951 497.481 560.746 498.149 560.746C498.828 560.746 499.356 560.951 499.731 561.361C500.117 561.76 500.311 562.352 500.311 563.137C500.311 563.898 500.117 564.484 499.731 564.895C499.344 565.305 498.817 565.51 498.149 565.51C497.551 565.51 497.053 565.328 496.654 564.965C496.268 564.59 496.074 563.98 496.074 563.137ZM533.035 558.162C533.035 560.424 532.215 562.188 530.574 563.453C528.934 564.719 526.707 565.352 523.895 565.352C520.848 565.352 518.504 564.959 516.863 564.174V561.291C517.918 561.736 519.066 562.088 520.309 562.346C521.551 562.604 522.781 562.732 524 562.732C525.992 562.732 527.492 562.357 528.5 561.607C529.508 560.846 530.012 559.791 530.012 558.443C530.012 557.553 529.83 556.826 529.467 556.264C529.115 555.689 528.518 555.162 527.674 554.682C526.842 554.201 525.57 553.656 523.859 553.047C521.469 552.191 519.758 551.178 518.727 550.006C517.707 548.834 517.197 547.305 517.197 545.418C517.197 543.438 517.941 541.861 519.43 540.689C520.918 539.518 522.887 538.932 525.336 538.932C527.891 538.932 530.24 539.4 532.385 540.338L531.453 542.939C529.332 542.049 527.27 541.604 525.266 541.604C523.684 541.604 522.447 541.943 521.557 542.623C520.666 543.303 520.221 544.246 520.221 545.453C520.221 546.344 520.385 547.076 520.713 547.65C521.041 548.213 521.592 548.734 522.365 549.215C523.15 549.684 524.346 550.205 525.951 550.779C528.646 551.74 530.498 552.771 531.506 553.873C532.525 554.975 533.035 556.404 533.035 558.162ZM557.72 555.35C557.72 558.49 556.929 560.945 555.347 562.715C553.765 564.473 551.58 565.352 548.791 565.352C547.068 565.352 545.539 564.947 544.203 564.139C542.867 563.33 541.836 562.17 541.109 560.658C540.383 559.146 540.019 557.377 540.019 555.35C540.019 552.209 540.804 549.766 542.375 548.02C543.945 546.262 546.125 545.383 548.914 545.383C551.609 545.383 553.748 546.279 555.33 548.072C556.924 549.865 557.72 552.291 557.72 555.35ZM543.043 555.35C543.043 557.811 543.535 559.686 544.519 560.975C545.504 562.264 546.951 562.908 548.861 562.908C550.771 562.908 552.219 562.27 553.203 560.992C554.199 559.703 554.697 557.822 554.697 555.35C554.697 552.9 554.199 551.043 553.203 549.777C552.219 548.5 550.76 547.861 548.826 547.861C546.916 547.861 545.474 548.488 544.502 549.742C543.529 550.996 543.043 552.865 543.043 555.35ZM569.011 565H566.093V537.648H569.011V565ZM581.181 545.734V558.232C581.181 559.803 581.538 560.975 582.253 561.748C582.968 562.521 584.087 562.908 585.611 562.908C587.626 562.908 589.097 562.357 590.023 561.256C590.96 560.154 591.429 558.355 591.429 555.859V545.734H594.347V565H591.939L591.517 562.416H591.359C590.761 563.365 589.929 564.092 588.863 564.596C587.808 565.1 586.601 565.352 585.241 565.352C582.898 565.352 581.14 564.795 579.968 563.682C578.808 562.568 578.228 560.787 578.228 558.338V545.734H581.181ZM610.015 562.943C610.53 562.943 611.028 562.908 611.509 562.838C611.989 562.756 612.37 562.674 612.651 562.592V564.824C612.335 564.977 611.866 565.1 611.245 565.193C610.636 565.299 610.085 565.352 609.593 565.352C605.866 565.352 604.003 563.389 604.003 559.463V548.002H601.243V546.596L604.003 545.383L605.233 541.27H606.921V545.734H612.511V548.002H606.921V559.34C606.921 560.5 607.196 561.391 607.747 562.012C608.298 562.633 609.054 562.943 610.015 562.943ZM622.677 565H619.759V545.734H622.677V565ZM619.512 540.514C619.512 539.846 619.677 539.359 620.005 539.055C620.333 538.738 620.743 538.58 621.235 538.58C621.704 538.58 622.108 538.738 622.448 539.055C622.788 539.371 622.958 539.857 622.958 540.514C622.958 541.17 622.788 541.662 622.448 541.99C622.108 542.307 621.704 542.465 621.235 542.465C620.743 542.465 620.333 542.307 620.005 541.99C619.677 541.662 619.512 541.17 619.512 540.514ZM648.733 555.35C648.733 558.49 647.942 560.945 646.36 562.715C644.778 564.473 642.592 565.352 639.803 565.352C638.081 565.352 636.551 564.947 635.215 564.139C633.879 563.33 632.848 562.17 632.122 560.658C631.395 559.146 631.032 557.377 631.032 555.35C631.032 552.209 631.817 549.766 633.387 548.02C634.958 546.262 637.137 545.383 639.926 545.383C642.622 545.383 644.76 546.279 646.342 548.072C647.936 549.865 648.733 552.291 648.733 555.35ZM634.055 555.35C634.055 557.811 634.547 559.686 635.532 560.975C636.516 562.264 637.963 562.908 639.874 562.908C641.784 562.908 643.231 562.27 644.215 560.992C645.211 559.703 645.71 557.822 645.71 555.35C645.71 552.9 645.211 551.043 644.215 549.777C643.231 548.5 641.772 547.861 639.838 547.861C637.928 547.861 636.487 548.488 635.514 549.742C634.542 550.996 634.055 552.865 634.055 555.35ZM670.289 565V552.537C670.289 550.967 669.932 549.795 669.217 549.021C668.502 548.248 667.383 547.861 665.86 547.861C663.844 547.861 662.367 548.406 661.43 549.496C660.492 550.586 660.024 552.385 660.024 554.893V565H657.106V545.734H659.479L659.953 548.371H660.094C660.692 547.422 661.53 546.689 662.608 546.174C663.686 545.646 664.887 545.383 666.211 545.383C668.532 545.383 670.278 545.945 671.45 547.07C672.621 548.184 673.207 549.971 673.207 552.432V565H670.289ZM707.478 559.744C707.478 561.537 706.81 562.92 705.474 563.893C704.139 564.865 702.264 565.352 699.849 565.352C697.295 565.352 695.303 564.947 693.873 564.139V561.432C694.799 561.9 695.789 562.27 696.844 562.539C697.91 562.809 698.935 562.943 699.92 562.943C701.443 562.943 702.615 562.703 703.435 562.223C704.256 561.73 704.666 560.986 704.666 559.99C704.666 559.24 704.338 558.602 703.681 558.074C703.037 557.535 701.771 556.902 699.885 556.176C698.092 555.508 696.814 554.928 696.053 554.436C695.303 553.932 694.74 553.363 694.365 552.73C694.002 552.098 693.82 551.342 693.82 550.463C693.82 548.893 694.459 547.656 695.736 546.754C697.014 545.84 698.765 545.383 700.992 545.383C703.066 545.383 705.094 545.805 707.074 546.648L706.037 549.021C704.103 548.225 702.351 547.826 700.781 547.826C699.398 547.826 698.355 548.043 697.652 548.477C696.949 548.91 696.598 549.508 696.598 550.27C696.598 550.785 696.726 551.225 696.984 551.588C697.254 551.951 697.681 552.297 698.267 552.625C698.853 552.953 699.978 553.428 701.642 554.049C703.928 554.881 705.469 555.719 706.265 556.562C707.074 557.406 707.478 558.467 707.478 559.744ZM718.365 555.139C718.869 554.424 719.636 553.486 720.668 552.326L726.89 545.734H730.353L722.548 553.943L730.898 565H727.365L720.562 555.895L718.365 557.793V565H715.482V537.648H718.365V552.15C718.365 552.795 718.318 553.791 718.224 555.139H718.365ZM745.775 565.352C742.927 565.352 740.677 564.484 739.025 562.75C737.384 561.016 736.564 558.607 736.564 555.525C736.564 552.42 737.326 549.953 738.849 548.125C740.384 546.297 742.441 545.383 745.019 545.383C747.433 545.383 749.343 546.18 750.749 547.773C752.156 549.355 752.859 551.447 752.859 554.049V555.895H739.587C739.646 558.156 740.214 559.873 741.292 561.045C742.382 562.217 743.911 562.803 745.88 562.803C747.954 562.803 750.005 562.369 752.033 561.502V564.104C751.001 564.549 750.023 564.865 749.097 565.053C748.183 565.252 747.076 565.352 745.775 565.352ZM744.984 547.826C743.437 547.826 742.201 548.33 741.275 549.338C740.361 550.346 739.822 551.74 739.658 553.521H749.73C749.73 551.682 749.32 550.275 748.499 549.303C747.679 548.318 746.507 547.826 744.984 547.826ZM767.314 562.943C767.829 562.943 768.327 562.908 768.808 562.838C769.288 562.756 769.669 562.674 769.95 562.592V564.824C769.634 564.977 769.165 565.1 768.544 565.193C767.935 565.299 767.384 565.352 766.892 565.352C763.165 565.352 761.302 563.389 761.302 559.463V548.002H758.542V546.596L761.302 545.383L762.532 541.27H764.22V545.734H769.81V548.002H764.22V559.34C764.22 560.5 764.495 561.391 765.046 562.012C765.597 562.633 766.353 562.943 767.314 562.943ZM784.757 565.352C781.968 565.352 779.806 564.496 778.27 562.785C776.747 561.062 775.985 558.631 775.985 555.49C775.985 552.268 776.759 549.777 778.306 548.02C779.864 546.262 782.079 545.383 784.95 545.383C785.876 545.383 786.802 545.482 787.727 545.682C788.653 545.881 789.38 546.115 789.907 546.385L789.011 548.863C788.366 548.605 787.663 548.395 786.901 548.23C786.14 548.055 785.466 547.967 784.88 547.967C780.966 547.967 779.009 550.463 779.009 555.455C779.009 557.822 779.483 559.639 780.432 560.904C781.393 562.17 782.811 562.803 784.686 562.803C786.292 562.803 787.938 562.457 789.626 561.766V564.35C788.337 565.018 786.714 565.352 784.757 565.352ZM810.637 565V552.537C810.637 550.967 810.28 549.795 809.565 549.021C808.85 548.248 807.731 547.861 806.208 547.861C804.18 547.861 802.698 548.412 801.76 549.514C800.835 550.615 800.372 552.42 800.372 554.928V565H797.454V537.648H800.372V545.928C800.372 546.924 800.325 547.75 800.231 548.406H800.407C800.981 547.48 801.796 546.754 802.85 546.227C803.917 545.688 805.13 545.418 806.489 545.418C808.844 545.418 810.608 545.98 811.78 547.105C812.964 548.219 813.555 549.994 813.555 552.432V565H810.637ZM833.781 556.686V554.014H842.412V556.686H833.781ZM887.388 565V552.467C887.388 550.932 887.06 549.783 886.404 549.021C885.748 548.248 884.728 547.861 883.345 547.861C881.529 547.861 880.187 548.383 879.32 549.426C878.453 550.469 878.019 552.074 878.019 554.242V565H875.101V552.467C875.101 550.932 874.773 549.783 874.117 549.021C873.461 548.248 872.435 547.861 871.041 547.861C869.213 547.861 867.871 548.412 867.015 549.514C866.172 550.604 865.75 552.396 865.75 554.893V565H862.832V545.734H865.205L865.679 548.371H865.82C866.371 547.434 867.144 546.701 868.14 546.174C869.148 545.646 870.273 545.383 871.515 545.383C874.527 545.383 876.496 546.473 877.422 548.652H877.562C878.136 547.645 878.968 546.848 880.058 546.262C881.148 545.676 882.39 545.383 883.785 545.383C885.965 545.383 887.593 545.945 888.672 547.07C889.761 548.184 890.306 549.971 890.306 552.432V565H887.388ZM907.714 565.352C904.867 565.352 902.617 564.484 900.964 562.75C899.324 561.016 898.503 558.607 898.503 555.525C898.503 552.42 899.265 549.953 900.789 548.125C902.324 546.297 904.38 545.383 906.958 545.383C909.372 545.383 911.283 546.18 912.689 547.773C914.095 549.355 914.798 551.447 914.798 554.049V555.895H901.527C901.585 558.156 902.154 559.873 903.232 561.045C904.322 562.217 905.851 562.803 907.82 562.803C909.894 562.803 911.945 562.369 913.972 561.502V564.104C912.941 564.549 911.962 564.865 911.037 565.053C910.122 565.252 909.015 565.352 907.714 565.352ZM906.923 547.826C905.376 547.826 904.14 548.33 903.214 549.338C902.3 550.346 901.761 551.74 901.597 553.521H911.669C911.669 551.682 911.259 550.275 910.439 549.303C909.619 548.318 908.447 547.826 906.923 547.826ZM931.82 545.383C932.675 545.383 933.443 545.453 934.122 545.594L933.718 548.301C932.921 548.125 932.218 548.037 931.609 548.037C930.05 548.037 928.714 548.67 927.601 549.936C926.499 551.201 925.948 552.777 925.948 554.664V565H923.03V545.734H925.439L925.773 549.303H925.913C926.628 548.049 927.489 547.082 928.497 546.402C929.505 545.723 930.612 545.383 931.82 545.383ZM956.733 545.734V547.58L953.165 548.002C953.493 548.412 953.786 548.951 954.044 549.619C954.302 550.275 954.431 551.02 954.431 551.852C954.431 553.738 953.786 555.244 952.497 556.369C951.208 557.494 949.438 558.057 947.188 558.057C946.614 558.057 946.075 558.01 945.571 557.916C944.329 558.572 943.708 559.398 943.708 560.395C943.708 560.922 943.925 561.314 944.358 561.572C944.792 561.818 945.536 561.941 946.591 561.941H950.001C952.087 561.941 953.686 562.381 954.8 563.26C955.925 564.139 956.487 565.416 956.487 567.092C956.487 569.225 955.632 570.848 953.921 571.961C952.21 573.086 949.714 573.648 946.433 573.648C943.913 573.648 941.968 573.18 940.597 572.242C939.237 571.305 938.558 569.98 938.558 568.27C938.558 567.098 938.933 566.084 939.683 565.229C940.433 564.373 941.487 563.793 942.847 563.488C942.354 563.266 941.938 562.92 941.599 562.451C941.27 561.982 941.106 561.438 941.106 560.816C941.106 560.113 941.294 559.498 941.669 558.971C942.044 558.443 942.636 557.934 943.444 557.441C942.448 557.031 941.634 556.334 941.001 555.35C940.38 554.365 940.069 553.24 940.069 551.975C940.069 549.865 940.702 548.242 941.968 547.105C943.233 545.957 945.026 545.383 947.347 545.383C948.354 545.383 949.263 545.5 950.071 545.734H956.733ZM941.37 568.234C941.37 569.277 941.81 570.068 942.688 570.607C943.567 571.146 944.827 571.416 946.468 571.416C948.917 571.416 950.728 571.047 951.899 570.309C953.083 569.582 953.675 568.592 953.675 567.338C953.675 566.295 953.353 565.568 952.708 565.158C952.063 564.76 950.851 564.561 949.069 564.561H945.571C944.247 564.561 943.216 564.877 942.478 565.51C941.739 566.143 941.37 567.051 941.37 568.234ZM942.952 551.904C942.952 553.252 943.333 554.271 944.095 554.963C944.856 555.654 945.917 556 947.276 556C950.124 556 951.548 554.617 951.548 551.852C951.548 548.957 950.106 547.51 947.224 547.51C945.853 547.51 944.798 547.879 944.06 548.617C943.321 549.355 942.952 550.451 942.952 551.904ZM972.067 565.352C969.219 565.352 966.969 564.484 965.317 562.75C963.676 561.016 962.856 558.607 962.856 555.525C962.856 552.42 963.618 549.953 965.141 548.125C966.676 546.297 968.733 545.383 971.311 545.383C973.725 545.383 975.635 546.18 977.042 547.773C978.448 549.355 979.151 551.447 979.151 554.049V555.895H965.88C965.938 558.156 966.507 559.873 967.585 561.045C968.675 562.217 970.204 562.803 972.173 562.803C974.247 562.803 976.298 562.369 978.325 561.502V564.104C977.294 564.549 976.315 564.865 975.389 565.053C974.475 565.252 973.368 565.352 972.067 565.352ZM971.276 547.826C969.729 547.826 968.493 548.33 967.567 549.338C966.653 550.346 966.114 551.74 965.95 553.521H976.022C976.022 551.682 975.612 550.275 974.792 549.303C973.971 548.318 972.8 547.826 971.276 547.826ZM1006.2 562.943C1006.71 562.943 1007.21 562.908 1007.69 562.838C1008.17 562.756 1008.55 562.674 1008.83 562.592V564.824C1008.52 564.977 1008.05 565.1 1007.43 565.193C1006.82 565.299 1006.27 565.352 1005.78 565.352C1002.05 565.352 1000.19 563.389 1000.19 559.463V548.002H997.426V546.596L1000.19 545.383L1001.42 541.27H1003.1V545.734H1008.69V548.002H1003.1V559.34C1003.1 560.5 1003.38 561.391 1003.93 562.012C1004.48 562.633 1005.24 562.943 1006.2 562.943ZM1029.12 565V552.537C1029.12 550.967 1028.77 549.795 1028.05 549.021C1027.34 548.248 1026.22 547.861 1024.7 547.861C1022.67 547.861 1021.19 548.412 1020.25 549.514C1019.32 550.615 1018.86 552.42 1018.86 554.928V565H1015.94V537.648H1018.86V545.928C1018.86 546.924 1018.81 547.75 1018.72 548.406H1018.89C1019.47 547.48 1020.28 546.754 1021.34 546.227C1022.4 545.688 1023.62 545.418 1024.98 545.418C1027.33 545.418 1029.1 545.98 1030.27 547.105C1031.45 548.219 1032.04 549.994 1032.04 552.432V565H1029.12ZM1049.43 565.352C1046.59 565.352 1044.34 564.484 1042.68 562.75C1041.04 561.016 1040.22 558.607 1040.22 555.525C1040.22 552.42 1040.98 549.953 1042.51 548.125C1044.04 546.297 1046.1 545.383 1048.68 545.383C1051.09 545.383 1053 546.18 1054.41 547.773C1055.81 549.355 1056.52 551.447 1056.52 554.049V555.895H1043.25C1043.3 558.156 1043.87 559.873 1044.95 561.045C1046.04 562.217 1047.57 562.803 1049.54 562.803C1051.61 562.803 1053.66 562.369 1055.69 561.502V564.104C1054.66 564.549 1053.68 564.865 1052.76 565.053C1051.84 565.252 1050.73 565.352 1049.43 565.352ZM1048.64 547.826C1047.1 547.826 1045.86 548.33 1044.93 549.338C1044.02 550.346 1043.48 551.74 1043.32 553.521H1053.39C1053.39 551.682 1052.98 550.275 1052.16 549.303C1051.34 548.318 1050.17 547.826 1048.64 547.826ZM1075 573.648C1073.89 573.648 1072.99 573.502 1072.3 573.209V570.836C1073.1 571.07 1073.9 571.188 1074.69 571.188C1075.6 571.188 1076.27 570.936 1076.69 570.432C1077.12 569.939 1077.34 569.184 1077.34 568.164V545.734H1080.26V567.953C1080.26 571.75 1078.51 573.648 1075 573.648ZM1077.09 540.514C1077.09 539.846 1077.26 539.359 1077.59 539.055C1077.92 538.738 1078.33 538.58 1078.82 538.58C1079.29 538.58 1079.69 538.738 1080.03 539.055C1080.37 539.371 1080.54 539.857 1080.54 540.514C1080.54 541.17 1080.37 541.662 1080.03 541.99C1079.69 542.307 1079.29 542.465 1078.82 542.465C1078.33 542.465 1077.92 542.307 1077.59 541.99C1077.26 541.662 1077.09 541.17 1077.09 540.514ZM1092.43 545.734V558.232C1092.43 559.803 1092.79 560.975 1093.5 561.748C1094.22 562.521 1095.34 562.908 1096.86 562.908C1098.87 562.908 1100.34 562.357 1101.27 561.256C1102.21 560.154 1102.68 558.355 1102.68 555.859V545.734H1105.59V565H1103.19L1102.76 562.416H1102.61C1102.01 563.365 1101.18 564.092 1100.11 564.596C1099.06 565.1 1097.85 565.352 1096.49 565.352C1094.15 565.352 1092.39 564.795 1091.22 563.682C1090.06 562.568 1089.48 560.787 1089.48 558.338V545.734H1092.43ZM1117.96 565H1115.04V545.734H1117.96V565ZM1114.79 540.514C1114.79 539.846 1114.96 539.359 1115.29 539.055C1115.61 538.738 1116.02 538.58 1116.52 538.58C1116.99 538.58 1117.39 538.738 1117.73 539.055C1118.07 539.371 1118.24 539.857 1118.24 540.514C1118.24 541.17 1118.07 541.662 1117.73 541.99C1117.39 542.307 1116.99 542.465 1116.52 542.465C1116.02 542.465 1115.61 542.307 1115.29 541.99C1114.96 541.662 1114.79 541.17 1114.79 540.514ZM1135.08 565.352C1132.3 565.352 1130.13 564.496 1128.6 562.785C1127.07 561.062 1126.31 558.631 1126.31 555.49C1126.31 552.268 1127.09 549.777 1128.63 548.02C1130.19 546.262 1132.41 545.383 1135.28 545.383C1136.2 545.383 1137.13 545.482 1138.06 545.682C1138.98 545.881 1139.71 546.115 1140.23 546.385L1139.34 548.863C1138.69 548.605 1137.99 548.395 1137.23 548.23C1136.47 548.055 1135.79 547.967 1135.21 547.967C1131.29 547.967 1129.34 550.463 1129.34 555.455C1129.34 557.822 1129.81 559.639 1130.76 560.904C1131.72 562.17 1133.14 562.803 1135.01 562.803C1136.62 562.803 1138.27 562.457 1139.95 561.766V564.35C1138.66 565.018 1137.04 565.352 1135.08 565.352ZM1144.72 545.734H1147.85L1152.07 556.721C1153 559.229 1153.57 561.039 1153.79 562.152H1153.93C1154.09 561.555 1154.4 560.535 1154.88 559.094C1155.38 557.641 1156.97 553.188 1159.66 545.734H1162.79L1154.51 567.672C1153.69 569.84 1152.73 571.375 1151.63 572.277C1150.54 573.191 1149.2 573.648 1147.61 573.648C1146.72 573.648 1145.84 573.549 1144.97 573.35V571.012C1145.61 571.152 1146.33 571.223 1147.13 571.223C1149.14 571.223 1150.56 570.098 1151.42 567.848L1152.49 565.105L1144.72 545.734ZM1194.18 559.744C1194.18 561.537 1193.51 562.92 1192.18 563.893C1190.84 564.865 1188.97 565.352 1186.55 565.352C1184 565.352 1182.01 564.947 1180.58 564.139V561.432C1181.5 561.9 1182.49 562.27 1183.55 562.539C1184.61 562.809 1185.64 562.943 1186.62 562.943C1188.15 562.943 1189.32 562.703 1190.14 562.223C1190.96 561.73 1191.37 560.986 1191.37 559.99C1191.37 559.24 1191.04 558.602 1190.38 558.074C1189.74 557.535 1188.47 556.902 1186.59 556.176C1184.79 555.508 1183.52 554.928 1182.76 554.436C1182.01 553.932 1181.44 553.363 1181.07 552.73C1180.7 552.098 1180.52 551.342 1180.52 550.463C1180.52 548.893 1181.16 547.656 1182.44 546.754C1183.72 545.84 1185.47 545.383 1187.7 545.383C1189.77 545.383 1191.8 545.805 1193.78 546.648L1192.74 549.021C1190.81 548.225 1189.05 547.826 1187.48 547.826C1186.1 547.826 1185.06 548.043 1184.36 548.477C1183.65 548.91 1183.3 549.508 1183.3 550.27C1183.3 550.785 1183.43 551.225 1183.69 551.588C1183.96 551.951 1184.38 552.297 1184.97 552.625C1185.56 552.953 1186.68 553.428 1188.35 554.049C1190.63 554.881 1192.17 555.719 1192.97 556.562C1193.78 557.406 1194.18 558.467 1194.18 559.744ZM1208.41 562.943C1208.92 562.943 1209.42 562.908 1209.9 562.838C1210.38 562.756 1210.76 562.674 1211.04 562.592V564.824C1210.73 564.977 1210.26 565.1 1209.64 565.193C1209.03 565.299 1208.48 565.352 1207.99 565.352C1204.26 565.352 1202.4 563.389 1202.4 559.463V548.002H1199.64V546.596L1202.4 545.383L1203.63 541.27H1205.31V545.734H1210.9V548.002H1205.31V559.34C1205.31 560.5 1205.59 561.391 1206.14 562.012C1206.69 562.633 1207.45 562.943 1208.41 562.943ZM1220.89 545.734V558.232C1220.89 559.803 1221.25 560.975 1221.97 561.748C1222.68 562.521 1223.8 562.908 1225.32 562.908C1227.34 562.908 1228.81 562.357 1229.74 561.256C1230.67 560.154 1231.14 558.355 1231.14 555.859V545.734H1234.06V565H1231.65L1231.23 562.416H1231.07C1230.47 563.365 1229.64 564.092 1228.58 564.596C1227.52 565.1 1226.31 565.352 1224.95 565.352C1222.61 565.352 1220.85 564.795 1219.68 563.682C1218.52 562.568 1217.94 560.787 1217.94 558.338V545.734H1220.89ZM1264.39 548.002H1259.48V565H1256.57V548.002H1253.12V546.684L1256.57 545.629V544.557C1256.57 539.822 1258.63 537.455 1262.77 537.455C1263.79 537.455 1264.99 537.66 1266.36 538.07L1265.6 540.408C1264.48 540.045 1263.51 539.863 1262.72 539.863C1261.62 539.863 1260.8 540.232 1260.27 540.971C1259.75 541.697 1259.48 542.869 1259.48 544.486V545.734H1264.39V548.002ZM1252.19 548.002H1247.28V565H1244.37V548.002H1240.92V546.684L1244.37 545.629V544.557C1244.37 539.822 1246.43 537.455 1250.57 537.455C1251.59 537.455 1252.79 537.66 1254.16 538.07L1253.4 540.408C1252.28 540.045 1251.32 539.863 1250.52 539.863C1249.42 539.863 1248.6 540.232 1248.08 540.971C1247.55 541.697 1247.28 542.869 1247.28 544.486V545.734H1252.19V548.002ZM1295.62 565L1295.04 562.258H1294.9C1293.94 563.465 1292.98 564.285 1292.01 564.719C1291.07 565.141 1289.88 565.352 1288.45 565.352C1286.54 565.352 1285.04 564.859 1283.95 563.875C1282.87 562.891 1282.33 561.49 1282.33 559.674C1282.33 555.783 1285.44 553.744 1291.66 553.557L1294.93 553.451V552.256C1294.93 550.744 1294.6 549.631 1293.95 548.916C1293.3 548.189 1292.27 547.826 1290.84 547.826C1289.23 547.826 1287.41 548.318 1285.39 549.303L1284.49 547.07C1285.44 546.555 1286.48 546.15 1287.6 545.857C1288.74 545.564 1289.88 545.418 1291.01 545.418C1293.31 545.418 1295.01 545.928 1296.11 546.947C1297.22 547.967 1297.78 549.602 1297.78 551.852V565H1295.62ZM1289.03 562.943C1290.84 562.943 1292.27 562.445 1293.3 561.449C1294.34 560.453 1294.86 559.059 1294.86 557.266V555.525L1291.94 555.648C1289.62 555.73 1287.95 556.094 1286.92 556.738C1285.9 557.371 1285.39 558.361 1285.39 559.709C1285.39 560.764 1285.7 561.566 1286.34 562.117C1286.98 562.668 1287.88 562.943 1289.03 562.943ZM1320.23 565V552.537C1320.23 550.967 1319.88 549.795 1319.16 549.021C1318.45 548.248 1317.33 547.861 1315.8 547.861C1313.79 547.861 1312.31 548.406 1311.37 549.496C1310.44 550.586 1309.97 552.385 1309.97 554.893V565H1307.05V545.734H1309.42L1309.9 548.371H1310.04C1310.64 547.422 1311.47 546.689 1312.55 546.174C1313.63 545.646 1314.83 545.383 1316.15 545.383C1318.47 545.383 1320.22 545.945 1321.39 547.07C1322.56 548.184 1323.15 549.971 1323.15 552.432V565H1320.23ZM1345.52 562.416H1345.36C1344.01 564.373 1341.99 565.352 1339.31 565.352C1336.79 565.352 1334.83 564.49 1333.42 562.768C1332.03 561.045 1331.33 558.596 1331.33 555.42C1331.33 552.244 1332.03 549.777 1333.44 548.02C1334.85 546.262 1336.8 545.383 1339.31 545.383C1341.92 545.383 1343.93 546.332 1345.32 548.23H1345.55L1345.43 546.842L1345.36 545.488V537.648H1348.28V565H1345.9L1345.52 562.416ZM1339.68 562.908C1341.67 562.908 1343.11 562.369 1344 561.291C1344.91 560.201 1345.36 558.449 1345.36 556.035V555.42C1345.36 552.689 1344.9 550.744 1343.99 549.584C1343.08 548.412 1341.64 547.826 1339.64 547.826C1337.93 547.826 1336.62 548.494 1335.71 549.83C1334.8 551.154 1334.35 553.029 1334.35 555.455C1334.35 557.916 1334.8 559.773 1335.71 561.027C1336.61 562.281 1337.93 562.908 1339.68 562.908ZM542.65 614V601.467C542.65 599.932 542.322 598.783 541.666 598.021C541.01 597.248 539.99 596.861 538.607 596.861C536.791 596.861 535.449 597.383 534.582 598.426C533.715 599.469 533.281 601.074 533.281 603.242V614H530.363V601.467C530.363 599.932 530.035 598.783 529.379 598.021C528.723 597.248 527.697 596.861 526.303 596.861C524.475 596.861 523.133 597.412 522.277 598.514C521.434 599.604 521.012 601.396 521.012 603.893V614H518.094V594.734H520.467L520.941 597.371H521.082C521.633 596.434 522.406 595.701 523.402 595.174C524.41 594.646 525.535 594.383 526.777 594.383C529.789 594.383 531.758 595.473 532.684 597.652H532.824C533.398 596.645 534.23 595.848 535.32 595.262C536.41 594.676 537.652 594.383 539.047 594.383C541.227 594.383 542.855 594.945 543.934 596.07C545.023 597.184 545.568 598.971 545.568 601.432V614H542.65ZM566.685 614L566.105 611.258H565.965C565.004 612.465 564.043 613.285 563.082 613.719C562.133 614.141 560.943 614.352 559.513 614.352C557.603 614.352 556.103 613.859 555.013 612.875C553.935 611.891 553.396 610.49 553.396 608.674C553.396 604.783 556.508 602.744 562.73 602.557L566 602.451V601.256C566 599.744 565.672 598.631 565.015 597.916C564.371 597.189 563.334 596.826 561.904 596.826C560.299 596.826 558.482 597.318 556.455 598.303L555.558 596.07C556.508 595.555 557.545 595.15 558.67 594.857C559.806 594.564 560.943 594.418 562.08 594.418C564.377 594.418 566.076 594.928 567.177 595.947C568.291 596.967 568.847 598.602 568.847 600.852V614H566.685ZM560.094 611.943C561.91 611.943 563.334 611.445 564.365 610.449C565.408 609.453 565.929 608.059 565.929 606.266V604.525L563.011 604.648C560.691 604.73 559.015 605.094 557.984 605.738C556.965 606.371 556.455 607.361 556.455 608.709C556.455 609.764 556.771 610.566 557.404 611.117C558.049 611.668 558.945 611.943 560.094 611.943ZM581 604.139C581.503 603.424 582.271 602.486 583.302 601.326L589.525 594.734H592.988L585.183 602.943L593.533 614H590L583.197 604.895L581 606.793V614H578.117V586.648H581V601.15C581 601.795 580.953 602.791 580.859 604.139H581ZM608.409 614.352C605.562 614.352 603.312 613.484 601.659 611.75C600.019 610.016 599.199 607.607 599.199 604.525C599.199 601.42 599.96 598.953 601.484 597.125C603.019 595.297 605.075 594.383 607.654 594.383C610.068 594.383 611.978 595.18 613.384 596.773C614.79 598.355 615.493 600.447 615.493 603.049V604.895H602.222C602.281 607.156 602.849 608.873 603.927 610.045C605.017 611.217 606.546 611.803 608.515 611.803C610.589 611.803 612.64 611.369 614.667 610.502V613.104C613.636 613.549 612.658 613.865 611.732 614.053C610.818 614.252 609.71 614.352 608.409 614.352ZM607.618 596.826C606.072 596.826 604.835 597.33 603.909 598.338C602.995 599.346 602.456 600.74 602.292 602.521H612.365C612.365 600.682 611.954 599.275 611.134 598.303C610.314 597.318 609.142 596.826 607.618 596.826ZM652.946 604.35C652.946 607.49 652.155 609.945 650.573 611.715C648.991 613.473 646.805 614.352 644.016 614.352C642.294 614.352 640.764 613.947 639.429 613.139C638.093 612.33 637.061 611.17 636.335 609.658C635.608 608.146 635.245 606.377 635.245 604.35C635.245 601.209 636.03 598.766 637.6 597.02C639.171 595.262 641.35 594.383 644.139 594.383C646.835 594.383 648.973 595.279 650.555 597.072C652.149 598.865 652.946 601.291 652.946 604.35ZM638.268 604.35C638.268 606.811 638.761 608.686 639.745 609.975C640.729 611.264 642.177 611.908 644.087 611.908C645.997 611.908 647.444 611.27 648.429 609.992C649.425 608.703 649.923 606.822 649.923 604.35C649.923 601.9 649.425 600.043 648.429 598.777C647.444 597.5 645.985 596.861 644.052 596.861C642.141 596.861 640.7 597.488 639.727 598.742C638.755 599.996 638.268 601.865 638.268 604.35ZM674.503 614V601.537C674.503 599.967 674.145 598.795 673.43 598.021C672.715 597.248 671.596 596.861 670.073 596.861C668.057 596.861 666.581 597.406 665.643 598.496C664.706 599.586 664.237 601.385 664.237 603.893V614H661.319V594.734H663.692L664.167 597.371H664.307C664.905 596.422 665.743 595.689 666.821 595.174C667.899 594.646 669.1 594.383 670.424 594.383C672.745 594.383 674.491 594.945 675.663 596.07C676.835 597.184 677.42 598.971 677.42 601.432V614H674.503ZM694.811 614.352C691.963 614.352 689.713 613.484 688.061 611.75C686.42 610.016 685.6 607.607 685.6 604.525C685.6 601.42 686.362 598.953 687.885 597.125C689.42 595.297 691.477 594.383 694.055 594.383C696.469 594.383 698.379 595.18 699.785 596.773C701.192 598.355 701.895 600.447 701.895 603.049V604.895H688.623C688.682 607.156 689.25 608.873 690.328 610.045C691.418 611.217 692.948 611.803 694.916 611.803C696.991 611.803 699.041 611.369 701.069 610.502V613.104C700.037 613.549 699.059 613.865 698.133 614.053C697.219 614.252 696.112 614.352 694.811 614.352ZM694.02 596.826C692.473 596.826 691.237 597.33 690.311 598.338C689.397 599.346 688.858 600.74 688.694 602.521H698.766C698.766 600.682 698.356 599.275 697.535 598.303C696.715 597.318 695.543 596.826 694.02 596.826ZM731.402 597.002H726.498V614H723.58V597.002H720.135V595.684L723.58 594.629V593.557C723.58 588.822 725.648 586.455 729.785 586.455C730.805 586.455 732 586.66 733.371 587.07L732.615 589.408C731.49 589.045 730.529 588.863 729.732 588.863C728.631 588.863 727.816 589.232 727.289 589.971C726.762 590.697 726.498 591.869 726.498 593.486V594.734H731.402V597.002ZM737.836 614H734.918V594.734H737.836V614ZM734.672 589.514C734.672 588.846 734.836 588.359 735.164 588.055C735.492 587.738 735.902 587.58 736.394 587.58C736.863 587.58 737.267 587.738 737.607 588.055C737.947 588.371 738.117 588.857 738.117 589.514C738.117 590.17 737.947 590.662 737.607 590.99C737.267 591.307 736.863 591.465 736.394 591.465C735.902 591.465 735.492 591.307 735.164 590.99C734.836 590.662 734.672 590.17 734.672 589.514ZM760.447 614V601.537C760.447 599.967 760.089 598.795 759.375 598.021C758.66 597.248 757.541 596.861 756.017 596.861C754.002 596.861 752.525 597.406 751.587 598.496C750.65 599.586 750.181 601.385 750.181 603.893V614H747.263V594.734H749.636L750.111 597.371H750.252C750.849 596.422 751.687 595.689 752.765 595.174C753.843 594.646 755.045 594.383 756.369 594.383C758.689 594.383 760.435 594.945 761.607 596.07C762.779 597.184 763.365 598.971 763.365 601.432V614H760.447ZM784.464 614L783.884 611.258H783.744C782.783 612.465 781.822 613.285 780.861 613.719C779.911 614.141 778.722 614.352 777.292 614.352C775.382 614.352 773.882 613.859 772.792 612.875C771.714 611.891 771.175 610.49 771.175 608.674C771.175 604.783 774.286 602.744 780.509 602.557L783.779 602.451V601.256C783.779 599.744 783.451 598.631 782.794 597.916C782.15 597.189 781.113 596.826 779.683 596.826C778.078 596.826 776.261 597.318 774.234 598.303L773.337 596.07C774.286 595.555 775.324 595.15 776.449 594.857C777.585 594.564 778.722 594.418 779.859 594.418C782.156 594.418 783.855 594.928 784.956 595.947C786.07 596.967 786.626 598.602 786.626 600.852V614H784.464ZM777.872 611.943C779.689 611.943 781.113 611.445 782.144 610.449C783.187 609.453 783.708 608.059 783.708 606.266V604.525L780.79 604.648C778.47 604.73 776.794 605.094 775.763 605.738C774.744 606.371 774.234 607.361 774.234 608.709C774.234 609.764 774.55 610.566 775.183 611.117C775.828 611.668 776.724 611.943 777.872 611.943ZM798.814 614H795.896V586.648H798.814V614ZM828.532 614.352C825.743 614.352 823.581 613.496 822.046 611.785C820.522 610.062 819.76 607.631 819.76 604.49C819.76 601.268 820.534 598.777 822.081 597.02C823.639 595.262 825.854 594.383 828.725 594.383C829.651 594.383 830.577 594.482 831.503 594.682C832.428 594.881 833.155 595.115 833.682 595.385L832.786 597.863C832.141 597.605 831.438 597.395 830.676 597.23C829.915 597.055 829.241 596.967 828.655 596.967C824.741 596.967 822.784 599.463 822.784 604.455C822.784 606.822 823.258 608.639 824.208 609.904C825.169 611.17 826.587 611.803 828.462 611.803C830.067 611.803 831.714 611.457 833.401 610.766V613.35C832.112 614.018 830.489 614.352 828.532 614.352ZM857.858 604.35C857.858 607.49 857.067 609.945 855.485 611.715C853.903 613.473 851.717 614.352 848.928 614.352C847.205 614.352 845.676 613.947 844.34 613.139C843.004 612.33 841.973 611.17 841.246 609.658C840.52 608.146 840.157 606.377 840.157 604.35C840.157 601.209 840.942 598.766 842.512 597.02C844.082 595.262 846.262 594.383 849.051 594.383C851.746 594.383 853.885 595.279 855.467 597.072C857.061 598.865 857.858 601.291 857.858 604.35ZM843.18 604.35C843.18 606.811 843.672 608.686 844.657 609.975C845.641 611.264 847.088 611.908 848.998 611.908C850.909 611.908 852.356 611.27 853.34 609.992C854.336 608.703 854.834 606.822 854.834 604.35C854.834 601.9 854.336 600.043 853.34 598.777C852.356 597.5 850.897 596.861 848.963 596.861C847.053 596.861 845.612 597.488 844.639 598.742C843.666 599.996 843.18 601.865 843.18 604.35ZM879.414 614V601.537C879.414 599.967 879.057 598.795 878.342 598.021C877.627 597.248 876.508 596.861 874.985 596.861C872.969 596.861 871.492 597.406 870.555 598.496C869.617 599.586 869.149 601.385 869.149 603.893V614H866.231V594.734H868.604L869.078 597.371H869.219C869.817 596.422 870.654 595.689 871.733 595.174C872.811 594.646 874.012 594.383 875.336 594.383C877.656 594.383 879.402 594.945 880.574 596.07C881.746 597.184 882.332 598.971 882.332 601.432V614H879.414ZM899.283 614.352C896.494 614.352 894.332 613.496 892.797 611.785C891.273 610.062 890.512 607.631 890.512 604.49C890.512 601.268 891.285 598.777 892.832 597.02C894.391 595.262 896.605 594.383 899.476 594.383C900.402 594.383 901.328 594.482 902.254 594.682C903.18 594.881 903.906 595.115 904.434 595.385L903.537 597.863C902.892 597.605 902.189 597.395 901.428 597.23C900.666 597.055 899.992 596.967 899.406 596.967C895.492 596.967 893.535 599.463 893.535 604.455C893.535 606.822 894.01 608.639 894.959 609.904C895.92 611.17 897.338 611.803 899.213 611.803C900.818 611.803 902.465 611.457 904.152 610.766V613.35C902.863 614.018 901.24 614.352 899.283 614.352ZM920.119 614.352C917.271 614.352 915.021 613.484 913.369 611.75C911.728 610.016 910.908 607.607 910.908 604.525C910.908 601.42 911.67 598.953 913.193 597.125C914.728 595.297 916.785 594.383 919.363 594.383C921.777 594.383 923.687 595.18 925.093 596.773C926.5 598.355 927.203 600.447 927.203 603.049V604.895H913.931C913.99 607.156 914.558 608.873 915.636 610.045C916.726 611.217 918.256 611.803 920.224 611.803C922.299 611.803 924.349 611.369 926.377 610.502V613.104C925.345 613.549 924.367 613.865 923.441 614.053C922.527 614.252 921.42 614.352 920.119 614.352ZM919.328 596.826C917.781 596.826 916.545 597.33 915.619 598.338C914.705 599.346 914.166 600.74 914.002 602.521H924.074C924.074 600.682 923.664 599.275 922.843 598.303C922.023 597.318 920.851 596.826 919.328 596.826ZM944.4 614.352C943.146 614.352 941.997 614.123 940.955 613.666C939.923 613.197 939.056 612.482 938.353 611.521H938.142C938.283 612.646 938.353 613.713 938.353 614.721V622.648H935.435V594.734H937.808L938.212 597.371H938.353C939.103 596.316 939.976 595.555 940.972 595.086C941.968 594.617 943.111 594.383 944.4 594.383C946.955 594.383 948.923 595.256 950.306 597.002C951.701 598.748 952.398 601.197 952.398 604.35C952.398 607.514 951.689 609.975 950.271 611.732C948.865 613.479 946.908 614.352 944.4 614.352ZM943.978 596.861C942.009 596.861 940.585 597.406 939.706 598.496C938.828 599.586 938.376 601.32 938.353 603.699V604.35C938.353 607.057 938.804 608.996 939.706 610.168C940.609 611.328 942.056 611.908 944.048 611.908C945.712 611.908 947.013 611.234 947.951 609.887C948.9 608.539 949.374 606.682 949.374 604.314C949.374 601.912 948.9 600.072 947.951 598.795C947.013 597.506 945.689 596.861 943.978 596.861ZM966.976 611.943C967.491 611.943 967.989 611.908 968.47 611.838C968.95 611.756 969.331 611.674 969.612 611.592V613.824C969.296 613.977 968.827 614.1 968.206 614.193C967.597 614.299 967.046 614.352 966.554 614.352C962.827 614.352 960.964 612.389 960.964 608.463V597.002H958.204V595.596L960.964 594.383L962.195 590.27H963.882V594.734H969.472V597.002H963.882V608.34C963.882 609.5 964.157 610.391 964.708 611.012C965.259 611.633 966.015 611.943 966.976 611.943Z" fill="black"/>
<path d="M272.048 138V86.6016H278.024V138H272.048ZM329.944 111.809C329.944 120.293 327.636 126.785 323.019 131.285C318.425 135.762 311.804 138 303.155 138H288.917V86.6016H304.667C312.659 86.6016 318.87 88.8164 323.3 93.2461C327.73 97.6758 329.944 103.863 329.944 111.809ZM323.616 112.02C323.616 105.316 321.929 100.266 318.554 96.8672C315.202 93.4688 310.21 91.7695 303.577 91.7695H294.894V132.832H302.171C309.296 132.832 314.651 131.086 318.237 127.594C321.823 124.078 323.616 118.887 323.616 112.02ZM366.853 138H338.2V86.6016H366.853V91.9102H344.177V108.469H365.482V113.742H344.177V132.656H366.853V138ZM407.347 138L400.949 121.652H380.347L374.019 138H367.972L388.293 86.3906H393.32L413.535 138H407.347ZM399.085 116.273L393.109 100.348C392.335 98.332 391.539 95.8594 390.718 92.9297C390.203 95.1797 389.464 97.6523 388.503 100.348L382.457 116.273H399.085ZM433.181 138H427.205V91.9102H410.927V86.6016H449.459V91.9102H433.181V138ZM482.641 138H453.988V86.6016H482.641V91.9102H459.965V108.469H481.27V113.742H459.965V132.656H482.641V138Z" fill="#020612"/>
</g>
<defs>
<clipPath id="clip0">
<rect width="1920" height="1080" fill="white"/>
</clipPath>
</defs>
</svg>
