<svg width="1920" height="1080" viewBox="0 0 1920 1080" fill="none" xmlns="http://www.w3.org/2000/svg">
<g clip-path="url(#clip0)">
<rect width="1920" height="1080" fill="white"/>
<rect y="58" width="513" height="114" fill="#FAC492"/>
<path d="M473.99 334.568H484.186V347.893C482.533 348.432 480.975 348.807 479.51 349.018C478.057 349.24 476.568 349.352 475.045 349.352C471.166 349.352 468.201 348.215 466.15 345.941C464.111 343.656 463.092 340.381 463.092 336.115C463.092 331.967 464.275 328.732 466.643 326.412C469.021 324.092 472.314 322.932 476.521 322.932C479.158 322.932 481.701 323.459 484.15 324.514L482.34 328.873C480.465 327.936 478.514 327.467 476.486 327.467C474.131 327.467 472.244 328.258 470.826 329.84C469.408 331.422 468.699 333.549 468.699 336.221C468.699 339.01 469.268 341.143 470.404 342.619C471.553 344.084 473.217 344.816 475.396 344.816C476.533 344.816 477.688 344.699 478.859 344.465V339.104H473.99V334.568ZM516.886 336.115C516.886 340.369 515.832 343.639 513.722 345.924C511.613 348.209 508.59 349.352 504.652 349.352C500.715 349.352 497.691 348.209 495.582 345.924C493.472 343.639 492.418 340.357 492.418 336.08C492.418 331.803 493.472 328.539 495.582 326.289C497.703 324.027 500.738 322.896 504.687 322.896C508.636 322.896 511.654 324.033 513.74 326.307C515.838 328.58 516.886 331.85 516.886 336.115ZM498.131 336.115C498.131 338.986 498.676 341.148 499.765 342.602C500.855 344.055 502.484 344.781 504.652 344.781C509 344.781 511.174 341.893 511.174 336.115C511.174 330.326 509.011 327.432 504.687 327.432C502.519 327.432 500.885 328.164 499.783 329.629C498.681 331.082 498.131 333.244 498.131 336.115ZM541.185 349L539.322 342.883H529.953L528.089 349H522.218L531.289 323.195H537.951L547.056 349H541.185ZM538.021 338.312C536.298 332.77 535.326 329.635 535.103 328.908C534.892 328.182 534.74 327.607 534.646 327.186C534.259 328.686 533.152 332.395 531.324 338.312H538.021ZM553.548 349V323.301H558.997V344.5H569.421V349H553.548ZM590.034 323.301H597.294C600.704 323.301 603.171 323.811 604.694 324.83C606.218 325.85 606.979 327.461 606.979 329.664C606.979 331.188 606.552 332.447 605.696 333.443C604.852 334.428 603.616 335.066 601.987 335.359V335.535C605.889 336.203 607.841 338.254 607.841 341.688C607.841 343.984 607.061 345.777 605.503 347.066C603.956 348.355 601.788 349 598.999 349H590.034V323.301ZM593.022 334.305H597.944C600.054 334.305 601.571 333.977 602.497 333.32C603.423 332.652 603.886 331.533 603.886 329.963C603.886 328.521 603.37 327.484 602.339 326.852C601.307 326.207 599.667 325.885 597.417 325.885H593.022V334.305ZM593.022 336.836V346.451H598.384C600.458 346.451 602.016 346.053 603.059 345.256C604.114 344.447 604.641 343.188 604.641 341.477C604.641 339.883 604.102 338.711 603.024 337.961C601.958 337.211 600.329 336.836 598.137 336.836H593.022ZM618.92 329.734V342.232C618.92 343.803 619.278 344.975 619.993 345.748C620.708 346.521 621.827 346.908 623.35 346.908C625.366 346.908 626.836 346.357 627.762 345.256C628.7 344.154 629.169 342.355 629.169 339.859V329.734H632.086V349H629.678L629.256 346.416H629.098C628.501 347.365 627.669 348.092 626.602 348.596C625.547 349.1 624.34 349.352 622.981 349.352C620.637 349.352 618.879 348.795 617.708 347.682C616.547 346.568 615.967 344.787 615.967 342.338V329.734H618.92ZM644.45 349H641.532V329.734H644.45V349ZM641.285 324.514C641.285 323.846 641.45 323.359 641.778 323.055C642.106 322.738 642.516 322.58 643.008 322.58C643.477 322.58 643.881 322.738 644.221 323.055C644.561 323.371 644.731 323.857 644.731 324.514C644.731 325.17 644.561 325.662 644.221 325.99C643.881 326.307 643.477 326.465 643.008 326.465C642.516 326.465 642.106 326.307 641.778 325.99C641.45 325.662 641.285 325.17 641.285 324.514ZM656.795 349H653.877V321.648H656.795V349ZM679.336 346.416H679.178C677.83 348.373 675.814 349.352 673.131 349.352C670.611 349.352 668.648 348.49 667.242 346.768C665.848 345.045 665.15 342.596 665.15 339.42C665.15 336.244 665.853 333.777 667.26 332.02C668.666 330.262 670.623 329.383 673.131 329.383C675.744 329.383 677.748 330.332 679.142 332.23H679.371L679.248 330.842L679.178 329.488V321.648H682.096V349H679.723L679.336 346.416ZM673.5 346.908C675.492 346.908 676.933 346.369 677.824 345.291C678.726 344.201 679.178 342.449 679.178 340.035V339.42C679.178 336.689 678.721 334.744 677.806 333.584C676.904 332.412 675.457 331.826 673.465 331.826C671.754 331.826 670.441 332.494 669.527 333.83C668.625 335.154 668.174 337.029 668.174 339.455C668.174 341.916 668.625 343.773 669.527 345.027C670.43 346.281 671.754 346.908 673.5 346.908ZM710.355 346.943C710.87 346.943 711.369 346.908 711.849 346.838C712.329 346.756 712.71 346.674 712.992 346.592V348.824C712.675 348.977 712.206 349.1 711.585 349.193C710.976 349.299 710.425 349.352 709.933 349.352C706.206 349.352 704.343 347.389 704.343 343.463V332.002H701.583V330.596L704.343 329.383L705.574 325.27H707.261V329.734H712.851V332.002H707.261V343.34C707.261 344.5 707.536 345.391 708.087 346.012C708.638 346.633 709.394 346.943 710.355 346.943ZM736.728 339.35C736.728 342.49 735.937 344.945 734.355 346.715C732.773 348.473 730.587 349.352 727.798 349.352C726.075 349.352 724.546 348.947 723.21 348.139C721.874 347.33 720.843 346.17 720.116 344.658C719.39 343.146 719.026 341.377 719.026 339.35C719.026 336.209 719.812 333.766 721.382 332.02C722.952 330.262 725.132 329.383 727.921 329.383C730.616 329.383 732.755 330.279 734.337 332.072C735.931 333.865 736.728 336.291 736.728 339.35ZM722.05 339.35C722.05 341.811 722.542 343.686 723.526 344.975C724.511 346.264 725.958 346.908 727.868 346.908C729.778 346.908 731.226 346.27 732.21 344.992C733.206 343.703 733.704 341.822 733.704 339.35C733.704 336.9 733.206 335.043 732.21 333.777C731.226 332.5 729.767 331.861 727.833 331.861C725.923 331.861 724.482 332.488 723.509 333.742C722.536 334.996 722.05 336.865 722.05 339.35ZM760.434 329.734V342.232C760.434 343.803 760.792 344.975 761.506 345.748C762.221 346.521 763.34 346.908 764.864 346.908C766.88 346.908 768.35 346.357 769.276 345.256C770.214 344.154 770.682 342.355 770.682 339.859V329.734H773.6V349H771.192L770.77 346.416H770.612C770.014 347.365 769.182 348.092 768.116 348.596C767.061 349.1 765.854 349.352 764.495 349.352C762.151 349.352 760.393 348.795 759.221 347.682C758.061 346.568 757.481 344.787 757.481 342.338V329.734H760.434ZM796.229 349V336.537C796.229 334.967 795.871 333.795 795.157 333.021C794.442 332.248 793.323 331.861 791.799 331.861C789.784 331.861 788.307 332.406 787.37 333.496C786.432 334.586 785.963 336.385 785.963 338.893V349H783.045V329.734H785.418L785.893 332.371H786.034C786.631 331.422 787.469 330.689 788.547 330.174C789.625 329.646 790.827 329.383 792.151 329.383C794.471 329.383 796.217 329.945 797.389 331.07C798.561 332.184 799.147 333.971 799.147 336.432V349H796.229ZM821.512 346.416H821.354C820.006 348.373 817.99 349.352 815.307 349.352C812.787 349.352 810.824 348.49 809.418 346.768C808.024 345.045 807.326 342.596 807.326 339.42C807.326 336.244 808.029 333.777 809.436 332.02C810.842 330.262 812.799 329.383 815.307 329.383C817.92 329.383 819.924 330.332 821.319 332.23H821.547L821.424 330.842L821.354 329.488V321.648H824.272V349H821.899L821.512 346.416ZM815.676 346.908C817.668 346.908 819.11 346.369 820 345.291C820.902 344.201 821.354 342.449 821.354 340.035V339.42C821.354 336.689 820.897 334.744 819.983 333.584C819.08 332.412 817.633 331.826 815.641 331.826C813.93 331.826 812.617 332.494 811.703 333.83C810.801 335.154 810.35 337.029 810.35 339.455C810.35 341.916 810.801 343.773 811.703 345.027C812.606 346.281 813.93 346.908 815.676 346.908ZM841.855 349.352C839.008 349.352 836.758 348.484 835.105 346.75C833.465 345.016 832.644 342.607 832.644 339.525C832.644 336.42 833.406 333.953 834.93 332.125C836.465 330.297 838.521 329.383 841.1 329.383C843.514 329.383 845.424 330.18 846.83 331.773C848.236 333.355 848.939 335.447 848.939 338.049V339.895H835.668C835.726 342.156 836.295 343.873 837.373 345.045C838.463 346.217 839.992 346.803 841.961 346.803C844.035 346.803 846.086 346.369 848.113 345.502V348.104C847.082 348.549 846.103 348.865 845.178 349.053C844.264 349.252 843.156 349.352 841.855 349.352ZM841.064 331.826C839.517 331.826 838.281 332.33 837.355 333.338C836.441 334.346 835.902 335.74 835.738 337.521H845.81C845.81 335.682 845.4 334.275 844.58 333.303C843.76 332.318 842.588 331.826 841.064 331.826ZM865.961 329.383C866.816 329.383 867.584 329.453 868.263 329.594L867.859 332.301C867.062 332.125 866.359 332.037 865.75 332.037C864.191 332.037 862.855 332.67 861.742 333.936C860.64 335.201 860.09 336.777 860.09 338.664V349H857.172V329.734H859.58L859.914 333.303H860.054C860.769 332.049 861.631 331.082 862.638 330.402C863.646 329.723 864.754 329.383 865.961 329.383ZM887.535 343.744C887.535 345.537 886.867 346.92 885.531 347.893C884.195 348.865 882.32 349.352 879.906 349.352C877.351 349.352 875.359 348.947 873.929 348.139V345.432C874.855 345.9 875.845 346.27 876.9 346.539C877.966 346.809 878.992 346.943 879.976 346.943C881.499 346.943 882.671 346.703 883.492 346.223C884.312 345.73 884.722 344.986 884.722 343.99C884.722 343.24 884.394 342.602 883.738 342.074C883.093 341.535 881.828 340.902 879.941 340.176C878.148 339.508 876.871 338.928 876.109 338.436C875.359 337.932 874.796 337.363 874.421 336.73C874.058 336.098 873.876 335.342 873.876 334.463C873.876 332.893 874.515 331.656 875.792 330.754C877.07 329.84 878.822 329.383 881.048 329.383C883.122 329.383 885.15 329.805 887.13 330.648L886.093 333.021C884.16 332.225 882.408 331.826 880.837 331.826C879.455 331.826 878.412 332.043 877.708 332.477C877.005 332.91 876.654 333.508 876.654 334.27C876.654 334.785 876.783 335.225 877.04 335.588C877.31 335.951 877.738 336.297 878.324 336.625C878.91 336.953 880.035 337.428 881.699 338.049C883.984 338.881 885.525 339.719 886.322 340.562C887.13 341.406 887.535 342.467 887.535 343.744ZM901.761 346.943C902.277 346.943 902.775 346.908 903.255 346.838C903.736 346.756 904.116 346.674 904.398 346.592V348.824C904.081 348.977 903.612 349.1 902.991 349.193C902.382 349.299 901.831 349.352 901.339 349.352C897.612 349.352 895.749 347.389 895.749 343.463V332.002H892.989V330.596L895.749 329.383L896.98 325.27H898.667V329.734H904.257V332.002H898.667V343.34C898.667 344.5 898.943 345.391 899.493 346.012C900.044 346.633 900.8 346.943 901.761 346.943ZM923.353 349L922.772 346.258H922.632C921.671 347.465 920.71 348.285 919.749 348.719C918.8 349.141 917.61 349.352 916.181 349.352C914.27 349.352 912.77 348.859 911.681 347.875C910.603 346.891 910.063 345.49 910.063 343.674C910.063 339.783 913.175 337.744 919.397 337.557L922.667 337.451V336.256C922.667 334.744 922.339 333.631 921.683 332.916C921.038 332.189 920.001 331.826 918.571 331.826C916.966 331.826 915.149 332.318 913.122 333.303L912.226 331.07C913.175 330.555 914.212 330.15 915.337 329.857C916.474 329.564 917.61 329.418 918.747 329.418C921.044 329.418 922.743 329.928 923.845 330.947C924.958 331.967 925.515 333.602 925.515 335.852V349H923.353ZM916.761 346.943C918.577 346.943 920.001 346.445 921.032 345.449C922.075 344.453 922.597 343.059 922.597 341.266V339.525L919.679 339.648C917.358 339.73 915.683 340.094 914.651 340.738C913.632 341.371 913.122 342.361 913.122 343.709C913.122 344.764 913.438 345.566 914.071 346.117C914.716 346.668 915.612 346.943 916.761 346.943ZM947.967 349V336.537C947.967 334.967 947.61 333.795 946.895 333.021C946.18 332.248 945.061 331.861 943.538 331.861C941.522 331.861 940.046 332.406 939.108 333.496C938.171 334.586 937.702 336.385 937.702 338.893V349H934.784V329.734H937.157L937.632 332.371H937.772C938.37 331.422 939.208 330.689 940.286 330.174C941.364 329.646 942.565 329.383 943.889 329.383C946.21 329.383 947.956 329.945 949.128 331.07C950.3 332.184 950.885 333.971 950.885 336.432V349H947.967ZM973.25 346.416H973.092C971.745 348.373 969.729 349.352 967.045 349.352C964.526 349.352 962.563 348.49 961.157 346.768C959.762 345.045 959.065 342.596 959.065 339.42C959.065 336.244 959.768 333.777 961.174 332.02C962.581 330.262 964.538 329.383 967.045 329.383C969.659 329.383 971.663 330.332 973.057 332.23H973.286L973.163 330.842L973.092 329.488V321.648H976.01V349H973.637L973.25 346.416ZM967.415 346.908C969.407 346.908 970.848 346.369 971.739 345.291C972.641 344.201 973.092 342.449 973.092 340.035V339.42C973.092 336.689 972.635 334.744 971.721 333.584C970.819 332.412 969.372 331.826 967.379 331.826C965.668 331.826 964.356 332.494 963.442 333.83C962.54 335.154 962.088 337.029 962.088 339.455C962.088 341.916 962.54 343.773 963.442 345.027C964.344 346.281 965.668 346.908 967.415 346.908ZM1009.89 349L1009.31 346.258H1009.17C1008.21 347.465 1007.25 348.285 1006.29 348.719C1005.34 349.141 1004.15 349.352 1002.72 349.352C1000.81 349.352 999.312 348.859 998.223 347.875C997.145 346.891 996.605 345.49 996.605 343.674C996.605 339.783 999.717 337.744 1005.94 337.557L1009.21 337.451V336.256C1009.21 334.744 1008.88 333.631 1008.22 332.916C1007.58 332.189 1006.54 331.826 1005.11 331.826C1003.51 331.826 1001.69 332.318 999.664 333.303L998.768 331.07C999.717 330.555 1000.75 330.15 1001.88 329.857C1003.02 329.564 1004.15 329.418 1005.29 329.418C1007.59 329.418 1009.29 329.928 1010.39 330.947C1011.5 331.967 1012.06 333.602 1012.06 335.852V349H1009.89ZM1003.3 346.943C1005.12 346.943 1006.54 346.445 1007.57 345.449C1008.62 344.453 1009.14 343.059 1009.14 341.266V339.525L1006.22 339.648C1003.9 339.73 1002.22 340.094 1001.19 340.738C1000.17 341.371 999.664 342.361 999.664 343.709C999.664 344.764 999.98 345.566 1000.61 346.117C1001.26 346.668 1002.15 346.943 1003.3 346.943ZM1034.51 349V336.537C1034.51 334.967 1034.15 333.795 1033.44 333.021C1032.72 332.248 1031.6 331.861 1030.08 331.861C1028.06 331.861 1026.59 332.406 1025.65 333.496C1024.71 334.586 1024.24 336.385 1024.24 338.893V349H1021.33V329.734H1023.7L1024.17 332.371H1024.31C1024.91 331.422 1025.75 330.689 1026.83 330.174C1027.91 329.646 1029.11 329.383 1030.43 329.383C1032.75 329.383 1034.5 329.945 1035.67 331.07C1036.84 332.184 1037.43 333.971 1037.43 336.432V349H1034.51ZM1059.79 346.416H1059.63C1058.29 348.373 1056.27 349.352 1053.59 349.352C1051.07 349.352 1049.1 348.49 1047.7 346.768C1046.3 345.045 1045.61 342.596 1045.61 339.42C1045.61 336.244 1046.31 333.777 1047.72 332.02C1049.12 330.262 1051.08 329.383 1053.59 329.383C1056.2 329.383 1058.2 330.332 1059.6 332.23H1059.83L1059.7 330.842L1059.63 329.488V321.648H1062.55V349H1060.18L1059.79 346.416ZM1053.96 346.908C1055.95 346.908 1057.39 346.369 1058.28 345.291C1059.18 344.201 1059.63 342.449 1059.63 340.035V339.42C1059.63 336.689 1059.18 334.744 1058.26 333.584C1057.36 332.412 1055.91 331.826 1053.92 331.826C1052.21 331.826 1050.9 332.494 1049.98 333.83C1049.08 335.154 1048.63 337.029 1048.63 339.455C1048.63 341.916 1049.08 343.773 1049.98 345.027C1050.89 346.281 1052.21 346.908 1053.96 346.908ZM1090.81 346.943C1091.33 346.943 1091.83 346.908 1092.31 346.838C1092.79 346.756 1093.17 346.674 1093.45 346.592V348.824C1093.13 348.977 1092.66 349.1 1092.04 349.193C1091.43 349.299 1090.88 349.352 1090.39 349.352C1086.66 349.352 1084.8 347.389 1084.8 343.463V332.002H1082.04V330.596L1084.8 329.383L1086.03 325.27H1087.72V329.734H1093.31V332.002H1087.72V343.34C1087.72 344.5 1087.99 345.391 1088.54 346.012C1089.09 346.633 1089.85 346.943 1090.81 346.943ZM1108.69 349.352C1105.85 349.352 1103.6 348.484 1101.94 346.75C1100.3 345.016 1099.48 342.607 1099.48 339.525C1099.48 336.42 1100.24 333.953 1101.77 332.125C1103.3 330.297 1105.36 329.383 1107.94 329.383C1110.35 329.383 1112.26 330.18 1113.67 331.773C1115.08 333.355 1115.78 335.447 1115.78 338.049V339.895H1102.51C1102.57 342.156 1103.13 343.873 1104.21 345.045C1105.3 346.217 1106.83 346.803 1108.8 346.803C1110.87 346.803 1112.92 346.369 1114.95 345.502V348.104C1113.92 348.549 1112.94 348.865 1112.02 349.053C1111.1 349.252 1109.99 349.352 1108.69 349.352ZM1107.9 331.826C1106.36 331.826 1105.12 332.33 1104.19 333.338C1103.28 334.346 1102.74 335.74 1102.58 337.521H1112.65C1112.65 335.682 1112.24 334.275 1111.42 333.303C1110.6 332.318 1109.43 331.826 1107.9 331.826ZM1136.44 343.744C1136.44 345.537 1135.77 346.92 1134.43 347.893C1133.1 348.865 1131.22 349.352 1128.81 349.352C1126.25 349.352 1124.26 348.947 1122.83 348.139V345.432C1123.76 345.9 1124.75 346.27 1125.8 346.539C1126.87 346.809 1127.9 346.943 1128.88 346.943C1130.4 346.943 1131.57 346.703 1132.4 346.223C1133.22 345.73 1133.63 344.986 1133.63 343.99C1133.63 343.24 1133.3 342.602 1132.64 342.074C1132 341.535 1130.73 340.902 1128.84 340.176C1127.05 339.508 1125.77 338.928 1125.01 338.436C1124.26 337.932 1123.7 337.363 1123.32 336.73C1122.96 336.098 1122.78 335.342 1122.78 334.463C1122.78 332.893 1123.42 331.656 1124.7 330.754C1125.97 329.84 1127.73 329.383 1129.95 329.383C1132.03 329.383 1134.05 329.805 1136.03 330.648L1135 333.021C1133.06 332.225 1131.31 331.826 1129.74 331.826C1128.36 331.826 1127.32 332.043 1126.61 332.477C1125.91 332.91 1125.56 333.508 1125.56 334.27C1125.56 334.785 1125.69 335.225 1125.94 335.588C1126.21 335.951 1126.64 336.297 1127.23 336.625C1127.81 336.953 1128.94 337.428 1130.6 338.049C1132.89 338.881 1134.43 339.719 1135.23 340.562C1136.03 341.406 1136.44 342.467 1136.44 343.744ZM1150.66 346.943C1151.18 346.943 1151.68 346.908 1152.16 346.838C1152.64 346.756 1153.02 346.674 1153.3 346.592V348.824C1152.98 348.977 1152.52 349.1 1151.89 349.193C1151.29 349.299 1150.73 349.352 1150.24 349.352C1146.52 349.352 1144.65 347.389 1144.65 343.463V332.002H1141.89V330.596L1144.65 329.383L1145.88 325.27H1147.57V329.734H1153.16V332.002H1147.57V343.34C1147.57 344.5 1147.85 345.391 1148.4 346.012C1148.95 346.633 1149.7 346.943 1150.66 346.943ZM485.369 467H482.522V448.684C482.522 447.16 482.568 445.719 482.662 444.359C482.416 444.605 482.141 444.863 481.836 445.133C481.531 445.402 480.137 446.545 477.652 448.561L476.106 446.557L482.908 441.301H485.369V467ZM496.074 465.137C496.074 464.352 496.25 463.76 496.602 463.361C496.965 462.951 497.481 462.746 498.149 462.746C498.828 462.746 499.356 462.951 499.731 463.361C500.117 463.76 500.311 464.352 500.311 465.137C500.311 465.898 500.117 466.484 499.731 466.895C499.344 467.305 498.817 467.51 498.149 467.51C497.551 467.51 497.053 467.328 496.654 466.965C496.268 466.59 496.074 465.98 496.074 465.137ZM538.045 467H535.057V454.906H521.521V467H518.533V441.301H521.521V452.234H535.057V441.301H538.045V467ZM564.541 457.35C564.541 460.49 563.75 462.945 562.168 464.715C560.586 466.473 558.4 467.352 555.611 467.352C553.888 467.352 552.359 466.947 551.023 466.139C549.687 465.33 548.656 464.17 547.929 462.658C547.203 461.146 546.84 459.377 546.84 457.35C546.84 454.209 547.625 451.766 549.195 450.02C550.765 448.262 552.945 447.383 555.734 447.383C558.429 447.383 560.568 448.279 562.15 450.072C563.744 451.865 564.541 454.291 564.541 457.35ZM549.863 457.35C549.863 459.811 550.355 461.686 551.34 462.975C552.324 464.264 553.771 464.908 555.681 464.908C557.592 464.908 559.039 464.27 560.023 462.992C561.019 461.703 561.517 459.822 561.517 457.35C561.517 454.9 561.019 453.043 560.023 451.777C559.039 450.5 557.58 449.861 555.646 449.861C553.736 449.861 552.295 450.488 551.322 451.742C550.349 452.996 549.863 454.865 549.863 457.35ZM588.646 467L585.113 455.697C584.89 455.006 584.474 453.436 583.865 450.986H583.724C583.255 453.037 582.845 454.619 582.494 455.732L578.855 467H575.48L570.224 447.734H573.283C574.525 452.574 575.468 456.26 576.113 458.791C576.769 461.322 577.144 463.027 577.238 463.906H577.378C577.507 463.238 577.712 462.377 577.994 461.322C578.287 460.256 578.539 459.412 578.75 458.791L582.283 447.734H585.447L588.892 458.791C589.548 460.807 589.994 462.5 590.228 463.871H590.369C590.416 463.449 590.539 462.799 590.738 461.92C590.949 461.041 592.173 456.312 594.412 447.734H597.435L592.109 467H588.646ZM624.464 467.352C621.675 467.352 619.513 466.496 617.978 464.785C616.454 463.062 615.692 460.631 615.692 457.49C615.692 454.268 616.466 451.777 618.013 450.02C619.571 448.262 621.786 447.383 624.657 447.383C625.583 447.383 626.509 447.482 627.435 447.682C628.36 447.881 629.087 448.115 629.614 448.385L628.718 450.863C628.073 450.605 627.37 450.395 626.608 450.23C625.847 450.055 625.173 449.967 624.587 449.967C620.673 449.967 618.716 452.463 618.716 457.455C618.716 459.822 619.19 461.639 620.14 462.904C621.101 464.17 622.519 464.803 624.394 464.803C625.999 464.803 627.646 464.457 629.333 463.766V466.35C628.044 467.018 626.421 467.352 624.464 467.352ZM653.79 457.35C653.79 460.49 652.999 462.945 651.417 464.715C649.835 466.473 647.649 467.352 644.86 467.352C643.137 467.352 641.608 466.947 640.272 466.139C638.936 465.33 637.905 464.17 637.179 462.658C636.452 461.146 636.089 459.377 636.089 457.35C636.089 454.209 636.874 451.766 638.444 450.02C640.014 448.262 642.194 447.383 644.983 447.383C647.679 447.383 649.817 448.279 651.399 450.072C652.993 451.865 653.79 454.291 653.79 457.35ZM639.112 457.35C639.112 459.811 639.604 461.686 640.589 462.975C641.573 464.264 643.02 464.908 644.93 464.908C646.841 464.908 648.288 464.27 649.272 462.992C650.268 461.703 650.766 459.822 650.766 457.35C650.766 454.9 650.268 453.043 649.272 451.777C648.288 450.5 646.829 449.861 644.895 449.861C642.985 449.861 641.544 450.488 640.571 451.742C639.598 452.996 639.112 454.865 639.112 457.35ZM664.905 447.734V460.232C664.905 461.803 665.262 462.975 665.977 463.748C666.692 464.521 667.811 464.908 669.335 464.908C671.35 464.908 672.821 464.357 673.747 463.256C674.684 462.154 675.153 460.355 675.153 457.859V447.734H678.071V467H675.663L675.241 464.416H675.083C674.485 465.365 673.653 466.092 672.586 466.596C671.532 467.1 670.325 467.352 668.965 467.352C666.622 467.352 664.864 466.795 663.692 465.682C662.532 464.568 661.952 462.787 661.952 460.338V447.734H664.905ZM690.434 467H687.516V439.648H690.434V467ZM712.975 464.416H712.816C711.469 466.373 709.453 467.352 706.77 467.352C704.25 467.352 702.287 466.49 700.881 464.768C699.486 463.045 698.789 460.596 698.789 457.42C698.789 454.244 699.492 451.777 700.899 450.02C702.305 448.262 704.262 447.383 706.77 447.383C709.383 447.383 711.387 448.332 712.781 450.23H713.01L712.887 448.842L712.816 447.488V439.648H715.734V467H713.361L712.975 464.416ZM707.139 464.908C709.131 464.908 710.572 464.369 711.463 463.291C712.365 462.201 712.816 460.449 712.816 458.035V457.42C712.816 454.689 712.359 452.744 711.445 451.584C710.543 450.412 709.096 449.826 707.104 449.826C705.393 449.826 704.08 450.494 703.166 451.83C702.264 453.154 701.813 455.029 701.813 457.455C701.813 459.916 702.264 461.773 703.166 463.027C704.068 464.281 705.393 464.908 707.139 464.908ZM734.712 447.734H737.841L742.06 458.721C742.986 461.229 743.56 463.039 743.783 464.152H743.923C744.076 463.555 744.392 462.535 744.873 461.094C745.365 459.641 746.959 455.188 749.654 447.734H752.783L744.504 469.672C743.683 471.84 742.722 473.375 741.621 474.277C740.531 475.191 739.189 475.648 737.595 475.648C736.705 475.648 735.826 475.549 734.959 475.35V473.012C735.603 473.152 736.324 473.223 737.121 473.223C739.125 473.223 740.554 472.098 741.41 469.848L742.482 467.105L734.712 447.734ZM775.781 457.35C775.781 460.49 774.99 462.945 773.408 464.715C771.826 466.473 769.64 467.352 766.851 467.352C765.128 467.352 763.599 466.947 762.263 466.139C760.927 465.33 759.896 464.17 759.169 462.658C758.443 461.146 758.079 459.377 758.079 457.35C758.079 454.209 758.865 451.766 760.435 450.02C762.005 448.262 764.185 447.383 766.974 447.383C769.669 447.383 771.808 448.279 773.39 450.072C774.984 451.865 775.781 454.291 775.781 457.35ZM761.103 457.35C761.103 459.811 761.595 461.686 762.579 462.975C763.564 464.264 765.011 464.908 766.921 464.908C768.831 464.908 770.279 464.27 771.263 462.992C772.259 461.703 772.757 459.822 772.757 457.35C772.757 454.9 772.259 453.043 771.263 451.777C770.279 450.5 768.82 449.861 766.886 449.861C764.976 449.861 763.535 450.488 762.562 451.742C761.589 452.996 761.103 454.865 761.103 457.35ZM786.896 447.734V460.232C786.896 461.803 787.253 462.975 787.968 463.748C788.683 464.521 789.802 464.908 791.325 464.908C793.341 464.908 794.812 464.357 795.737 463.256C796.675 462.154 797.144 460.355 797.144 457.859V447.734H800.062V467H797.653L797.232 464.416H797.073C796.476 465.365 795.644 466.092 794.577 466.596C793.523 467.1 792.316 467.352 790.956 467.352C788.612 467.352 786.855 466.795 785.683 465.682C784.523 464.568 783.943 462.787 783.943 460.338V447.734H786.896ZM828.321 464.943C828.837 464.943 829.335 464.908 829.815 464.838C830.296 464.756 830.676 464.674 830.958 464.592V466.824C830.641 466.977 830.172 467.1 829.551 467.193C828.942 467.299 828.391 467.352 827.899 467.352C824.172 467.352 822.309 465.389 822.309 461.463V450.002H819.549V448.596L822.309 447.383L823.54 443.27H825.227V447.734H830.817V450.002H825.227V461.34C825.227 462.5 825.503 463.391 826.053 464.012C826.604 464.633 827.36 464.943 828.321 464.943ZM846.204 467.352C843.356 467.352 841.106 466.484 839.454 464.75C837.813 463.016 836.993 460.607 836.993 457.525C836.993 454.42 837.754 451.953 839.278 450.125C840.813 448.297 842.87 447.383 845.448 447.383C847.862 447.383 849.772 448.18 851.178 449.773C852.584 451.355 853.288 453.447 853.288 456.049V457.895H840.016C840.075 460.156 840.643 461.873 841.721 463.045C842.811 464.217 844.34 464.803 846.309 464.803C848.383 464.803 850.434 464.369 852.461 463.502V466.104C851.43 466.549 850.452 466.865 849.526 467.053C848.612 467.252 847.504 467.352 846.204 467.352ZM845.413 449.826C843.866 449.826 842.629 450.33 841.704 451.338C840.789 452.346 840.25 453.74 840.086 455.521H850.159C850.159 453.682 849.748 452.275 848.928 451.303C848.108 450.318 846.936 449.826 845.413 449.826ZM873.947 461.744C873.947 463.537 873.279 464.92 871.944 465.893C870.608 466.865 868.733 467.352 866.319 467.352C863.764 467.352 861.772 466.947 860.342 466.139V463.432C861.268 463.9 862.258 464.27 863.313 464.539C864.379 464.809 865.404 464.943 866.389 464.943C867.912 464.943 869.084 464.703 869.904 464.223C870.725 463.73 871.135 462.986 871.135 461.99C871.135 461.24 870.807 460.602 870.151 460.074C869.506 459.535 868.24 458.902 866.354 458.176C864.561 457.508 863.283 456.928 862.522 456.436C861.772 455.932 861.209 455.363 860.834 454.73C860.471 454.098 860.289 453.342 860.289 452.463C860.289 450.893 860.928 449.656 862.205 448.754C863.483 447.84 865.235 447.383 867.461 447.383C869.535 447.383 871.563 447.805 873.543 448.648L872.506 451.021C870.572 450.225 868.82 449.826 867.25 449.826C865.867 449.826 864.824 450.043 864.121 450.477C863.418 450.91 863.067 451.508 863.067 452.27C863.067 452.785 863.195 453.225 863.453 453.588C863.723 453.951 864.151 454.297 864.736 454.625C865.322 454.953 866.447 455.428 868.111 456.049C870.397 456.881 871.938 457.719 872.735 458.562C873.543 459.406 873.947 460.467 873.947 461.744ZM888.174 464.943C888.689 464.943 889.187 464.908 889.668 464.838C890.148 464.756 890.529 464.674 890.81 464.592V466.824C890.494 466.977 890.025 467.1 889.404 467.193C888.795 467.299 888.244 467.352 887.752 467.352C884.025 467.352 882.162 465.389 882.162 461.463V450.002H879.402V448.596L882.162 447.383L883.392 443.27H885.08V447.734H890.67V450.002H885.08V461.34C885.08 462.5 885.355 463.391 885.906 464.012C886.457 464.633 887.213 464.943 888.174 464.943ZM907.451 447.734H910.58L914.798 458.721C915.724 461.229 916.298 463.039 916.521 464.152H916.662C916.814 463.555 917.13 462.535 917.611 461.094C918.103 459.641 919.697 455.188 922.392 447.734H925.521L917.242 469.672C916.421 471.84 915.46 473.375 914.359 474.277C913.269 475.191 911.927 475.648 910.333 475.648C909.443 475.648 908.564 475.549 907.697 475.35V473.012C908.341 473.152 909.062 473.223 909.859 473.223C911.863 473.223 913.292 472.098 914.148 469.848L915.22 467.105L907.451 447.734ZM948.519 457.35C948.519 460.49 947.728 462.945 946.146 464.715C944.564 466.473 942.378 467.352 939.589 467.352C937.866 467.352 936.337 466.947 935.001 466.139C933.665 465.33 932.634 464.17 931.907 462.658C931.181 461.146 930.818 459.377 930.818 457.35C930.818 454.209 931.603 451.766 933.173 450.02C934.743 448.262 936.923 447.383 939.712 447.383C942.407 447.383 944.546 448.279 946.128 450.072C947.722 451.865 948.519 454.291 948.519 457.35ZM933.841 457.35C933.841 459.811 934.333 461.686 935.318 462.975C936.302 464.264 937.749 464.908 939.659 464.908C941.57 464.908 943.017 464.27 944.001 462.992C944.997 461.703 945.495 459.822 945.495 457.35C945.495 454.9 944.997 453.043 944.001 451.777C943.017 450.5 941.558 449.861 939.624 449.861C937.714 449.861 936.273 450.488 935.3 451.742C934.327 452.996 933.841 454.865 933.841 457.35ZM959.634 447.734V460.232C959.634 461.803 959.991 462.975 960.706 463.748C961.421 464.521 962.54 464.908 964.063 464.908C966.079 464.908 967.55 464.357 968.476 463.256C969.413 462.154 969.882 460.355 969.882 457.859V447.734H972.8V467H970.392L969.97 464.416H969.811C969.214 465.365 968.382 466.092 967.315 466.596C966.261 467.1 965.054 467.352 963.694 467.352C961.351 467.352 959.593 466.795 958.421 465.682C957.261 464.568 956.681 462.787 956.681 460.338V447.734H959.634ZM991.034 447.383C991.889 447.383 992.657 447.453 993.337 447.594L992.932 450.301C992.135 450.125 991.432 450.037 990.823 450.037C989.264 450.037 987.928 450.67 986.815 451.936C985.714 453.201 985.163 454.777 985.163 456.664V467H982.245V447.734H984.653L984.987 451.303H985.128C985.843 450.049 986.704 449.082 987.712 448.402C988.719 447.723 989.827 447.383 991.034 447.383ZM1021.46 450.002H1016.55V467H1013.63V450.002H1010.19V448.684L1013.63 447.629V446.557C1013.63 441.822 1015.7 439.455 1019.84 439.455C1020.86 439.455 1022.05 439.66 1023.42 440.07L1022.67 442.408C1021.54 442.045 1020.58 441.863 1019.79 441.863C1018.68 441.863 1017.87 442.232 1017.34 442.971C1016.81 443.697 1016.55 444.869 1016.55 446.486V447.734H1021.46V450.002ZM1036.35 467.352C1033.5 467.352 1031.25 466.484 1029.6 464.75C1027.96 463.016 1027.14 460.607 1027.14 457.525C1027.14 454.42 1027.9 451.953 1029.42 450.125C1030.96 448.297 1033.02 447.383 1035.59 447.383C1038.01 447.383 1039.92 448.18 1041.32 449.773C1042.73 451.355 1043.43 453.447 1043.43 456.049V457.895H1030.16C1030.22 460.156 1030.79 461.873 1031.87 463.045C1032.96 464.217 1034.49 464.803 1036.46 464.803C1038.53 464.803 1040.58 464.369 1042.61 463.502V466.104C1041.58 466.549 1040.6 466.865 1039.67 467.053C1038.76 467.252 1037.65 467.352 1036.35 467.352ZM1035.56 449.826C1034.01 449.826 1032.78 450.33 1031.85 451.338C1030.94 452.346 1030.4 453.74 1030.23 455.521H1040.3C1040.3 453.682 1039.89 452.275 1039.07 451.303C1038.25 450.318 1037.08 449.826 1035.56 449.826ZM1063.51 467L1062.93 464.258H1062.79C1061.83 465.465 1060.87 466.285 1059.91 466.719C1058.96 467.141 1057.77 467.352 1056.34 467.352C1054.43 467.352 1052.93 466.859 1051.84 465.875C1050.76 464.891 1050.22 463.49 1050.22 461.674C1050.22 457.783 1053.34 455.744 1059.56 455.557L1062.83 455.451V454.256C1062.83 452.744 1062.5 451.631 1061.84 450.916C1061.2 450.189 1060.16 449.826 1058.73 449.826C1057.13 449.826 1055.31 450.318 1053.28 451.303L1052.39 449.07C1053.34 448.555 1054.37 448.15 1055.5 447.857C1056.63 447.564 1057.77 447.418 1058.91 447.418C1061.2 447.418 1062.9 447.928 1064.01 448.947C1065.12 449.967 1065.68 451.602 1065.68 453.852V467H1063.51ZM1056.92 464.943C1058.74 464.943 1060.16 464.445 1061.19 463.449C1062.24 462.453 1062.76 461.059 1062.76 459.266V457.525L1059.84 457.648C1057.52 457.73 1055.84 458.094 1054.81 458.738C1053.79 459.371 1053.28 460.361 1053.28 461.709C1053.28 462.764 1053.6 463.566 1054.23 464.117C1054.88 464.668 1055.77 464.943 1056.92 464.943ZM1081.17 464.943C1081.68 464.943 1082.18 464.908 1082.66 464.838C1083.14 464.756 1083.52 464.674 1083.8 464.592V466.824C1083.49 466.977 1083.02 467.1 1082.4 467.193C1081.79 467.299 1081.24 467.352 1080.75 467.352C1077.02 467.352 1075.16 465.389 1075.16 461.463V450.002H1072.4V448.596L1075.16 447.383L1076.39 443.27H1078.07V447.734H1083.66V450.002H1078.07V461.34C1078.07 462.5 1078.35 463.391 1078.9 464.012C1079.45 464.633 1080.21 464.943 1081.17 464.943ZM1093.65 447.734V460.232C1093.65 461.803 1094.01 462.975 1094.73 463.748C1095.44 464.521 1096.56 464.908 1098.08 464.908C1100.1 464.908 1101.57 464.357 1102.5 463.256C1103.43 462.154 1103.9 460.355 1103.9 457.859V447.734H1106.82V467H1104.41L1103.99 464.416H1103.83C1103.23 465.365 1102.4 466.092 1101.34 466.596C1100.28 467.1 1099.07 467.352 1097.71 467.352C1095.37 467.352 1093.61 466.795 1092.44 465.682C1091.28 464.568 1090.7 462.787 1090.7 460.338V447.734H1093.65ZM1125.05 447.383C1125.91 447.383 1126.68 447.453 1127.36 447.594L1126.95 450.301C1126.16 450.125 1125.45 450.037 1124.84 450.037C1123.28 450.037 1121.95 450.67 1120.84 451.936C1119.73 453.201 1119.18 454.777 1119.18 456.664V467H1116.26V447.734H1118.67L1119.01 451.303H1119.15C1119.86 450.049 1120.72 449.082 1121.73 448.402C1122.74 447.723 1123.85 447.383 1125.05 447.383ZM1142.34 467.352C1139.49 467.352 1137.24 466.484 1135.59 464.75C1133.95 463.016 1133.13 460.607 1133.13 457.525C1133.13 454.42 1133.89 451.953 1135.41 450.125C1136.95 448.297 1139 447.383 1141.58 447.383C1144 447.383 1145.91 448.18 1147.31 449.773C1148.72 451.355 1149.42 453.447 1149.42 456.049V457.895H1136.15C1136.21 460.156 1136.78 461.873 1137.86 463.045C1138.95 464.217 1140.48 464.803 1142.44 464.803C1144.52 464.803 1146.57 464.369 1148.6 463.502V466.104C1147.57 466.549 1146.59 466.865 1145.66 467.053C1144.75 467.252 1143.64 467.352 1142.34 467.352ZM1141.55 449.826C1140 449.826 1138.76 450.33 1137.84 451.338C1136.92 452.346 1136.39 453.74 1136.22 455.521H1146.29C1146.29 453.682 1145.88 452.275 1145.06 451.303C1144.24 450.318 1143.07 449.826 1141.55 449.826ZM1185.98 467L1182.45 455.697C1182.22 455.006 1181.81 453.436 1181.2 450.986H1181.06C1180.59 453.037 1180.18 454.619 1179.83 455.732L1176.19 467H1172.81L1167.56 447.734H1170.62C1171.86 452.574 1172.8 456.26 1173.45 458.791C1174.1 461.322 1174.48 463.027 1174.57 463.906H1174.71C1174.84 463.238 1175.05 462.377 1175.33 461.322C1175.62 460.256 1175.87 459.412 1176.08 458.791L1179.62 447.734H1182.78L1186.22 458.791C1186.88 460.807 1187.33 462.5 1187.56 463.871H1187.7C1187.75 463.449 1187.87 462.799 1188.07 461.92C1188.28 461.041 1189.51 456.312 1191.74 447.734H1194.77L1189.44 467H1185.98ZM1204.42 467H1201.51V447.734H1204.42V467ZM1201.26 442.514C1201.26 441.846 1201.42 441.359 1201.75 441.055C1202.08 440.738 1202.49 440.58 1202.98 440.58C1203.45 440.58 1203.86 440.738 1204.2 441.055C1204.54 441.371 1204.71 441.857 1204.71 442.514C1204.71 443.17 1204.54 443.662 1204.2 443.99C1203.86 444.307 1203.45 444.465 1202.98 444.465C1202.49 444.465 1202.08 444.307 1201.75 443.99C1201.42 443.662 1201.26 443.17 1201.26 442.514ZM1220.07 464.943C1220.59 464.943 1221.09 464.908 1221.57 464.838C1222.05 464.756 1222.43 464.674 1222.71 464.592V466.824C1222.39 466.977 1221.93 467.1 1221.3 467.193C1220.7 467.299 1220.14 467.352 1219.65 467.352C1215.93 467.352 1214.06 465.389 1214.06 461.463V450.002H1211.3V448.596L1214.06 447.383L1215.29 443.27H1216.98V447.734H1222.57V450.002H1216.98V461.34C1216.98 462.5 1217.26 463.391 1217.81 464.012C1218.36 464.633 1219.11 464.943 1220.07 464.943ZM1243 467V454.537C1243 452.967 1242.64 451.795 1241.93 451.021C1241.21 450.248 1240.1 449.861 1238.57 449.861C1236.54 449.861 1235.06 450.412 1234.12 451.514C1233.2 452.615 1232.74 454.42 1232.74 456.928V467H1229.82V439.648H1232.74V447.928C1232.74 448.924 1232.69 449.75 1232.6 450.406H1232.77C1233.35 449.48 1234.16 448.754 1235.21 448.227C1236.28 447.688 1237.49 447.418 1238.85 447.418C1241.21 447.418 1242.97 447.98 1244.14 449.105C1245.33 450.219 1245.92 451.994 1245.92 454.432V467H1243ZM1292.32 467V454.467C1292.32 452.932 1291.99 451.783 1291.34 451.021C1290.68 450.248 1289.66 449.861 1288.28 449.861C1286.46 449.861 1285.12 450.383 1284.25 451.426C1283.38 452.469 1282.95 454.074 1282.95 456.242V467H1280.03V454.467C1280.03 452.932 1279.7 451.783 1279.05 451.021C1278.39 450.248 1277.37 449.861 1275.97 449.861C1274.14 449.861 1272.8 450.412 1271.95 451.514C1271.1 452.604 1270.68 454.396 1270.68 456.893V467H1267.76V447.734H1270.14L1270.61 450.371H1270.75C1271.3 449.434 1272.08 448.701 1273.07 448.174C1274.08 447.646 1275.2 447.383 1276.45 447.383C1279.46 447.383 1281.43 448.473 1282.35 450.652H1282.49C1283.07 449.645 1283.9 448.848 1284.99 448.262C1286.08 447.676 1287.32 447.383 1288.72 447.383C1290.9 447.383 1292.52 447.945 1293.6 449.07C1294.69 450.184 1295.24 451.971 1295.24 454.432V467H1292.32ZM1307.42 467H1304.51V447.734H1307.42V467ZM1304.26 442.514C1304.26 441.846 1304.42 441.359 1304.75 441.055C1305.08 440.738 1305.49 440.58 1305.98 440.58C1306.45 440.58 1306.86 440.738 1307.2 441.055C1307.54 441.371 1307.71 441.857 1307.71 442.514C1307.71 443.17 1307.54 443.662 1307.2 443.99C1306.86 444.307 1306.45 444.465 1305.98 444.465C1305.49 444.465 1305.08 444.307 1304.75 443.99C1304.42 443.662 1304.26 443.17 1304.26 442.514ZM1330.04 467V454.537C1330.04 452.967 1329.68 451.795 1328.96 451.021C1328.25 450.248 1327.13 449.861 1325.61 449.861C1323.59 449.861 1322.11 450.406 1321.18 451.496C1320.24 452.586 1319.77 454.385 1319.77 456.893V467H1316.85V447.734H1319.23L1319.7 450.371H1319.84C1320.44 449.422 1321.28 448.689 1322.35 448.174C1323.43 447.646 1324.63 447.383 1325.96 447.383C1328.28 447.383 1330.02 447.945 1331.2 449.07C1332.37 450.184 1332.95 451.971 1332.95 454.432V467H1330.04ZM1345.12 467H1342.21V447.734H1345.12V467ZM1341.96 442.514C1341.96 441.846 1342.12 441.359 1342.45 441.055C1342.78 440.738 1343.19 440.58 1343.68 440.58C1344.15 440.58 1344.56 440.738 1344.89 441.055C1345.23 441.371 1345.4 441.857 1345.4 442.514C1345.4 443.17 1345.23 443.662 1344.89 443.99C1344.56 444.307 1344.15 444.465 1343.68 444.465C1343.19 444.465 1342.78 444.307 1342.45 443.99C1342.12 443.662 1341.96 443.17 1341.96 442.514ZM1379.11 467V454.467C1379.11 452.932 1378.78 451.783 1378.12 451.021C1377.47 450.248 1376.45 449.861 1375.06 449.861C1373.25 449.861 1371.91 450.383 1371.04 451.426C1370.17 452.469 1369.74 454.074 1369.74 456.242V467H1366.82V454.467C1366.82 452.932 1366.49 451.783 1365.84 451.021C1365.18 450.248 1364.15 449.861 1362.76 449.861C1360.93 449.861 1359.59 450.412 1358.73 451.514C1357.89 452.604 1357.47 454.396 1357.47 456.893V467H1354.55V447.734H1356.92L1357.4 450.371H1357.54C1358.09 449.434 1358.86 448.701 1359.86 448.174C1360.87 447.646 1361.99 447.383 1363.23 447.383C1366.25 447.383 1368.22 448.473 1369.14 450.652H1369.28C1369.86 449.645 1370.69 448.848 1371.78 448.262C1372.87 447.676 1374.11 447.383 1375.5 447.383C1377.68 447.383 1379.31 447.945 1380.39 449.07C1381.48 450.184 1382.03 451.971 1382.03 454.432V467H1379.11ZM1403.14 467L1402.56 464.258H1402.42C1401.46 465.465 1400.5 466.285 1399.54 466.719C1398.59 467.141 1397.4 467.352 1395.97 467.352C1394.06 467.352 1392.56 466.859 1391.47 465.875C1390.39 464.891 1389.85 463.49 1389.85 461.674C1389.85 457.783 1392.96 455.744 1399.19 455.557L1402.46 455.451V454.256C1402.46 452.744 1402.13 451.631 1401.47 450.916C1400.83 450.189 1399.79 449.826 1398.36 449.826C1396.76 449.826 1394.94 450.318 1392.91 451.303L1392.02 449.07C1392.96 448.555 1394 448.15 1395.13 447.857C1396.26 447.564 1397.4 447.418 1398.54 447.418C1400.83 447.418 1402.53 447.928 1403.63 448.947C1404.75 449.967 1405.3 451.602 1405.3 453.852V467H1403.14ZM1396.55 464.943C1398.37 464.943 1399.79 464.445 1400.82 463.449C1401.87 462.453 1402.39 461.059 1402.39 459.266V457.525L1399.47 457.648C1397.15 457.73 1395.47 458.094 1394.44 458.738C1393.42 459.371 1392.91 460.361 1392.91 461.709C1392.91 462.764 1393.23 463.566 1393.86 464.117C1394.51 464.668 1395.4 464.943 1396.55 464.943ZM1417.49 467H1414.57V439.648H1417.49V467ZM526.232 516.352C523.385 516.352 521.135 515.484 519.482 513.75C517.842 512.016 517.021 509.607 517.021 506.525C517.021 503.42 517.783 500.953 519.307 499.125C520.842 497.297 522.898 496.383 525.477 496.383C527.891 496.383 529.801 497.18 531.207 498.773C532.613 500.355 533.316 502.447 533.316 505.049V506.895H520.045C520.104 509.156 520.672 510.873 521.75 512.045C522.84 513.217 524.369 513.803 526.338 513.803C528.412 513.803 530.463 513.369 532.49 512.502V515.104C531.459 515.549 530.48 515.865 529.555 516.053C528.641 516.252 527.533 516.352 526.232 516.352ZM525.441 498.826C523.895 498.826 522.658 499.33 521.732 500.338C520.818 501.346 520.279 502.74 520.115 504.521H530.188C530.188 502.682 529.777 501.275 528.957 500.303C528.137 499.318 526.965 498.826 525.441 498.826ZM562.431 499.002H557.527V516H554.609V499.002H551.164V497.684L554.609 496.629V495.557C554.609 490.822 556.677 488.455 560.814 488.455C561.834 488.455 563.029 488.66 564.4 489.07L563.644 491.408C562.519 491.045 561.558 490.863 560.761 490.863C559.66 490.863 558.845 491.232 558.318 491.971C557.791 492.697 557.527 493.869 557.527 495.486V496.734H562.431V499.002ZM550.232 499.002H545.328V516H542.41V499.002H538.965V497.684L542.41 496.629V495.557C542.41 490.822 544.478 488.455 548.615 488.455C549.635 488.455 550.83 488.66 552.201 489.07L551.445 491.408C550.32 491.045 549.359 490.863 548.562 490.863C547.461 490.863 546.646 491.232 546.119 491.971C545.592 492.697 545.328 493.869 545.328 495.486V496.734H550.232V499.002ZM585.851 506.35C585.851 509.49 585.06 511.945 583.478 513.715C581.896 515.473 579.71 516.352 576.921 516.352C575.199 516.352 573.669 515.947 572.334 515.139C570.998 514.33 569.966 513.17 569.24 511.658C568.513 510.146 568.15 508.377 568.15 506.35C568.15 503.209 568.935 500.766 570.505 499.02C572.076 497.262 574.255 496.383 577.044 496.383C579.74 496.383 581.878 497.279 583.46 499.072C585.054 500.865 585.851 503.291 585.851 506.35ZM571.173 506.35C571.173 508.811 571.666 510.686 572.65 511.975C573.634 513.264 575.082 513.908 576.992 513.908C578.902 513.908 580.349 513.27 581.334 511.992C582.33 510.703 582.828 508.822 582.828 506.35C582.828 503.9 582.33 502.043 581.334 500.777C580.349 499.5 578.89 498.861 576.957 498.861C575.046 498.861 573.605 499.488 572.632 500.742C571.66 501.996 571.173 503.865 571.173 506.35ZM603.013 496.383C603.868 496.383 604.636 496.453 605.316 496.594L604.911 499.301C604.115 499.125 603.411 499.037 602.802 499.037C601.243 499.037 599.908 499.67 598.794 500.936C597.693 502.201 597.142 503.777 597.142 505.664V516H594.224V496.734H596.632L596.966 500.303H597.107C597.822 499.049 598.683 498.082 599.691 497.402C600.699 496.723 601.806 496.383 603.013 496.383ZM618.382 513.943C618.898 513.943 619.396 513.908 619.876 513.838C620.356 513.756 620.737 513.674 621.019 513.592V515.824C620.702 515.977 620.233 516.1 619.612 516.193C619.003 516.299 618.452 516.352 617.96 516.352C614.233 516.352 612.37 514.389 612.37 510.463V499.002H609.61V497.596L612.37 496.383L613.601 492.27H615.288V496.734H620.878V499.002H615.288V510.34C615.288 511.5 615.564 512.391 616.114 513.012C616.665 513.633 617.421 513.943 618.382 513.943ZM652.565 516L651.985 513.258H651.844C650.883 514.465 649.922 515.285 648.961 515.719C648.012 516.141 646.823 516.352 645.393 516.352C643.483 516.352 641.983 515.859 640.893 514.875C639.815 513.891 639.276 512.49 639.276 510.674C639.276 506.783 642.387 504.744 648.61 504.557L651.879 504.451V503.256C651.879 501.744 651.551 500.631 650.895 499.916C650.251 499.189 649.213 498.826 647.784 498.826C646.178 498.826 644.362 499.318 642.335 500.303L641.438 498.07C642.387 497.555 643.424 497.15 644.549 496.857C645.686 496.564 646.823 496.418 647.96 496.418C650.256 496.418 651.956 496.928 653.057 497.947C654.17 498.967 654.727 500.602 654.727 502.852V516H652.565ZM645.973 513.943C647.79 513.943 649.213 513.445 650.245 512.449C651.288 511.453 651.809 510.059 651.809 508.266V506.525L648.891 506.648C646.571 506.73 644.895 507.094 643.864 507.738C642.844 508.371 642.335 509.361 642.335 510.709C642.335 511.764 642.651 512.566 643.284 513.117C643.928 513.668 644.825 513.943 645.973 513.943ZM677.18 516V503.537C677.18 501.967 676.823 500.795 676.108 500.021C675.393 499.248 674.274 498.861 672.75 498.861C670.735 498.861 669.258 499.406 668.321 500.496C667.383 501.586 666.914 503.385 666.914 505.893V516H663.996V496.734H666.369L666.844 499.371H666.985C667.582 498.422 668.42 497.689 669.498 497.174C670.576 496.646 671.778 496.383 673.102 496.383C675.422 496.383 677.168 496.945 678.34 498.07C679.512 499.184 680.098 500.971 680.098 503.432V516H677.18ZM702.463 513.416H702.305C700.957 515.373 698.941 516.352 696.258 516.352C693.738 516.352 691.775 515.49 690.369 513.768C688.975 512.045 688.277 509.596 688.277 506.42C688.277 503.244 688.981 500.777 690.387 499.02C691.793 497.262 693.75 496.383 696.258 496.383C698.871 496.383 700.875 497.332 702.27 499.23H702.498L702.375 497.842L702.305 496.488V488.648H705.223V516H702.85L702.463 513.416ZM696.627 513.908C698.619 513.908 700.061 513.369 700.951 512.291C701.854 511.201 702.305 509.449 702.305 507.035V506.42C702.305 503.689 701.848 501.744 700.934 500.584C700.031 499.412 698.584 498.826 696.592 498.826C694.881 498.826 693.568 499.494 692.654 500.83C691.752 502.154 691.301 504.029 691.301 506.455C691.301 508.916 691.752 510.773 692.654 512.027C693.557 513.281 694.881 513.908 696.627 513.908ZM736.048 496.383C736.904 496.383 737.671 496.453 738.351 496.594L737.947 499.301C737.15 499.125 736.447 499.037 735.837 499.037C734.279 499.037 732.943 499.67 731.83 500.936C730.728 502.201 730.177 503.777 730.177 505.664V516H727.259V496.734H729.668L730.002 500.303H730.142C730.857 499.049 731.718 498.082 732.726 497.402C733.734 496.723 734.841 496.383 736.048 496.383ZM753.333 516.352C750.486 516.352 748.236 515.484 746.583 513.75C744.943 512.016 744.122 509.607 744.122 506.525C744.122 503.42 744.884 500.953 746.408 499.125C747.943 497.297 749.999 496.383 752.578 496.383C754.992 496.383 756.902 497.18 758.308 498.773C759.714 500.355 760.417 502.447 760.417 505.049V506.895H747.146C747.204 509.156 747.773 510.873 748.851 512.045C749.941 513.217 751.47 513.803 753.439 513.803C755.513 513.803 757.564 513.369 759.591 512.502V515.104C758.56 515.549 757.581 515.865 756.656 516.053C755.742 516.252 754.634 516.352 753.333 516.352ZM752.542 498.826C750.995 498.826 749.759 499.33 748.833 500.338C747.919 501.346 747.38 502.74 747.216 504.521H757.288C757.288 502.682 756.878 501.275 756.058 500.303C755.238 499.318 754.066 498.826 752.542 498.826ZM781.077 510.744C781.077 512.537 780.409 513.92 779.073 514.893C777.737 515.865 775.862 516.352 773.448 516.352C770.894 516.352 768.901 515.947 767.472 515.139V512.432C768.398 512.9 769.388 513.27 770.443 513.539C771.509 513.809 772.534 513.943 773.519 513.943C775.042 513.943 776.214 513.703 777.034 513.223C777.855 512.73 778.265 511.986 778.265 510.99C778.265 510.24 777.937 509.602 777.28 509.074C776.636 508.535 775.37 507.902 773.484 507.176C771.691 506.508 770.413 505.928 769.651 505.436C768.901 504.932 768.339 504.363 767.964 503.73C767.601 503.098 767.419 502.342 767.419 501.463C767.419 499.893 768.058 498.656 769.335 497.754C770.612 496.84 772.364 496.383 774.591 496.383C776.665 496.383 778.693 496.805 780.673 497.648L779.636 500.021C777.702 499.225 775.95 498.826 774.38 498.826C772.997 498.826 771.954 499.043 771.251 499.477C770.548 499.91 770.196 500.508 770.196 501.27C770.196 501.785 770.325 502.225 770.583 502.588C770.853 502.951 771.28 503.297 771.866 503.625C772.452 503.953 773.577 504.428 775.241 505.049C777.526 505.881 779.068 506.719 779.864 507.562C780.673 508.406 781.077 509.467 781.077 510.744ZM805.71 506.35C805.71 509.49 804.919 511.945 803.337 513.715C801.755 515.473 799.569 516.352 796.78 516.352C795.057 516.352 793.528 515.947 792.192 515.139C790.856 514.33 789.825 513.17 789.099 511.658C788.372 510.146 788.009 508.377 788.009 506.35C788.009 503.209 788.794 500.766 790.364 499.02C791.934 497.262 794.114 496.383 796.903 496.383C799.599 496.383 801.737 497.279 803.319 499.072C804.913 500.865 805.71 503.291 805.71 506.35ZM791.032 506.35C791.032 508.811 791.524 510.686 792.509 511.975C793.493 513.264 794.94 513.908 796.85 513.908C798.761 513.908 800.208 513.27 801.192 511.992C802.188 510.703 802.686 508.822 802.686 506.35C802.686 503.9 802.188 502.043 801.192 500.777C800.208 499.5 798.749 498.861 796.815 498.861C794.905 498.861 793.464 499.488 792.491 500.742C791.518 501.996 791.032 503.865 791.032 506.35ZM816.825 496.734V509.232C816.825 510.803 817.182 511.975 817.897 512.748C818.612 513.521 819.731 513.908 821.255 513.908C823.27 513.908 824.741 513.357 825.667 512.256C826.604 511.154 827.073 509.355 827.073 506.859V496.734H829.991V516H827.583L827.161 513.416H827.003C826.405 514.365 825.573 515.092 824.506 515.596C823.452 516.1 822.245 516.352 820.885 516.352C818.542 516.352 816.784 515.795 815.612 514.682C814.452 513.568 813.872 511.787 813.872 509.338V496.734H816.825ZM848.225 496.383C849.08 496.383 849.848 496.453 850.528 496.594L850.123 499.301C849.327 499.125 848.623 499.037 848.014 499.037C846.455 499.037 845.12 499.67 844.006 500.936C842.905 502.201 842.354 503.777 842.354 505.664V516H839.436V496.734H841.844L842.178 500.303H842.319C843.034 499.049 843.895 498.082 844.903 497.402C845.911 496.723 847.018 496.383 848.225 496.383ZM865.07 516.352C862.281 516.352 860.119 515.496 858.584 513.785C857.061 512.062 856.299 509.631 856.299 506.49C856.299 503.268 857.072 500.777 858.619 499.02C860.178 497.262 862.393 496.383 865.264 496.383C866.19 496.383 867.115 496.482 868.041 496.682C868.967 496.881 869.694 497.115 870.221 497.385L869.324 499.863C868.68 499.605 867.977 499.395 867.215 499.23C866.453 499.055 865.779 498.967 865.194 498.967C861.279 498.967 859.322 501.463 859.322 506.455C859.322 508.822 859.797 510.639 860.746 511.904C861.707 513.17 863.125 513.803 865 513.803C866.606 513.803 868.252 513.457 869.94 512.766V515.35C868.651 516.018 867.027 516.352 865.07 516.352ZM885.906 516.352C883.059 516.352 880.809 515.484 879.156 513.75C877.516 512.016 876.695 509.607 876.695 506.525C876.695 503.42 877.457 500.953 878.98 499.125C880.516 497.297 882.572 496.383 885.15 496.383C887.564 496.383 889.475 497.18 890.881 498.773C892.287 500.355 892.99 502.447 892.99 505.049V506.895H879.719C879.777 509.156 880.346 510.873 881.424 512.045C882.514 513.217 884.043 513.803 886.012 513.803C888.086 513.803 890.137 513.369 892.164 512.502V515.104C891.133 515.549 890.154 515.865 889.228 516.053C888.314 516.252 887.207 516.352 885.906 516.352ZM885.115 498.826C883.568 498.826 882.332 499.33 881.406 500.338C880.492 501.346 879.953 502.74 879.789 504.521H889.861C889.861 502.682 889.451 501.275 888.631 500.303C887.81 499.318 886.639 498.826 885.115 498.826ZM913.65 510.744C913.65 512.537 912.982 513.92 911.646 514.893C910.31 515.865 908.435 516.352 906.021 516.352C903.466 516.352 901.474 515.947 900.045 515.139V512.432C900.97 512.9 901.961 513.27 903.015 513.539C904.082 513.809 905.107 513.943 906.091 513.943C907.615 513.943 908.787 513.703 909.607 513.223C910.427 512.73 910.838 511.986 910.838 510.99C910.838 510.24 910.509 509.602 909.853 509.074C909.209 508.535 907.943 507.902 906.056 507.176C904.263 506.508 902.986 505.928 902.224 505.436C901.474 504.932 900.912 504.363 900.537 503.73C900.174 503.098 899.992 502.342 899.992 501.463C899.992 499.893 900.631 498.656 901.908 497.754C903.185 496.84 904.937 496.383 907.164 496.383C909.238 496.383 911.265 496.805 913.246 497.648L912.209 500.021C910.275 499.225 908.523 498.826 906.953 498.826C905.57 498.826 904.527 499.043 903.824 499.477C903.121 499.91 902.769 500.508 902.769 501.27C902.769 501.785 902.898 502.225 903.156 502.588C903.425 502.951 903.853 503.297 904.439 503.625C905.025 503.953 906.15 504.428 907.814 505.049C910.099 505.881 911.64 506.719 912.437 507.562C913.246 508.406 913.65 509.467 913.65 510.744ZM923.64 508.916V507.967C923.64 506.596 923.851 505.471 924.273 504.592C924.695 503.701 925.48 502.764 926.628 501.779C928.222 500.432 929.224 499.418 929.634 498.738C930.056 498.059 930.267 497.238 930.267 496.277C930.267 495.082 929.88 494.162 929.107 493.518C928.345 492.861 927.244 492.533 925.802 492.533C924.876 492.533 923.974 492.645 923.095 492.867C922.216 493.078 921.208 493.471 920.072 494.045L919.035 491.672C921.249 490.512 923.564 489.932 925.978 489.932C928.216 489.932 929.956 490.482 931.199 491.584C932.441 492.686 933.062 494.238 933.062 496.242C933.062 497.098 932.945 497.854 932.71 498.51C932.488 499.154 932.154 499.77 931.708 500.355C931.263 500.93 930.302 501.861 928.826 503.15C927.642 504.158 926.857 504.996 926.47 505.664C926.095 506.332 925.908 507.223 925.908 508.336V508.916H923.64ZM922.779 514.137C922.779 512.543 923.482 511.746 924.888 511.746C925.568 511.746 926.089 511.951 926.453 512.361C926.828 512.771 927.015 513.363 927.015 514.137C927.015 514.887 926.828 515.473 926.453 515.895C926.078 516.305 925.556 516.51 924.888 516.51C924.279 516.51 923.775 516.328 923.376 515.965C922.978 515.59 922.779 514.98 922.779 514.137ZM491.451 565H474.559V562.486L481.326 555.684C483.389 553.598 484.748 552.109 485.404 551.219C486.061 550.328 486.553 549.461 486.881 548.617C487.209 547.773 487.373 546.865 487.373 545.893C487.373 544.521 486.957 543.438 486.125 542.641C485.293 541.832 484.139 541.428 482.662 541.428C481.596 541.428 480.582 541.604 479.621 541.955C478.672 542.307 477.611 542.945 476.44 543.871L474.893 541.885C477.26 539.916 479.838 538.932 482.627 538.932C485.041 538.932 486.934 539.553 488.305 540.795C489.676 542.025 490.361 543.684 490.361 545.77C490.361 547.398 489.904 549.01 488.99 550.604C488.076 552.197 486.365 554.213 483.858 556.65L478.233 562.152V562.293H491.451V565ZM496.074 563.137C496.074 562.352 496.25 561.76 496.602 561.361C496.965 560.951 497.481 560.746 498.149 560.746C498.828 560.746 499.356 560.951 499.731 561.361C500.117 561.76 500.311 562.352 500.311 563.137C500.311 563.898 500.117 564.484 499.731 564.895C499.344 565.305 498.817 565.51 498.149 565.51C497.551 565.51 497.053 565.328 496.654 564.965C496.268 564.59 496.074 563.98 496.074 563.137ZM540.963 565H538.01L532.824 547.791C532.578 547.029 532.303 546.068 531.998 544.908C531.693 543.748 531.535 543.051 531.523 542.816C531.266 544.363 530.855 546.057 530.293 547.896L525.266 565H522.312L515.475 539.301H518.639L522.699 555.174C523.262 557.4 523.672 559.416 523.93 561.221C524.246 559.076 524.715 556.979 525.336 554.928L529.941 539.301H533.105L537.939 555.068C538.502 556.885 538.977 558.936 539.363 561.221C539.586 559.557 540.008 557.529 540.629 555.139L544.672 539.301H547.836L540.963 565ZM563.451 545.383C564.306 545.383 565.074 545.453 565.754 545.594L565.349 548.301C564.552 548.125 563.849 548.037 563.24 548.037C561.681 548.037 560.345 548.67 559.232 549.936C558.131 551.201 557.58 552.777 557.58 554.664V565H554.662V545.734H557.07L557.404 549.303H557.545C558.26 548.049 559.121 547.082 560.129 546.402C561.136 545.723 562.244 545.383 563.451 545.383ZM575.515 565H572.597V545.734H575.515V565ZM572.351 540.514C572.351 539.846 572.515 539.359 572.843 539.055C573.171 538.738 573.582 538.58 574.074 538.58C574.543 538.58 574.947 538.738 575.287 539.055C575.626 539.371 575.796 539.857 575.796 540.514C575.796 541.17 575.626 541.662 575.287 541.99C574.947 542.307 574.543 542.465 574.074 542.465C573.582 542.465 573.171 542.307 572.843 541.99C572.515 541.662 572.351 541.17 572.351 540.514ZM591.165 562.943C591.681 562.943 592.179 562.908 592.659 562.838C593.14 562.756 593.521 562.674 593.802 562.592V564.824C593.486 564.977 593.017 565.1 592.396 565.193C591.786 565.299 591.236 565.352 590.743 565.352C587.017 565.352 585.154 563.389 585.154 559.463V548.002H582.394V546.596L585.154 545.383L586.384 541.27H588.072V545.734H593.661V548.002H588.072V559.34C588.072 560.5 588.347 561.391 588.898 562.012C589.449 562.633 590.204 562.943 591.165 562.943ZM609.048 565.352C606.2 565.352 603.95 564.484 602.298 562.75C600.657 561.016 599.837 558.607 599.837 555.525C599.837 552.42 600.599 549.953 602.122 548.125C603.657 546.297 605.714 545.383 608.292 545.383C610.706 545.383 612.616 546.18 614.023 547.773C615.429 549.355 616.132 551.447 616.132 554.049V555.895H602.86C602.919 558.156 603.487 559.873 604.565 561.045C605.655 562.217 607.185 562.803 609.153 562.803C611.228 562.803 613.278 562.369 615.306 561.502V564.104C614.274 564.549 613.296 564.865 612.37 565.053C611.456 565.252 610.349 565.352 609.048 565.352ZM608.257 547.826C606.71 547.826 605.474 548.33 604.548 549.338C603.634 550.346 603.095 551.74 602.931 553.521H613.003C613.003 551.682 612.593 550.275 611.773 549.303C610.952 548.318 609.78 547.826 608.257 547.826ZM633.897 545.734H637.026L641.245 556.721C642.17 559.229 642.745 561.039 642.967 562.152H643.108C643.26 561.555 643.577 560.535 644.057 559.094C644.549 557.641 646.143 553.188 648.838 545.734H651.967L643.688 567.672C642.868 569.84 641.907 571.375 640.805 572.277C639.715 573.191 638.374 573.648 636.78 573.648C635.889 573.648 635.01 573.549 634.143 573.35V571.012C634.788 571.152 635.508 571.223 636.305 571.223C638.309 571.223 639.739 570.098 640.594 567.848L641.667 565.105L633.897 545.734ZM674.965 555.35C674.965 558.49 674.174 560.945 672.592 562.715C671.01 564.473 668.825 565.352 666.035 565.352C664.313 565.352 662.784 564.947 661.448 564.139C660.112 563.33 659.08 562.17 658.354 560.658C657.627 559.146 657.264 557.377 657.264 555.35C657.264 552.209 658.049 549.766 659.619 548.02C661.19 546.262 663.369 545.383 666.159 545.383C668.854 545.383 670.992 546.279 672.575 548.072C674.168 549.865 674.965 552.291 674.965 555.35ZM660.287 555.35C660.287 557.811 660.78 559.686 661.764 560.975C662.748 562.264 664.196 562.908 666.106 562.908C668.016 562.908 669.463 562.27 670.448 560.992C671.444 559.703 671.942 557.822 671.942 555.35C671.942 552.9 671.444 551.043 670.448 549.777C669.463 548.5 668.004 547.861 666.071 547.861C664.16 547.861 662.719 548.488 661.746 549.742C660.774 550.996 660.287 552.865 660.287 555.35ZM686.08 545.734V558.232C686.08 559.803 686.438 560.975 687.152 561.748C687.867 562.521 688.986 562.908 690.51 562.908C692.525 562.908 693.996 562.357 694.922 561.256C695.859 560.154 696.328 558.355 696.328 555.859V545.734H699.246V565H696.838L696.416 562.416H696.258C695.66 563.365 694.828 564.092 693.762 564.596C692.707 565.1 691.5 565.352 690.141 565.352C687.797 565.352 686.039 564.795 684.867 563.682C683.707 562.568 683.127 560.787 683.127 558.338V545.734H686.08ZM717.48 545.383C718.336 545.383 719.103 545.453 719.783 545.594L719.379 548.301C718.582 548.125 717.879 548.037 717.269 548.037C715.711 548.037 714.375 548.67 713.262 549.936C712.16 551.201 711.609 552.777 711.609 554.664V565H708.691V545.734H711.099L711.433 549.303H711.574C712.289 548.049 713.15 547.082 714.158 546.402C715.166 545.723 716.273 545.383 717.48 545.383ZM742.136 565H739.218V545.734H742.136V565ZM738.972 540.514C738.972 539.846 739.136 539.359 739.464 539.055C739.792 538.738 740.203 538.58 740.695 538.58C741.163 538.58 741.568 538.738 741.908 539.055C742.247 539.371 742.417 539.857 742.417 540.514C742.417 541.17 742.247 541.662 741.908 541.99C741.568 542.307 741.163 542.465 740.695 542.465C740.203 542.465 739.792 542.307 739.464 541.99C739.136 541.662 738.972 541.17 738.972 540.514ZM764.677 562.416H764.519C763.171 564.373 761.155 565.352 758.472 565.352C755.952 565.352 753.989 564.49 752.583 562.768C751.189 561.045 750.491 558.596 750.491 555.42C750.491 552.244 751.194 549.777 752.601 548.02C754.007 546.262 755.964 545.383 758.472 545.383C761.085 545.383 763.089 546.332 764.484 548.23H764.712L764.589 546.842L764.519 545.488V537.648H767.437V565H765.064L764.677 562.416ZM758.841 562.908C760.833 562.908 762.275 562.369 763.165 561.291C764.068 560.201 764.519 558.449 764.519 556.035V555.42C764.519 552.689 764.062 550.744 763.148 549.584C762.245 548.412 760.798 547.826 758.806 547.826C757.095 547.826 755.782 548.494 754.868 549.83C753.966 551.154 753.515 553.029 753.515 555.455C753.515 557.916 753.966 559.773 754.868 561.027C755.771 562.281 757.095 562.908 758.841 562.908ZM785.02 565.352C782.173 565.352 779.923 564.484 778.27 562.75C776.63 561.016 775.809 558.607 775.809 555.525C775.809 552.42 776.571 549.953 778.095 548.125C779.63 546.297 781.686 545.383 784.265 545.383C786.679 545.383 788.589 546.18 789.995 547.773C791.401 549.355 792.104 551.447 792.104 554.049V555.895H778.833C778.891 558.156 779.46 559.873 780.538 561.045C781.628 562.217 783.157 562.803 785.126 562.803C787.2 562.803 789.251 562.369 791.278 561.502V564.104C790.247 564.549 789.268 564.865 788.343 565.053C787.429 565.252 786.321 565.352 785.02 565.352ZM784.229 547.826C782.682 547.826 781.446 548.33 780.52 549.338C779.606 550.346 779.067 551.74 778.903 553.521H788.975C788.975 551.682 788.565 550.275 787.745 549.303C786.925 548.318 785.753 547.826 784.229 547.826ZM812.184 565L811.604 562.258H811.464C810.503 563.465 809.542 564.285 808.581 564.719C807.631 565.141 806.442 565.352 805.012 565.352C803.102 565.352 801.602 564.859 800.512 563.875C799.434 562.891 798.895 561.49 798.895 559.674C798.895 555.783 802.006 553.744 808.229 553.557L811.499 553.451V552.256C811.499 550.744 811.171 549.631 810.514 548.916C809.87 548.189 808.833 547.826 807.403 547.826C805.797 547.826 803.981 548.318 801.954 549.303L801.057 547.07C802.006 546.555 803.044 546.15 804.169 545.857C805.305 545.564 806.442 545.418 807.579 545.418C809.876 545.418 811.575 545.928 812.676 546.947C813.79 547.967 814.346 549.602 814.346 551.852V565H812.184ZM805.592 562.943C807.409 562.943 808.833 562.445 809.864 561.449C810.907 560.453 811.428 559.059 811.428 557.266V555.525L808.51 555.648C806.19 555.73 804.514 556.094 803.483 556.738C802.464 557.371 801.954 558.361 801.954 559.709C801.954 560.764 802.27 561.566 802.903 562.117C803.547 562.668 804.444 562.943 805.592 562.943ZM836.043 559.744C836.043 561.537 835.375 562.92 834.039 563.893C832.704 564.865 830.829 565.352 828.414 565.352C825.86 565.352 823.868 564.947 822.438 564.139V561.432C823.364 561.9 824.354 562.27 825.409 562.539C826.475 562.809 827.5 562.943 828.485 562.943C830.008 562.943 831.18 562.703 832 562.223C832.821 561.73 833.231 560.986 833.231 559.99C833.231 559.24 832.903 558.602 832.246 558.074C831.602 557.535 830.336 556.902 828.45 556.176C826.657 555.508 825.379 554.928 824.618 554.436C823.868 553.932 823.305 553.363 822.93 552.73C822.567 552.098 822.385 551.342 822.385 550.463C822.385 548.893 823.024 547.656 824.301 546.754C825.579 545.84 827.33 545.383 829.557 545.383C831.631 545.383 833.659 545.805 835.639 546.648L834.602 549.021C832.668 548.225 830.916 547.826 829.346 547.826C827.963 547.826 826.92 548.043 826.217 548.477C825.514 548.91 825.163 549.508 825.163 550.27C825.163 550.785 825.291 551.225 825.549 551.588C825.819 551.951 826.246 552.297 826.832 552.625C827.418 552.953 828.543 553.428 830.207 554.049C832.493 554.881 834.034 555.719 834.83 556.562C835.639 557.406 836.043 558.467 836.043 559.744ZM859.557 565H856.639V545.734H859.557V565ZM856.392 540.514C856.392 539.846 856.557 539.359 856.885 539.055C857.213 538.738 857.623 538.58 858.115 538.58C858.584 538.58 858.988 538.738 859.328 539.055C859.668 539.371 859.838 539.857 859.838 540.514C859.838 541.17 859.668 541.662 859.328 541.99C858.988 542.307 858.584 542.465 858.115 542.465C857.623 542.465 857.213 542.307 856.885 541.99C856.557 541.662 856.392 541.17 856.392 540.514ZM882.168 565V552.537C882.168 550.967 881.81 549.795 881.095 549.021C880.381 548.248 879.261 547.861 877.738 547.861C875.722 547.861 874.246 548.406 873.308 549.496C872.371 550.586 871.902 552.385 871.902 554.893V565H868.984V545.734H871.357L871.832 548.371H871.972C872.57 547.422 873.408 546.689 874.486 546.174C875.564 545.646 876.765 545.383 878.09 545.383C880.41 545.383 882.156 545.945 883.328 547.07C884.5 548.184 885.086 549.971 885.086 552.432V565H882.168ZM915.894 545.418C918.425 545.418 920.388 546.285 921.782 548.02C923.189 549.742 923.892 552.186 923.892 555.35C923.892 558.514 923.183 560.975 921.765 562.732C920.359 564.479 918.402 565.352 915.894 565.352C914.64 565.352 913.491 565.123 912.448 564.666C911.417 564.197 910.55 563.482 909.847 562.521H909.636L909.021 565H906.929V537.648H909.847V544.293C909.847 545.781 909.8 547.117 909.706 548.301H909.847C911.206 546.379 913.222 545.418 915.894 545.418ZM915.472 547.861C913.48 547.861 912.044 548.436 911.165 549.584C910.286 550.721 909.847 552.643 909.847 555.35C909.847 558.057 910.298 559.996 911.2 561.168C912.103 562.328 913.55 562.908 915.542 562.908C917.335 562.908 918.671 562.258 919.55 560.957C920.429 559.645 920.868 557.764 920.868 555.314C920.868 552.807 920.429 550.938 919.55 549.707C918.671 548.477 917.312 547.861 915.472 547.861ZM948.876 555.35C948.876 558.49 948.085 560.945 946.503 562.715C944.921 564.473 942.735 565.352 939.946 565.352C938.224 565.352 936.694 564.947 935.358 564.139C934.022 563.33 932.991 562.17 932.265 560.658C931.538 559.146 931.175 557.377 931.175 555.35C931.175 552.209 931.96 549.766 933.53 548.02C935.101 546.262 937.28 545.383 940.069 545.383C942.765 545.383 944.903 546.279 946.485 548.072C948.079 549.865 948.876 552.291 948.876 555.35ZM934.198 555.35C934.198 557.811 934.69 559.686 935.675 560.975C936.659 562.264 938.106 562.908 940.017 562.908C941.927 562.908 943.374 562.27 944.358 560.992C945.354 559.703 945.853 557.822 945.853 555.35C945.853 552.9 945.354 551.043 944.358 549.777C943.374 548.5 941.915 547.861 939.981 547.861C938.071 547.861 936.63 548.488 935.657 549.742C934.685 550.996 934.198 552.865 934.198 555.35ZM961.889 555.139L955.192 545.734H958.514L963.594 553.117L968.657 545.734H971.944L965.247 555.139L972.296 565H968.991L963.594 557.195L958.145 565H954.841L961.889 555.139ZM1005.14 565V552.537C1005.14 550.967 1004.79 549.795 1004.07 549.021C1003.36 548.248 1002.24 547.861 1000.71 547.861C998.698 547.861 997.221 548.406 996.283 549.496C995.346 550.586 994.877 552.385 994.877 554.893V565H991.959V545.734H994.332L994.807 548.371H994.948C995.545 547.422 996.383 546.689 997.461 546.174C998.539 545.646 999.74 545.383 1001.06 545.383C1003.39 545.383 1005.13 545.945 1006.3 547.07C1007.47 548.184 1008.06 549.971 1008.06 552.432V565H1005.14ZM1033.94 555.35C1033.94 558.49 1033.15 560.945 1031.57 562.715C1029.99 564.473 1027.8 565.352 1025.01 565.352C1023.29 565.352 1021.76 564.947 1020.42 564.139C1019.09 563.33 1018.06 562.17 1017.33 560.658C1016.6 559.146 1016.24 557.377 1016.24 555.35C1016.24 552.209 1017.03 549.766 1018.6 548.02C1020.17 546.262 1022.35 545.383 1025.13 545.383C1027.83 545.383 1029.97 546.279 1031.55 548.072C1033.14 549.865 1033.94 552.291 1033.94 555.35ZM1019.26 555.35C1019.26 557.811 1019.76 559.686 1020.74 560.975C1021.72 562.264 1023.17 562.908 1025.08 562.908C1026.99 562.908 1028.44 562.27 1029.42 560.992C1030.42 559.703 1030.92 557.822 1030.92 555.35C1030.92 552.9 1030.42 551.043 1029.42 549.777C1028.44 548.5 1026.98 547.861 1025.05 547.861C1023.14 547.861 1021.7 548.488 1020.72 549.742C1019.75 550.996 1019.26 552.865 1019.26 555.35ZM1041.89 563.137C1041.89 562.352 1042.07 561.76 1042.42 561.361C1042.78 560.951 1043.3 560.746 1043.97 560.746C1044.65 560.746 1045.17 560.951 1045.55 561.361C1045.94 561.76 1046.13 562.352 1046.13 563.137C1046.13 563.898 1045.94 564.484 1045.55 564.895C1045.16 565.305 1044.63 565.51 1043.97 565.51C1043.37 565.51 1042.87 565.328 1042.47 564.965C1042.09 564.59 1041.89 563.98 1041.89 563.137ZM1071.92 559.094H1068.11V565H1065.31V559.094H1052.81V556.545L1065.01 539.16H1068.11V556.439H1071.92V559.094ZM1065.31 556.439V547.896C1065.31 546.221 1065.37 544.328 1065.49 542.219H1065.35C1064.78 543.344 1064.26 544.275 1063.77 545.014L1055.73 556.439H1065.31Z" fill="black"/>
<path d="M148.912 101.578C148.912 106.781 147.131 110.789 143.568 113.602C140.029 116.391 134.955 117.785 128.346 117.785H122.299V138H116.322V86.6016H129.647C142.49 86.6016 148.912 91.5938 148.912 101.578ZM122.299 112.652H127.678C132.975 112.652 136.807 111.797 139.174 110.086C141.541 108.375 142.725 105.633 142.725 101.859C142.725 98.4609 141.611 95.9297 139.385 94.2656C137.158 92.6016 133.69 91.7695 128.979 91.7695H122.299V112.652ZM162.442 116.625V138H156.465V86.6016H170.563C176.868 86.6016 181.52 87.8086 184.52 90.2227C187.543 92.6367 189.055 96.2695 189.055 101.121C189.055 107.918 185.61 112.512 178.719 114.902L192.676 138H185.61L173.164 116.625H162.442ZM162.442 111.492H170.633C174.852 111.492 177.946 110.66 179.914 108.996C181.883 107.309 182.868 104.789 182.868 101.438C182.868 98.0391 181.86 95.5898 179.844 94.0898C177.852 92.5898 174.641 91.8398 170.211 91.8398H162.442V111.492ZM242.346 112.23C242.346 120.457 240.26 126.926 236.088 131.637C231.94 136.348 226.163 138.703 218.756 138.703C211.186 138.703 205.338 136.395 201.213 131.777C197.112 127.137 195.061 120.598 195.061 112.16C195.061 103.793 197.124 97.3125 201.249 92.7188C205.374 88.1016 211.233 85.793 218.827 85.793C226.21 85.793 231.975 88.1367 236.124 92.8242C240.272 97.5117 242.346 103.98 242.346 112.23ZM201.389 112.23C201.389 119.191 202.866 124.477 205.819 128.086C208.795 131.672 213.108 133.465 218.756 133.465C224.452 133.465 228.753 131.672 231.659 128.086C234.565 124.5 236.018 119.215 236.018 112.23C236.018 105.316 234.565 100.078 231.659 96.5156C228.776 92.9297 224.499 91.1367 218.827 91.1367C213.131 91.1367 208.795 92.9414 205.819 96.5508C202.866 100.137 201.389 105.363 201.389 112.23ZM266.423 138H260.446V91.9102H244.169V86.6016H282.7V91.9102H266.423V138ZM331.843 112.23C331.843 120.457 329.757 126.926 325.585 131.637C321.437 136.348 315.659 138.703 308.253 138.703C300.683 138.703 294.835 136.395 290.71 131.777C286.608 127.137 284.558 120.598 284.558 112.16C284.558 103.793 286.62 97.3125 290.745 92.7188C294.87 88.1016 300.73 85.793 308.323 85.793C315.706 85.793 321.472 88.1367 325.62 92.8242C329.769 97.5117 331.843 103.98 331.843 112.23ZM290.886 112.23C290.886 119.191 292.362 124.477 295.315 128.086C298.292 131.672 302.605 133.465 308.253 133.465C313.948 133.465 318.249 131.672 321.155 128.086C324.062 124.5 325.515 119.215 325.515 112.23C325.515 105.316 324.062 100.078 321.155 96.5156C318.273 92.9297 313.995 91.1367 308.323 91.1367C302.628 91.1367 298.292 92.9414 295.315 96.5508C292.362 100.137 290.886 105.363 290.886 112.23ZM355.919 138H349.943V91.9102H333.665V86.6016H372.197V91.9102H355.919V138ZM389.804 112.301L403.515 86.6016H409.984L392.828 118.066V138H386.781V118.348L369.66 86.6016H376.199L389.804 112.301ZM446.435 101.578C446.435 106.781 444.654 110.789 441.092 113.602C437.553 116.391 432.478 117.785 425.869 117.785H419.822V138H413.845V86.6016H427.17C440.013 86.6016 446.435 91.5938 446.435 101.578ZM419.822 112.652H425.201C430.498 112.652 434.33 111.797 436.697 110.086C439.064 108.375 440.248 105.633 440.248 101.859C440.248 98.4609 439.135 95.9297 436.908 94.2656C434.681 92.6016 431.213 91.7695 426.502 91.7695H419.822V112.652ZM482.641 138H453.988V86.6016H482.641V91.9102H459.965V108.469H481.27V113.742H459.965V132.656H482.641V138Z" fill="#020612"/>
</g>
<defs>
<clipPath id="clip0">
<rect width="1920" height="1080" fill="white"/>
</clipPath>
</defs>
</svg>
