<svg width="1920" height="1080" viewBox="0 0 1920 1080" fill="none" xmlns="http://www.w3.org/2000/svg">
<rect width="1920" height="1080" fill="white"/>
<rect x="577" y="351" width="572" height="212" fill="#FA9292"/>
<path d="M620.588 408.348C620.588 409.871 620.037 411.066 618.935 411.934C617.834 412.801 616.314 413.234 614.377 413.234C612.439 413.234 610.853 412.934 609.619 412.332V409.684C610.4 410.051 611.228 410.34 612.103 410.551C612.986 410.762 613.806 410.867 614.564 410.867C615.673 410.867 616.49 410.656 617.013 410.234C617.545 409.812 617.81 409.246 617.81 408.535C617.81 407.895 617.568 407.352 617.084 406.906C616.599 406.461 615.599 405.934 614.084 405.324C612.521 404.691 611.42 403.969 610.779 403.156C610.138 402.344 609.818 401.367 609.818 400.227C609.818 398.797 610.326 397.672 611.341 396.852C612.357 396.031 613.72 395.621 615.431 395.621C617.072 395.621 618.705 395.98 620.33 396.699L619.439 398.984C617.916 398.344 616.556 398.023 615.361 398.023C614.455 398.023 613.767 398.223 613.298 398.621C612.83 399.012 612.595 399.531 612.595 400.18C612.595 400.625 612.689 401.008 612.877 401.328C613.064 401.641 613.373 401.938 613.802 402.219C614.232 402.5 615.005 402.871 616.123 403.332C617.38 403.855 618.302 404.344 618.888 404.797C619.474 405.25 619.904 405.762 620.177 406.332C620.451 406.902 620.588 407.574 620.588 408.348ZM640.262 413H637.461V398.27H632.422V395.867H645.301V398.27H640.262V413ZM668.069 413H658.378V395.867H668.069V398.234H661.178V402.898H667.635V405.242H661.178V410.621H668.069V413ZM693.568 401.047C693.568 402.836 692.982 404.207 691.81 405.16C690.638 406.113 688.97 406.59 686.806 406.59H685.025V413H682.224V395.867H687.158C689.298 395.867 690.9 396.305 691.962 397.18C693.033 398.055 693.568 399.344 693.568 401.047ZM685.025 404.234H686.513C687.95 404.234 689.005 403.984 689.677 403.484C690.349 402.984 690.685 402.203 690.685 401.141C690.685 400.156 690.384 399.422 689.783 398.938C689.181 398.453 688.243 398.211 686.97 398.211H685.025V404.234ZM735.12 409.262H732.811V413H730.127V409.262H722.299V407.141L730.127 395.82H732.811V406.977H735.12V409.262ZM730.127 406.977V402.676C730.127 401.145 730.166 399.891 730.245 398.914H730.151C729.932 399.43 729.588 400.055 729.12 400.789L724.866 406.977H730.127Z" fill="#121212"/>
<path d="M1041.26 666.27C1041.26 669.098 1040.48 671.262 1038.91 672.762C1037.34 674.254 1035.08 675 1032.12 675H1027.33V657.867H1032.63C1035.35 657.867 1037.47 658.602 1038.99 660.07C1040.51 661.539 1041.26 663.605 1041.26 666.27ZM1038.31 666.363C1038.31 662.262 1036.39 660.211 1032.56 660.211H1030.13V672.645H1032.12C1036.25 672.645 1038.31 670.551 1038.31 666.363ZM1065.09 675H1055.4V657.867H1065.09V660.234H1058.2V664.898H1064.65V667.242H1058.2V672.621H1065.09V675ZM1089.12 670.348C1089.12 671.871 1088.57 673.066 1087.47 673.934C1086.37 674.801 1084.85 675.234 1082.91 675.234C1080.97 675.234 1079.39 674.934 1078.15 674.332V671.684C1078.93 672.051 1079.76 672.34 1080.64 672.551C1081.52 672.762 1082.34 672.867 1083.1 672.867C1084.21 672.867 1085.02 672.656 1085.55 672.234C1086.08 671.812 1086.34 671.246 1086.34 670.535C1086.34 669.895 1086.1 669.352 1085.62 668.906C1085.13 668.461 1084.13 667.934 1082.62 667.324C1081.05 666.691 1079.95 665.969 1079.31 665.156C1078.67 664.344 1078.35 663.367 1078.35 662.227C1078.35 660.797 1078.86 659.672 1079.87 658.852C1080.89 658.031 1082.25 657.621 1083.96 657.621C1085.6 657.621 1087.24 657.98 1088.86 658.699L1087.97 660.984C1086.45 660.344 1085.09 660.023 1083.89 660.023C1082.99 660.023 1082.3 660.223 1081.83 660.621C1081.36 661.012 1081.13 661.531 1081.13 662.18C1081.13 662.625 1081.22 663.008 1081.41 663.328C1081.6 663.641 1081.91 663.938 1082.34 664.219C1082.76 664.5 1083.54 664.871 1084.66 665.332C1085.91 665.855 1086.84 666.344 1087.42 666.797C1088.01 667.25 1088.44 667.762 1088.71 668.332C1088.98 668.902 1089.12 669.574 1089.12 670.348ZM1102.88 675V657.867H1105.68V675H1102.88ZM1127.66 665.707H1133.97V674.309C1132.93 674.645 1131.94 674.883 1130.99 675.023C1130.04 675.164 1129.02 675.234 1127.92 675.234C1125.32 675.234 1123.32 674.469 1121.92 672.938C1120.51 671.398 1119.81 669.23 1119.81 666.434C1119.81 663.676 1120.6 661.52 1122.19 659.965C1123.77 658.402 1125.96 657.621 1128.74 657.621C1130.53 657.621 1132.22 657.965 1133.82 658.652L1132.84 660.984C1131.45 660.344 1130.06 660.023 1128.67 660.023C1126.84 660.023 1125.39 660.598 1124.33 661.746C1123.27 662.895 1122.74 664.465 1122.74 666.457C1122.74 668.551 1123.22 670.145 1124.17 671.238C1125.13 672.324 1126.51 672.867 1128.3 672.867C1129.21 672.867 1130.18 672.754 1131.21 672.527V668.109H1127.66V665.707ZM1162.8 675H1159.37L1150.94 661.348H1150.85L1150.91 662.109C1151.02 663.562 1151.07 664.891 1151.07 666.094V675H1148.53V657.867H1151.93L1160.33 671.449H1160.4C1160.39 671.27 1160.35 670.617 1160.31 669.492C1160.26 668.359 1160.24 667.477 1160.24 666.844V657.867H1162.8V675ZM1200.36 675H1197.56V660.27H1192.52V657.867H1205.4V660.27H1200.36V675ZM1231.99 675H1229.17V667.277H1221.28V675H1218.48V657.867H1221.28V664.875H1229.17V657.867H1231.99V675ZM1246.94 675V657.867H1249.74V675H1246.94ZM1278.99 675H1275.55L1267.13 661.348H1267.03L1267.09 662.109C1267.2 663.562 1267.26 664.891 1267.26 666.094V675H1264.71V657.867H1268.11L1276.52 671.449H1276.59C1276.57 671.27 1276.54 670.617 1276.49 669.492C1276.44 668.359 1276.42 667.477 1276.42 666.844V657.867H1278.99V675ZM1307.03 675H1303.78L1298.4 667.242L1296.75 668.59V675H1293.95V657.867H1296.75V666.047C1297.52 665.109 1298.28 664.207 1299.04 663.34L1303.67 657.867H1306.85C1303.86 661.383 1301.72 663.887 1300.42 665.379L1307.03 675ZM1319.74 675V657.867H1322.54V675H1319.74ZM1351.79 675H1348.36L1339.93 661.348H1339.84L1339.9 662.109C1340.01 663.562 1340.06 664.891 1340.06 666.094V675H1337.52V657.867H1340.92L1349.32 671.449H1349.39C1349.37 671.27 1349.34 670.617 1349.3 669.492C1349.25 668.359 1349.23 667.477 1349.23 666.844V657.867H1351.79V675ZM1373.76 665.707H1380.07V674.309C1379.04 674.645 1378.04 674.883 1377.09 675.023C1376.15 675.164 1375.12 675.234 1374.02 675.234C1371.43 675.234 1369.43 674.469 1368.02 672.938C1366.62 671.398 1365.91 669.23 1365.91 666.434C1365.91 663.676 1366.71 661.52 1368.29 659.965C1369.88 658.402 1372.06 657.621 1374.84 657.621C1376.63 657.621 1378.33 657.965 1379.93 658.652L1378.94 660.984C1377.55 660.344 1376.16 660.023 1374.77 660.023C1372.94 660.023 1371.5 660.598 1370.44 661.746C1369.37 662.895 1368.84 664.465 1368.84 666.457C1368.84 668.551 1369.32 670.145 1370.27 671.238C1371.23 672.324 1372.61 672.867 1374.41 672.867C1375.31 672.867 1376.28 672.754 1377.31 672.527V668.109H1373.76V665.707Z" fill="#121212"/>
<path d="M856.165 588H844.212V495.82H811.658V485.203H888.72V495.82H856.165V588ZM955.084 588H897.779V485.203H955.084V495.82H909.732V528.938H952.342V539.484H909.732V577.312H955.084V588ZM1029.46 560.648C1029.46 569.695 1026.18 576.75 1019.62 581.812C1013.06 586.875 1004.15 589.406 992.901 589.406C980.713 589.406 971.338 587.836 964.776 584.695V573.164C968.994 574.945 973.588 576.352 978.557 577.383C983.526 578.414 988.448 578.93 993.323 578.93C1001.29 578.93 1007.29 577.43 1011.32 574.43C1015.35 571.383 1017.37 567.164 1017.37 561.773C1017.37 558.211 1016.64 555.305 1015.19 553.055C1013.78 550.758 1011.39 548.648 1008.02 546.727C1004.69 544.805 999.604 542.625 992.76 540.188C983.198 536.766 976.354 532.711 972.229 528.023C968.151 523.336 966.112 517.219 966.112 509.672C966.112 501.75 969.088 495.445 975.041 490.758C980.994 486.07 988.869 483.727 998.666 483.727C1008.89 483.727 1018.28 485.602 1026.86 489.352L1023.14 499.758C1014.65 496.195 1006.4 494.414 998.385 494.414C992.057 494.414 987.112 495.773 983.549 498.492C979.987 501.211 978.205 504.984 978.205 509.812C978.205 513.375 978.862 516.305 980.174 518.602C981.487 520.852 983.69 522.938 986.783 524.859C989.924 526.734 994.705 528.82 1001.13 531.117C1011.91 534.961 1019.31 539.086 1023.35 543.492C1027.42 547.898 1029.46 553.617 1029.46 560.648ZM1075.65 588H1063.69V495.82H1031.14V485.203H1108.2V495.82H1075.65V588Z" fill="#020612"/>
</svg>
