<svg width="1920" height="1080" viewBox="0 0 1920 1080" fill="none" xmlns="http://www.w3.org/2000/svg">
<rect width="1920" height="1080" fill="white"/>
<rect x="384" y="431" width="1152" height="649" fill="#E9E9E9"/>
<path d="M764.559 470H756.684L742.856 424.109C742.2 422.078 741.466 419.516 740.653 416.422C739.841 413.328 739.419 411.469 739.388 410.844C738.7 414.969 737.606 419.484 736.106 424.391L722.7 470H714.825L696.591 401.469H705.028L715.856 443.797C717.356 449.734 718.45 455.109 719.138 459.922C719.981 454.203 721.231 448.609 722.888 443.141L735.169 401.469H743.606L756.497 443.516C757.997 448.359 759.263 453.828 760.294 459.922C760.888 455.484 762.013 450.078 763.669 443.703L774.45 401.469H782.888L764.559 470ZM819.913 470.938C812.319 470.938 806.319 468.625 801.913 464C797.538 459.375 795.351 452.953 795.351 444.734C795.351 436.453 797.382 429.875 801.444 425C805.538 420.125 811.023 417.688 817.898 417.688C824.335 417.688 829.429 419.812 833.179 424.062C836.929 428.281 838.804 433.859 838.804 440.797V445.719H803.413C803.569 451.75 805.085 456.328 807.96 459.453C810.866 462.578 814.944 464.141 820.194 464.141C825.726 464.141 831.194 462.984 836.601 460.672V467.609C833.851 468.797 831.241 469.641 828.773 470.141C826.335 470.672 823.382 470.938 819.913 470.938ZM817.804 424.203C813.679 424.203 810.382 425.547 807.913 428.234C805.476 430.922 804.038 434.641 803.601 439.391H830.46C830.46 434.484 829.366 430.734 827.179 428.141C824.991 425.516 821.866 424.203 817.804 424.203ZM865.658 470H857.876V397.062H865.658V470ZM895.699 470H887.917V397.062H895.699V470ZM983.625 463.109H983.203C979.609 468.328 974.234 470.938 967.078 470.938C960.359 470.938 955.125 468.641 951.375 464.047C947.656 459.453 945.797 452.922 945.797 444.453C945.797 435.984 947.672 429.406 951.422 424.719C955.172 420.031 960.391 417.688 967.078 417.688C974.047 417.688 979.391 420.219 983.109 425.281H983.719L983.391 421.578L983.203 417.969V397.062H990.984V470H984.656L983.625 463.109ZM968.062 464.422C973.375 464.422 977.219 462.984 979.594 460.109C982 457.203 983.203 452.531 983.203 446.094V444.453C983.203 437.172 981.984 431.984 979.547 428.891C977.141 425.766 973.281 424.203 967.969 424.203C963.406 424.203 959.906 425.984 957.469 429.547C955.062 433.078 953.859 438.078 953.859 444.547C953.859 451.109 955.062 456.062 957.469 459.406C959.875 462.75 963.406 464.422 968.062 464.422ZM1057.64 444.266C1057.64 452.641 1055.53 459.188 1051.31 463.906C1047.09 468.594 1041.26 470.938 1033.82 470.938C1029.23 470.938 1025.15 469.859 1021.59 467.703C1018.03 465.547 1015.28 462.453 1013.34 458.422C1011.4 454.391 1010.43 449.672 1010.43 444.266C1010.43 435.891 1012.53 429.375 1016.71 424.719C1020.9 420.031 1026.71 417.688 1034.15 417.688C1041.34 417.688 1047.04 420.078 1051.26 424.859C1055.51 429.641 1057.64 436.109 1057.64 444.266ZM1018.49 444.266C1018.49 450.828 1019.81 455.828 1022.43 459.266C1025.06 462.703 1028.92 464.422 1034.01 464.422C1039.1 464.422 1042.96 462.719 1045.59 459.312C1048.24 455.875 1049.57 450.859 1049.57 444.266C1049.57 437.734 1048.24 432.781 1045.59 429.406C1042.96 426 1039.07 424.297 1033.92 424.297C1028.82 424.297 1024.98 425.969 1022.39 429.312C1019.79 432.656 1018.49 437.641 1018.49 444.266ZM1112.24 470V436.766C1112.24 432.578 1111.29 429.453 1109.38 427.391C1107.47 425.328 1104.49 424.297 1100.43 424.297C1095.05 424.297 1091.11 425.75 1088.61 428.656C1086.11 431.562 1084.86 436.359 1084.86 443.047V470H1077.08V418.625H1083.41L1084.68 425.656H1085.05C1086.65 423.125 1088.88 421.172 1091.75 419.797C1094.63 418.391 1097.83 417.688 1101.36 417.688C1107.55 417.688 1112.21 419.188 1115.33 422.188C1118.46 425.156 1120.02 429.922 1120.02 436.484V470H1112.24ZM1163.51 470.938C1155.92 470.938 1149.92 468.625 1145.51 464C1141.14 459.375 1138.95 452.953 1138.95 444.734C1138.95 436.453 1140.98 429.875 1145.05 425C1149.14 420.125 1154.62 417.688 1161.5 417.688C1167.94 417.688 1173.03 419.812 1176.78 424.062C1180.53 428.281 1182.41 433.859 1182.41 440.797V445.719H1147.01C1147.17 451.75 1148.69 456.328 1151.56 459.453C1154.47 462.578 1158.55 464.141 1163.8 464.141C1169.33 464.141 1174.8 462.984 1180.2 460.672V467.609C1177.45 468.797 1174.84 469.641 1172.37 470.141C1169.94 470.672 1166.98 470.938 1163.51 470.938ZM1161.41 424.203C1157.28 424.203 1153.98 425.547 1151.51 428.234C1149.08 430.922 1147.64 434.641 1147.2 439.391H1174.06C1174.06 434.484 1172.97 430.734 1170.78 428.141C1168.59 425.516 1165.47 424.203 1161.41 424.203ZM1208.51 451.109H1203.59L1201.2 401.469H1210.9L1208.51 451.109ZM1200.35 465.031C1200.35 460.781 1202.23 458.656 1205.98 458.656C1207.79 458.656 1209.18 459.203 1210.15 460.297C1211.15 461.391 1211.65 462.969 1211.65 465.031C1211.65 467.031 1211.15 468.594 1210.15 469.719C1209.15 470.812 1207.76 471.359 1205.98 471.359C1204.35 471.359 1203.01 470.875 1201.95 469.906C1200.88 468.906 1200.35 467.281 1200.35 465.031Z" fill="#020612"/>
<path fill-rule="evenodd" clip-rule="evenodd" d="M966.101 116.023C1015 116.926 1055.55 151.253 1070.68 197.801C1085.84 244.415 1073.72 296.669 1034.28 325.728C994.11 355.322 939.577 353.275 898.937 324.33C856.969 294.438 833.096 242.765 848.915 193.703C864.823 144.366 914.311 115.066 966.101 116.023Z" fill="#2C4FCB"/>
<path fill-rule="evenodd" clip-rule="evenodd" d="M918.24 200.001C920.339 200.04 922.079 201.526 922.729 203.541C923.379 205.559 922.859 207.821 921.167 209.079C919.442 210.36 917.102 210.272 915.358 209.019C913.557 207.725 912.532 205.488 913.211 203.364C913.894 201.228 916.018 199.96 918.24 200.001Z" fill="white"/>
<path fill-rule="evenodd" clip-rule="evenodd" d="M1016.24 200.001C1018.34 200.04 1020.08 201.526 1020.73 203.541C1021.38 205.559 1020.86 207.821 1019.17 209.079C1017.44 210.36 1015.1 210.272 1013.36 209.019C1011.56 207.725 1010.53 205.488 1011.21 203.364C1011.89 201.228 1014.02 199.96 1016.24 200.001Z" fill="white"/>
<path d="M887.012 262.17C887.106 260.515 885.841 259.098 884.186 259.005C882.532 258.911 881.115 260.176 881.022 261.83L887.012 262.17ZM941.017 301L940.604 298.029L941.017 301ZM991.017 301L990.256 298.098L991.017 301ZM1047.83 263.914C1048.88 262.639 1048.71 260.747 1047.43 259.69C1046.16 258.633 1044.26 258.81 1043.21 260.086L1047.83 263.914ZM881.022 261.83C880.703 267.466 883.909 273.01 888.245 277.834C892.668 282.754 898.724 287.437 905.162 291.425C911.613 295.422 918.571 298.799 924.884 301.059C931.064 303.271 937.071 304.577 941.429 303.971L940.604 298.029C937.763 298.423 932.919 297.562 926.906 295.41C921.024 293.305 914.445 290.119 908.322 286.325C902.184 282.522 896.628 278.184 892.707 273.822C888.7 269.365 886.831 265.368 887.012 262.17L881.022 261.83ZM941.429 303.971C949.89 302.796 955.897 304.243 963.389 305.369C970.927 306.501 979.359 307.154 991.777 303.902L990.256 298.098C978.855 301.084 971.287 300.488 964.28 299.435C957.227 298.376 950.143 296.704 940.604 298.029L941.429 303.971ZM991.777 303.902C1012.73 298.414 1022.01 294.608 1028.47 288.718C1031.68 285.8 1034.09 282.458 1036.85 278.54C1039.63 274.591 1042.87 269.893 1047.83 263.914L1043.21 260.086C1038.08 266.273 1034.71 271.159 1031.95 275.085C1029.16 279.042 1027.09 281.866 1024.43 284.282C1019.19 289.059 1011.3 292.586 990.256 298.098L991.777 303.902Z" fill="white"/>
</svg>
