<svg width="1920" height="1080" viewBox="0 0 1920 1080" fill="none" xmlns="http://www.w3.org/2000/svg">
<g clip-path="url(#clip0)">
<rect width="1920" height="1080" fill="white"/>
<rect x="384" y="550" width="1152" height="566" fill="#E9E9E9"/>
<path d="M594.133 470H586.258L572.43 424.109C571.774 422.078 571.039 419.516 570.227 416.422C569.414 413.328 568.992 411.469 568.961 410.844C568.274 414.969 567.18 419.484 565.68 424.391L552.274 470H544.399L526.164 401.469H534.602L545.43 443.797C546.93 449.734 548.024 455.109 548.711 459.922C549.555 454.203 550.805 448.609 552.461 443.141L564.742 401.469H573.18L586.071 443.516C587.571 448.359 588.836 453.828 589.867 459.922C590.461 455.484 591.586 450.078 593.242 443.703L604.024 401.469H612.461L594.133 470ZM680.987 470H673.018V437.75H636.924V470H628.956V401.469H636.924V430.625H673.018V401.469H680.987V470ZM748.669 470L740.138 448.203H712.669L704.231 470H696.169L723.263 401.188H729.966L756.919 470H748.669ZM737.653 441.031L729.684 419.797C728.653 417.109 727.591 413.812 726.497 409.906C725.809 412.906 724.825 416.203 723.544 419.797L715.481 441.031H737.653ZM793.194 470H785.226V408.547H763.522V401.469H814.897V408.547H793.194V470ZM861.714 470V401.469H869.683V470H861.714ZM932.959 451.766C932.959 457.797 930.771 462.5 926.396 465.875C922.021 469.25 916.084 470.938 908.584 470.938C900.459 470.938 894.209 469.891 889.834 467.797V460.109C892.646 461.297 895.709 462.234 899.021 462.922C902.334 463.609 905.615 463.953 908.865 463.953C914.177 463.953 918.177 462.953 920.865 460.953C923.552 458.922 924.896 456.109 924.896 452.516C924.896 450.141 924.412 448.203 923.443 446.703C922.506 445.172 920.912 443.766 918.662 442.484C916.443 441.203 913.052 439.75 908.49 438.125C902.115 435.844 897.552 433.141 894.802 430.016C892.084 426.891 890.724 422.812 890.724 417.781C890.724 412.5 892.709 408.297 896.677 405.172C900.646 402.047 905.896 400.484 912.427 400.484C919.24 400.484 925.506 401.734 931.224 404.234L928.74 411.172C923.084 408.797 917.584 407.609 912.24 407.609C908.021 407.609 904.724 408.516 902.349 410.328C899.974 412.141 898.787 414.656 898.787 417.875C898.787 420.25 899.224 422.203 900.099 423.734C900.974 425.234 902.443 426.625 904.506 427.906C906.599 429.156 909.787 430.547 914.068 432.078C921.256 434.641 926.193 437.391 928.881 440.328C931.599 443.266 932.959 447.078 932.959 451.766ZM1038.14 435.078C1038.14 446.391 1035.06 455.047 1028.9 461.047C1022.78 467.016 1013.95 470 1002.42 470H983.432V401.469H1004.43C1015.09 401.469 1023.37 404.422 1029.28 410.328C1035.18 416.234 1038.14 424.484 1038.14 435.078ZM1029.7 435.359C1029.7 426.422 1027.45 419.688 1022.95 415.156C1018.48 410.625 1011.82 408.359 1002.98 408.359H991.401V463.109H1001.1C1010.6 463.109 1017.74 460.781 1022.53 456.125C1027.31 451.438 1029.7 444.516 1029.7 435.359ZM1097.43 470H1059.22V401.469H1097.43V408.547H1067.19V430.625H1095.6V437.656H1067.19V462.875H1097.43V470ZM1157.09 451.766C1157.09 457.797 1154.9 462.5 1150.53 465.875C1146.15 469.25 1140.22 470.938 1132.72 470.938C1124.59 470.938 1118.34 469.891 1113.97 467.797V460.109C1116.78 461.297 1119.84 462.234 1123.15 462.922C1126.47 463.609 1129.75 463.953 1133 463.953C1138.31 463.953 1142.31 462.953 1145 460.953C1147.69 458.922 1149.03 456.109 1149.03 452.516C1149.03 450.141 1148.55 448.203 1147.58 446.703C1146.64 445.172 1145.05 443.766 1142.8 442.484C1140.58 441.203 1137.19 439.75 1132.62 438.125C1126.25 435.844 1121.69 433.141 1118.94 430.016C1116.22 426.891 1114.86 422.812 1114.86 417.781C1114.86 412.5 1116.84 408.297 1120.81 405.172C1124.78 402.047 1130.03 400.484 1136.56 400.484C1143.37 400.484 1149.64 401.734 1155.36 404.234L1152.87 411.172C1147.22 408.797 1141.72 407.609 1136.37 407.609C1132.15 407.609 1128.86 408.516 1126.48 410.328C1124.11 412.141 1122.92 414.656 1122.92 417.875C1122.92 420.25 1123.36 422.203 1124.23 423.734C1125.11 425.234 1126.58 426.625 1128.64 427.906C1130.73 429.156 1133.92 430.547 1138.2 432.078C1145.39 434.641 1150.33 437.391 1153.01 440.328C1155.73 443.266 1157.09 447.078 1157.09 451.766ZM1176.87 470V401.469H1184.84V470H1176.87ZM1239.58 434.094H1262.88V467.422C1259.25 468.578 1255.57 469.453 1251.82 470.047C1248.07 470.641 1243.72 470.938 1238.78 470.938C1228.41 470.938 1220.33 467.859 1214.55 461.703C1208.77 455.516 1205.88 446.859 1205.88 435.734C1205.88 428.609 1207.3 422.375 1210.14 417.031C1213.02 411.656 1217.14 407.562 1222.52 404.75C1227.89 401.906 1234.19 400.484 1241.41 400.484C1248.72 400.484 1255.53 401.828 1261.85 404.516L1258.75 411.547C1252.57 408.922 1246.61 407.609 1240.89 407.609C1232.55 407.609 1226.03 410.094 1221.35 415.062C1216.66 420.031 1214.32 426.922 1214.32 435.734C1214.32 444.984 1216.57 452 1221.07 456.781C1225.6 461.562 1232.24 463.953 1240.99 463.953C1245.74 463.953 1250.38 463.406 1254.91 462.312V441.219H1239.58V434.094ZM1338.67 470H1329.58L1292.12 412.484H1291.75C1292.25 419.234 1292.5 425.422 1292.5 431.047V470H1285.14V401.469H1294.14L1331.5 458.75H1331.87C1331.81 457.906 1331.67 455.203 1331.45 450.641C1331.23 446.047 1331.15 442.766 1331.22 440.797V401.469H1338.67V470ZM1367.4 451.109V448.578C1367.4 444.922 1367.96 441.922 1369.09 439.578C1370.21 437.203 1372.3 434.703 1375.37 432.078C1379.62 428.484 1382.29 425.781 1383.38 423.969C1384.51 422.156 1385.07 419.969 1385.07 417.406C1385.07 414.219 1384.04 411.766 1381.98 410.047C1379.95 408.297 1377.01 407.422 1373.16 407.422C1370.7 407.422 1368.29 407.719 1365.95 408.312C1363.6 408.875 1360.91 409.922 1357.88 411.453L1355.12 405.125C1361.02 402.031 1367.2 400.484 1373.63 400.484C1379.6 400.484 1384.24 401.953 1387.55 404.891C1390.87 407.828 1392.52 411.969 1392.52 417.312C1392.52 419.594 1392.21 421.609 1391.59 423.359C1390.99 425.078 1390.1 426.719 1388.91 428.281C1387.73 429.812 1385.16 432.297 1381.23 435.734C1378.07 438.422 1375.98 440.656 1374.95 442.438C1373.95 444.219 1373.45 446.594 1373.45 449.562V451.109H1367.4ZM1365.1 465.031C1365.1 460.781 1366.98 458.656 1370.73 458.656C1372.54 458.656 1373.93 459.203 1374.9 460.297C1375.9 461.391 1376.4 462.969 1376.4 465.031C1376.4 467.031 1375.9 468.594 1374.9 469.719C1373.9 470.812 1372.51 471.359 1370.73 471.359C1369.1 471.359 1367.76 470.875 1366.7 469.906C1365.63 468.906 1365.1 467.281 1365.1 465.031Z" fill="#020612"/>
</g>
<defs>
<clipPath id="clip0">
<rect width="1920" height="1080" fill="white"/>
</clipPath>
</defs>
</svg>
