<svg width="1920" height="1080" viewBox="0 0 1920 1080" fill="none" xmlns="http://www.w3.org/2000/svg">
<g clip-path="url(#clip0)">
<rect width="1920" height="1080" fill="white"/>
<path d="M623.321 553H620.333V540.906H606.798V553H603.81V527.301H606.798V538.234H620.333V527.301H623.321V553ZM635.93 533.734V546.232C635.93 547.803 636.288 548.975 637.003 549.748C637.718 550.521 638.837 550.908 640.36 550.908C642.376 550.908 643.846 550.357 644.772 549.256C645.71 548.154 646.178 546.355 646.178 543.859V533.734H649.096V553H646.688L646.266 550.416H646.108C645.51 551.365 644.678 552.092 643.612 552.596C642.557 553.1 641.35 553.352 639.991 553.352C637.647 553.352 635.889 552.795 634.718 551.682C633.557 550.568 632.977 548.787 632.977 546.338V533.734H635.93ZM683.098 553V540.467C683.098 538.932 682.77 537.783 682.114 537.021C681.458 536.248 680.438 535.861 679.055 535.861C677.239 535.861 675.897 536.383 675.03 537.426C674.163 538.469 673.729 540.074 673.729 542.242V553H670.811V540.467C670.811 538.932 670.483 537.783 669.827 537.021C669.17 536.248 668.145 535.861 666.75 535.861C664.922 535.861 663.581 536.412 662.725 537.514C661.881 538.604 661.459 540.396 661.459 542.893V553H658.541V533.734H660.915L661.389 536.371H661.53C662.081 535.434 662.854 534.701 663.85 534.174C664.858 533.646 665.983 533.383 667.225 533.383C670.237 533.383 672.206 534.473 673.131 536.652H673.272C673.846 535.645 674.678 534.848 675.768 534.262C676.858 533.676 678.1 533.383 679.495 533.383C681.674 533.383 683.303 533.945 684.381 535.07C685.471 536.184 686.016 537.971 686.016 540.432V553H683.098ZM707.133 553L706.553 550.258H706.412C705.451 551.465 704.49 552.285 703.53 552.719C702.58 553.141 701.391 553.352 699.961 553.352C698.051 553.352 696.551 552.859 695.461 551.875C694.383 550.891 693.844 549.49 693.844 547.674C693.844 543.783 696.955 541.744 703.178 541.557L706.448 541.451V540.256C706.448 538.744 706.119 537.631 705.463 536.916C704.819 536.189 703.781 535.826 702.352 535.826C700.746 535.826 698.93 536.318 696.903 537.303L696.006 535.07C696.955 534.555 697.992 534.15 699.117 533.857C700.254 533.564 701.391 533.418 702.528 533.418C704.824 533.418 706.524 533.928 707.625 534.947C708.739 535.967 709.295 537.602 709.295 539.852V553H707.133ZM700.541 550.943C702.358 550.943 703.781 550.445 704.813 549.449C705.856 548.453 706.377 547.059 706.377 545.266V543.525L703.459 543.648C701.139 543.73 699.463 544.094 698.432 544.738C697.412 545.371 696.903 546.361 696.903 547.709C696.903 548.764 697.219 549.566 697.852 550.117C698.496 550.668 699.393 550.943 700.541 550.943ZM731.748 553V540.537C731.748 538.967 731.391 537.795 730.676 537.021C729.961 536.248 728.842 535.861 727.318 535.861C725.303 535.861 723.826 536.406 722.889 537.496C721.951 538.586 721.482 540.385 721.482 542.893V553H718.564V533.734H720.938L721.412 536.371H721.553C722.15 535.422 722.988 534.689 724.066 534.174C725.145 533.646 726.346 533.383 727.67 533.383C729.99 533.383 731.736 533.945 732.908 535.07C734.08 536.184 734.666 537.971 734.666 540.432V553H731.748ZM756.949 527.301H764.209C767.619 527.301 770.085 527.811 771.609 528.83C773.132 529.85 773.894 531.461 773.894 533.664C773.894 535.188 773.466 536.447 772.611 537.443C771.767 538.428 770.531 539.066 768.902 539.359V539.535C772.804 540.203 774.755 542.254 774.755 545.688C774.755 547.984 773.976 549.777 772.418 551.066C770.871 552.355 768.703 553 765.914 553H756.949V527.301ZM759.937 538.305H764.859C766.968 538.305 768.486 537.977 769.412 537.32C770.337 536.652 770.8 535.533 770.8 533.963C770.8 532.521 770.285 531.484 769.253 530.852C768.222 530.207 766.582 529.885 764.332 529.885H759.937V538.305ZM759.937 540.836V550.451H765.298C767.373 550.451 768.931 550.053 769.974 549.256C771.029 548.447 771.556 547.188 771.556 545.477C771.556 543.883 771.017 542.711 769.939 541.961C768.873 541.211 767.244 540.836 765.052 540.836H759.937ZM791.232 553.352C788.384 553.352 786.134 552.484 784.482 550.75C782.841 549.016 782.021 546.607 782.021 543.525C782.021 540.42 782.783 537.953 784.306 536.125C785.841 534.297 787.898 533.383 790.476 533.383C792.89 533.383 794.8 534.18 796.206 535.773C797.613 537.355 798.316 539.447 798.316 542.049V543.895H785.044C785.103 546.156 785.671 547.873 786.749 549.045C787.839 550.217 789.368 550.803 791.337 550.803C793.411 550.803 795.462 550.369 797.49 549.502V552.104C796.458 552.549 795.48 552.865 794.554 553.053C793.64 553.252 792.533 553.352 791.232 553.352ZM790.441 535.826C788.894 535.826 787.658 536.33 786.732 537.338C785.818 538.346 785.279 539.74 785.115 541.521H795.187C795.187 539.682 794.777 538.275 793.956 537.303C793.136 536.318 791.964 535.826 790.441 535.826ZM819.731 553V540.537C819.731 538.967 819.374 537.795 818.659 537.021C817.944 536.248 816.825 535.861 815.302 535.861C813.274 535.861 811.792 536.412 810.855 537.514C809.929 538.615 809.466 540.42 809.466 542.928V553H806.548V525.648H809.466V533.928C809.466 534.924 809.419 535.75 809.325 536.406H809.501C810.075 535.48 810.89 534.754 811.944 534.227C813.011 533.688 814.224 533.418 815.583 533.418C817.939 533.418 819.702 533.98 820.874 535.105C822.058 536.219 822.649 537.994 822.649 540.432V553H819.731ZM843.749 553L843.169 550.258H843.028C842.067 551.465 841.106 552.285 840.145 552.719C839.196 553.141 838.007 553.352 836.577 553.352C834.667 553.352 833.167 552.859 832.077 551.875C830.999 550.891 830.46 549.49 830.46 547.674C830.46 543.783 833.571 541.744 839.794 541.557L843.063 541.451V540.256C843.063 538.744 842.735 537.631 842.079 536.916C841.434 536.189 840.397 535.826 838.968 535.826C837.362 535.826 835.546 536.318 833.518 537.303L832.622 535.07C833.571 534.555 834.608 534.15 835.733 533.857C836.87 533.564 838.007 533.418 839.143 533.418C841.44 533.418 843.139 533.928 844.241 534.947C845.354 535.967 845.911 537.602 845.911 539.852V553H843.749ZM837.157 550.943C838.973 550.943 840.397 550.445 841.429 549.449C842.471 548.453 842.993 547.059 842.993 545.266V543.525L840.075 543.648C837.755 543.73 836.079 544.094 835.048 544.738C834.028 545.371 833.518 546.361 833.518 547.709C833.518 548.764 833.835 549.566 834.468 550.117C835.112 550.668 836.009 550.943 837.157 550.943ZM858.098 553H855.18V533.734H858.098V553ZM854.934 528.514C854.934 527.846 855.098 527.359 855.426 527.055C855.754 526.738 856.165 526.58 856.657 526.58C857.126 526.58 857.53 526.738 857.87 527.055C858.21 527.371 858.379 527.857 858.379 528.514C858.379 529.17 858.21 529.662 857.87 529.99C857.53 530.307 857.126 530.465 856.657 530.465C856.165 530.465 855.754 530.307 855.426 529.99C855.098 529.662 854.934 529.17 854.934 528.514ZM871.744 553L864.432 533.734H867.561L871.709 545.16C872.647 547.832 873.198 549.566 873.362 550.363H873.502C873.631 549.742 874.035 548.459 874.715 546.514C875.407 544.557 876.948 540.297 879.338 533.734H882.467L875.155 553H871.744ZM905.43 543.35C905.43 546.49 904.639 548.945 903.057 550.715C901.475 552.473 899.289 553.352 896.5 553.352C894.777 553.352 893.248 552.947 891.912 552.139C890.576 551.33 889.545 550.17 888.818 548.658C888.092 547.146 887.729 545.377 887.729 543.35C887.729 540.209 888.514 537.766 890.084 536.02C891.654 534.262 893.834 533.383 896.623 533.383C899.318 533.383 901.457 534.279 903.039 536.072C904.633 537.865 905.43 540.291 905.43 543.35ZM890.752 543.35C890.752 545.811 891.244 547.686 892.229 548.975C893.213 550.264 894.66 550.908 896.57 550.908C898.481 550.908 899.928 550.27 900.912 548.992C901.908 547.703 902.406 545.822 902.406 543.35C902.406 540.9 901.908 539.043 900.912 537.777C899.928 536.5 898.469 535.861 896.535 535.861C894.625 535.861 893.184 536.488 892.211 537.742C891.238 538.996 890.752 540.865 890.752 543.35ZM916.545 533.734V546.232C916.545 547.803 916.902 548.975 917.617 549.748C918.332 550.521 919.451 550.908 920.974 550.908C922.99 550.908 924.461 550.357 925.387 549.256C926.324 548.154 926.793 546.355 926.793 543.859V533.734H929.711V553H927.303L926.881 550.416H926.723C926.125 551.365 925.293 552.092 924.226 552.596C923.172 553.1 921.965 553.352 920.605 553.352C918.262 553.352 916.504 552.795 915.332 551.682C914.172 550.568 913.592 548.787 913.592 546.338V533.734H916.545ZM947.945 533.383C948.8 533.383 949.568 533.453 950.248 533.594L949.843 536.301C949.046 536.125 948.343 536.037 947.734 536.037C946.175 536.037 944.839 536.67 943.726 537.936C942.625 539.201 942.074 540.777 942.074 542.664V553H939.156V533.734H941.564L941.898 537.303H942.039C942.754 536.049 943.615 535.082 944.623 534.402C945.63 533.723 946.738 533.383 947.945 533.383ZM970.122 553V527.301H973.11V553H970.122ZM995.405 547.744C995.405 549.537 994.737 550.92 993.401 551.893C992.065 552.865 990.19 553.352 987.776 553.352C985.222 553.352 983.229 552.947 981.8 552.139V549.432C982.725 549.9 983.716 550.27 984.77 550.539C985.837 550.809 986.862 550.943 987.847 550.943C989.37 550.943 990.542 550.703 991.362 550.223C992.182 549.73 992.593 548.986 992.593 547.99C992.593 547.24 992.265 546.602 991.608 546.074C990.964 545.535 989.698 544.902 987.811 544.176C986.018 543.508 984.741 542.928 983.979 542.436C983.229 541.932 982.667 541.363 982.292 540.73C981.929 540.098 981.747 539.342 981.747 538.463C981.747 536.893 982.386 535.656 983.663 534.754C984.94 533.84 986.692 533.383 988.919 533.383C990.993 533.383 993.02 533.805 995.001 534.648L993.964 537.021C992.03 536.225 990.278 535.826 988.708 535.826C987.325 535.826 986.282 536.043 985.579 536.477C984.876 536.91 984.524 537.508 984.524 538.27C984.524 538.785 984.653 539.225 984.911 539.588C985.181 539.951 985.608 540.297 986.194 540.625C986.78 540.953 987.905 541.428 989.569 542.049C991.854 542.881 993.395 543.719 994.192 544.562C995.001 545.406 995.405 546.467 995.405 547.744ZM1035.95 553H1032.96V540.906H1019.43V553H1016.44V527.301H1019.43V538.234H1032.96V527.301H1035.95V553ZM1057.67 553L1057.09 550.258H1056.95C1055.98 551.465 1055.02 552.285 1054.06 552.719C1053.11 553.141 1051.92 553.352 1050.49 553.352C1048.58 553.352 1047.08 552.859 1045.99 551.875C1044.92 550.891 1044.38 549.49 1044.38 547.674C1044.38 543.783 1047.49 541.744 1053.71 541.557L1056.98 541.451V540.256C1056.98 538.744 1056.65 537.631 1056 536.916C1055.35 536.189 1054.31 535.826 1052.88 535.826C1051.28 535.826 1049.46 536.318 1047.44 537.303L1046.54 535.07C1047.49 534.555 1048.53 534.15 1049.65 533.857C1050.79 533.564 1051.92 533.418 1053.06 533.418C1055.36 533.418 1057.06 533.928 1058.16 534.947C1059.27 535.967 1059.83 537.602 1059.83 539.852V553H1057.67ZM1051.07 550.943C1052.89 550.943 1054.31 550.445 1055.35 549.449C1056.39 548.453 1056.91 547.059 1056.91 545.266V543.525L1053.99 543.648C1051.67 543.73 1050 544.094 1048.96 544.738C1047.95 545.371 1047.44 546.361 1047.44 547.709C1047.44 548.764 1047.75 549.566 1048.38 550.117C1049.03 550.668 1049.93 550.943 1051.07 550.943ZM1077.89 533.383C1078.74 533.383 1079.51 533.453 1080.19 533.594L1079.79 536.301C1078.99 536.125 1078.29 536.037 1077.68 536.037C1076.12 536.037 1074.78 536.67 1073.67 537.936C1072.57 539.201 1072.02 540.777 1072.02 542.664V553H1069.1V533.734H1071.51L1071.84 537.303H1071.98C1072.7 536.049 1073.56 535.082 1074.56 534.402C1075.57 533.723 1076.68 533.383 1077.89 533.383ZM1100.15 550.416H1099.99C1098.64 552.373 1096.62 553.352 1093.94 553.352C1091.42 553.352 1089.46 552.49 1088.05 550.768C1086.66 549.045 1085.96 546.596 1085.96 543.42C1085.96 540.244 1086.66 537.777 1088.07 536.02C1089.48 534.262 1091.43 533.383 1093.94 533.383C1096.55 533.383 1098.56 534.332 1099.95 536.23H1100.18L1100.06 534.842L1099.99 533.488V525.648H1102.91V553H1100.53L1100.15 550.416ZM1094.31 550.908C1096.3 550.908 1097.74 550.369 1098.63 549.291C1099.54 548.201 1099.99 546.449 1099.99 544.035V543.42C1099.99 540.689 1099.53 538.744 1098.62 537.584C1097.71 536.412 1096.27 535.826 1094.28 535.826C1092.56 535.826 1091.25 536.494 1090.34 537.83C1089.44 539.154 1088.98 541.029 1088.98 543.455C1088.98 545.916 1089.44 547.773 1090.34 549.027C1091.24 550.281 1092.56 550.908 1094.31 550.908ZM1133.29 553H1130.3V529.955H1122.17V527.301H1141.43V529.955H1133.29V553ZM1164.75 543.35C1164.75 546.49 1163.95 548.945 1162.37 550.715C1160.79 552.473 1158.6 553.352 1155.82 553.352C1154.09 553.352 1152.56 552.947 1151.23 552.139C1149.89 551.33 1148.86 550.17 1148.13 548.658C1147.41 547.146 1147.04 545.377 1147.04 543.35C1147.04 540.209 1147.83 537.766 1149.4 536.02C1150.97 534.262 1153.15 533.383 1155.94 533.383C1158.63 533.383 1160.77 534.279 1162.35 536.072C1163.95 537.865 1164.75 540.291 1164.75 543.35ZM1150.07 543.35C1150.07 545.811 1150.56 547.686 1151.54 548.975C1152.53 550.264 1153.98 550.908 1155.89 550.908C1157.8 550.908 1159.24 550.27 1160.23 548.992C1161.22 547.703 1161.72 545.822 1161.72 543.35C1161.72 540.9 1161.22 539.043 1160.23 537.777C1159.24 536.5 1157.78 535.861 1155.85 535.861C1153.94 535.861 1152.5 536.488 1151.53 537.742C1150.55 538.996 1150.07 540.865 1150.07 543.35ZM1202.44 534.789C1202.44 537.391 1201.55 539.395 1199.77 540.801C1198 542.195 1195.47 542.893 1192.16 542.893H1189.14V553H1186.15V527.301H1192.81C1199.23 527.301 1202.44 529.797 1202.44 534.789ZM1189.14 540.326H1191.83C1194.48 540.326 1196.39 539.898 1197.57 539.043C1198.76 538.188 1199.35 536.816 1199.35 534.93C1199.35 533.23 1198.79 531.965 1197.68 531.133C1196.57 530.301 1194.83 529.885 1192.48 529.885H1189.14V540.326ZM1219.43 533.383C1220.29 533.383 1221.05 533.453 1221.73 533.594L1221.33 536.301C1220.53 536.125 1219.83 536.037 1219.22 536.037C1217.66 536.037 1216.32 536.67 1215.21 537.936C1214.11 539.201 1213.56 540.777 1213.56 542.664V553H1210.64V533.734H1213.05L1213.38 537.303H1213.52C1214.24 536.049 1215.1 535.082 1216.11 534.402C1217.12 533.723 1218.22 533.383 1219.43 533.383ZM1236.71 553.352C1233.87 553.352 1231.62 552.484 1229.96 550.75C1228.32 549.016 1227.5 546.607 1227.5 543.525C1227.5 540.42 1228.27 537.953 1229.79 536.125C1231.32 534.297 1233.38 533.383 1235.96 533.383C1238.37 533.383 1240.28 534.18 1241.69 535.773C1243.1 537.355 1243.8 539.447 1243.8 542.049V543.895H1230.53C1230.59 546.156 1231.15 547.873 1232.23 549.045C1233.32 550.217 1234.85 550.803 1236.82 550.803C1238.89 550.803 1240.95 550.369 1242.97 549.502V552.104C1241.94 552.549 1240.96 552.865 1240.04 553.053C1239.12 553.252 1238.02 553.352 1236.71 553.352ZM1235.92 535.826C1234.38 535.826 1233.14 536.33 1232.21 537.338C1231.3 538.346 1230.76 539.74 1230.6 541.521H1240.67C1240.67 539.682 1240.26 538.275 1239.44 537.303C1238.62 536.318 1237.45 535.826 1235.92 535.826ZM1265.14 550.416H1264.99C1263.64 552.373 1261.62 553.352 1258.94 553.352C1256.42 553.352 1254.46 552.49 1253.05 550.768C1251.66 549.045 1250.96 546.596 1250.96 543.42C1250.96 540.244 1251.66 537.777 1253.07 536.02C1254.47 534.262 1256.43 533.383 1258.94 533.383C1261.55 533.383 1263.56 534.332 1264.95 536.23H1265.18L1265.06 534.842L1264.99 533.488V525.648H1267.9V553H1265.53L1265.14 550.416ZM1259.31 550.908C1261.3 550.908 1262.74 550.369 1263.63 549.291C1264.53 548.201 1264.99 546.449 1264.99 544.035V543.42C1264.99 540.689 1264.53 538.744 1263.61 537.584C1262.71 536.412 1261.27 535.826 1259.27 535.826C1257.56 535.826 1256.25 536.494 1255.34 537.83C1254.43 539.154 1253.98 541.029 1253.98 543.455C1253.98 545.916 1254.43 547.773 1255.34 549.027C1256.24 550.281 1257.56 550.908 1259.31 550.908ZM1280.27 553H1277.35V533.734H1280.27V553ZM1277.1 528.514C1277.1 527.846 1277.27 527.359 1277.6 527.055C1277.92 526.738 1278.33 526.58 1278.83 526.58C1279.29 526.58 1279.7 526.738 1280.04 527.055C1280.38 527.371 1280.55 527.857 1280.55 528.514C1280.55 529.17 1280.38 529.662 1280.04 529.99C1279.7 530.307 1279.29 530.465 1278.83 530.465C1278.33 530.465 1277.92 530.307 1277.6 529.99C1277.27 529.662 1277.1 529.17 1277.1 528.514ZM1297.39 553.352C1294.6 553.352 1292.44 552.496 1290.91 550.785C1289.38 549.062 1288.62 546.631 1288.62 543.49C1288.62 540.268 1289.4 537.777 1290.94 536.02C1292.5 534.262 1294.72 533.383 1297.59 533.383C1298.51 533.383 1299.44 533.482 1300.36 533.682C1301.29 533.881 1302.02 534.115 1302.54 534.385L1301.65 536.863C1301 536.605 1300.3 536.395 1299.54 536.23C1298.78 536.055 1298.1 535.967 1297.52 535.967C1293.6 535.967 1291.65 538.463 1291.65 543.455C1291.65 545.822 1292.12 547.639 1293.07 548.904C1294.03 550.17 1295.45 550.803 1297.32 550.803C1298.93 550.803 1300.58 550.457 1302.26 549.766V552.35C1300.97 553.018 1299.35 553.352 1297.39 553.352ZM1316.31 550.943C1316.83 550.943 1317.33 550.908 1317.81 550.838C1318.29 550.756 1318.67 550.674 1318.95 550.592V552.824C1318.63 552.977 1318.17 553.1 1317.54 553.193C1316.93 553.299 1316.38 553.352 1315.89 553.352C1312.17 553.352 1310.3 551.389 1310.3 547.463V536.002H1307.54V534.596L1310.3 533.383L1311.53 529.27H1313.22V533.734H1318.81V536.002H1313.22V547.34C1313.22 548.5 1313.5 549.391 1314.05 550.012C1314.6 550.633 1315.35 550.943 1316.31 550.943Z" fill="black"/>
<path d="M413.107 1106L410.787 1095.03H410.224C406.381 1099.86 402.537 1103.14 398.693 1104.88C394.896 1106.56 390.138 1107.41 384.42 1107.41C376.779 1107.41 370.779 1105.44 366.42 1101.5C362.107 1097.56 359.951 1091.96 359.951 1084.7C359.951 1069.13 372.396 1060.98 397.287 1060.23L410.365 1059.8V1055.02C410.365 1048.98 409.052 1044.52 406.427 1041.66C403.849 1038.76 399.701 1037.3 393.982 1037.3C387.56 1037.3 380.295 1039.27 372.185 1043.21L368.599 1034.28C372.396 1032.22 376.545 1030.6 381.045 1029.43C385.592 1028.26 390.138 1027.67 394.685 1027.67C403.873 1027.67 410.67 1029.71 415.076 1033.79C419.529 1037.87 421.756 1044.41 421.756 1053.41V1106H413.107ZM386.74 1097.77C394.006 1097.77 399.701 1095.78 403.826 1091.8C407.998 1087.81 410.084 1082.23 410.084 1075.06V1068.1L398.412 1068.59C389.131 1068.92 382.427 1070.38 378.302 1072.95C374.224 1075.48 372.185 1079.45 372.185 1084.84C372.185 1089.05 373.451 1092.27 375.982 1094.47C378.56 1096.67 382.146 1097.77 386.74 1097.77ZM553.293 1106V1056.15C553.293 1049.87 551.864 1045.18 549.004 1042.09C546.145 1038.99 541.668 1037.45 535.575 1037.45C527.465 1037.45 521.536 1039.65 517.786 1044.05C514.082 1048.46 512.231 1055.68 512.231 1065.71V1106H500.559V996.594H512.231V1029.71C512.231 1033.7 512.043 1037 511.668 1039.62H512.372C514.668 1035.92 517.926 1033.02 522.145 1030.91C526.411 1028.75 531.262 1027.67 536.7 1027.67C546.122 1027.67 553.176 1029.92 557.864 1034.42C562.598 1038.88 564.965 1045.98 564.965 1055.73V1106H553.293ZM608.621 1028.94V1078.93C608.621 1085.21 610.051 1089.9 612.91 1092.99C615.769 1096.09 620.246 1097.63 626.34 1097.63C634.402 1097.63 640.285 1095.43 643.988 1091.02C647.738 1086.62 649.613 1079.42 649.613 1069.44V1028.94H661.285V1106H651.652L649.965 1095.66H649.332C646.941 1099.46 643.613 1102.37 639.347 1104.38C635.129 1106.4 630.301 1107.41 624.863 1107.41C615.488 1107.41 608.457 1105.18 603.769 1100.73C599.129 1096.27 596.808 1089.15 596.808 1079.35V1028.94H608.621ZM792.972 1106V1055.87C792.972 1049.73 791.659 1045.13 789.034 1042.09C786.409 1038.99 782.331 1037.45 776.8 1037.45C769.534 1037.45 764.167 1039.53 760.698 1043.7C757.23 1047.88 755.495 1054.3 755.495 1062.97V1106H743.823V1055.87C743.823 1049.73 742.511 1045.13 739.886 1042.09C737.261 1038.99 733.159 1037.45 727.581 1037.45C720.269 1037.45 714.902 1039.65 711.48 1044.05C708.105 1048.41 706.417 1055.59 706.417 1065.57V1106H694.745V1028.94H704.237L706.136 1039.48H706.698C708.902 1035.73 711.995 1032.8 715.98 1030.7C720.011 1028.59 724.511 1027.53 729.48 1027.53C741.527 1027.53 749.402 1031.89 753.105 1040.61H753.667C755.964 1036.58 759.292 1033.39 763.652 1031.05C768.011 1028.7 772.98 1027.53 778.558 1027.53C787.277 1027.53 793.792 1029.78 798.105 1034.28C802.464 1038.73 804.644 1045.88 804.644 1055.73V1106H792.972ZM884.792 1106L882.471 1095.03H881.909C878.065 1099.86 874.221 1103.14 870.378 1104.88C866.581 1106.56 861.823 1107.41 856.104 1107.41C848.463 1107.41 842.463 1105.44 838.104 1101.5C833.792 1097.56 831.635 1091.96 831.635 1084.7C831.635 1069.13 844.081 1060.98 868.971 1060.23L882.049 1059.8V1055.02C882.049 1048.98 880.737 1044.52 878.112 1041.66C875.534 1038.76 871.385 1037.3 865.667 1037.3C859.245 1037.3 851.979 1039.27 843.87 1043.21L840.284 1034.28C844.081 1032.22 848.229 1030.6 852.729 1029.43C857.276 1028.26 861.823 1027.67 866.37 1027.67C875.557 1027.67 882.354 1029.71 886.76 1033.79C891.213 1037.87 893.44 1044.41 893.44 1053.41V1106H884.792ZM858.424 1097.77C865.69 1097.77 871.385 1095.78 875.51 1091.8C879.682 1087.81 881.768 1082.23 881.768 1075.06V1068.1L870.096 1068.59C860.815 1068.92 854.112 1070.38 849.987 1072.95C845.909 1075.48 843.87 1079.45 843.87 1084.84C843.87 1089.05 845.135 1092.27 847.667 1094.47C850.245 1096.67 853.831 1097.77 858.424 1097.77ZM978.932 1106V1056.15C978.932 1049.87 977.502 1045.18 974.642 1042.09C971.783 1038.99 967.307 1037.45 961.213 1037.45C953.15 1037.45 947.244 1039.62 943.494 1043.98C939.744 1048.34 937.869 1055.54 937.869 1065.57V1106H926.197V1028.94H935.689L937.588 1039.48H938.15C940.541 1035.69 943.892 1032.76 948.205 1030.7C952.517 1028.59 957.322 1027.53 962.619 1027.53C971.9 1027.53 978.885 1029.78 983.572 1034.28C988.26 1038.73 990.603 1045.88 990.603 1055.73V1106H978.932ZM1105.2 1107.41C1100.18 1107.41 1095.59 1106.49 1091.41 1104.66C1087.29 1102.79 1083.82 1099.93 1081.01 1096.09H1080.16C1080.73 1100.59 1081.01 1104.85 1081.01 1108.88V1140.59H1069.34V1028.94H1078.83L1080.45 1039.48H1081.01C1084.01 1035.27 1087.5 1032.22 1091.48 1030.34C1095.47 1028.47 1100.04 1027.53 1105.2 1027.53C1115.41 1027.53 1123.29 1031.02 1128.82 1038.01C1134.4 1044.99 1137.19 1054.79 1137.19 1067.4C1137.19 1080.05 1134.35 1089.9 1128.68 1096.93C1123.06 1103.91 1115.23 1107.41 1105.2 1107.41ZM1103.51 1037.45C1095.63 1037.45 1089.94 1039.62 1086.42 1043.98C1082.91 1048.34 1081.1 1055.28 1081.01 1064.8V1067.4C1081.01 1078.23 1082.81 1085.98 1086.42 1090.67C1090.03 1095.31 1095.82 1097.63 1103.79 1097.63C1110.45 1097.63 1115.65 1094.94 1119.4 1089.55C1123.2 1084.16 1125.09 1076.73 1125.09 1067.26C1125.09 1057.65 1123.2 1050.29 1119.4 1045.18C1115.65 1040.02 1110.35 1037.45 1103.51 1037.45ZM1198.84 1107.41C1187.45 1107.41 1178.45 1103.94 1171.84 1097C1165.28 1090.06 1162 1080.43 1162 1068.1C1162 1055.68 1165.05 1045.81 1171.14 1038.5C1177.28 1031.19 1185.51 1027.53 1195.82 1027.53C1205.48 1027.53 1213.12 1030.72 1218.74 1037.09C1224.37 1043.42 1227.18 1051.79 1227.18 1062.2V1069.58H1174.09C1174.33 1078.62 1176.6 1085.49 1180.91 1090.18C1185.27 1094.87 1191.39 1097.21 1199.27 1097.21C1207.56 1097.21 1215.77 1095.48 1223.88 1092.01V1102.41C1219.75 1104.2 1215.84 1105.46 1212.13 1106.21C1208.48 1107.01 1204.05 1107.41 1198.84 1107.41ZM1195.68 1037.3C1189.49 1037.3 1184.55 1039.32 1180.84 1043.35C1177.19 1047.38 1175.03 1052.96 1174.38 1060.09H1214.66C1214.66 1052.73 1213.02 1047.1 1209.74 1043.21C1206.46 1039.27 1201.77 1037.3 1195.68 1037.3ZM1290.94 1027.53C1294.37 1027.53 1297.44 1027.81 1300.16 1028.38L1298.54 1039.2C1295.35 1038.5 1292.54 1038.15 1290.1 1038.15C1283.87 1038.15 1278.52 1040.68 1274.07 1045.74C1269.66 1050.8 1267.46 1057.11 1267.46 1064.66V1106H1255.79V1028.94H1265.42L1266.76 1043.21H1267.32C1270.18 1038.2 1273.62 1034.33 1277.66 1031.61C1281.69 1028.89 1286.12 1027.53 1290.94 1027.53ZM1354.01 1107.41C1342.85 1107.41 1334.2 1103.98 1328.06 1097.14C1321.97 1090.25 1318.92 1080.52 1318.92 1067.96C1318.92 1055.07 1322.01 1045.11 1328.2 1038.08C1334.44 1031.05 1343.3 1027.53 1354.78 1027.53C1358.48 1027.53 1362.19 1027.93 1365.89 1028.73C1369.59 1029.52 1372.5 1030.46 1374.61 1031.54L1371.02 1041.45C1368.44 1040.42 1365.63 1039.58 1362.58 1038.92C1359.54 1038.22 1356.84 1037.87 1354.5 1037.87C1338.84 1037.87 1331.01 1047.85 1331.01 1067.82C1331.01 1077.29 1332.91 1084.55 1336.71 1089.62C1340.55 1094.68 1346.23 1097.21 1353.73 1097.21C1360.15 1097.21 1366.73 1095.83 1373.48 1093.06V1103.4C1368.33 1106.07 1361.83 1107.41 1354.01 1107.41ZM1436.33 1107.41C1431.32 1107.41 1426.72 1106.49 1422.55 1104.66C1418.43 1102.79 1414.96 1099.93 1412.15 1096.09H1411.3C1411.87 1100.59 1412.15 1104.85 1412.15 1108.88V1140.59H1400.47V1028.94H1409.97L1411.58 1039.48H1412.15C1415.15 1035.27 1418.64 1032.22 1422.62 1030.34C1426.61 1028.47 1431.18 1027.53 1436.33 1027.53C1446.55 1027.53 1454.43 1031.02 1459.96 1038.01C1465.54 1044.99 1468.33 1054.79 1468.33 1067.4C1468.33 1080.05 1465.49 1089.9 1459.82 1096.93C1454.19 1103.91 1446.37 1107.41 1436.33 1107.41ZM1434.65 1037.45C1426.77 1037.45 1421.08 1039.62 1417.56 1043.98C1414.04 1048.34 1412.24 1055.28 1412.15 1064.8V1067.4C1412.15 1078.23 1413.95 1085.98 1417.56 1090.67C1421.17 1095.31 1426.96 1097.63 1434.93 1097.63C1441.58 1097.63 1446.79 1094.94 1450.54 1089.55C1454.33 1084.16 1456.23 1076.73 1456.23 1067.26C1456.23 1057.65 1454.33 1050.29 1450.54 1045.18C1446.79 1040.02 1441.49 1037.45 1434.65 1037.45ZM1529.98 1107.41C1518.59 1107.41 1509.59 1103.94 1502.98 1097C1496.42 1090.06 1493.14 1080.43 1493.14 1068.1C1493.14 1055.68 1496.18 1045.81 1502.28 1038.5C1508.42 1031.19 1516.65 1027.53 1526.96 1027.53C1536.61 1027.53 1544.26 1030.72 1549.88 1037.09C1555.51 1043.42 1558.32 1051.79 1558.32 1062.2V1069.58H1505.23C1505.47 1078.62 1507.74 1085.49 1512.05 1090.18C1516.41 1094.87 1522.53 1097.21 1530.4 1097.21C1538.7 1097.21 1546.9 1095.48 1555.01 1092.01V1102.41C1550.89 1104.2 1546.97 1105.46 1543.27 1106.21C1539.61 1107.01 1535.18 1107.41 1529.98 1107.41ZM1526.82 1037.3C1520.63 1037.3 1515.68 1039.32 1511.98 1043.35C1508.33 1047.38 1506.17 1052.96 1505.51 1060.09H1545.8C1545.8 1052.73 1544.16 1047.1 1540.88 1043.21C1537.6 1039.27 1532.91 1037.3 1526.82 1037.3ZM1617.72 1107.41C1606.57 1107.41 1597.92 1103.98 1591.78 1097.14C1585.68 1090.25 1582.64 1080.52 1582.64 1067.96C1582.64 1055.07 1585.73 1045.11 1591.92 1038.08C1598.15 1031.05 1607.01 1027.53 1618.5 1027.53C1622.2 1027.53 1625.9 1027.93 1629.61 1028.73C1633.31 1029.52 1636.22 1030.46 1638.32 1031.54L1634.74 1041.45C1632.16 1040.42 1629.35 1039.58 1626.3 1038.92C1623.25 1038.22 1620.56 1037.87 1618.22 1037.87C1602.56 1037.87 1594.73 1047.85 1594.73 1067.82C1594.73 1077.29 1596.63 1084.55 1600.43 1089.62C1604.27 1094.68 1609.94 1097.21 1617.44 1097.21C1623.86 1097.21 1630.45 1095.83 1637.2 1093.06V1103.4C1632.04 1106.07 1625.55 1107.41 1617.72 1107.41ZM1689.08 1097.77C1691.14 1097.77 1693.14 1097.63 1695.06 1097.35C1696.98 1097.02 1698.5 1096.7 1699.63 1096.37V1105.3C1698.36 1105.91 1696.49 1106.4 1694 1106.77C1691.57 1107.2 1689.36 1107.41 1687.39 1107.41C1672.49 1107.41 1665.04 1099.55 1665.04 1083.85V1038.01H1654V1032.38L1665.04 1027.53L1669.96 1011.08H1676.71V1028.94H1699.07V1038.01H1676.71V1083.36C1676.71 1088 1677.81 1091.56 1680.01 1094.05C1682.21 1096.53 1685.24 1097.77 1689.08 1097.77ZM1735.41 1106H1723.74V1028.94H1735.41V1106ZM1722.75 1008.05C1722.75 1005.38 1723.41 1003.44 1724.72 1002.22C1726.03 1000.95 1727.68 1000.32 1729.64 1000.32C1731.52 1000.32 1733.14 1000.95 1734.5 1002.22C1735.85 1003.48 1736.53 1005.43 1736.53 1008.05C1736.53 1010.68 1735.85 1012.65 1734.5 1013.96C1733.14 1015.23 1731.52 1015.86 1729.64 1015.86C1727.68 1015.86 1726.03 1015.23 1724.72 1013.96C1723.41 1012.65 1722.75 1010.68 1722.75 1008.05ZM1785.67 1106L1756.42 1028.94H1768.94L1785.53 1074.64C1789.28 1085.33 1791.49 1092.27 1792.14 1095.45H1792.71C1793.22 1092.97 1794.84 1087.84 1797.56 1080.05C1800.32 1072.23 1806.49 1055.19 1816.05 1028.94H1828.57L1799.32 1106H1785.67ZM1882.14 1107.41C1870.74 1107.41 1861.74 1103.94 1855.14 1097C1848.57 1090.06 1845.29 1080.43 1845.29 1068.1C1845.29 1055.68 1848.34 1045.81 1854.43 1038.5C1860.57 1031.19 1868.8 1027.53 1879.11 1027.53C1888.77 1027.53 1896.41 1030.72 1902.03 1037.09C1907.66 1043.42 1910.47 1051.79 1910.47 1062.2V1069.58H1857.39C1857.62 1078.62 1859.89 1085.49 1864.21 1090.18C1868.56 1094.87 1874.68 1097.21 1882.56 1097.21C1890.85 1097.21 1899.06 1095.48 1907.17 1092.01V1102.41C1903.04 1104.2 1899.13 1105.46 1895.42 1106.21C1891.77 1107.01 1887.34 1107.41 1882.14 1107.41ZM1878.97 1037.3C1872.78 1037.3 1867.84 1039.32 1864.14 1043.35C1860.48 1047.38 1858.32 1052.96 1857.67 1060.09H1897.96C1897.96 1052.73 1896.31 1047.1 1893.03 1043.21C1889.75 1039.27 1885.06 1037.3 1878.97 1037.3Z" fill="#020612"/>
<path d="M41.6703 56.4062C36.6547 56.4062 32.0609 55.4922 27.889 53.6641C23.764 51.7891 20.2953 48.9297 17.4828 45.0859H16.639C17.2015 49.5859 17.4828 53.8516 17.4828 57.8828V89.5938H5.81091V-22.0625H15.3031L16.9203 -11.5156H17.4828C20.4828 -15.7344 23.975 -18.7812 27.9594 -20.6562C31.9437 -22.5312 36.514 -23.4688 41.6703 -23.4688C51.889 -23.4688 59.764 -19.9766 65.2953 -12.9922C70.8734 -6.00781 73.6625 3.78906 73.6625 16.3984C73.6625 29.0547 70.8265 38.8984 65.1547 45.9297C59.5297 52.9141 51.7015 56.4062 41.6703 56.4062ZM39.9828 -13.5547C32.1078 -13.5547 26.4125 -11.375 22.8969 -7.01562C19.3812 -2.65625 17.5765 4.28125 17.4828 13.7969V16.3984C17.4828 27.2266 19.2875 34.9844 22.8969 39.6719C26.5062 44.3125 32.2953 46.6328 40.264 46.6328C46.9203 46.6328 52.1234 43.9375 55.8734 38.5469C59.6703 33.1562 61.5687 25.7266 61.5687 16.2578C61.5687 6.64844 59.6703 -0.710938 55.8734 -5.82031C52.1234 -10.9766 46.8265 -13.5547 39.9828 -13.5547ZM137.92 -23.4688C141.342 -23.4688 144.412 -23.1875 147.131 -22.625L145.513 -11.7969C142.326 -12.5 139.513 -12.8516 137.076 -12.8516C130.842 -12.8516 125.498 -10.3203 121.045 -5.25781C116.638 -0.195312 114.435 6.10938 114.435 13.6562V55H102.763V-22.0625H112.396L113.732 -7.78906H114.295C117.154 -12.8047 120.599 -16.6719 124.631 -19.3906C128.662 -22.1094 133.092 -23.4688 137.92 -23.4688ZM236.7 16.3984C236.7 28.9609 233.536 38.7812 227.208 45.8594C220.88 52.8906 212.138 56.4062 200.982 56.4062C194.091 56.4062 187.974 54.7891 182.63 51.5547C177.286 48.3203 173.161 43.6797 170.255 37.6328C167.349 31.5859 165.896 24.5078 165.896 16.3984C165.896 3.83594 169.036 -5.9375 175.317 -12.9219C181.599 -19.9531 190.317 -23.4688 201.474 -23.4688C212.255 -23.4688 220.81 -19.8828 227.138 -12.7109C233.513 -5.53906 236.7 4.16406 236.7 16.3984ZM177.989 16.3984C177.989 26.2422 179.958 33.7422 183.896 38.8984C187.833 44.0547 193.622 46.6328 201.263 46.6328C208.903 46.6328 214.692 44.0781 218.63 38.9688C222.614 33.8125 224.607 26.2891 224.607 16.3984C224.607 6.60156 222.614 -0.828125 218.63 -5.89062C214.692 -11 208.857 -13.5547 201.122 -13.5547C193.482 -13.5547 187.716 -11.0469 183.825 -6.03125C179.935 -1.01562 177.989 6.46094 177.989 16.3984ZM301.731 -23.3281C311.856 -23.3281 319.707 -19.8594 325.286 -12.9219C330.911 -6.03125 333.723 3.74219 333.723 16.3984C333.723 29.0547 330.887 38.8984 325.215 45.9297C319.59 52.9141 311.762 56.4062 301.731 56.4062C296.715 56.4062 292.122 55.4922 287.95 53.6641C283.825 51.7891 280.356 48.9297 277.543 45.0859H276.7L274.239 55H265.872V-54.4062H277.543V-27.8281C277.543 -21.875 277.356 -16.5312 276.981 -11.7969H277.543C282.981 -19.4844 291.043 -23.3281 301.731 -23.3281ZM300.043 -13.5547C292.075 -13.5547 286.332 -11.2578 282.817 -6.66406C279.301 -2.11719 277.543 5.57031 277.543 16.3984C277.543 27.2266 279.348 34.9844 282.957 39.6719C286.567 44.3125 292.356 46.6328 300.325 46.6328C307.497 46.6328 312.84 44.0312 316.356 38.8281C319.872 33.5781 321.629 26.0547 321.629 16.2578C321.629 6.22656 319.872 -1.25 316.356 -6.17188C312.84 -11.0938 307.403 -13.5547 300.043 -13.5547ZM374.496 55H362.824V-54.4062H374.496V55ZM440.441 56.4062C429.05 56.4062 420.05 52.9375 413.441 46C406.878 39.0625 403.597 29.4297 403.597 17.1016C403.597 4.67969 406.644 -5.1875 412.737 -12.5C418.878 -19.8125 427.105 -23.4688 437.417 -23.4688C447.073 -23.4688 454.714 -20.2812 460.339 -13.9062C465.964 -7.57812 468.777 0.789062 468.777 11.1953V18.5781H415.691C415.925 27.625 418.198 34.4922 422.511 39.1797C426.87 43.8672 432.987 46.2109 440.862 46.2109C449.159 46.2109 457.362 44.4766 465.472 41.0078V51.4141C461.347 53.1953 457.433 54.4609 453.73 55.2109C450.073 56.0078 445.644 56.4062 440.441 56.4062ZM437.277 -13.6953C431.089 -13.6953 426.144 -11.6797 422.441 -7.64844C418.784 -3.61719 416.628 1.96094 415.972 9.08594H456.261C456.261 1.72656 454.62 -3.89844 451.339 -7.78906C448.058 -11.7266 443.37 -13.6953 437.277 -13.6953ZM595.612 55V4.86719C595.612 -1.27344 594.299 -5.86719 591.674 -8.91406C589.049 -12.0078 584.971 -13.5547 579.44 -13.5547C572.174 -13.5547 566.807 -11.4688 563.338 -7.29688C559.87 -3.125 558.135 3.29688 558.135 11.9688V55H546.463V4.86719C546.463 -1.27344 545.151 -5.86719 542.526 -8.91406C539.901 -12.0078 535.799 -13.5547 530.221 -13.5547C522.909 -13.5547 517.542 -11.3516 514.12 -6.94531C510.745 -2.58594 509.057 4.58594 509.057 14.5703V55H497.385V-22.0625H506.877L508.776 -11.5156H509.338C511.542 -15.2656 514.635 -18.1953 518.62 -20.3047C522.651 -22.4141 527.151 -23.4688 532.12 -23.4688C544.167 -23.4688 552.042 -19.1094 555.745 -10.3906H556.307C558.604 -14.4219 561.932 -17.6094 566.292 -19.9531C570.651 -22.2969 575.62 -23.4688 581.198 -23.4688C589.917 -23.4688 596.432 -21.2188 600.745 -16.7188C605.104 -12.2656 607.284 -5.11719 607.284 4.72656V55H595.612ZM735.798 33.9766C735.798 41.1484 733.126 46.6797 727.782 50.5703C722.439 54.4609 714.939 56.4062 705.282 56.4062C695.064 56.4062 687.095 54.7891 681.376 51.5547V40.7266C685.079 42.6016 689.04 44.0781 693.259 45.1562C697.525 46.2344 701.626 46.7734 705.564 46.7734C711.657 46.7734 716.345 45.8125 719.626 43.8906C722.907 41.9219 724.548 38.9453 724.548 34.9609C724.548 31.9609 723.236 29.4062 720.611 27.2969C718.032 25.1406 712.97 22.6094 705.423 19.7031C698.251 17.0312 693.142 14.7109 690.095 12.7422C687.095 10.7266 684.845 8.45312 683.345 5.92188C681.892 3.39062 681.165 0.367188 681.165 -3.14844C681.165 -9.42969 683.72 -14.375 688.829 -17.9844C693.939 -21.6406 700.947 -23.4688 709.853 -23.4688C718.15 -23.4688 726.259 -21.7812 734.181 -18.4062L730.032 -8.91406C722.298 -12.1016 715.29 -13.6953 709.009 -13.6953C703.478 -13.6953 699.306 -12.8281 696.493 -11.0938C693.681 -9.35938 692.275 -6.96875 692.275 -3.92188C692.275 -1.85938 692.79 -0.101562 693.822 1.35156C694.9 2.80469 696.611 4.1875 698.954 5.5C701.298 6.8125 705.798 8.71094 712.454 11.1953C721.595 14.5234 727.759 17.875 730.947 21.25C734.181 24.625 735.798 28.8672 735.798 33.9766ZM830.008 16.3984C830.008 28.9609 826.844 38.7812 820.516 45.8594C814.188 52.8906 805.446 56.4062 794.29 56.4062C787.399 56.4062 781.282 54.7891 775.938 51.5547C770.594 48.3203 766.469 43.6797 763.563 37.6328C760.657 31.5859 759.204 24.5078 759.204 16.3984C759.204 3.83594 762.344 -5.9375 768.626 -12.9219C774.907 -19.9531 783.626 -23.4688 794.782 -23.4688C805.563 -23.4688 814.118 -19.8828 820.446 -12.7109C826.821 -5.53906 830.008 4.16406 830.008 16.3984ZM771.297 16.3984C771.297 26.2422 773.266 33.7422 777.204 38.8984C781.141 44.0547 786.93 46.6328 794.571 46.6328C802.212 46.6328 808.001 44.0781 811.938 38.9688C815.922 33.8125 817.915 26.2891 817.915 16.3984C817.915 6.60156 815.922 -0.828125 811.938 -5.89062C808.001 -11 802.165 -13.5547 794.43 -13.5547C786.79 -13.5547 781.024 -11.0469 777.133 -6.03125C773.243 -1.01562 771.297 6.46094 771.297 16.3984ZM870.852 55H859.18V-54.4062H870.852V55ZM921.117 55L891.867 -22.0625H904.382L920.976 23.6406C924.726 34.3281 926.929 41.2656 927.585 44.4531H928.148C928.663 41.9688 930.281 36.8359 932.999 29.0547C935.765 21.2266 941.929 4.1875 951.492 -22.0625H964.007L934.757 55H921.117ZM996.694 55H985.022V-22.0625H996.694V55ZM984.038 -42.9453C984.038 -45.6172 984.694 -47.5625 986.007 -48.7812C987.319 -50.0469 988.96 -50.6797 990.928 -50.6797C992.803 -50.6797 994.421 -50.0469 995.78 -48.7812C997.139 -47.5156 997.819 -45.5703 997.819 -42.9453C997.819 -40.3203 997.139 -38.3516 995.78 -37.0391C994.421 -35.7734 992.803 -35.1406 990.928 -35.1406C988.96 -35.1406 987.319 -35.7734 986.007 -37.0391C984.694 -38.3516 984.038 -40.3203 984.038 -42.9453ZM1082.82 55V5.14844C1082.82 -1.13281 1081.39 -5.82031 1078.53 -8.91406C1075.67 -12.0078 1071.19 -13.5547 1065.1 -13.5547C1057.04 -13.5547 1051.13 -11.375 1047.38 -7.01562C1043.63 -2.65625 1041.76 4.53906 1041.76 14.5703V55H1030.08V-22.0625H1039.58L1041.47 -11.5156H1042.04C1044.43 -15.3125 1047.78 -18.2422 1052.09 -20.3047C1056.4 -22.4141 1061.21 -23.4688 1066.51 -23.4688C1075.79 -23.4688 1082.77 -21.2188 1087.46 -16.7188C1092.15 -12.2656 1094.49 -5.11719 1094.49 4.72656V55H1082.82ZM1190.25 -22.0625V-14.6797L1175.97 -12.9922C1177.29 -11.3516 1178.46 -9.19531 1179.49 -6.52344C1180.52 -3.89844 1181.04 -0.921875 1181.04 2.40625C1181.04 9.95312 1178.46 15.9766 1173.3 20.4766C1168.15 24.9766 1161.07 27.2266 1152.07 27.2266C1149.77 27.2266 1147.61 27.0391 1145.6 26.6641C1140.63 29.2891 1138.15 32.5938 1138.15 36.5781C1138.15 38.6875 1139.01 40.2578 1140.75 41.2891C1142.48 42.2734 1145.46 42.7656 1149.68 42.7656H1163.32C1171.66 42.7656 1178.06 44.5234 1182.51 48.0391C1187.01 51.5547 1189.26 56.6641 1189.26 63.3672C1189.26 71.8984 1185.84 78.3906 1179 82.8438C1172.15 87.3438 1162.17 89.5938 1149.04 89.5938C1138.97 89.5938 1131.18 87.7188 1125.7 83.9688C1120.26 80.2188 1117.54 74.9219 1117.54 68.0781C1117.54 63.3906 1119.04 59.3359 1122.04 55.9141C1125.04 52.4922 1129.26 50.1719 1134.7 48.9531C1132.73 48.0625 1131.07 46.6797 1129.71 44.8047C1128.4 42.9297 1127.74 40.75 1127.74 38.2656C1127.74 35.4531 1128.49 32.9922 1129.99 30.8828C1131.49 28.7734 1133.86 26.7344 1137.09 24.7656C1133.11 23.125 1129.85 20.3359 1127.32 16.3984C1124.83 12.4609 1123.59 7.96094 1123.59 2.89844C1123.59 -5.53906 1126.12 -12.0312 1131.18 -16.5781C1136.25 -21.1719 1143.42 -23.4688 1152.7 -23.4688C1156.73 -23.4688 1160.36 -23 1163.6 -22.0625H1190.25ZM1128.79 67.9375C1128.79 72.1094 1130.55 75.2734 1134.07 77.4297C1137.58 79.5859 1142.62 80.6641 1149.18 80.6641C1158.98 80.6641 1166.22 79.1875 1170.91 76.2344C1175.65 73.3281 1178.01 69.3672 1178.01 64.3516C1178.01 60.1797 1176.72 57.2734 1174.15 55.6328C1171.57 54.0391 1166.72 53.2422 1159.59 53.2422H1145.6C1140.3 53.2422 1136.18 54.5078 1133.22 57.0391C1130.27 59.5703 1128.79 63.2031 1128.79 67.9375ZM1135.12 2.61719C1135.12 8.00781 1136.65 12.0859 1139.69 14.8516C1142.74 17.6172 1146.98 19 1152.42 19C1163.81 19 1169.51 13.4688 1169.51 2.40625C1169.51 -9.17188 1163.74 -14.9609 1152.21 -14.9609C1146.72 -14.9609 1142.51 -13.4844 1139.55 -10.5312C1136.6 -7.57812 1135.12 -3.19531 1135.12 2.61719ZM1295.91 -23.4688C1299.33 -23.4688 1302.4 -23.1875 1305.12 -22.625L1303.5 -11.7969C1300.32 -12.5 1297.5 -12.8516 1295.07 -12.8516C1288.83 -12.8516 1283.49 -10.3203 1279.04 -5.25781C1274.63 -0.195312 1272.43 6.10938 1272.43 13.6562V55H1260.75V-22.0625H1270.39L1271.72 -7.78906H1272.29C1275.14 -12.8047 1278.59 -16.6719 1282.62 -19.3906C1286.65 -22.1094 1291.08 -23.4688 1295.91 -23.4688ZM1363.33 -23.4688C1366.75 -23.4688 1369.82 -23.1875 1372.54 -22.625L1370.93 -11.7969C1367.74 -12.5 1364.93 -12.8516 1362.49 -12.8516C1356.25 -12.8516 1350.91 -10.3203 1346.46 -5.25781C1342.05 -0.195312 1339.85 6.10938 1339.85 13.6562V55H1328.18V-22.0625H1337.81L1339.14 -7.78906H1339.71C1342.57 -12.8047 1346.01 -16.6719 1350.04 -19.3906C1354.07 -22.1094 1358.5 -23.4688 1363.33 -23.4688ZM1462.11 16.3984C1462.11 28.9609 1458.95 38.7812 1452.62 45.8594C1446.29 52.8906 1437.55 56.4062 1426.39 56.4062C1419.5 56.4062 1413.39 54.7891 1408.04 51.5547C1402.7 48.3203 1398.57 43.6797 1395.67 37.6328C1392.76 31.5859 1391.31 24.5078 1391.31 16.3984C1391.31 3.83594 1394.45 -5.9375 1400.73 -12.9219C1407.01 -19.9531 1415.73 -23.4688 1426.89 -23.4688C1437.67 -23.4688 1446.22 -19.8828 1452.55 -12.7109C1458.92 -5.53906 1462.11 4.16406 1462.11 16.3984ZM1403.4 16.3984C1403.4 26.2422 1405.37 33.7422 1409.31 38.8984C1413.24 44.0547 1419.03 46.6328 1426.67 46.6328C1434.32 46.6328 1440.1 44.0781 1444.04 38.9688C1448.03 33.8125 1450.02 26.2891 1450.02 16.3984C1450.02 6.60156 1448.03 -0.828125 1444.04 -5.89062C1440.1 -11 1434.27 -13.5547 1426.53 -13.5547C1418.89 -13.5547 1413.13 -11.0469 1409.24 -6.03125C1405.35 -1.01562 1403.4 6.46094 1403.4 16.3984ZM1589.51 55V4.86719C1589.51 -1.27344 1588.2 -5.86719 1585.57 -8.91406C1582.95 -12.0078 1578.87 -13.5547 1573.34 -13.5547C1566.07 -13.5547 1560.71 -11.4688 1557.24 -7.29688C1553.77 -3.125 1552.03 3.29688 1552.03 11.9688V55H1540.36V4.86719C1540.36 -1.27344 1539.05 -5.86719 1536.42 -8.91406C1533.8 -12.0078 1529.7 -13.5547 1524.12 -13.5547C1516.81 -13.5547 1511.44 -11.3516 1508.02 -6.94531C1504.64 -2.58594 1502.96 4.58594 1502.96 14.5703V55H1491.28V-22.0625H1500.78L1502.67 -11.5156H1503.24C1505.44 -15.2656 1508.53 -18.1953 1512.52 -20.3047C1516.55 -22.4141 1521.05 -23.4688 1526.02 -23.4688C1538.06 -23.4688 1545.94 -19.1094 1549.64 -10.3906H1550.21C1552.5 -14.4219 1555.83 -17.6094 1560.19 -19.9531C1564.55 -22.2969 1569.52 -23.4688 1575.1 -23.4688C1583.81 -23.4688 1590.33 -21.2188 1594.64 -16.7188C1599 -12.2656 1601.18 -5.11719 1601.18 4.72656V55H1589.51Z" fill="#020612"/>
</g>
<defs>
<clipPath id="clip0">
<rect width="1920" height="1080" fill="white"/>
</clipPath>
</defs>
</svg>
