<svg width="1920" height="1080" viewBox="0 0 1920 1080" fill="none" xmlns="http://www.w3.org/2000/svg">
<g clip-path="url(#clip0)">
<rect width="1920" height="1080" fill="white"/>
<path d="M539.898 534.789C539.898 537.391 539.008 539.395 537.226 540.801C535.457 542.195 532.92 542.893 529.615 542.893H526.592V553H523.603V527.301H530.266C536.687 527.301 539.898 529.797 539.898 534.789ZM526.592 540.326H529.281C531.93 540.326 533.846 539.898 535.029 539.043C536.213 538.188 536.805 536.816 536.805 534.93C536.805 533.23 536.248 531.965 535.135 531.133C534.021 530.301 532.287 529.885 529.932 529.885H526.592V540.326ZM556.884 533.383C557.74 533.383 558.507 533.453 559.187 533.594L558.783 536.301C557.986 536.125 557.283 536.037 556.674 536.037C555.115 536.037 553.779 536.67 552.666 537.936C551.564 539.201 551.013 540.777 551.013 542.664V553H548.095V533.734H550.504L550.838 537.303H550.978C551.693 536.049 552.554 535.082 553.562 534.402C554.57 533.723 555.677 533.383 556.884 533.383ZM582.66 543.35C582.66 546.49 581.869 548.945 580.287 550.715C578.705 552.473 576.519 553.352 573.73 553.352C572.007 553.352 570.478 552.947 569.142 552.139C567.806 551.33 566.775 550.17 566.048 548.658C565.322 547.146 564.958 545.377 564.958 543.35C564.958 540.209 565.744 537.766 567.314 536.02C568.884 534.262 571.064 533.383 573.853 533.383C576.548 533.383 578.687 534.279 580.269 536.072C581.863 537.865 582.66 540.291 582.66 543.35ZM567.982 543.35C567.982 545.811 568.474 547.686 569.458 548.975C570.443 550.264 571.89 550.908 573.8 550.908C575.71 550.908 577.158 550.27 578.142 548.992C579.138 547.703 579.636 545.822 579.636 543.35C579.636 540.9 579.138 539.043 578.142 537.777C577.158 536.5 575.699 535.861 573.765 535.861C571.855 535.861 570.414 536.488 569.441 537.742C568.468 538.996 567.982 540.865 567.982 543.35ZM599.997 533.418C602.529 533.418 604.491 534.285 605.886 536.02C607.292 537.742 607.995 540.186 607.995 543.35C607.995 546.514 607.286 548.975 605.868 550.732C604.462 552.479 602.505 553.352 599.997 553.352C598.743 553.352 597.595 553.123 596.552 552.666C595.521 552.197 594.654 551.482 593.95 550.521H593.739L593.124 553H591.032V525.648H593.95V532.293C593.95 533.781 593.904 535.117 593.81 536.301H593.95C595.31 534.379 597.325 533.418 599.997 533.418ZM599.575 535.861C597.583 535.861 596.148 536.436 595.269 537.584C594.39 538.721 593.95 540.643 593.95 543.35C593.95 546.057 594.402 547.996 595.304 549.168C596.206 550.328 597.654 550.908 599.646 550.908C601.439 550.908 602.775 550.258 603.654 548.957C604.532 547.645 604.972 545.764 604.972 543.314C604.972 540.807 604.532 538.938 603.654 537.707C602.775 536.477 601.415 535.861 599.575 535.861ZM619.269 553H616.351V525.648H619.269V553ZM636.835 553.352C633.987 553.352 631.737 552.484 630.085 550.75C628.444 549.016 627.624 546.607 627.624 543.525C627.624 540.42 628.385 537.953 629.909 536.125C631.444 534.297 633.501 533.383 636.079 533.383C638.493 533.383 640.403 534.18 641.809 535.773C643.216 537.355 643.919 539.447 643.919 542.049V543.895H630.647C630.706 546.156 631.274 547.873 632.352 549.045C633.442 550.217 634.971 550.803 636.94 550.803C639.014 550.803 641.065 550.369 643.092 549.502V552.104C642.061 552.549 641.083 552.865 640.157 553.053C639.243 553.252 638.135 553.352 636.835 553.352ZM636.044 535.826C634.497 535.826 633.26 536.33 632.335 537.338C631.421 538.346 630.882 539.74 630.717 541.521H640.79C640.79 539.682 640.38 538.275 639.559 537.303C638.739 536.318 637.567 535.826 636.044 535.826ZM676.707 553V540.467C676.707 538.932 676.379 537.783 675.723 537.021C675.067 536.248 674.047 535.861 672.665 535.861C670.848 535.861 669.506 536.383 668.639 537.426C667.772 538.469 667.338 540.074 667.338 542.242V553H664.42V540.467C664.42 538.932 664.092 537.783 663.436 537.021C662.78 536.248 661.754 535.861 660.36 535.861C658.532 535.861 657.19 536.412 656.334 537.514C655.491 538.604 655.069 540.396 655.069 542.893V553H652.151V533.734H654.524L654.999 536.371H655.139C655.69 535.434 656.463 534.701 657.459 534.174C658.467 533.646 659.592 533.383 660.834 533.383C663.846 533.383 665.815 534.473 666.741 536.652H666.881C667.456 535.645 668.288 534.848 669.377 534.262C670.467 533.676 671.709 533.383 673.104 533.383C675.284 533.383 676.913 533.945 677.991 535.07C679.081 536.184 679.625 537.971 679.625 540.432V553H676.707ZM716.428 546.162C716.428 548.424 715.607 550.188 713.967 551.453C712.326 552.719 710.1 553.352 707.287 553.352C704.24 553.352 701.896 552.959 700.256 552.174V549.291C701.311 549.736 702.459 550.088 703.701 550.346C704.943 550.604 706.174 550.732 707.393 550.732C709.385 550.732 710.885 550.357 711.893 549.607C712.9 548.846 713.404 547.791 713.404 546.443C713.404 545.553 713.223 544.826 712.859 544.264C712.508 543.689 711.91 543.162 711.066 542.682C710.234 542.201 708.963 541.656 707.252 541.047C704.861 540.191 703.15 539.178 702.119 538.006C701.1 536.834 700.59 535.305 700.59 533.418C700.59 531.438 701.334 529.861 702.822 528.689C704.311 527.518 706.279 526.932 708.729 526.932C711.283 526.932 713.633 527.4 715.777 528.338L714.846 530.939C712.725 530.049 710.662 529.604 708.658 529.604C707.076 529.604 705.84 529.943 704.949 530.623C704.059 531.303 703.613 532.246 703.613 533.453C703.613 534.344 703.777 535.076 704.105 535.65C704.434 536.213 704.984 536.734 705.758 537.215C706.543 537.684 707.738 538.205 709.344 538.779C712.039 539.74 713.891 540.771 714.898 541.873C715.918 542.975 716.428 544.404 716.428 546.162ZM741.113 543.35C741.113 546.49 740.322 548.945 738.74 550.715C737.158 552.473 734.972 553.352 732.183 553.352C730.461 553.352 728.931 552.947 727.595 552.139C726.26 551.33 725.228 550.17 724.502 548.658C723.775 547.146 723.412 545.377 723.412 543.35C723.412 540.209 724.197 537.766 725.767 536.02C727.338 534.262 729.517 533.383 732.306 533.383C735.002 533.383 737.14 534.279 738.722 536.072C740.316 537.865 741.113 540.291 741.113 543.35ZM726.435 543.35C726.435 545.811 726.927 547.686 727.912 548.975C728.896 550.264 730.344 550.908 732.254 550.908C734.164 550.908 735.611 550.27 736.595 548.992C737.592 547.703 738.09 545.822 738.09 543.35C738.09 540.9 737.592 539.043 736.595 537.777C735.611 536.5 734.152 535.861 732.219 535.861C730.308 535.861 728.867 536.488 727.894 537.742C726.922 538.996 726.435 540.865 726.435 543.35ZM752.404 553H749.486V525.648H752.404V553ZM766.05 553L758.738 533.734H761.866L766.015 545.16C766.952 547.832 767.503 549.566 767.667 550.363H767.808C767.937 549.742 768.341 548.459 769.021 546.514C769.712 544.557 771.253 540.297 773.644 533.734H776.773L769.46 553H766.05ZM786.024 553H783.106V533.734H786.024V553ZM782.86 528.514C782.86 527.846 783.024 527.359 783.353 527.055C783.681 526.738 784.091 526.58 784.583 526.58C785.052 526.58 785.456 526.738 785.796 527.055C786.136 527.371 786.306 527.857 786.306 528.514C786.306 529.17 786.136 529.662 785.796 529.99C785.456 530.307 785.052 530.465 784.583 530.465C784.091 530.465 783.681 530.307 783.353 529.99C783.024 529.662 782.86 529.17 782.86 528.514ZM808.636 553V540.537C808.636 538.967 808.278 537.795 807.563 537.021C806.848 536.248 805.729 535.861 804.206 535.861C802.19 535.861 800.714 536.406 799.776 537.496C798.839 538.586 798.37 540.385 798.37 542.893V553H795.452V533.734H797.825L798.3 536.371H798.44C799.038 535.422 799.876 534.689 800.954 534.174C802.032 533.646 803.233 533.383 804.557 533.383C806.878 533.383 808.624 533.945 809.796 535.07C810.968 536.184 811.553 537.971 811.553 540.432V553H808.636ZM836.573 533.734V535.58L833.004 536.002C833.333 536.412 833.626 536.951 833.883 537.619C834.141 538.275 834.27 539.02 834.27 539.852C834.27 541.738 833.626 543.244 832.336 544.369C831.047 545.494 829.278 546.057 827.028 546.057C826.454 546.057 825.915 546.01 825.411 545.916C824.168 546.572 823.547 547.398 823.547 548.395C823.547 548.922 823.764 549.314 824.198 549.572C824.631 549.818 825.376 549.941 826.43 549.941H829.84C831.926 549.941 833.526 550.381 834.639 551.26C835.764 552.139 836.327 553.416 836.327 555.092C836.327 557.225 835.471 558.848 833.76 559.961C832.049 561.086 829.553 561.648 826.272 561.648C823.752 561.648 821.807 561.18 820.436 560.242C819.077 559.305 818.397 557.98 818.397 556.27C818.397 555.098 818.772 554.084 819.522 553.229C820.272 552.373 821.327 551.793 822.686 551.488C822.194 551.266 821.778 550.92 821.438 550.451C821.11 549.982 820.946 549.438 820.946 548.816C820.946 548.113 821.133 547.498 821.508 546.971C821.883 546.443 822.475 545.934 823.284 545.441C822.288 545.031 821.473 544.334 820.84 543.35C820.219 542.365 819.909 541.24 819.909 539.975C819.909 537.865 820.542 536.242 821.807 535.105C823.073 533.957 824.866 533.383 827.186 533.383C828.194 533.383 829.102 533.5 829.911 533.734H836.573ZM821.21 556.234C821.21 557.277 821.649 558.068 822.528 558.607C823.407 559.146 824.667 559.416 826.307 559.416C828.756 559.416 830.567 559.047 831.739 558.309C832.922 557.582 833.514 556.592 833.514 555.338C833.514 554.295 833.192 553.568 832.547 553.158C831.903 552.76 830.69 552.561 828.909 552.561H825.411C824.086 552.561 823.055 552.877 822.317 553.51C821.579 554.143 821.21 555.051 821.21 556.234ZM822.792 539.904C822.792 541.252 823.172 542.271 823.934 542.963C824.696 543.654 825.756 544 827.116 544C829.963 544 831.387 542.617 831.387 539.852C831.387 536.957 829.946 535.51 827.063 535.51C825.692 535.51 824.637 535.879 823.899 536.617C823.161 537.355 822.792 538.451 822.792 539.904ZM859.787 553H856.799V527.301H871.125V529.955H859.787V539.359H870.44V542.014H859.787V553ZM886.986 533.383C887.842 533.383 888.609 533.453 889.289 533.594L888.885 536.301C888.088 536.125 887.385 536.037 886.775 536.037C885.217 536.037 883.881 536.67 882.767 537.936C881.666 539.201 881.115 540.777 881.115 542.664V553H878.197V533.734H880.605L880.939 537.303H881.08C881.795 536.049 882.656 535.082 883.664 534.402C884.672 533.723 885.779 533.383 886.986 533.383ZM912.761 543.35C912.761 546.49 911.97 548.945 910.388 550.715C908.806 552.473 906.621 553.352 903.832 553.352C902.109 553.352 900.58 552.947 899.244 552.139C897.908 551.33 896.877 550.17 896.15 548.658C895.423 547.146 895.06 545.377 895.06 543.35C895.06 540.209 895.845 537.766 897.416 536.02C898.986 534.262 901.166 533.383 903.955 533.383C906.65 533.383 908.789 534.279 910.371 536.072C911.964 537.865 912.761 540.291 912.761 543.35ZM898.084 543.35C898.084 545.811 898.576 547.686 899.56 548.975C900.545 550.264 901.992 550.908 903.902 550.908C905.812 550.908 907.259 550.27 908.244 548.992C909.24 547.703 909.738 545.822 909.738 543.35C909.738 540.9 909.24 539.043 908.244 537.777C907.259 536.5 905.8 535.861 903.867 535.861C901.957 535.861 900.515 536.488 899.543 537.742C898.57 538.996 898.084 540.865 898.084 543.35ZM945.691 553V540.467C945.691 538.932 945.363 537.783 944.706 537.021C944.05 536.248 943.031 535.861 941.648 535.861C939.831 535.861 938.49 536.383 937.622 537.426C936.755 538.469 936.322 540.074 936.322 542.242V553H933.404V540.467C933.404 538.932 933.076 537.783 932.419 537.021C931.763 536.248 930.738 535.861 929.343 535.861C927.515 535.861 926.173 536.412 925.318 537.514C924.474 538.604 924.052 540.396 924.052 542.893V553H921.134V533.734H923.507L923.982 536.371H924.122C924.673 535.434 925.447 534.701 926.443 534.174C927.451 533.646 928.576 533.383 929.818 533.383C932.829 533.383 934.798 534.473 935.724 536.652H935.865C936.439 535.645 937.271 534.848 938.361 534.262C939.451 533.676 940.693 533.383 942.087 533.383C944.267 533.383 945.896 533.945 946.974 535.07C948.064 536.184 948.609 537.971 948.609 540.432V553H945.691ZM987.063 553L983.864 544.826H973.563L970.399 553H967.376L977.536 527.195H980.05L990.157 553H987.063ZM982.932 542.137L979.944 534.174C979.557 533.166 979.159 531.93 978.749 530.465C978.491 531.59 978.122 532.826 977.641 534.174L974.618 542.137H982.932ZM1029.03 553H1026.05V540.906H1012.51V553H1009.52V527.301H1012.51V538.234H1026.05V527.301H1029.03V553ZM1041.64 533.734V546.232C1041.64 547.803 1042 548.975 1042.71 549.748C1043.43 550.521 1044.55 550.908 1046.07 550.908C1048.09 550.908 1049.56 550.357 1050.48 549.256C1051.42 548.154 1051.89 546.355 1051.89 543.859V533.734H1054.81V553H1052.4L1051.98 550.416H1051.82C1051.22 551.365 1050.39 552.092 1049.32 552.596C1048.27 553.1 1047.06 553.352 1045.7 553.352C1043.36 553.352 1041.6 552.795 1040.43 551.682C1039.27 550.568 1038.69 548.787 1038.69 546.338V533.734H1041.64ZM1088.81 553V540.467C1088.81 538.932 1088.48 537.783 1087.83 537.021C1087.17 536.248 1086.15 535.861 1084.77 535.861C1082.95 535.861 1081.61 536.383 1080.74 537.426C1079.87 538.469 1079.44 540.074 1079.44 542.242V553H1076.52V540.467C1076.52 538.932 1076.2 537.783 1075.54 537.021C1074.88 536.248 1073.86 535.861 1072.46 535.861C1070.63 535.861 1069.29 536.412 1068.44 537.514C1067.59 538.604 1067.17 540.396 1067.17 542.893V553H1064.25V533.734H1066.63L1067.1 536.371H1067.24C1067.79 535.434 1068.57 534.701 1069.56 534.174C1070.57 533.646 1071.7 533.383 1072.94 533.383C1075.95 533.383 1077.92 534.473 1078.84 536.652H1078.98C1079.56 535.645 1080.39 534.848 1081.48 534.262C1082.57 533.676 1083.81 533.383 1085.21 533.383C1087.39 533.383 1089.02 533.945 1090.09 535.07C1091.18 536.184 1091.73 537.971 1091.73 540.432V553H1088.81ZM1112.85 553L1112.27 550.258H1112.12C1111.16 551.465 1110.2 552.285 1109.24 552.719C1108.29 553.141 1107.1 553.352 1105.67 553.352C1103.76 553.352 1102.26 552.859 1101.17 551.875C1100.1 550.891 1099.56 549.49 1099.56 547.674C1099.56 543.783 1102.67 541.744 1108.89 541.557L1112.16 541.451V540.256C1112.16 538.744 1111.83 537.631 1111.18 536.916C1110.53 536.189 1109.49 535.826 1108.06 535.826C1106.46 535.826 1104.64 536.318 1102.61 537.303L1101.72 535.07C1102.67 534.555 1103.7 534.15 1104.83 533.857C1105.97 533.564 1107.1 533.418 1108.24 533.418C1110.54 533.418 1112.24 533.928 1113.34 534.947C1114.45 535.967 1115.01 537.602 1115.01 539.852V553H1112.85ZM1106.25 550.943C1108.07 550.943 1109.49 550.445 1110.53 549.449C1111.57 548.453 1112.09 547.059 1112.09 545.266V543.525L1109.17 543.648C1106.85 543.73 1105.18 544.094 1104.14 544.738C1103.12 545.371 1102.61 546.361 1102.61 547.709C1102.61 548.764 1102.93 549.566 1103.56 550.117C1104.21 550.668 1105.11 550.943 1106.25 550.943ZM1137.46 553V540.537C1137.46 538.967 1137.1 537.795 1136.39 537.021C1135.67 536.248 1134.55 535.861 1133.03 535.861C1131.02 535.861 1129.54 536.406 1128.6 537.496C1127.66 538.586 1127.19 540.385 1127.19 542.893V553H1124.28V533.734H1126.65L1127.12 536.371H1127.27C1127.86 535.422 1128.7 534.689 1129.78 534.174C1130.86 533.646 1132.06 533.383 1133.38 533.383C1135.7 533.383 1137.45 533.945 1138.62 535.07C1139.79 536.184 1140.38 537.971 1140.38 540.432V553H1137.46ZM1178.96 534.789C1178.96 537.391 1178.07 539.395 1176.28 540.801C1174.51 542.195 1171.98 542.893 1168.67 542.893H1165.65V553H1162.66V527.301H1169.32C1175.75 527.301 1178.96 529.797 1178.96 534.789ZM1165.65 540.326H1168.34C1170.99 540.326 1172.9 539.898 1174.09 539.043C1175.27 538.188 1175.86 536.816 1175.86 534.93C1175.86 533.23 1175.31 531.965 1174.19 531.133C1173.08 530.301 1171.34 529.885 1168.99 529.885H1165.65V540.326ZM1195.29 553.352C1192.44 553.352 1190.19 552.484 1188.54 550.75C1186.9 549.016 1186.08 546.607 1186.08 543.525C1186.08 540.42 1186.84 537.953 1188.37 536.125C1189.9 534.297 1191.96 533.383 1194.54 533.383C1196.95 533.383 1198.86 534.18 1200.27 535.773C1201.67 537.355 1202.38 539.447 1202.38 542.049V543.895H1189.1C1189.16 546.156 1189.73 547.873 1190.81 549.045C1191.9 550.217 1193.43 550.803 1195.4 550.803C1197.47 550.803 1199.52 550.369 1201.55 549.502V552.104C1200.52 552.549 1199.54 552.865 1198.61 553.053C1197.7 553.252 1196.59 553.352 1195.29 553.352ZM1194.5 535.826C1192.95 535.826 1191.72 536.33 1190.79 537.338C1189.88 538.346 1189.34 539.74 1189.17 541.521H1199.25C1199.25 539.682 1198.84 538.275 1198.02 537.303C1197.2 536.318 1196.02 535.826 1194.5 535.826ZM1219.4 533.383C1220.25 533.383 1221.02 533.453 1221.7 533.594L1221.3 536.301C1220.5 536.125 1219.8 536.037 1219.19 536.037C1217.63 536.037 1216.29 536.67 1215.18 537.936C1214.08 539.201 1213.53 540.777 1213.53 542.664V553H1210.61V533.734H1213.02L1213.35 537.303H1213.49C1214.21 536.049 1215.07 535.082 1216.07 534.402C1217.08 533.723 1218.19 533.383 1219.4 533.383ZM1240.97 547.744C1240.97 549.537 1240.3 550.92 1238.97 551.893C1237.63 552.865 1235.76 553.352 1233.34 553.352C1230.79 553.352 1228.8 552.947 1227.37 552.139V549.432C1228.29 549.9 1229.28 550.27 1230.34 550.539C1231.4 550.809 1232.43 550.943 1233.41 550.943C1234.94 550.943 1236.11 550.703 1236.93 550.223C1237.75 549.73 1238.16 548.986 1238.16 547.99C1238.16 547.24 1237.83 546.602 1237.17 546.074C1236.53 545.535 1235.26 544.902 1233.38 544.176C1231.58 543.508 1230.31 542.928 1229.55 542.436C1228.8 541.932 1228.23 541.363 1227.86 540.73C1227.49 540.098 1227.31 539.342 1227.31 538.463C1227.31 536.893 1227.95 535.656 1229.23 534.754C1230.51 533.84 1232.26 533.383 1234.48 533.383C1236.56 533.383 1238.59 533.805 1240.57 534.648L1239.53 537.021C1237.6 536.225 1235.84 535.826 1234.27 535.826C1232.89 535.826 1231.85 536.043 1231.14 536.477C1230.44 536.91 1230.09 537.508 1230.09 538.27C1230.09 538.785 1230.22 539.225 1230.48 539.588C1230.75 539.951 1231.17 540.297 1231.76 540.625C1232.35 540.953 1233.47 541.428 1235.14 542.049C1237.42 542.881 1238.96 543.719 1239.76 544.562C1240.57 545.406 1240.97 546.467 1240.97 547.744ZM1257.94 553.352C1256.69 553.352 1255.54 553.123 1254.49 552.666C1253.46 552.197 1252.6 551.482 1251.89 550.521H1251.68C1251.82 551.646 1251.89 552.713 1251.89 553.721V561.648H1248.97V533.734H1251.35L1251.75 536.371H1251.89C1252.64 535.316 1253.52 534.555 1254.51 534.086C1255.51 533.617 1256.65 533.383 1257.94 533.383C1260.49 533.383 1262.46 534.256 1263.85 536.002C1265.24 537.748 1265.94 540.197 1265.94 543.35C1265.94 546.514 1265.23 548.975 1263.81 550.732C1262.4 552.479 1260.45 553.352 1257.94 553.352ZM1257.52 535.861C1255.55 535.861 1254.12 536.406 1253.25 537.496C1252.37 538.586 1251.92 540.32 1251.89 542.699V543.35C1251.89 546.057 1252.34 547.996 1253.25 549.168C1254.15 550.328 1255.6 550.908 1257.59 550.908C1259.25 550.908 1260.55 550.234 1261.49 548.887C1262.44 547.539 1262.91 545.682 1262.91 543.314C1262.91 540.912 1262.44 539.072 1261.49 537.795C1260.55 536.506 1259.23 535.861 1257.52 535.861ZM1282.43 553.352C1279.58 553.352 1277.33 552.484 1275.68 550.75C1274.04 549.016 1273.22 546.607 1273.22 543.525C1273.22 540.42 1273.98 537.953 1275.51 536.125C1277.04 534.297 1279.1 533.383 1281.68 533.383C1284.09 533.383 1286 534.18 1287.41 535.773C1288.81 537.355 1289.52 539.447 1289.52 542.049V543.895H1276.24C1276.3 546.156 1276.87 547.873 1277.95 549.045C1279.04 550.217 1280.57 550.803 1282.54 550.803C1284.61 550.803 1286.66 550.369 1288.69 549.502V552.104C1287.66 552.549 1286.68 552.865 1285.75 553.053C1284.84 553.252 1283.73 553.352 1282.43 553.352ZM1281.64 535.826C1280.09 535.826 1278.86 536.33 1277.93 537.338C1277.02 538.346 1276.48 539.74 1276.31 541.521H1286.39C1286.39 539.682 1285.98 538.275 1285.16 537.303C1284.34 536.318 1283.16 535.826 1281.64 535.826ZM1305.45 553.352C1302.66 553.352 1300.5 552.496 1298.96 550.785C1297.44 549.062 1296.68 546.631 1296.68 543.49C1296.68 540.268 1297.45 537.777 1299 536.02C1300.55 534.262 1302.77 533.383 1305.64 533.383C1306.57 533.383 1307.49 533.482 1308.42 533.682C1309.34 533.881 1310.07 534.115 1310.6 534.385L1309.7 536.863C1309.06 536.605 1308.35 536.395 1307.59 536.23C1306.83 536.055 1306.16 535.967 1305.57 535.967C1301.66 535.967 1299.7 538.463 1299.7 543.455C1299.7 545.822 1300.17 547.639 1301.12 548.904C1302.08 550.17 1303.5 550.803 1305.38 550.803C1306.98 550.803 1308.63 550.457 1310.32 549.766V552.35C1309.03 553.018 1307.4 553.352 1305.45 553.352ZM1324.37 550.943C1324.88 550.943 1325.38 550.908 1325.86 550.838C1326.34 550.756 1326.72 550.674 1327 550.592V552.824C1326.69 552.977 1326.22 553.1 1325.6 553.193C1324.99 553.299 1324.44 553.352 1323.94 553.352C1320.22 553.352 1318.35 551.389 1318.35 547.463V536.002H1315.59V534.596L1318.35 533.383L1319.59 529.27H1321.27V533.734H1326.86V536.002H1321.27V547.34C1321.27 548.5 1321.55 549.391 1322.1 550.012C1322.65 550.633 1323.41 550.943 1324.37 550.943ZM1337.03 553H1334.11V533.734H1337.03V553ZM1333.86 528.514C1333.86 527.846 1334.03 527.359 1334.36 527.055C1334.68 526.738 1335.09 526.58 1335.59 526.58C1336.06 526.58 1336.46 526.738 1336.8 527.055C1337.14 527.371 1337.31 527.857 1337.31 528.514C1337.31 529.17 1337.14 529.662 1336.8 529.99C1336.46 530.307 1336.06 530.465 1335.59 530.465C1335.09 530.465 1334.68 530.307 1334.36 529.99C1334.03 529.662 1333.86 529.17 1333.86 528.514ZM1350.67 553L1343.36 533.734H1346.49L1350.64 545.16C1351.58 547.832 1352.13 549.566 1352.29 550.363H1352.43C1352.56 549.742 1352.97 548.459 1353.65 546.514C1354.34 544.557 1355.88 540.297 1358.27 533.734H1361.4L1354.08 553H1350.67ZM1375.87 553.352C1373.02 553.352 1370.77 552.484 1369.12 550.75C1367.48 549.016 1366.66 546.607 1366.66 543.525C1366.66 540.42 1367.42 537.953 1368.94 536.125C1370.48 534.297 1372.54 533.383 1375.11 533.383C1377.53 533.383 1379.44 534.18 1380.84 535.773C1382.25 537.355 1382.95 539.447 1382.95 542.049V543.895H1369.68C1369.74 546.156 1370.31 547.873 1371.39 549.045C1372.48 550.217 1374.01 550.803 1375.98 550.803C1378.05 550.803 1380.1 550.369 1382.13 549.502V552.104C1381.1 552.549 1380.12 552.865 1379.19 553.053C1378.28 553.252 1377.17 553.352 1375.87 553.352ZM1375.08 535.826C1373.53 535.826 1372.3 536.33 1371.37 537.338C1370.46 538.346 1369.92 539.74 1369.75 541.521H1379.82C1379.82 539.682 1379.41 538.275 1378.59 537.303C1377.77 536.318 1376.6 535.826 1375.08 535.826ZM1390.76 551.137C1390.76 550.352 1390.94 549.76 1391.29 549.361C1391.65 548.951 1392.17 548.746 1392.84 548.746C1393.52 548.746 1394.05 548.951 1394.42 549.361C1394.81 549.76 1395 550.352 1395 551.137C1395 551.898 1394.81 552.484 1394.42 552.895C1394.03 553.305 1393.51 553.51 1392.84 553.51C1392.24 553.51 1391.74 553.328 1391.34 552.965C1390.96 552.59 1390.76 551.98 1390.76 551.137Z" fill="black"/>
<path d="M413.107 1106L410.787 1095.03H410.224C406.381 1099.86 402.537 1103.14 398.693 1104.88C394.896 1106.56 390.138 1107.41 384.42 1107.41C376.779 1107.41 370.779 1105.44 366.42 1101.5C362.107 1097.56 359.951 1091.96 359.951 1084.7C359.951 1069.13 372.396 1060.98 397.287 1060.23L410.365 1059.8V1055.02C410.365 1048.98 409.052 1044.52 406.427 1041.66C403.849 1038.76 399.701 1037.3 393.982 1037.3C387.56 1037.3 380.295 1039.27 372.185 1043.21L368.599 1034.28C372.396 1032.22 376.545 1030.6 381.045 1029.43C385.592 1028.26 390.138 1027.67 394.685 1027.67C403.873 1027.67 410.67 1029.71 415.076 1033.79C419.529 1037.87 421.756 1044.41 421.756 1053.41V1106H413.107ZM386.74 1097.77C394.006 1097.77 399.701 1095.78 403.826 1091.8C407.998 1087.81 410.084 1082.23 410.084 1075.06V1068.1L398.412 1068.59C389.131 1068.92 382.427 1070.38 378.302 1072.95C374.224 1075.48 372.185 1079.45 372.185 1084.84C372.185 1089.05 373.451 1092.27 375.982 1094.47C378.56 1096.67 382.146 1097.77 386.74 1097.77ZM553.293 1106V1056.15C553.293 1049.87 551.864 1045.18 549.004 1042.09C546.145 1038.99 541.668 1037.45 535.575 1037.45C527.465 1037.45 521.536 1039.65 517.786 1044.05C514.082 1048.46 512.231 1055.68 512.231 1065.71V1106H500.559V996.594H512.231V1029.71C512.231 1033.7 512.043 1037 511.668 1039.62H512.372C514.668 1035.92 517.926 1033.02 522.145 1030.91C526.411 1028.75 531.262 1027.67 536.7 1027.67C546.122 1027.67 553.176 1029.92 557.864 1034.42C562.598 1038.88 564.965 1045.98 564.965 1055.73V1106H553.293ZM608.621 1028.94V1078.93C608.621 1085.21 610.051 1089.9 612.91 1092.99C615.769 1096.09 620.246 1097.63 626.34 1097.63C634.402 1097.63 640.285 1095.43 643.988 1091.02C647.738 1086.62 649.613 1079.42 649.613 1069.44V1028.94H661.285V1106H651.652L649.965 1095.66H649.332C646.941 1099.46 643.613 1102.37 639.347 1104.38C635.129 1106.4 630.301 1107.41 624.863 1107.41C615.488 1107.41 608.457 1105.18 603.769 1100.73C599.129 1096.27 596.808 1089.15 596.808 1079.35V1028.94H608.621ZM792.972 1106V1055.87C792.972 1049.73 791.659 1045.13 789.034 1042.09C786.409 1038.99 782.331 1037.45 776.8 1037.45C769.534 1037.45 764.167 1039.53 760.698 1043.7C757.23 1047.88 755.495 1054.3 755.495 1062.97V1106H743.823V1055.87C743.823 1049.73 742.511 1045.13 739.886 1042.09C737.261 1038.99 733.159 1037.45 727.581 1037.45C720.269 1037.45 714.902 1039.65 711.48 1044.05C708.105 1048.41 706.417 1055.59 706.417 1065.57V1106H694.745V1028.94H704.237L706.136 1039.48H706.698C708.902 1035.73 711.995 1032.8 715.98 1030.7C720.011 1028.59 724.511 1027.53 729.48 1027.53C741.527 1027.53 749.402 1031.89 753.105 1040.61H753.667C755.964 1036.58 759.292 1033.39 763.652 1031.05C768.011 1028.7 772.98 1027.53 778.558 1027.53C787.277 1027.53 793.792 1029.78 798.105 1034.28C802.464 1038.73 804.644 1045.88 804.644 1055.73V1106H792.972ZM884.792 1106L882.471 1095.03H881.909C878.065 1099.86 874.221 1103.14 870.378 1104.88C866.581 1106.56 861.823 1107.41 856.104 1107.41C848.463 1107.41 842.463 1105.44 838.104 1101.5C833.792 1097.56 831.635 1091.96 831.635 1084.7C831.635 1069.13 844.081 1060.98 868.971 1060.23L882.049 1059.8V1055.02C882.049 1048.98 880.737 1044.52 878.112 1041.66C875.534 1038.76 871.385 1037.3 865.667 1037.3C859.245 1037.3 851.979 1039.27 843.87 1043.21L840.284 1034.28C844.081 1032.22 848.229 1030.6 852.729 1029.43C857.276 1028.26 861.823 1027.67 866.37 1027.67C875.557 1027.67 882.354 1029.71 886.76 1033.79C891.213 1037.87 893.44 1044.41 893.44 1053.41V1106H884.792ZM858.424 1097.77C865.69 1097.77 871.385 1095.78 875.51 1091.8C879.682 1087.81 881.768 1082.23 881.768 1075.06V1068.1L870.096 1068.59C860.815 1068.92 854.112 1070.38 849.987 1072.95C845.909 1075.48 843.87 1079.45 843.87 1084.84C843.87 1089.05 845.135 1092.27 847.667 1094.47C850.245 1096.67 853.831 1097.77 858.424 1097.77ZM978.932 1106V1056.15C978.932 1049.87 977.502 1045.18 974.642 1042.09C971.783 1038.99 967.307 1037.45 961.213 1037.45C953.15 1037.45 947.244 1039.62 943.494 1043.98C939.744 1048.34 937.869 1055.54 937.869 1065.57V1106H926.197V1028.94H935.689L937.588 1039.48H938.15C940.541 1035.69 943.892 1032.76 948.205 1030.7C952.517 1028.59 957.322 1027.53 962.619 1027.53C971.9 1027.53 978.885 1029.78 983.572 1034.28C988.26 1038.73 990.603 1045.88 990.603 1055.73V1106H978.932ZM1105.2 1107.41C1100.18 1107.41 1095.59 1106.49 1091.41 1104.66C1087.29 1102.79 1083.82 1099.93 1081.01 1096.09H1080.16C1080.73 1100.59 1081.01 1104.85 1081.01 1108.88V1140.59H1069.34V1028.94H1078.83L1080.45 1039.48H1081.01C1084.01 1035.27 1087.5 1032.22 1091.48 1030.34C1095.47 1028.47 1100.04 1027.53 1105.2 1027.53C1115.41 1027.53 1123.29 1031.02 1128.82 1038.01C1134.4 1044.99 1137.19 1054.79 1137.19 1067.4C1137.19 1080.05 1134.35 1089.9 1128.68 1096.93C1123.06 1103.91 1115.23 1107.41 1105.2 1107.41ZM1103.51 1037.45C1095.63 1037.45 1089.94 1039.62 1086.42 1043.98C1082.91 1048.34 1081.1 1055.28 1081.01 1064.8V1067.4C1081.01 1078.23 1082.81 1085.98 1086.42 1090.67C1090.03 1095.31 1095.82 1097.63 1103.79 1097.63C1110.45 1097.63 1115.65 1094.94 1119.4 1089.55C1123.2 1084.16 1125.09 1076.73 1125.09 1067.26C1125.09 1057.65 1123.2 1050.29 1119.4 1045.18C1115.65 1040.02 1110.35 1037.45 1103.51 1037.45ZM1198.84 1107.41C1187.45 1107.41 1178.45 1103.94 1171.84 1097C1165.28 1090.06 1162 1080.43 1162 1068.1C1162 1055.68 1165.05 1045.81 1171.14 1038.5C1177.28 1031.19 1185.51 1027.53 1195.82 1027.53C1205.48 1027.53 1213.12 1030.72 1218.74 1037.09C1224.37 1043.42 1227.18 1051.79 1227.18 1062.2V1069.58H1174.09C1174.33 1078.62 1176.6 1085.49 1180.91 1090.18C1185.27 1094.87 1191.39 1097.21 1199.27 1097.21C1207.56 1097.21 1215.77 1095.48 1223.88 1092.01V1102.41C1219.75 1104.2 1215.84 1105.46 1212.13 1106.21C1208.48 1107.01 1204.05 1107.41 1198.84 1107.41ZM1195.68 1037.3C1189.49 1037.3 1184.55 1039.32 1180.84 1043.35C1177.19 1047.38 1175.03 1052.96 1174.38 1060.09H1214.66C1214.66 1052.73 1213.02 1047.1 1209.74 1043.21C1206.46 1039.27 1201.77 1037.3 1195.68 1037.3ZM1290.94 1027.53C1294.37 1027.53 1297.44 1027.81 1300.16 1028.38L1298.54 1039.2C1295.35 1038.5 1292.54 1038.15 1290.1 1038.15C1283.87 1038.15 1278.52 1040.68 1274.07 1045.74C1269.66 1050.8 1267.46 1057.11 1267.46 1064.66V1106H1255.79V1028.94H1265.42L1266.76 1043.21H1267.32C1270.18 1038.2 1273.62 1034.33 1277.66 1031.61C1281.69 1028.89 1286.12 1027.53 1290.94 1027.53ZM1354.01 1107.41C1342.85 1107.41 1334.2 1103.98 1328.06 1097.14C1321.97 1090.25 1318.92 1080.52 1318.92 1067.96C1318.92 1055.07 1322.01 1045.11 1328.2 1038.08C1334.44 1031.05 1343.3 1027.53 1354.78 1027.53C1358.48 1027.53 1362.19 1027.93 1365.89 1028.73C1369.59 1029.52 1372.5 1030.46 1374.61 1031.54L1371.02 1041.45C1368.44 1040.42 1365.63 1039.58 1362.58 1038.92C1359.54 1038.22 1356.84 1037.87 1354.5 1037.87C1338.84 1037.87 1331.01 1047.85 1331.01 1067.82C1331.01 1077.29 1332.91 1084.55 1336.71 1089.62C1340.55 1094.68 1346.23 1097.21 1353.73 1097.21C1360.15 1097.21 1366.73 1095.83 1373.48 1093.06V1103.4C1368.33 1106.07 1361.83 1107.41 1354.01 1107.41ZM1436.33 1107.41C1431.32 1107.41 1426.72 1106.49 1422.55 1104.66C1418.43 1102.79 1414.96 1099.93 1412.15 1096.09H1411.3C1411.87 1100.59 1412.15 1104.85 1412.15 1108.88V1140.59H1400.47V1028.94H1409.97L1411.58 1039.48H1412.15C1415.15 1035.27 1418.64 1032.22 1422.62 1030.34C1426.61 1028.47 1431.18 1027.53 1436.33 1027.53C1446.55 1027.53 1454.43 1031.02 1459.96 1038.01C1465.54 1044.99 1468.33 1054.79 1468.33 1067.4C1468.33 1080.05 1465.49 1089.9 1459.82 1096.93C1454.19 1103.91 1446.37 1107.41 1436.33 1107.41ZM1434.65 1037.45C1426.77 1037.45 1421.08 1039.62 1417.56 1043.98C1414.04 1048.34 1412.24 1055.28 1412.15 1064.8V1067.4C1412.15 1078.23 1413.95 1085.98 1417.56 1090.67C1421.17 1095.31 1426.96 1097.63 1434.93 1097.63C1441.58 1097.63 1446.79 1094.94 1450.54 1089.55C1454.33 1084.16 1456.23 1076.73 1456.23 1067.26C1456.23 1057.65 1454.33 1050.29 1450.54 1045.18C1446.79 1040.02 1441.49 1037.45 1434.65 1037.45ZM1529.98 1107.41C1518.59 1107.41 1509.59 1103.94 1502.98 1097C1496.42 1090.06 1493.14 1080.43 1493.14 1068.1C1493.14 1055.68 1496.18 1045.81 1502.28 1038.5C1508.42 1031.19 1516.65 1027.53 1526.96 1027.53C1536.61 1027.53 1544.26 1030.72 1549.88 1037.09C1555.51 1043.42 1558.32 1051.79 1558.32 1062.2V1069.58H1505.23C1505.47 1078.62 1507.74 1085.49 1512.05 1090.18C1516.41 1094.87 1522.53 1097.21 1530.4 1097.21C1538.7 1097.21 1546.9 1095.48 1555.01 1092.01V1102.41C1550.89 1104.2 1546.97 1105.46 1543.27 1106.21C1539.61 1107.01 1535.18 1107.41 1529.98 1107.41ZM1526.82 1037.3C1520.63 1037.3 1515.68 1039.32 1511.98 1043.35C1508.33 1047.38 1506.17 1052.96 1505.51 1060.09H1545.8C1545.8 1052.73 1544.16 1047.1 1540.88 1043.21C1537.6 1039.27 1532.91 1037.3 1526.82 1037.3ZM1617.72 1107.41C1606.57 1107.41 1597.92 1103.98 1591.78 1097.14C1585.68 1090.25 1582.64 1080.52 1582.64 1067.96C1582.64 1055.07 1585.73 1045.11 1591.92 1038.08C1598.15 1031.05 1607.01 1027.53 1618.5 1027.53C1622.2 1027.53 1625.9 1027.93 1629.61 1028.73C1633.31 1029.52 1636.22 1030.46 1638.32 1031.54L1634.74 1041.45C1632.16 1040.42 1629.35 1039.58 1626.3 1038.92C1623.25 1038.22 1620.56 1037.87 1618.22 1037.87C1602.56 1037.87 1594.73 1047.85 1594.73 1067.82C1594.73 1077.29 1596.63 1084.55 1600.43 1089.62C1604.27 1094.68 1609.94 1097.21 1617.44 1097.21C1623.86 1097.21 1630.45 1095.83 1637.2 1093.06V1103.4C1632.04 1106.07 1625.55 1107.41 1617.72 1107.41ZM1689.08 1097.77C1691.14 1097.77 1693.14 1097.63 1695.06 1097.35C1696.98 1097.02 1698.5 1096.7 1699.63 1096.37V1105.3C1698.36 1105.91 1696.49 1106.4 1694 1106.77C1691.57 1107.2 1689.36 1107.41 1687.39 1107.41C1672.49 1107.41 1665.04 1099.55 1665.04 1083.85V1038.01H1654V1032.38L1665.04 1027.53L1669.96 1011.08H1676.71V1028.94H1699.07V1038.01H1676.71V1083.36C1676.71 1088 1677.81 1091.56 1680.01 1094.05C1682.21 1096.53 1685.24 1097.77 1689.08 1097.77ZM1735.41 1106H1723.74V1028.94H1735.41V1106ZM1722.75 1008.05C1722.75 1005.38 1723.41 1003.44 1724.72 1002.22C1726.03 1000.95 1727.68 1000.32 1729.64 1000.32C1731.52 1000.32 1733.14 1000.95 1734.5 1002.22C1735.85 1003.48 1736.53 1005.43 1736.53 1008.05C1736.53 1010.68 1735.85 1012.65 1734.5 1013.96C1733.14 1015.23 1731.52 1015.86 1729.64 1015.86C1727.68 1015.86 1726.03 1015.23 1724.72 1013.96C1723.41 1012.65 1722.75 1010.68 1722.75 1008.05ZM1785.67 1106L1756.42 1028.94H1768.94L1785.53 1074.64C1789.28 1085.33 1791.49 1092.27 1792.14 1095.45H1792.71C1793.22 1092.97 1794.84 1087.84 1797.56 1080.05C1800.32 1072.23 1806.49 1055.19 1816.05 1028.94H1828.57L1799.32 1106H1785.67ZM1882.14 1107.41C1870.74 1107.41 1861.74 1103.94 1855.14 1097C1848.57 1090.06 1845.29 1080.43 1845.29 1068.1C1845.29 1055.68 1848.34 1045.81 1854.43 1038.5C1860.57 1031.19 1868.8 1027.53 1879.11 1027.53C1888.77 1027.53 1896.41 1030.72 1902.03 1037.09C1907.66 1043.42 1910.47 1051.79 1910.47 1062.2V1069.58H1857.39C1857.62 1078.62 1859.89 1085.49 1864.21 1090.18C1868.56 1094.87 1874.68 1097.21 1882.56 1097.21C1890.85 1097.21 1899.06 1095.48 1907.17 1092.01V1102.41C1903.04 1104.2 1899.13 1105.46 1895.42 1106.21C1891.77 1107.01 1887.34 1107.41 1882.14 1107.41ZM1878.97 1037.3C1872.78 1037.3 1867.84 1039.32 1864.14 1043.35C1860.48 1047.38 1858.32 1052.96 1857.67 1060.09H1897.96C1897.96 1052.73 1896.31 1047.1 1893.03 1043.21C1889.75 1039.27 1885.06 1037.3 1878.97 1037.3Z" fill="#020612"/>
<path d="M41.6703 56.4062C36.6547 56.4062 32.0609 55.4922 27.889 53.6641C23.764 51.7891 20.2953 48.9297 17.4828 45.0859H16.639C17.2015 49.5859 17.4828 53.8516 17.4828 57.8828V89.5938H5.81091V-22.0625H15.3031L16.9203 -11.5156H17.4828C20.4828 -15.7344 23.975 -18.7812 27.9594 -20.6562C31.9437 -22.5312 36.514 -23.4688 41.6703 -23.4688C51.889 -23.4688 59.764 -19.9766 65.2953 -12.9922C70.8734 -6.00781 73.6625 3.78906 73.6625 16.3984C73.6625 29.0547 70.8265 38.8984 65.1547 45.9297C59.5297 52.9141 51.7015 56.4062 41.6703 56.4062ZM39.9828 -13.5547C32.1078 -13.5547 26.4125 -11.375 22.8969 -7.01562C19.3812 -2.65625 17.5765 4.28125 17.4828 13.7969V16.3984C17.4828 27.2266 19.2875 34.9844 22.8969 39.6719C26.5062 44.3125 32.2953 46.6328 40.264 46.6328C46.9203 46.6328 52.1234 43.9375 55.8734 38.5469C59.6703 33.1562 61.5687 25.7266 61.5687 16.2578C61.5687 6.64844 59.6703 -0.710938 55.8734 -5.82031C52.1234 -10.9766 46.8265 -13.5547 39.9828 -13.5547ZM137.92 -23.4688C141.342 -23.4688 144.412 -23.1875 147.131 -22.625L145.513 -11.7969C142.326 -12.5 139.513 -12.8516 137.076 -12.8516C130.842 -12.8516 125.498 -10.3203 121.045 -5.25781C116.638 -0.195312 114.435 6.10938 114.435 13.6562V55H102.763V-22.0625H112.396L113.732 -7.78906H114.295C117.154 -12.8047 120.599 -16.6719 124.631 -19.3906C128.662 -22.1094 133.092 -23.4688 137.92 -23.4688ZM236.7 16.3984C236.7 28.9609 233.536 38.7812 227.208 45.8594C220.88 52.8906 212.138 56.4062 200.982 56.4062C194.091 56.4062 187.974 54.7891 182.63 51.5547C177.286 48.3203 173.161 43.6797 170.255 37.6328C167.349 31.5859 165.896 24.5078 165.896 16.3984C165.896 3.83594 169.036 -5.9375 175.317 -12.9219C181.599 -19.9531 190.317 -23.4688 201.474 -23.4688C212.255 -23.4688 220.81 -19.8828 227.138 -12.7109C233.513 -5.53906 236.7 4.16406 236.7 16.3984ZM177.989 16.3984C177.989 26.2422 179.958 33.7422 183.896 38.8984C187.833 44.0547 193.622 46.6328 201.263 46.6328C208.903 46.6328 214.692 44.0781 218.63 38.9688C222.614 33.8125 224.607 26.2891 224.607 16.3984C224.607 6.60156 222.614 -0.828125 218.63 -5.89062C214.692 -11 208.857 -13.5547 201.122 -13.5547C193.482 -13.5547 187.716 -11.0469 183.825 -6.03125C179.935 -1.01562 177.989 6.46094 177.989 16.3984ZM301.731 -23.3281C311.856 -23.3281 319.707 -19.8594 325.286 -12.9219C330.911 -6.03125 333.723 3.74219 333.723 16.3984C333.723 29.0547 330.887 38.8984 325.215 45.9297C319.59 52.9141 311.762 56.4062 301.731 56.4062C296.715 56.4062 292.122 55.4922 287.95 53.6641C283.825 51.7891 280.356 48.9297 277.543 45.0859H276.7L274.239 55H265.872V-54.4062H277.543V-27.8281C277.543 -21.875 277.356 -16.5312 276.981 -11.7969H277.543C282.981 -19.4844 291.043 -23.3281 301.731 -23.3281ZM300.043 -13.5547C292.075 -13.5547 286.332 -11.2578 282.817 -6.66406C279.301 -2.11719 277.543 5.57031 277.543 16.3984C277.543 27.2266 279.348 34.9844 282.957 39.6719C286.567 44.3125 292.356 46.6328 300.325 46.6328C307.497 46.6328 312.84 44.0312 316.356 38.8281C319.872 33.5781 321.629 26.0547 321.629 16.2578C321.629 6.22656 319.872 -1.25 316.356 -6.17188C312.84 -11.0938 307.403 -13.5547 300.043 -13.5547ZM374.496 55H362.824V-54.4062H374.496V55ZM440.441 56.4062C429.05 56.4062 420.05 52.9375 413.441 46C406.878 39.0625 403.597 29.4297 403.597 17.1016C403.597 4.67969 406.644 -5.1875 412.737 -12.5C418.878 -19.8125 427.105 -23.4688 437.417 -23.4688C447.073 -23.4688 454.714 -20.2812 460.339 -13.9062C465.964 -7.57812 468.777 0.789062 468.777 11.1953V18.5781H415.691C415.925 27.625 418.198 34.4922 422.511 39.1797C426.87 43.8672 432.987 46.2109 440.862 46.2109C449.159 46.2109 457.362 44.4766 465.472 41.0078V51.4141C461.347 53.1953 457.433 54.4609 453.73 55.2109C450.073 56.0078 445.644 56.4062 440.441 56.4062ZM437.277 -13.6953C431.089 -13.6953 426.144 -11.6797 422.441 -7.64844C418.784 -3.61719 416.628 1.96094 415.972 9.08594H456.261C456.261 1.72656 454.62 -3.89844 451.339 -7.78906C448.058 -11.7266 443.37 -13.6953 437.277 -13.6953ZM595.612 55V4.86719C595.612 -1.27344 594.299 -5.86719 591.674 -8.91406C589.049 -12.0078 584.971 -13.5547 579.44 -13.5547C572.174 -13.5547 566.807 -11.4688 563.338 -7.29688C559.87 -3.125 558.135 3.29688 558.135 11.9688V55H546.463V4.86719C546.463 -1.27344 545.151 -5.86719 542.526 -8.91406C539.901 -12.0078 535.799 -13.5547 530.221 -13.5547C522.909 -13.5547 517.542 -11.3516 514.12 -6.94531C510.745 -2.58594 509.057 4.58594 509.057 14.5703V55H497.385V-22.0625H506.877L508.776 -11.5156H509.338C511.542 -15.2656 514.635 -18.1953 518.62 -20.3047C522.651 -22.4141 527.151 -23.4688 532.12 -23.4688C544.167 -23.4688 552.042 -19.1094 555.745 -10.3906H556.307C558.604 -14.4219 561.932 -17.6094 566.292 -19.9531C570.651 -22.2969 575.62 -23.4688 581.198 -23.4688C589.917 -23.4688 596.432 -21.2188 600.745 -16.7188C605.104 -12.2656 607.284 -5.11719 607.284 4.72656V55H595.612ZM735.798 33.9766C735.798 41.1484 733.126 46.6797 727.782 50.5703C722.439 54.4609 714.939 56.4062 705.282 56.4062C695.064 56.4062 687.095 54.7891 681.376 51.5547V40.7266C685.079 42.6016 689.04 44.0781 693.259 45.1562C697.525 46.2344 701.626 46.7734 705.564 46.7734C711.657 46.7734 716.345 45.8125 719.626 43.8906C722.907 41.9219 724.548 38.9453 724.548 34.9609C724.548 31.9609 723.236 29.4062 720.611 27.2969C718.032 25.1406 712.97 22.6094 705.423 19.7031C698.251 17.0312 693.142 14.7109 690.095 12.7422C687.095 10.7266 684.845 8.45312 683.345 5.92188C681.892 3.39062 681.165 0.367188 681.165 -3.14844C681.165 -9.42969 683.72 -14.375 688.829 -17.9844C693.939 -21.6406 700.947 -23.4688 709.853 -23.4688C718.15 -23.4688 726.259 -21.7812 734.181 -18.4062L730.032 -8.91406C722.298 -12.1016 715.29 -13.6953 709.009 -13.6953C703.478 -13.6953 699.306 -12.8281 696.493 -11.0938C693.681 -9.35938 692.275 -6.96875 692.275 -3.92188C692.275 -1.85938 692.79 -0.101562 693.822 1.35156C694.9 2.80469 696.611 4.1875 698.954 5.5C701.298 6.8125 705.798 8.71094 712.454 11.1953C721.595 14.5234 727.759 17.875 730.947 21.25C734.181 24.625 735.798 28.8672 735.798 33.9766ZM830.008 16.3984C830.008 28.9609 826.844 38.7812 820.516 45.8594C814.188 52.8906 805.446 56.4062 794.29 56.4062C787.399 56.4062 781.282 54.7891 775.938 51.5547C770.594 48.3203 766.469 43.6797 763.563 37.6328C760.657 31.5859 759.204 24.5078 759.204 16.3984C759.204 3.83594 762.344 -5.9375 768.626 -12.9219C774.907 -19.9531 783.626 -23.4688 794.782 -23.4688C805.563 -23.4688 814.118 -19.8828 820.446 -12.7109C826.821 -5.53906 830.008 4.16406 830.008 16.3984ZM771.297 16.3984C771.297 26.2422 773.266 33.7422 777.204 38.8984C781.141 44.0547 786.93 46.6328 794.571 46.6328C802.212 46.6328 808.001 44.0781 811.938 38.9688C815.922 33.8125 817.915 26.2891 817.915 16.3984C817.915 6.60156 815.922 -0.828125 811.938 -5.89062C808.001 -11 802.165 -13.5547 794.43 -13.5547C786.79 -13.5547 781.024 -11.0469 777.133 -6.03125C773.243 -1.01562 771.297 6.46094 771.297 16.3984ZM870.852 55H859.18V-54.4062H870.852V55ZM921.117 55L891.867 -22.0625H904.382L920.976 23.6406C924.726 34.3281 926.929 41.2656 927.585 44.4531H928.148C928.663 41.9688 930.281 36.8359 932.999 29.0547C935.765 21.2266 941.929 4.1875 951.492 -22.0625H964.007L934.757 55H921.117ZM996.694 55H985.022V-22.0625H996.694V55ZM984.038 -42.9453C984.038 -45.6172 984.694 -47.5625 986.007 -48.7812C987.319 -50.0469 988.96 -50.6797 990.928 -50.6797C992.803 -50.6797 994.421 -50.0469 995.78 -48.7812C997.139 -47.5156 997.819 -45.5703 997.819 -42.9453C997.819 -40.3203 997.139 -38.3516 995.78 -37.0391C994.421 -35.7734 992.803 -35.1406 990.928 -35.1406C988.96 -35.1406 987.319 -35.7734 986.007 -37.0391C984.694 -38.3516 984.038 -40.3203 984.038 -42.9453ZM1082.82 55V5.14844C1082.82 -1.13281 1081.39 -5.82031 1078.53 -8.91406C1075.67 -12.0078 1071.19 -13.5547 1065.1 -13.5547C1057.04 -13.5547 1051.13 -11.375 1047.38 -7.01562C1043.63 -2.65625 1041.76 4.53906 1041.76 14.5703V55H1030.08V-22.0625H1039.58L1041.47 -11.5156H1042.04C1044.43 -15.3125 1047.78 -18.2422 1052.09 -20.3047C1056.4 -22.4141 1061.21 -23.4688 1066.51 -23.4688C1075.79 -23.4688 1082.77 -21.2188 1087.46 -16.7188C1092.15 -12.2656 1094.49 -5.11719 1094.49 4.72656V55H1082.82ZM1190.25 -22.0625V-14.6797L1175.97 -12.9922C1177.29 -11.3516 1178.46 -9.19531 1179.49 -6.52344C1180.52 -3.89844 1181.04 -0.921875 1181.04 2.40625C1181.04 9.95312 1178.46 15.9766 1173.3 20.4766C1168.15 24.9766 1161.07 27.2266 1152.07 27.2266C1149.77 27.2266 1147.61 27.0391 1145.6 26.6641C1140.63 29.2891 1138.15 32.5938 1138.15 36.5781C1138.15 38.6875 1139.01 40.2578 1140.75 41.2891C1142.48 42.2734 1145.46 42.7656 1149.68 42.7656H1163.32C1171.66 42.7656 1178.06 44.5234 1182.51 48.0391C1187.01 51.5547 1189.26 56.6641 1189.26 63.3672C1189.26 71.8984 1185.84 78.3906 1179 82.8438C1172.15 87.3438 1162.17 89.5938 1149.04 89.5938C1138.97 89.5938 1131.18 87.7188 1125.7 83.9688C1120.26 80.2188 1117.54 74.9219 1117.54 68.0781C1117.54 63.3906 1119.04 59.3359 1122.04 55.9141C1125.04 52.4922 1129.26 50.1719 1134.7 48.9531C1132.73 48.0625 1131.07 46.6797 1129.71 44.8047C1128.4 42.9297 1127.74 40.75 1127.74 38.2656C1127.74 35.4531 1128.49 32.9922 1129.99 30.8828C1131.49 28.7734 1133.86 26.7344 1137.09 24.7656C1133.11 23.125 1129.85 20.3359 1127.32 16.3984C1124.83 12.4609 1123.59 7.96094 1123.59 2.89844C1123.59 -5.53906 1126.12 -12.0312 1131.18 -16.5781C1136.25 -21.1719 1143.42 -23.4688 1152.7 -23.4688C1156.73 -23.4688 1160.36 -23 1163.6 -22.0625H1190.25ZM1128.79 67.9375C1128.79 72.1094 1130.55 75.2734 1134.07 77.4297C1137.58 79.5859 1142.62 80.6641 1149.18 80.6641C1158.98 80.6641 1166.22 79.1875 1170.91 76.2344C1175.65 73.3281 1178.01 69.3672 1178.01 64.3516C1178.01 60.1797 1176.72 57.2734 1174.15 55.6328C1171.57 54.0391 1166.72 53.2422 1159.59 53.2422H1145.6C1140.3 53.2422 1136.18 54.5078 1133.22 57.0391C1130.27 59.5703 1128.79 63.2031 1128.79 67.9375ZM1135.12 2.61719C1135.12 8.00781 1136.65 12.0859 1139.69 14.8516C1142.74 17.6172 1146.98 19 1152.42 19C1163.81 19 1169.51 13.4688 1169.51 2.40625C1169.51 -9.17188 1163.74 -14.9609 1152.21 -14.9609C1146.72 -14.9609 1142.51 -13.4844 1139.55 -10.5312C1136.6 -7.57812 1135.12 -3.19531 1135.12 2.61719ZM1295.91 -23.4688C1299.33 -23.4688 1302.4 -23.1875 1305.12 -22.625L1303.5 -11.7969C1300.32 -12.5 1297.5 -12.8516 1295.07 -12.8516C1288.83 -12.8516 1283.49 -10.3203 1279.04 -5.25781C1274.63 -0.195312 1272.43 6.10938 1272.43 13.6562V55H1260.75V-22.0625H1270.39L1271.72 -7.78906H1272.29C1275.14 -12.8047 1278.59 -16.6719 1282.62 -19.3906C1286.65 -22.1094 1291.08 -23.4688 1295.91 -23.4688ZM1363.33 -23.4688C1366.75 -23.4688 1369.82 -23.1875 1372.54 -22.625L1370.93 -11.7969C1367.74 -12.5 1364.93 -12.8516 1362.49 -12.8516C1356.25 -12.8516 1350.91 -10.3203 1346.46 -5.25781C1342.05 -0.195312 1339.85 6.10938 1339.85 13.6562V55H1328.18V-22.0625H1337.81L1339.14 -7.78906H1339.71C1342.57 -12.8047 1346.01 -16.6719 1350.04 -19.3906C1354.07 -22.1094 1358.5 -23.4688 1363.33 -23.4688ZM1462.11 16.3984C1462.11 28.9609 1458.95 38.7812 1452.62 45.8594C1446.29 52.8906 1437.55 56.4062 1426.39 56.4062C1419.5 56.4062 1413.39 54.7891 1408.04 51.5547C1402.7 48.3203 1398.57 43.6797 1395.67 37.6328C1392.76 31.5859 1391.31 24.5078 1391.31 16.3984C1391.31 3.83594 1394.45 -5.9375 1400.73 -12.9219C1407.01 -19.9531 1415.73 -23.4688 1426.89 -23.4688C1437.67 -23.4688 1446.22 -19.8828 1452.55 -12.7109C1458.92 -5.53906 1462.11 4.16406 1462.11 16.3984ZM1403.4 16.3984C1403.4 26.2422 1405.37 33.7422 1409.31 38.8984C1413.24 44.0547 1419.03 46.6328 1426.67 46.6328C1434.32 46.6328 1440.1 44.0781 1444.04 38.9688C1448.03 33.8125 1450.02 26.2891 1450.02 16.3984C1450.02 6.60156 1448.03 -0.828125 1444.04 -5.89062C1440.1 -11 1434.27 -13.5547 1426.53 -13.5547C1418.89 -13.5547 1413.13 -11.0469 1409.24 -6.03125C1405.35 -1.01562 1403.4 6.46094 1403.4 16.3984ZM1589.51 55V4.86719C1589.51 -1.27344 1588.2 -5.86719 1585.57 -8.91406C1582.95 -12.0078 1578.87 -13.5547 1573.34 -13.5547C1566.07 -13.5547 1560.71 -11.4688 1557.24 -7.29688C1553.77 -3.125 1552.03 3.29688 1552.03 11.9688V55H1540.36V4.86719C1540.36 -1.27344 1539.05 -5.86719 1536.42 -8.91406C1533.8 -12.0078 1529.7 -13.5547 1524.12 -13.5547C1516.81 -13.5547 1511.44 -11.3516 1508.02 -6.94531C1504.64 -2.58594 1502.96 4.58594 1502.96 14.5703V55H1491.28V-22.0625H1500.78L1502.67 -11.5156H1503.24C1505.44 -15.2656 1508.53 -18.1953 1512.52 -20.3047C1516.55 -22.4141 1521.05 -23.4688 1526.02 -23.4688C1538.06 -23.4688 1545.94 -19.1094 1549.64 -10.3906H1550.21C1552.5 -14.4219 1555.83 -17.6094 1560.19 -19.9531C1564.55 -22.2969 1569.52 -23.4688 1575.1 -23.4688C1583.81 -23.4688 1590.33 -21.2188 1594.64 -16.7188C1599 -12.2656 1601.18 -5.11719 1601.18 4.72656V55H1589.51Z" fill="#020612"/>
</g>
<defs>
<clipPath id="clip0">
<rect width="1920" height="1080" fill="white"/>
</clipPath>
</defs>
</svg>
