<svg width="1920" height="1080" viewBox="0 0 1920 1080" fill="none" xmlns="http://www.w3.org/2000/svg">
<g clip-path="url(#clip0)">
<rect width="1920" height="1080" fill="white"/>
<path d="M1100.44 503H1097.4L1094.49 492.781C1094.37 492.336 1094.21 491.695 1094.02 490.859C1093.84 490.016 1093.72 489.43 1093.68 489.102C1093.6 489.602 1093.48 490.25 1093.3 491.047C1093.12 491.844 1092.98 492.438 1092.86 492.828L1090.03 503H1086.98L1084.76 494.422L1082.51 485.867H1085.37L1087.82 495.852C1088.21 497.453 1088.48 498.867 1088.64 500.094C1088.73 499.43 1088.86 498.688 1089.03 497.867C1089.2 497.047 1089.36 496.383 1089.5 495.875L1092.29 485.867H1095.07L1097.93 495.922C1098.2 496.852 1098.49 498.242 1098.79 500.094C1098.91 498.977 1099.19 497.555 1099.64 495.828L1102.07 485.867H1104.91L1100.44 503ZM1127.48 503H1117.79V485.867H1127.48V488.234H1120.59V492.898H1127.04V495.242H1120.59V500.621H1127.48V503ZM1152.26 503L1150.55 498.242H1144L1142.32 503H1139.37L1145.78 485.797H1148.83L1155.24 503H1152.26ZM1149.81 495.828L1148.21 491.164C1148.09 490.852 1147.93 490.359 1147.72 489.688C1147.51 489.016 1147.37 488.523 1147.29 488.211C1147.08 489.172 1146.77 490.223 1146.37 491.363L1144.82 495.828H1149.81ZM1181.02 503H1177.77L1172.39 495.242L1170.74 496.59V503H1167.94V485.867H1170.74V494.047C1171.51 493.109 1172.27 492.207 1173.03 491.34L1177.66 485.867H1180.84C1177.85 489.383 1175.71 491.887 1174.41 493.379L1181.02 503ZM1217.81 503L1212.84 488.691H1212.75C1212.88 490.816 1212.95 492.809 1212.95 494.668V503H1210.41V485.867H1214.36L1219.11 499.496H1219.18L1224.08 485.867H1228.04V503H1225.35V494.527C1225.35 493.676 1225.37 492.566 1225.41 491.199C1225.45 489.832 1225.49 489.004 1225.52 488.715H1225.43L1220.29 503H1217.81ZM1242.99 503V485.867H1245.8V503H1242.99ZM1260.77 503V485.867H1263.57V500.598H1270.83V503H1260.77ZM1297.3 503H1294.05L1288.67 495.242L1287.02 496.59V503H1284.22V485.867H1287.02V494.047C1287.78 493.109 1288.55 492.207 1289.3 491.34L1293.93 485.867H1297.12C1294.13 489.383 1291.98 491.887 1290.69 493.379L1297.3 503ZM1314.85 493.684L1318.9 485.867H1321.95L1316.24 496.355V503H1313.43V496.449L1307.75 485.867H1310.8L1314.85 493.684ZM1150.72 521.023C1149.11 521.023 1147.85 521.594 1146.92 522.734C1146 523.875 1145.54 525.449 1145.54 527.457C1145.54 529.559 1145.98 531.148 1146.86 532.227C1147.76 533.305 1149.04 533.844 1150.72 533.844C1151.45 533.844 1152.15 533.773 1152.83 533.633C1153.51 533.484 1154.22 533.297 1154.95 533.07V535.473C1153.61 535.98 1152.08 536.234 1150.38 536.234C1147.87 536.234 1145.95 535.477 1144.6 533.961C1143.26 532.438 1142.59 530.262 1142.59 527.434C1142.59 525.652 1142.91 524.094 1143.56 522.758C1144.22 521.422 1145.16 520.398 1146.4 519.688C1147.63 518.977 1149.08 518.621 1150.74 518.621C1152.49 518.621 1154.11 518.988 1155.6 519.723L1154.59 522.055C1154.01 521.781 1153.4 521.543 1152.75 521.34C1152.11 521.129 1151.43 521.023 1150.72 521.023ZM1184.29 527.41C1184.29 530.199 1183.59 532.367 1182.2 533.914C1180.8 535.461 1178.83 536.234 1176.28 536.234C1173.69 536.234 1171.7 535.469 1170.31 533.938C1168.93 532.398 1168.24 530.215 1168.24 527.387C1168.24 524.559 1168.93 522.387 1170.32 520.871C1171.72 519.355 1173.71 518.598 1176.3 518.598C1178.85 518.598 1180.82 519.367 1182.21 520.906C1183.6 522.445 1184.29 524.613 1184.29 527.41ZM1171.21 527.41C1171.21 529.52 1171.64 531.121 1172.49 532.215C1173.34 533.301 1174.61 533.844 1176.28 533.844C1177.94 533.844 1179.2 533.305 1180.04 532.227C1180.89 531.148 1181.32 529.543 1181.32 527.41C1181.32 525.309 1180.89 523.715 1180.05 522.629C1179.21 521.543 1177.96 521 1176.3 521C1174.62 521 1173.35 521.543 1172.49 522.629C1171.64 523.715 1171.21 525.309 1171.21 527.41ZM1201.19 536H1198.41V518.867H1208.08V521.234H1201.19V526.59H1207.65V528.969H1201.19V536ZM1224.4 536H1221.63V518.867H1231.29V521.234H1224.4V526.59H1230.86V528.969H1224.4V536ZM1254.53 536H1244.84V518.867H1254.53V521.234H1247.64V525.898H1254.1V528.242H1247.64V533.621H1254.53V536ZM1278.38 536H1268.69V518.867H1278.38V521.234H1271.49V525.898H1277.94V528.242H1271.49V533.621H1278.38V536Z" fill="black"/>
<path d="M1483.28 844.27C1483.28 847.098 1482.5 849.262 1480.93 850.762C1479.36 852.254 1477.09 853 1474.14 853H1469.35V835.867H1474.65C1477.37 835.867 1479.49 836.602 1481.01 838.07C1482.52 839.539 1483.28 841.605 1483.28 844.27ZM1480.33 844.363C1480.33 840.262 1478.41 838.211 1474.57 838.211H1472.15V850.645H1474.14C1478.27 850.645 1480.33 848.551 1480.33 844.363ZM1508.04 853L1506.33 848.242H1499.78L1498.1 853H1495.15L1501.56 835.797H1504.61L1511.02 853H1508.04ZM1505.59 845.828L1503.99 841.164C1503.87 840.852 1503.71 840.359 1503.5 839.688C1503.29 839.016 1503.15 838.523 1503.07 838.211C1502.86 839.172 1502.55 840.223 1502.15 841.363L1500.6 845.828H1505.59ZM1526.52 843.836H1528.47C1529.77 843.836 1530.72 843.594 1531.3 843.109C1531.89 842.625 1532.18 841.906 1532.18 840.953C1532.18 839.984 1531.86 839.289 1531.23 838.867C1530.6 838.445 1529.65 838.234 1528.37 838.234H1526.52V843.836ZM1526.52 846.156V853H1523.72V835.867H1528.56C1530.77 835.867 1532.41 836.281 1533.47 837.109C1534.53 837.938 1535.06 839.188 1535.06 840.859C1535.06 842.992 1533.95 844.512 1531.74 845.418L1536.58 853H1533.39L1529.29 846.156H1526.52ZM1562.59 853H1559.34L1553.97 845.242L1552.31 846.59V853H1549.51V835.867H1552.31V844.047C1553.08 843.109 1553.84 842.207 1554.6 841.34L1559.23 835.867H1562.41C1559.42 839.383 1557.28 841.887 1555.98 843.379L1562.59 853ZM1605.91 844.27C1605.91 847.098 1605.13 849.262 1603.56 850.762C1601.99 852.254 1599.72 853 1596.77 853H1591.98V835.867H1597.27C1600 835.867 1602.12 836.602 1603.64 838.07C1605.15 839.539 1605.91 841.605 1605.91 844.27ZM1602.96 844.363C1602.96 840.262 1601.04 838.211 1597.2 838.211H1594.78V850.645H1596.77C1600.9 850.645 1602.96 848.551 1602.96 844.363ZM1629.73 853H1620.04V835.867H1629.73V838.234H1622.84V842.898H1629.3V845.242H1622.84V850.621H1629.73V853ZM1653.58 853H1643.89V835.867H1653.58V838.234H1646.69V842.898H1653.15V845.242H1646.69V850.621H1653.58V853ZM1679.08 841.047C1679.08 842.836 1678.49 844.207 1677.32 845.16C1676.15 846.113 1674.48 846.59 1672.32 846.59H1670.54V853H1667.74V835.867H1672.67C1674.81 835.867 1676.41 836.305 1677.47 837.18C1678.54 838.055 1679.08 839.344 1679.08 841.047ZM1670.54 844.234H1672.02C1673.46 844.234 1674.52 843.984 1675.19 843.484C1675.86 842.984 1676.2 842.203 1676.2 841.141C1676.2 840.156 1675.9 839.422 1675.29 838.938C1674.69 838.453 1673.75 838.211 1672.48 838.211H1670.54V844.234ZM1514.93 876.836H1516.88C1518.18 876.836 1519.13 876.594 1519.71 876.109C1520.3 875.625 1520.59 874.906 1520.59 873.953C1520.59 872.984 1520.28 872.289 1519.64 871.867C1519.01 871.445 1518.06 871.234 1516.78 871.234H1514.93V876.836ZM1514.93 879.156V886H1512.13V868.867H1516.97C1519.18 868.867 1520.82 869.281 1521.88 870.109C1522.94 870.938 1523.47 872.188 1523.47 873.859C1523.47 875.992 1522.36 877.512 1520.15 878.418L1524.99 886H1521.8L1517.7 879.156H1514.93ZM1553.13 877.41C1553.13 880.199 1552.43 882.367 1551.04 883.914C1549.64 885.461 1547.67 886.234 1545.12 886.234C1542.53 886.234 1540.54 885.469 1539.15 883.938C1537.77 882.398 1537.08 880.215 1537.08 877.387C1537.08 874.559 1537.77 872.387 1539.16 870.871C1540.56 869.355 1542.55 868.598 1545.14 868.598C1547.69 868.598 1549.66 869.367 1551.05 870.906C1552.44 872.445 1553.13 874.613 1553.13 877.41ZM1540.05 877.41C1540.05 879.52 1540.48 881.121 1541.33 882.215C1542.18 883.301 1543.45 883.844 1545.12 883.844C1546.78 883.844 1548.04 883.305 1548.88 882.227C1549.73 881.148 1550.16 879.543 1550.16 877.41C1550.16 875.309 1549.73 873.715 1548.89 872.629C1548.05 871.543 1546.8 871 1545.14 871C1543.46 871 1542.19 871.543 1541.33 872.629C1540.48 873.715 1540.05 875.309 1540.05 877.41ZM1577.13 881.348C1577.13 882.871 1576.58 884.066 1575.48 884.934C1574.38 885.801 1572.86 886.234 1570.92 886.234C1568.98 886.234 1567.4 885.934 1566.16 885.332V882.684C1566.94 883.051 1567.77 883.34 1568.65 883.551C1569.53 883.762 1570.35 883.867 1571.11 883.867C1572.22 883.867 1573.03 883.656 1573.56 883.234C1574.09 882.812 1574.35 882.246 1574.35 881.535C1574.35 880.895 1574.11 880.352 1573.63 879.906C1573.14 879.461 1572.14 878.934 1570.63 878.324C1569.07 877.691 1567.96 876.969 1567.32 876.156C1566.68 875.344 1566.36 874.367 1566.36 873.227C1566.36 871.797 1566.87 870.672 1567.89 869.852C1568.9 869.031 1570.26 868.621 1571.98 868.621C1573.62 868.621 1575.25 868.98 1576.87 869.699L1575.98 871.984C1574.46 871.344 1573.1 871.023 1571.9 871.023C1571 871.023 1570.31 871.223 1569.84 871.621C1569.37 872.012 1569.14 872.531 1569.14 873.18C1569.14 873.625 1569.23 874.008 1569.42 874.328C1569.61 874.641 1569.92 874.938 1570.35 875.219C1570.78 875.5 1571.55 875.871 1572.67 876.332C1573.92 876.855 1574.85 877.344 1575.43 877.797C1576.02 878.25 1576.45 878.762 1576.72 879.332C1576.99 879.902 1577.13 880.574 1577.13 881.348ZM1596.81 886H1594.01V871.27H1588.97V868.867H1601.85V871.27H1596.81V886ZM1624.61 886H1614.92V868.867H1624.61V871.234H1617.72V875.898H1624.18V878.242H1617.72V883.621H1624.61V886ZM1652.7 877.27C1652.7 880.098 1651.92 882.262 1650.35 883.762C1648.78 885.254 1646.51 886 1643.56 886H1638.77V868.867H1644.06C1646.79 868.867 1648.91 869.602 1650.43 871.07C1651.94 872.539 1652.7 874.605 1652.7 877.27ZM1649.75 877.363C1649.75 873.262 1647.83 871.211 1643.99 871.211H1641.57V883.645H1643.56C1647.69 883.645 1649.75 881.551 1649.75 877.363Z" fill="black"/>
<path fill-rule="evenodd" clip-rule="evenodd" d="M1132 599.477V1080H1289V609.33C1286.7 609.684 1284.4 609.91 1282.09 610.001C1269.07 610.513 1257.07 606.628 1246.68 598.798C1242.3 595.496 1237.91 594.168 1232.95 594.363C1227.62 594.573 1220.59 596.602 1211.58 601.933C1199.39 609.147 1186.82 613.744 1174.16 614.241C1161.14 614.753 1149.14 610.868 1138.75 603.038C1136.53 601.362 1134.3 600.195 1132 599.477Z" fill="#DFC3A9"/>
<path fill-rule="evenodd" clip-rule="evenodd" d="M1504 953.497C1509.57 953.7 1514.56 954.31 1519.01 955.274C1536.76 959.121 1557.12 958.648 1579.53 954.835C1599.53 951.432 1615.15 951.499 1626.94 954.054C1637.42 956.326 1648.81 957.092 1661 956.552V1079.88H1504V953.497Z" fill="#020612"/>
<path fill-rule="evenodd" clip-rule="evenodd" d="M422.996 884.457C422.999 884.176 423 883.896 423 883.614C423 829.151 370.617 785 306 785C241.383 785 189 829.151 189 883.614C189 883.896 189.001 884.176 189.004 884.457H189V1080H423V884.457H422.996Z" fill="#E9E9E9"/>
<ellipse cx="305.554" cy="693.361" rx="70.5268" ry="99.5894" transform="rotate(-17.768 305.554 693.361)" fill="#E9E9E9"/>
<ellipse cx="381.609" cy="682.892" rx="17.5" ry="27" transform="rotate(75 381.609 682.892)" fill="#E9E9E9"/>
<path d="M170 1079.5C173.5 1047 167.341 976.93 170 950.5C178 871 162.5 851 193.5 821.5C207.238 808.427 245.864 788.679 262.5 784M414 1079.5C414 1039 423 873 402.5 836C383.864 802.364 343.833 787.145 313.5 783.145C306.652 784.165 275.417 780.367 262.5 784M262.5 784C237.5 777 193.627 670.288 220.5 625.5C262.5 555.5 348 617.5 353 645.5C354.925 656.279 358.83 665.342 362.287 673.008M262.5 784C285.5 776.542 365.675 802 370 737.5C371.033 722.091 370.888 710.391 370 701.127M362.287 673.008C372.459 665.341 394.366 659 396.802 673.008C400.002 691.408 380.167 698.585 370 701.127M362.287 673.008C365.665 680.498 368.602 686.541 370 701.127" stroke="black"/>
<path d="M224.2 686.593C218.594 693.476 206.055 704.536 200.749 693.714C194.116 680.185 204.425 671.483 218.432 674.829C232.44 678.176 223.633 687.236 211.431 688.476C199.23 689.716 182.71 668.632 196.318 663.055C209.925 657.478 227.113 657.441 226.037 667.818C224.961 678.195 213.974 682.852 210.684 681.547C207.394 680.241 188.137 668.889 195.714 656.419C203.292 643.949 236.205 630.001 231.773 643.483C227.341 656.965 216.436 658.298 205.066 654.023C193.695 649.749 178.512 641.36 195.362 627.773C203.861 620.921 234.157 612.877 242.57 626.151C248 634.718 234.296 644.065 220.512 640.196C213.612 638.26 195.809 618.358 218.637 604.745C243.033 590.197 273.39 613.959 263.573 620.961C253.755 627.963 238.199 630.941 234.584 609.862C233.009 600.679 242.838 592.611 252.714 589.914C270.822 584.97 280.261 619.094 265.212 621.73C250.162 624.366 258.405 618.388 256.695 606.934C255.339 597.843 270.78 576.205 277.616 587.446C284.452 598.686 270.502 637.798 268.202 618.691C265.901 599.585 281.147 565.055 297.512 585.352C309.383 600.074 278.557 634.408 280.97 616.809C283.384 599.21 293.749 572.605 303.739 586.676C313.73 600.748 312.047 627.944 302.167 615.901C292.288 603.858 309.222 569.032 319.951 588.213C330.68 607.394 337.177 622.448 320.754 621.38C304.33 620.313 318.812 574.179 335.807 589.924C349.402 602.519 328.797 621.571 316.796 629.522" stroke="black"/>
<circle cx="341.5" cy="663.5" r="2.5" fill="#252222"/>
<path d="M349.5 670C349.167 672 346.6 676 339 676" stroke="black"/>
<path d="M352 673C351.429 675 347.029 679 334 679" stroke="black"/>
<path d="M429.487 560.434L434.058 551.867H436.214L430.495 562.355V569H428.479V562.449L422.772 551.867H424.952L429.487 560.434ZM445.874 569.234C443.975 569.234 442.475 568.656 441.374 567.5C440.28 566.344 439.733 564.738 439.733 562.684C439.733 560.613 440.241 558.969 441.257 557.75C442.28 556.531 443.651 555.922 445.37 555.922C446.979 555.922 448.253 556.453 449.19 557.516C450.128 558.57 450.596 559.965 450.596 561.699V562.93H441.749C441.788 564.438 442.167 565.582 442.885 566.363C443.612 567.145 444.632 567.535 445.944 567.535C447.327 567.535 448.694 567.246 450.046 566.668V568.402C449.358 568.699 448.706 568.91 448.089 569.035C447.479 569.168 446.741 569.234 445.874 569.234ZM445.346 557.551C444.315 557.551 443.491 557.887 442.874 558.559C442.264 559.23 441.905 560.16 441.796 561.348H448.51C448.51 560.121 448.237 559.184 447.69 558.535C447.143 557.879 446.362 557.551 445.346 557.551ZM463.983 569L463.596 567.172H463.503C462.862 567.977 462.221 568.523 461.581 568.812C460.948 569.094 460.155 569.234 459.202 569.234C457.928 569.234 456.928 568.906 456.202 568.25C455.483 567.594 455.124 566.66 455.124 565.449C455.124 562.855 457.198 561.496 461.346 561.371L463.526 561.301V560.504C463.526 559.496 463.307 558.754 462.87 558.277C462.44 557.793 461.749 557.551 460.795 557.551C459.725 557.551 458.514 557.879 457.163 558.535L456.565 557.047C457.198 556.703 457.889 556.434 458.639 556.238C459.397 556.043 460.155 555.945 460.913 555.945C462.444 555.945 463.577 556.285 464.311 556.965C465.053 557.645 465.424 558.734 465.424 560.234V569H463.983ZM459.588 567.629C460.799 567.629 461.749 567.297 462.436 566.633C463.131 565.969 463.479 565.039 463.479 563.844V562.684L461.534 562.766C459.987 562.82 458.87 563.062 458.182 563.492C457.503 563.914 457.163 564.574 457.163 565.473C457.163 566.176 457.374 566.711 457.795 567.078C458.225 567.445 458.823 567.629 459.588 567.629ZM480.393 569V560.691C480.393 559.645 480.155 558.863 479.678 558.348C479.202 557.832 478.455 557.574 477.44 557.574C476.088 557.574 475.1 557.941 474.475 558.676C473.858 559.41 473.549 560.613 473.549 562.285V569H471.604V550.766H473.549V556.285C473.549 556.949 473.518 557.5 473.455 557.938H473.573C473.955 557.32 474.498 556.836 475.202 556.484C475.913 556.125 476.721 555.945 477.627 555.945C479.198 555.945 480.373 556.32 481.155 557.07C481.944 557.812 482.338 558.996 482.338 560.621V569H480.393ZM490.545 566.211L490.721 566.48C490.518 567.262 490.225 568.168 489.842 569.199C489.459 570.238 489.061 571.203 488.647 572.094H487.182C487.393 571.281 487.623 570.277 487.873 569.082C488.131 567.887 488.311 566.93 488.412 566.211H490.545ZM521.314 569V560.645C521.314 559.621 521.096 558.855 520.658 558.348C520.221 557.832 519.541 557.574 518.619 557.574C517.408 557.574 516.514 557.922 515.935 558.617C515.357 559.312 515.068 560.383 515.068 561.828V569H513.123V560.645C513.123 559.621 512.904 558.855 512.467 558.348C512.029 557.832 511.346 557.574 510.416 557.574C509.197 557.574 508.303 557.941 507.732 558.676C507.17 559.402 506.889 560.598 506.889 562.262V569H504.943V556.156H506.525L506.842 557.914H506.935C507.303 557.289 507.818 556.801 508.482 556.449C509.154 556.098 509.904 555.922 510.732 555.922C512.74 555.922 514.053 556.648 514.67 558.102H514.764C515.146 557.43 515.701 556.898 516.428 556.508C517.154 556.117 517.982 555.922 518.912 555.922C520.365 555.922 521.451 556.297 522.17 557.047C522.896 557.789 523.26 558.98 523.26 560.621V569H521.314ZM534.865 569.234C532.967 569.234 531.467 568.656 530.365 567.5C529.271 566.344 528.724 564.738 528.724 562.684C528.724 560.613 529.232 558.969 530.248 557.75C531.271 556.531 532.642 555.922 534.361 555.922C535.97 555.922 537.244 556.453 538.181 557.516C539.119 558.57 539.588 559.965 539.588 561.699V562.93H530.74C530.779 564.438 531.158 565.582 531.877 566.363C532.603 567.145 533.623 567.535 534.935 567.535C536.318 567.535 537.685 567.246 539.037 566.668V568.402C538.349 568.699 537.697 568.91 537.08 569.035C536.47 569.168 535.732 569.234 534.865 569.234ZM534.338 557.551C533.306 557.551 532.482 557.887 531.865 558.559C531.256 559.23 530.896 560.16 530.787 561.348H537.502C537.502 560.121 537.228 559.184 536.681 558.535C536.135 557.879 535.353 557.551 534.338 557.551ZM557.619 567.629C557.962 567.629 558.294 567.605 558.615 567.559C558.935 567.504 559.189 567.449 559.376 567.395V568.883C559.165 568.984 558.853 569.066 558.439 569.129C558.033 569.199 557.665 569.234 557.337 569.234C554.853 569.234 553.611 567.926 553.611 565.309V557.668H551.771V556.73L553.611 555.922L554.431 553.18H555.556V556.156H559.283V557.668H555.556V565.227C555.556 566 555.74 566.594 556.107 567.008C556.474 567.422 556.978 567.629 557.619 567.629ZM575.2 562.566C575.2 564.66 574.673 566.297 573.618 567.477C572.564 568.648 571.107 569.234 569.247 569.234C568.099 569.234 567.079 568.965 566.189 568.426C565.298 567.887 564.611 567.113 564.126 566.105C563.642 565.098 563.4 563.918 563.4 562.566C563.4 560.473 563.923 558.844 564.97 557.68C566.017 556.508 567.47 555.922 569.329 555.922C571.126 555.922 572.552 556.52 573.607 557.715C574.669 558.91 575.2 560.527 575.2 562.566ZM565.415 562.566C565.415 564.207 565.743 565.457 566.4 566.316C567.056 567.176 568.021 567.605 569.294 567.605C570.568 567.605 571.533 567.18 572.189 566.328C572.853 565.469 573.185 564.215 573.185 562.566C573.185 560.934 572.853 559.695 572.189 558.852C571.533 558 570.56 557.574 569.271 557.574C567.997 557.574 567.036 557.992 566.388 558.828C565.74 559.664 565.415 560.91 565.415 562.566ZM591.868 562.566C591.868 564.66 591.341 566.297 590.286 567.477C589.232 568.648 587.775 569.234 585.915 569.234C584.767 569.234 583.747 568.965 582.857 568.426C581.966 567.887 581.278 567.113 580.794 566.105C580.31 565.098 580.068 563.918 580.068 562.566C580.068 560.473 580.591 558.844 581.638 557.68C582.685 556.508 584.138 555.922 585.997 555.922C587.794 555.922 589.22 556.52 590.275 557.715C591.337 558.91 591.868 560.527 591.868 562.566ZM582.083 562.566C582.083 564.207 582.411 565.457 583.068 566.316C583.724 567.176 584.689 567.605 585.962 567.605C587.235 567.605 588.2 567.18 588.857 566.328C589.521 565.469 589.853 564.215 589.853 562.566C589.853 560.934 589.521 559.695 588.857 558.852C588.2 558 587.228 557.574 585.939 557.574C584.665 557.574 583.704 557.992 583.056 558.828C582.407 559.664 582.083 560.91 582.083 562.566Z" fill="black"/>
<path d="M370.5 732.5C368.5 738.833 361.3 750.6 348.5 747C332.5 742.5 334.5 749 328 749.5C322.8 749.9 316.5 746 314 744" stroke="black"/>
<line x1="434.501" y1="588.865" x2="396.501" y2="610.865" stroke="black" stroke-width="2"/>
<path fill-rule="evenodd" clip-rule="evenodd" d="M294.996 912.457C294.999 912.176 295 911.896 295 911.614C295 857.151 242.617 813 178 813C113.383 813 61 857.151 61 911.614C61 911.896 61.0014 912.176 61.0042 912.457H61V1108H295V912.457H294.996Z" fill="#E9E9E9"/>
<ellipse cx="177.554" cy="721.361" rx="70.5268" ry="99.5894" transform="rotate(-17.768 177.554 721.361)" fill="#E9E9E9"/>
<ellipse cx="253.609" cy="710.892" rx="17.5" ry="27" transform="rotate(75 253.609 710.892)" fill="#E9E9E9"/>
<path d="M42.0002 1107.5C45.5002 1075 39.3406 1004.93 42.0002 978.5C50.0002 899 34.5001 879 65.5001 849.5C79.2377 836.427 117.864 816.679 134.5 812M286 1107.5C286 1067 295 901 274.5 864C255.864 830.364 215.833 815.145 185.5 811.145C178.652 812.165 147.417 808.367 134.5 812M134.5 812C109.5 805 65.6272 698.288 92.5 653.5C134.5 583.5 220 645.5 225 673.5C226.925 684.279 230.83 693.342 234.287 701.008M134.5 812C157.5 804.542 237.675 830 242 765.5C243.033 750.091 242.888 738.391 242 729.127M234.287 701.008C244.459 693.341 266.366 687 268.802 701.008C272.002 719.408 252.167 726.585 242 729.127M234.287 701.008C237.665 708.498 240.602 714.541 242 729.127" stroke="black"/>
<path d="M96.2001 714.593C90.594 721.476 78.0552 732.536 72.7489 721.714C66.1162 708.185 76.4249 699.483 90.4324 702.829C104.44 706.176 95.6329 715.236 83.4313 716.476C71.2298 717.716 54.7101 696.632 68.3176 691.055C81.9252 685.478 99.1126 685.441 98.0367 695.818C96.9608 706.195 85.9739 710.852 82.684 709.547C79.394 708.241 60.1366 696.889 67.7145 684.419C75.2923 671.949 108.205 658.001 103.773 671.483C99.3405 684.965 88.4363 686.298 77.0655 682.023C65.6947 677.749 50.5115 669.36 67.3618 655.773C75.8606 648.921 106.157 640.877 114.57 654.151C120 662.718 106.296 672.065 92.5116 668.196C85.6122 666.26 67.8092 646.358 90.6365 632.745C115.033 618.197 145.39 641.959 135.573 648.961C125.755 655.963 110.199 658.941 106.584 637.862C105.009 628.679 114.838 620.611 124.714 617.914C142.822 612.97 152.261 647.094 137.212 649.73C122.162 652.366 130.405 646.388 128.695 634.934C127.339 625.843 142.78 604.205 149.616 615.446C156.452 626.686 142.502 665.798 140.202 646.691C137.901 627.585 153.147 593.055 169.512 613.352C181.383 628.074 150.557 662.408 152.97 644.809C155.384 627.21 165.749 600.605 175.739 614.676C185.73 628.748 184.047 655.944 174.167 643.901C164.288 631.858 181.222 597.032 191.951 616.213C202.68 635.394 209.177 650.448 192.754 649.38C176.33 648.313 190.812 602.179 207.807 617.924C221.402 630.519 200.797 649.571 188.796 657.522" stroke="black"/>
<circle cx="213.5" cy="691.5" r="2.5" fill="#252222"/>
<path d="M221.5 698C221.167 700 218.6 704 211 704" stroke="black"/>
<path d="M224 701C223.429 703 219.029 707 206 707" stroke="black"/>
<path d="M131.402 482V464.867H133.394V482H131.402ZM150.312 482H148.366V463.766H150.312V482ZM158.542 482H156.597V469.156H158.542V482ZM156.433 465.676C156.433 465.23 156.542 464.906 156.761 464.703C156.98 464.492 157.253 464.387 157.581 464.387C157.894 464.387 158.163 464.492 158.39 464.703C158.616 464.914 158.73 465.238 158.73 465.676C158.73 466.113 158.616 466.441 158.39 466.66C158.163 466.871 157.894 466.977 157.581 466.977C157.253 466.977 156.98 466.871 156.761 466.66C156.542 466.441 156.433 466.113 156.433 465.676ZM166.749 475.426C167.085 474.949 167.597 474.324 168.284 473.551L172.432 469.156H174.741L169.538 474.629L175.104 482H172.749L168.214 475.93L166.749 477.195V482H164.827V463.766H166.749V473.434C166.749 473.863 166.718 474.527 166.655 475.426H166.749ZM185.022 482.234C183.124 482.234 181.624 481.656 180.522 480.5C179.428 479.344 178.882 477.738 178.882 475.684C178.882 473.613 179.389 471.969 180.405 470.75C181.428 469.531 182.8 468.922 184.518 468.922C186.128 468.922 187.401 469.453 188.339 470.516C189.276 471.57 189.745 472.965 189.745 474.699V475.93H180.897C180.936 477.438 181.315 478.582 182.034 479.363C182.76 480.145 183.78 480.535 185.092 480.535C186.475 480.535 187.842 480.246 189.194 479.668V481.402C188.507 481.699 187.854 481.91 187.237 482.035C186.628 482.168 185.889 482.234 185.022 482.234ZM184.495 470.551C183.464 470.551 182.639 470.887 182.022 471.559C181.413 472.23 181.053 473.16 180.944 474.348H187.659C187.659 473.121 187.385 472.184 186.839 471.535C186.292 470.879 185.51 470.551 184.495 470.551ZM212.37 480.277H212.264C211.366 481.582 210.022 482.234 208.233 482.234C206.553 482.234 205.245 481.66 204.307 480.512C203.377 479.363 202.912 477.73 202.912 475.613C202.912 473.496 203.381 471.852 204.319 470.68C205.256 469.508 206.561 468.922 208.233 468.922C209.975 468.922 211.311 469.555 212.241 470.82H212.393L212.311 469.895L212.264 468.992V463.766H214.209V482H212.627L212.37 480.277ZM208.479 480.605C209.807 480.605 210.768 480.246 211.362 479.527C211.963 478.801 212.264 477.633 212.264 476.023V475.613C212.264 473.793 211.959 472.496 211.35 471.723C210.748 470.941 209.784 470.551 208.455 470.551C207.315 470.551 206.44 470.996 205.83 471.887C205.229 472.77 204.928 474.02 204.928 475.637C204.928 477.277 205.229 478.516 205.83 479.352C206.432 480.188 207.315 480.605 208.479 480.605ZM228.405 482L228.018 480.172H227.924C227.283 480.977 226.643 481.523 226.002 481.812C225.369 482.094 224.576 482.234 223.623 482.234C222.35 482.234 221.35 481.906 220.623 481.25C219.905 480.594 219.545 479.66 219.545 478.449C219.545 475.855 221.619 474.496 225.768 474.371L227.947 474.301V473.504C227.947 472.496 227.729 471.754 227.291 471.277C226.862 470.793 226.17 470.551 225.217 470.551C224.147 470.551 222.936 470.879 221.584 471.535L220.987 470.047C221.619 469.703 222.311 469.434 223.061 469.238C223.819 469.043 224.576 468.945 225.334 468.945C226.865 468.945 227.998 469.285 228.733 469.965C229.475 470.645 229.846 471.734 229.846 473.234V482H228.405ZM224.01 480.629C225.221 480.629 226.17 480.297 226.858 479.633C227.553 478.969 227.901 478.039 227.901 476.844V475.684L225.955 475.766C224.408 475.82 223.291 476.062 222.604 476.492C221.924 476.914 221.584 477.574 221.584 478.473C221.584 479.176 221.795 479.711 222.217 480.078C222.647 480.445 223.244 480.629 224.01 480.629ZM241.885 468.922C242.455 468.922 242.967 468.969 243.42 469.062L243.15 470.867C242.619 470.75 242.15 470.691 241.744 470.691C240.705 470.691 239.815 471.113 239.072 471.957C238.338 472.801 237.971 473.852 237.971 475.109V482H236.025V469.156H237.631L237.854 471.535H237.947C238.424 470.699 238.998 470.055 239.67 469.602C240.342 469.148 241.08 468.922 241.885 468.922ZM249.904 475.426C250.24 474.949 250.752 474.324 251.439 473.551L255.588 469.156H257.896L252.693 474.629L258.26 482H255.904L251.369 475.93L249.904 477.195V482H247.982V463.766H249.904V473.434C249.904 473.863 249.873 474.527 249.81 475.426H249.904ZM264.791 479.211L264.967 479.48C264.763 480.262 264.47 481.168 264.088 482.199C263.705 483.238 263.306 484.203 262.892 485.094H261.427C261.638 484.281 261.869 483.277 262.119 482.082C262.377 480.887 262.556 479.93 262.658 479.211H264.791ZM285.048 468.922C285.619 468.922 286.13 468.969 286.583 469.062L286.314 470.867C285.783 470.75 285.314 470.691 284.908 470.691C283.869 470.691 282.978 471.113 282.236 471.957C281.501 472.801 281.134 473.852 281.134 475.109V482H279.189V469.156H280.794L281.017 471.535H281.111C281.587 470.699 282.162 470.055 282.833 469.602C283.505 469.148 284.244 468.922 285.048 468.922ZM296.572 482.234C294.673 482.234 293.173 481.656 292.072 480.5C290.978 479.344 290.431 477.738 290.431 475.684C290.431 473.613 290.939 471.969 291.954 470.75C292.978 469.531 294.349 468.922 296.068 468.922C297.677 468.922 298.95 469.453 299.888 470.516C300.825 471.57 301.294 472.965 301.294 474.699V475.93H292.447C292.486 477.438 292.865 478.582 293.583 479.363C294.31 480.145 295.329 480.535 296.642 480.535C298.025 480.535 299.392 480.246 300.743 479.668V481.402C300.056 481.699 299.404 481.91 298.786 482.035C298.177 482.168 297.439 482.234 296.572 482.234ZM296.044 470.551C295.013 470.551 294.189 470.887 293.572 471.559C292.962 472.23 292.603 473.16 292.493 474.348H299.208C299.208 473.121 298.935 472.184 298.388 471.535C297.841 470.879 297.06 470.551 296.044 470.551ZM314.681 482L314.294 480.172H314.2C313.56 480.977 312.919 481.523 312.278 481.812C311.646 482.094 310.853 482.234 309.9 482.234C308.626 482.234 307.626 481.906 306.9 481.25C306.181 480.594 305.821 479.66 305.821 478.449C305.821 475.855 307.896 474.496 312.044 474.371L314.224 474.301V473.504C314.224 472.496 314.005 471.754 313.567 471.277C313.138 470.793 312.446 470.551 311.493 470.551C310.423 470.551 309.212 470.879 307.86 471.535L307.263 470.047C307.896 469.703 308.587 469.434 309.337 469.238C310.095 469.043 310.853 468.945 311.61 468.945C313.142 468.945 314.275 469.285 315.009 469.965C315.751 470.645 316.122 471.734 316.122 473.234V482H314.681ZM310.286 480.629C311.497 480.629 312.446 480.297 313.134 479.633C313.829 478.969 314.177 478.039 314.177 476.844V475.684L312.232 475.766C310.685 475.82 309.567 476.062 308.88 476.492C308.2 476.914 307.86 477.574 307.86 478.473C307.86 479.176 308.071 479.711 308.493 480.078C308.923 480.445 309.521 480.629 310.286 480.629ZM324.247 482H322.302V463.766H324.247V482ZM332.477 482H330.532V463.766H332.477V482ZM336.723 469.156H338.809L341.622 476.48C342.239 478.152 342.622 479.359 342.77 480.102H342.864C342.965 479.703 343.176 479.023 343.497 478.062C343.825 477.094 344.887 474.125 346.684 469.156H348.77L343.251 483.781C342.704 485.227 342.063 486.25 341.329 486.852C340.602 487.461 339.708 487.766 338.645 487.766C338.051 487.766 337.465 487.699 336.887 487.566V486.008C337.317 486.102 337.798 486.148 338.329 486.148C339.665 486.148 340.618 485.398 341.188 483.898L341.903 482.07L336.723 469.156ZM164.686 511.496C164.686 512.691 164.241 513.613 163.35 514.262C162.46 514.91 161.21 515.234 159.6 515.234C157.897 515.234 156.569 514.965 155.616 514.426V512.621C156.233 512.934 156.893 513.18 157.597 513.359C158.308 513.539 158.991 513.629 159.647 513.629C160.663 513.629 161.444 513.469 161.991 513.148C162.538 512.82 162.811 512.324 162.811 511.66C162.811 511.16 162.593 510.734 162.155 510.383C161.725 510.023 160.882 509.602 159.624 509.117C158.429 508.672 157.577 508.285 157.069 507.957C156.569 507.621 156.194 507.242 155.944 506.82C155.702 506.398 155.581 505.895 155.581 505.309C155.581 504.262 156.007 503.438 156.858 502.836C157.71 502.227 158.878 501.922 160.362 501.922C161.745 501.922 163.097 502.203 164.417 502.766L163.725 504.348C162.436 503.816 161.268 503.551 160.222 503.551C159.3 503.551 158.604 503.695 158.136 503.984C157.667 504.273 157.433 504.672 157.433 505.18C157.433 505.523 157.518 505.816 157.69 506.059C157.87 506.301 158.155 506.531 158.546 506.75C158.936 506.969 159.686 507.285 160.796 507.699C162.319 508.254 163.347 508.812 163.878 509.375C164.417 509.938 164.686 510.645 164.686 511.496ZM174.171 513.629C174.514 513.629 174.846 513.605 175.167 513.559C175.487 513.504 175.741 513.449 175.928 513.395V514.883C175.717 514.984 175.405 515.066 174.991 515.129C174.585 515.199 174.217 515.234 173.889 515.234C171.405 515.234 170.163 513.926 170.163 511.309V503.668H168.323V502.73L170.163 501.922L170.983 499.18H172.108V502.156H175.835V503.668H172.108V511.227C172.108 512 172.292 512.594 172.659 513.008C173.026 513.422 173.53 513.629 174.171 513.629ZM186.526 501.922C187.096 501.922 187.608 501.969 188.061 502.062L187.792 503.867C187.26 503.75 186.792 503.691 186.385 503.691C185.346 503.691 184.456 504.113 183.713 504.957C182.979 505.801 182.612 506.852 182.612 508.109V515H180.667V502.156H182.272L182.495 504.535H182.588C183.065 503.699 183.639 503.055 184.311 502.602C184.983 502.148 185.721 501.922 186.526 501.922ZM203.709 508.566C203.709 510.66 203.182 512.297 202.127 513.477C201.073 514.648 199.616 515.234 197.756 515.234C196.608 515.234 195.588 514.965 194.698 514.426C193.807 513.887 193.12 513.113 192.635 512.105C192.151 511.098 191.909 509.918 191.909 508.566C191.909 506.473 192.432 504.844 193.479 503.68C194.526 502.508 195.979 501.922 197.838 501.922C199.635 501.922 201.061 502.52 202.116 503.715C203.178 504.91 203.709 506.527 203.709 508.566ZM193.924 508.566C193.924 510.207 194.252 511.457 194.909 512.316C195.565 513.176 196.53 513.605 197.803 513.605C199.077 513.605 200.041 513.18 200.698 512.328C201.362 511.469 201.694 510.215 201.694 508.566C201.694 506.934 201.362 505.695 200.698 504.852C200.041 504 199.069 503.574 197.78 503.574C196.506 503.574 195.545 503.992 194.897 504.828C194.248 505.664 193.924 506.91 193.924 508.566ZM218.08 515V506.691C218.08 505.645 217.842 504.863 217.365 504.348C216.889 503.832 216.143 503.574 215.127 503.574C213.783 503.574 212.799 503.938 212.174 504.664C211.549 505.391 211.237 506.59 211.237 508.262V515H209.291V502.156H210.873L211.19 503.914H211.283C211.682 503.281 212.24 502.793 212.959 502.449C213.678 502.098 214.479 501.922 215.362 501.922C216.908 501.922 218.073 502.297 218.854 503.047C219.635 503.789 220.026 504.98 220.026 506.621V515H218.08ZM236.705 502.156V503.387L234.326 503.668C234.545 503.941 234.74 504.301 234.912 504.746C235.084 505.184 235.17 505.68 235.17 506.234C235.17 507.492 234.74 508.496 233.881 509.246C233.022 509.996 231.842 510.371 230.342 510.371C229.959 510.371 229.6 510.34 229.264 510.277C228.436 510.715 228.022 511.266 228.022 511.93C228.022 512.281 228.166 512.543 228.455 512.715C228.744 512.879 229.24 512.961 229.943 512.961H232.217C233.608 512.961 234.674 513.254 235.416 513.84C236.166 514.426 236.541 515.277 236.541 516.395C236.541 517.816 235.971 518.898 234.83 519.641C233.69 520.391 232.025 520.766 229.838 520.766C228.158 520.766 226.861 520.453 225.947 519.828C225.041 519.203 224.588 518.32 224.588 517.18C224.588 516.398 224.838 515.723 225.338 515.152C225.838 514.582 226.541 514.195 227.447 513.992C227.119 513.844 226.842 513.613 226.615 513.301C226.397 512.988 226.287 512.625 226.287 512.211C226.287 511.742 226.412 511.332 226.662 510.98C226.912 510.629 227.307 510.289 227.846 509.961C227.182 509.688 226.639 509.223 226.217 508.566C225.803 507.91 225.596 507.16 225.596 506.316C225.596 504.91 226.018 503.828 226.861 503.07C227.705 502.305 228.9 501.922 230.447 501.922C231.119 501.922 231.725 502 232.264 502.156H236.705ZM226.463 517.156C226.463 517.852 226.756 518.379 227.342 518.738C227.928 519.098 228.768 519.277 229.861 519.277C231.494 519.277 232.701 519.031 233.483 518.539C234.272 518.055 234.666 517.395 234.666 516.559C234.666 515.863 234.451 515.379 234.022 515.105C233.592 514.84 232.783 514.707 231.596 514.707H229.264C228.381 514.707 227.693 514.918 227.201 515.34C226.709 515.762 226.463 516.367 226.463 517.156ZM227.518 506.27C227.518 507.168 227.772 507.848 228.279 508.309C228.787 508.77 229.494 509 230.4 509C232.299 509 233.248 508.078 233.248 506.234C233.248 504.305 232.287 503.34 230.365 503.34C229.451 503.34 228.748 503.586 228.256 504.078C227.764 504.57 227.518 505.301 227.518 506.27ZM255.029 515.234C253.17 515.234 251.728 514.664 250.705 513.523C249.689 512.375 249.181 510.754 249.181 508.66C249.181 506.512 249.697 504.852 250.728 503.68C251.767 502.508 253.244 501.922 255.158 501.922C255.775 501.922 256.392 501.988 257.01 502.121C257.627 502.254 258.111 502.41 258.463 502.59L257.865 504.242C257.435 504.07 256.967 503.93 256.459 503.82C255.951 503.703 255.502 503.645 255.111 503.645C252.502 503.645 251.197 505.309 251.197 508.637C251.197 510.215 251.513 511.426 252.146 512.27C252.787 513.113 253.732 513.535 254.982 513.535C256.053 513.535 257.15 513.305 258.275 512.844V514.566C257.416 515.012 256.334 515.234 255.029 515.234ZM274.58 508.566C274.58 510.66 274.052 512.297 272.998 513.477C271.943 514.648 270.486 515.234 268.627 515.234C267.478 515.234 266.459 514.965 265.568 514.426C264.677 513.887 263.99 513.113 263.505 512.105C263.021 511.098 262.779 509.918 262.779 508.566C262.779 506.473 263.302 504.844 264.349 503.68C265.396 502.508 266.849 501.922 268.709 501.922C270.505 501.922 271.931 502.52 272.986 503.715C274.048 504.91 274.58 506.527 274.58 508.566ZM264.795 508.566C264.795 510.207 265.123 511.457 265.779 512.316C266.435 513.176 267.4 513.605 268.673 513.605C269.947 513.605 270.912 513.18 271.568 512.328C272.232 511.469 272.564 510.215 272.564 508.566C272.564 506.934 272.232 505.695 271.568 504.852C270.912 504 269.939 503.574 268.65 503.574C267.377 503.574 266.416 503.992 265.767 504.828C265.119 505.664 264.795 506.91 264.795 508.566ZM294.083 503.668H290.814V515H288.869V503.668H286.572V502.789L288.869 502.086V501.371C288.869 498.215 290.247 496.637 293.005 496.637C293.685 496.637 294.482 496.773 295.396 497.047L294.892 498.605C294.142 498.363 293.501 498.242 292.97 498.242C292.236 498.242 291.693 498.488 291.341 498.98C290.99 499.465 290.814 500.246 290.814 501.324V502.156H294.083V503.668ZM285.951 503.668H282.681V515H280.736V503.668H278.439V502.789L280.736 502.086V501.371C280.736 498.215 282.115 496.637 284.872 496.637C285.552 496.637 286.349 496.773 287.263 497.047L286.759 498.605C286.009 498.363 285.369 498.242 284.837 498.242C284.103 498.242 283.56 498.488 283.208 498.98C282.857 499.465 282.681 500.246 282.681 501.324V502.156H285.951V503.668ZM304.036 515.234C302.138 515.234 300.638 514.656 299.536 513.5C298.443 512.344 297.896 510.738 297.896 508.684C297.896 506.613 298.404 504.969 299.419 503.75C300.443 502.531 301.814 501.922 303.533 501.922C305.142 501.922 306.415 502.453 307.353 503.516C308.29 504.57 308.759 505.965 308.759 507.699V508.93H299.911C299.95 510.438 300.329 511.582 301.048 512.363C301.775 513.145 302.794 513.535 304.107 513.535C305.49 513.535 306.857 513.246 308.208 512.668V514.402C307.521 514.699 306.868 514.91 306.251 515.035C305.642 515.168 304.904 515.234 304.036 515.234ZM303.509 503.551C302.478 503.551 301.654 503.887 301.036 504.559C300.427 505.23 300.068 506.16 299.958 507.348H306.673C306.673 506.121 306.4 505.184 305.853 504.535C305.306 503.879 304.525 503.551 303.509 503.551ZM319.673 515.234C317.775 515.234 316.275 514.656 315.173 513.5C314.079 512.344 313.532 510.738 313.532 508.684C313.532 506.613 314.04 504.969 315.056 503.75C316.079 502.531 317.45 501.922 319.169 501.922C320.778 501.922 322.052 502.453 322.989 503.516C323.927 504.57 324.396 505.965 324.396 507.699V508.93H315.548C315.587 510.438 315.966 511.582 316.685 512.363C317.411 513.145 318.431 513.535 319.743 513.535C321.126 513.535 322.493 513.246 323.845 512.668V514.402C323.157 514.699 322.505 514.91 321.888 515.035C321.278 515.168 320.54 515.234 319.673 515.234ZM319.146 503.551C318.114 503.551 317.29 503.887 316.673 504.559C316.064 505.23 315.704 506.16 315.595 507.348H322.31C322.31 506.121 322.036 505.184 321.489 504.535C320.943 503.879 320.161 503.551 319.146 503.551Z" fill="black"/>
<path d="M242.5 760.5C240.5 766.833 233.3 778.6 220.5 775C204.5 770.5 206.5 777 200 777.5C194.8 777.9 188.5 774 186 772" stroke="black"/>
<path d="M184 533L186 579" stroke="black" stroke-width="2"/>
</g>
<defs>
<clipPath id="clip0">
<rect width="1920" height="1080" fill="white"/>
</clipPath>
</defs>
</svg>
