<svg width="1920" height="1080" viewBox="0 0 1920 1080" fill="none" xmlns="http://www.w3.org/2000/svg">
<g clip-path="url(#clip0)">
<rect width="1920" height="1080" fill="white"/>
<path d="M709.345 182.716H694.855V172.888C698.803 172.888 701.953 172.552 704.305 171.88C706.741 171.208 708.673 170.116 710.101 168.604C711.529 167.008 712.789 164.74 713.881 161.8H723.205V250H709.345V182.716ZM689.689 403.424C689.689 397.124 690.697 391.748 692.713 387.296C694.729 382.76 698.341 377.762 703.549 372.302C708.673 366.842 712.201 362.18 714.133 358.316C716.149 354.452 717.157 350.42 717.157 346.22C717.157 342.44 716.527 339.836 715.267 338.408C714.091 336.896 712.327 336.14 709.975 336.14C705.187 336.14 702.793 339.038 702.793 344.834V354.284H689.689V345.716C689.689 338.576 691.453 333.116 694.981 329.336C698.509 325.472 703.633 323.54 710.353 323.54C717.073 323.54 722.197 325.472 725.725 329.336C729.253 333.116 731.017 338.576 731.017 345.716C731.017 351.092 729.715 356.342 727.111 361.466C724.591 366.59 720.181 372.47 713.881 379.106C709.765 383.474 706.993 387.044 705.565 389.816C704.137 392.504 703.423 395.402 703.423 398.51V400.4H729.757V413H689.689V403.424ZM709.597 577.26C702.793 577.26 697.627 575.37 694.099 571.59C690.655 567.81 688.933 562.392 688.933 555.336V548.154H702.037V555.966C702.037 561.762 704.431 564.66 709.219 564.66C711.571 564.66 713.335 563.946 714.511 562.518C715.771 561.006 716.401 558.402 716.401 554.706V547.524C716.401 543.492 715.687 540.636 714.259 538.956C712.831 537.192 710.521 536.31 707.329 536.31H702.667V523.71H707.707C710.479 523.71 712.537 522.996 713.881 521.568C715.309 520.14 716.023 517.746 716.023 514.386V507.96C716.023 504.936 715.393 502.71 714.133 501.282C712.873 499.854 711.193 499.14 709.093 499.14C704.641 499.14 702.415 501.87 702.415 507.33V513.126H689.311V508.464C689.311 501.408 691.033 495.99 694.477 492.21C698.005 488.43 703.045 486.54 709.597 486.54C716.233 486.54 721.273 488.43 724.717 492.21C728.161 495.906 729.883 501.282 729.883 508.338V511.488C729.883 516.276 729.085 520.14 727.489 523.08C725.893 525.936 723.415 527.994 720.055 529.254V529.506C723.667 530.85 726.271 533.034 727.867 536.058C729.463 539.082 730.261 542.946 730.261 547.65V555.462C730.261 562.518 728.497 567.936 724.969 571.716C721.525 575.412 716.401 577.26 709.597 577.26ZM713.125 722.998H686.665V710.398L711.865 650.8H726.985V710.398H733.537V722.998H726.985V739H713.125V722.998ZM713.125 710.398V676H712.873L699.265 710.398H713.125ZM710.227 903.26C703.507 903.26 698.383 901.37 694.855 897.59C691.327 893.726 689.563 888.224 689.563 881.084V874.154H702.667V882.092C702.667 887.804 705.061 890.66 709.849 890.66C714.637 890.66 717.031 887.804 717.031 882.092V862.31C717.031 856.514 714.637 853.616 709.849 853.616C705.061 853.616 702.667 856.514 702.667 862.31V863.066H689.563L692.083 813.8H728.623V826.4H704.431L703.297 847.442H703.549C706.153 843.158 710.143 841.016 715.519 841.016C720.559 841.016 724.381 842.738 726.985 846.182C729.589 849.626 730.891 854.624 730.891 861.176V881.084C730.891 888.224 729.127 893.726 725.599 897.59C722.071 901.37 716.947 903.26 710.227 903.26Z" fill="#2C4FCB"/>
<path d="M157.625 248H119.422V179.469H157.625V186.547H127.391V208.625H155.797V215.656H127.391V240.875H157.625V248ZM207.987 248L184.737 187.25H184.362C184.8 192.062 185.019 197.781 185.019 204.406V248H177.659V179.469H189.659L211.362 236H211.737L233.628 179.469H245.534V248H237.566V203.844C237.566 198.781 237.784 193.281 238.222 187.344H237.847L214.409 248H207.987ZM312.631 199.438C312.631 206.375 310.256 211.719 305.506 215.469C300.788 219.188 294.022 221.047 285.209 221.047H277.147V248H269.178V179.469H286.944C304.069 179.469 312.631 186.125 312.631 199.438ZM277.147 214.203H284.319C291.381 214.203 296.491 213.062 299.647 210.781C302.803 208.5 304.381 204.844 304.381 199.812C304.381 195.281 302.897 191.906 299.928 189.688C296.959 187.469 292.334 186.359 286.053 186.359H277.147V214.203ZM374.9 248L366.369 226.203H338.9L330.462 248H322.4L349.494 179.188H356.197L383.15 248H374.9ZM363.884 219.031L355.916 197.797C354.884 195.109 353.822 191.812 352.728 187.906C352.041 190.906 351.056 194.203 349.775 197.797L341.712 219.031H363.884ZM418.466 248H410.497V186.547H388.794V179.469H440.169V186.547H418.466V248ZM507.359 248H499.391V215.75H463.297V248H455.328V179.469H463.297V208.625H499.391V179.469H507.359V248ZM531.003 248V179.469H538.972V248H531.003ZM604.147 248H557.038V241.766L593.413 186.641H558.163V179.469H603.116V185.703L566.741 240.781H604.147V248ZM660.462 248H622.259V179.469H660.462V186.547H630.228V208.625H658.634V215.656H630.228V240.875H660.462V248Z" fill="#020612"/>
<path d="M174.125 376.078C174.125 387.391 171.047 396.047 164.891 402.047C158.766 408.016 149.938 411 138.406 411H119.422V342.469H140.422C151.078 342.469 159.359 345.422 165.266 351.328C171.172 357.234 174.125 365.484 174.125 376.078ZM165.688 376.359C165.688 367.422 163.438 360.688 158.938 356.156C154.469 351.625 147.812 349.359 138.969 349.359H127.391V404.109H137.094C146.594 404.109 153.734 401.781 158.516 397.125C163.297 392.438 165.688 385.516 165.688 376.359ZM232.456 411H194.253V342.469H232.456V349.547H202.222V371.625H230.628V378.656H202.222V403.875H232.456V411ZM260.459 411H252.491V342.469H290.694V349.547H260.459V374.625H288.866V381.703H260.459V411ZM306.884 411V342.469H314.853V411H306.884ZM392.028 411H382.934L345.481 353.484H345.106C345.606 360.234 345.856 366.422 345.856 372.047V411H338.497V342.469H347.497L384.856 399.75H385.231C385.169 398.906 385.028 396.203 384.809 391.641C384.591 387.047 384.512 383.766 384.575 381.797V342.469H392.028V411ZM453.875 411H415.672V342.469H453.875V349.547H423.641V371.625H452.047V378.656H423.641V403.875H453.875V411Z" fill="#020612"/>
<path d="M119.422 574V505.469H127.391V574H119.422ZM205.737 539.078C205.737 550.391 202.659 559.047 196.503 565.047C190.378 571.016 181.55 574 170.019 574H151.034V505.469H172.034C182.691 505.469 190.972 508.422 196.878 514.328C202.784 520.234 205.737 528.484 205.737 539.078ZM197.3 539.359C197.3 530.422 195.05 523.688 190.55 519.156C186.081 514.625 179.425 512.359 170.581 512.359H159.003V567.109H168.706C178.206 567.109 185.347 564.781 190.128 560.125C194.909 555.438 197.3 548.516 197.3 539.359ZM264.069 574H225.866V505.469H264.069V512.547H233.834V534.625H262.241V541.656H233.834V566.875H264.069V574ZM327.181 574L318.65 552.203H291.181L282.744 574H274.681L301.775 505.188H308.478L335.431 574H327.181ZM316.166 545.031L308.197 523.797C307.166 521.109 306.103 517.812 305.009 513.906C304.322 516.906 303.337 520.203 302.056 523.797L293.994 545.031H316.166ZM370.747 574H362.778V512.547H341.075V505.469H392.45V512.547H370.747V574ZM445.812 574H407.609V505.469H445.812V512.547H415.578V534.625H443.984V541.656H415.578V566.875H445.812V574Z" fill="#020612"/>
<path d="M162.875 688.438C162.875 695.375 160.5 700.719 155.75 704.469C151.031 708.188 144.266 710.047 135.453 710.047H127.391V737H119.422V668.469H137.188C154.312 668.469 162.875 675.125 162.875 688.438ZM127.391 703.203H134.562C141.625 703.203 146.734 702.062 149.891 699.781C153.047 697.5 154.625 693.844 154.625 688.812C154.625 684.281 153.141 680.906 150.172 678.688C147.203 676.469 142.578 675.359 136.297 675.359H127.391V703.203ZM190.034 708.5V737H182.066V668.469H200.862C209.269 668.469 215.472 670.078 219.472 673.297C223.503 676.516 225.519 681.359 225.519 687.828C225.519 696.891 220.925 703.016 211.737 706.203L230.347 737H220.925L204.331 708.5H190.034ZM190.034 701.656H200.956C206.581 701.656 210.706 700.547 213.331 698.328C215.956 696.078 217.269 692.719 217.269 688.25C217.269 683.719 215.925 680.453 213.237 678.453C210.581 676.453 206.3 675.453 200.394 675.453H190.034V701.656ZM305.694 702.641C305.694 713.609 302.912 722.234 297.35 728.516C291.819 734.797 284.116 737.938 274.241 737.938C264.147 737.938 256.35 734.859 250.85 728.703C245.381 722.516 242.647 713.797 242.647 702.547C242.647 691.391 245.397 682.75 250.897 676.625C256.397 670.469 264.209 667.391 274.334 667.391C284.178 667.391 291.866 670.516 297.397 676.766C302.928 683.016 305.694 691.641 305.694 702.641ZM251.084 702.641C251.084 711.922 253.053 718.969 256.991 723.781C260.959 728.562 266.709 730.953 274.241 730.953C281.834 730.953 287.569 728.562 291.444 723.781C295.319 719 297.256 711.953 297.256 702.641C297.256 693.422 295.319 686.438 291.444 681.688C287.6 676.906 281.897 674.516 274.334 674.516C266.741 674.516 260.959 676.922 256.991 681.734C253.053 686.516 251.084 693.484 251.084 702.641ZM346.916 737H338.947V675.547H317.244V668.469H368.619V675.547H346.916V737ZM443.263 702.641C443.263 713.609 440.481 722.234 434.919 728.516C429.388 734.797 421.684 737.938 411.809 737.938C401.716 737.938 393.919 734.859 388.419 728.703C382.95 722.516 380.216 713.797 380.216 702.547C380.216 691.391 382.966 682.75 388.466 676.625C393.966 670.469 401.778 667.391 411.903 667.391C421.747 667.391 429.434 670.516 434.966 676.766C440.497 683.016 443.263 691.641 443.263 702.641ZM388.653 702.641C388.653 711.922 390.622 718.969 394.559 723.781C398.528 728.562 404.278 730.953 411.809 730.953C419.403 730.953 425.138 728.562 429.013 723.781C432.888 719 434.825 711.953 434.825 702.641C434.825 693.422 432.888 686.438 429.013 681.688C425.169 676.906 419.466 674.516 411.903 674.516C404.309 674.516 398.528 676.922 394.559 681.734C390.622 686.516 388.653 693.484 388.653 702.641ZM484.484 737H476.516V675.547H454.812V668.469H506.188V675.547H484.484V737ZM538.784 702.734L557.066 668.469H565.691L542.816 710.422V737H534.753V710.797L511.925 668.469H520.644L538.784 702.734ZM623.413 688.438C623.413 695.375 621.038 700.719 616.288 704.469C611.569 708.188 604.803 710.047 595.991 710.047H587.928V737H579.959V668.469H597.725C614.85 668.469 623.413 675.125 623.413 688.438ZM587.928 703.203H595.1C602.163 703.203 607.272 702.062 610.428 699.781C613.584 697.5 615.163 693.844 615.163 688.812C615.163 684.281 613.678 680.906 610.709 678.688C607.741 676.469 603.116 675.359 596.834 675.359H587.928V703.203Z" fill="#020612"/>
<path d="M140.516 900H132.547V838.547H110.844V831.469H162.219V838.547H140.516V900ZM215.581 900H177.378V831.469H215.581V838.547H185.347V860.625H213.753V867.656H185.347V892.875H215.581V900ZM274.287 881.766C274.287 887.797 272.1 892.5 267.725 895.875C263.35 899.25 257.412 900.938 249.912 900.938C241.787 900.938 235.537 899.891 231.162 897.797V890.109C233.975 891.297 237.037 892.234 240.35 892.922C243.662 893.609 246.944 893.953 250.194 893.953C255.506 893.953 259.506 892.953 262.194 890.953C264.881 888.922 266.225 886.109 266.225 882.516C266.225 880.141 265.741 878.203 264.772 876.703C263.834 875.172 262.241 873.766 259.991 872.484C257.772 871.203 254.381 869.75 249.819 868.125C243.444 865.844 238.881 863.141 236.131 860.016C233.412 856.891 232.053 852.812 232.053 847.781C232.053 842.5 234.037 838.297 238.006 835.172C241.975 832.047 247.225 830.484 253.756 830.484C260.569 830.484 266.834 831.734 272.553 834.234L270.069 841.172C264.412 838.797 258.912 837.609 253.569 837.609C249.35 837.609 246.053 838.516 243.678 840.328C241.303 842.141 240.116 844.656 240.116 847.875C240.116 850.25 240.553 852.203 241.428 853.734C242.303 855.234 243.772 856.625 245.834 857.906C247.928 859.156 251.116 860.547 255.397 862.078C262.584 864.641 267.522 867.391 270.209 870.328C272.928 873.266 274.287 877.078 274.287 881.766ZM314.197 900H306.228V838.547H284.525V831.469H335.9V838.547H314.197V900Z" fill="#020612"/>
<path d="M1882.33 1025.77C1881.32 1023.13 1881.28 1020.83 1882.21 1018.86C1883.15 1016.91 1884.99 1015.41 1887.75 1014.35L1892.23 1012.65L1898.34 1028.65L1893.39 1030.54C1890.84 1031.51 1888.6 1031.58 1886.66 1030.75C1884.72 1029.92 1883.28 1028.26 1882.33 1025.77ZM1885.05 1024.63C1886.51 1028.46 1889.04 1029.69 1892.62 1028.33L1894.89 1027.46L1890.45 1015.85L1888.59 1016.56C1884.74 1018.03 1883.56 1020.72 1885.05 1024.63Z" fill="#020612"/>
<path d="M1849.26 1027.44L1858.53 1024.61L1863.54 1040.99L1854.27 1043.83L1853.58 1041.56L1860.16 1039.55L1858.8 1035.09L1852.63 1036.98L1851.94 1034.73L1858.12 1032.85L1856.54 1027.7L1849.95 1029.72L1849.26 1027.44Z" fill="#020612"/>
<path d="M1818.28 1040.25C1817.94 1038.77 1818.2 1037.48 1819.07 1036.39C1819.95 1035.29 1821.33 1034.52 1823.21 1034.08C1825.1 1033.63 1826.71 1033.56 1828.05 1033.87L1828.66 1036.45C1827.81 1036.27 1826.94 1036.17 1826.04 1036.17C1825.13 1036.17 1824.31 1036.25 1823.57 1036.42C1822.49 1036.68 1821.75 1037.07 1821.33 1037.6C1820.91 1038.13 1820.78 1038.75 1820.95 1039.44C1821.09 1040.06 1821.45 1040.53 1822.03 1040.86C1822.6 1041.18 1823.69 1041.46 1825.31 1041.71C1826.97 1041.97 1828.21 1042.42 1829.02 1043.07C1829.83 1043.71 1830.37 1044.59 1830.63 1045.7C1830.95 1047.09 1830.72 1048.3 1829.92 1049.33C1829.11 1050.36 1827.88 1051.07 1826.22 1051.46C1824.62 1051.84 1822.95 1051.86 1821.2 1051.54L1821.54 1049.11C1823.17 1049.38 1824.57 1049.38 1825.73 1049.11C1826.62 1048.9 1827.24 1048.55 1827.61 1048.06C1827.97 1047.57 1828.08 1047.01 1827.93 1046.38C1827.83 1045.94 1827.65 1045.59 1827.4 1045.32C1827.14 1045.06 1826.77 1044.84 1826.29 1044.67C1825.81 1044.49 1824.97 1044.31 1823.78 1044.12C1822.43 1043.89 1821.43 1043.63 1820.75 1043.32C1820.08 1043.02 1819.54 1042.62 1819.14 1042.12C1818.75 1041.63 1818.46 1041.01 1818.28 1040.25Z" fill="#020612"/>
<path d="M1797.8 1039.63L1800.82 1056.49L1798.06 1056.99L1795.04 1040.12L1797.8 1039.63Z" fill="#020612"/>
<path d="M1769.68 1053.27L1763.43 1054.03L1762.38 1045.5C1763.37 1045.04 1764.32 1044.68 1765.25 1044.43C1766.17 1044.17 1767.18 1043.98 1768.27 1043.84C1770.85 1043.53 1772.93 1044.05 1774.51 1045.4C1776.09 1046.76 1777.05 1048.82 1777.39 1051.6C1777.72 1054.34 1777.2 1056.57 1775.81 1058.31C1774.43 1060.05 1772.35 1061.09 1769.59 1061.43C1767.82 1061.64 1766.09 1061.51 1764.42 1061.02L1765.11 1058.59C1766.57 1059.05 1767.99 1059.2 1769.37 1059.03C1771.19 1058.81 1772.55 1058.07 1773.47 1056.8C1774.38 1055.53 1774.72 1053.91 1774.48 1051.93C1774.22 1049.85 1773.56 1048.33 1772.48 1047.36C1771.39 1046.4 1769.96 1046.02 1768.18 1046.24C1767.28 1046.35 1766.33 1046.58 1765.33 1046.93L1765.87 1051.32L1769.39 1050.89L1769.68 1053.27Z" fill="#020612"/>
<path d="M1726.73 1047.37L1730.16 1047.2L1739.26 1060.41L1739.35 1060.41L1739.25 1059.65C1739.07 1058.2 1738.95 1056.88 1738.89 1055.68L1738.44 1046.78L1740.98 1046.65L1741.84 1063.77L1738.45 1063.94L1729.37 1050.79L1729.3 1050.8C1729.33 1050.97 1729.39 1051.62 1729.5 1052.75C1729.6 1053.88 1729.67 1054.76 1729.7 1055.39L1730.15 1064.35L1727.59 1064.48L1726.73 1047.37Z" fill="#020612"/>
<path d="M1678.98 1046.74L1681.78 1046.9L1680.93 1061.61L1685.96 1061.9L1685.83 1064.3L1672.97 1063.56L1673.11 1061.16L1678.14 1061.45L1678.98 1046.74Z" fill="#020612"/>
<path d="M1639.28 1042.79L1642.07 1043.14L1641.1 1050.8L1648.93 1051.8L1649.91 1044.14L1652.69 1044.5L1650.52 1061.49L1647.74 1061.14L1648.63 1054.19L1640.79 1053.19L1639.9 1060.14L1637.11 1059.78L1639.28 1042.79Z" fill="#020612"/>
<path d="M1619.24 1039.49L1616.1 1056.33L1613.34 1055.82L1616.48 1038.98L1619.24 1039.49Z" fill="#020612"/>
<path d="M1583.09 1031.51L1586.42 1032.33L1591.34 1047.6L1591.43 1047.63L1591.55 1046.87C1591.79 1045.43 1592.06 1044.13 1592.35 1042.96L1594.48 1034.32L1596.94 1034.92L1592.85 1051.56L1589.55 1050.75L1584.64 1035.55L1584.57 1035.53C1584.54 1035.71 1584.42 1036.35 1584.19 1037.46C1583.97 1038.57 1583.78 1039.43 1583.63 1040.04L1581.48 1048.76L1578.99 1048.15L1583.09 1031.51Z" fill="#020612"/>
<path d="M1548.69 1021.18L1551.78 1022.18L1554.51 1031.22L1556.5 1030.44L1558.47 1024.34L1561.13 1025.2L1555.86 1041.51L1553.2 1040.65L1555.71 1032.86C1554.7 1033.52 1553.7 1034.14 1552.71 1034.74L1546.62 1038.52L1543.59 1037.54C1547.52 1035.11 1550.33 1033.39 1552.02 1032.37L1548.69 1021.18Z" fill="#020612"/>
<path d="M1531.26 1014.82L1525.09 1030.81L1522.48 1029.8L1528.65 1013.82L1531.26 1014.82Z" fill="#020612"/>
<path d="M1497.18 1000.36L1500.31 1001.78L1502.35 1017.69L1502.43 1017.73L1502.69 1017.02C1503.19 1015.65 1503.69 1014.41 1504.19 1013.32L1507.87 1005.21L1510.18 1006.26L1503.11 1021.86L1500.02 1020.46L1497.97 1004.62L1497.9 1004.59C1497.84 1004.76 1497.6 1005.37 1497.18 1006.41C1496.76 1007.46 1496.41 1008.28 1496.15 1008.85L1492.45 1017.03L1490.11 1015.97L1497.18 1000.36Z" fill="#020612"/>
<path d="M1467.08 995.476L1461.54 992.472L1465.64 984.91C1466.7 985.106 1467.69 985.369 1468.6 985.699C1469.49 986.026 1470.43 986.452 1471.4 986.977C1473.68 988.213 1475.07 989.839 1475.58 991.855C1476.08 993.879 1475.66 996.12 1474.33 998.579C1473.02 1001 1471.29 1002.52 1469.16 1003.13C1467.02 1003.75 1464.73 1003.4 1462.28 1002.07C1460.71 1001.22 1459.38 1000.11 1458.3 998.741L1460.28 997.16C1461.2 998.386 1462.27 999.33 1463.49 999.993C1465.09 1000.86 1466.64 1001.05 1468.12 1000.54C1469.6 1000.04 1470.82 998.913 1471.77 997.162C1472.76 995.321 1473.1 993.693 1472.79 992.277C1472.46 990.865 1471.51 989.73 1469.93 988.874C1469.13 988.442 1468.22 988.08 1467.21 987.788L1465.1 991.672L1468.23 993.364L1467.08 995.476Z" fill="#020612"/>
<path d="M1416.67 952.749L1419.16 954.507L1415.64 964.531C1415.49 964.967 1415.25 965.58 1414.92 966.371C1414.59 967.169 1414.34 967.713 1414.18 968.003C1414.53 967.64 1415.01 967.184 1415.62 966.637C1416.22 966.085 1416.68 965.684 1417 965.432L1425.18 958.758L1427.67 960.515L1424.54 968.8L1421.44 977.086L1419.1 975.437L1422.86 965.868C1423.47 964.339 1424.07 963.026 1424.64 961.93C1424.19 962.423 1423.65 962.955 1423.04 963.526C1422.42 964.097 1421.91 964.549 1421.51 964.883L1413.46 971.45L1411.19 969.848L1414.65 959.985C1414.96 959.068 1415.53 957.765 1416.35 956.077C1415.61 956.922 1414.56 957.921 1413.2 959.075L1405.46 965.806L1403.15 964.171L1416.67 952.749Z" fill="#020612"/>
<path d="M1379.01 933.913C1380.79 931.77 1382.72 930.552 1384.78 930.259C1386.84 929.96 1388.85 930.629 1390.81 932.264C1392.8 933.919 1393.84 935.78 1393.93 937.847C1394 939.914 1393.14 942.034 1391.33 944.207C1389.52 946.38 1387.59 947.604 1385.55 947.878C1383.51 948.148 1381.49 947.455 1379.51 945.8C1377.55 944.169 1376.53 942.318 1376.45 940.245C1376.36 938.173 1377.22 936.062 1379.01 933.913ZM1389.05 942.284C1390.4 940.663 1391.1 939.16 1391.15 937.775C1391.19 936.396 1390.57 935.171 1389.28 934.101C1388 933.036 1386.7 932.647 1385.36 932.935C1384.01 933.219 1382.66 934.18 1381.29 935.818C1379.95 937.433 1379.25 938.928 1379.2 940.302C1379.15 941.671 1379.76 942.889 1381.04 943.954C1382.33 945.029 1383.66 945.424 1385.01 945.14C1386.36 944.851 1387.71 943.899 1389.05 942.284Z" fill="#020612"/>
<path d="M1360.48 917.874L1359.07 916.529C1358.13 915.626 1357.28 915.147 1356.52 915.091C1355.77 915.035 1355.06 915.352 1354.4 916.04C1353.73 916.739 1353.47 917.46 1353.64 918.203C1353.8 918.945 1354.35 919.757 1355.27 920.638L1356.6 921.919L1360.48 917.874ZM1362.08 916.199L1366.82 911.258L1368.84 913.195L1356.99 925.566L1353.49 922.217C1351.9 920.688 1351 919.256 1350.81 917.923C1350.61 916.59 1351.09 915.32 1352.25 914.113C1353.73 912.573 1355.58 912.244 1357.81 913.124L1359.56 904.301L1361.86 906.506L1360.09 914.286L1362.08 916.199Z" fill="#020612"/>
<path d="M1335.7 879.043L1337.88 881.446L1335.75 890.643L1337.86 890.96L1342.61 886.651L1344.49 888.724L1331.81 900.243L1329.93 898.169L1335.98 892.67C1334.77 892.734 1333.59 892.776 1332.44 892.798L1325.28 893.051L1323.13 890.691C1327.75 890.543 1331.04 890.447 1333.02 890.404L1335.7 879.043Z" fill="#020612"/>
<path d="M1311.99 857.59C1313.19 856.644 1314.47 856.334 1315.83 856.66C1317.19 856.985 1318.48 857.908 1319.68 859.427C1320.88 860.946 1321.63 862.376 1321.92 863.717L1319.85 865.361C1319.65 864.521 1319.36 863.692 1318.99 862.875C1318.6 862.052 1318.18 861.343 1317.71 860.749C1317.02 859.879 1316.35 859.37 1315.69 859.221C1315.03 859.067 1314.42 859.21 1313.86 859.651C1313.36 860.049 1313.09 860.576 1313.04 861.232C1312.99 861.888 1313.2 862.999 1313.66 864.566C1314.13 866.184 1314.25 867.496 1314.01 868.503C1313.77 869.509 1313.2 870.367 1312.31 871.075C1311.19 871.962 1309.99 872.262 1308.72 871.975C1307.44 871.688 1306.28 870.873 1305.21 869.532C1304.2 868.245 1303.46 866.742 1303.02 865.022L1305.36 864.302C1305.81 865.894 1306.4 867.159 1307.14 868.096C1307.7 868.806 1308.29 869.222 1308.89 869.342C1309.49 869.467 1310.04 869.328 1310.55 868.926C1310.9 868.65 1311.14 868.339 1311.27 867.993C1311.4 867.652 1311.44 867.226 1311.4 866.714C1311.35 866.203 1311.16 865.366 1310.83 864.204C1310.46 862.893 1310.27 861.867 1310.26 861.126C1310.26 860.385 1310.39 859.731 1310.67 859.163C1310.94 858.594 1311.39 858.07 1311.99 857.59Z" fill="#020612"/>
<path d="M1294.79 825.675L1296.38 827.996L1290.01 832.357L1294.47 838.876L1300.84 834.514L1302.42 836.826L1288.28 846.502L1286.7 844.19L1292.48 840.232L1288.02 833.714L1282.24 837.672L1280.65 835.351L1294.79 825.675Z" fill="#020612"/>
<path d="M1268.21 798.768C1270.62 797.36 1272.84 796.87 1274.88 797.297C1276.92 797.717 1278.58 799.029 1279.87 801.235C1281.18 803.467 1281.52 805.57 1280.9 807.544C1280.27 809.514 1278.73 811.213 1276.29 812.64C1273.85 814.067 1271.62 814.563 1269.61 814.127C1267.6 813.685 1265.94 812.347 1264.64 810.115C1263.35 807.916 1263.02 805.828 1263.65 803.851C1264.27 801.873 1265.8 800.179 1268.21 798.768ZM1274.81 810.058C1276.63 808.994 1277.8 807.818 1278.31 806.531C1278.82 805.248 1278.65 803.885 1277.81 802.441C1276.97 801.005 1275.87 800.194 1274.51 800.01C1273.15 799.819 1271.55 800.261 1269.71 801.337C1267.9 802.398 1266.73 803.567 1266.22 804.843C1265.71 806.113 1265.87 807.466 1266.71 808.902C1267.56 810.353 1268.67 811.175 1270.04 811.369C1271.4 811.556 1273 811.119 1274.81 810.058Z" fill="#020612"/>
<path d="M1250.21 771.496C1251.81 770.7 1253.3 770.614 1254.68 771.239C1256.05 771.864 1257.22 773.146 1258.19 775.084L1258.98 776.679L1264.72 773.826L1265.97 776.334L1250.62 783.959L1248.43 779.541C1247.47 777.625 1247.15 775.996 1247.46 774.655C1247.77 773.307 1248.69 772.254 1250.21 771.496ZM1256.87 777.727L1256.21 776.395C1255.57 775.107 1254.87 774.274 1254.13 773.895C1253.38 773.516 1252.53 773.563 1251.58 774.036C1250.7 774.474 1250.17 775.07 1250.01 775.824C1249.84 776.579 1250.04 777.526 1250.61 778.666L1251.48 780.408L1256.87 777.727Z" fill="#020612"/>
<path d="M1243.87 726.325L1244.84 728.926L1228.8 734.942L1225.41 725.89L1227.62 725.059L1230.04 731.511L1235.06 729.63L1232.79 723.584L1235.02 722.749L1237.28 728.794L1243.87 726.325Z" fill="#020612"/>
<path d="M1222.35 688.789C1225.02 687.984 1227.3 688.027 1229.19 688.92C1231.07 689.805 1232.38 691.47 1233.12 693.916C1233.86 696.392 1233.7 698.516 1232.64 700.29C1231.57 702.058 1229.67 703.35 1226.97 704.167C1224.26 704.983 1221.98 704.944 1220.13 704.051C1218.27 703.149 1216.97 701.461 1216.22 698.985C1215.49 696.546 1215.66 694.439 1216.73 692.664C1217.8 690.888 1219.68 689.596 1222.35 688.789ZM1226.13 701.31C1228.15 700.701 1229.56 699.831 1230.36 698.7C1231.15 697.571 1231.31 696.207 1230.83 694.606C1230.35 693.013 1229.47 691.968 1228.19 691.471C1226.92 690.967 1225.26 691.023 1223.21 691.639C1221.2 692.245 1219.8 693.109 1219 694.231C1218.2 695.345 1218.04 696.698 1218.52 698.291C1219.01 699.899 1219.9 700.958 1221.18 701.467C1222.47 701.969 1224.12 701.917 1226.13 701.31Z" fill="#020612"/>
<path d="M1215.73 665.197L1215.3 663.3C1215.01 662.028 1214.56 661.159 1213.96 660.695C1213.36 660.231 1212.59 660.105 1211.66 660.316C1210.72 660.531 1210.11 660.993 1209.84 661.704C1209.57 662.414 1209.57 663.39 1209.85 664.632L1210.27 666.438L1215.73 665.197ZM1217.99 664.683L1224.66 663.167L1225.28 665.898L1208.58 669.693L1207.51 664.974C1207.02 662.818 1207.06 661.13 1207.63 659.911C1208.2 658.691 1209.3 657.896 1210.93 657.526C1213.01 657.053 1214.74 657.798 1216.11 659.761L1222.44 653.362L1223.14 656.47L1217.38 661.986L1217.99 664.683Z" fill="#020612"/>
<path d="M1197.61 606.234L1197.27 603.348L1214.99 607.298L1215.33 610.231L1199.02 618.175L1198.68 615.312L1208.84 610.514C1209.32 610.268 1209.95 609.993 1210.72 609.689C1211.49 609.386 1212.06 609.181 1212.45 609.073C1211.84 609.042 1211.14 608.967 1210.34 608.849C1209.54 608.731 1208.95 608.628 1208.56 608.541L1197.61 606.234Z" fill="#020612"/>
<path d="M1203.37 567.623C1206.15 567.485 1208.35 568.075 1209.97 569.395C1211.58 570.707 1212.45 572.638 1212.58 575.19C1212.71 577.773 1212.04 579.797 1210.58 581.262C1209.11 582.719 1206.97 583.519 1204.14 583.659C1201.32 583.8 1199.11 583.214 1197.53 581.9C1195.95 580.579 1195.09 578.627 1194.96 576.044C1194.84 573.5 1195.51 571.496 1196.97 570.03C1198.44 568.565 1200.57 567.763 1203.37 567.623ZM1204.02 580.685C1206.12 580.58 1207.7 580.075 1208.75 579.17C1209.79 578.266 1210.27 576.979 1210.19 575.309C1210.11 573.647 1209.51 572.421 1208.39 571.632C1207.27 570.835 1205.64 570.49 1203.51 570.596C1201.42 570.701 1199.84 571.201 1198.8 572.098C1197.76 572.987 1197.28 574.263 1197.36 575.925C1197.45 577.602 1198.05 578.843 1199.18 579.647C1200.31 580.444 1201.92 580.79 1204.02 580.685Z" fill="#020612"/>
<path d="M1211.73 546.665L1194.6 546.388L1194.64 543.587L1209.37 543.826L1209.49 536.573L1211.89 536.612L1211.73 546.665Z" fill="#020612"/>
<path d="M1196.62 504.609L1196.86 501.712L1213.45 509.069L1213.22 512.013L1195.66 516.593L1195.89 513.72L1206.8 511.013C1207.32 510.867 1207.99 510.721 1208.81 510.576C1209.62 510.429 1210.22 510.341 1210.61 510.31C1210.03 510.161 1209.36 509.95 1208.6 509.677C1207.83 509.404 1207.27 509.186 1206.91 509.024L1196.62 504.609Z" fill="#020612"/>
<path d="M1209.86 467.884C1212.62 468.295 1214.66 469.307 1215.99 470.918C1217.31 472.522 1217.79 474.587 1217.41 477.114C1217.03 479.672 1215.98 481.525 1214.26 482.675C1212.53 483.815 1210.27 484.177 1207.47 483.759C1204.67 483.342 1202.63 482.333 1201.33 480.734C1200.04 479.127 1199.59 477.045 1199.97 474.488C1200.34 471.969 1201.4 470.135 1203.12 468.987C1204.85 467.839 1207.1 467.471 1209.86 467.884ZM1207.93 480.819C1210.02 481.13 1211.67 480.945 1212.87 480.264C1214.07 479.582 1214.8 478.415 1215.04 476.761C1215.29 475.115 1214.94 473.796 1214 472.802C1213.06 471.801 1211.53 471.142 1209.42 470.828C1207.35 470.517 1205.71 470.7 1204.51 471.374C1203.31 472.04 1202.59 473.196 1202.34 474.842C1202.1 476.504 1202.45 477.839 1203.39 478.85C1204.34 479.852 1205.85 480.508 1207.93 480.819Z" fill="#020612"/>
<path d="M1224.58 418.989C1226.05 419.372 1227.07 420.205 1227.63 421.49C1228.2 422.774 1228.23 424.353 1227.75 426.229C1227.26 428.104 1226.57 429.564 1225.68 430.607L1223.11 429.941C1223.67 429.278 1224.15 428.549 1224.58 427.755C1225 426.953 1225.31 426.186 1225.5 425.452C1225.78 424.379 1225.78 423.535 1225.51 422.923C1225.23 422.302 1224.75 421.903 1224.06 421.724C1223.44 421.563 1222.85 421.661 1222.3 422.018C1221.75 422.375 1220.99 423.21 1220.02 424.524C1219.01 425.878 1218.04 426.762 1217.09 427.178C1216.14 427.594 1215.11 427.659 1214.01 427.372C1212.63 427.013 1211.67 426.238 1211.13 425.049C1210.59 423.86 1210.53 422.437 1210.96 420.781C1211.38 419.193 1212.13 417.703 1213.24 416.311L1215.23 417.747C1214.22 419.061 1213.57 420.296 1213.27 421.453C1213.04 422.33 1213.06 423.046 1213.33 423.6C1213.59 424.151 1214.04 424.509 1214.66 424.672C1215.09 424.784 1215.49 424.789 1215.85 424.688C1216.2 424.585 1216.56 424.361 1216.94 424.016C1217.32 423.671 1217.87 423.015 1218.6 422.05C1219.42 420.964 1220.13 420.195 1220.71 419.741C1221.3 419.288 1221.9 419.001 1222.52 418.879C1223.14 418.758 1223.83 418.795 1224.58 418.989Z" fill="#020612"/>
<path d="M1223.14 381.396L1233.65 384.902C1234.85 385.302 1235.82 385.913 1236.55 386.733C1237.28 387.543 1237.72 388.519 1237.88 389.66C1238.04 390.792 1237.9 392.036 1237.44 393.392C1236.77 395.408 1235.72 396.798 1234.27 397.561C1232.83 398.324 1231.18 398.395 1229.31 397.772L1218.84 394.281L1219.73 391.613L1230.01 395.041C1231.35 395.488 1232.45 395.507 1233.29 395.097C1234.14 394.687 1234.78 393.837 1235.21 392.547C1236.04 390.042 1235.14 388.351 1232.51 387.474L1222.25 384.053L1223.14 381.396Z" fill="#020612"/>
<path d="M1250.41 358.215L1235.29 357.221L1235.26 357.307C1237.26 358.012 1239.13 358.727 1240.84 359.451L1248.51 362.694L1247.52 365.037L1231.74 358.367L1233.28 354.729L1247.68 355.652L1247.71 355.588L1237.07 345.77L1238.61 342.121L1254.39 348.791L1253.34 351.274L1245.54 347.976C1244.75 347.644 1243.74 347.194 1242.49 346.626C1241.25 346.05 1240.5 345.692 1240.25 345.551L1240.21 345.637L1251.37 355.937L1250.41 358.215Z" fill="#020612"/>
<path d="M1268.8 319.188L1253.83 316.888L1253.79 316.971C1255.73 317.847 1257.52 318.72 1259.16 319.59L1266.53 323.487L1265.34 325.735L1250.19 317.721L1252.04 314.231L1266.31 316.4L1266.35 316.338L1256.59 305.634L1258.44 302.133L1273.59 310.146L1272.33 312.528L1264.84 308.565C1264.08 308.167 1263.11 307.631 1261.92 306.957C1260.74 306.276 1260.02 305.854 1259.78 305.691L1259.74 305.774L1269.96 317.003L1268.8 319.188Z" fill="#020612"/>
<path d="M1291.29 280.647L1286.12 288.842L1271.63 279.697L1276.8 271.502L1278.8 272.765L1275.13 278.592L1279.07 281.082L1282.52 275.622L1284.5 276.873L1281.05 282.333L1285.6 285.204L1289.28 279.377L1291.29 280.647Z" fill="#020612"/>
<path d="M1298.46 253.956L1299.61 252.385C1300.38 251.331 1300.74 250.425 1300.7 249.666C1300.65 248.907 1300.24 248.247 1299.47 247.684C1298.69 247.113 1297.94 246.958 1297.23 247.221C1296.52 247.483 1295.78 248.128 1295.03 249.157L1293.94 250.652L1298.46 253.956ZM1300.34 255.324L1305.86 259.36L1304.21 261.622L1290.38 251.517L1293.23 247.609C1294.54 245.824 1295.83 244.746 1297.13 244.376C1298.43 244.007 1299.75 244.315 1301.1 245.301C1302.82 246.559 1303.39 248.351 1302.82 250.677L1311.79 251.241L1309.91 253.815L1301.97 253.091L1300.34 255.324Z" fill="#020612"/>
<path d="M1345.14 211.515L1337.33 220.104L1335.78 218.7L1335.47 212.443C1335.36 210.579 1335.25 209.304 1335.12 208.619C1334.99 207.922 1334.81 207.336 1334.58 206.86C1334.35 206.385 1334.02 205.957 1333.61 205.579C1333.04 205.058 1332.43 204.821 1331.78 204.868C1331.14 204.909 1330.55 205.233 1329.99 205.84C1329.55 206.325 1329.21 206.877 1328.98 207.497C1328.75 208.111 1328.59 208.928 1328.52 209.949L1326.18 209.827C1326.22 208.58 1326.42 207.512 1326.78 206.621C1327.14 205.731 1327.66 204.91 1328.34 204.159C1329.41 202.98 1330.58 202.317 1331.85 202.169C1333.11 202.016 1334.26 202.413 1335.3 203.359C1335.87 203.88 1336.32 204.478 1336.64 205.154C1336.97 205.824 1337.22 206.623 1337.38 207.55C1337.53 208.466 1337.63 209.842 1337.66 211.676L1337.79 215.818L1337.88 215.897L1343.35 209.883L1345.14 211.515Z" fill="#020612"/>
<path d="M1363.62 180.899C1365.68 183.051 1366.86 184.981 1367.16 186.69C1367.47 188.393 1366.92 189.925 1365.49 191.285C1364.12 192.603 1362.56 193.062 1360.81 192.664C1359.07 192.265 1357.2 191.024 1355.21 188.941C1353.12 186.755 1351.93 184.816 1351.63 183.124C1351.33 181.421 1351.89 179.892 1353.31 178.537C1354.69 177.214 1356.26 176.755 1358 177.159C1359.75 177.563 1361.62 178.81 1363.62 180.899ZM1357.23 187.013C1358.84 188.702 1360.17 189.743 1361.2 190.136C1362.24 190.524 1363.14 190.354 1363.91 189.625C1364.67 188.896 1364.87 187.998 1364.52 186.929C1364.18 185.854 1363.21 184.484 1361.61 182.818C1360.03 181.158 1358.7 180.128 1357.64 179.729C1356.58 179.318 1355.66 179.477 1354.9 180.206C1354.14 180.935 1353.93 181.831 1354.28 182.894C1354.63 183.952 1355.61 185.325 1357.23 187.013Z" fill="#020612"/>
<path d="M1395.57 164.419L1386.64 171.842L1385.31 170.238L1385.87 163.998C1386.02 162.137 1386.08 160.858 1386.05 160.162C1386.02 159.455 1385.92 158.849 1385.76 158.346C1385.59 157.843 1385.33 157.375 1384.97 156.942C1384.48 156.347 1383.91 156.028 1383.26 155.986C1382.62 155.938 1381.99 156.176 1381.36 156.7C1380.85 157.12 1380.44 157.62 1380.12 158.201C1379.81 158.777 1379.54 159.565 1379.33 160.566L1377.02 160.12C1377.24 158.892 1377.59 157.862 1378.07 157.029C1378.54 156.197 1379.17 155.456 1379.95 154.807C1381.18 153.788 1382.43 153.293 1383.7 153.321C1384.97 153.344 1386.05 153.896 1386.95 154.978C1387.44 155.572 1387.81 156.227 1388.03 156.941C1388.27 157.651 1388.4 158.476 1388.43 159.416C1388.46 160.346 1388.36 161.721 1388.14 163.542L1387.69 167.662L1387.77 167.752L1394.02 162.553L1395.57 164.419Z" fill="#020612"/>
<path d="M1420.26 145.669L1418.02 147.278L1411.56 138.301C1410.79 137.229 1410.2 136.361 1409.8 135.697C1409.76 135.954 1409.7 136.252 1409.62 136.591C1409.54 136.926 1409.25 138.02 1408.75 139.875L1406.61 139.266L1408.38 133.107L1410.25 131.765L1420.26 145.669Z" fill="#020612"/>
<path d="M1450.05 106.026L1454.47 103.515C1456.52 102.35 1458.18 101.808 1459.43 101.889C1460.68 101.966 1461.68 102.65 1462.41 103.941C1462.9 104.811 1463.09 105.662 1462.97 106.494C1462.85 107.326 1462.41 108.056 1461.65 108.683L1461.71 108.785C1462.87 108.388 1463.86 108.343 1464.68 108.65C1465.5 108.946 1466.2 109.59 1466.76 110.581C1467.52 111.92 1467.65 113.236 1467.14 114.529C1466.64 115.811 1465.55 116.925 1463.89 117.87L1458.51 120.925L1450.05 106.026ZM1455.98 110.799L1458.32 109.468C1459.34 108.889 1460 108.307 1460.28 107.722C1460.57 107.13 1460.49 106.446 1460.05 105.672C1459.65 104.972 1459.11 104.61 1458.42 104.587C1457.74 104.56 1456.85 104.859 1455.75 105.484L1453.64 106.682L1455.98 110.799ZM1457.1 112.776L1459.78 117.494L1462.37 116.024C1463.39 115.446 1464.05 114.816 1464.34 114.136C1464.64 113.445 1464.55 112.678 1464.08 111.836C1463.64 111.061 1463.04 110.637 1462.3 110.565C1461.56 110.492 1460.65 110.762 1459.57 111.375L1457.1 112.776Z" fill="#020612"/>
<path d="M1490 93.7381L1490.27 84.937L1493.02 83.6202L1492.41 95.5448L1495.28 101.537L1492.74 102.752L1489.91 96.8449L1480.21 89.7587L1482.96 88.4418L1490 93.7381Z" fill="#020612"/>
<path d="M1548.11 80.0001L1544.91 76.0829L1538.73 78.2631L1538.74 83.3074L1535.95 84.2902L1536.27 65.9344L1539.14 64.9204L1550.91 79.0095L1548.11 80.0001ZM1543.41 74.0522L1540.35 70.1883C1540.13 69.9326 1539.81 69.5231 1539.39 68.9597C1538.97 68.3938 1538.68 67.9764 1538.5 67.7077C1538.62 68.6841 1538.68 69.7777 1538.68 70.9885L1538.7 75.7136L1543.41 74.0522Z" fill="#020612"/>
<path d="M1584.08 69.1781L1580.77 70.0877L1569.03 59.155L1568.94 59.1799L1569.19 59.8989C1569.68 61.2711 1570.09 62.5373 1570.41 63.6974L1572.77 72.2855L1570.32 72.9592L1565.78 56.4384L1569.05 55.5381L1580.75 66.4092L1580.82 66.3906C1580.76 66.2215 1580.56 65.6007 1580.21 64.5283C1579.87 63.4484 1579.61 62.6033 1579.44 61.9931L1577.07 53.3372L1579.54 52.6574L1584.08 69.1781Z" fill="#020612"/>
<path d="M1619.47 61.3643L1616.11 62.0303L1605.19 50.2712L1605.1 50.2894L1605.31 51.0253C1605.69 52.4296 1606.01 53.7219 1606.24 54.9022L1607.97 63.6394L1605.47 64.1326L1602.15 47.3251L1605.48 46.666L1616.36 58.3605L1616.43 58.3469C1616.38 58.1737 1616.22 57.5398 1615.96 56.4452C1615.69 55.343 1615.5 54.4815 1615.37 53.8607L1613.63 45.0546L1616.15 44.5568L1619.47 61.3643Z" fill="#020612"/>
<path d="M1652.32 56.5123L1650.04 52.0026L1643.54 52.8128L1642.46 57.7413L1639.53 58.1066L1643.77 40.2427L1646.79 39.8659L1655.28 56.1441L1652.32 56.5123ZM1649.01 49.6984L1646.84 45.2687C1646.68 44.9731 1646.46 44.505 1646.17 43.8643C1645.88 43.2227 1645.68 42.7517 1645.56 42.4513C1645.47 43.4309 1645.3 44.5118 1645.04 45.6939L1644.05 50.3158L1649.01 49.6984Z" fill="#020612"/>
<path d="M1693.08 58.3304C1692.31 58.3496 1691.67 58.268 1691.15 58.0856L1691.09 55.7309C1691.75 55.8785 1692.32 55.9462 1692.81 55.9341C1694.34 55.8958 1695.08 54.9082 1695.03 52.9713L1694.62 36.371L1697.43 36.3006L1697.84 52.8072C1697.88 54.5566 1697.5 55.9026 1696.69 56.8451C1695.88 57.7952 1694.68 58.2903 1693.08 58.3304Z" fill="#020612"/>
<path d="M1731.61 53.8028L1730.07 48.9869L1723.52 48.7529L1721.68 53.4478L1718.73 53.3423L1725.75 36.3792L1728.79 36.488L1734.58 53.9092L1731.61 53.8028ZM1729.42 46.548L1727.98 41.8296C1727.87 41.5131 1727.73 41.0154 1727.54 40.3364C1727.36 39.6577 1727.24 39.1608 1727.17 38.8457C1726.93 39.7985 1726.58 40.8376 1726.13 41.963L1724.43 46.3697L1729.42 46.548Z" fill="#020612"/>
<path d="M1759.45 46.6679L1761.39 46.8721C1762.68 47.0091 1763.65 46.8675 1764.28 46.4473C1764.92 46.0271 1765.28 45.3431 1765.38 44.3952C1765.49 43.4318 1765.24 42.7071 1764.66 42.2212C1764.07 41.7352 1763.15 41.4253 1761.88 41.2916L1760.04 41.0973L1759.45 46.6679ZM1759.21 48.9754L1758.49 55.7813L1755.71 55.4872L1757.5 38.4491L1762.32 38.9572C1764.52 39.1893 1766.1 39.773 1767.07 40.708C1768.04 41.6431 1768.44 42.942 1768.26 44.6046C1768.04 46.7257 1766.77 48.1203 1764.47 48.7886L1768.49 56.8369L1765.32 56.5022L1761.96 49.2657L1759.21 48.9754Z" fill="#020612"/>
<path d="M1799.59 61.6236L1790.05 59.9563L1792.99 43.079L1802.54 44.7462L1802.13 47.0781L1795.35 45.8927L1794.54 50.4872L1800.9 51.598L1800.5 53.9068L1794.14 52.796L1793.22 58.0947L1800 59.2801L1799.59 61.6236Z" fill="#020612"/>
<path d="M1825.95 49.6413L1830.89 50.8532C1833.18 51.4155 1834.75 52.1551 1835.6 53.0723C1836.46 53.9913 1836.72 55.1716 1836.36 56.6132C1836.12 57.5844 1835.68 58.3311 1835.02 58.8531C1834.36 59.3752 1833.54 59.6043 1832.56 59.5404L1832.53 59.6542C1833.64 60.1609 1834.39 60.8075 1834.78 61.5941C1835.17 62.3749 1835.24 63.3192 1834.96 64.427C1834.6 65.9217 1833.79 66.9655 1832.53 67.5584C1831.29 68.1456 1829.73 68.2111 1827.87 67.755L1821.86 66.2806L1825.95 49.6413ZM1826.98 57.183L1829.6 57.8252C1830.74 58.1045 1831.61 58.13 1832.22 57.9018C1832.83 57.6661 1833.25 57.1157 1833.46 56.2508C1833.65 55.4693 1833.51 54.8342 1833.02 54.3455C1832.55 53.8588 1831.69 53.4646 1830.46 53.163L1828.11 52.585L1826.98 57.183ZM1826.44 59.3909L1825.15 64.6604L1828.04 65.3697C1829.17 65.6489 1830.09 65.643 1830.77 65.352C1831.46 65.0553 1831.92 64.4365 1832.15 63.4957C1832.36 62.6307 1832.23 61.917 1831.74 61.3544C1831.25 60.7919 1830.4 60.3627 1829.19 60.0667L1826.44 59.3909Z" fill="#020612"/>
<path d="M1860.89 67.4887L1862.74 68.0822C1863.98 68.4803 1864.96 68.538 1865.66 68.2555C1866.37 67.973 1866.87 67.3779 1867.16 66.4703C1867.45 65.5477 1867.37 64.789 1866.89 64.1942C1866.42 63.5993 1865.57 63.1077 1864.36 62.7191L1862.6 62.1542L1860.89 67.4887ZM1860.18 69.6984L1858.09 76.2158L1855.43 75.3613L1860.65 59.0454L1865.26 60.522C1867.37 61.1966 1868.8 62.0903 1869.56 63.2031C1870.32 64.3159 1870.44 65.6684 1869.93 67.2605C1869.28 69.2917 1867.76 70.4003 1865.37 70.5863L1867.67 79.2835L1864.63 78.311L1862.82 70.5422L1860.18 69.6984Z" fill="#020612"/>
<path d="M1903.71 83.6753C1902.68 86.2659 1901.22 88.0206 1899.35 88.9394C1897.49 89.861 1895.37 89.8487 1892.99 88.9023C1890.59 87.9443 1889.03 86.4966 1888.3 84.5591C1887.59 82.6173 1887.76 80.3329 1888.8 77.706C1889.85 75.0791 1891.3 73.3194 1893.16 72.4267C1895.02 71.537 1897.15 71.5711 1899.55 72.5291C1901.92 73.4726 1903.46 74.9167 1904.18 76.8614C1904.9 78.8061 1904.74 81.0774 1903.71 83.6753ZM1891.56 78.8305C1890.78 80.7898 1890.58 82.4351 1890.97 83.7665C1891.36 85.0907 1892.33 86.0624 1893.88 86.6817C1895.43 87.2982 1896.79 87.262 1897.97 86.5731C1899.16 85.8872 1900.15 84.5537 1900.94 82.5726C1901.72 80.6206 1901.92 78.9839 1901.54 77.6627C1901.17 76.3443 1900.21 75.3769 1898.66 74.7605C1897.1 74.1382 1895.72 74.1723 1894.52 74.8626C1893.33 75.5558 1892.34 76.8784 1891.56 78.8305Z" fill="#020612"/>
</g>
<defs>
<clipPath id="clip0">
<rect width="1920" height="1080" fill="white"/>
</clipPath>
</defs>
</svg>
