<svg width="147" height="59" viewBox="0 0 147 59" fill="none" xmlns="http://www.w3.org/2000/svg">
<g clip-path="url(#clip0)">
<rect width="147" height="59" fill="white"/>
<rect y="18" width="147" height="41" fill="#FAC392"/>
<path d="M54.1845 32H51.1962V19.9062H37.661V32H34.6727V6.30078H37.661V17.2344H51.1962V6.30078H54.1845V32ZM81.9375 19.1152C81.9375 23.2285 80.8945 26.4629 78.8086 28.8184C76.7344 31.1738 73.8457 32.3516 70.1426 32.3516C66.3574 32.3516 63.4336 31.1973 61.3711 28.8887C59.3203 26.5684 58.2949 23.2988 58.2949 19.0801C58.2949 14.8965 59.3262 11.6562 61.3887 9.35938C63.4512 7.05078 66.3809 5.89648 70.1777 5.89648C73.8691 5.89648 76.752 7.06836 78.8262 9.41211C80.9004 11.7559 81.9375 14.9902 81.9375 19.1152ZM61.459 19.1152C61.459 22.5957 62.1973 25.2383 63.6738 27.043C65.1621 28.8359 67.3184 29.7324 70.1426 29.7324C72.9902 29.7324 75.1406 28.8359 76.5938 27.043C78.0469 25.25 78.7734 22.6074 78.7734 19.1152C78.7734 15.6582 78.0469 13.0391 76.5938 11.2578C75.1523 9.46484 73.0137 8.56836 70.1777 8.56836C67.3301 8.56836 65.1621 9.4707 63.6738 11.2754C62.1973 13.0684 61.459 15.6816 61.459 19.1152ZM108.495 32H105.542L100.357 14.791C100.11 14.0293 99.8351 13.0684 99.5304 11.9082C99.2257 10.748 99.0675 10.0508 99.0558 9.81641C98.798 11.3633 98.3878 13.0566 97.8253 14.8965L92.798 32H89.8448L83.007 6.30078H86.171L90.2316 22.1738C90.7941 24.4004 91.2042 26.416 91.462 28.2207C91.7784 26.0762 92.2472 23.9785 92.8683 21.9277L97.4737 6.30078H100.638L105.472 22.0684C106.034 23.8848 106.509 25.9355 106.896 28.2207C107.118 26.5566 107.54 24.5293 108.161 22.1387L112.204 6.30078H115.368L108.495 32Z" fill="#020612"/>
</g>
<defs>
<clipPath id="clip0">
<rect width="147" height="59" fill="white"/>
</clipPath>
</defs>
</svg>
