<svg width="147" height="59" viewBox="0 0 147 59" fill="none" xmlns="http://www.w3.org/2000/svg">
<g clip-path="url(#clip0)">
<rect width="147" height="59" fill="white"/>
<rect y="18" width="147" height="41" fill="#B1EDBE"/>
<path d="M20.6145 21.3125V32H17.6262V6.30078H24.675C27.8273 6.30078 30.1535 6.9043 31.6535 8.11133C33.1652 9.31836 33.9211 11.1348 33.9211 13.5605C33.9211 16.959 32.1984 19.2559 28.7531 20.4512L35.7316 32H32.1984L25.9758 21.3125H20.6145ZM20.6145 18.7461H24.7102C26.8195 18.7461 28.3664 18.3301 29.3508 17.498C30.3352 16.6543 30.8273 15.3945 30.8273 13.7188C30.8273 12.0195 30.3234 10.7949 29.3156 10.0449C28.3195 9.29492 26.7141 8.91992 24.4992 8.91992H20.6145V18.7461ZM52.5863 32H38.2601V6.30078H52.5863V8.95508H41.2484V17.2344H51.9007V19.8711H41.2484V29.3281H52.5863V32ZM71.1811 25.1621C71.1811 27.4238 70.3608 29.1875 68.7202 30.4531C67.0795 31.7188 64.853 32.3516 62.0405 32.3516C58.9936 32.3516 56.6498 31.959 55.0092 31.1738V28.291C56.0639 28.7363 57.2123 29.0879 58.4545 29.3457C59.6967 29.6035 60.9272 29.7324 62.1459 29.7324C64.1381 29.7324 65.6381 29.3574 66.6459 28.6074C67.6537 27.8457 68.1577 26.791 68.1577 25.4434C68.1577 24.5527 67.976 23.8262 67.6127 23.2637C67.2612 22.6895 66.6635 22.1621 65.8198 21.6816C64.9877 21.2012 63.7162 20.6562 62.0053 20.0469C59.6147 19.1914 57.9037 18.1777 56.8725 17.0059C55.853 15.834 55.3432 14.3047 55.3432 12.418C55.3432 10.4375 56.0873 8.86133 57.5756 7.68945C59.0639 6.51758 61.0327 5.93164 63.4819 5.93164C66.0366 5.93164 68.3862 6.40039 70.5307 7.33789L69.5991 9.93945C67.478 9.04883 65.4155 8.60352 63.4116 8.60352C61.8295 8.60352 60.5932 8.94336 59.7026 9.62305C58.812 10.3027 58.3666 11.2461 58.3666 12.4531C58.3666 13.3438 58.5307 14.0762 58.8588 14.6504C59.187 15.2129 59.7377 15.7344 60.5112 16.2148C61.2963 16.6836 62.4916 17.2051 64.0971 17.7793C66.7924 18.7402 68.644 19.7715 69.6518 20.873C70.6713 21.9746 71.1811 23.4043 71.1811 25.1621ZM94.2232 6.30078V22.9297C94.2232 25.8594 93.3384 28.1621 91.5689 29.8379C89.7994 31.5137 87.3677 32.3516 84.274 32.3516C81.1802 32.3516 78.7838 31.5078 77.0845 29.8203C75.397 28.1328 74.5533 25.8125 74.5533 22.8594V6.30078H77.5416V23.0703C77.5416 25.2148 78.1275 26.8613 79.2994 28.0098C80.4713 29.1582 82.1939 29.7324 84.4673 29.7324C86.6353 29.7324 88.3052 29.1582 89.4771 28.0098C90.649 26.8496 91.2349 25.1914 91.2349 23.0352V6.30078H94.2232ZM99.4235 32V6.30078H102.412V29.293H113.75V32H99.4235ZM124.417 32H121.429V8.95508H113.29V6.30078H132.555V8.95508H124.417V32Z" fill="#020612"/>
</g>
<defs>
<clipPath id="clip0">
<rect width="147" height="59" fill="white"/>
</clipPath>
</defs>
</svg>
