<svg width="147" height="59" viewBox="0 0 147 59" fill="none" xmlns="http://www.w3.org/2000/svg">
<g clip-path="url(#clip0)">
<rect width="147" height="59" fill="white"/>
<rect y="18" width="147" height="41" fill="#92A8FA"/>
<path d="M50.5823 32H47.6292L42.4437 14.791C42.1976 14.0293 41.9222 13.0684 41.6175 11.9082C41.3128 10.748 41.1546 10.0508 41.1429 9.81641C40.8851 11.3633 40.4749 13.0566 39.9124 14.8965L34.8851 32H31.932L25.0941 6.30078H28.2581L32.3187 22.1738C32.8812 24.4004 33.2913 26.416 33.5491 28.2207C33.8655 26.0762 34.3343 23.9785 34.9554 21.9277L39.5609 6.30078H42.7249L47.5589 22.0684C48.1214 23.8848 48.596 25.9355 48.9827 28.2207C49.2054 26.5566 49.6273 24.5293 50.2484 22.1387L54.2913 6.30078H57.4554L50.5823 32ZM79.3725 32H76.3842V19.9062H62.8491V32H59.8608V6.30078H62.8491V17.2344H76.3842V6.30078H79.3725V32ZM100.973 32L97.774 23.8262H87.4732L84.3091 32H81.2857L91.4459 6.19531H93.9595L104.067 32H100.973ZM96.8423 21.1367L93.8541 13.1738C93.4673 12.166 93.0689 10.9297 92.6588 9.46484C92.4009 10.5898 92.0318 11.8262 91.5513 13.1738L88.5279 21.1367H96.8423ZM113.89 32H110.902V8.95508H102.763V6.30078H122.029V8.95508H113.89V32Z" fill="#020612"/>
</g>
<defs>
<clipPath id="clip0">
<rect width="147" height="59" fill="white"/>
</clipPath>
</defs>
</svg>
