<svg width="147" height="59" viewBox="0 0 147 59" fill="none" xmlns="http://www.w3.org/2000/svg">
<g clip-path="url(#clip0)">
<rect width="147" height="59" fill="white"/>
<rect y="18" width="147" height="41" fill="#FA9292"/>
<path d="M61.0399 32H58.0868L52.9012 14.791C52.6552 14.0293 52.3798 13.0684 52.0751 11.9082C51.7704 10.748 51.6122 10.0508 51.6005 9.81641C51.3427 11.3633 50.9325 13.0566 50.37 14.8965L45.3427 32H42.3895L35.5516 6.30078H38.7157L42.7762 22.1738C43.3387 24.4004 43.7489 26.416 44.0067 28.2207C44.3231 26.0762 44.7919 23.9785 45.413 21.9277L50.0184 6.30078H53.1825L58.0165 22.0684C58.579 23.8848 59.0536 25.9355 59.4403 28.2207C59.663 26.5566 60.0848 24.5293 60.7059 22.1387L64.7489 6.30078H67.913L61.0399 32ZM89.8301 32H86.8418V19.9062H73.3066V32H70.3184V6.30078H73.3066V17.2344H86.8418V6.30078H89.8301V32ZM101.816 19.1504L108.671 6.30078H111.905L103.327 22.0332V32H100.304V22.1738L91.7433 6.30078H95.0128L101.816 19.1504Z" fill="#020612"/>
</g>
<defs>
<clipPath id="clip0">
<rect width="147" height="59" fill="white"/>
</clipPath>
</defs>
</svg>
