<svg width="56" height="91" viewBox="0 0 56 91" fill="none" xmlns="http://www.w3.org/2000/svg">
<circle cx="27.6505" cy="22.9868" r="21.2711" fill="#E189A3" stroke="black" stroke-width="3"/>
<path d="M24.0804 76.4155L10.2627 37.4238C9.45551 35.1459 11.145 32.7547 13.5617 32.7547L41.197 32.7547C43.6137 32.7547 45.3032 35.1459 44.496 37.4238L30.6783 76.4155C29.577 79.5234 25.1817 79.5234 24.0804 76.4155Z" fill="#DFAA65" stroke="black" stroke-width="3"/>
<path d="M36.4819 33L24.8253 71.7651L11 33H36.4819Z" fill="#E9CB97"/>
<mask id="path-4-inside-1_106:1210" fill="white">
<path fill-rule="evenodd" clip-rule="evenodd" d="M6.50603 22.9867C2.91285 22.9867 0 25.8995 0 29.4927C0 32.5243 2.07345 35.0716 4.87957 35.7938L4.87957 44.9447C4.87957 48.0887 7.42831 50.6374 10.5723 50.6374C13.7164 50.6374 16.2651 48.0887 16.2651 44.9447L16.2651 35.9987H21.6868V40.0651C21.6868 43.2091 24.2355 45.7579 27.3796 45.7579C30.5236 45.7579 33.0723 43.2091 33.0723 40.0651V35.9987H39.0361V48.1976C39.0361 51.3417 41.5849 53.8904 44.7289 53.8904C47.8729 53.8904 50.4217 51.3417 50.4217 48.1976V35.7938C53.2278 35.0716 55.3012 32.5243 55.3012 29.4927C55.3012 25.8995 52.3884 22.9867 48.7952 22.9867H6.50603Z"/>
</mask>
<path fill-rule="evenodd" clip-rule="evenodd" d="M6.50603 22.9867C2.91285 22.9867 0 25.8995 0 29.4927C0 32.5243 2.07345 35.0716 4.87957 35.7938L4.87957 44.9447C4.87957 48.0887 7.42831 50.6374 10.5723 50.6374C13.7164 50.6374 16.2651 48.0887 16.2651 44.9447L16.2651 35.9987H21.6868V40.0651C21.6868 43.2091 24.2355 45.7579 27.3796 45.7579C30.5236 45.7579 33.0723 43.2091 33.0723 40.0651V35.9987H39.0361V48.1976C39.0361 51.3417 41.5849 53.8904 44.7289 53.8904C47.8729 53.8904 50.4217 51.3417 50.4217 48.1976V35.7938C53.2278 35.0716 55.3012 32.5243 55.3012 29.4927C55.3012 25.8995 52.3884 22.9867 48.7952 22.9867H6.50603Z" fill="#E189A3"/>
<path d="M4.87957 35.7938L7.87957 35.7938L7.87957 33.4681L5.62732 32.8885L4.87957 35.7938ZM4.87957 44.9447L1.87957 44.9447L1.87957 44.9447L4.87957 44.9447ZM16.2651 44.9447L19.2651 44.9447L19.2651 44.9447L16.2651 44.9447ZM16.2651 35.9987V32.9987H13.2651L13.2651 35.9987L16.2651 35.9987ZM21.6868 35.9987H24.6868V32.9987H21.6868V35.9987ZM33.0723 35.9987V32.9987H30.0723V35.9987H33.0723ZM39.0361 35.9987H42.0361V32.9987H39.0361V35.9987ZM50.4217 35.7938L49.6739 32.8885L47.4217 33.4681V35.7938H50.4217ZM3 29.4927C3 27.5564 4.5697 25.9867 6.50603 25.9867V19.9867C1.25599 19.9867 -3 24.2427 -3 29.4927H3ZM5.62732 32.8885C4.11449 32.4991 3 31.1223 3 29.4927H-3C-3 33.9263 0.0324136 37.644 4.13181 38.6991L5.62732 32.8885ZM7.87957 44.9447L7.87957 35.7938L1.87957 35.7938L1.87957 44.9447L7.87957 44.9447ZM10.5723 47.6374C9.08516 47.6374 7.87957 46.4318 7.87957 44.9447L1.87957 44.9447C1.87957 49.7456 5.77146 53.6374 10.5723 53.6374V47.6374ZM13.2651 44.9447C13.2651 46.4318 12.0595 47.6374 10.5723 47.6374V53.6374C15.3732 53.6374 19.2651 49.7456 19.2651 44.9447H13.2651ZM13.2651 35.9987L13.2651 44.9447L19.2651 44.9447L19.2651 35.9987L13.2651 35.9987ZM21.6868 32.9987H16.2651V38.9987H21.6868V32.9987ZM24.6868 40.0651V35.9987H18.6868V40.0651H24.6868ZM27.3796 42.7579C25.8924 42.7579 24.6868 41.5523 24.6868 40.0651H18.6868C18.6868 44.866 22.5787 48.7579 27.3796 48.7579V42.7579ZM30.0723 40.0651C30.0723 41.5523 28.8667 42.7579 27.3796 42.7579V48.7579C32.1804 48.7579 36.0723 44.866 36.0723 40.0651H30.0723ZM30.0723 35.9987V40.0651H36.0723V35.9987H30.0723ZM39.0361 32.9987H33.0723V38.9987H39.0361V32.9987ZM42.0361 48.1976V35.9987H36.0361V48.1976H42.0361ZM44.7289 50.8904C43.2417 50.8904 42.0361 49.6848 42.0361 48.1976H36.0361C36.0361 52.9985 39.928 56.8904 44.7289 56.8904V50.8904ZM47.4217 48.1976C47.4217 49.6848 46.2161 50.8904 44.7289 50.8904V56.8904C49.5298 56.8904 53.4217 52.9985 53.4217 48.1976H47.4217ZM47.4217 35.7938V48.1976H53.4217V35.7938H47.4217ZM52.3012 29.4927C52.3012 31.1223 51.1867 32.4991 49.6739 32.8885L51.1694 38.6991C55.2688 37.644 58.3012 33.9263 58.3012 29.4927H52.3012ZM48.7952 25.9867C50.7315 25.9867 52.3012 27.5564 52.3012 29.4927H58.3012C58.3012 24.2427 54.0452 19.9867 48.7952 19.9867V25.9867ZM6.50603 25.9867H48.7952V19.9867H6.50603V25.9867Z" fill="black" mask="url(#path-4-inside-1_106:1210)"/>
<path d="M41 8.91704C37.7256 18.5109 18.1473 20.9131 8.51163 21L8 21C10.5581 0.313803 34.3488 -0.819623 41 8.91704Z" fill="#E6B9C9"/>
</svg>
