<svg width="1400" height="880" viewBox="0 0 1400 880" fill="none" xmlns="http://www.w3.org/2000/svg">
<rect width="1400" height="880" fill="#F7ECD6"/>
<g filter="url(#filter0_d)">
<circle cx="696.5" cy="483.5" r="350.5" fill="white"/>
</g>
<path d="M577 735.5C565.5 728.5 585.5 680.667 585.5 670.501C658.667 670.501 800.4 667.3 804 676.5C808.5 688 826.5 719.5 818.5 734C810.5 748.5 597.5 747.979 577 735.5Z" fill="#222222"/>
<path d="M985 418.5C985 455.992 977.615 493.118 963.268 527.756C948.92 562.395 927.89 593.868 901.379 620.379C874.868 646.89 843.395 667.92 808.756 682.268C774.118 696.615 736.992 704 699.5 704C662.008 704 624.882 696.615 590.244 682.268C555.605 667.92 524.132 646.89 497.621 620.379C471.11 593.868 450.08 562.395 435.732 527.756C421.385 493.118 414 455.992 414 418.5L699.5 418.5H985Z" fill="#FFE1A0"/>
<path d="M679.5 525C605.9 442.6 486.5 490.667 436 525C547 783 827 714.5 901.5 619.5C858.167 622.333 753.1 607.4 679.5 525Z" fill="#EA813E"/>
<path d="M810 607C788.4 643.8 740.167 685.5 719.5 703.5C803.067 694.599 863.44 662.857 904.013 618.5C881.624 627.7 832.009 614.667 810 607Z" fill="#B6502D" stroke="#B64B27"/>
<path d="M899 419C897.5 447.5 842 557 815 603C837.009 610.667 886.624 623.7 909.013 614.5C966.903 551.211 987.54 469.366 989.5 419H899Z" fill="#222222" stroke="#B64B27"/>
<path d="M1203.95 133.131L705.965 164.904L706.474 172.888L1205.03 150.097L1203.95 133.131Z" fill="#181818"/>
<path d="M421.5 416.5L421.5 233.5C421.5 123 558.226 126.5 559.5 233.5C561.495 401.015 721 405 721 233.5C721 190.417 706.5 142 749 52" stroke="black" stroke-width="3"/>
<path d="M421.5 416.5L421.5 233.5C421.5 123 558.226 126.5 559.5 233.5C561.495 401.015 721 405 721 233.5C721 190.417 706.5 142 749 52" stroke="url(#paint0_linear)" stroke-width="3"/>
<path d="M435 416.5L435 233.5C435 123 571.726 126.5 573 233.5C574.995 401.015 734.5 405 734.5 233.5C734.5 190.417 720 142 762.5 52" stroke="black" stroke-width="3"/>
<path d="M435 416.5L435 233.5C435 123 571.726 126.5 573 233.5C574.995 401.015 734.5 405 734.5 233.5C734.5 190.417 720 142 762.5 52" stroke="url(#paint1_linear)" stroke-width="3"/>
<path d="M449 416.5L449 233.5C449 123 585.726 126.5 587 233.5C588.995 401.015 748.5 405 748.5 233.5C748.5 190.417 734 142 776.5 52" stroke="black" stroke-width="3"/>
<path d="M449 416.5L449 233.5C449 123 585.726 126.5 587 233.5C588.995 401.015 748.5 405 748.5 233.5C748.5 190.417 734 142 776.5 52" stroke="url(#paint2_linear)" stroke-width="3"/>
<path d="M463 416.5L463 233.5C463 123 599.726 126.5 601 233.5C602.995 401.015 762.5 405 762.5 233.5C762.5 190.417 748 142 790.5 52" stroke="black" stroke-width="3"/>
<path d="M463 416.5L463 233.5C463 123 599.726 126.5 601 233.5C602.995 401.015 762.5 405 762.5 233.5C762.5 190.417 748 142 790.5 52" stroke="url(#paint3_linear)" stroke-width="3"/>
<path d="M1206 170H707V178L1206 187V170Z" fill="#B64B27"/>
<defs>
<filter id="filter0_d" x="338" y="126" width="729" height="729" filterUnits="userSpaceOnUse" color-interpolation-filters="sRGB">
<feFlood flood-opacity="0" result="BackgroundImageFix"/>
<feColorMatrix in="SourceAlpha" type="matrix" values="0 0 0 0 0 0 0 0 0 0 0 0 0 0 0 0 0 0 127 0" result="hardAlpha"/>
<feOffset dx="6" dy="7"/>
<feGaussianBlur stdDeviation="7"/>
<feColorMatrix type="matrix" values="0 0 0 0 0.3125 0 0 0 0 0.304167 0 0 0 0 0.260417 0 0 0 0.15 0"/>
<feBlend mode="normal" in2="BackgroundImageFix" result="effect1_dropShadow"/>
<feBlend mode="normal" in="SourceGraphic" in2="effect1_dropShadow" result="shape"/>
</filter>
<linearGradient id="paint0_linear" x1="585.25" y1="52" x2="585.25" y2="416.5" gradientUnits="userSpaceOnUse">
<stop stop-color="white"/>
<stop offset="1" stop-color="white" stop-opacity="0"/>
</linearGradient>
<linearGradient id="paint1_linear" x1="598.75" y1="52" x2="598.75" y2="416.5" gradientUnits="userSpaceOnUse">
<stop stop-color="white"/>
<stop offset="1" stop-color="white" stop-opacity="0"/>
</linearGradient>
<linearGradient id="paint2_linear" x1="612.75" y1="52" x2="612.75" y2="416.5" gradientUnits="userSpaceOnUse">
<stop stop-color="white"/>
<stop offset="1" stop-color="white" stop-opacity="0"/>
</linearGradient>
<linearGradient id="paint3_linear" x1="626.75" y1="52" x2="626.75" y2="416.5" gradientUnits="userSpaceOnUse">
<stop stop-color="white"/>
<stop offset="1" stop-color="white" stop-opacity="0"/>
</linearGradient>
</defs>
</svg>
