<svg width="1920" height="1080" viewBox="0 0 1920 1080" fill="none" xmlns="http://www.w3.org/2000/svg">
<g clip-path="url(#clip0)">
<rect width="1920" height="1080" fill="#F9F8F6"/>
<rect x="161" y="35" width="1759" height="996" fill="#9DAE96"/>
<path d="M52.904 755.2H77.096C84.968 755.2 90.872 757.312 94.808 761.536C98.744 765.76 100.712 771.952 100.712 780.112V831.088C100.712 839.248 98.744 845.44 94.808 849.664C90.872 853.888 84.968 856 77.096 856H52.904V755.2ZM76.808 841.6C79.4 841.6 81.368 840.832 82.712 839.296C84.152 837.76 84.872 835.264 84.872 831.808V779.392C84.872 775.936 84.152 773.44 82.712 771.904C81.368 770.368 79.4 769.6 76.808 769.6H68.744V841.6H76.808ZM118.604 755.2H161.804V769.6H134.444V796.24H156.188V810.64H134.444V841.6H161.804V856H118.604V755.2ZM198.99 857.44C191.31 857.44 185.502 855.28 181.566 850.96C177.63 846.544 175.662 840.256 175.662 832.096V826.336H190.638V833.248C190.638 839.776 193.374 843.04 198.846 843.04C201.534 843.04 203.55 842.272 204.894 840.736C206.334 839.104 207.054 836.512 207.054 832.96C207.054 828.736 206.094 825.04 204.174 821.872C202.254 818.608 198.702 814.72 193.518 810.208C186.99 804.448 182.43 799.264 179.838 794.656C177.246 789.952 175.95 784.672 175.95 778.816C175.95 770.848 177.966 764.704 181.998 760.384C186.03 755.968 191.886 753.76 199.566 753.76C207.15 753.76 212.862 755.968 216.702 760.384C220.638 764.704 222.606 770.944 222.606 779.104V783.28H207.63V778.096C207.63 774.64 206.958 772.144 205.614 770.608C204.27 768.976 202.302 768.16 199.71 768.16C194.43 768.16 191.79 771.376 191.79 777.808C191.79 781.456 192.75 784.864 194.67 788.032C196.686 791.2 200.286 795.04 205.47 799.552C212.094 805.312 216.654 810.544 219.15 815.248C221.646 819.952 222.894 825.472 222.894 831.808C222.894 840.064 220.83 846.4 216.702 850.816C212.67 855.232 206.766 857.44 198.99 857.44ZM239.176 755.2H255.016V856H239.176V755.2ZM296.543 857.44C288.863 857.44 283.007 855.28 278.975 850.96C274.943 846.544 272.927 840.256 272.927 832.096V779.104C272.927 770.944 274.943 764.704 278.975 760.384C283.007 755.968 288.863 753.76 296.543 753.76C304.223 753.76 310.079 755.968 314.111 760.384C318.143 764.704 320.159 770.944 320.159 779.104V787.744H305.183V778.096C305.183 771.472 302.447 768.16 296.975 768.16C291.503 768.16 288.767 771.472 288.767 778.096V833.248C288.767 839.776 291.503 843.04 296.975 843.04C302.447 843.04 305.183 839.776 305.183 833.248V813.52H297.263V799.12H320.159V832.096C320.159 840.256 318.143 846.544 314.111 850.96C310.079 855.28 304.223 857.44 296.543 857.44ZM337.529 755.2H357.401L372.809 815.536H373.097V755.2H387.209V856H370.937L351.929 782.416H351.641V856H337.529V755.2ZM448.829 769.6H432.269V755.2H481.229V769.6H464.669V856H448.829V769.6ZM496.098 755.2H511.938V796.24H528.93V755.2H544.77V856H528.93V810.64H511.938V856H496.098V755.2ZM563.766 755.2H579.606V856H563.766V755.2ZM598.67 755.2H618.542L633.95 815.536H634.238V755.2H648.35V856H632.078L613.07 782.416H612.782V856H598.67V755.2ZM667.323 755.2H683.163V797.68L703.323 755.2H719.163L700.299 792.208L719.451 856H702.891L689.499 811.072L683.163 823.888V856H667.323V755.2ZM734.148 755.2H749.988V856H734.148V755.2ZM769.051 755.2H788.923L804.331 815.536H804.619V755.2H818.731V856H802.459L783.451 782.416H783.163V856H769.051V755.2ZM860.168 857.44C852.488 857.44 846.632 855.28 842.6 850.96C838.568 846.544 836.552 840.256 836.552 832.096V779.104C836.552 770.944 838.568 764.704 842.6 760.384C846.632 755.968 852.488 753.76 860.168 753.76C867.848 753.76 873.704 755.968 877.736 760.384C881.768 764.704 883.784 770.944 883.784 779.104V787.744H868.808V778.096C868.808 771.472 866.072 768.16 860.6 768.16C855.128 768.16 852.392 771.472 852.392 778.096V833.248C852.392 839.776 855.128 843.04 860.6 843.04C866.072 843.04 868.808 839.776 868.808 833.248V813.52H860.888V799.12H883.784V832.096C883.784 840.256 881.768 846.544 877.736 850.96C873.704 855.28 867.848 857.44 860.168 857.44ZM49.16 928.2H64.424L71.48 1005.67H71.768L79.256 928.2H96.536L104.024 1005.67H104.312L111.368 928.2H125.048L114.824 1029H95.096L87.896 961.032H87.608L80.408 1029H59.384L49.16 928.2ZM163.156 1030.44C155.38 1030.44 149.428 1028.23 145.3 1023.82C141.172 1019.4 139.108 1013.16 139.108 1005.1V952.104C139.108 944.04 141.172 937.8 145.3 933.384C149.428 928.968 155.38 926.76 163.156 926.76C170.932 926.76 176.884 928.968 181.012 933.384C185.14 937.8 187.204 944.04 187.204 952.104V1005.1C187.204 1013.16 185.14 1019.4 181.012 1023.82C176.884 1028.23 170.932 1030.44 163.156 1030.44ZM163.156 1016.04C168.628 1016.04 171.364 1012.73 171.364 1006.1V951.096C171.364 944.472 168.628 941.16 163.156 941.16C157.684 941.16 154.948 944.472 154.948 951.096V1006.1C154.948 1012.73 157.684 1016.04 163.156 1016.04ZM205.116 928.2H228.588C236.748 928.2 242.7 930.12 246.444 933.96C250.188 937.704 252.06 943.512 252.06 951.384V957.576C252.06 968.04 248.604 974.664 241.692 977.448V977.736C245.532 978.888 248.22 981.24 249.756 984.792C251.388 988.344 252.204 993.096 252.204 999.048V1016.76C252.204 1019.64 252.3 1021.99 252.492 1023.82C252.684 1025.54 253.164 1027.27 253.932 1029H237.804C237.228 1027.37 236.844 1025.83 236.652 1024.39C236.46 1022.95 236.364 1020.36 236.364 1016.62V998.184C236.364 993.576 235.596 990.36 234.06 988.536C232.62 986.712 230.076 985.8 226.428 985.8H220.956V1029H205.116V928.2ZM226.716 971.4C229.884 971.4 232.236 970.584 233.772 968.952C235.404 967.32 236.22 964.584 236.22 960.744V952.968C236.22 949.32 235.548 946.68 234.204 945.048C232.956 943.416 230.94 942.6 228.156 942.6H220.956V971.4H226.716ZM270.395 928.2H286.235V970.68L306.395 928.2H322.235L303.371 965.208L322.523 1029H305.963L292.571 984.072L286.235 996.888V1029H270.395V928.2ZM356.827 1030.44C349.147 1030.44 343.339 1028.28 339.403 1023.96C335.467 1019.54 333.499 1013.26 333.499 1005.1V999.336H348.475V1006.25C348.475 1012.78 351.211 1016.04 356.683 1016.04C359.371 1016.04 361.387 1015.27 362.731 1013.74C364.171 1012.1 364.891 1009.51 364.891 1005.96C364.891 1001.74 363.931 998.04 362.011 994.872C360.091 991.608 356.539 987.72 351.355 983.208C344.827 977.448 340.267 972.264 337.675 967.656C335.083 962.952 333.787 957.672 333.787 951.816C333.787 943.848 335.803 937.704 339.835 933.384C343.867 928.968 349.723 926.76 357.403 926.76C364.987 926.76 370.699 928.968 374.539 933.384C378.475 937.704 380.443 943.944 380.443 952.104V956.28H365.467V951.096C365.467 947.64 364.795 945.144 363.451 943.608C362.107 941.976 360.139 941.16 357.547 941.16C352.267 941.16 349.627 944.376 349.627 950.808C349.627 954.456 350.587 957.864 352.507 961.032C354.523 964.2 358.123 968.04 363.307 972.552C369.931 978.312 374.491 983.544 376.987 988.248C379.483 992.952 380.731 998.472 380.731 1004.81C380.731 1013.06 378.667 1019.4 374.539 1023.82C370.507 1028.23 364.603 1030.44 356.827 1030.44ZM397.013 928.2H412.853V969.24H429.845V928.2H445.685V1029H429.845V983.64H412.853V1029H397.013V928.2ZM487.578 1030.44C479.802 1030.44 473.85 1028.23 469.722 1023.82C465.594 1019.4 463.53 1013.16 463.53 1005.1V952.104C463.53 944.04 465.594 937.8 469.722 933.384C473.85 928.968 479.802 926.76 487.578 926.76C495.354 926.76 501.306 928.968 505.434 933.384C509.562 937.8 511.626 944.04 511.626 952.104V1005.1C511.626 1013.16 509.562 1019.4 505.434 1023.82C501.306 1028.23 495.354 1030.44 487.578 1030.44ZM487.578 1016.04C493.05 1016.04 495.786 1012.73 495.786 1006.1V951.096C495.786 944.472 493.05 941.16 487.578 941.16C482.106 941.16 479.37 944.472 479.37 951.096V1006.1C479.37 1012.73 482.106 1016.04 487.578 1016.04ZM529.538 928.2H552.866C560.738 928.2 566.642 930.312 570.578 934.536C574.514 938.76 576.482 944.952 576.482 953.112V963.048C576.482 971.208 574.514 977.4 570.578 981.624C566.642 985.848 560.738 987.96 552.866 987.96H545.378V1029H529.538V928.2ZM552.866 973.56C555.458 973.56 557.378 972.84 558.626 971.4C559.97 969.96 560.642 967.512 560.642 964.056V952.104C560.642 948.648 559.97 946.2 558.626 944.76C557.378 943.32 555.458 942.6 552.866 942.6H545.378V973.56H552.866Z" fill="#020612"/>
<path d="M1892.82 1022.68C1891.82 1020.03 1891.78 1017.73 1892.71 1015.77C1893.65 1013.82 1895.49 1012.31 1898.25 1011.26L1902.73 1009.55L1908.84 1025.56L1903.89 1027.45C1901.34 1028.42 1899.1 1028.49 1897.16 1027.66C1895.22 1026.83 1893.77 1025.16 1892.82 1022.68ZM1895.55 1021.54C1897.01 1025.37 1899.53 1026.6 1903.12 1025.23L1905.39 1024.37L1900.95 1012.75L1899.09 1013.46C1895.24 1014.93 1894.06 1017.62 1895.55 1021.54Z" fill="#020612"/>
<path d="M1859.13 1024.56L1868.4 1021.73L1873.41 1038.11L1864.14 1040.95L1863.45 1038.68L1870.04 1036.67L1868.67 1032.21L1862.5 1034.1L1861.81 1031.86L1867.99 1029.97L1866.41 1024.82L1859.83 1026.84L1859.13 1024.56Z" fill="#020612"/>
<path d="M1827.53 1037.54C1827.19 1036.06 1827.45 1034.77 1828.32 1033.68C1829.2 1032.58 1830.58 1031.81 1832.46 1031.37C1834.35 1030.92 1835.96 1030.85 1837.3 1031.16L1837.91 1033.73C1837.06 1033.56 1836.19 1033.46 1835.29 1033.46C1834.38 1033.46 1833.56 1033.54 1832.82 1033.71C1831.74 1033.97 1830.99 1034.36 1830.58 1034.89C1830.16 1035.42 1830.03 1036.03 1830.19 1036.73C1830.34 1037.35 1830.7 1037.82 1831.27 1038.15C1831.85 1038.47 1832.94 1038.75 1834.56 1039C1836.22 1039.26 1837.46 1039.71 1838.27 1040.35C1839.08 1041 1839.61 1041.88 1839.88 1042.99C1840.2 1044.38 1839.97 1045.59 1839.16 1046.62C1838.36 1047.65 1837.13 1048.36 1835.46 1048.75C1833.87 1049.13 1832.2 1049.15 1830.45 1048.82L1830.79 1046.4C1832.42 1046.67 1833.82 1046.67 1834.98 1046.4C1835.87 1046.19 1836.49 1045.84 1836.85 1045.35C1837.22 1044.86 1837.33 1044.3 1837.18 1043.67C1837.08 1043.23 1836.9 1042.88 1836.65 1042.61C1836.39 1042.35 1836.02 1042.13 1835.54 1041.96C1835.06 1041.78 1834.22 1041.6 1833.03 1041.41C1831.68 1041.18 1830.67 1040.92 1830 1040.61C1829.33 1040.3 1828.79 1039.9 1828.39 1039.41C1828 1038.92 1827.71 1038.3 1827.53 1037.54Z" fill="#020612"/>
<path d="M1806.53 1037.02L1809.55 1053.89L1806.79 1054.38L1803.78 1037.52L1806.53 1037.02Z" fill="#020612"/>
<path d="M1777.88 1050.75L1771.62 1051.51L1770.58 1042.97C1771.56 1042.51 1772.52 1042.16 1773.45 1041.9C1774.37 1041.65 1775.38 1041.45 1776.47 1041.32C1779.05 1041.01 1781.12 1041.52 1782.7 1042.87C1784.29 1044.23 1785.25 1046.3 1785.59 1049.07C1785.92 1051.81 1785.39 1054.05 1784.01 1055.78C1782.62 1057.53 1780.55 1058.57 1777.79 1058.9C1776.01 1059.12 1774.29 1058.98 1772.62 1058.5L1773.31 1056.06C1774.77 1056.53 1776.19 1056.68 1777.57 1056.51C1779.38 1056.29 1780.75 1055.54 1781.66 1054.28C1782.58 1053.01 1782.92 1051.38 1782.68 1049.41C1782.42 1047.33 1781.76 1045.8 1780.68 1044.83C1779.59 1043.87 1778.16 1043.5 1776.37 1043.72C1775.47 1043.83 1774.53 1044.06 1773.53 1044.41L1774.06 1048.79L1777.59 1048.36L1777.88 1050.75Z" fill="#020612"/>
<path d="M1734.23 1044.91L1737.66 1044.73L1746.76 1057.95L1746.85 1057.94L1746.75 1057.18C1746.57 1055.74 1746.45 1054.41 1746.39 1053.21L1745.94 1044.32L1748.48 1044.19L1749.34 1061.3L1745.95 1061.47L1736.88 1048.33L1736.81 1048.33C1736.83 1048.51 1736.89 1049.16 1737 1050.28C1737.1 1051.41 1737.17 1052.29 1737.2 1052.92L1737.65 1061.89L1735.09 1062.02L1734.23 1044.91Z" fill="#020612"/>
<path d="M1685.43 1044.27L1688.23 1044.43L1687.38 1059.14L1692.41 1059.43L1692.28 1061.83L1679.42 1061.09L1679.56 1058.69L1684.59 1058.98L1685.43 1044.27Z" fill="#020612"/>
<path d="M1645.06 1040.26L1647.85 1040.61L1646.87 1048.27L1654.7 1049.27L1655.68 1041.61L1658.46 1041.97L1656.29 1058.96L1653.51 1058.61L1654.4 1051.66L1646.56 1050.66L1645.68 1057.61L1642.89 1057.25L1645.06 1040.26Z" fill="#020612"/>
<path d="M1624.46 1036.87L1621.32 1053.72L1618.56 1053.2L1621.7 1036.36L1624.46 1036.87Z" fill="#020612"/>
<path d="M1587.76 1028.78L1591.09 1029.6L1596.01 1044.87L1596.1 1044.89L1596.22 1044.14C1596.47 1042.7 1596.73 1041.4 1597.02 1040.23L1599.15 1031.58L1601.62 1032.19L1597.52 1048.82L1594.22 1048.01L1589.31 1032.81L1589.24 1032.8C1589.21 1032.98 1589.09 1033.62 1588.86 1034.72C1588.64 1035.83 1588.45 1036.69 1588.3 1037.31L1586.15 1046.02L1583.66 1045.41L1587.76 1028.78Z" fill="#020612"/>
<path d="M1552.69 1018.26L1555.78 1019.25L1558.51 1028.29L1560.5 1027.52L1562.47 1021.42L1565.14 1022.28L1559.87 1038.58L1557.2 1037.72L1559.72 1029.94C1558.7 1030.59 1557.7 1031.22 1556.71 1031.81L1550.62 1035.59L1547.59 1034.61C1551.52 1032.19 1554.33 1030.46 1556.02 1029.44L1552.69 1018.26Z" fill="#020612"/>
<path d="M1534.75 1011.72L1528.58 1027.7L1525.97 1026.69L1532.14 1010.71L1534.75 1011.72Z" fill="#020612"/>
<path d="M1500.15 997.041L1503.28 998.458L1505.32 1014.37L1505.41 1014.41L1505.67 1013.69C1506.17 1012.32 1506.67 1011.09 1507.16 1010L1510.84 1001.88L1513.16 1002.93L1506.08 1018.54L1502.99 1017.14L1500.94 1001.3L1500.88 1001.27C1500.82 1001.44 1500.58 1002.04 1500.15 1003.09C1499.73 1004.14 1499.39 1004.95 1499.13 1005.53L1495.42 1013.71L1493.08 1012.65L1500.15 997.041Z" fill="#020612"/>
<path d="M1469.43 991.842L1463.89 988.838L1467.99 981.276C1469.05 981.472 1470.04 981.735 1470.95 982.066C1471.84 982.392 1472.78 982.818 1473.75 983.343C1476.03 984.579 1477.42 986.205 1477.93 988.222C1478.43 990.245 1478.01 992.486 1476.68 994.945C1475.37 997.369 1473.64 998.887 1471.51 999.498C1469.37 1000.12 1467.08 999.763 1464.63 998.437C1463.06 997.585 1461.73 996.475 1460.65 995.107L1462.63 993.526C1463.55 994.752 1464.62 995.696 1465.84 996.359C1467.44 997.23 1468.99 997.414 1470.47 996.91C1471.95 996.407 1473.17 995.28 1474.12 993.528C1475.11 991.687 1475.45 990.059 1475.14 988.643C1474.81 987.231 1473.86 986.096 1472.28 985.24C1471.48 984.808 1470.57 984.446 1469.56 984.154L1467.45 988.038L1470.58 989.73L1469.43 991.842Z" fill="#020612"/>
<path d="M1418.04 948.507L1420.53 950.264L1417.01 960.288C1416.86 960.724 1416.62 961.338 1416.29 962.129C1415.95 962.926 1415.71 963.47 1415.55 963.761C1415.9 963.397 1416.38 962.942 1416.99 962.395C1417.59 961.843 1418.05 961.441 1418.37 961.19L1426.55 954.515L1429.04 956.273L1425.91 964.558L1422.81 972.844L1420.47 971.195L1424.23 961.626C1424.84 960.097 1425.43 958.784 1426.01 957.687C1425.55 958.18 1425.02 958.712 1424.41 959.283C1423.79 959.854 1423.28 960.307 1422.88 960.64L1414.83 967.207L1412.56 965.606L1416.02 955.742C1416.33 954.825 1416.9 953.523 1417.72 951.834C1416.98 952.679 1415.93 953.679 1414.57 954.832L1406.83 961.564L1404.51 959.928L1418.04 948.507Z" fill="#020612"/>
<path d="M1379.76 929.195C1381.54 927.052 1383.47 925.834 1385.53 925.541C1387.59 925.242 1389.6 925.911 1391.56 927.546C1393.55 929.201 1394.59 931.062 1394.67 933.129C1394.75 935.196 1393.89 937.317 1392.08 939.489C1390.27 941.662 1388.34 942.886 1386.3 943.16C1384.26 943.43 1382.24 942.737 1380.26 941.082C1378.3 939.451 1377.28 937.6 1377.19 935.527C1377.11 933.455 1377.97 931.344 1379.76 929.195ZM1389.8 937.566C1391.15 935.946 1391.85 934.442 1391.9 933.057C1391.94 931.678 1391.32 930.453 1390.03 929.383C1388.75 928.318 1387.44 927.929 1386.11 928.218C1384.76 928.501 1383.41 929.462 1382.04 931.1C1380.7 932.715 1380 934.21 1379.95 935.584C1379.9 936.953 1380.51 938.171 1381.79 939.236C1383.08 940.311 1384.41 940.706 1385.76 940.422C1387.11 940.133 1388.46 939.181 1389.8 937.566Z" fill="#020612"/>
<path d="M1360.72 912.704L1359.32 911.358C1358.38 910.455 1357.53 909.976 1356.77 909.92C1356.01 909.865 1355.3 910.181 1354.64 910.869C1353.97 911.569 1353.72 912.29 1353.88 913.032C1354.05 913.774 1354.59 914.586 1355.51 915.467L1356.85 916.748L1360.72 912.704ZM1362.33 911.028L1367.06 906.087L1369.08 908.024L1357.23 920.395L1353.74 917.047C1352.14 915.517 1351.25 914.086 1351.05 912.753C1350.86 911.42 1351.34 910.15 1352.49 908.942C1353.97 907.402 1355.82 907.073 1358.05 907.953L1359.8 899.13L1362.1 901.336L1360.33 909.115L1362.33 911.028Z" fill="#020612"/>
<path d="M1335.47 873.385L1337.65 875.788L1335.52 884.986L1337.63 885.303L1342.38 880.993L1344.26 883.067L1331.58 894.585L1329.7 892.512L1335.75 887.012C1334.54 887.076 1333.36 887.119 1332.21 887.141L1325.05 887.393L1322.9 885.034C1327.52 884.885 1330.81 884.789 1332.79 884.746L1335.47 873.385Z" fill="#020612"/>
<path d="M1311.33 851.428C1312.53 850.482 1313.81 850.172 1315.17 850.497C1316.53 850.823 1317.82 851.745 1319.02 853.264C1320.22 854.783 1320.97 856.214 1321.27 857.555L1319.19 859.199C1318.99 858.358 1318.7 857.529 1318.33 856.712C1317.94 855.889 1317.52 855.181 1317.05 854.587C1316.36 853.717 1315.69 853.207 1315.03 853.059C1314.37 852.904 1313.76 853.048 1313.2 853.489C1312.7 853.886 1312.43 854.413 1312.38 855.069C1312.33 855.726 1312.54 856.837 1313 858.404C1313.47 860.021 1313.59 861.334 1313.35 862.34C1313.11 863.347 1312.54 864.204 1311.65 864.912C1310.53 865.799 1309.33 866.1 1308.06 865.812C1306.79 865.525 1305.62 864.711 1304.56 863.369C1303.54 862.083 1302.81 860.58 1302.36 858.859L1304.71 858.139C1305.15 859.732 1305.74 860.996 1306.48 861.933C1307.05 862.644 1307.63 863.059 1308.23 863.18C1308.83 863.305 1309.38 863.166 1309.89 862.764C1310.24 862.487 1310.48 862.176 1310.62 861.83C1310.74 861.489 1310.79 861.063 1310.74 860.552C1310.69 860.04 1310.5 859.203 1310.17 858.041C1309.8 856.73 1309.61 855.704 1309.6 854.964C1309.6 854.223 1309.73 853.569 1310.01 853C1310.29 852.432 1310.73 851.908 1311.33 851.428Z" fill="#020612"/>
<path d="M1293.73 818.966L1295.32 821.287L1288.94 825.648L1293.4 832.166L1299.78 827.805L1301.36 830.116L1287.22 839.792L1285.64 837.481L1291.42 833.523L1286.96 827.005L1281.18 830.963L1279.59 828.642L1293.73 818.966Z" fill="#020612"/>
<path d="M1266.78 791.47C1269.18 790.063 1271.41 789.572 1273.45 789.999C1275.49 790.419 1277.15 791.732 1278.44 793.937C1279.74 796.17 1280.09 798.273 1279.47 800.246C1278.83 802.216 1277.3 803.915 1274.86 805.343C1272.42 806.77 1270.19 807.265 1268.18 806.83C1266.16 806.387 1264.51 805.05 1263.2 802.817C1261.92 800.618 1261.59 798.53 1262.21 796.553C1262.84 794.576 1264.36 792.882 1266.78 791.47ZM1273.37 802.761C1275.2 801.696 1276.36 800.521 1276.88 799.234C1277.39 797.95 1277.22 796.587 1276.37 795.144C1275.53 793.707 1274.44 792.897 1273.08 792.712C1271.72 792.521 1270.12 792.964 1268.28 794.04C1266.46 795.1 1265.3 796.269 1264.79 797.545C1264.27 798.815 1264.43 800.168 1265.27 801.605C1266.12 803.055 1267.23 803.877 1268.6 804.071C1269.97 804.258 1271.56 803.821 1273.37 802.761Z" fill="#020612"/>
<path d="M1248.46 763.616C1250.07 762.819 1251.55 762.734 1252.93 763.359C1254.3 763.984 1255.47 765.266 1256.44 767.204L1257.23 768.799L1262.97 765.946L1264.22 768.454L1248.87 776.079L1246.68 771.661C1245.73 769.744 1245.4 768.115 1245.71 766.774C1246.02 765.427 1246.94 764.374 1248.46 763.616ZM1255.12 769.847L1254.46 768.514C1253.82 767.227 1253.12 766.394 1252.38 766.015C1251.63 765.636 1250.78 765.682 1249.83 766.155C1248.95 766.593 1248.43 767.19 1248.26 767.944C1248.09 768.698 1248.29 769.646 1248.86 770.786L1249.73 772.528L1255.12 769.847Z" fill="#020612"/>
<path d="M1241.72 717.526L1242.69 720.127L1226.65 726.143L1223.26 717.091L1225.47 716.26L1227.89 722.712L1232.91 720.831L1230.64 714.785L1232.87 713.95L1235.14 719.995L1241.72 717.526Z" fill="#020612"/>
<path d="M1220 679.378C1222.67 678.573 1224.95 678.617 1226.83 679.509C1228.71 680.394 1230.02 682.059 1230.76 684.505C1231.51 686.981 1231.35 689.106 1230.28 690.879C1229.21 692.648 1227.32 693.94 1224.61 694.756C1221.9 695.573 1219.62 695.534 1217.77 694.64C1215.92 693.739 1214.62 692.05 1213.87 689.574C1213.13 687.136 1213.3 685.029 1214.37 683.253C1215.45 681.477 1217.32 680.186 1220 679.378ZM1223.77 691.9C1225.79 691.291 1227.2 690.421 1228.01 689.29C1228.8 688.161 1228.96 686.796 1228.47 685.195C1227.99 683.602 1227.11 682.557 1225.84 682.061C1224.56 681.557 1222.9 681.612 1220.86 682.228C1218.85 682.835 1217.44 683.699 1216.65 684.82C1215.85 685.934 1215.69 687.287 1216.17 688.881C1216.65 690.489 1217.54 691.548 1218.83 692.057C1220.11 692.559 1221.76 692.506 1223.77 691.9Z" fill="#020612"/>
<path d="M1213.2 655.13L1212.77 653.233C1212.48 651.961 1212.03 651.092 1211.43 650.628C1210.83 650.164 1210.06 650.038 1209.13 650.249C1208.19 650.464 1207.58 650.926 1207.31 651.637C1207.04 652.347 1207.04 653.324 1207.33 654.565L1207.74 656.371L1213.2 655.13ZM1215.46 654.616L1222.14 653.1L1222.76 655.831L1206.05 659.626L1204.98 654.907C1204.49 652.751 1204.53 651.063 1205.1 649.844C1205.67 648.624 1206.77 647.829 1208.4 647.459C1210.48 646.986 1212.21 647.731 1213.59 649.694L1219.91 643.295L1220.61 646.403L1214.85 651.919L1215.46 654.616Z" fill="#020612"/>
<path d="M1194.9 595.146L1194.56 592.26L1212.28 596.21L1212.63 599.143L1196.31 607.087L1195.98 604.224L1206.14 599.425C1206.62 599.18 1207.25 598.905 1208.02 598.601C1208.79 598.298 1209.36 598.093 1209.74 597.985C1209.14 597.954 1208.44 597.879 1207.64 597.761C1206.84 597.643 1206.24 597.54 1205.86 597.452L1194.9 595.146Z" fill="#020612"/>
<path d="M1200.61 555.876C1203.39 555.737 1205.59 556.327 1207.21 557.647C1208.82 558.959 1209.69 560.891 1209.82 563.442C1209.95 566.025 1209.28 568.049 1207.82 569.514C1206.35 570.972 1204.21 571.771 1201.38 571.912C1198.56 572.052 1196.35 571.466 1194.77 570.152C1193.19 568.831 1192.33 566.879 1192.2 564.296C1192.08 561.753 1192.75 559.748 1194.21 558.283C1195.68 556.817 1197.81 556.015 1200.61 555.876ZM1201.26 568.938C1203.36 568.833 1204.94 568.328 1205.99 567.423C1207.04 566.518 1207.51 565.231 1207.43 563.561C1207.35 561.899 1206.75 560.674 1205.63 559.885C1204.51 559.088 1202.89 558.742 1200.76 558.849C1198.66 558.953 1197.09 559.454 1196.04 560.35C1195 561.239 1194.52 562.515 1194.6 564.177C1194.69 565.855 1195.29 567.095 1196.42 567.9C1197.55 568.696 1199.16 569.042 1201.26 568.938Z" fill="#020612"/>
<path d="M1208.96 534.273L1191.83 533.995L1191.87 531.195L1206.6 531.433L1206.72 524.18L1209.12 524.219L1208.96 534.273Z" fill="#020612"/>
<path d="M1193.89 491.588L1194.12 488.691L1210.71 496.048L1210.48 498.992L1192.92 503.573L1193.15 500.699L1204.06 497.992C1204.58 497.846 1205.25 497.7 1206.07 497.555C1206.88 497.409 1207.48 497.32 1207.87 497.289C1207.29 497.14 1206.62 496.929 1205.86 496.656C1205.09 496.383 1204.53 496.165 1204.17 496.003L1193.89 491.588Z" fill="#020612"/>
<path d="M1207.2 454.205C1209.96 454.617 1212 455.628 1213.32 457.24C1214.65 458.844 1215.12 460.909 1214.74 463.435C1214.36 465.993 1213.31 467.847 1211.59 468.996C1209.87 470.136 1207.6 470.498 1204.81 470.081C1202.01 469.663 1199.96 468.655 1198.67 467.056C1197.38 465.449 1196.92 463.367 1197.3 460.809C1197.68 458.29 1198.73 456.456 1200.46 455.308C1202.19 454.16 1204.43 453.792 1207.2 454.205ZM1205.27 467.14C1207.36 467.451 1209 467.267 1210.21 466.586C1211.41 465.904 1212.13 464.736 1212.38 463.083C1212.63 461.437 1212.28 460.117 1211.34 459.123C1210.39 458.122 1208.87 457.464 1206.76 457.149C1204.68 456.839 1203.04 457.021 1201.84 457.695C1200.65 458.362 1199.93 459.518 1199.68 461.164C1199.43 462.825 1199.78 464.161 1200.73 465.171C1201.68 466.173 1203.19 466.83 1205.27 467.14Z" fill="#020612"/>
<path d="M1222.12 404.296C1223.59 404.679 1224.61 405.512 1225.18 406.796C1225.74 408.08 1225.78 409.66 1225.29 411.536C1224.8 413.411 1224.11 414.87 1223.22 415.914L1220.66 415.248C1221.21 414.584 1221.7 413.855 1222.12 413.062C1222.55 412.26 1222.85 411.493 1223.05 410.759C1223.32 409.685 1223.32 408.842 1223.05 408.229C1222.77 407.609 1222.29 407.21 1221.6 407.031C1220.98 406.87 1220.4 406.968 1219.84 407.325C1219.29 407.682 1218.53 408.517 1217.56 409.831C1216.55 411.184 1215.58 412.069 1214.63 412.485C1213.68 412.901 1212.66 412.965 1211.55 412.679C1210.17 412.319 1209.21 411.545 1208.67 410.356C1208.13 409.167 1208.08 407.744 1208.51 406.088C1208.92 404.5 1209.68 403.01 1210.78 401.618L1212.77 403.054C1211.77 404.368 1211.11 405.603 1210.81 406.76C1210.59 407.637 1210.61 408.353 1210.87 408.906C1211.13 409.458 1211.58 409.816 1212.21 409.979C1212.64 410.091 1213.03 410.096 1213.39 409.995C1213.74 409.892 1214.1 409.668 1214.48 409.323C1214.86 408.978 1215.42 408.322 1216.14 407.357C1216.97 406.271 1217.67 405.501 1218.26 405.048C1218.84 404.595 1219.45 404.308 1220.07 404.186C1220.69 404.065 1221.37 404.101 1222.12 404.296Z" fill="#020612"/>
<path d="M1220.87 366.068L1231.38 369.574C1232.58 369.974 1233.55 370.585 1234.28 371.405C1235.01 372.215 1235.45 373.191 1235.62 374.332C1235.77 375.464 1235.63 376.708 1235.17 378.064C1234.5 380.08 1233.45 381.47 1232.01 382.233C1230.57 382.997 1228.91 383.067 1227.04 382.444L1216.57 378.953L1217.46 376.285L1227.74 379.713C1229.09 380.16 1230.18 380.179 1231.02 379.769C1231.87 379.359 1232.51 378.509 1232.94 377.219C1233.77 374.714 1232.87 373.023 1230.24 372.146L1219.98 368.725L1220.87 366.068Z" fill="#020612"/>
<path d="M1248.41 342.171L1233.29 341.178L1233.26 341.264C1235.26 341.969 1237.13 342.683 1238.84 343.407L1246.51 346.651L1245.52 348.993L1229.74 342.323L1231.28 338.686L1245.69 339.609L1245.71 339.544L1235.07 329.727L1236.61 326.078L1252.39 332.748L1251.34 335.231L1243.54 331.932C1242.75 331.601 1241.74 331.151 1240.49 330.583C1239.25 330.007 1238.5 329.649 1238.25 329.507L1238.21 329.594L1249.37 339.894L1248.41 342.171Z" fill="#020612"/>
<path d="M1267.17 302.378L1252.19 300.078L1252.15 300.161C1254.09 301.037 1255.88 301.91 1257.53 302.78L1264.89 306.677L1263.7 308.924L1248.56 300.911L1250.41 297.421L1264.68 299.59L1264.71 299.527L1254.95 288.823L1256.81 285.322L1271.95 293.336L1270.69 295.718L1263.2 291.755C1262.45 291.357 1261.48 290.821 1260.29 290.147C1259.1 289.466 1258.39 289.044 1258.15 288.881L1258.1 288.964L1268.32 300.193L1267.17 302.378Z" fill="#020612"/>
<path d="M1290.03 263.191L1284.86 271.386L1270.37 262.24L1275.54 254.045L1277.54 255.309L1273.86 261.136L1277.81 263.625L1281.25 258.165L1283.24 259.416L1279.79 264.876L1284.34 267.748L1288.02 261.921L1290.03 263.191Z" fill="#020612"/>
<path d="M1297.58 235.952L1298.72 234.381C1299.49 233.327 1299.85 232.421 1299.81 231.662C1299.76 230.903 1299.36 230.243 1298.59 229.68C1297.8 229.109 1297.06 228.955 1296.34 229.217C1295.63 229.479 1294.89 230.124 1294.14 231.153L1293.05 232.648L1297.58 235.952ZM1299.45 237.32L1304.98 241.356L1303.32 243.618L1289.49 233.514L1292.34 229.605C1293.65 227.82 1294.95 226.742 1296.24 226.372C1297.54 226.003 1298.86 226.311 1300.21 227.297C1301.93 228.555 1302.51 230.347 1301.93 232.673L1310.91 233.237L1309.03 235.811L1301.08 235.087L1299.45 237.32Z" fill="#020612"/>
<path d="M1344.92 192.695L1337.1 201.283L1335.56 199.879L1335.25 193.622C1335.14 191.758 1335.02 190.484 1334.9 189.798C1334.77 189.102 1334.59 188.516 1334.36 188.04C1334.13 187.564 1333.8 187.137 1333.38 186.758C1332.81 186.238 1332.2 186.001 1331.56 186.048C1330.92 186.089 1330.32 186.413 1329.77 187.02C1329.33 187.505 1328.99 188.057 1328.75 188.677C1328.52 189.29 1328.37 190.108 1328.3 191.129L1325.95 191.007C1326 189.76 1326.2 188.692 1326.56 187.801C1326.91 186.911 1327.43 186.09 1328.12 185.339C1329.19 184.16 1330.36 183.497 1331.62 183.349C1332.88 183.196 1334.03 183.592 1335.07 184.539C1335.64 185.06 1336.09 185.658 1336.42 186.334C1336.75 187.004 1336.99 187.803 1337.15 188.73C1337.31 189.646 1337.41 191.021 1337.44 192.856L1337.57 196.998L1337.65 197.077L1343.13 191.062L1344.92 192.695Z" fill="#020612"/>
<path d="M1363.87 161.593C1365.93 163.745 1367.11 165.675 1367.42 167.384C1367.72 169.087 1367.17 170.619 1365.75 171.979C1364.37 173.297 1362.81 173.756 1361.06 173.358C1359.32 172.959 1357.45 171.718 1355.46 169.634C1353.37 167.449 1352.18 165.51 1351.88 163.818C1351.58 162.115 1352.14 160.586 1353.56 159.231C1354.94 157.908 1356.51 157.449 1358.26 157.853C1360 158.257 1361.88 159.504 1363.87 161.593ZM1357.48 167.707C1359.09 169.396 1360.42 170.437 1361.45 170.83C1362.49 171.218 1363.4 171.048 1364.16 170.319C1364.92 169.59 1365.13 168.691 1364.77 167.623C1364.43 166.548 1363.46 165.178 1361.87 163.512C1360.28 161.852 1358.95 160.822 1357.89 160.423C1356.83 160.012 1355.92 160.171 1355.15 160.9C1354.39 161.628 1354.18 162.524 1354.53 163.588C1354.88 164.645 1355.86 166.019 1357.48 167.707Z" fill="#020612"/>
<path d="M1396.33 144.661L1387.4 152.084L1386.07 150.48L1386.63 144.24C1386.78 142.379 1386.84 141.1 1386.81 140.404C1386.78 139.697 1386.68 139.092 1386.52 138.588C1386.35 138.085 1386.09 137.617 1385.73 137.184C1385.24 136.589 1384.67 136.271 1384.02 136.228C1383.38 136.18 1382.75 136.418 1382.12 136.943C1381.61 137.362 1381.2 137.862 1380.88 138.443C1380.57 139.019 1380.3 139.807 1380.09 140.808L1377.78 140.363C1378 139.134 1378.35 138.104 1378.82 137.271C1379.3 136.439 1379.93 135.698 1380.71 135.049C1381.94 134.03 1383.18 133.535 1384.46 133.564C1385.73 133.586 1386.81 134.138 1387.71 135.22C1388.2 135.815 1388.56 136.469 1388.79 137.184C1389.03 137.893 1389.16 138.718 1389.19 139.658C1389.22 140.588 1389.12 141.963 1388.9 143.784L1388.45 147.904L1388.53 147.994L1394.78 142.795L1396.33 144.661Z" fill="#020612"/>
<path d="M1421.55 125.495L1419.32 127.104L1412.85 118.126C1412.08 117.055 1411.5 116.187 1411.09 115.523C1411.06 115.78 1411 116.078 1410.91 116.417C1410.84 116.752 1410.55 117.846 1410.04 119.701L1407.9 119.092L1409.68 112.933L1411.54 111.591L1421.55 125.495Z" fill="#020612"/>
<path d="M1452.23 85.2844L1456.65 82.7733C1458.71 81.6084 1460.36 81.0665 1461.61 81.1474C1462.86 81.2246 1463.86 81.9086 1464.59 83.1994C1465.08 84.069 1465.27 84.9199 1465.15 85.7519C1465.03 86.584 1464.59 87.3139 1463.83 87.9416L1463.89 88.0436C1465.05 87.6466 1466.04 87.6013 1466.86 87.9079C1467.68 88.2038 1468.38 88.8477 1468.94 89.8396C1469.7 91.178 1469.83 92.4938 1469.32 93.787C1468.82 95.0696 1467.74 96.1834 1466.07 97.1284L1460.69 100.183L1452.23 85.2844ZM1458.16 90.0568L1460.51 88.726C1461.52 88.1475 1462.18 87.5654 1462.47 86.98C1462.75 86.3877 1462.67 85.7043 1462.23 84.9298C1461.83 84.2301 1461.29 83.8686 1460.6 83.8453C1459.92 83.8183 1459.03 84.1172 1457.93 84.742L1455.82 85.9397L1458.16 90.0568ZM1459.28 92.0338L1461.96 96.7522L1464.55 95.2825C1465.57 94.704 1466.23 94.0745 1466.52 93.3941C1466.82 92.703 1466.73 91.9363 1466.26 91.0938C1465.82 90.3193 1465.23 89.8957 1464.48 89.8229C1463.74 89.7501 1462.83 90.0203 1461.75 90.6336L1459.28 92.0338Z" fill="#020612"/>
<path d="M1492.78 72.6814L1493.06 63.8803L1495.81 62.5634L1495.19 74.4881L1498.06 80.48L1495.53 81.6956L1492.7 75.7882L1483 68.7019L1485.74 67.3851L1492.78 72.6814Z" fill="#020612"/>
<path d="M1551.86 58.5403L1548.67 54.6231L1542.49 56.8033L1542.49 61.8476L1539.71 62.8304L1540.03 44.4746L1542.9 43.4606L1554.67 57.5496L1551.86 58.5403ZM1547.17 52.5924L1544.1 48.7285C1543.89 48.4728 1543.57 48.0633 1543.15 47.4999C1542.73 46.9339 1542.43 46.5166 1542.26 46.2479C1542.38 47.2243 1542.44 48.3179 1542.43 49.5287L1542.46 54.2538L1547.17 52.5924Z" fill="#020612"/>
<path d="M1588.5 47.5104L1585.19 48.42L1573.45 37.4873L1573.36 37.5122L1573.61 38.2311C1574.1 39.6034 1574.51 40.8696 1574.83 42.0297L1577.19 50.6178L1574.74 51.2914L1570.2 34.7707L1573.47 33.8704L1585.17 44.7415L1585.24 44.7229C1585.18 44.5537 1584.98 43.933 1584.63 42.8606C1584.29 41.7807 1584.03 40.9356 1583.86 40.3254L1581.49 31.6695L1583.96 30.9897L1588.5 47.5104Z" fill="#020612"/>
<path d="M1624.59 39.5322L1621.22 40.1981L1610.31 28.4391L1610.21 28.4573L1610.42 29.1932C1610.81 30.5975 1611.12 31.8898 1611.35 33.0701L1613.08 41.8072L1610.59 42.3004L1607.26 25.4929L1610.6 24.8338L1621.47 36.5284L1621.54 36.5148C1621.49 36.3415 1621.34 35.7076 1621.07 34.6131C1620.81 33.5109 1620.61 32.6493 1620.49 32.0286L1618.75 23.2224L1621.27 22.7247L1624.59 39.5322Z" fill="#020612"/>
<path d="M1658.13 34.5699L1655.84 30.0603L1649.34 30.8704L1648.27 35.799L1645.33 36.1642L1649.57 18.3004L1652.59 17.9235L1661.08 34.2018L1658.13 34.5699ZM1654.81 27.756L1652.64 23.3263C1652.48 23.0307 1652.26 22.5626 1651.97 21.922C1651.68 21.2804 1651.48 20.8094 1651.37 20.5089C1651.28 21.4886 1651.1 22.5695 1650.84 23.7516L1649.86 28.3735L1654.81 27.756Z" fill="#020612"/>
<path d="M1699.85 36.3163C1699.08 36.3355 1698.44 36.2539 1697.92 36.0715L1697.86 33.7168C1698.52 33.8644 1699.09 33.9321 1699.57 33.92C1701.11 33.8817 1701.85 32.8941 1701.8 30.9572L1701.38 14.3569L1704.19 14.2865L1704.61 30.7931C1704.65 32.5425 1704.27 33.8885 1703.45 34.831C1702.65 35.7811 1701.45 36.2762 1699.85 36.3163Z" fill="#020612"/>
<path d="M1738.97 31.7913L1737.43 26.9754L1730.88 26.7414L1729.04 31.4363L1726.09 31.3308L1733.11 14.3676L1736.15 14.4765L1741.95 31.8976L1738.97 31.7913ZM1736.78 24.5365L1735.34 19.8181C1735.24 19.5016 1735.09 19.0038 1734.9 18.3249C1734.72 17.6462 1734.6 17.1493 1734.53 16.8342C1734.29 17.787 1733.94 18.826 1733.5 19.9514L1731.79 24.3582L1736.78 24.5365Z" fill="#020612"/>
<path d="M1767.49 24.7043L1769.43 24.9085C1770.72 25.0455 1771.69 24.9039 1772.32 24.4837C1772.96 24.0635 1773.32 23.3795 1773.42 22.4316C1773.52 21.4682 1773.28 20.7436 1772.7 20.2576C1772.11 19.7716 1771.19 19.4618 1769.92 19.3281L1768.08 19.1337L1767.49 24.7043ZM1767.25 27.0118L1766.53 33.8177L1763.74 33.5237L1765.54 16.4855L1770.36 16.9937C1772.55 17.2258 1774.14 17.8094 1775.11 18.7445C1776.08 19.6796 1776.48 20.9784 1776.3 22.6411C1776.08 24.7621 1774.81 26.1568 1772.51 26.8251L1776.53 34.8733L1773.36 34.5387L1770 27.3021L1767.25 27.0118Z" fill="#020612"/>
<path d="M1808.29 39.7517L1798.74 38.0844L1801.69 21.2071L1811.24 22.8743L1810.83 25.2062L1804.04 24.0208L1803.24 28.6153L1809.6 29.7261L1809.2 32.0349L1802.84 30.9241L1801.91 36.2228L1808.7 37.4082L1808.29 39.7517Z" fill="#020612"/>
<path d="M1835.29 27.9058L1840.23 29.1177C1842.52 29.6799 1844.09 30.4196 1844.95 31.3367C1845.81 32.2557 1846.06 33.436 1845.71 34.8777C1845.47 35.8489 1845.02 36.5955 1844.36 37.1176C1843.7 37.6396 1842.88 37.8687 1841.9 37.8048L1841.87 37.9186C1842.99 38.4253 1843.74 39.072 1844.12 39.8585C1844.52 40.6394 1844.58 41.5837 1844.31 42.6914C1843.94 44.1862 1843.13 45.23 1841.87 45.8229C1840.63 46.41 1839.08 46.4756 1837.22 46.0195L1831.21 44.5451L1835.29 27.9058ZM1836.32 35.4474L1838.94 36.0897C1840.08 36.3689 1840.95 36.3944 1841.57 36.1663C1842.18 35.9305 1842.59 35.3802 1842.8 34.5152C1842.99 33.7337 1842.85 33.0986 1842.37 32.61C1841.89 32.1232 1841.04 31.729 1839.81 31.4274L1837.45 30.8494L1836.32 35.4474ZM1835.78 37.6553L1834.49 42.9248L1837.38 43.6341C1838.52 43.9134 1839.43 43.9075 1840.11 43.6165C1840.8 43.3197 1841.27 42.701 1841.5 41.7601C1841.71 40.8951 1841.57 40.1814 1841.08 39.6189C1840.59 39.0564 1839.74 38.6271 1838.54 38.3311L1835.78 37.6553Z" fill="#020612"/>
<path d="M1870.89 45.938L1872.74 46.5315C1873.98 46.9296 1874.95 46.9873 1875.66 46.7048C1876.37 46.4223 1876.86 45.8272 1877.16 44.9195C1877.45 43.997 1877.36 43.2383 1876.89 42.6435C1876.41 42.0486 1875.57 41.5569 1874.36 41.1684L1872.59 40.6035L1870.89 45.938ZM1870.18 48.1476L1868.09 54.6651L1865.42 53.8105L1870.65 37.4946L1875.26 38.9713C1877.36 39.6459 1878.8 40.5396 1879.56 41.6524C1880.31 42.7652 1880.44 44.1177 1879.93 45.7098C1879.28 47.7409 1877.76 48.8495 1875.37 49.0356L1877.66 57.7328L1874.63 56.7603L1872.81 48.9914L1870.18 48.1476Z" fill="#020612"/>
<path d="M1914.34 62.354C1913.31 64.9446 1911.86 66.6993 1909.99 67.6181C1908.12 68.5397 1906 68.5274 1903.63 67.581C1901.23 66.623 1899.67 65.1753 1898.94 63.2379C1898.23 61.296 1898.39 59.0117 1899.44 56.3847C1900.49 53.7578 1901.94 51.9981 1903.79 51.1054C1905.65 50.2157 1907.78 50.2498 1910.19 51.2078C1912.55 52.1513 1914.09 53.5954 1914.82 55.5401C1915.54 57.4848 1915.38 59.7561 1914.34 62.354ZM1902.2 57.5092C1901.42 59.4685 1901.22 61.1138 1901.6 62.4452C1901.99 63.7694 1902.96 64.7411 1904.52 65.3605C1906.06 65.9769 1907.43 65.9407 1908.61 65.2519C1909.8 64.5659 1910.79 63.2324 1911.58 61.2513C1912.36 59.2993 1912.56 57.6626 1912.18 56.3414C1911.8 55.0231 1910.84 54.0557 1909.3 53.4392C1907.74 52.817 1906.36 52.851 1905.15 53.5413C1903.96 54.2345 1902.98 55.5571 1902.2 57.5092Z" fill="#020612"/>
<path d="M59.4917 698.867H62.398L56.398 716H53.4449L47.4683 698.867H50.3511L53.9253 709.52C54.1128 710.027 54.312 710.684 54.523 711.488C54.7339 712.285 54.8706 712.879 54.9331 713.27C55.0347 712.676 55.1909 711.988 55.4019 711.207C55.6128 710.426 55.7847 709.848 55.9175 709.473L59.4917 698.867ZM90.3106 707.41C90.3106 710.199 89.6114 712.367 88.213 713.914C86.8224 715.461 84.8497 716.234 82.295 716.234C79.7091 716.234 77.7208 715.469 76.3302 713.938C74.9474 712.398 74.2559 710.215 74.2559 707.387C74.2559 704.559 74.9513 702.387 76.3419 700.871C77.7403 699.355 79.7325 698.598 82.3184 698.598C84.8653 698.598 86.8341 699.367 88.2247 700.906C89.6153 702.445 90.3106 704.613 90.3106 707.41ZM77.2325 707.41C77.2325 709.52 77.6583 711.121 78.5099 712.215C79.3614 713.301 80.6231 713.844 82.295 713.844C83.9591 713.844 85.213 713.305 86.0567 712.227C86.9083 711.148 87.3341 709.543 87.3341 707.41C87.3341 705.309 86.9122 703.715 86.0684 702.629C85.2325 701.543 83.9825 701 82.3184 701C80.6388 701 79.3692 701.543 78.5099 702.629C77.6583 703.715 77.2325 705.309 77.2325 707.41ZM104.43 716V698.867H107.231V713.598H114.485V716H104.43ZM137.64 698.867H140.546L134.546 716H131.593L125.616 698.867H128.499L132.073 709.52C132.261 710.027 132.46 710.684 132.671 711.488C132.882 712.285 133.019 712.879 133.081 713.27C133.183 712.676 133.339 711.988 133.55 711.207C133.761 710.426 133.933 709.848 134.066 709.473L137.64 698.867ZM168.459 707.41C168.459 710.199 167.76 712.367 166.361 713.914C164.97 715.461 162.998 716.234 160.443 716.234C157.857 716.234 155.869 715.469 154.478 713.938C153.095 712.398 152.404 710.215 152.404 707.387C152.404 704.559 153.099 702.387 154.49 700.871C155.888 699.355 157.881 698.598 160.467 698.598C163.013 698.598 164.982 699.367 166.373 700.906C167.763 702.445 168.459 704.613 168.459 707.41ZM155.381 707.41C155.381 709.52 155.806 711.121 156.658 712.215C157.51 713.301 158.771 713.844 160.443 713.844C162.107 713.844 163.361 713.305 164.205 712.227C165.056 711.148 165.482 709.543 165.482 707.41C165.482 705.309 165.06 703.715 164.217 702.629C163.381 701.543 162.131 701 160.467 701C158.787 701 157.517 701.543 156.658 702.629C155.806 703.715 155.381 705.309 155.381 707.41ZM209.132 711.348C209.132 712.871 208.581 714.066 207.479 714.934C206.378 715.801 204.858 716.234 202.921 716.234C200.983 716.234 199.397 715.934 198.163 715.332V712.684C198.944 713.051 199.772 713.34 200.647 713.551C201.53 713.762 202.35 713.867 203.108 713.867C204.218 713.867 205.034 713.656 205.558 713.234C206.089 712.812 206.354 712.246 206.354 711.535C206.354 710.895 206.112 710.352 205.628 709.906C205.143 709.461 204.143 708.934 202.628 708.324C201.065 707.691 199.964 706.969 199.323 706.156C198.683 705.344 198.362 704.367 198.362 703.227C198.362 701.797 198.87 700.672 199.886 699.852C200.901 699.031 202.265 698.621 203.975 698.621C205.616 698.621 207.249 698.98 208.874 699.699L207.983 701.984C206.46 701.344 205.1 701.023 203.905 701.023C202.999 701.023 202.311 701.223 201.843 701.621C201.374 702.012 201.14 702.531 201.14 703.18C201.14 703.625 201.233 704.008 201.421 704.328C201.608 704.641 201.917 704.938 202.347 705.219C202.776 705.5 203.55 705.871 204.667 706.332C205.925 706.855 206.847 707.344 207.433 707.797C208.018 708.25 208.448 708.762 208.722 709.332C208.995 709.902 209.132 710.574 209.132 711.348ZM236.318 698.867V709.953C236.318 711.219 236.044 712.328 235.498 713.281C234.958 714.227 234.173 714.957 233.142 715.473C232.119 715.98 230.892 716.234 229.462 716.234C227.337 716.234 225.685 715.672 224.505 714.547C223.326 713.422 222.736 711.875 222.736 709.906V698.867H225.548V709.707C225.548 711.121 225.876 712.164 226.533 712.836C227.189 713.508 228.197 713.844 229.556 713.844C232.197 713.844 233.517 712.457 233.517 709.684V698.867H236.318ZM258.547 716L253.578 701.691H253.484C253.617 703.816 253.684 705.809 253.684 707.668V716H251.141V698.867H255.09L259.848 712.496H259.918L264.816 698.867H268.777V716H266.082V707.527C266.082 706.676 266.102 705.566 266.141 704.199C266.188 702.832 266.227 702.004 266.258 701.715H266.164L261.02 716H258.547ZM291.135 716L286.167 701.691H286.073C286.206 703.816 286.272 705.809 286.272 707.668V716H283.729V698.867H287.678L292.436 712.496H292.506L297.405 698.867H301.366V716H298.67V707.527C298.67 706.676 298.69 705.566 298.729 704.199C298.776 702.832 298.815 702.004 298.846 701.715H298.753L293.608 716H291.135ZM326.009 716H316.318V698.867H326.009V701.234H319.118V705.898H325.575V708.242H319.118V713.621H326.009V716ZM342.965 706.836H344.91C346.215 706.836 347.16 706.594 347.746 706.109C348.332 705.625 348.625 704.906 348.625 703.953C348.625 702.984 348.308 702.289 347.675 701.867C347.043 701.445 346.09 701.234 344.816 701.234H342.965V706.836ZM342.965 709.156V716H340.164V698.867H345.004C347.215 698.867 348.851 699.281 349.914 700.109C350.976 700.938 351.508 702.188 351.508 703.859C351.508 705.992 350.398 707.512 348.179 708.418L353.019 716H349.832L345.73 709.156H342.965ZM393.036 716H381.423V713.914L385.841 709.473C387.145 708.137 388.009 707.191 388.43 706.637C388.86 706.074 389.173 705.547 389.368 705.055C389.563 704.562 389.661 704.035 389.661 703.473C389.661 702.699 389.427 702.09 388.958 701.645C388.497 701.199 387.856 700.977 387.036 700.977C386.38 700.977 385.743 701.098 385.126 701.34C384.516 701.582 383.809 702.02 383.005 702.652L381.516 700.836C382.47 700.031 383.395 699.461 384.294 699.125C385.192 698.789 386.149 698.621 387.165 698.621C388.759 698.621 390.036 699.039 390.997 699.875C391.958 700.703 392.438 701.82 392.438 703.227C392.438 704 392.298 704.734 392.016 705.43C391.743 706.125 391.317 706.844 390.739 707.586C390.169 708.32 389.216 709.316 387.88 710.574L384.903 713.457V713.574H393.036V716ZM417.187 707.434C417.187 710.41 416.706 712.621 415.745 714.066C414.792 715.512 413.331 716.234 411.363 716.234C409.456 716.234 408.011 715.488 407.027 713.996C406.042 712.504 405.55 710.316 405.55 707.434C405.55 704.41 406.027 702.184 406.98 700.754C407.941 699.316 409.402 698.598 411.363 698.598C413.277 698.598 414.726 699.348 415.71 700.848C416.695 702.348 417.187 704.543 417.187 707.434ZM408.339 707.434C408.339 709.77 408.578 711.438 409.054 712.438C409.538 713.438 410.308 713.938 411.363 713.938C412.417 713.938 413.187 713.43 413.671 712.414C414.163 711.398 414.41 709.738 414.41 707.434C414.41 705.137 414.163 703.477 413.671 702.453C413.187 701.422 412.417 700.906 411.363 700.906C410.308 700.906 409.538 701.41 409.054 702.418C408.578 703.426 408.339 705.098 408.339 707.434ZM441.338 716H429.725V713.914L434.143 709.473C435.447 708.137 436.31 707.191 436.732 706.637C437.162 706.074 437.475 705.547 437.67 705.055C437.865 704.562 437.963 704.035 437.963 703.473C437.963 702.699 437.728 702.09 437.26 701.645C436.799 701.199 436.158 700.977 435.338 700.977C434.682 700.977 434.045 701.098 433.428 701.34C432.818 701.582 432.111 702.02 431.307 702.652L429.818 700.836C430.771 700.031 431.697 699.461 432.596 699.125C433.494 698.789 434.451 698.621 435.467 698.621C437.06 698.621 438.338 699.039 439.299 699.875C440.26 700.703 440.74 701.82 440.74 703.227C440.74 704 440.6 704.734 440.318 705.43C440.045 706.125 439.619 706.844 439.041 707.586C438.471 708.32 437.518 709.316 436.182 710.574L433.205 713.457V713.574H441.338V716ZM461.961 716H459.207V704.938C459.207 703.617 459.239 702.57 459.301 701.797C459.122 701.984 458.899 702.191 458.633 702.418C458.375 702.645 457.5 703.363 456.008 704.574L454.625 702.828L459.665 698.867H461.961V716Z" fill="#020612"/>
</g>
<defs>
<clipPath id="clip0">
<rect width="1920" height="1080" fill="white"/>
</clipPath>
</defs>
</svg>
